<svg xmlns="http://www.w3.org/2000/svg" width="1024" height="1024" viewBox="0 0 1024 1024">
<g>
<path d="M 507.04 933.38 C503.63,930.51 496.07,920.12 494.19,915.70 C493.54,914.16 493.00,910.89 493.00,908.43 C493.00,904.71 492.62,903.80 490.75,903.08 C487.76,901.91 483.39,897.18 482.06,893.68 C480.52,889.61 480.75,884.46 482.92,873.86 C488.30,847.67 491.55,795.78 492.63,719.00 C493.73,640.74 489.30,583.43 480.77,565.40 C477.87,559.28 477.50,557.54 477.51,550.00 C477.53,541.74 477.66,541.25 482.29,532.86 C489.85,519.16 491.35,507.76 486.55,500.43 C482.75,494.63 473.99,492.22 469.12,495.63 C465.67,498.05 463.76,503.24 465.07,506.68 C467.14,512.14 471.44,512.59 473.53,507.57 C475.29,503.38 478.39,502.14 481.07,504.56 C484.82,507.96 482.46,515.68 476.77,518.62 C466.85,523.75 455.06,515.95 455.02,504.22 C454.99,498.55 456.90,494.27 461.39,489.92 L 465.09 486.34 L 461.14 485.16 C455.78,483.55 451.41,479.22 450.05,474.17 C449.08,470.57 449.20,469.34 450.89,465.52 C454.17,458.10 461.55,455.29 470.78,457.94 C473.23,458.64 473.86,458.58 473.31,457.69 C472.92,457.03 459.72,441.65 444.00,423.50 C402.84,376.00 403.93,377.35 404.78,375.08 C405.48,373.17 442.07,328.59 449.78,320.23 L 453.69 316.00 L 511.98 316.00 L 570.26 316.00 L 573.38 319.31 C577.35,323.52 614.86,368.44 617.95,372.68 C620.25,375.83 620.26,375.88 618.38,378.86 C617.35,380.52 602.10,398.45 584.50,418.70 C566.90,438.96 551.95,456.24 551.28,457.09 C550.19,458.47 550.57,458.54 554.81,457.67 C564.35,455.71 571.99,459.53 574.08,467.28 C576.22,475.26 571.75,482.50 563.08,485.10 L 559.24 486.24 L 563.01 490.01 C567.60,494.60 569.39,499.63 568.76,506.19 C568.16,512.38 565.70,515.85 559.79,518.81 C555.81,520.81 554.64,520.98 551.29,520.08 C543.62,518.01 538.48,508.59 542.86,504.63 C545.61,502.14 548.70,503.33 550.47,507.57 C552.04,511.35 554.78,512.08 557.43,509.43 C561.46,505.39 560.27,499.35 554.77,496.00 C548.64,492.26 541.19,494.45 536.94,501.24 C535.24,503.96 534.95,505.84 535.20,512.50 C535.49,519.97 535.89,521.25 541.25,531.91 C546.60,542.52 547.00,543.79 547.00,550.24 C547.00,555.96 546.40,558.55 543.56,565.01 C538.13,577.35 535.17,596.00 533.07,631.00 C528.88,700.82 532.71,828.36 540.15,866.83 C544.57,889.69 543.66,896.69 535.57,901.88 C531.82,904.30 531.49,904.87 531.34,909.19 C531.14,915.12 527.45,922.06 520.25,930.01 C514.08,936.83 511.83,937.41 507.04,933.38 ZM 520.73 913.09 C522.48,908.92 521.65,903.42 519.05,902.03 C515.99,900.39 512.69,892.47 513.43,888.53 C514.69,881.83 522.65,877.96 527.78,881.56 C531.93,884.47 529.43,890.37 525.04,888.02 C521.16,885.95 519.45,889.63 522.65,893.17 C525.92,896.78 532.31,894.42 533.46,889.17 C534.37,885.05 532.75,881.76 525.89,873.79 C520.36,867.36 513.00,854.51 513.00,851.28 C513.00,850.58 512.55,850.00 512.00,850.00 C511.45,850.00 511.00,850.72 511.00,851.60 C511.00,854.89 502.78,868.83 497.00,875.34 C491.58,881.45 491.00,882.52 491.00,886.55 C491.00,893.44 495.65,896.87 501.07,893.96 C503.09,892.88 503.73,888.57 502.02,887.51 C501.48,887.18 500.10,887.41 498.96,888.02 C497.40,888.86 496.51,888.84 495.44,887.95 C490.39,883.76 499.75,877.66 506.06,881.03 C510.27,883.29 512.34,891.58 509.86,896.32 C509.23,897.52 507.20,900.19 505.36,902.25 C503.51,904.32 502.00,906.93 502.00,908.05 C502.00,910.81 504.53,915.61 508.70,920.76 L 512.15 925.01 L 515.72 920.76 C517.68,918.42 519.94,914.96 520.73,913.09 ZM 501.43 857.69 C503.55,853.51 505.75,847.07 506.69,842.30 C508.18,834.69 508.18,833.92 506.62,831.55 C504.76,828.70 501.88,828.24 500.02,830.48 C499.02,831.69 499.28,832.54 501.42,835.09 C503.56,837.63 503.83,838.50 502.84,839.69 C502.17,840.50 500.65,840.97 499.46,840.75 C497.40,840.35 497.23,840.87 496.11,851.22 C495.46,857.21 494.65,863.55 494.31,865.30 C493.70,868.46 493.72,868.48 495.74,866.69 C496.86,865.70 499.42,861.65 501.43,857.69 ZM 528.58 854.99 C527.71,848.30 527.00,842.41 527.00,841.91 C527.00,841.41 525.86,841.00 524.47,841.00 C520.97,841.00 520.42,838.70 523.08,835.11 C524.97,832.55 525.11,831.84 523.99,830.49 C522.09,828.20 518.73,829.06 517.21,832.23 C514.70,837.50 519.24,853.67 525.99,863.49 C527.75,866.05 529.41,867.92 529.68,867.66 C529.94,867.39 529.45,861.69 528.58,854.99 ZM 510.00 822.43 C510.00,820.40 508.26,817.06 505.78,814.34 C503.82,812.18 503.82,812.16 505.96,809.26 C507.15,807.66 508.43,804.14 508.82,801.43 C509.45,797.05 509.80,796.50 511.98,796.50 C514.11,796.50 514.55,797.10 515.19,800.86 C515.60,803.26 516.86,806.79 517.98,808.70 L 520.03 812.17 L 517.52 815.16 C516.13,816.81 515.00,819.40 515.00,820.93 C515.00,823.67 515.06,823.70 520.25,823.22 C523.14,822.96 525.57,822.69 525.64,822.62 C525.72,822.55 525.42,816.88 524.97,810.00 C522.92,778.80 521.77,725.31 522.20,681.78 C522.65,636.36 522.61,635.00 520.76,635.00 C519.72,635.00 518.00,634.53 516.93,633.96 C515.22,633.05 515.00,633.27 515.00,636.01 C515.00,637.99 515.93,640.02 517.60,641.69 L 520.20 644.29 L 518.01 648.19 C516.81,650.34 515.52,654.21 515.15,656.80 C514.55,660.96 514.19,661.50 511.99,661.50 C509.78,661.50 509.44,660.99 508.98,656.97 C508.69,654.48 507.45,650.73 506.21,648.63 L 503.97 644.83 L 506.48 641.84 C509.01,638.84 510.71,634.37 509.71,633.37 C509.41,633.08 508.26,633.32 507.15,633.92 C506.04,634.51 504.31,635.00 503.32,635.00 C501.58,635.00 501.52,637.18 501.86,683.75 C502.18,727.09 500.99,783.57 499.15,812.71 L 498.50 822.91 L 503.00 823.28 C505.48,823.48 508.06,823.72 508.75,823.82 C509.44,823.92 510.00,823.30 510.00,822.43 ZM 507.11 625.79 C508.41,623.36 507.47,615.80 504.77,607.00 C502.52,599.68 498.15,590.51 497.31,591.36 C497.01,591.66 497.25,595.42 497.86,599.70 C498.47,603.99 499.06,609.44 499.18,611.82 C499.33,614.80 499.96,616.44 501.20,617.11 C503.39,618.28 503.54,621.30 501.50,623.00 C499.73,624.47 499.58,626.18 501.08,627.68 C502.58,629.18 505.85,628.15 507.11,625.79 ZM 523.50 627.01 C523.86,625.85 523.37,623.74 522.31,621.95 C520.54,618.94 520.54,618.85 522.63,617.19 C524.32,615.84 524.88,613.98 525.39,608.00 C525.74,603.88 526.28,598.25 526.58,595.50 L 527.12 590.50 L 524.57 594.50 C519.90,601.80 515.04,620.39 516.55,625.16 C517.09,626.85 519.88,628.72 522.18,628.94 C522.56,628.97 523.15,628.11 523.50,627.01 ZM 513.93 602.75 C515.27,598.16 521.43,586.47 523.02,585.48 C524.82,584.37 524.02,582.52 520.88,580.50 C519.16,579.40 516.52,576.59 515.01,574.26 L 512.26 570.01 L 509.61 574.01 C508.16,576.20 505.41,579.01 503.50,580.25 C501.59,581.49 500.02,582.87 500.01,583.32 C500.01,583.77 501.12,585.60 502.48,587.39 C505.30,591.08 511.00,603.19 511.00,605.48 C511.00,608.50 512.71,606.91 513.93,602.75 ZM 504.38 570.27 C508.32,564.66 509.13,557.13 506.12,554.12 C503.32,551.32 502.64,551.43 499.13,555.18 C496.59,557.90 495.92,558.18 494.57,557.06 C488.52,552.04 499.87,543.18 507.28,547.15 C508.63,547.87 507.81,546.46 505.11,543.40 C502.73,540.71 499.57,536.40 498.10,533.83 L 495.42 529.16 L 491.00 537.33 C485.46,547.57 485.25,552.24 489.85,562.21 C491.55,565.91 493.22,570.18 493.56,571.71 C495.09,578.57 494.81,578.30 498.32,576.25 C500.05,575.23 502.78,572.54 504.38,570.27 ZM 530.36 573.15 C530.70,571.01 532.43,566.18 534.19,562.40 C538.77,552.61 538.64,547.71 533.51,537.75 C531.32,533.49 529.29,530.00 529.01,530.00 C528.72,530.00 527.30,531.91 525.85,534.25 C524.41,536.59 521.81,540.37 520.09,542.66 L 516.96 546.81 L 520.78 546.30 C525.71,545.64 531.00,549.62 531.00,553.98 C531.00,558.26 528.09,558.78 525.02,555.05 C521.94,551.31 520.75,551.23 518.07,554.63 C515.38,558.06 515.47,561.32 518.42,567.65 C520.67,572.49 527.25,578.58 529.04,577.48 C529.42,577.24 530.02,575.29 530.36,573.15 ZM 516.59 530.75 C523.63,519.80 523.60,520.37 517.76,510.58 C514.95,505.86 512.37,502.00 512.02,502.00 C510.86,502.00 502.00,517.53 502.00,519.58 C502.00,521.88 510.71,537.00 512.03,537.00 C512.33,537.00 514.38,534.19 516.59,530.75 ZM 502.75 498.50 C503.99,496.59 504.98,494.68 504.96,494.26 C504.92,493.53 495.99,483.44 496.01,484.15 C496.02,484.34 496.69,486.98 497.50,490.00 C498.31,493.02 498.98,496.96 498.99,498.75 C499.00,502.90 499.94,502.84 502.75,498.50 ZM 527.52 485.94 C528.10,484.10 527.16,484.73 523.68,488.50 C521.15,491.25 519.06,493.87 519.04,494.32 C519.02,494.77 520.22,496.73 521.71,498.68 L 524.41 502.23 L 525.58 495.30 C526.22,491.49 527.09,487.28 527.52,485.94 ZM 484.56 481.11 C480.20,472.52 470.86,466.31 463.58,467.16 C459.98,467.59 458.06,470.28 459.60,472.75 C460.20,473.71 464.75,475.86 469.70,477.52 C474.66,479.18 480.47,481.74 482.61,483.21 C484.75,484.68 486.62,485.91 486.77,485.94 C486.91,485.97 485.92,483.80 484.56,481.11 ZM 554.31 477.52 C563.79,474.34 566.30,472.29 564.39,469.25 C563.01,467.04 558.63,466.50 553.84,467.93 C549.41,469.26 542.40,475.90 539.14,481.86 L 536.77 486.18 L 541.04 483.36 C543.38,481.81 549.35,479.18 554.31,477.52 ZM 542.78 405.75 L 552.86 381.00 L 512.43 381.00 C490.19,381.00 472.00,381.39 472.00,381.86 C472.00,382.57 504.93,464.30 510.52,477.46 L 512.20 481.42 L 522.46 455.96 C528.10,441.96 537.24,419.36 542.78,405.75 ZM 495.86 466.75 C495.19,465.51 487.13,445.83 477.94,423.00 L 461.23 381.50 L 440.51 381.23 L 419.79 380.96 L 429.20 391.73 C441.16,405.41 483.79,454.53 490.85,462.76 C496.51,469.37 497.84,470.42 495.86,466.75 ZM 565.61 425.61 C583.70,404.77 599.77,386.21 601.32,384.36 L 604.15 381.00 L 583.68 381.00 C568.24,381.00 563.09,381.31 562.72,382.25 C562.45,382.94 555.46,400.15 547.19,420.50 C538.91,440.85 531.18,459.98 530.01,463.00 L 527.88 468.50 L 530.30 466.00 C531.63,464.62 547.52,446.45 565.61,425.61 ZM 602.85 369.25 C600.30,365.70 572.66,333.01 572.41,333.26 C572.11,333.57 566.00,368.45 566.00,369.89 C566.00,370.60 572.28,371.05 584.75,371.23 C595.06,371.38 603.66,371.42 603.85,371.31 C604.05,371.21 603.60,370.28 602.85,369.25 ZM 458.00 369.44 C458.00,367.74 451.97,333.64 451.61,333.27 C451.42,333.08 429.52,359.00 422.18,368.12 L 419.86 371.00 L 438.93 371.00 C455.52,371.00 458.00,370.80 458.00,369.44 ZM 548.00 370.54 C548.00,370.29 539.93,360.85 530.06,349.56 L 512.11 329.04 L 495.37 348.27 C486.16,358.85 477.97,368.29 477.16,369.25 C475.76,370.91 477.52,371.00 511.85,371.00 C531.73,371.00 548.00,370.79 548.00,370.54 ZM 486.03 344.00 L 501.24 326.50 L 481.48 326.23 C470.60,326.08 461.47,326.20 461.18,326.49 C460.72,326.95 461.89,334.57 466.22,359.35 C467.44,366.30 465.00,368.19 486.03,344.00 ZM 558.57 355.90 C562.12,336.40 563.78,326.48 563.55,326.23 C563.41,326.08 554.18,326.08 543.04,326.23 L 522.78 326.50 L 539.55 345.76 C548.77,356.35 556.48,364.85 556.68,364.65 C556.88,364.45 557.73,360.51 558.57,355.90 ZM 607.47 640.97 C604.84,638.06 606.47,633.62 610.33,633.18 C613.95,632.76 616.00,634.53 616.00,638.09 C616.00,642.80 610.74,644.58 607.47,640.97 ZM 371.99 625.31 C370.33,617.07 369.00,615.43 362.80,613.98 C357.07,612.64 353.54,611.13 354.31,610.35 C354.58,610.09 357.63,609.21 361.08,608.40 C364.54,607.60 367.92,606.48 368.60,605.92 C369.27,605.36 370.35,602.56 371.00,599.70 C372.80,591.74 373.06,591.00 374.10,591.00 C375.26,591.00 375.55,591.83 377.01,599.26 C378.30,605.81 380.11,607.29 388.28,608.52 C392.70,609.18 394.89,610.45 393.69,611.65 C393.41,611.93 390.24,612.83 386.66,613.65 C383.07,614.46 379.65,615.71 379.07,616.42 C378.48,617.13 377.42,620.55 376.72,624.03 C376.02,627.51 374.93,630.52 374.30,630.73 C373.62,630.96 372.70,628.80 371.99,625.31 ZM 443.57 622.43 C441.71,620.56 441.52,616.88 443.20,615.20 C443.86,614.54 445.57,614.00 447.00,614.00 C448.43,614.00 450.14,614.54 450.80,615.20 C453.63,618.03 451.05,624.00 447.00,624.00 C445.98,624.00 444.44,623.29 443.57,622.43 ZM 649.62 622.25 C649.34,621.29 648.82,618.43 648.47,615.91 C647.38,608.22 644.22,603.77 638.47,601.82 C635.74,600.89 631.78,599.85 629.69,599.51 C626.86,599.05 625.96,598.46 626.19,597.24 C626.41,596.08 628.45,595.20 632.94,594.29 C643.52,592.14 646.36,589.28 648.21,578.87 C648.83,575.36 649.77,571.93 650.30,571.24 C651.95,569.08 653.72,571.66 654.46,577.28 C655.87,588.05 659.76,592.33 669.87,594.21 C679.50,596.00 679.54,599.18 669.95,600.32 C660.51,601.44 656.10,605.93 654.55,616.00 C653.52,622.66 653.01,624.00 651.50,624.00 C650.75,624.00 649.91,623.21 649.62,622.25 ZM 653.47 604.06 C654.31,602.44 656.34,600.32 657.99,599.34 C661.65,597.18 661.71,596.65 658.47,595.17 C657.08,594.54 655.00,592.41 653.84,590.46 L 651.74 586.90 L 649.93 589.87 C648.93,591.51 646.74,593.87 645.05,595.12 L 641.98 597.39 L 645.03 599.32 C646.70,600.38 648.74,602.54 649.56,604.12 C650.38,605.70 651.25,607.00 651.50,607.00 C651.75,607.00 652.63,605.68 653.47,604.06 ZM 571.57 621.43 C568.40,618.26 570.77,613.00 575.37,613.00 C578.32,613.00 580.00,614.81 580.00,618.00 C580.00,619.43 579.46,621.14 578.80,621.80 C577.12,623.48 573.44,623.29 571.57,621.43 ZM 415.49 594.35 C414.59,593.44 414.05,591.98 414.31,591.10 C414.78,589.48 435.64,540.30 440.29,529.83 C441.68,526.72 443.76,523.67 444.91,523.05 C447.93,521.43 451.01,523.32 450.98,526.79 C450.96,528.99 425.39,590.36 422.66,594.75 C421.55,596.53 417.44,596.30 415.49,594.35 ZM 601.57 595.12 C599.00,590.96 572.98,528.17 573.21,526.67 C573.37,525.60 574.45,524.10 575.61,523.34 C577.45,522.12 577.98,522.17 579.84,523.72 C581.67,525.25 610.00,589.35 610.00,591.97 C610.00,594.86 603.02,597.46 601.57,595.12 ZM 292.57 591.43 C290.86,589.72 290.70,588.94 291.57,586.68 C291.88,585.86 316.97,561.19 347.32,531.86 C377.67,502.52 410.20,470.98 419.61,461.76 C432.89,448.76 437.31,445.00 439.33,445.00 C442.30,445.00 444.44,448.05 443.51,450.97 C443.07,452.35 339.57,553.58 330.51,561.50 C329.88,562.05 322.39,569.36 313.86,577.75 C298.09,593.26 295.85,594.70 292.57,591.43 ZM 708.66 576.20 C699.22,566.96 684.50,552.67 675.95,544.45 C621.06,491.67 580.94,452.37 580.48,450.94 C579.27,447.11 583.78,443.60 587.29,445.66 C588.08,446.12 621.18,477.95 660.86,516.39 C712.46,566.38 733.00,586.90 733.00,588.44 C733.00,591.27 731.18,593.00 728.21,593.00 C726.47,593.00 721.18,588.45 708.66,576.20 ZM 389.42 557.51 L 387.71 554.90 L 409.99 521.70 C422.25,503.44 433.19,487.49 434.31,486.25 C438.01,482.16 443.90,484.29 442.65,489.26 C442.33,490.52 431.77,506.84 419.18,525.52 C399.97,554.04 395.88,559.55 393.71,559.81 C391.83,560.04 390.66,559.41 389.42,557.51 ZM 621.37 549.75 C603.92,524.38 581.00,489.82 581.00,488.89 C581.00,486.25 583.24,484.00 585.86,484.00 C588.41,484.00 590.67,487.00 612.33,519.25 C625.36,538.64 636.01,555.03 636.01,555.68 C636.00,557.61 633.02,560.00 630.64,560.00 C628.94,560.00 626.74,557.56 621.37,549.75 ZM 282.07 538.13 C281.48,537.03 281.00,535.09 280.99,533.82 C280.97,524.53 275.41,517.77 266.33,515.99 C263.01,515.33 259.66,514.38 258.89,513.88 C256.78,512.49 260.04,510.40 265.52,509.65 C271.12,508.88 275.51,506.68 277.51,503.62 C278.36,502.33 279.68,498.23 280.46,494.50 C282.63,484.14 285.25,483.01 286.31,491.97 C287.69,503.61 291.62,507.84 303.10,510.02 C309.06,511.15 309.45,511.38 308.71,513.31 C308.41,514.09 305.39,515.24 301.84,515.93 C298.35,516.60 294.49,517.80 293.26,518.59 C290.18,520.57 287.24,526.70 286.43,532.84 C285.63,538.85 283.71,541.19 282.07,538.13 ZM 290.01 515.19 C292.86,513.57 293.92,512.00 292.17,512.00 C291.24,512.00 286.71,507.55 284.66,504.63 C283.43,502.87 283.21,502.98 281.20,506.38 C280.02,508.38 277.92,510.53 276.53,511.17 L 274.01 512.32 L 277.95 515.69 C280.11,517.54 282.18,519.99 282.54,521.13 C283.15,523.06 283.33,522.98 285.12,520.04 C286.18,518.30 288.38,516.12 290.01,515.19 ZM 742.71 532.34 C742.43,531.88 741.64,528.66 740.95,525.18 C739.52,517.86 738.29,516.75 729.75,515.02 C726.50,514.36 724.00,513.32 724.00,512.63 C724.00,511.93 726.57,510.87 729.92,510.18 C737.76,508.56 739.57,506.80 741.18,499.31 C741.90,495.91 742.95,492.98 743.50,492.81 C744.05,492.64 745.25,495.59 746.16,499.36 C747.08,503.14 748.26,506.66 748.79,507.19 C749.32,507.72 752.77,508.92 756.44,509.85 C765.90,512.23 765.66,513.01 754.50,515.95 C748.56,517.51 748.03,518.11 746.40,525.09 C744.91,531.49 743.68,533.91 742.71,532.34 ZM 328.65 498.17 C324.69,493.79 324.73,493.76 374.25,460.92 C400.24,443.68 422.72,429.40 424.22,429.18 C426.37,428.87 427.19,429.32 428.10,431.33 C428.74,432.73 429.02,434.51 428.72,435.28 C428.43,436.05 421.05,441.42 412.34,447.21 C403.63,453.00 382.20,467.25 364.72,478.87 C347.23,490.49 332.34,500.00 331.62,500.00 C330.90,500.00 329.57,499.18 328.65,498.17 ZM 643.65 468.39 C617.37,450.94 595.80,435.96 595.48,434.93 C594.46,431.73 596.80,428.74 599.95,429.21 C601.48,429.43 623.94,443.71 649.86,460.94 C693.57,489.99 697.00,492.47 697.00,495.10 C697.00,497.73 694.77,500.00 692.18,500.00 C691.66,500.00 669.82,485.78 643.65,468.39 ZM 240.65 471.17 C238.50,468.79 238.56,466.71 240.83,464.65 C244.48,461.35 249.00,463.20 249.00,468.00 C249.00,472.88 243.94,474.80 240.65,471.17 ZM 285.75 471.92 C284.71,471.32 284.00,469.71 284.00,467.98 C284.00,465.71 284.71,464.69 287.15,463.42 C292.53,460.64 403.29,413.83 407.17,412.70 C410.00,411.87 411.21,411.93 412.42,412.94 C414.72,414.84 414.37,418.71 411.75,420.42 C410.51,421.22 397.35,427.03 382.50,433.33 C367.65,439.63 340.52,451.13 322.21,458.89 C303.90,466.65 288.60,472.99 288.21,472.97 C287.82,472.95 286.71,472.48 285.75,471.92 ZM 717.50 465.55 C708.15,461.52 681.15,450.05 657.50,440.05 C633.85,430.05 613.49,421.21 612.25,420.41 C608.51,417.99 609.81,412.00 614.08,412.00 C615.00,412.00 636.40,420.71 661.63,431.36 C686.86,442.00 714.25,453.55 722.50,457.02 C730.75,460.49 738.06,463.76 738.75,464.29 C740.72,465.80 740.28,470.78 738.07,471.96 C737.00,472.53 735.76,472.97 735.32,472.93 C734.87,472.89 726.85,469.57 717.50,465.55 ZM 762.58 430.09 C760.13,427.38 761.17,423.25 764.51,422.41 C769.48,421.16 772.80,424.75 770.66,429.06 C769.09,432.24 764.99,432.75 762.58,430.09 ZM 257.57 423.43 C255.19,421.05 255.63,417.29 258.50,415.41 C260.82,413.89 261.18,413.89 263.50,415.41 C266.47,417.36 266.78,420.98 264.17,423.35 C261.87,425.42 259.60,425.45 257.57,423.43 ZM 296.98 419.96 C295.07,416.39 296.70,414.14 302.31,412.59 C306.65,411.39 337.65,404.69 385.36,394.63 L 395.21 392.55 L 397.11 394.88 C401.95,400.87 401.34,401.10 350.15,412.08 C324.70,417.53 302.57,422.00 300.98,422.00 C299.08,422.00 297.69,421.29 296.98,419.96 ZM 673.01 411.93 C640.60,404.90 627.18,401.60 626.33,400.44 C624.95,398.55 625.92,395.08 628.24,393.62 C629.34,392.93 640.87,395.04 667.64,400.83 C688.47,405.33 709.55,409.87 714.50,410.91 C719.45,411.94 724.24,413.10 725.15,413.47 C727.23,414.31 727.94,416.92 726.88,419.79 C726.22,421.57 725.32,421.98 722.28,421.90 C720.20,421.84 698.03,417.36 673.01,411.93 ZM 211.63 378.89 C210.01,376.56 210.44,374.18 212.83,372.25 C214.04,371.27 232.84,371.00 299.19,371.00 C382.67,371.00 384.03,371.03 386.00,373.00 C388.41,375.41 388.54,377.32 386.43,379.43 C385.02,380.83 375.72,381.00 298.99,381.00 L 213.11 381.00 L 211.63 378.89 ZM 637.41 378.50 C635.89,376.18 635.89,375.82 637.41,373.50 L 639.05 371.00 L 724.52 371.00 C808.67,371.00 810.03,371.03 812.00,373.00 C814.41,375.41 814.45,375.92 812.44,378.78 L 810.89 381.00 L 724.97 381.00 L 639.05 381.00 L 637.41 378.50 ZM 388.50 358.52 C386.30,357.79 376.17,354.86 366.00,352.02 C314.36,337.58 301.36,333.67 299.65,332.02 C297.49,329.95 298.12,326.54 300.94,325.03 C302.29,324.31 314.00,327.24 347.13,336.59 C371.53,343.48 392.96,349.76 394.75,350.55 C397.37,351.69 398.00,352.54 398.00,354.95 C398.00,356.87 397.31,358.30 396.07,358.96 C393.74,360.21 393.57,360.20 388.50,358.52 ZM 627.75 358.92 C625.71,357.73 625.39,352.73 627.25,351.25 C627.94,350.71 636.15,348.13 645.50,345.53 C654.85,342.93 675.71,337.03 691.86,332.43 C722.60,323.66 724.06,323.47 725.54,328.12 C725.99,329.54 725.60,330.82 724.35,332.03 C723.21,333.13 704.75,338.85 676.33,346.91 C650.93,354.11 630.01,359.99 629.83,359.97 C629.65,359.95 628.71,359.48 627.75,358.92 ZM 401.00 337.14 C397.42,335.06 378.98,324.44 360.00,313.53 C341.02,302.62 324.62,292.88 323.55,291.87 C321.96,290.38 321.78,289.53 322.57,287.27 C323.17,285.55 324.39,284.38 325.78,284.18 C327.22,283.97 335.23,288.05 348.26,295.61 C359.39,302.07 378.40,313.07 390.50,320.04 C410.28,331.45 412.53,333.02 412.84,335.57 C413.16,338.34 411.01,341.05 408.56,340.96 C407.98,340.94 404.58,339.22 401.00,337.14 ZM 612.57 339.43 C609.37,336.23 610.60,333.38 616.75,329.73 C649.18,310.50 696.03,284.00 697.61,284.00 C701.86,284.00 703.59,289.35 700.25,292.16 C699.29,292.97 692.20,297.27 684.50,301.72 C676.80,306.17 658.36,316.83 643.51,325.40 C628.67,333.98 615.99,341.00 615.33,341.00 C614.68,341.00 613.44,340.29 612.57,339.43 ZM 411.28 313.75 C405.26,308.11 384.87,288.65 365.96,270.50 C347.05,252.35 322.43,228.73 311.25,218.00 C299.72,206.94 290.65,197.45 290.31,196.08 C289.57,193.16 293.11,189.72 295.80,190.75 C296.73,191.11 323.82,216.62 356.00,247.43 C388.17,278.25 417.53,306.35 421.23,309.88 C424.93,313.40 428.23,317.15 428.57,318.21 C429.29,320.50 426.50,324.00 423.95,324.00 C423.00,324.00 417.29,319.39 411.28,313.75 ZM 596.45 321.57 C594.32,318.31 595.15,316.95 604.76,307.89 C616.42,296.91 678.29,237.74 703.50,213.48 C715.60,201.83 726.44,191.80 727.60,191.20 C729.21,190.35 730.18,190.44 731.85,191.60 C736.55,194.90 735.36,196.37 703.75,226.66 C687.11,242.60 662.03,266.64 648.01,280.07 C633.99,293.51 617.93,308.89 612.33,314.25 C606.23,320.09 601.32,324.00 600.09,324.00 C598.97,324.00 597.33,322.91 596.45,321.57 ZM 766.09 320.85 C765.55,319.56 764.86,316.46 764.53,313.97 C763.86,308.77 761.14,303.79 757.77,301.58 C756.49,300.75 752.53,299.48 748.97,298.78 C740.27,297.06 740.36,295.17 749.26,292.92 C760.43,290.10 762.87,287.54 764.91,276.53 C766.66,267.08 769.29,266.32 770.31,274.97 C771.09,281.57 774.23,288.51 777.16,290.12 C778.45,290.83 782.42,292.14 786.00,293.02 C794.51,295.14 794.48,296.88 785.89,298.97 C774.72,301.70 772.01,304.65 770.52,315.70 C769.69,321.94 767.55,324.42 766.09,320.85 ZM 769.54 302.93 C770.41,301.24 772.71,298.92 774.65,297.78 L 778.17 295.70 L 774.66 293.70 C772.73,292.59 770.36,290.23 769.40,288.44 L 767.65 285.20 L 766.08 288.34 C765.21,290.07 763.05,292.39 761.29,293.49 C759.52,294.60 758.06,295.73 758.04,296.00 C758.03,296.27 759.37,297.27 761.04,298.22 C762.70,299.17 764.83,301.30 765.78,302.96 C766.73,304.63 767.60,305.99 767.72,305.99 C767.85,306.00 768.66,304.62 769.54,302.93 ZM 268.58 317.75 C268.38,317.06 267.69,313.95 267.05,310.83 C266.41,307.71 265.18,304.56 264.31,303.83 C263.45,303.10 259.98,301.83 256.62,301.00 C253.25,300.17 250.55,299.05 250.60,298.50 C250.66,297.95 253.36,296.92 256.60,296.20 C259.85,295.49 263.30,294.12 264.27,293.15 C265.25,292.19 266.57,288.61 267.20,285.20 C268.69,277.20 270.53,277.12 272.08,284.98 C272.72,288.27 273.80,291.71 274.47,292.62 C275.13,293.54 278.70,295.04 282.38,295.97 C286.07,296.90 289.09,298.07 289.10,298.57 C289.11,299.08 286.35,300.17 282.96,301.01 C275.50,302.85 273.69,304.84 272.09,312.93 C270.98,318.57 269.43,320.70 268.58,317.75 ZM 438.84 304.97 C437.46,304.16 417.54,276.18 390.17,236.58 C384.03,227.70 382.92,224.48 385.20,222.20 C388.27,219.13 390.79,220.83 397.82,230.75 C424.24,267.99 444.43,297.92 444.82,300.41 C445.14,302.46 444.73,303.72 443.45,304.66 C441.30,306.23 441.03,306.25 438.84,304.97 ZM 581.15 304.40 C576.91,301.42 576.75,301.74 598.85,270.00 C631.69,222.84 633.06,221.00 635.36,221.00 C640.53,221.00 641.37,225.49 637.33,231.52 C623.32,252.45 586.53,304.18 585.11,304.94 C583.84,305.62 582.68,305.47 581.15,304.40 ZM 462.81 299.25 C460.55,296.61 414.00,187.37 414.00,184.71 C414.00,179.33 420.00,178.17 422.53,183.05 C424.58,187.02 469.50,291.78 470.45,294.82 C470.95,296.42 470.64,297.74 469.44,299.07 C467.26,301.47 464.77,301.54 462.81,299.25 ZM 487.63 299.72 C486.33,298.77 484.15,290.20 479.05,265.97 C465.70,202.55 463.53,190.97 464.65,189.18 C465.99,187.04 470.33,186.48 471.80,188.26 C472.42,189.01 477.93,213.82 484.05,243.39 C494.68,294.79 495.10,297.24 493.43,299.08 C491.39,301.33 490.04,301.48 487.63,299.72 ZM 508.65 299.17 C507.14,297.50 507.00,289.15 507.00,199.61 C507.00,134.15 507.34,101.23 508.04,99.93 C509.43,97.32 514.57,97.32 515.96,99.93 C516.66,101.23 517.00,134.20 517.00,199.78 C517.00,293.36 516.92,297.76 515.17,299.35 C512.79,301.50 510.71,301.44 508.65,299.17 ZM 532.24 300.33 C529.46,299.21 529.04,296.31 530.60,288.87 C538.46,251.29 545.61,216.91 548.14,204.50 C549.83,196.25 551.68,188.91 552.27,188.20 C552.85,187.48 554.45,187.03 555.81,187.20 C560.61,187.78 560.75,189.72 557.20,207.25 C544.88,268.27 538.46,297.72 537.17,299.25 C535.68,301.02 534.55,301.26 532.24,300.33 ZM 554.91 298.91 C553.76,297.76 553.03,296.07 553.29,295.16 C553.69,293.76 575.49,242.85 596.51,194.24 C601.34,183.07 602.65,180.88 604.79,180.34 C607.79,179.58 611.27,183.02 610.32,185.80 C608.09,192.33 562.40,297.86 561.20,299.25 C559.21,301.55 557.46,301.46 554.91,298.91 ZM 287.28 254.75 C285.38,252.29 285.17,250.20 286.63,248.11 C288.67,245.21 292.56,245.40 294.59,248.50 C296.11,250.82 296.11,251.18 294.59,253.50 C292.83,256.19 288.91,256.86 287.28,254.75 ZM 655.57 198.43 C653.71,196.56 653.52,192.88 655.20,191.20 C655.86,190.54 657.57,190.00 659.00,190.00 C660.43,190.00 662.14,190.54 662.80,191.20 C665.63,194.03 663.05,200.00 659.00,200.00 C657.98,200.00 656.44,199.29 655.57,198.43 ZM 366.75 183.92 C364.62,182.68 364.42,177.72 366.44,176.05 C371.00,172.27 377.48,178.60 373.53,182.97 C371.51,185.20 369.44,185.49 366.75,183.92 ZM 430.33 168.79 C429.79,168.08 428.83,164.64 428.21,161.13 C426.36,150.73 423.44,147.78 412.87,145.62 C408.58,144.75 406.40,143.81 406.19,142.75 C405.87,141.09 406.98,140.60 413.50,139.50 C423.30,137.86 426.28,134.59 428.39,123.14 C430.19,113.39 432.17,113.71 434.40,124.12 C436.73,134.94 438.90,137.17 449.37,139.50 C459.13,141.68 459.47,143.72 450.37,145.58 C438.83,147.93 436.25,150.60 434.08,162.45 C432.89,168.99 431.84,170.77 430.33,168.79 ZM 437.92 144.90 L 440.96 142.66 L 437.71 140.45 C435.93,139.24 433.84,137.07 433.07,135.63 L 431.67 133.02 L 428.31 136.95 C426.46,139.11 424.04,141.17 422.94,141.52 C421.11,142.10 421.23,142.35 424.22,144.37 C426.02,145.58 428.40,147.95 429.50,149.63 L 431.50 152.69 L 433.19 149.92 C434.12,148.39 436.25,146.14 437.92,144.90 ZM 583.66 157.31 C583.38,156.31 582.84,153.54 582.47,151.14 C581.56,145.35 579.32,143.36 572.06,141.93 C568.55,141.24 566.00,140.22 566.00,139.50 C566.00,138.78 568.55,137.76 572.06,137.07 C579.50,135.60 581.59,133.64 582.46,127.31 C583.71,118.18 586.34,117.58 587.52,126.16 C588.47,133.03 591.07,135.52 598.92,137.06 C602.31,137.73 604.92,138.75 604.73,139.32 C604.53,139.90 601.70,140.98 598.44,141.72 C591.01,143.40 589.40,145.01 587.72,152.44 C586.35,158.47 584.59,160.58 583.66,157.31 ZM 641.57 152.43 C639.71,150.56 639.52,146.88 641.20,145.20 C644.32,142.08 650.00,144.77 650.00,149.36 C650.00,151.43 647.23,154.00 645.00,154.00 C643.98,154.00 642.44,153.29 641.57,152.43 Z" fill="rgba(0,0,0,1)"/>
</g>
</svg>