<svg xmlns="http://www.w3.org/2000/svg" width="1024" height="1024" viewBox="0 0 1024 1024">
<g>
<path d="M 499.50 951.59 C492.57,948.42 485.64,940.71 483.44,933.73 C481.91,928.88 481.18,927.93 477.74,926.38 C468.95,922.42 465.36,911.47 470.10,903.04 C471.38,900.77 473.90,897.99 475.71,896.87 L 479.00 894.84 L 478.97 812.17 L 478.94 729.50 L 474.42 726.76 C469.60,723.83 466.06,717.92 466.02,712.72 C465.97,706.55 470.67,699.21 476.10,696.96 L 479.00 695.76 L 478.97 613.13 L 478.95 530.50 L 475.22 528.18 C469.47,524.60 467.62,521.41 467.17,514.30 C466.85,509.37 467.19,507.35 468.75,504.70 C470.68,501.43 470.68,501.26 468.91,497.92 C464.75,490.12 467.35,480.16 474.75,475.50 C478.48,473.15 478.63,471.99 475.94,466.06 C472.61,458.71 467.06,452.33 455.88,443.00 C445.27,434.14 439.01,427.49 433.28,418.99 C429.47,413.35 425.15,412.00 410.91,412.00 L 400.86 412.00 L 401.68 406.25 C402.69,399.18 402.39,390.70 400.97,386.41 C400.16,383.96 398.62,382.54 394.56,380.48 C376.31,371.25 361.13,353.46 354.46,333.50 C352.99,329.10 351.19,324.34 350.46,322.92 C348.91,319.91 342.80,314.22 337.05,310.41 C334.82,308.94 333.00,307.44 333.00,307.08 C333.00,306.72 334.29,305.67 335.87,304.74 C340.44,302.03 348.95,294.00 350.58,290.84 C351.41,289.24 353.02,284.91 354.16,281.22 C360.38,261.05 374.22,244.15 393.46,233.24 C401.91,228.44 402.33,227.38 401.55,212.88 L 400.98 202.27 L 410.74 201.71 C426.90,200.80 428.04,200.13 435.91,187.11 C439.77,180.73 450.11,170.74 462.24,161.67 C476.43,151.07 486.73,140.33 490.96,131.73 C494.00,125.57 494.09,125.06 492.59,122.78 C490.38,119.40 489.52,111.82 490.90,107.86 C492.12,104.35 511.16,72.04 512.00,72.04 C512.82,72.03 531.95,104.56 533.15,107.99 C534.43,111.68 533.61,119.42 531.60,122.48 C527.41,128.88 541.31,146.74 562.56,162.26 C573.99,170.61 585.65,182.76 590.42,191.29 C595.15,199.75 598.92,201.45 613.09,201.48 L 622.69 201.50 L 622.59 214.83 C622.49,230.01 621.79,228.63 632.80,234.84 C650.66,244.90 663.22,260.86 670.40,282.61 C673.43,291.82 676.96,296.50 685.35,302.50 C688.44,304.70 690.97,306.78 690.98,307.12 C690.99,307.46 689.23,308.90 687.08,310.33 C676.93,317.05 673.48,321.81 669.08,335.20 C666.27,343.73 658.26,357.10 652.20,363.37 C646.36,369.42 634.72,378.19 628.59,381.17 C622.64,384.06 621.57,387.56 622.27,401.75 L 622.78 412.00 L 612.91 412.00 C607.47,412.00 600.94,412.56 598.39,413.24 C594.37,414.32 593.20,415.28 589.67,420.48 C584.01,428.81 579.26,433.76 567.58,443.47 C556.42,452.74 551.11,459.05 547.83,466.96 L 545.64 472.22 L 549.85 475.72 C552.17,477.64 554.72,480.50 555.53,482.06 C557.53,485.92 557.31,493.76 555.09,497.92 C553.31,501.27 553.31,501.42 555.35,504.87 C560.01,512.76 557.11,523.32 549.05,527.85 L 545.00 530.13 L 545.00 612.94 L 545.00 695.76 L 547.90 696.96 C553.33,699.21 558.03,706.55 557.98,712.72 C557.94,717.92 554.40,723.83 549.58,726.76 C546.41,728.68 545.05,730.17 545.03,731.75 L 545.00 734.00 L 567.00 734.00 L 589.00 734.00 L 589.00 747.50 L 589.00 761.00 L 596.50 761.00 L 604.00 761.00 L 604.00 747.50 L 604.00 734.00 L 647.50 734.00 L 691.00 734.00 L 691.00 767.50 L 691.00 801.00 L 672.50 801.00 L 654.00 801.00 L 653.98 788.75 C653.98,782.01 653.64,776.00 653.23,775.40 C651.99,773.54 648.29,772.00 645.07,772.00 L 642.00 772.00 L 642.00 789.00 L 642.00 806.00 L 636.20 806.00 C630.46,806.00 630.39,805.96 629.11,802.43 C626.96,796.49 623.29,795.01 610.75,795.00 L 600.00 795.00 L 600.00 813.13 L 600.00 831.26 L 610.75 830.80 C623.52,830.26 627.26,828.76 628.99,823.52 C630.15,820.02 630.19,820.00 636.08,820.00 L 642.00 820.00 L 642.00 836.50 L 642.00 853.00 L 646.00 853.00 C652.96,853.00 654.00,850.99 654.00,837.50 L 654.00 826.00 L 672.50 826.00 L 691.00 826.00 L 691.00 858.50 L 691.00 891.00 L 647.50 891.00 L 604.00 891.00 L 604.00 878.00 L 604.00 865.00 L 596.50 865.00 L 589.00 865.00 L 589.00 878.00 L 589.00 891.00 L 567.00 891.00 C545.55,891.00 545.00,891.05 545.00,893.03 C545.00,894.30 546.33,895.85 548.54,897.16 C555.12,901.04 558.11,912.01 554.50,919.00 C552.86,922.16 547.77,926.38 544.32,927.43 C542.91,927.86 541.89,929.23 541.45,931.30 C539.63,939.73 533.04,947.68 524.60,951.60 C517.59,954.87 506.64,954.87 499.50,951.59 ZM 522.22 937.78 C524.12,936.33 526.41,933.65 527.29,931.82 L 528.90 928.50 L 512.81 928.22 C503.96,928.07 496.45,928.21 496.13,928.53 C495.00,929.67 499.54,936.47 503.00,938.81 C507.90,942.13 517.17,941.63 522.22,937.78 ZM 541.07 914.96 C543.23,913.81 543.64,910.04 541.80,908.20 C540.92,907.32 532.91,907.00 512.00,907.00 C491.09,907.00 483.08,907.32 482.20,908.20 C480.43,909.97 480.74,913.75 482.75,914.92 C485.14,916.31 538.48,916.35 541.07,914.96 ZM 508.50 812.00 L 508.50 729.50 L 500.50 729.50 L 492.50 729.50 L 492.24 811.00 C492.10,855.83 492.21,893.08 492.48,893.79 C492.84,894.73 495.09,895.00 500.73,894.79 L 508.50 894.50 L 508.50 812.00 ZM 531.76 811.69 L 532.01 728.89 L 527.26 729.19 L 522.50 729.50 L 522.24 811.00 C522.10,855.83 522.21,893.09 522.48,893.81 C522.81,894.67 524.42,895.01 527.24,894.81 L 531.50 894.50 L 531.76 811.69 ZM 576.17 865.50 L 575.84 853.00 L 596.17 853.00 L 616.50 853.00 L 616.19 865.50 L 615.89 878.00 L 646.94 878.00 L 678.00 878.00 L 678.00 858.00 L 678.00 838.00 L 672.00 838.00 L 666.00 838.00 L 666.00 844.43 C666.00,852.20 664.88,855.46 660.73,859.76 C656.62,864.02 652.75,864.99 639.75,864.99 L 629.00 865.00 L 629.00 852.46 L 629.00 839.93 L 626.75 841.21 C625.14,842.13 619.22,842.50 606.00,842.50 L 587.50 842.50 L 587.24 812.69 L 586.97 782.88 L 606.24 783.21 C616.83,783.39 626.29,783.92 627.25,784.38 C628.87,785.15 629.00,784.27 629.00,772.61 L 629.00 760.00 L 640.25 760.02 C649.04,760.04 652.37,760.45 655.50,761.89 C663.31,765.49 666.00,770.37 666.00,780.90 C666.00,784.62 666.19,787.85 666.41,788.08 C666.64,788.31 669.34,788.35 672.41,788.16 L 678.00 787.81 L 678.00 767.41 L 678.00 747.00 L 646.94 747.00 L 615.88 747.00 L 616.03 757.75 C616.11,763.66 616.14,769.51 616.09,770.75 L 616.00 773.00 L 596.16 773.00 L 576.33 773.00 L 576.80 760.00 L 577.27 747.00 L 561.13 747.00 L 545.00 747.00 L 545.00 769.00 L 545.00 791.00 L 549.50 791.00 L 554.00 791.00 L 554.00 773.00 L 554.00 755.00 L 560.00 755.00 L 566.00 755.00 L 566.00 772.95 L 566.00 790.91 L 572.75 791.20 L 579.50 791.50 L 579.80 812.75 L 580.11 834.00 L 573.05 834.00 L 566.00 834.00 L 566.00 852.00 L 566.00 870.00 L 560.02 870.00 L 554.05 870.00 L 553.77 852.25 L 553.50 834.50 L 549.50 834.50 L 545.50 834.50 L 545.23 856.25 L 544.96 878.00 L 560.73 878.00 L 576.50 878.00 L 576.17 865.50 ZM 560.39 823.72 C561.31,818.85 563.60,816.20 568.04,814.87 C570.22,814.22 572.00,813.38 572.00,813.00 C572.00,812.62 570.25,811.79 568.11,811.15 C563.94,809.90 561.31,806.80 560.35,802.00 C559.52,797.83 558.62,798.25 557.22,803.47 C556.00,808.01 553.43,810.17 547.01,812.03 C544.65,812.71 544.62,812.80 546.50,813.52 C554.74,816.70 554.84,816.79 556.67,821.92 C557.66,824.71 558.76,827.00 559.12,827.00 C559.48,827.00 560.05,825.52 560.39,823.72 ZM 544.59 713.49 C545.95,708.09 545.44,708.00 512.08,708.00 C480.50,708.00 479.00,708.18 479.00,712.00 C479.00,715.82 480.48,716.00 512.68,716.00 L 543.96 716.00 L 544.59 713.49 ZM 508.76 612.75 L 508.50 530.50 L 500.50 530.50 L 492.50 530.50 L 492.24 612.75 L 491.99 695.00 L 500.50 695.00 L 509.01 695.00 L 508.76 612.75 ZM 532.00 613.17 C532.00,568.16 531.81,531.14 531.57,530.90 C531.33,530.67 529.08,530.64 526.57,530.84 L 522.00 531.20 L 522.00 613.10 L 522.00 695.00 L 527.00 695.00 L 532.00 695.00 L 532.00 613.17 ZM 544.39 514.75 C545.19,513.47 545.19,512.53 544.39,511.25 C543.38,509.65 540.54,509.48 512.18,509.24 C481.90,508.98 481.06,509.02 480.01,510.99 C479.24,512.43 479.24,513.57 480.01,515.01 C481.06,516.98 481.90,517.02 512.18,516.76 C540.54,516.52 543.38,516.35 544.39,514.75 ZM 541.45 493.38 C544.39,492.25 545.36,489.06 543.42,486.92 C541.79,485.11 539.99,485.00 512.04,485.00 C490.32,485.00 482.08,485.32 481.20,486.20 C479.43,487.97 479.74,491.75 481.75,492.92 C483.65,494.03 538.66,494.45 541.45,493.38 ZM 505.92 469.30 C500.97,456.27 491.84,445.13 477.00,434.02 C454.88,417.45 445.20,401.86 443.37,379.86 L 442.71 372.00 L 438.61 371.98 C421.69,371.91 400.00,361.30 389.02,347.73 C367.81,321.52 369.46,285.62 392.97,261.91 C400.51,254.30 408.58,248.87 417.00,245.74 C423.65,243.26 433.91,241.03 438.75,241.01 L 443.00 241.00 L 443.03 235.25 C443.13,219.14 449.41,202.37 459.53,191.21 C462.67,187.76 469.39,181.58 474.47,177.50 C489.67,165.27 493.73,161.22 499.35,152.66 C502.30,148.17 506.33,140.68 508.31,136.02 L 511.91 127.54 L 513.53 131.52 C520.90,149.58 528.74,160.40 542.46,171.43 C547.98,175.86 556.41,183.39 561.18,188.16 C568.19,195.16 570.63,198.42 573.86,205.16 C578.29,214.37 581.00,225.70 581.00,234.96 L 581.00 241.00 L 585.05 241.00 C596.50,241.00 614.78,248.01 625.24,256.41 C644.71,272.04 653.93,298.01 648.15,320.88 C645.34,331.99 642.08,338.86 635.97,346.54 C629.84,354.24 620.92,361.18 611.50,365.56 C604.16,368.98 591.81,372.00 585.18,372.00 L 581.28 372.00 L 580.58 380.59 C579.72,391.21 577.16,399.69 572.48,407.47 C566.57,417.27 562.50,421.53 547.61,433.43 C539.82,439.66 531.71,446.87 529.59,449.46 C525.52,454.43 518.00,468.11 518.00,470.55 C518.00,471.68 519.60,472.00 525.29,472.00 L 532.59 472.00 L 534.50 466.37 C538.26,455.32 546.27,445.10 559.19,434.91 C570.99,425.59 577.35,418.74 581.47,410.91 C585.89,402.52 588.00,394.39 588.00,385.79 L 588.00 379.00 L 592.43 379.00 C610.87,379.00 635.30,366.69 646.54,351.74 C652.21,344.19 657.49,333.94 659.11,327.36 C660.64,321.11 664.21,313.96 667.93,309.73 C670.74,306.53 670.78,306.35 668.94,305.20 C665.69,303.17 662.34,296.80 659.23,286.76 C654.99,273.05 650.15,264.94 640.47,255.33 C633.54,248.45 630.59,246.35 621.83,242.07 C611.42,236.98 600.36,234.00 591.91,234.00 L 588.00 234.00 L 588.00 226.71 C588.00,214.60 584.75,204.29 577.32,192.88 C572.71,185.78 566.29,179.72 552.29,169.26 C534.82,156.20 522.08,140.79 518.41,128.28 C516.90,123.14 516.92,123.00 519.54,118.52 C521.50,115.17 522.03,113.25 521.53,111.26 C520.83,108.49 512.90,94.99 512.00,95.05 C511.04,95.11 503.16,108.52 502.48,111.23 C501.97,113.26 502.49,115.15 504.46,118.52 C507.08,123.00 507.10,123.14 505.59,128.28 C501.71,141.53 489.36,155.97 468.97,171.13 C462.62,175.85 454.82,182.59 451.64,186.10 C441.80,196.96 436.05,211.88 436.01,226.61 L 436.00 233.71 L 427.81 234.40 C400.06,236.71 374.88,256.48 366.36,282.65 C361.56,297.37 360.98,298.62 356.78,302.99 C354.39,305.48 353.09,307.53 353.76,307.75 C356.60,308.70 362.28,318.45 365.08,327.20 C368.92,339.20 372.21,345.37 379.00,353.29 C391.65,368.04 409.18,376.98 428.75,378.67 L 436.00 379.29 L 436.01 385.40 C436.04,397.63 440.79,410.69 448.65,420.19 C450.77,422.75 457.45,428.88 463.50,433.82 C478.57,446.11 485.81,455.27 489.53,466.75 L 491.23 472.00 L 499.09 472.00 L 506.95 472.00 L 505.92 469.30 ZM 523.41 436.98 C533.76,424.07 536.43,418.45 536.47,409.50 C536.49,403.64 535.97,401.38 533.23,395.60 C531.43,391.81 530.11,388.56 530.28,388.39 C530.45,388.21 532.78,388.73 535.46,389.54 C553.91,395.09 569.00,384.19 569.00,365.32 L 569.00 361.00 L 574.75 360.96 C585.55,360.87 593.36,356.25 597.01,347.76 C599.48,342.01 599.30,335.36 596.49,328.64 C595.12,325.36 595.13,325.00 596.54,325.00 C597.40,325.00 599.43,325.69 601.05,326.53 C605.96,329.06 613.77,330.14 618.35,328.91 C627.39,326.47 636.57,316.65 637.70,308.19 C639.05,298.15 625.06,284.00 613.78,284.00 C611.68,284.00 606.74,285.12 602.81,286.50 C598.87,287.88 595.55,289.00 595.42,289.00 C595.30,289.00 596.10,285.98 597.20,282.30 C599.66,274.12 599.22,268.76 595.60,262.59 C591.71,255.94 585.75,252.77 576.08,252.21 L 568.42 251.77 L 568.44 244.63 C568.47,232.06 562.04,222.52 551.45,219.44 C546.39,217.97 545.23,217.97 538.26,219.39 C534.06,220.25 530.47,220.80 530.29,220.62 C530.11,220.45 531.44,217.19 533.23,213.40 C535.98,207.60 536.49,205.38 536.46,199.50 C536.41,190.67 533.98,185.72 522.84,171.73 C518.41,166.18 514.32,160.59 513.73,159.32 C512.41,156.41 511.60,156.40 510.28,159.28 C509.71,160.53 505.38,166.43 500.66,172.39 C489.42,186.57 487.50,190.52 487.50,199.50 C487.50,205.33 488.05,207.65 490.77,213.40 C492.56,217.19 493.83,220.50 493.58,220.75 C493.34,221.00 491.42,220.63 489.32,219.93 C484.17,218.21 474.30,218.35 469.97,220.20 C465.49,222.12 460.54,227.06 457.76,232.37 C456.12,235.52 455.60,238.31 455.57,244.14 L 455.53 251.77 L 447.90 252.21 C438.23,252.77 432.29,255.94 428.37,262.63 C424.81,268.70 424.33,274.88 426.82,282.75 C427.90,286.19 428.50,289.00 428.15,289.00 C427.79,288.99 424.80,287.88 421.50,286.52 C411.54,282.42 403.27,283.66 395.19,290.48 C391.08,293.95 386.02,302.60 386.01,306.18 C385.98,315.79 396.26,326.92 407.26,329.19 C411.96,330.17 413.26,330.01 419.95,327.67 C424.04,326.24 427.62,325.28 427.89,325.55 C428.16,325.82 427.56,328.32 426.56,331.11 C423.10,340.73 426.07,351.00 433.87,356.41 C438.66,359.73 443.06,361.00 449.74,361.00 L 455.00 361.00 L 455.00 365.47 C455.00,383.87 470.48,394.97 488.54,389.54 C491.22,388.73 493.54,388.21 493.71,388.38 C493.88,388.55 492.57,391.79 490.80,395.59 C488.16,401.26 487.58,403.76 487.55,409.50 C487.52,415.56 487.97,417.32 490.82,422.60 C492.64,425.96 496.85,432.03 500.19,436.10 C503.53,440.17 507.63,445.69 509.29,448.38 L 512.33 453.25 L 514.07 449.86 C515.03,447.99 519.23,442.19 523.41,436.98 ZM 478.03 419.57 C477.46,418.09 477.00,413.60 477.00,409.59 L 477.00 402.32 L 471.63 401.12 C468.67,400.45 464.16,398.58 461.59,396.96 C459.03,395.33 456.72,394.00 456.45,394.00 C455.59,394.00 459.04,401.42 461.80,405.49 C464.77,409.88 477.97,423.37 478.64,422.70 C478.87,422.47 478.59,421.06 478.03,419.57 ZM 556.32 412.94 C561.48,407.23 568.74,395.41 567.71,394.38 C567.45,394.12 565.54,395.05 563.47,396.46 C560.01,398.80 551.33,402.00 548.42,402.00 C547.58,402.00 547.07,404.77 546.78,410.75 C546.54,415.56 545.97,420.38 545.49,421.45 C544.70,423.26 544.86,423.24 547.75,421.18 C549.47,419.95 553.32,416.25 556.32,412.94 ZM 425.58 399.00 C425.26,397.35 424.75,394.68 424.44,393.07 C423.94,390.49 423.27,390.01 418.89,389.07 C416.14,388.48 413.59,388.00 413.20,388.00 C412.82,388.00 412.65,390.90 412.83,394.44 L 413.17 400.89 L 417.33 401.27 C426.80,402.13 426.22,402.29 425.58,399.00 ZM 607.54 401.00 L 610.82 401.00 L 611.20 394.75 C611.41,391.31 611.48,388.35 611.37,388.16 C611.25,387.97 608.67,388.38 605.62,389.06 C600.73,390.15 600.03,390.63 599.55,393.15 C599.25,394.72 598.72,397.42 598.39,399.15 C597.79,402.25 597.83,402.28 601.01,401.65 C602.79,401.29 605.73,401.00 607.54,401.00 ZM 417.85 353.25 C416.31,350.09 415.03,345.87 415.02,343.89 L 415.00 340.27 L 408.75 339.77 C405.01,339.46 400.40,338.24 397.25,336.72 C394.36,335.32 392.00,334.49 392.00,334.86 C392.00,336.01 401.31,346.70 404.81,349.57 C407.19,351.52 418.87,358.49 420.58,358.98 C420.62,358.99 419.40,356.41 417.85,353.25 ZM 615.50 352.08 C621.47,348.08 632.00,337.11 632.00,334.90 C632.00,334.51 629.64,335.37 626.75,336.81 C623.35,338.51 619.34,339.57 615.38,339.82 L 609.25 340.22 L 608.66 345.22 C608.33,347.97 607.15,351.77 606.03,353.67 C604.92,355.56 604.00,357.34 604.00,357.62 C604.00,358.85 609.03,356.43 615.50,352.08 ZM 397.29 276.85 C399.84,275.55 404.16,274.51 408.25,274.22 L 415.00 273.73 L 415.00 269.85 C415.00,266.14 418.27,257.57 420.12,256.43 C420.60,256.13 421.00,255.43 421.00,254.88 C421.00,252.84 408.31,260.71 402.02,266.65 C396.19,272.16 390.90,279.00 392.48,279.00 C392.81,279.00 394.97,278.03 397.29,276.85 ZM 629.09 274.63 C627.44,272.23 623.78,268.19 620.97,265.66 C615.95,261.15 605.28,254.38 604.47,255.20 C604.24,255.42 605.02,257.54 606.19,259.91 C607.36,262.28 608.53,266.41 608.78,269.11 L 609.25 274.00 L 614.38 274.03 C617.48,274.05 621.67,274.99 625.00,276.42 C632.46,279.62 632.51,279.60 629.09,274.63 ZM 419.46 223.91 C423.62,222.86 423.83,222.63 424.48,218.28 C424.85,215.78 425.40,213.11 425.70,212.34 C426.13,211.22 425.37,211.06 421.87,211.53 C412.76,212.77 413.21,212.40 412.84,219.00 C412.46,225.69 412.44,225.67 419.46,223.91 ZM 611.17 218.62 L 610.84 212.23 L 604.67 211.75 C601.28,211.49 598.44,211.33 598.36,211.39 C598.28,211.45 598.69,214.04 599.26,217.14 C600.27,222.66 600.38,222.80 604.40,223.77 C611.74,225.54 611.54,225.69 611.17,218.62 ZM 466.00 210.76 C467.92,209.96 471.22,208.99 473.31,208.60 L 477.13 207.89 L 476.52 202.69 C476.14,199.48 476.44,195.50 477.31,192.25 C478.08,189.36 478.40,187.00 478.03,187.00 C477.65,187.00 474.16,190.18 470.27,194.07 C463.82,200.53 458.35,208.79 456.50,214.88 L 455.78 217.27 L 459.14 214.73 C460.99,213.34 464.08,211.55 466.00,210.76 ZM 564.98 209.45 C562.85,204.99 559.26,200.11 554.25,194.87 C550.12,190.54 546.38,187.00 545.94,187.00 C545.50,187.00 545.56,188.46 546.07,190.24 C546.58,192.03 547.00,196.73 547.00,200.70 L 547.00 207.91 L 550.75 208.58 C555.34,209.40 564.35,213.51 566.04,215.55 C568.55,218.57 568.10,215.99 564.98,209.45 ZM 601.65 569.17 C599.48,566.77 599.55,563.71 601.83,561.65 C605.29,558.52 610.00,560.74 610.00,565.50 C610.00,570.36 604.80,572.65 601.65,569.17 ZM 422.50 543.00 C419.82,540.04 421.82,536.00 425.94,536.00 C430.39,536.00 432.46,540.40 429.43,543.43 C427.29,545.57 424.67,545.40 422.50,543.00 ZM 637.01 510.25 C634.73,498.64 631.72,489.93 629.35,488.06 C628.08,487.06 622.07,485.01 616.00,483.50 C609.94,482.00 604.75,480.40 604.47,479.96 C604.20,479.51 606.57,478.61 609.74,477.96 C618.64,476.12 628.32,472.96 630.21,471.28 C632.08,469.62 634.09,463.46 636.51,451.94 C637.37,447.86 638.42,444.18 638.85,443.75 C639.28,443.32 640.42,446.47 641.40,450.74 C645.25,467.68 646.16,470.13 649.29,472.03 C650.92,473.02 657.15,475.05 663.13,476.53 C669.11,478.02 674.00,479.54 674.00,479.92 C674.00,480.30 669.62,481.66 664.26,482.95 C650.11,486.37 648.16,487.36 646.02,492.30 C645.02,494.61 643.20,500.89 641.98,506.25 C640.75,511.61 639.39,516.00 638.95,516.00 C638.50,516.00 637.63,513.41 637.01,510.25 ZM 645.21 484.47 C646.90,483.05 649.57,481.64 651.14,481.32 C655.15,480.52 654.71,479.65 649.54,478.12 C644.31,476.58 643.45,475.69 641.07,469.41 L 639.28 464.71 L 636.75 470.25 C634.43,475.30 633.75,475.96 628.86,477.80 C624.45,479.47 623.85,479.95 625.50,480.56 C633.59,483.53 634.08,483.94 636.72,489.69 L 639.35 495.45 L 640.75 491.25 C641.52,488.94 643.53,485.89 645.21,484.47 ZM 413.01 484.05 C411.62,478.27 410.96,477.58 405.15,476.03 C400.12,474.69 400.38,474.07 406.82,472.00 C411.39,470.53 411.53,470.37 412.87,464.75 C413.62,461.59 414.54,459.00 414.91,459.00 C415.28,459.00 416.24,461.59 417.04,464.75 C418.46,470.33 418.63,470.54 423.00,471.83 C430.66,474.10 430.73,474.22 425.50,475.75 C418.94,477.68 418.39,478.22 416.99,484.05 C416.33,486.77 415.44,489.00 415.00,489.00 C414.56,489.00 413.67,486.77 413.01,484.05 ZM 350.00 467.68 C350.00,465.53 345.67,447.46 344.46,444.56 C342.90,440.83 338.02,438.46 326.70,435.95 C323.52,435.24 320.70,434.32 320.44,433.90 C319.92,433.05 320.57,432.83 330.50,430.43 C343.59,427.28 344.15,426.62 348.01,409.75 C349.24,404.39 350.59,400.00 351.01,400.00 C351.43,400.00 352.08,401.69 352.45,403.75 C354.14,413.11 357.17,423.53 358.69,425.21 C360.15,426.82 371.34,430.77 379.25,432.45 C383.67,433.39 382.45,434.63 375.75,436.01 C372.31,436.72 367.09,438.18 364.15,439.26 C357.91,441.54 357.11,442.94 353.86,457.27 C352.71,462.35 351.37,466.93 350.89,467.45 C350.40,467.97 350.00,468.08 350.00,467.68 ZM 353.50 441.71 C354.92,438.72 356.63,436.97 359.42,435.66 L 363.33 433.83 L 359.12 431.94 C355.79,430.45 354.48,429.08 352.84,425.36 L 350.76 420.66 L 349.45 424.48 C348.72,426.58 347.50,428.93 346.71,429.71 C345.93,430.50 343.58,431.72 341.48,432.45 L 337.66 433.76 L 342.39 435.85 C346.15,437.51 347.47,438.77 348.81,441.96 C349.74,444.17 350.73,445.97 351.00,445.95 C351.27,445.94 352.40,444.03 353.50,441.71 ZM 672.71 446.99 C669.96,443.07 673.52,438.08 678.04,439.51 C680.36,440.25 681.71,444.65 680.30,446.90 C678.73,449.41 674.44,449.46 672.71,446.99 ZM 697.06 412.75 C696.45,409.86 695.24,405.32 694.36,402.65 C692.59,397.25 690.95,396.20 680.70,393.94 C677.52,393.24 674.69,392.31 674.42,391.88 C674.16,391.45 675.87,390.59 678.22,389.98 C688.44,387.31 690.60,386.57 692.20,385.21 C693.18,384.39 694.84,379.75 696.08,374.39 C697.27,369.22 698.60,365.00 699.04,365.00 C699.48,365.00 700.80,369.23 701.98,374.40 C703.17,379.65 704.86,384.46 705.81,385.30 C706.74,386.12 711.21,387.79 715.74,389.01 C720.28,390.22 723.77,391.57 723.50,391.99 C723.24,392.42 721.48,393.06 719.59,393.42 C717.70,393.77 713.84,394.75 711.00,395.59 C705.12,397.34 704.21,398.80 701.46,410.87 C700.57,414.79 699.46,418.00 699.00,418.00 C698.54,418.00 697.67,415.64 697.06,412.75 ZM 700.00 397.53 C700.00,396.72 701.34,395.07 702.98,393.86 L 705.96 391.65 L 702.98 389.84 C701.34,388.84 700.00,387.35 700.00,386.51 C700.00,384.31 698.24,384.66 697.50,387.00 C697.15,388.11 695.76,389.59 694.40,390.30 L 691.95 391.58 L 694.97 393.82 C696.64,395.05 698.00,396.72 698.00,397.53 C698.00,398.34 698.45,399.00 699.00,399.00 C699.55,399.00 700.00,398.34 700.00,397.53 ZM 314.75 363.92 C311.19,361.85 313.22,356.00 317.50,356.00 C321.71,356.00 323.45,360.41 320.43,363.43 C318.62,365.24 317.22,365.36 314.75,363.92 ZM 315.05 255.56 C312.07,251.97 316.34,246.35 320.75,248.06 C323.26,249.04 323.90,253.70 321.80,255.80 C320.16,257.44 316.50,257.31 315.05,255.56 ZM 693.57 230.43 C690.58,227.44 692.58,221.00 696.50,221.00 C700.66,221.00 702.73,229.01 699.07,230.96 C696.44,232.37 695.41,232.27 693.57,230.43 ZM 358.74 207.34 C358.48,206.88 357.48,202.90 356.54,198.50 C354.66,189.80 353.03,186.43 350.28,185.64 C349.30,185.36 345.12,184.14 341.00,182.93 L 333.50 180.73 L 342.39 177.94 C347.27,176.41 351.88,174.55 352.63,173.80 C353.37,173.05 354.92,168.63 356.06,163.97 C358.94,152.20 358.95,152.16 359.93,154.00 C360.37,154.82 361.52,158.88 362.48,163.00 C364.96,173.61 365.78,174.59 374.26,177.04 C386.55,180.61 386.50,180.43 376.15,183.55 C369.87,185.44 366.38,187.05 365.51,188.43 C364.79,189.57 363.41,194.10 362.43,198.50 C360.65,206.51 359.65,208.91 358.74,207.34 ZM 364.92 181.81 L 367.50 180.79 L 365.26 179.93 C364.02,179.46 362.14,177.63 361.06,175.86 L 359.11 172.66 L 357.86 175.40 C357.18,176.90 355.47,178.74 354.06,179.48 L 351.50 180.82 L 354.18 182.04 C355.66,182.71 357.41,184.58 358.08,186.19 L 359.29 189.11 L 360.81 185.97 C361.65,184.24 363.50,182.37 364.92,181.81 ZM 659.99 197.25 C657.90,186.79 654.94,178.03 652.85,176.07 C651.59,174.91 646.24,173.09 639.29,171.47 C632.97,170.00 628.18,168.45 628.65,168.03 C629.12,167.61 633.78,166.24 639.00,164.99 C654.96,161.17 654.47,161.71 658.68,143.75 C660.07,137.84 661.57,133.00 662.01,133.00 C662.45,133.00 664.03,138.29 665.52,144.75 C667.01,151.21 668.65,157.28 669.15,158.24 C670.47,160.76 674.28,162.38 685.00,164.96 C690.22,166.22 694.87,167.58 695.32,167.99 C695.77,168.40 691.04,170.00 684.82,171.54 C669.99,175.22 669.34,175.89 665.64,191.25 C664.08,197.71 662.43,203.00 661.97,203.00 C661.52,203.00 660.62,200.41 659.99,197.25 ZM 663.87 178.05 C665.17,173.70 668.95,170.16 673.21,169.31 C676.29,168.69 676.02,167.00 672.84,167.00 C670.01,167.00 664.12,160.83 663.37,157.09 C662.73,153.88 661.00,152.79 661.00,155.60 C661.00,159.46 657.71,163.96 653.33,166.08 L 648.85 168.25 L 652.90 170.07 C656.99,171.90 660.99,176.93 661.00,180.25 C661.00,183.37 662.65,182.10 663.87,178.05 ZM 597.99 139.69 C592.43,136.93 595.93,128.53 601.78,130.59 C604.01,131.38 604.50,132.15 604.50,134.90 C604.50,139.34 601.60,141.48 597.99,139.69 ZM 430.71 136.50 C430.38,135.40 429.63,132.60 429.03,130.27 C427.99,126.25 427.65,125.96 422.39,124.43 C419.34,123.54 417.07,122.59 417.34,122.33 C417.61,122.06 420.01,121.29 422.67,120.62 C427.46,119.42 427.52,119.36 429.63,112.95 C431.66,106.82 431.80,106.65 432.47,109.50 C434.61,118.57 434.85,118.90 440.59,120.57 C445.68,122.05 447.11,124.00 443.09,124.00 C442.10,124.00 439.89,124.49 438.16,125.09 C435.64,125.97 434.82,127.00 433.98,130.34 C433.40,132.63 432.56,135.40 432.11,136.50 L 431.30 138.50 L 430.71 136.50 ZM 666.22 873.19 C665.50,871.14 664.25,869.85 662.56,869.43 C661.15,869.07 660.00,868.43 660.00,868.00 C660.00,867.57 661.15,866.93 662.56,866.57 C664.27,866.15 665.50,864.85 666.25,862.73 L 667.36 859.52 L 668.68 862.74 C669.50,864.76 670.92,866.19 672.49,866.59 C675.61,867.37 675.75,868.75 672.76,869.18 C671.35,869.38 669.91,870.78 668.91,872.90 L 667.30 876.31 L 666.22 873.19 ZM 666.19 763.11 C665.59,761.38 664.40,759.75 663.55,759.49 C658.40,757.87 658.41,757.89 661.79,756.46 C663.97,755.53 665.46,753.99 666.19,751.88 L 667.30 748.70 L 668.69 752.17 C669.54,754.31 671.11,756.03 672.78,756.67 L 675.50 757.70 L 672.70 758.84 C671.13,759.48 669.33,761.35 668.59,763.11 L 667.28 766.24 L 666.19 763.11 ZM 506.67 376.75 C504.07,360.11 501.96,345.26 501.97,343.75 C501.99,342.24 501.66,341.02 501.25,341.04 C500.84,341.06 496.46,348.50 491.51,357.57 C486.57,366.65 482.38,373.63 482.20,373.09 C481.81,371.93 486.86,356.97 491.64,345.10 C495.14,336.41 495.28,334.61 492.26,337.16 C489.19,339.76 461.94,356.27 461.48,355.81 C461.24,355.57 465.43,348.65 470.81,340.44 C476.18,332.22 480.92,324.95 481.33,324.29 C482.16,322.93 482.51,322.84 458.68,330.46 C450.54,333.07 443.63,334.97 443.35,334.68 C443.06,334.39 450.63,330.30 460.16,325.59 C469.70,320.87 477.24,317.01 476.92,317.01 C475.76,316.99 455.12,313.99 442.50,312.00 C435.35,310.87 426.01,309.42 421.75,308.77 C417.49,308.12 414.00,307.31 414.00,306.97 C414.00,306.19 428.42,303.63 456.00,299.54 L 477.50 296.34 L 470.00 292.55 C457.70,286.33 445.57,279.78 444.50,278.79 C443.01,277.40 447.53,278.67 465.43,284.65 C474.19,287.58 481.46,289.87 481.59,289.74 C481.71,289.61 477.79,283.42 472.86,276.00 C467.94,268.58 463.21,261.20 462.36,259.61 L 460.80 256.71 L 464.15 258.70 C471.65,263.16 484.83,271.32 489.89,274.63 C493.89,277.25 495.08,277.69 494.51,276.33 C491.89,270.10 481.99,240.52 482.26,239.72 C482.44,239.19 485.46,244.10 488.97,250.63 C492.48,257.16 496.60,264.72 498.12,267.43 C501.38,273.26 500.63,275.49 504.94,247.00 C510.43,210.64 511.38,205.00 511.99,205.00 C512.31,205.00 514.76,219.51 517.42,237.25 C520.08,254.99 522.45,270.17 522.69,270.99 C522.93,271.84 525.34,268.36 528.22,262.99 C535.97,248.57 541.96,238.38 541.98,239.58 C542.01,240.98 539.23,249.39 533.68,264.75 C531.24,271.49 529.54,277.00 529.89,277.00 C530.25,277.00 532.33,275.77 534.52,274.27 C542.35,268.91 562.38,257.05 562.83,257.50 C563.09,257.75 558.53,265.05 552.72,273.72 C546.90,282.38 542.23,289.56 542.34,289.68 C542.45,289.79 549.73,287.50 558.52,284.59 C585.63,275.62 585.95,275.89 562.55,288.07 L 546.61 296.38 L 559.55 298.21 C578.73,300.93 609.31,305.98 609.86,306.53 C610.12,306.79 610.15,307.17 609.92,307.38 C609.69,307.59 595.78,309.87 579.02,312.45 C562.25,315.02 548.42,317.25 548.27,317.40 C548.12,317.54 554.79,321.00 563.08,325.07 C577.24,332.03 584.19,336.43 577.99,334.52 C575.37,333.71 545.40,324.18 543.26,323.48 C541.91,323.04 542.68,324.31 554.86,342.92 C559.33,349.75 562.79,355.54 562.55,355.79 C562.30,356.03 554.78,351.71 545.83,346.17 C536.88,340.63 529.44,336.23 529.29,336.38 C529.14,336.53 530.80,341.22 532.97,346.80 C539.17,362.71 543.01,374.00 542.22,374.00 C541.82,374.00 537.52,366.80 532.65,358.00 C527.79,349.20 523.40,341.75 522.90,341.44 C522.41,341.13 522.00,342.30 522.00,344.03 C522.00,345.77 519.97,360.15 517.50,376.00 C515.03,391.85 513.00,405.31 513.00,405.91 C513.00,406.51 512.64,407.00 512.20,407.00 C511.76,407.00 509.27,393.39 506.67,376.75 ZM 515.22 340.49 C516.69,330.30 518.17,321.54 518.49,321.01 C518.82,320.48 523.22,322.71 528.27,325.96 C533.33,329.21 537.61,331.72 537.79,331.54 C537.98,331.35 535.41,327.23 532.09,322.38 C527.94,316.33 526.43,313.35 527.27,312.92 C527.95,312.57 532.10,311.75 536.50,311.10 C548.54,309.32 563.47,306.85 563.73,306.60 C563.85,306.48 555.75,305.11 545.73,303.56 C535.70,302.01 527.17,300.55 526.76,300.32 C526.35,300.09 528.75,295.83 532.09,290.86 C535.43,285.90 538.02,281.69 537.83,281.51 C537.65,281.33 533.32,283.91 528.21,287.23 C523.11,290.54 518.73,293.07 518.50,292.83 C518.26,292.59 516.77,283.42 515.17,272.45 C513.58,261.48 512.04,253.18 511.74,254.00 C511.45,254.82 510.47,260.90 509.58,267.50 C506.51,290.10 505.89,293.17 504.49,292.63 C503.77,292.36 499.07,289.41 494.05,286.09 C489.03,282.76 485.28,280.61 485.71,281.31 C486.15,282.00 489.12,286.53 492.32,291.38 C495.52,296.23 497.99,300.30 497.82,300.44 C497.64,300.57 489.17,301.92 479.00,303.45 C468.83,304.97 460.37,306.33 460.21,306.48 C460.05,306.63 467.93,307.99 477.71,309.51 C487.49,311.03 496.07,312.58 496.78,312.94 C497.68,313.42 496.37,316.04 492.22,322.05 C484.65,333.02 484.10,333.97 486.58,331.87 C489.28,329.58 505.13,319.80 505.51,320.18 C505.99,320.67 511.00,353.93 511.00,356.63 C511.00,357.93 511.35,359.00 511.77,359.00 C512.20,359.00 513.75,350.67 515.22,340.49 Z" fill="rgba(0,0,0,1)"/>
</g>
</svg>