<svg xmlns="http://www.w3.org/2000/svg" width="1024" height="1024" viewBox="0 0 1024 1024">
<g>
<path d="M 421.56 946.67 C417.33,943.57 419.00,928.45 424.38,921.16 C425.74,919.32 429.55,915.85 432.87,913.44 C439.65,908.51 444.00,902.82 444.00,898.90 C444.00,896.67 442.81,895.58 436.19,891.73 C403.41,872.69 384.23,845.95 375.87,807.66 C374.79,802.71 373.55,798.03 373.12,797.25 C372.69,796.48 370.13,794.19 367.44,792.15 C358.33,785.26 355.46,778.32 358.47,770.44 C360.73,764.52 365.47,760.97 372.24,760.13 L 377.50 759.47 L 371.63 754.84 C368.40,752.29 355.37,744.87 342.67,738.35 C317.62,725.49 300.92,715.01 288.70,704.49 C257.66,677.74 239.01,638.13 239.00,598.88 C239.00,579.20 242.27,564.58 252.60,538.18 C262.17,513.72 264.02,504.63 262.06,491.89 C260.59,482.38 255.63,472.33 248.42,464.25 C242.21,457.29 242.58,456.81 252.07,459.60 C267.13,464.02 281.81,475.71 287.82,488.06 C292.77,498.23 294.04,504.81 294.67,523.50 C295.32,543.07 296.59,547.76 301.85,549.94 C308.04,552.50 314.03,549.52 319.12,541.33 C321.19,537.99 321.50,536.28 321.49,528.00 C321.48,516.35 319.87,512.22 305.14,486.16 C299.65,476.45 293.82,464.67 292.19,459.98 C284.66,438.37 285.56,418.74 295.01,398.33 C299.54,388.55 302.75,383.72 313.47,370.50 C327.51,353.21 332.42,344.87 335.43,333.26 C339.45,317.77 335.41,305.09 321.07,288.09 L 316.50 282.67 L 319.50 283.41 C331.08,286.28 348.27,296.47 356.99,305.64 C368.83,318.08 374.39,332.59 374.38,351.00 C374.37,362.66 372.80,370.10 367.36,384.21 C362.07,397.93 362.86,405.16 370.37,411.76 C376.37,417.02 383.04,416.92 386.58,411.52 C388.81,408.12 388.03,402.64 383.98,393.12 C382.27,389.09 381.12,385.55 381.42,385.25 C382.55,384.11 395.07,388.31 401.09,391.84 C415.03,400.02 424.68,412.06 430.13,428.07 C432.86,436.09 433.40,439.32 433.79,449.74 L 434.24 461.98 L 445.66 447.24 C472.89,412.08 484.04,391.37 483.98,376.04 C483.96,369.65 481.64,359.50 478.70,352.84 C477.32,349.73 472.47,341.41 467.92,334.34 C449.12,305.15 444.02,288.84 445.33,262.11 C445.84,251.69 448.59,236.08 450.19,234.48 C450.38,234.29 450.54,242.32 450.54,252.32 C450.55,263.19 451.09,273.52 451.90,278.00 C454.83,294.21 461.87,310.48 473.28,327.38 C476.67,332.40 480.91,339.20 482.70,342.50 C488.67,353.50 486.44,343.12 478.20,321.58 C473.68,309.77 473.58,309.25 473.56,298.00 C473.55,290.27 474.00,285.52 474.93,283.50 C476.13,280.90 476.37,280.77 476.72,282.50 C480.87,303.08 484.73,310.53 503.78,334.74 C518.42,353.35 524.01,367.52 523.99,385.91 C523.96,401.30 520.18,413.32 511.00,427.14 C508.37,431.10 494.78,445.39 474.98,465.00 C439.17,500.47 431.25,510.09 420.60,531.05 C415.12,541.85 407.87,561.07 406.87,567.50 C406.69,568.61 408.41,572.22 410.72,575.61 C425.56,597.38 421.40,625.81 401.52,638.53 L 396.36 641.83 L 397.18 649.66 C400.82,684.69 414.90,715.96 436.97,738.02 C445.96,747.01 462.62,758.96 466.32,759.06 C467.52,759.10 470.64,759.21 473.25,759.31 C475.86,759.42 478.00,759.20 478.00,758.83 C478.00,757.02 471.37,750.78 457.79,739.80 C441.90,726.94 437.72,722.60 431.72,712.75 C426.21,703.69 424.00,695.62 424.00,684.50 C424.00,663.50 434.14,648.13 452.76,640.91 C459.22,638.40 474.29,637.78 479.25,639.82 C480.76,640.44 482.00,640.72 482.00,640.45 C482.00,640.17 480.64,637.24 478.97,633.94 C465.17,606.59 464.59,574.20 477.36,544.13 C484.75,526.74 495.97,510.85 512.43,494.49 C523.34,483.64 543.79,466.46 544.71,467.37 C544.96,467.63 541.24,473.61 536.43,480.67 C522.26,501.46 517.64,512.85 516.45,529.85 C515.30,546.42 520.32,563.53 531.20,580.09 C535.78,587.07 542.25,594.40 556.26,608.50 C566.65,618.95 577.14,630.49 579.58,634.15 C588.87,648.06 592.97,661.25 593.05,677.41 L 593.09 687.50 L 596.02 682.00 C601.87,670.99 604.29,661.58 604.37,649.50 C604.44,640.55 604.02,637.20 602.14,631.50 C596.95,615.77 588.70,604.40 570.70,588.14 C555.88,574.76 549.14,566.15 543.52,553.44 C537.13,539.00 535.74,520.93 539.84,505.70 C541.75,498.63 548.74,483.40 549.65,484.32 C549.86,484.53 548.84,490.05 547.39,496.60 C543.88,512.43 543.68,527.12 546.83,538.31 C551.49,554.87 557.51,563.56 577.54,582.61 C595.09,599.30 600.55,605.94 606.09,617.35 C611.66,628.82 613.38,637.73 612.73,651.89 C612.14,664.82 610.02,673.04 604.33,684.33 L 600.90 691.16 L 607.70 687.41 C611.44,685.36 614.95,683.35 615.50,682.96 C616.05,682.57 621.90,679.90 628.50,677.01 C662.59,662.13 675.58,652.43 683.40,636.00 C686.26,630.01 686.50,628.67 686.50,619.00 C686.50,609.54 686.23,608.00 683.81,603.41 C678.73,593.77 669.73,588.06 659.57,588.02 C642.11,587.96 631.64,606.00 642.34,617.68 C650.80,626.91 665.76,620.17 663.50,608.15 C662.93,605.10 663.04,604.79 664.33,605.86 C666.82,607.92 669.00,613.57 669.00,617.94 C669.00,629.52 657.42,639.25 643.50,639.38 C621.55,639.57 603.68,616.38 608.03,593.32 C611.21,576.51 620.67,565.14 642.33,552.10 C657.72,542.84 666.51,535.33 672.18,526.58 C676.05,520.61 680.17,509.24 681.40,501.10 L 682.07 496.71 L 679.79 498.38 C666.89,507.83 660.43,510.30 648.50,510.37 C640.85,510.41 638.66,510.03 633.85,507.81 C620.16,501.49 614.12,488.80 618.58,475.71 C622.05,465.53 635.75,458.89 643.92,463.41 C646.29,464.73 646.23,464.79 640.90,466.34 C632.52,468.78 628.00,474.43 628.00,482.48 C628.00,493.28 636.23,500.00 649.46,500.00 C661.58,500.00 673.54,493.33 683.19,481.18 C699.38,460.80 704.52,436.61 697.34,414.50 C695.03,407.37 690.21,398.06 682.69,386.22 C674.22,372.87 669.95,361.30 669.30,350.00 C669.03,345.33 669.24,340.38 669.77,339.00 C670.67,336.67 670.78,336.81 671.44,341.00 C673.90,356.78 678.27,366.69 691.92,387.48 C705.57,408.29 708.48,417.67 707.74,438.50 C707.19,453.90 704.58,463.08 696.97,476.36 C692.89,483.47 692.08,485.84 691.07,493.55 C687.98,517.29 682.73,530.18 671.53,541.55 C667.66,545.48 663.15,549.64 661.50,550.81 L 658.50 552.94 L 664.57 552.97 C684.39,553.07 707.60,566.38 719.66,584.55 C727.73,596.70 732.78,615.85 731.50,629.43 C730.08,644.51 724.82,658.86 716.43,670.56 C713.49,674.65 711.32,678.00 711.60,678.00 C713.26,678.00 727.58,666.17 733.55,659.86 C744.33,648.47 751.89,634.62 755.69,619.30 C758.20,609.21 758.01,585.33 755.34,573.75 C754.23,568.94 753.64,565.00 754.02,565.00 C755.10,565.00 759.63,575.70 761.65,583.00 C764.15,592.03 764.20,615.86 761.75,624.80 C757.01,642.04 748.39,656.77 735.76,669.19 C717.81,686.86 698.79,695.71 654.78,706.90 C633.00,712.43 623.01,716.05 612.50,722.21 C600.20,729.42 587.86,743.71 583.08,756.28 L 582.05 759.00 L 593.83 759.00 L 605.60 759.00 L 607.72 754.65 C610.54,748.83 620.02,738.74 627.31,733.79 C635.52,728.21 642.77,725.11 662.84,718.60 C672.37,715.51 683.36,711.62 687.25,709.96 C691.15,708.30 694.81,707.10 695.40,707.30 C698.92,708.47 674.11,722.05 657.50,728.03 C638.54,734.86 626.04,742.91 618.88,752.90 C616.75,755.88 615.00,758.65 615.00,759.06 C615.00,759.46 618.58,759.68 622.96,759.54 L 630.93 759.30 L 637.23 753.40 C646.03,745.17 651.77,741.57 677.23,728.36 C710.23,711.22 727.77,698.86 741.56,683.00 C762.91,658.45 774.00,629.58 774.00,598.62 C773.99,579.01 770.83,565.33 760.44,539.97 C751.78,518.81 748.88,504.28 750.89,492.06 C751.47,488.52 751.76,485.43 751.53,485.19 C750.61,484.27 744.81,494.86 742.88,501.00 C741.23,506.21 740.75,510.88 740.46,524.50 C739.95,548.14 737.40,555.21 727.71,559.90 C711.68,567.66 693.10,553.52 691.31,532.19 C690.23,519.29 694.51,506.64 707.35,484.78 C715.04,471.68 721.00,459.56 723.21,452.53 C726.00,443.66 726.63,428.34 724.61,418.50 C721.67,404.17 716.89,395.98 696.02,369.50 C682.54,352.40 674.98,332.74 676.49,318.68 C676.83,315.48 677.39,312.11 677.73,311.18 C678.68,308.56 674.53,312.51 670.36,318.19 C662.42,329.01 658.84,344.67 660.98,359.31 C661.64,363.81 664.03,372.45 666.28,378.50 C673.26,397.19 672.54,408.12 663.70,417.71 C661.50,420.09 659.89,422.17 660.10,422.32 C660.32,422.48 662.45,423.45 664.82,424.49 C670.55,426.98 677.43,434.77 679.56,441.17 C684.52,456.12 674.41,473.15 659.10,475.60 C654.24,476.38 653.58,474.83 657.99,473.00 C661.76,471.44 667.49,465.16 669.48,460.40 C670.31,458.40 671.00,454.44 671.00,451.61 C671.00,441.97 665.09,435.24 654.16,432.46 C648.31,430.96 647.26,430.96 640.45,432.48 C623.23,436.31 608.23,451.33 601.46,471.50 C599.15,478.40 598.84,480.74 599.18,488.50 C599.51,495.99 600.09,498.59 602.66,504.00 C607.00,513.13 611.88,518.32 619.77,522.21 C625.79,525.17 627.31,525.50 634.98,525.45 C645.46,525.39 652.34,522.93 661.58,515.94 C665.11,513.27 668.00,511.44 668.00,511.89 C668.00,513.24 661.98,521.35 659.15,523.81 C657.69,525.08 653.99,527.40 650.93,528.98 C625.91,541.85 595.60,525.50 589.38,495.76 C585.71,478.22 591.74,459.71 607.86,439.08 C621.07,422.17 625.49,414.83 628.40,405.03 C630.50,397.95 631.40,384.79 630.20,378.75 C629.68,376.14 629.60,374.00 630.03,374.00 C631.49,374.00 637.21,381.32 639.32,385.90 C642.07,391.85 642.29,409.03 639.69,415.81 L 638.05 420.12 L 640.27 419.45 C654.08,415.32 662.01,406.25 660.52,396.31 C660.17,393.97 658.15,387.43 656.02,381.78 C646.86,357.45 647.07,339.48 656.74,320.00 C659.45,314.53 662.63,310.32 668.48,304.44 C675.56,297.33 677.97,295.66 689.00,290.22 C695.88,286.83 702.84,283.75 704.48,283.37 C707.95,282.55 708.02,282.42 699.69,292.61 C687.29,307.78 684.71,321.85 691.03,339.83 C693.77,347.62 697.97,354.21 709.69,369.09 C715.29,376.20 721.94,385.33 724.46,389.38 C733.47,403.83 737.77,420.67 736.70,437.29 C735.65,453.51 731.31,465.02 716.05,492.00 C703.05,514.99 700.15,525.13 703.40,536.31 C706.32,546.33 713.57,552.23 720.74,550.41 C727.62,548.66 728.41,546.28 729.16,525.18 C729.59,512.98 730.38,504.45 731.44,500.59 C737.33,479.09 755.40,462.52 777.38,458.45 L 781.27 457.73 L 775.58 464.61 C764.15,478.44 759.72,492.43 762.00,507.50 C763.23,515.62 766.39,525.60 772.77,541.50 C782.58,565.94 785.44,580.68 784.70,603.00 C784.40,611.84 783.47,621.72 782.51,626.00 C776.47,653.19 763.63,676.45 743.56,696.59 C727.48,712.72 714.22,721.59 679.50,739.43 C662.23,748.31 649.01,756.49 648.25,758.75 C647.97,759.60 649.01,760.00 651.47,760.00 C658.48,760.00 664.12,764.67 666.12,772.14 C667.82,778.53 665.57,784.36 659.20,790.02 C656.61,792.32 653.58,795.01 652.46,796.00 C651.04,797.26 649.59,801.41 647.70,809.66 C639.17,846.79 620.04,873.01 587.81,891.73 C581.21,895.57 580.00,896.67 580.00,898.88 C580.01,902.84 583.28,907.40 589.30,911.85 C600.16,919.88 605.00,928.23 605.00,938.96 C605.00,941.50 604.30,944.55 603.44,945.78 L 601.89 948.00 L 512.63 948.00 C439.88,948.00 423.05,947.75 421.56,946.67 ZM 594.00 935.47 C594.00,932.24 591.14,927.35 587.15,923.75 L 582.99 920.00 L 512.18 920.00 L 441.36 920.00 L 437.05 923.69 C432.95,927.20 430.00,932.13 430.00,935.47 C430.00,936.83 439.01,937.00 512.00,937.00 C584.99,937.00 594.00,936.83 594.00,935.47 ZM 452.92 914.00 C453.76,914.00 455.50,910.52 457.57,904.75 C458.78,901.36 458.75,901.00 457.21,901.03 C456.11,901.05 454.44,903.30 452.55,907.28 C450.92,910.70 449.40,913.91 449.16,914.41 C448.92,914.91 449.50,915.02 450.45,914.66 C451.39,914.30 452.50,914.00 452.92,914.00 ZM 473.85 914.11 C474.59,913.64 475.79,910.72 476.51,907.63 C477.80,902.07 477.79,902.00 475.57,902.00 C473.68,902.00 473.07,902.94 471.66,907.98 C470.75,911.28 470.00,914.20 470.00,914.48 C470.00,915.29 472.36,915.06 473.85,914.11 ZM 497.35 914.24 C497.61,913.82 497.96,911.00 498.12,907.99 C498.41,902.75 498.30,902.49 495.86,902.20 C493.44,901.91 493.24,902.25 492.32,907.95 C491.78,911.28 491.57,914.23 491.84,914.50 C492.62,915.29 496.83,915.08 497.35,914.24 ZM 509.00 908.50 C509.00,902.31 508.89,902.00 506.61,902.00 C503.72,902.00 503.00,903.61 503.00,910.08 C503.00,914.88 503.07,915.00 506.00,915.00 L 509.00 915.00 L 509.00 908.50 ZM 520.80 908.75 C520.51,902.76 520.39,902.49 517.75,902.18 L 515.00 901.87 L 515.00 908.43 L 515.00 915.00 L 518.05 915.00 L 521.10 915.00 L 520.80 908.75 ZM 554.00 914.48 C554.00,914.20 553.25,911.28 552.34,907.98 C550.93,902.94 550.32,902.00 548.43,902.00 C546.23,902.00 546.21,902.11 547.42,907.31 C548.09,910.23 548.98,913.16 549.38,913.81 C550.09,914.96 554.00,915.53 554.00,914.48 ZM 563.12 910.75 C562.13,908.41 561.01,905.26 560.64,903.75 C559.93,900.86 559.31,900.52 557.25,901.83 C555.25,903.10 558.51,912.86 561.30,913.99 C564.88,915.43 565.01,915.20 563.12,910.75 ZM 574.77 914.25 C574.55,913.84 573.06,910.69 571.45,907.25 C569.49,903.06 567.95,901.00 566.77,901.00 C565.11,901.00 565.12,901.30 566.95,906.11 C569.10,911.77 571.57,915.00 573.74,915.00 C574.52,915.00 574.99,914.66 574.77,914.25 ZM 466.09 908.50 C468.36,902.02 468.38,901.00 466.18,901.00 C464.88,901.00 463.87,902.49 462.61,906.25 C461.65,909.14 460.62,912.10 460.32,912.83 C459.94,913.76 460.47,914.07 462.06,913.83 C463.78,913.58 464.77,912.28 466.09,908.50 ZM 486.46 912.75 C486.67,912.06 487.14,909.36 487.49,906.75 C488.09,902.23 488.01,902.00 485.73,902.00 C483.68,902.00 483.18,902.72 482.17,907.08 C481.53,909.87 481.00,912.57 481.00,913.08 C481.00,914.48 486.01,914.18 486.46,912.75 ZM 531.90 909.25 C531.47,906.64 531.09,903.91 531.06,903.18 C531.02,902.35 530.00,901.98 528.25,902.18 C526.74,902.36 525.61,902.84 525.75,903.25 C525.89,903.66 526.00,906.25 526.00,909.00 L 526.00 914.00 L 529.34 914.00 L 532.68 914.00 L 531.90 909.25 ZM 543.00 913.05 C543.00,912.53 542.51,909.83 541.92,907.05 C540.97,902.63 540.52,902.00 538.36,902.00 C535.98,902.00 535.90,902.19 536.51,906.75 C536.86,909.36 537.33,912.06 537.54,912.75 C538.00,914.20 543.00,914.47 543.00,913.05 ZM 461.29 886.74 C459.59,884.96 456.58,880.92 454.59,877.78 C447.71,866.89 444.69,865.63 434.02,869.17 C430.17,870.45 427.02,871.81 427.01,872.19 C427.00,873.16 442.46,883.26 448.93,886.50 C453.74,888.91 462.76,891.19 463.93,890.30 C464.17,890.12 462.98,888.51 461.29,886.74 ZM 472.98 886.25 C468.01,880.60 461.72,870.26 459.45,864.00 C458.55,861.53 457.03,855.67 456.06,851.00 L 454.30 842.50 L 448.55 839.25 C441.09,835.04 437.44,831.92 432.39,825.42 L 428.28 820.12 L 427.03 824.31 C424.95,831.29 419.30,842.37 414.52,848.87 C412.03,852.24 410.00,855.36 410.00,855.79 C410.00,856.22 412.45,858.99 415.44,861.94 L 420.89 867.32 L 430.69 864.15 C441.80,860.57 442.78,860.47 447.39,862.39 C451.44,864.08 454.17,866.84 458.72,873.86 C463.15,880.69 468.67,886.81 472.50,889.16 C477.32,892.11 477.45,891.32 472.98,886.25 ZM 489.68 885.67 C480.76,874.72 476.13,859.30 478.96,850.00 C479.90,846.91 480.22,847.63 482.98,859.00 C485.73,870.37 489.29,877.13 496.52,884.70 L 502.54 891.00 L 511.86 891.00 L 521.19 891.00 L 527.37 884.75 C534.65,877.40 539.00,869.05 541.57,857.50 C542.55,853.10 543.69,849.10 544.11,848.62 C545.60,846.87 546.29,855.65 545.17,862.19 C543.66,871.02 540.36,878.25 534.65,885.27 L 529.98 891.00 L 532.74 890.98 C534.28,890.96 537.58,889.42 540.21,887.49 C550.66,879.83 558.82,865.56 562.18,849.09 C564.40,838.26 565.15,839.81 554.84,834.00 C545.69,828.84 532.57,815.89 525.58,805.12 L 519.66 796.00 L 511.93 796.00 L 504.19 796.00 L 501.57 800.47 C492.75,815.51 478.63,829.62 466.02,835.99 C459.53,839.27 459.80,837.99 462.64,852.00 C466.36,870.33 481.36,890.73 491.26,890.94 L 494.02 891.00 L 489.68 885.67 ZM 554.46 886.83 C557.06,884.54 561.65,879.16 564.65,874.88 C574.09,861.40 578.84,859.14 589.60,862.99 C592.85,864.15 597.27,865.55 599.42,866.09 C603.29,867.07 603.42,867.01 608.67,861.83 C611.60,858.94 614.00,856.20 614.00,855.74 C614.00,855.29 612.25,852.55 610.11,849.65 C605.71,843.69 600.76,834.26 597.54,825.69 L 595.35 819.87 L 592.63 823.98 C588.72,829.90 582.62,835.51 576.14,839.15 C573.04,840.90 570.35,842.44 570.17,842.58 C569.99,842.71 569.02,846.58 568.01,851.16 C564.68,866.32 558.73,878.37 550.20,887.25 C545.16,892.49 548.39,892.17 554.46,886.83 ZM 576.12 885.94 C585.04,881.44 597.37,872.96 596.35,872.02 C594.90,870.69 584.05,867.00 581.60,867.00 C578.18,867.00 574.53,870.31 569.09,878.35 C566.43,882.28 563.29,886.36 562.13,887.40 C560.96,888.45 560.00,889.62 560.00,890.01 C560.00,891.53 570.10,888.98 576.12,885.94 ZM 416.49 833.50 C418.92,828.55 421.66,821.35 422.59,817.50 C424.37,810.15 426.34,806.81 428.44,807.62 C429.13,807.88 430.92,810.75 432.42,814.00 C435.00,819.60 443.99,830.80 442.44,826.50 C442.04,825.40 440.62,821.58 439.27,818.00 C437.82,814.17 436.59,808.31 436.26,803.75 C435.72,796.02 435.71,796.00 432.86,796.00 C430.26,796.00 430.00,796.32 430.00,799.50 C430.00,802.27 429.60,803.00 428.11,803.00 C426.13,803.00 425.00,801.16 425.00,797.92 C425.00,796.54 424.30,796.00 422.50,796.00 C420.25,796.00 420.00,796.40 420.00,800.04 C420.00,811.55 413.37,830.24 405.79,840.08 C402.40,844.49 402.33,844.77 403.77,847.54 L 405.28 850.41 L 408.68 846.46 C410.55,844.28 414.07,838.45 416.49,833.50 ZM 620.54 847.59 C622.05,845.28 621.96,844.96 618.41,840.34 C610.91,830.57 605.80,816.93 604.43,803.04 C603.80,796.55 603.56,796.00 601.43,796.00 C599.56,796.00 599.07,796.61 598.81,799.25 C598.57,801.73 598.03,802.50 596.50,802.50 C594.97,802.50 594.43,801.73 594.18,799.19 C593.90,796.25 593.56,795.92 591.18,796.19 C588.60,796.49 588.48,796.79 587.87,804.00 C587.24,811.51 584.27,821.90 581.35,826.86 C580.44,828.40 581.68,827.51 584.34,824.72 C586.84,822.08 590.02,817.54 591.40,814.63 C596.16,804.57 597.92,805.04 601.48,817.33 C604.79,828.75 609.09,838.12 614.06,844.69 C616.26,847.61 618.26,850.00 618.51,850.00 C618.75,850.00 619.67,848.91 620.54,847.59 ZM 401.81 836.25 C407.99,827.49 413.48,811.99 414.13,801.43 L 414.44 796.50 L 400.05 796.22 C392.13,796.07 385.33,796.29 384.93,796.72 C384.53,797.15 384.60,798.51 385.07,799.75 C385.89,801.89 386.45,802.00 396.91,802.00 C402.94,802.00 408.13,802.41 408.44,802.91 C408.75,803.41 408.73,804.54 408.40,805.41 C407.92,806.65 406.22,807.01 400.64,807.05 C393.61,807.10 393.54,807.13 395.98,808.80 C397.35,809.74 399.83,811.71 401.48,813.19 C404.24,815.65 404.36,816.02 402.92,817.48 C401.47,818.95 400.81,818.70 395.07,814.47 C391.63,811.94 388.54,810.12 388.22,810.44 C386.93,811.74 397.27,839.00 399.05,839.00 C399.50,839.00 400.74,837.76 401.81,836.25 ZM 628.80 832.25 C631.90,825.47 637.28,809.95 636.72,809.39 C636.55,809.22 634.11,810.83 631.30,812.96 C624.49,818.11 622.65,819.02 621.05,818.03 C618.98,816.75 620.49,814.32 625.56,810.75 L 630.19 807.50 L 623.35 807.00 C617.33,806.56 616.50,806.26 616.50,804.50 C616.50,802.65 617.33,802.46 627.40,802.00 C637.15,801.55 638.38,801.29 639.03,799.50 C639.42,798.40 639.55,797.16 639.32,796.75 C639.08,796.34 632.38,796.00 624.44,796.00 L 610.00 796.00 L 610.00 800.84 C610.00,807.18 613.18,819.45 616.55,826.10 C619.86,832.64 624.02,839.00 624.98,839.00 C625.38,839.00 627.10,835.96 628.80,832.25 ZM 460.29 831.86 C467.29,828.30 475.20,822.54 480.88,816.87 C486.13,811.64 496.00,798.55 496.00,796.83 C496.00,796.35 483.74,796.09 468.75,796.23 L 441.50 796.50 L 441.83 801.50 C442.24,807.89 444.63,817.37 446.99,821.94 C449.08,826.02 454.75,834.00 455.55,834.00 C455.84,834.00 457.97,833.04 460.29,831.86 ZM 571.47 830.86 C577.48,823.71 582.00,811.25 582.00,801.82 L 582.00 796.00 L 555.00 796.00 C540.15,796.00 528.00,796.38 528.00,796.84 C528.00,800.06 543.86,818.54 552.00,824.82 C554.79,826.97 567.13,833.97 568.16,833.99 C568.52,833.99 570.01,832.59 571.47,830.86 ZM 649.70 784.04 C656.38,779.97 657.76,773.58 652.48,771.17 C649.21,769.68 376.53,769.47 372.63,770.95 C371.25,771.48 369.62,772.85 369.00,774.00 C367.48,776.85 370.30,781.63 374.98,784.14 C378.33,785.93 383.66,786.00 512.48,786.00 C643.56,785.99 646.57,785.95 649.70,784.04 ZM 408.39 759.18 C409.32,757.68 399.99,746.99 393.71,742.36 C385.99,736.67 378.92,733.07 364.08,727.28 C357.71,724.79 349.80,721.41 346.50,719.76 C339.47,716.25 328.00,708.31 328.00,706.96 C328.00,706.45 330.59,707.21 333.75,708.66 C336.91,710.11 348.53,714.32 359.56,718.03 C380.69,725.13 387.02,727.91 396.00,734.02 C402.77,738.63 411.73,747.94 415.36,754.15 C417.09,757.11 419.00,759.03 420.62,759.44 C423.93,760.27 445.00,759.98 445.00,759.11 C445.00,758.73 443.73,757.68 442.19,756.77 C436.77,753.57 422.32,738.40 413.81,727.00 C400.95,709.75 393.27,703.04 365.50,684.80 C335.91,665.36 322.56,642.70 326.01,617.75 C328.13,602.39 338.86,587.87 351.72,582.96 C359.17,580.11 369.44,579.91 376.99,582.46 C384.27,584.92 392.94,593.42 395.32,600.43 C399.59,612.97 394.86,626.32 384.15,631.98 L 380.50 633.91 L 383.59 633.96 C388.26,634.02 398.45,628.48 402.07,623.91 C414.46,608.27 409.49,583.49 391.58,571.60 C382.67,565.68 376.05,563.73 364.50,563.62 C352.70,563.50 344.19,565.77 334.07,571.72 C317.61,581.40 307.58,596.55 303.85,617.33 C301.63,629.69 305.50,646.82 313.45,659.92 C321.91,673.84 333.49,683.42 357.00,695.96 C369.61,702.68 381.69,710.64 380.74,711.60 C379.60,712.73 333.03,696.94 321.13,691.39 C291.31,677.49 270.40,654.18 262.86,626.45 C259.99,615.91 259.72,593.98 262.33,583.56 C264.16,576.23 268.79,565.00 269.98,565.00 C270.36,565.00 269.79,569.39 268.70,574.75 C264.29,596.51 266.52,618.43 275.00,636.67 C281.36,650.37 290.17,661.39 302.00,670.46 C313.15,679.01 313.87,679.18 308.51,671.97 C290.26,647.40 287.47,617.12 301.05,591.01 C311.62,570.71 334.60,554.97 356.10,553.31 L 363.84 552.72 L 365.48 548.42 C368.78,539.76 375.40,531.47 392.43,514.62 C408.01,499.21 410.12,496.71 413.62,489.55 C417.34,481.92 417.50,481.18 417.50,471.55 C417.50,462.36 417.23,460.94 414.39,455.00 C409.83,445.47 404.25,439.73 395.23,435.27 C387.92,431.66 387.17,431.50 377.55,431.51 C368.79,431.52 366.77,431.87 361.82,434.17 C345.54,441.77 336.76,459.34 341.35,475.14 C346.86,494.10 368.62,502.72 382.02,491.25 C387.01,486.98 389.00,482.78 389.00,476.49 C389.00,463.10 374.83,454.44 366.52,462.75 C361.66,467.62 364.31,475.96 370.75,476.03 L 373.50 476.07 L 371.04 478.12 C367.65,480.93 363.39,479.96 359.14,475.39 C355.98,472.01 355.80,471.43 356.19,466.08 C356.93,455.88 363.71,450.07 374.93,450.02 C389.50,449.96 401.30,464.12 399.69,479.72 C397.84,497.60 380.36,510.39 362.32,507.05 C346.31,504.09 335.56,493.23 323.59,467.95 C317.72,455.56 315.71,447.02 315.71,434.50 C315.71,417.04 319.78,406.21 334.86,383.49 C345.16,367.98 349.12,359.20 351.78,346.05 C353.89,335.59 355.00,336.04 355.00,347.37 C355.00,360.41 350.40,372.81 339.11,390.26 C327.74,407.82 323.69,419.43 323.69,434.50 C323.69,442.99 325.28,451.67 328.07,458.50 L 329.30 461.50 L 330.09 457.33 C332.43,444.86 343.32,431.35 356.00,425.18 L 363.71 421.43 L 359.94 417.18 C351.75,407.95 350.93,397.62 357.06,380.96 C365.98,356.73 366.16,342.23 357.77,325.18 C354.75,319.06 345.16,307.39 346.45,311.42 C349.20,320.00 347.32,335.94 342.23,347.16 C338.19,356.06 334.02,362.33 322.14,377.35 C316.55,384.41 310.48,392.76 308.64,395.90 C297.07,415.64 295.06,437.24 302.89,457.56 C304.58,461.95 310.08,472.73 315.11,481.52 C329.85,507.30 333.43,517.15 332.83,530.35 C331.97,549.19 319.35,562.92 303.91,561.80 C296.35,561.25 291.39,557.95 287.51,550.89 C284.61,545.60 284.54,545.14 283.87,526.00 C283.50,515.28 282.65,504.70 281.98,502.50 C280.33,497.04 275.52,487.68 273.52,486.02 C272.03,484.78 271.95,484.94 272.69,487.58 C274.13,492.75 273.46,511.03 271.57,518.00 C270.61,521.58 266.96,531.79 263.47,540.69 C252.96,567.49 250.00,580.29 250.00,598.88 C250.02,639.34 270.49,678.14 305.48,703.98 C314.24,710.46 323.63,715.92 345.43,727.23 C369.50,739.71 377.27,744.64 387.02,753.59 L 394.01 760.00 L 400.95 760.00 C404.76,760.00 408.11,759.63 408.39,759.18 ZM 507.80 742.88 C509.04,740.34 513.43,733.81 517.55,728.38 C530.81,710.91 534.61,700.76 533.77,685.05 C532.93,669.56 528.75,661.32 510.70,639.66 C491.58,616.70 485.31,606.14 480.96,589.56 L 479.11 582.50 L 479.06 591.12 C478.97,604.84 482.35,616.20 492.85,637.50 C504.07,660.24 505.50,664.41 505.40,674.15 C505.34,680.36 504.81,682.86 502.61,687.37 C493.16,706.68 468.07,709.60 457.56,692.61 C449.38,679.37 459.74,662.37 472.45,668.16 C475.89,669.73 475.67,671.00 471.95,671.00 C464.98,671.00 461.34,680.10 465.64,686.80 C467.94,690.40 473.03,692.99 477.80,693.00 C491.91,693.01 499.50,676.06 491.50,662.40 C481.83,645.91 457.87,644.51 444.05,659.64 C437.47,666.84 434.82,674.00 434.87,684.50 C434.94,701.62 441.79,713.02 461.50,728.85 C477.72,741.87 481.57,745.47 486.76,752.50 C491.12,758.41 491.27,758.51 496.84,759.00 L 502.50 759.50 L 504.03 753.50 C504.87,750.20 506.57,745.42 507.80,742.88 ZM 517.67 757.25 C520.25,749.82 525.64,741.38 536.05,728.50 C545.64,716.64 549.29,711.20 553.51,702.50 C560.59,687.90 562.38,680.46 562.29,666.00 C562.17,645.38 556.32,630.75 539.77,609.73 C534.67,603.26 528.13,594.93 525.23,591.23 C509.55,571.22 501.68,540.12 507.01,519.25 C507.47,517.46 507.54,516.01 507.17,516.01 C506.01,516.04 494.16,534.26 491.57,540.00 C485.55,553.36 484.21,570.67 488.02,585.59 C492.18,601.86 499.74,614.29 519.18,636.84 C524.56,643.07 530.54,650.78 532.48,653.97 C540.44,667.07 543.81,681.78 541.96,695.30 C540.04,709.28 535.34,719.25 523.73,733.93 C517.00,742.44 512.70,750.21 511.66,755.75 C511.08,758.83 511.21,759.00 514.06,759.00 C516.02,759.00 517.27,758.39 517.67,757.25 ZM 546.00 757.47 C546.00,756.62 547.38,752.37 549.06,748.01 C552.30,739.60 558.86,728.87 567.61,717.69 C577.80,704.65 582.00,692.79 582.00,677.00 C582.00,666.24 580.33,658.58 576.03,649.57 C573.16,643.55 565.13,631.54 564.44,632.23 C564.24,632.42 565.18,636.06 566.53,640.30 C573.09,660.95 571.46,684.55 562.11,704.50 C557.40,714.56 552.61,721.70 541.79,734.82 C534.11,744.13 528.02,753.03 526.44,757.25 C525.84,758.84 526.68,759.00 535.89,759.00 C544.30,759.00 546.00,758.74 546.00,757.47 ZM 575.99 752.80 C579.68,742.69 585.89,733.33 593.90,725.84 C606.71,713.85 618.41,708.09 648.50,699.00 C677.06,690.38 688.14,684.81 699.59,673.36 C710.44,662.50 716.46,651.47 719.55,636.78 C722.32,623.57 720.60,611.02 714.14,597.50 C705.27,578.92 685.76,565.27 665.41,563.41 C641.89,561.27 620.86,576.34 618.42,597.10 C616.76,611.25 627.67,627.17 640.08,628.69 L 644.50 629.23 L 640.00 626.80 C634.63,623.90 629.56,616.23 628.55,609.46 C627.14,600.10 632.90,588.56 641.79,582.91 C660.28,571.16 683.26,578.58 693.67,599.65 C700.11,612.68 699.51,627.78 691.96,642.79 C682.71,661.20 669.90,670.66 630.74,688.03 C602.28,700.66 582.40,715.37 569.64,733.25 C565.23,739.43 557.00,755.48 557.00,757.90 C557.00,758.61 559.94,759.00 565.37,759.00 L 573.73 759.00 L 575.99 752.80 ZM 392.94 682.98 C390.27,674.46 386.00,652.56 386.00,647.37 C386.00,645.57 385.45,645.00 383.71,645.00 C379.09,645.00 369.72,641.90 365.44,638.96 C356.70,632.94 353.12,621.61 357.57,614.00 C360.39,609.18 361.57,609.28 361.17,614.32 C360.89,617.82 361.32,619.23 363.45,621.75 C368.92,628.26 377.05,628.12 382.94,621.42 C386.56,617.29 387.42,614.38 386.74,608.42 C385.28,595.44 370.79,587.78 356.73,592.58 C347.00,595.89 339.66,605.46 337.04,618.22 C334.11,632.55 340.99,650.06 354.72,663.15 C357.92,666.20 367.81,673.49 376.70,679.33 C385.59,685.18 393.14,690.42 393.49,690.98 C393.83,691.54 394.49,692.00 394.94,692.00 C395.40,692.00 394.50,687.94 392.94,682.98 ZM 401.39 549.66 C412.27,517.68 428.89,494.83 465.50,461.53 C493.91,435.69 503.44,425.13 509.80,412.45 C514.50,403.06 516.20,395.92 516.17,385.66 C516.14,374.59 514.29,367.26 508.96,357.10 C505.14,349.81 497.11,338.05 495.93,338.01 C495.62,338.01 496.00,341.49 496.76,345.75 C497.68,350.89 497.97,357.21 497.61,364.50 C496.29,391.37 486.64,411.74 457.27,449.72 C435.38,478.02 428.17,487.70 423.51,494.97 C416.17,506.45 409.03,514.74 398.95,523.50 C393.89,527.90 387.45,534.00 384.63,537.06 C379.35,542.77 374.43,551.27 375.44,552.90 C375.75,553.41 377.73,554.12 379.84,554.47 C381.95,554.83 386.56,556.59 390.09,558.39 C393.61,560.19 396.77,561.40 397.10,561.08 C397.43,560.76 399.36,555.62 401.39,549.66 ZM 423.38 443.75 C420.98,427.96 413.25,413.91 402.08,405.06 L 398.35 402.11 L 398.20 407.66 C398.11,411.43 397.30,414.56 395.68,417.46 L 393.30 421.72 L 399.17 424.42 C406.00,427.55 416.97,437.38 420.65,443.67 C422.05,446.05 423.38,448.00 423.61,448.00 C423.84,448.00 423.73,446.09 423.38,443.75 ZM 339.57 837.67 C336.00,835.07 338.55,827.00 342.93,827.00 C346.23,827.00 349.00,829.97 349.00,833.52 C349.00,838.48 343.80,840.77 339.57,837.67 ZM 704.04 827.43 C703.39,824.17 702.65,820.76 702.40,819.85 C702.09,818.75 699.54,817.61 694.84,816.46 C687.11,814.57 687.28,814.01 696.20,812.10 C702.37,810.78 702.16,811.07 704.00,801.75 C704.63,798.59 705.29,796.00 705.47,796.00 C705.65,796.00 706.54,799.35 707.45,803.44 L 709.11 810.88 L 714.80 812.05 C717.94,812.69 721.14,813.56 721.91,813.99 C723.50,814.86 723.13,815.01 714.29,817.00 C708.75,818.26 708.61,818.43 707.46,826.00 C706.31,833.52 705.33,833.93 704.04,827.43 ZM 269.04 818.55 C266.39,815.36 270.30,810.34 273.42,812.93 C275.30,814.49 275.47,817.13 273.80,818.80 C272.20,820.40 270.51,820.31 269.04,818.55 ZM 745.41 814.63 C744.21,811.50 745.42,809.50 748.51,809.50 C751.17,809.50 751.50,809.84 751.50,812.50 C751.50,815.03 751.07,815.55 748.74,815.82 C746.99,816.02 745.78,815.59 745.41,814.63 ZM 304.09 795.06 L 302.92 789.13 L 297.42 787.89 C294.39,787.22 291.72,786.36 291.49,785.98 C291.26,785.61 293.53,784.75 296.54,784.08 C302.61,782.72 303.47,781.72 304.51,774.76 C304.90,772.15 305.56,770.23 305.98,770.49 C306.39,770.74 307.25,773.60 307.89,776.84 L 309.05 782.74 L 315.02 784.01 C318.31,784.70 321.00,785.57 321.00,785.94 C321.00,786.30 318.32,787.15 315.04,787.83 L 309.09 789.06 L 307.91 795.03 C307.27,798.31 306.41,801.00 306.00,801.00 C305.59,801.00 304.73,798.33 304.09,795.06 ZM 770.66 783.56 C770.33,781.14 769.76,775.52 769.39,771.08 C769.02,766.64 768.42,763.00 768.05,763.00 C767.69,763.00 765.48,764.40 763.15,766.12 C760.82,767.84 758.63,768.96 758.29,768.62 C757.95,768.28 759.12,766.20 760.89,763.99 C764.29,759.76 764.25,758.00 760.76,758.00 C756.01,758.00 741.07,755.69 741.49,755.02 C741.73,754.63 746.69,753.72 752.50,753.00 C758.31,752.28 763.30,751.32 763.59,750.86 C763.87,750.39 762.66,748.21 760.89,746.01 C759.12,743.80 757.95,741.72 758.29,741.38 C758.63,741.04 760.82,742.16 763.15,743.88 C765.48,745.60 767.69,747.00 768.05,747.00 C768.42,747.00 769.02,743.36 769.39,738.92 C771.07,718.72 772.02,718.07 774.00,735.75 C774.70,741.94 775.46,747.00 775.70,747.00 C775.94,747.00 778.16,745.61 780.64,743.90 C783.12,742.20 785.40,741.06 785.71,741.38 C786.03,741.69 784.65,743.94 782.66,746.37 C780.23,749.33 779.45,750.96 780.29,751.28 C780.98,751.54 785.81,752.33 791.02,753.02 C796.23,753.71 801.13,754.61 801.89,755.01 C802.66,755.41 798.61,756.28 792.89,756.95 C777.79,758.71 778.39,758.32 782.50,763.71 C784.43,766.23 786.00,768.67 786.00,769.14 C786.00,769.61 783.81,768.42 781.13,766.50 C778.45,764.57 776.04,763.00 775.78,763.00 C775.52,763.00 774.71,768.42 774.00,775.04 C773.28,781.66 772.37,787.27 771.98,787.51 C771.59,787.76 770.99,785.98 770.66,783.56 ZM 221.86 783.50 C221.52,782.95 220.67,777.21 219.96,770.75 C219.25,764.29 218.39,759.00 218.03,759.00 C217.68,759.00 215.48,760.40 213.15,762.12 C210.82,763.84 208.70,765.03 208.44,764.78 C208.19,764.52 209.58,762.21 211.54,759.65 C213.97,756.47 214.69,754.85 213.80,754.59 C213.09,754.37 207.89,753.65 202.26,752.99 C196.63,752.32 192.24,751.42 192.50,750.99 C192.77,750.56 196.93,749.69 201.74,749.06 C216.48,747.12 215.63,747.70 211.52,742.32 C209.57,739.77 208.19,737.48 208.44,737.22 C208.70,736.97 210.82,738.16 213.15,739.88 C215.48,741.60 217.69,743.00 218.06,743.00 C218.43,743.00 219.32,737.38 220.04,730.50 C220.76,723.62 221.64,718.00 222.00,718.00 C222.75,718.00 225.00,734.03 225.00,739.36 C225.00,741.36 225.38,743.00 225.85,743.00 C226.32,743.00 228.61,741.62 230.94,739.93 C233.28,738.24 235.42,737.09 235.71,737.38 C236.00,737.67 234.84,739.68 233.12,741.85 C231.40,744.01 230.00,746.19 230.00,746.68 C230.00,747.17 234.84,748.14 240.75,748.84 C246.66,749.54 251.87,750.48 252.31,750.92 C253.08,751.68 238.34,754.00 232.68,754.00 C229.20,754.00 229.30,755.33 233.12,760.15 C234.84,762.32 236.03,764.30 235.78,764.55 C235.53,764.81 233.39,763.62 231.03,761.91 C226.19,758.40 225.10,758.95 224.94,765.00 C224.79,770.84 222.50,784.57 221.86,783.50 ZM 703.34 764.43 C702.40,762.00 704.31,759.50 707.11,759.50 C709.10,759.50 709.50,760.00 709.50,762.50 C709.50,765.03 709.07,765.55 706.74,765.82 C704.87,766.03 703.78,765.59 703.34,764.43 ZM 279.24 741.84 C276.34,738.94 279.48,733.55 282.83,735.67 C285.29,737.22 285.04,742.42 282.49,742.79 C281.38,742.95 279.92,742.52 279.24,741.84 ZM 810.22 691.44 C807.58,689.59 807.24,684.90 809.57,682.57 C811.90,680.24 816.59,680.58 818.44,683.22 C820.58,686.27 820.41,687.69 817.55,690.55 C814.69,693.41 813.27,693.58 810.22,691.44 ZM 227.20 682.80 C225.27,680.87 225.76,677.21 228.05,676.48 C232.27,675.15 234.94,680.89 231.07,682.96 C228.66,684.25 228.65,684.25 227.20,682.80 ZM 796.34 665.43 C795.50,663.26 797.62,661.22 799.13,662.73 C800.41,664.01 799.62,667.00 798.00,667.00 C797.42,667.00 796.67,666.29 796.34,665.43 ZM 185.08 652.95 C184.49,650.17 184.00,647.08 184.00,646.07 C184.00,643.51 182.33,642.45 176.00,641.00 C167.46,639.05 167.39,638.51 175.42,636.62 C183.61,634.69 183.19,635.19 185.08,625.22 C185.74,621.77 186.55,619.21 186.89,619.55 C187.22,619.88 188.20,623.38 189.05,627.33 L 190.59 634.50 L 197.77 636.39 C201.72,637.42 204.76,638.58 204.52,638.97 C204.28,639.35 201.48,640.24 198.30,640.94 C195.11,641.65 191.97,642.65 191.33,643.17 C190.69,643.69 189.60,647.24 188.92,651.06 C188.24,654.87 187.34,658.00 186.92,658.00 C186.51,658.00 185.68,655.73 185.08,652.95 ZM 849.48 653.95 C848.19,649.88 853.81,647.04 855.87,650.72 C857.23,653.17 855.45,656.00 852.53,656.00 C850.99,656.00 849.90,655.27 849.48,653.95 ZM 452.23 615.56 C445.93,608.67 439.91,596.73 436.80,584.97 C434.93,577.86 434.56,573.84 434.55,560.00 C434.52,540.33 436.24,532.35 443.95,516.50 C451.92,500.10 459.35,490.79 487.32,462.13 C521.96,426.65 530.10,416.01 536.09,398.41 C543.40,376.90 542.11,354.31 532.45,334.77 C527.55,324.85 521.91,317.29 509.50,304.00 C480.59,273.04 471.43,258.48 466.79,236.09 C464.03,222.81 464.71,201.93 468.37,187.50 C471.70,174.33 475.89,163.86 482.92,151.11 C485.17,147.05 487.00,143.51 487.00,143.26 C487.00,142.18 475.04,158.21 468.21,168.43 C459.14,182.02 446.31,207.89 441.64,222.03 C430.58,255.49 429.78,296.99 439.63,326.71 C441.05,330.99 445.05,340.58 448.51,348.00 C457.45,367.17 458.21,369.78 458.76,383.03 C459.46,400.17 455.74,412.23 445.24,426.89 L 440.50 433.50 L 439.71 428.00 C435.84,400.99 434.65,398.81 412.20,377.56 C402.76,368.63 398.00,357.22 398.00,343.52 C398.00,332.43 404.44,314.47 412.19,303.98 L 415.50 299.50 L 416.15 313.50 C417.09,333.91 420.41,342.54 433.79,359.36 C442.20,369.92 445.02,374.39 447.18,380.50 C448.91,385.43 448.94,385.45 448.97,382.00 C449.02,376.46 445.71,366.49 439.51,353.50 C430.34,334.31 428.17,328.29 424.93,313.00 C420.96,294.26 420.59,267.21 424.05,247.57 C432.90,197.20 463.62,145.72 508.23,106.48 C521.77,94.57 547.62,75.28 548.65,76.32 C548.97,76.64 546.17,81.76 542.44,87.70 C529.43,108.39 521.58,127.13 518.47,144.88 C516.53,155.93 516.58,175.04 518.57,184.79 C520.30,193.25 525.75,207.81 529.98,215.26 L 532.68 220.01 L 533.94 215.76 C537.70,203.03 548.74,188.88 561.75,180.13 C565.19,177.82 568.00,176.18 568.00,176.49 C568.00,176.80 566.93,179.63 565.63,182.78 C559.23,198.22 558.50,201.69 558.51,216.50 C558.53,229.73 558.71,231.02 561.82,240.00 C565.75,251.31 570.94,259.91 583.73,276.31 C600.31,297.58 606.86,308.36 611.57,322.20 C616.13,335.61 617.43,344.48 617.41,362.00 C617.37,392.55 612.32,408.12 587.09,455.46 C576.12,476.03 572.82,486.17 572.23,501.03 C571.68,514.78 573.09,521.58 578.98,533.60 C583.96,543.76 594.55,554.38 603.33,558.02 C606.45,559.31 609.00,560.68 609.00,561.07 C609.00,562.09 602.51,565.01 600.35,564.96 C593.68,564.80 584.95,559.10 577.58,550.10 C560.66,529.42 556.73,503.83 566.13,475.50 C567.77,470.55 573.00,459.08 577.74,450.00 C593.49,419.87 596.81,412.83 600.34,402.12 C608.86,376.18 609.22,349.06 601.33,326.05 C596.61,312.29 592.02,304.63 576.98,285.50 C562.76,267.40 556.44,257.20 552.19,245.50 C549.16,237.16 547.00,226.00 547.00,218.73 C547.00,210.60 545.59,212.27 543.44,222.96 C542.18,229.21 541.89,233.91 542.35,240.96 L 542.96 250.50 L 537.95 245.03 C523.83,229.59 511.79,205.89 507.47,185.00 C504.15,168.94 506.16,140.12 511.50,127.35 C513.67,122.14 512.44,123.39 508.62,130.25 C503.99,138.58 499.75,149.53 496.91,160.50 C494.98,167.93 494.59,171.93 494.64,183.50 C494.70,195.63 495.07,198.70 497.38,206.50 C503.46,227.01 513.24,242.11 538.50,270.00 C564.83,299.07 575.49,316.72 581.60,341.37 C590.70,378.14 579.60,422.59 555.46,446.00 L 549.79 451.50 L 554.46 443.00 C564.26,425.16 569.70,411.51 572.92,396.66 C578.55,370.65 575.93,346.23 565.06,323.37 C557.60,307.69 552.37,300.42 532.47,278.00 C506.49,248.75 498.31,236.94 491.24,218.50 C484.05,199.74 483.03,176.15 488.52,155.60 C489.71,151.14 486.03,158.55 482.02,168.68 C474.51,187.66 471.10,208.20 472.96,223.19 C476.12,248.62 485.37,265.58 510.52,292.05 C528.69,311.17 533.76,317.79 540.00,330.50 C547.40,345.58 549.46,354.50 549.42,371.50 C549.40,387.04 548.07,394.17 542.89,406.62 C536.00,423.15 526.01,435.79 495.52,466.52 C466.48,495.78 457.14,508.00 449.30,527.00 C444.53,538.54 442.59,548.79 442.65,562.00 C442.73,578.18 446.15,591.92 454.95,611.43 C459.38,621.24 458.55,622.48 452.23,615.56 ZM 441.08 388.42 C439.34,381.48 435.82,375.16 428.82,366.37 C420.85,356.38 413.69,344.54 412.03,338.61 C411.32,336.07 410.39,334.00 409.97,334.00 C408.59,334.00 407.88,345.36 408.92,350.72 C410.69,359.81 414.15,365.04 425.20,375.33 C430.87,380.60 436.85,386.92 438.50,389.37 C440.15,391.82 441.67,393.66 441.88,393.45 C442.09,393.25 441.73,390.98 441.08,388.42 ZM 824.67 613.00 C824.36,612.17 823.61,609.59 823.01,607.26 C822.01,603.34 821.58,602.92 817.46,601.89 C815.01,601.27 813.00,600.42 813.00,599.99 C813.00,599.57 815.01,598.93 817.47,598.56 C821.57,597.94 822.02,597.58 822.96,594.19 C823.53,592.16 823.99,589.71 823.99,588.75 C824.01,585.15 825.90,587.17 826.55,591.47 C827.33,596.70 828.01,597.39 834.00,599.06 L 838.50 600.32 L 833.50 601.77 C830.75,602.57 828.33,603.39 828.11,603.58 C827.90,603.78 827.17,606.32 826.49,609.22 C825.78,612.23 825.00,613.85 824.67,613.00 ZM 146.08 606.60 C144.25,604.39 145.68,601.00 148.44,601.00 C151.59,601.00 153.72,603.64 152.34,605.83 C150.95,608.05 147.63,608.46 146.08,606.60 ZM 207.52 576.27 C206.62,571.44 205.28,569.00 203.53,569.00 C202.76,569.00 200.86,568.50 199.32,567.89 L 196.50 566.78 L 201.19 565.38 C206.02,563.93 206.37,563.46 207.58,556.62 C208.35,552.31 209.33,553.19 210.40,559.15 C211.19,563.54 212.33,564.60 217.24,565.52 C221.64,566.34 221.39,567.52 216.61,568.41 C212.48,569.19 211.53,570.25 210.06,575.75 C209.43,578.09 208.77,580.00 208.57,580.00 C208.38,580.00 207.91,578.32 207.52,576.27 ZM 848.80 554.42 C848.50,553.91 847.70,550.35 847.00,546.50 C846.30,542.65 845.36,538.77 844.90,537.89 C844.37,536.85 841.01,535.63 835.54,534.48 C830.84,533.49 827.00,532.41 827.00,532.07 C827.00,531.73 830.71,530.69 835.25,529.75 C839.78,528.81 843.99,527.36 844.60,526.53 C845.22,525.69 846.30,521.62 847.00,517.47 C847.71,513.33 848.68,509.70 849.15,509.41 C849.62,509.12 850.00,509.09 850.00,509.33 C850.00,511.53 853.44,525.77 854.19,526.70 C854.72,527.36 858.61,528.65 862.83,529.57 C867.05,530.49 870.86,531.57 871.30,531.97 C871.74,532.37 868.41,533.43 863.91,534.34 C859.41,535.24 855.16,536.45 854.46,537.03 C853.76,537.61 852.69,540.99 852.07,544.53 C850.76,552.05 849.55,555.72 848.80,554.42 ZM 157.96 533.00 C157.25,525.85 156.50,520.00 156.28,520.00 C156.06,520.00 153.81,521.58 151.28,523.51 C148.76,525.44 146.48,526.81 146.22,526.56 C145.97,526.30 147.41,523.85 149.43,521.10 L 153.09 516.11 L 149.80 515.57 C145.91,514.93 131.38,513.03 129.68,512.94 C126.51,512.77 133.74,511.04 142.34,509.92 C147.65,509.22 152.00,508.23 152.00,507.72 C152.00,507.21 150.60,505.01 148.88,502.85 C147.16,500.68 145.97,498.70 146.22,498.44 C146.48,498.19 148.76,499.56 151.28,501.49 C153.81,503.42 156.08,504.66 156.32,504.25 C156.57,503.84 157.33,497.99 158.03,491.25 C158.73,484.51 159.61,479.00 159.99,479.00 C160.38,479.00 161.25,483.61 161.93,489.25 C162.61,494.89 163.40,500.72 163.70,502.21 L 164.23 504.91 L 168.77 501.45 C171.27,499.54 173.52,498.19 173.78,498.44 C174.03,498.70 172.84,500.82 171.12,503.15 C169.40,505.48 168.00,507.70 168.00,508.07 C168.00,508.45 172.39,509.30 177.75,509.97 C193.62,511.96 193.35,512.52 175.29,515.06 L 167.08 516.22 L 170.55 520.77 C172.46,523.27 173.81,525.52 173.56,525.78 C173.30,526.03 171.18,524.83 168.84,523.11 C165.77,520.86 164.41,520.34 163.94,521.24 C163.58,521.93 162.72,527.79 162.03,534.25 C161.33,540.71 160.42,546.00 160.01,546.00 C159.59,546.00 158.67,540.15 157.96,533.00 ZM 797.45 504.55 C794.59,501.69 794.42,500.27 796.56,497.22 C798.48,494.48 803.03,494.27 805.35,496.83 C807.71,499.44 807.43,503.58 804.78,505.44 C801.73,507.58 800.31,507.41 797.45,504.55 ZM 218.44 488.55 C216.47,485.54 217.27,482.52 220.63,480.32 C222.96,478.80 223.28,478.82 225.81,480.70 C230.94,484.51 229.48,491.00 223.49,491.00 C220.94,491.00 219.63,490.36 218.44,488.55 ZM 862.57 473.43 C860.61,471.47 860.57,469.60 862.45,468.04 C864.66,466.21 868.00,467.71 868.00,470.53 C868.00,473.79 864.69,475.55 862.57,473.43 ZM 825.96 437.50 C825.24,430.62 824.37,425.00 824.02,425.00 C823.68,425.00 821.48,426.40 819.15,428.12 C816.82,429.84 814.70,431.03 814.44,430.78 C814.19,430.52 815.57,428.23 817.52,425.68 C821.58,420.36 821.91,420.65 810.50,419.50 C795.04,417.94 794.96,416.87 810.16,414.93 C815.57,414.24 820.00,413.41 820.00,413.09 C819.99,412.76 818.66,410.49 817.04,408.04 C815.41,405.59 814.27,403.39 814.51,403.15 C814.75,402.91 816.99,404.39 819.48,406.43 C822.57,408.96 824.14,409.72 824.42,408.82 C824.65,408.09 825.39,402.43 826.06,396.22 C826.72,390.02 827.60,384.75 828.00,384.50 C828.40,384.25 829.32,389.66 830.04,396.52 C830.76,403.39 831.65,409.00 832.03,409.00 C832.40,409.00 834.61,407.62 836.94,405.93 C839.28,404.24 841.37,403.03 841.59,403.25 C841.81,403.48 840.65,405.42 839.02,407.58 C837.39,409.74 836.04,411.98 836.03,412.58 C836.01,413.19 840.16,414.20 845.66,414.92 C858.16,416.55 860.79,417.46 855.44,418.30 C853.27,418.64 848.35,419.20 844.50,419.54 C834.37,420.44 834.50,420.31 838.48,425.84 C840.42,428.54 842.00,431.02 842.00,431.37 C842.00,431.71 839.75,430.38 837.00,428.41 C833.45,425.85 831.89,425.20 831.58,426.16 C831.35,426.90 830.60,432.56 829.90,438.75 C829.21,444.94 828.34,450.00 827.96,450.00 C827.58,450.00 826.68,444.38 825.96,437.50 ZM 195.93 434.42 C194.18,432.30 195.93,429.50 199.00,429.50 C202.07,429.50 203.82,432.30 202.07,434.42 C201.35,435.29 199.97,436.00 199.00,436.00 C198.03,436.00 196.65,435.29 195.93,434.42 ZM 249.84 417.80 L 248.50 411.59 L 242.76 410.19 C237.50,408.91 235.75,407.01 239.81,406.99 C240.74,406.99 243.14,406.53 245.14,405.98 C248.65,405.00 248.82,404.74 250.00,398.49 C251.15,392.41 252.99,390.46 253.01,395.31 C253.01,396.51 253.48,399.17 254.04,401.22 C254.95,404.47 255.61,405.08 259.29,406.03 C267.82,408.23 267.82,408.23 261.50,409.91 C256.08,411.36 255.39,411.85 254.31,415.00 C253.65,416.93 253.09,419.74 253.06,421.25 C252.96,426.07 251.22,424.21 249.84,417.80 ZM 760.33 407.38 C758.80,405.04 758.77,404.49 760.09,402.13 C763.07,396.81 771.00,398.80 771.00,404.87 C771.00,408.48 769.32,410.00 765.32,410.00 C762.89,410.00 761.60,409.32 760.33,407.38 ZM 176.45 389.55 C173.48,386.57 173.36,384.64 176.00,382.00 C178.50,379.50 182.17,379.43 184.35,381.83 C186.57,384.29 186.43,387.57 184.00,390.00 C181.36,392.64 179.43,392.52 176.45,389.55 ZM 775.72 386.87 C773.53,385.64 773.47,381.14 775.64,380.31 C779.50,378.83 782.90,384.91 779.28,386.85 C778.10,387.48 776.84,387.49 775.72,386.87 ZM 757.90 340.26 L 756.50 333.52 L 750.18 332.16 C746.71,331.41 744.16,330.51 744.52,330.15 C744.87,329.79 747.71,328.82 750.83,328.00 L 756.50 326.49 L 757.90 319.75 C758.67,316.04 759.61,313.00 759.99,313.00 C760.37,313.00 761.24,316.13 761.92,319.97 L 763.17 326.93 L 769.11 328.10 C772.38,328.74 775.25,329.60 775.50,330.00 C775.75,330.41 773.23,331.32 769.89,332.02 C763.22,333.44 762.71,334.06 761.47,342.34 C761.09,344.90 760.44,347.00 760.04,347.00 C759.63,347.00 758.67,343.97 757.90,340.26 ZM 249.12 337.12 C248.52,334.33 247.74,330.24 247.39,328.04 C247.04,325.84 246.24,323.66 245.63,323.19 C245.01,322.72 240.80,321.52 236.29,320.51 C231.77,319.51 228.26,318.38 228.49,318.01 C228.72,317.64 232.76,316.52 237.45,315.54 C247.07,313.52 246.23,314.59 248.99,300.75 C249.63,297.59 250.45,295.00 250.83,295.00 C251.20,295.00 252.41,299.14 253.51,304.21 L 255.50 313.41 L 263.68 315.46 C268.18,316.58 272.14,317.79 272.48,318.14 C272.83,318.49 270.72,319.32 267.80,319.98 C254.07,323.11 255.54,321.90 253.52,331.75 C252.54,336.56 251.39,340.88 250.97,341.35 C250.55,341.81 249.72,339.91 249.12,337.12 ZM 821.58 336.08 C819.27,333.54 821.05,329.72 824.32,330.19 C826.85,330.55 827.81,334.31 825.95,336.56 C824.38,338.46 823.65,338.38 821.58,336.08 ZM 301.00 332.00 C300.14,330.39 300.15,329.52 301.05,328.44 C303.71,325.23 309.51,328.37 307.34,331.83 C305.75,334.38 302.32,334.47 301.00,332.00 ZM 638.46 287.30 C637.56,278.16 636.95,277.15 633.62,279.33 C629.93,281.74 629.29,281.38 632.05,278.45 C635.04,275.26 634.00,274.43 625.82,273.48 C622.62,273.11 620.22,272.45 620.49,272.02 C620.75,271.59 623.90,270.92 627.49,270.54 C631.07,270.15 634.00,269.61 634.00,269.32 C634.00,269.04 633.07,267.50 631.93,265.90 C629.51,262.50 630.11,262.23 633.99,264.99 L 636.78 266.98 L 637.36 263.74 C637.67,261.96 638.24,258.02 638.63,255.00 C639.21,250.43 639.46,249.92 640.09,252.00 C640.51,253.38 641.14,257.09 641.50,260.25 C642.16,266.16 643.54,267.46 646.00,264.50 C648.28,261.75 649.17,262.96 647.05,265.93 C645.90,267.54 645.33,269.08 645.77,269.36 C646.21,269.63 649.38,270.17 652.81,270.56 C656.24,270.95 659.25,271.60 659.51,272.02 C659.77,272.43 657.39,273.08 654.24,273.45 C644.74,274.56 644.61,274.64 647.05,278.07 C649.17,281.04 648.28,282.25 646.00,279.50 C643.08,275.98 641.07,279.58 641.00,288.50 C640.98,290.15 640.56,292.14 640.06,292.93 C639.45,293.91 638.94,292.11 638.46,287.30 ZM 752.72 285.87 C750.29,284.50 750.50,280.29 753.05,279.48 C755.50,278.71 758.00,280.53 758.00,283.09 C758.00,285.53 754.97,287.12 752.72,285.87 ZM 383.69 282.41 C383.39,281.36 382.85,279.03 382.49,277.24 C381.92,274.40 381.27,273.85 377.42,272.88 C374.99,272.26 373.00,271.45 373.00,271.07 C373.00,270.69 374.91,269.96 377.25,269.44 C381.17,268.57 381.58,268.17 382.51,264.33 C383.81,258.91 384.75,258.07 385.52,261.63 C386.76,267.41 387.77,268.73 391.39,269.41 C396.54,270.38 396.58,271.58 391.50,273.00 C387.49,274.12 386.98,274.61 386.39,277.87 C385.47,283.05 384.39,284.86 383.69,282.41 ZM 715.65 247.17 C713.18,244.44 713.56,240.34 716.45,238.44 C719.41,236.50 722.47,237.26 724.55,240.44 C728.25,246.09 720.19,252.18 715.65,247.17 ZM 283.20 243.80 C281.40,242.00 281.75,239.20 283.93,238.04 C286.33,236.75 288.66,237.58 289.27,239.93 C290.31,243.91 286.04,246.64 283.20,243.80 ZM 346.15 227.30 C345.54,223.01 344.76,217.14 344.40,214.25 C344.04,211.36 343.57,209.00 343.36,209.00 C343.15,209.00 341.11,210.35 338.83,212.01 C336.55,213.66 334.49,214.83 334.27,214.60 C334.04,214.37 335.24,212.27 336.93,209.93 C338.63,207.59 339.82,205.49 339.59,205.26 C339.36,205.02 334.33,204.20 328.42,203.42 C322.51,202.65 317.49,201.83 317.27,201.60 C316.73,201.06 320.65,200.30 331.00,198.95 C335.67,198.34 339.67,197.67 339.87,197.46 C340.08,197.25 338.62,194.82 336.63,192.04 C334.63,189.27 333.28,187.00 333.62,187.00 C333.96,187.00 336.38,188.58 339.00,190.50 L 343.77 194.00 L 344.98 183.75 C345.64,178.11 346.52,172.15 346.92,170.50 C347.67,167.46 348.30,170.63 350.53,188.69 L 351.17 193.87 L 355.95 190.44 C358.59,188.55 361.02,187.00 361.37,187.00 C361.71,187.00 360.42,189.19 358.50,191.87 C356.57,194.55 355.00,196.96 355.00,197.23 C355.00,197.50 359.16,198.25 364.25,198.90 C369.34,199.55 374.62,200.35 376.00,200.67 L 378.50 201.26 L 375.85 202.02 C374.39,202.43 369.63,203.09 365.26,203.48 C354.52,204.43 354.11,204.79 357.91,210.03 C359.62,212.39 360.81,214.53 360.55,214.78 C360.30,215.03 358.19,213.84 355.87,212.13 C353.54,210.42 351.53,209.14 351.38,209.28 C351.24,209.42 350.39,215.15 349.50,222.00 C348.61,228.85 347.73,234.60 347.56,234.77 C347.39,234.95 346.75,231.58 346.15,227.30 ZM 394.41 232.63 C393.21,229.50 394.42,227.50 397.51,227.50 C400.17,227.50 400.50,227.84 400.50,230.50 C400.50,233.03 400.07,233.55 397.74,233.82 C395.99,234.02 394.78,233.59 394.41,232.63 ZM 597.41 218.49 C596.61,215.29 597.96,213.72 601.13,214.17 C603.02,214.43 603.50,215.11 603.50,217.50 C603.50,220.02 603.07,220.55 600.78,220.81 C598.57,221.07 597.95,220.64 597.41,218.49 ZM 655.66 209.23 C655.34,206.63 654.80,201.57 654.46,198.00 C653.54,188.36 653.58,188.40 648.80,191.91 C642.88,196.27 642.27,195.76 646.50,190.00 C648.52,187.25 650.01,185.00 649.81,185.00 C648.43,185.00 631.92,182.84 629.50,182.35 C626.88,181.81 626.75,181.64 628.50,181.01 C629.60,180.61 634.88,179.72 640.24,179.02 L 649.98 177.74 L 646.49 172.99 C644.57,170.37 643.00,167.91 643.00,167.52 C643.00,167.13 645.24,168.42 647.98,170.39 C653.85,174.61 653.24,175.62 655.12,158.58 C656.53,145.83 657.32,146.66 659.09,162.70 C659.74,168.64 660.44,173.69 660.64,173.92 C660.84,174.15 662.02,173.42 663.25,172.30 C664.49,171.18 666.80,169.43 668.40,168.42 C671.25,166.60 671.28,166.61 670.22,168.54 C669.63,169.62 667.99,172.04 666.58,173.93 C665.18,175.81 664.13,177.46 664.26,177.60 C664.40,177.73 668.33,178.34 673.00,178.95 C683.35,180.30 687.27,181.06 686.73,181.60 C686.51,181.83 681.49,182.65 675.58,183.42 C669.67,184.20 664.64,185.03 664.41,185.26 C664.17,185.49 665.56,187.76 667.49,190.28 C669.42,192.81 671.00,195.17 671.00,195.53 C671.00,195.88 668.80,194.56 666.12,192.59 C663.43,190.61 661.02,189.00 660.77,189.00 C660.51,189.00 659.71,194.42 659.00,201.04 C658.28,207.66 657.37,213.27 656.97,213.52 C656.58,213.76 655.99,211.83 655.66,209.23 ZM 547.72 154.87 C544.48,153.05 546.28,148.00 550.16,148.00 C552.12,148.00 554.43,151.49 553.49,153.02 C552.30,154.94 549.47,155.84 547.72,154.87 ZM 574.57 136.43 C570.97,132.83 574.63,125.18 579.30,126.54 C581.75,127.25 585.00,130.59 585.00,132.39 C585.00,137.05 577.93,139.79 574.57,136.43 ZM 425.08 131.43 C424.45,128.17 423.57,124.84 423.13,124.03 C422.68,123.22 419.43,121.83 415.91,120.93 L 409.50 119.31 L 413.50 118.21 C415.70,117.60 418.77,116.80 420.33,116.43 C423.50,115.66 423.43,115.78 425.05,107.57 C426.37,100.87 427.15,101.40 428.95,110.19 L 430.12 115.88 L 435.81 117.10 C442.76,118.59 444.04,119.53 440.32,120.43 C429.60,123.02 430.23,122.55 428.96,128.77 C427.15,137.60 426.37,138.14 425.08,131.43 ZM 441.05 930.56 C438.52,927.51 442.51,923.52 445.56,926.05 C446.41,926.75 446.96,928.26 446.80,929.41 C446.43,931.98 442.82,932.70 441.05,930.56 ZM 454.71 931.38 C453.16,929.83 454.04,926.12 456.11,925.46 C459.06,924.53 461.88,927.38 460.38,929.77 C459.23,931.61 455.89,932.56 454.71,931.38 ZM 468.38 930.56 C466.77,926.36 470.33,923.48 473.38,926.52 C474.61,927.75 474.75,928.60 473.96,930.07 C472.75,932.33 469.18,932.64 468.38,930.56 ZM 482.05 930.56 C479.52,927.51 483.51,923.52 486.56,926.05 C487.41,926.75 487.96,928.26 487.80,929.41 C487.43,931.98 483.82,932.70 482.05,930.56 ZM 495.31 930.36 C493.84,926.52 499.15,923.70 501.33,927.17 C502.10,928.38 502.02,929.27 501.07,930.42 C499.36,932.48 496.11,932.45 495.31,930.36 ZM 509.09 930.61 C507.28,928.43 509.45,924.78 512.32,925.19 C515.41,925.63 515.49,931.36 512.41,931.80 C511.26,931.96 509.77,931.43 509.09,930.61 ZM 523.09 930.61 C522.17,929.50 522.14,928.61 522.97,927.06 C524.88,923.49 529.41,925.07 528.84,929.11 C528.44,931.93 524.95,932.85 523.09,930.61 ZM 537.05 930.56 C535.57,928.78 536.28,926.21 538.49,925.37 C540.63,924.54 543.16,926.91 542.80,929.41 C542.43,931.98 538.82,932.70 537.05,930.56 ZM 550.71 931.38 C549.16,929.83 550.04,926.12 552.11,925.46 C555.06,924.53 557.88,927.38 556.38,929.77 C555.23,931.61 551.89,932.56 550.71,931.38 ZM 564.38 930.56 C562.77,926.36 566.33,923.48 569.38,926.52 C570.61,927.75 570.75,928.60 569.96,930.07 C568.75,932.33 565.18,932.64 564.38,930.56 ZM 578.05 930.56 C576.57,928.78 577.28,926.21 579.49,925.37 C581.63,924.54 584.16,926.91 583.80,929.41 C583.43,931.98 579.82,932.70 578.05,930.56 ZM 446.01 880.01 C444.35,877.68 443.10,877.00 440.49,877.00 C436.44,877.00 434.99,875.21 437.54,873.35 C442.10,870.02 450.00,873.85 450.00,879.40 C450.00,883.14 448.41,883.38 446.01,880.01 ZM 415.36 859.50 C414.46,857.16 415.73,855.00 418.00,855.00 C420.54,855.00 421.65,857.51 419.99,859.51 C418.40,861.43 416.10,861.42 415.36,859.50 ZM 425.36 857.50 C424.46,855.16 425.73,853.00 428.00,853.00 C430.54,853.00 431.65,855.51 429.99,857.51 C428.40,859.43 426.10,859.42 425.36,857.50 ZM 435.36 854.50 C435.05,853.67 435.06,852.29 435.39,851.43 C436.21,849.28 440.39,850.00 440.84,852.38 C441.44,855.54 436.49,857.45 435.36,854.50 ZM 444.36 850.49 C443.69,848.76 445.63,846.00 447.50,846.00 C448.19,846.00 449.32,846.67 450.00,847.50 C450.99,848.70 450.99,849.30 450.00,850.50 C448.39,852.44 445.10,852.43 444.36,850.49 ZM 428.20 842.80 C424.81,839.41 428.80,833.75 433.00,836.00 C436.53,837.89 435.00,844.00 431.00,844.00 C430.12,844.00 428.86,843.46 428.20,842.80 ZM 509.41 882.51 C509.07,881.14 508.97,875.96 509.19,871.01 C509.41,866.05 509.48,862.00 509.35,862.00 C509.22,862.00 507.09,864.13 504.63,866.74 C501.39,870.17 500.43,871.82 501.17,872.71 C501.73,873.38 502.03,874.39 501.84,874.94 C501.44,876.13 495.00,871.33 495.00,869.83 C495.00,869.27 497.89,865.81 501.42,862.15 L 507.84 855.50 L 500.42 847.51 C496.34,843.12 493.00,839.28 493.00,838.99 C493.00,838.70 497.27,834.20 502.50,829.00 L 512.00 819.54 L 521.50 829.00 C526.72,834.20 531.00,838.92 531.00,839.48 C530.99,840.04 527.61,843.86 523.48,847.96 L 515.97 855.42 L 522.49 861.98 C526.07,865.60 529.00,869.02 529.00,869.59 C529.00,871.16 523.13,876.46 522.30,875.63 C521.90,875.23 522.06,874.13 522.66,873.17 C523.56,871.74 522.97,870.55 519.37,866.53 L 515.00 861.63 L 515.00 871.73 C515.00,877.29 514.73,882.55 514.39,883.42 C513.43,885.94 510.12,885.33 509.41,882.51 ZM 509.50 839.50 C509.50,834.27 509.26,830.00 508.96,830.00 C508.66,830.00 506.43,832.03 504.00,834.50 L 499.58 839.00 L 504.50 844.00 C507.21,846.75 509.44,849.00 509.46,849.00 C509.48,849.00 509.50,844.72 509.50,839.50 ZM 520.01 834.51 C517.58,832.03 515.34,830.00 515.04,830.00 C514.74,830.00 514.65,834.12 514.83,839.16 L 515.15 848.32 L 519.80 843.68 L 524.44 839.03 L 520.01 834.51 ZM 475.22 875.76 C473.74,873.98 475.26,871.71 477.62,872.17 C479.92,872.61 480.15,876.35 477.91,876.78 C477.03,876.95 475.82,876.49 475.22,875.76 ZM 544.41 875.62 C543.60,873.51 544.74,872.00 547.13,872.00 C548.64,872.00 549.06,872.56 548.82,874.24 C548.45,876.85 545.26,877.85 544.41,875.62 ZM 470.34 865.43 C470.01,864.57 470.21,863.39 470.80,862.80 C472.36,861.24 475.00,862.61 475.00,864.97 C475.00,867.43 471.25,867.81 470.34,865.43 ZM 549.70 866.37 C549.32,865.98 549.00,864.84 549.00,863.83 C549.00,862.53 549.74,862.00 551.57,862.00 C553.66,862.00 554.08,862.42 553.82,864.24 C553.50,866.46 551.06,867.72 549.70,866.37 ZM 490.39 856.57 C489.39,853.98 490.79,851.83 493.25,852.18 C494.90,852.41 495.50,853.17 495.50,855.00 C495.50,856.83 494.90,857.59 493.25,857.82 C491.89,858.01 490.75,857.51 490.39,856.57 ZM 528.36 856.50 C527.49,854.22 528.71,852.00 530.85,852.00 C531.90,852.00 533.32,852.67 534.00,853.50 C535.56,855.39 533.73,858.00 530.85,858.00 C529.80,858.00 528.68,857.33 528.36,856.50 ZM 467.70 856.37 C466.52,855.19 466.92,852.24 468.34,851.70 C470.36,850.93 472.24,852.50 471.84,854.61 C471.47,856.53 468.94,857.61 467.70,856.37 ZM 552.70 856.37 C551.52,855.19 551.92,852.24 553.34,851.70 C555.36,850.93 557.24,852.50 556.84,854.61 C556.47,856.53 553.94,857.61 552.70,856.37 ZM 467.54 845.65 C465.21,843.95 466.14,841.00 469.00,841.00 C471.62,841.00 472.71,843.72 470.84,845.59 C469.63,846.80 469.13,846.81 467.54,845.65 ZM 553.54 845.65 C551.21,843.95 552.14,841.00 555.00,841.00 C557.62,841.00 558.71,843.72 556.84,845.59 C555.63,846.80 555.13,846.81 553.54,845.65 ZM 475.71 840.38 C474.27,838.93 475.07,836.11 477.10,835.47 C479.63,834.67 481.32,836.10 480.83,838.64 C480.48,840.52 477.02,841.69 475.71,840.38 ZM 543.59 839.38 C542.74,837.16 545.31,834.52 547.49,835.36 C548.51,835.75 549.02,836.86 548.82,838.25 C548.42,841.05 544.56,841.89 543.59,839.38 ZM 483.59 832.37 C482.88,830.51 484.60,828.00 486.59,828.00 C488.62,828.00 490.15,831.45 488.75,832.85 C487.08,834.52 484.31,834.26 483.59,832.37 ZM 535.67 833.33 C534.40,832.07 535.01,829.21 536.68,828.57 C538.80,827.76 541.47,830.33 540.67,832.42 C540.06,834.01 536.91,834.58 535.67,833.33 ZM 492.01 825.51 C490.23,823.37 491.55,820.80 494.24,821.18 C496.80,821.55 497.87,824.83 495.85,826.11 C493.97,827.30 493.42,827.22 492.01,825.51 ZM 528.15 826.11 C526.13,824.83 527.20,821.55 529.76,821.18 C532.45,820.80 533.77,823.37 531.99,825.51 C530.58,827.22 530.03,827.30 528.15,826.11 ZM 500.25 817.28 C498.43,816.63 498.72,812.32 500.63,811.59 C502.49,810.88 505.00,812.60 505.00,814.59 C505.00,816.20 501.99,817.91 500.25,817.28 ZM 520.69 816.85 C518.65,815.70 518.51,813.65 520.37,812.11 C522.35,810.46 525.00,811.83 525.00,814.50 C525.00,817.16 523.10,818.20 520.69,816.85 ZM 509.08 807.60 C508.40,806.77 508.11,805.22 508.46,804.14 C509.40,801.16 512.08,800.63 514.42,802.97 C516.03,804.59 516.24,805.40 515.38,806.76 C513.95,809.05 510.65,809.48 509.08,807.60 ZM 604.05 859.56 C602.23,857.37 603.52,854.79 606.25,855.18 C607.89,855.41 608.50,856.17 608.50,857.99 C608.50,860.90 605.92,861.81 604.05,859.56 ZM 594.05 857.56 C592.23,855.37 593.52,852.79 596.25,853.18 C597.89,853.41 598.50,854.17 598.50,855.99 C598.50,858.90 595.92,859.81 594.05,857.56 ZM 584.00 854.50 C583.01,853.30 583.01,852.70 584.00,851.50 C584.68,850.67 585.81,850.00 586.50,850.00 C587.19,850.00 588.32,850.67 589.00,851.50 C589.99,852.70 589.99,853.30 589.00,854.50 C588.32,855.33 587.19,856.00 586.50,856.00 C585.81,856.00 584.68,855.33 584.00,854.50 ZM 574.25 850.85 C572.64,849.24 574.52,846.00 577.07,846.00 C579.55,846.00 580.63,848.53 578.99,850.51 C577.51,852.30 575.81,852.41 574.25,850.85 ZM 590.20 842.80 C586.81,839.41 590.80,833.75 595.00,836.00 C598.53,837.89 597.00,844.00 593.00,844.00 C592.12,844.00 590.86,843.46 590.20,842.80 ZM 574.00 880.00 C574.00,874.56 580.55,870.56 585.65,872.89 C589.09,874.45 588.10,876.44 583.70,876.81 C581.01,877.04 579.51,877.89 577.96,880.06 C575.29,883.81 574.00,883.79 574.00,880.00 ZM 398.25 828.27 C397.56,828.03 397.00,826.79 397.00,825.52 C397.00,823.14 398.57,821.97 400.75,822.73 C401.44,822.97 402.00,824.21 402.00,825.48 C402.00,827.86 400.43,829.03 398.25,828.27 ZM 622.61 827.46 C620.64,825.50 620.64,825.50 622.53,823.61 C624.39,821.75 627.00,822.56 627.00,824.98 C627.00,827.93 624.49,829.35 622.61,827.46 ZM 455.00 825.14 C455.00,824.67 457.49,822.63 460.53,820.61 C463.83,818.42 466.72,815.56 467.69,813.53 C469.19,810.37 469.19,809.94 467.63,807.56 C465.72,804.65 463.82,804.30 461.97,806.53 C460.94,807.78 460.95,808.54 462.03,810.55 C463.09,812.54 463.11,813.29 462.11,814.27 C461.12,815.25 460.36,814.92 458.43,812.69 C457.09,811.15 456.00,808.77 456.00,807.40 C456.00,803.73 460.20,800.00 464.32,800.00 C467.99,800.00 473.00,803.21 473.00,805.57 C473.00,807.67 474.19,807.34 478.57,804.03 C482.65,800.94 485.00,800.23 485.00,802.08 C485.00,804.47 468.38,821.07 463.55,823.51 C458.55,826.03 455.00,826.71 455.00,825.14 ZM 447.18 803.75 C447.39,802.27 448.19,801.50 449.50,801.50 C450.81,801.50 451.61,802.27 451.82,803.75 C452.08,805.60 451.66,806.00 449.50,806.00 C447.34,806.00 446.92,805.60 447.18,803.75 ZM 562.18 824.48 C557.71,822.54 555.76,820.88 546.56,811.22 C541.63,806.04 539.02,802.58 539.61,801.99 C540.49,801.11 541.49,801.60 548.38,806.24 C549.93,807.28 550.35,807.24 550.78,806.06 C551.96,802.76 555.94,800.00 559.50,800.00 C566.67,800.00 570.71,808.29 565.89,813.11 C564.03,814.97 563.61,815.04 562.31,813.73 C561.08,812.51 561.04,811.90 562.10,810.21 C563.14,808.54 563.14,807.87 562.07,806.58 C560.19,804.32 558.29,804.63 556.40,807.51 C553.94,811.27 556.05,815.26 563.15,820.27 C566.37,822.54 569.00,824.76 569.00,825.20 C569.00,826.42 565.89,826.09 562.18,824.48 ZM 572.43 805.58 C570.02,803.81 571.28,800.76 574.25,801.18 C575.65,801.38 576.61,802.30 576.80,803.62 C577.18,806.24 574.80,807.31 572.43,805.58 ZM 379.53 780.38 C378.64,779.50 378.07,778.29 378.26,777.71 C378.85,775.94 381.62,774.64 383.36,775.31 C385.46,776.11 385.50,780.60 383.42,781.39 C381.30,782.21 381.37,782.22 379.53,780.38 ZM 393.53 780.38 C392.64,779.50 392.07,778.29 392.26,777.71 C392.85,775.94 395.62,774.64 397.36,775.31 C399.46,776.11 399.50,780.60 397.42,781.39 C395.30,782.21 395.37,782.22 393.53,780.38 ZM 407.15 780.28 C405.87,777.88 407.46,775.00 410.08,775.00 C412.48,775.00 413.70,777.67 412.30,779.89 C410.83,782.22 408.29,782.41 407.15,780.28 ZM 421.00 780.00 C420.14,778.39 420.15,777.52 421.05,776.44 C423.84,773.08 428.62,776.21 426.30,779.89 C424.77,782.33 422.27,782.38 421.00,780.00 ZM 435.44 780.56 C433.89,779.40 433.72,778.76 434.61,777.31 C436.07,774.93 440.36,774.92 440.82,777.30 C441.16,779.05 439.43,782.00 438.07,782.00 C437.69,782.00 436.51,781.35 435.44,780.56 ZM 449.53 780.38 C447.70,778.56 447.90,777.10 450.17,775.66 C453.67,773.46 456.76,777.84 453.80,780.80 C452.21,782.39 451.46,782.32 449.53,780.38 ZM 463.56 780.42 C462.64,779.50 462.14,778.09 462.44,777.29 C462.75,776.49 463.00,775.65 463.00,775.42 C463.00,775.19 464.14,775.00 465.53,775.00 C468.39,775.00 469.82,777.47 468.34,779.83 C466.89,782.12 465.44,782.30 463.56,780.42 ZM 478.04 780.55 C477.38,779.75 476.99,778.29 477.18,777.30 C477.64,774.92 481.93,774.93 483.39,777.31 C484.28,778.76 484.11,779.40 482.56,780.56 C480.13,782.36 479.54,782.36 478.04,780.55 ZM 493.59 780.69 C490.97,778.78 492.31,775.00 495.60,775.00 C498.39,775.00 499.81,777.50 498.34,779.83 C496.96,782.01 495.71,782.24 493.59,780.69 ZM 509.56 780.42 C508.64,779.50 508.14,778.09 508.44,777.29 C508.75,776.49 509.00,775.65 509.00,775.42 C509.00,774.26 513.93,775.21 515.07,776.58 C517.86,779.94 512.69,783.55 509.56,780.42 ZM 526.59 780.69 C523.97,778.78 525.31,775.00 528.60,775.00 C531.39,775.00 532.81,777.50 531.34,779.83 C529.96,782.01 528.71,782.24 526.59,780.69 ZM 541.53 780.38 C540.64,779.50 540.07,778.29 540.26,777.71 C540.85,775.94 543.62,774.64 545.36,775.31 C547.46,776.11 547.50,780.60 545.42,781.39 C543.30,782.21 543.37,782.22 541.53,780.38 ZM 556.04 780.55 C554.22,778.36 555.71,775.00 558.50,775.00 C560.01,775.00 561.10,775.74 561.52,777.05 C562.21,779.25 560.54,782.00 558.50,782.00 C557.81,782.00 556.70,781.35 556.04,780.55 ZM 570.04 780.55 C568.13,778.24 569.20,775.54 572.17,775.19 C574.15,774.96 575.00,775.42 575.50,776.99 C576.72,780.85 572.55,783.57 570.04,780.55 ZM 584.04 780.55 C582.16,778.28 583.18,775.50 585.90,775.50 C589.06,775.50 590.85,778.28 589.07,780.42 C587.43,782.39 585.61,782.44 584.04,780.55 ZM 598.04 780.55 C596.13,778.24 597.20,775.54 600.17,775.19 C602.15,774.96 603.00,775.42 603.50,776.99 C604.72,780.85 600.55,783.57 598.04,780.55 ZM 612.04 780.55 C611.38,779.75 610.99,778.29 611.18,777.30 C611.64,774.92 615.93,774.93 617.39,777.31 C618.28,778.76 618.11,779.40 616.56,780.56 C614.13,782.36 613.54,782.36 612.04,780.55 ZM 626.04 780.55 C625.38,779.75 624.99,778.29 625.18,777.30 C625.64,774.92 629.93,774.93 631.39,777.31 C632.28,778.76 632.11,779.40 630.56,780.56 C628.13,782.36 627.54,782.36 626.04,780.55 ZM 640.20 780.80 C637.24,777.84 640.33,773.46 643.83,775.66 C646.10,777.10 646.30,778.56 644.47,780.38 C642.54,782.32 641.79,782.39 640.20,780.80 Z" fill="rgba(0,0,0,1)"/>
</g>
</svg>