<svg xmlns="http://www.w3.org/2000/svg" width="1024" height="1024" viewBox="0 0 1024 1024">
<g>
<path d="M 505.69 894.00 C492.25,879.05 485.00,861.95 485.00,845.21 C485.00,840.60 484.66,837.01 484.25,837.22 C469.23,844.90 457.99,846.71 445.46,843.45 C433.79,840.41 424.75,833.30 419.81,823.27 C415.45,814.41 414.70,802.43 417.97,793.75 C420.85,786.13 428.33,777.98 435.23,774.96 C442.34,771.84 452.67,771.70 459.00,774.62 C476.92,782.91 478.43,807.09 461.42,813.58 C456.09,815.62 452.42,814.53 451.44,810.61 C450.43,806.60 451.32,804.64 455.29,802.07 C459.81,799.14 460.72,796.30 458.51,792.03 C454.08,783.46 439.60,784.54 433.28,793.92 C424.74,806.58 430.99,823.63 446.32,829.49 C453.51,832.23 465.83,831.29 473.01,827.45 C486.75,820.11 496.66,805.58 499.70,788.33 C502.25,773.83 499.65,754.64 492.96,738.56 C484.25,717.63 468.06,698.63 453.00,691.66 C446.32,688.57 430.20,688.59 424.38,691.70 C417.68,695.29 414.30,698.71 411.06,705.20 C403.40,720.53 410.61,738.84 426.12,743.44 C432.69,745.39 435.12,745.40 439.77,743.45 C444.96,741.28 447.85,738.27 449.07,733.76 C449.92,730.57 449.79,729.23 448.30,726.21 C445.08,719.63 438.19,718.02 437.15,723.61 C436.10,729.22 429.59,730.84 426.07,726.37 C423.48,723.07 423.46,720.74 426.00,715.50 C431.35,704.45 448.57,703.57 457.28,713.92 C464.00,721.90 464.93,735.71 459.35,744.77 C456.08,750.09 448.87,755.42 442.69,757.08 C440.43,757.69 435.18,758.03 431.04,757.83 C424.07,757.50 418.54,755.60 408.92,750.27 C408.60,750.09 407.56,752.77 406.60,756.22 C404.08,765.27 400.39,771.42 393.85,777.48 C384.08,786.53 372.05,791.00 357.50,791.00 C341.15,791.00 328.81,785.75 316.38,773.50 C303.29,760.61 297.57,746.41 297.74,727.25 L 297.82 718.00 L 291.77 723.47 C283.62,730.85 271.07,739.16 260.89,743.93 C233.03,756.98 207.46,755.24 189.81,739.11 C176.89,727.30 172.61,708.26 179.50,693.22 C180.88,690.21 182.00,687.64 182.00,687.50 C182.00,687.35 174.69,687.01 165.75,686.74 C145.88,686.13 134.57,684.19 117.02,678.38 C102.44,673.56 81.90,663.49 78.21,659.37 C75.68,656.53 75.94,653.82 79.05,650.58 C80.78,648.78 81.34,648.74 88.20,649.99 C98.68,651.90 116.58,651.50 128.00,649.11 C155.90,643.25 175.60,632.52 196.01,612.05 C211.72,596.29 222.30,579.89 229.28,560.44 C231.77,553.51 231.79,553.29 230.14,548.43 C224.63,532.14 212.24,522.03 197.76,522.01 C184.78,521.99 174.08,528.83 169.99,539.76 C167.61,546.11 167.52,549.02 169.47,555.60 C171.73,563.19 180.00,570.00 186.98,570.00 C197.43,570.00 204.28,559.51 197.38,554.09 C194.91,552.14 194.61,552.12 192.01,553.65 C188.45,555.75 184.30,554.76 182.79,551.45 C181.88,549.45 181.99,548.24 183.34,545.42 C188.03,535.57 205.42,537.95 211.26,549.24 C216.01,558.45 214.35,567.77 206.56,575.55 C197.37,584.71 185.75,586.21 173.05,579.87 C155.25,570.97 149.17,548.81 159.27,529.69 C162.49,523.60 169.98,516.06 175.03,513.83 C176.66,513.10 177.99,512.28 177.98,512.01 C177.97,511.73 175.67,510.15 172.86,508.50 C155.90,498.51 149.39,475.04 158.78,457.70 C163.66,448.68 174.28,441.58 184.76,440.34 C199.79,438.56 214.04,450.92 213.99,465.69 C213.97,470.76 209.51,478.63 204.95,481.65 C194.18,488.78 177.81,481.59 183.13,472.07 C184.86,468.97 189.13,468.20 192.48,470.39 C194.63,471.81 195.03,471.77 197.41,469.89 C202.34,466.01 199.94,457.87 193.02,455.01 C188.96,453.33 182.02,454.20 177.57,456.95 C175.60,458.18 172.75,461.27 171.24,463.84 C168.94,467.76 168.51,469.62 168.54,475.55 C168.57,481.37 169.05,483.41 171.28,487.22 C185.28,511.10 220.09,504.89 230.00,476.75 C231.63,472.11 231.66,471.21 230.32,466.58 C228.24,459.39 219.01,440.39 213.94,432.86 C199.04,410.71 177.45,392.45 154.41,382.50 C135.57,374.37 113.52,370.82 95.37,373.01 C89.39,373.73 83.40,374.29 82.06,374.25 C77.06,374.12 75.33,367.58 79.25,363.66 C82.41,360.50 103.78,349.81 114.40,346.08 C132.46,339.73 162.35,335.51 180.37,336.77 C184.16,337.03 187.06,336.86 186.83,336.37 C186.59,335.89 185.08,332.80 183.45,329.50 C180.75,324.00 180.50,322.61 180.50,312.95 C180.50,302.77 180.63,302.13 184.25,294.82 C191.00,281.15 204.90,270.83 221.22,267.36 C230.47,265.39 247.65,266.05 257.50,268.76 C272.75,272.95 290.83,282.49 302.59,292.53 L 307.71 296.91 L 308.29 288.68 C309.69,268.80 320.65,251.73 337.26,243.52 C355.31,234.60 374.72,237.05 388.38,249.97 C400.54,261.47 403.13,279.79 394.44,292.90 C387.71,303.08 374.04,306.81 363.23,301.43 C357.68,298.66 354.59,294.70 352.53,287.73 L 351.31 283.61 L 348.46 288.49 C344.76,294.79 343.89,307.08 346.42,317.04 C349.67,329.78 358.19,344.42 367.00,352.38 C372.87,357.69 384.10,364.77 391.20,367.66 C396.77,369.92 397.37,369.99 399.36,368.51 C406.21,363.44 422.58,353.07 427.81,350.50 C431.17,348.85 433.93,347.16 433.96,346.75 C433.98,346.34 432.17,346.00 429.94,346.00 C419.35,346.00 401.61,338.23 392.12,329.45 C383.82,321.77 382.96,317.62 389.01,314.50 C392.61,312.63 394.28,313.26 400.50,318.82 C407.13,324.75 419.22,330.51 428.27,332.06 C458.93,337.31 490.25,311.28 492.72,278.50 C494.15,259.49 481.67,238.27 465.32,231.94 C449.70,225.89 432.59,231.89 425.87,245.77 C421.84,254.10 423.40,266.45 429.30,272.87 C432.07,275.88 438.62,278.95 442.35,278.98 C448.93,279.03 455.05,273.61 454.97,267.80 C454.92,264.46 452.85,262.23 448.43,260.78 C443.54,259.17 441.77,255.28 444.06,251.18 C446.56,246.71 455.43,246.97 461.01,251.67 C471.23,260.26 470.93,276.71 460.38,285.97 C454.93,290.76 450.49,292.35 442.50,292.37 C433.81,292.39 428.04,289.99 421.04,283.45 C413.91,276.77 410.73,269.77 410.20,259.52 C409.46,245.41 414.85,232.82 424.66,225.78 C427.05,224.06 429.00,222.30 429.00,221.85 C429.00,221.41 428.11,219.58 427.02,217.79 C420.90,207.74 422.53,196.34 431.35,187.52 C438.43,180.43 444.10,178.56 456.40,179.25 C466.39,179.81 473.29,182.04 480.61,187.08 L 485.00 190.10 L 485.02 186.30 C485.09,171.22 496.30,147.85 508.67,136.98 L 512.25 133.85 L 515.74 137.17 C521.25,142.43 528.84,152.88 532.08,159.68 C535.68,167.22 539.00,179.71 539.00,185.73 L 539.00 190.14 L 541.94 188.05 C543.55,186.90 547.89,184.54 551.57,182.82 C557.24,180.17 559.76,179.61 567.89,179.24 C575.97,178.87 578.39,179.13 583.12,180.92 C598.11,186.59 604.81,203.28 597.63,217.11 C595.07,222.04 595.02,222.43 596.70,223.33 C600.45,225.33 607.81,233.91 610.31,239.19 C622.17,264.26 606.81,292.59 581.50,292.35 C573.55,292.28 568.95,290.65 563.75,286.08 C553.22,276.84 552.96,259.37 563.24,251.67 C571.69,245.34 581.00,246.87 581.00,254.60 C581.00,258.07 578.17,261.00 574.82,261.00 C573.86,261.00 572.16,261.98 571.04,263.19 C564.44,270.27 575.43,281.28 585.95,278.13 C601.65,273.43 605.68,252.76 593.53,239.25 C587.51,232.55 580.79,229.63 571.50,229.66 C556.77,229.72 544.44,238.19 536.99,253.37 C526.24,275.27 531.58,299.30 551.25,317.64 C572.84,337.77 602.56,337.87 624.61,317.90 C630.43,312.63 632.61,312.01 635.85,314.75 C640.91,319.04 638.93,324.28 629.36,331.91 C619.76,339.54 607.29,344.70 595.50,345.89 L 589.50 346.50 L 597.50 350.88 C601.90,353.29 610.33,358.57 616.22,362.60 L 626.95 369.93 L 631.18 368.44 C642.37,364.49 656.13,354.54 663.92,344.76 C674.66,331.29 679.48,317.60 678.82,302.50 C678.48,294.70 678.01,292.70 675.56,288.51 L 672.69 283.62 L 671.52 288.24 C668.88,298.65 660.44,304.63 649.64,303.76 C633.65,302.48 624.19,290.56 625.21,272.99 C625.77,263.27 629.06,256.09 635.87,249.72 C650.01,236.49 669.84,234.44 688.41,244.28 C704.39,252.76 715.94,272.43 715.99,291.25 L 716.00 296.99 L 722.25 291.91 C731.26,284.59 746.84,275.61 756.84,271.98 C790.10,259.89 821.81,266.72 836.69,289.18 C842.33,297.69 844.35,305.13 843.81,315.41 C843.39,323.26 843.13,324.09 837.18,336.37 C836.95,336.84 840.30,337.02 844.63,336.77 C863.53,335.65 888.55,339.13 907.81,345.55 C918.11,348.98 939.49,359.24 944.40,363.10 C948.86,366.61 947.21,374.11 941.94,374.25 C940.60,374.29 934.69,373.72 928.81,372.99 C900.34,369.44 865.66,380.03 840.79,399.85 C830.59,407.99 817.19,422.39 810.71,432.20 C801.33,446.37 793.00,464.77 793.00,471.27 C793.00,476.55 798.44,486.63 804.45,492.49 C816.51,504.27 834.56,505.30 846.40,494.88 C852.26,489.72 855.07,484.30 855.75,476.86 C856.77,465.62 849.01,455.43 838.53,454.25 C833.22,453.65 828.72,455.27 825.97,458.77 C823.38,462.05 823.42,467.16 826.04,469.53 C827.79,471.12 828.52,471.21 831.36,470.19 C836.35,468.38 838.78,468.74 840.61,471.53 C843.29,475.61 841.50,479.97 835.99,482.81 C821.94,490.06 806.45,474.79 811.07,458.25 C813.02,451.23 820.89,443.67 828.54,441.44 C851.77,434.69 873.98,457.09 869.03,482.27 C866.81,493.54 860.63,502.68 851.49,508.21 C848.50,510.02 846.04,511.73 846.03,512.00 C846.01,512.28 848.05,513.59 850.56,514.92 C853.07,516.25 857.06,519.50 859.44,522.14 C876.16,540.74 871.92,569.39 850.90,579.89 C838.22,586.23 826.63,584.76 817.56,575.68 C809.61,567.71 808.03,558.73 812.92,549.16 C817.36,540.46 826.83,536.81 835.52,540.44 C840.04,542.33 842.87,547.80 841.21,551.45 C839.72,554.71 835.55,555.75 832.10,553.72 C830.09,552.53 828.99,552.42 827.48,553.24 C824.72,554.75 824.03,556.02 824.02,559.62 C823.98,566.04 831.12,570.78 839.19,569.70 C845.33,568.88 850.40,564.92 853.54,558.51 C855.86,553.76 856.19,552.06 855.75,547.14 C855.11,540.16 852.47,534.74 847.33,529.86 C840.76,523.62 837.67,522.50 827.00,522.50 C818.34,522.50 817.03,522.76 812.14,525.47 C809.20,527.10 804.97,530.47 802.75,532.97 C798.77,537.44 793.36,547.62 792.90,551.50 C792.21,557.22 800.84,576.56 810.72,591.43 C818.64,603.37 836.04,621.21 846.58,628.20 C862.69,638.89 876.88,644.91 895.56,648.97 C907.34,651.53 924.74,651.96 935.89,649.96 L 943.28 648.63 L 945.64 651.37 C946.94,652.88 948.00,654.70 948.00,655.42 C948.00,658.50 943.33,662.08 931.30,668.21 C905.96,681.15 882.09,687.00 854.62,687.00 C847.68,687.00 842.00,687.17 842.00,687.38 C842.00,687.59 843.24,690.40 844.75,693.63 C847.15,698.75 847.50,700.72 847.50,709.05 C847.50,718.08 847.29,719.03 843.75,726.20 C835.10,743.70 815.63,754.25 795.05,752.59 C774.52,750.94 752.78,740.95 733.42,724.29 L 726.42 718.27 L 726.37 728.38 C726.31,744.75 721.86,757.52 711.97,769.74 C706.15,776.94 694.87,784.81 685.86,787.97 C677.11,791.04 661.75,791.82 653.20,789.63 C634.73,784.90 621.49,772.40 617.40,755.84 L 615.77 749.22 L 611.63 752.00 C605.66,756.01 598.88,758.00 591.22,757.99 C577.94,757.98 569.60,753.34 564.15,742.91 C561.05,736.99 560.83,735.96 561.24,729.36 C561.58,723.91 562.34,721.10 564.43,717.53 C567.56,712.20 574.21,707.48 579.98,706.50 C588.22,705.11 598.21,711.30 599.59,718.65 C601.45,728.55 591.39,733.05 587.22,724.17 C584.94,719.32 581.95,718.89 577.99,722.85 C572.14,728.70 574.90,739.23 583.27,743.04 C588.44,745.38 591.10,745.46 597.88,743.44 C608.51,740.29 615.97,729.98 615.99,718.43 C616.01,705.98 610.01,696.52 598.96,691.56 C593.53,689.13 591.85,688.84 584.65,689.16 C572.24,689.71 565.18,693.42 553.02,705.81 C538.89,720.22 529.57,737.57 525.29,757.45 C523.16,767.32 523.18,785.83 525.33,793.89 C529.15,808.23 539.70,821.80 551.50,827.57 C559.22,831.33 570.67,832.16 577.72,829.47 C589.82,824.85 597.46,811.18 594.00,800.37 C591.38,792.22 583.96,786.08 576.65,786.02 C571.98,785.99 566.91,788.98 565.35,792.70 C563.64,796.80 564.59,798.96 569.38,801.93 C573.49,804.47 574.72,808.25 572.53,811.59 C570.14,815.24 566.66,815.61 561.22,812.81 C548.41,806.22 546.91,790.57 558.04,779.79 C571.93,766.35 594.83,771.59 604.85,790.50 C607.23,794.99 607.50,796.57 607.50,806.00 C607.50,815.28 607.19,817.16 604.84,822.18 C596.44,840.08 576.64,848.54 555.01,843.44 C551.45,842.60 546.64,840.81 544.34,839.46 C542.03,838.11 539.89,837.00 539.57,837.00 C539.26,837.00 538.99,840.71 538.99,845.25 C538.96,859.01 535.22,870.90 527.22,882.67 C521.54,891.03 514.11,899.00 512.00,899.00 C511.00,899.00 508.16,896.75 505.69,894.00 ZM 517.00 873.26 C522.62,863.96 525.43,854.17 525.39,844.00 C525.37,836.75 524.81,833.96 521.60,825.00 C519.53,819.22 516.64,811.03 515.17,806.78 C513.70,802.54 512.28,799.06 512.00,799.07 C511.73,799.07 510.08,803.22 508.36,808.29 C506.63,813.35 503.93,820.88 502.36,825.00 C499.80,831.73 499.51,833.73 499.50,844.50 C499.50,855.23 499.78,857.16 502.15,862.78 C505.50,870.74 511.15,880.12 512.36,879.71 C512.86,879.55 514.95,876.64 517.00,873.26 ZM 683.25 774.05 C693.64,770.09 702.79,761.36 707.94,750.50 C718.88,727.46 711.41,699.75 689.37,681.57 C685.67,678.52 682.49,676.17 682.31,676.35 C682.13,676.53 683.98,679.73 686.43,683.45 C692.00,691.92 695.41,700.37 697.57,711.05 C701.58,730.82 693.06,750.22 677.31,757.19 C673.52,758.87 671.21,759.16 664.51,758.80 C655.53,758.33 651.21,756.52 647.63,751.70 C645.70,749.13 645.66,748.70 647.05,746.22 C647.88,744.74 649.66,742.98 651.01,742.31 C656.94,739.35 657.86,732.74 652.92,728.59 C645.87,722.66 635.29,727.27 631.53,737.90 C625.53,754.92 639.56,774.24 659.77,776.80 C667.38,777.77 676.20,776.73 683.25,774.05 ZM 371.50 775.00 C384.76,770.44 392.87,760.54 393.78,747.78 C394.20,741.94 393.91,740.34 391.58,735.58 C388.38,729.03 384.10,726.00 378.06,726.00 C370.30,726.00 365.43,733.89 369.56,739.78 C370.41,741.00 371.62,742.00 372.24,742.00 C372.86,742.00 374.41,742.98 375.69,744.17 C382.14,750.24 374.18,757.89 360.50,758.77 C351.84,759.33 346.35,757.91 340.82,753.69 C334.69,749.01 330.52,743.08 327.95,735.34 C322.34,718.48 327.09,698.47 341.79,677.01 C344.97,672.38 330.93,684.22 325.81,690.50 C316.88,701.44 311.04,716.65 311.03,729.00 C311.02,744.49 320.34,761.88 333.00,770.00 C343.90,776.99 359.73,779.05 371.50,775.00 ZM 513.00 750.18 C513.00,747.65 517.10,735.88 520.87,727.61 C525.05,718.42 533.40,706.03 540.99,697.75 C544.39,694.04 547.02,691.00 546.84,691.01 C546.65,691.01 541.55,691.68 535.50,692.49 C518.91,694.71 498.97,694.32 481.00,691.41 L 476.50 690.68 L 483.03 697.63 C494.90,710.25 506.33,730.52 509.87,745.24 C511.42,751.64 513.00,754.14 513.00,750.18 ZM 356.47 744.25 C356.06,743.29 355.24,740.81 354.66,738.75 C352.36,730.70 358.04,719.44 366.61,715.00 C372.98,711.71 383.49,711.49 389.56,714.53 L 393.63 716.56 L 394.83 710.21 C397.84,694.36 409.12,681.85 424.80,676.98 L 430.50 675.21 L 427.13 673.36 C425.27,672.34 418.21,667.87 411.43,663.43 L 399.10 655.36 L 390.30 658.53 C385.46,660.27 378.58,663.41 375.00,665.50 C367.13,670.10 352.78,684.39 348.18,692.19 C334.96,714.63 337.21,738.55 353.15,744.93 C356.63,746.33 357.30,746.19 356.47,744.25 ZM 674.13 743.41 C683.13,738.84 687.12,724.78 683.49,710.46 C677.94,688.57 659.66,668.75 636.32,659.34 C631.56,657.42 626.95,655.83 626.08,655.80 C625.21,655.77 620.17,658.64 614.87,662.18 C609.58,665.73 602.72,669.95 599.63,671.56 C596.53,673.18 594.00,674.79 594.00,675.14 C594.00,675.49 595.66,676.09 597.69,676.47 C607.81,678.37 620.72,688.58 625.52,698.49 C626.85,701.25 628.50,706.50 629.18,710.16 L 630.42 716.82 L 634.34 714.83 C646.15,708.80 661.59,713.57 667.55,725.10 C669.92,729.68 670.42,736.86 668.70,741.78 C667.23,746.01 667.24,746.06 669.36,745.41 C670.53,745.04 672.68,744.14 674.13,743.41 ZM 238.51 737.55 C247.79,735.36 260.12,729.77 269.67,723.42 C277.49,718.22 299.00,698.84 299.00,697.00 C299.00,696.59 296.75,696.04 294.01,695.77 C283.69,694.78 274.16,685.77 273.24,676.13 C272.54,668.91 273.67,664.45 277.19,660.44 C282.29,654.63 288.75,652.34 295.20,654.06 C301.79,655.82 305.14,662.97 301.35,667.17 C299.41,669.31 297.85,669.44 293.36,667.81 C290.52,666.79 289.79,666.88 288.04,668.47 C285.63,670.65 285.46,673.06 287.46,676.91 C290.85,683.48 302.38,684.75 313.19,679.74 C317.42,677.78 328.08,669.99 333.37,664.98 C333.85,664.53 332.05,663.04 329.37,661.66 C316.58,655.12 309.82,641.01 313.47,628.46 C317.41,614.91 331.77,607.47 343.50,612.90 C353.47,617.51 357.78,627.92 352.99,635.78 C349.86,640.92 345.87,641.74 341.65,638.10 C340.16,636.82 339.91,635.64 340.40,632.11 C341.12,626.87 339.91,625.00 335.81,625.00 C331.81,625.00 329.31,626.50 327.51,629.98 C324.18,636.42 327.44,644.77 334.90,648.89 C342.59,653.13 350.21,652.95 367.30,648.12 C375.33,645.86 382.60,644.00 383.45,644.00 C384.30,644.00 385.00,643.72 385.00,643.37 C385.00,643.03 382.10,639.67 378.55,635.90 C370.33,627.19 362.72,617.03 355.42,605.00 C348.49,593.58 344.89,585.92 339.98,572.08 L 336.28 561.66 L 333.50 570.08 C322.36,603.88 296.73,637.14 265.75,658.02 C257.46,663.60 237.43,674.12 230.13,676.72 L 226.75 677.92 L 229.53 681.21 C240.59,694.31 236.71,712.71 221.95,717.13 C217.09,718.59 210.96,717.05 207.38,713.47 C204.43,710.52 204.37,708.07 207.15,704.54 C209.35,701.74 209.76,701.70 217.16,703.54 C219.30,704.07 220.07,703.74 221.06,701.89 C225.44,693.71 215.84,684.25 205.97,687.01 C190.07,691.46 184.79,710.41 195.39,725.00 C204.07,736.94 220.65,741.77 238.51,737.55 ZM 815.20 735.82 C822.13,732.58 828.80,726.12 831.97,719.56 C836.54,710.11 834.34,698.02 826.89,691.64 C819.17,685.03 809.87,684.80 804.57,691.10 C799.64,696.96 802.58,705.88 808.55,703.16 C812.22,701.49 814.07,701.72 816.69,704.17 C823.13,710.23 813.99,719.40 803.48,717.43 C798.37,716.47 792.14,711.53 789.95,706.69 C786.44,698.96 787.77,690.07 793.58,682.46 L 797.08 677.87 L 792.79 676.21 C790.43,675.30 783.78,672.22 778.00,669.38 C738.29,649.81 705.47,612.76 690.92,571.08 L 687.68 561.79 L 684.02 572.15 C675.16,597.22 662.06,618.71 644.63,636.72 C641.32,640.15 638.81,643.08 639.06,643.24 C639.30,643.41 643.55,644.60 648.50,645.90 C653.45,647.20 660.62,649.10 664.43,650.13 C683.22,655.20 698.00,648.53 698.00,634.97 C698.00,629.46 693.80,625.00 688.61,625.00 C684.30,625.00 682.83,627.19 683.67,632.38 C684.44,637.09 682.05,640.00 677.42,640.00 C671.45,640.00 667.57,631.87 670.01,624.48 C675.53,607.73 699.16,606.59 708.18,622.64 C715.94,636.45 710.60,653.14 695.91,660.97 L 689.61 664.33 L 693.00 666.91 C694.86,668.34 698.30,671.14 700.64,673.15 C709.42,680.69 722.55,684.62 730.35,682.05 C737.20,679.79 740.27,672.36 735.96,668.47 C734.21,666.88 733.48,666.79 730.64,667.81 C726.28,669.39 725.00,669.31 722.83,667.35 C718.44,663.37 722.83,655.08 730.10,653.63 C736.78,652.29 746.02,657.26 749.55,664.10 C751.66,668.18 751.41,678.27 749.09,682.79 C745.33,690.11 736.34,695.93 728.75,695.98 C726.69,695.99 725.00,696.38 725.00,696.85 C725.00,698.61 744.81,716.82 752.00,721.67 C761.29,727.93 771.48,733.07 780.00,735.80 C789.57,738.85 789.69,738.87 800.00,738.67 C807.95,738.52 810.43,738.05 815.20,735.82 ZM 530.46 678.96 C558.03,675.80 583.18,666.63 606.00,651.42 C642.60,627.02 667.91,589.11 677.06,545.00 C680.14,530.13 680.85,503.45 678.56,488.47 C671.11,439.73 646.47,400.09 606.71,372.86 C529.34,319.86 422.64,341.20 371.03,420.00 C351.79,449.37 342.94,481.95 344.28,518.46 C345.93,563.57 363.44,602.25 396.47,633.79 C422.06,658.21 454.07,673.68 489.00,678.49 C500.79,680.11 518.64,680.31 530.46,678.96 ZM 200.61 670.54 C221.93,666.14 240.29,658.40 259.04,645.88 C270.68,638.11 291.43,617.76 299.21,606.50 C314.77,583.96 324.42,559.81 327.91,534.66 C329.49,523.35 329.25,498.14 327.47,487.00 C321.34,448.61 301.50,412.99 272.50,388.29 C232.13,353.91 180.99,342.40 129.75,356.14 C121.66,358.31 119.70,359.99 125.25,360.01 C133.99,360.03 158.05,368.10 172.00,375.68 C191.37,386.20 211.72,404.96 224.99,424.52 C236.13,440.94 245.92,465.18 249.61,485.50 C252.32,500.39 252.08,526.94 249.11,541.00 C239.34,587.19 212.87,624.19 173.26,646.99 C159.38,654.98 139.06,662.03 125.14,663.67 C121.49,664.10 120.26,664.57 121.29,665.14 C124.28,666.82 146.44,672.05 154.37,672.95 C167.17,674.41 186.80,673.39 200.61,670.54 ZM 867.96 672.96 C878.19,671.91 900.59,666.81 902.24,665.16 C902.75,664.65 901.06,664.00 898.18,663.62 C884.58,661.81 864.58,654.77 851.02,647.01 C777.89,605.16 751.14,514.29 790.09,440.08 C798.30,424.44 805.58,414.46 817.50,402.50 C832.62,387.33 847.44,377.03 865.07,369.45 C874.98,365.19 893.82,360.02 899.45,360.01 C905.91,360.00 902.43,358.22 889.54,354.97 C872.73,350.72 857.14,349.38 841.23,350.79 C784.14,355.88 735.57,389.69 710.92,441.50 C699.84,464.78 696.10,480.58 695.31,507.50 C694.86,523.07 695.08,527.25 696.99,538.48 C705.89,590.98 739.19,635.49 786.50,658.12 C812.74,670.67 840.66,675.76 867.96,672.96 ZM 237.88 512.38 C237.95,505.71 237.73,498.88 237.39,497.20 L 236.78 494.16 L 230.92 500.42 C227.70,503.87 223.02,507.77 220.53,509.09 C218.04,510.42 216.00,511.72 216.00,512.00 C216.00,512.28 217.46,513.15 219.25,513.93 C221.04,514.71 225.65,518.53 229.50,522.43 C236.24,529.24 236.52,529.41 237.13,527.00 C237.48,525.62 237.82,519.04 237.88,512.38 ZM 799.14 517.81 C801.83,515.78 804.93,513.84 806.02,513.49 C808.95,512.56 808.48,511.75 803.47,509.09 C800.98,507.77 796.31,503.87 793.09,500.43 L 787.23 494.18 L 786.63 497.84 C785.84,502.59 785.85,521.43 786.63,526.20 L 787.24 529.90 L 790.74 525.70 C792.67,523.39 796.45,519.84 799.14,517.81 ZM 348.42 431.43 C356.00,416.11 367.65,399.31 378.74,387.69 C381.92,384.37 383.91,381.52 383.39,381.04 C381.41,379.15 359.04,372.84 352.45,372.31 C336.67,371.04 324.82,379.20 326.31,390.31 C326.93,394.92 329.27,397.64 333.72,398.92 C338.59,400.32 340.50,398.33 340.50,391.87 C340.50,387.26 340.82,386.43 343.07,385.15 C349.04,381.76 354.43,386.68 354.43,395.53 C354.43,409.51 339.06,417.32 325.17,410.40 C319.12,407.38 315.89,403.52 313.52,396.50 C308.16,380.56 320.73,362.31 339.09,359.37 C341.24,359.03 342.99,358.46 342.97,358.12 C342.92,356.97 331.51,349.19 323.97,345.16 C319.86,342.96 314.06,340.45 311.07,339.58 C297.27,335.56 287.00,339.43 287.00,348.65 C287.00,352.10 287.48,353.27 289.42,354.54 C291.64,356.00 292.12,355.99 295.06,354.47 C298.98,352.44 302.53,353.65 304.00,357.49 C305.33,360.99 303.74,364.58 299.77,367.00 C291.01,372.34 277.56,366.29 273.96,355.38 C272.50,350.95 273.22,342.41 275.42,338.16 C280.99,327.39 295.17,322.28 310.90,325.36 L 315.30 326.23 L 312.97 322.86 C309.24,317.48 294.07,302.88 287.00,297.87 C262.09,280.23 231.63,274.96 212.15,284.92 C205.97,288.08 199.82,294.08 197.01,299.68 C194.13,305.44 193.26,314.30 194.98,320.42 C198.15,331.74 211.15,339.08 219.96,334.52 C228.08,330.32 229.54,319.89 222.33,317.60 C221.14,317.23 219.88,317.39 219.53,317.96 C218.79,319.15 214.04,319.33 212.40,318.23 C208.01,315.31 208.92,309.24 214.23,306.00 C222.11,301.20 233.44,305.08 238.08,314.16 C242.74,323.30 240.92,333.92 233.31,341.86 C230.95,344.33 229.12,346.44 229.26,346.56 C229.39,346.67 232.91,348.18 237.07,349.90 C256.43,357.92 274.38,370.35 292.05,387.98 C310.97,406.85 325.29,429.48 333.64,453.69 L 336.45 461.84 L 340.19 451.17 C342.25,445.30 345.95,436.42 348.42,431.43 ZM 690.54 453.75 C699.59,426.08 721.35,394.77 744.72,375.76 C758.04,364.93 776.58,353.84 789.54,348.95 L 795.58 346.67 L 790.85 341.94 C784.62,335.71 782.16,328.14 783.91,320.56 C786.29,310.26 793.66,304.00 803.42,304.00 C807.52,304.00 808.68,304.48 811.60,307.40 C815.47,311.27 815.89,314.11 813.00,317.00 C810.73,319.27 808.24,319.52 804.54,317.83 C802.32,316.83 801.65,316.98 799.49,319.01 C792.38,325.69 802.33,337.66 813.27,335.61 C818.51,334.63 824.97,329.31 827.95,323.52 C833.17,313.37 830.12,299.97 820.58,291.18 C812.06,283.33 802.57,280.03 788.50,280.02 C765.94,280.01 742.68,290.74 722.59,310.44 C712.67,320.17 706.52,327.79 709.51,326.63 C713.97,324.90 722.57,323.89 727.38,324.54 C737.61,325.91 744.54,330.42 748.45,338.28 C753.41,348.23 751.25,358.49 742.73,365.34 C735.47,371.19 722.17,369.51 720.42,362.53 C718.75,355.87 723.46,351.59 729.28,354.49 C731.96,355.82 732.61,355.83 734.54,354.56 C739.46,351.34 738.28,344.44 732.10,340.29 C725.03,335.53 711.29,338.33 695.73,347.71 C691.36,350.34 686.17,353.89 684.19,355.59 L 680.60 358.68 L 685.01 359.39 C695.06,360.99 704.14,367.50 708.79,376.44 C713.35,385.21 712.32,396.56 706.21,404.86 C701.26,411.57 688.58,414.95 680.72,411.65 C672.87,408.35 668.00,399.21 670.08,391.67 C672.01,384.68 678.58,381.67 682.48,385.98 C683.88,387.53 684.14,388.94 683.67,392.39 C682.96,397.56 684.37,399.33 689.21,399.33 C693.53,399.33 698.00,394.28 698.00,389.39 C698.00,378.26 686.82,371.01 671.80,372.39 C665.18,373.00 642.34,379.31 640.60,381.02 C640.07,381.54 642.87,385.27 647.36,390.05 C662.19,405.81 676.82,430.49 684.12,452.06 C685.97,457.53 687.56,462.00 687.66,462.00 C687.76,462.00 689.05,458.29 690.54,453.75 ZM 489.50 331.02 C493.35,330.48 498.41,330.03 500.75,330.02 L 505.00 330.00 L 504.99 311.25 L 504.98 292.50 L 501.62 300.19 C496.43,312.08 493.33,316.73 484.94,325.24 C478.46,331.82 477.62,333.03 479.84,332.56 C481.30,332.26 485.65,331.56 489.50,331.02 ZM 542.15 328.45 C533.07,320.28 525.16,308.37 520.93,296.50 L 519.15 291.50 L 519.07 310.75 L 519.00 330.00 L 524.25 330.08 C527.14,330.12 533.10,330.74 537.50,331.46 C541.90,332.17 545.89,332.81 546.36,332.88 C546.83,332.95 544.94,330.95 542.15,328.45 ZM 335.03 327.05 C333.28,323.78 331.00,310.53 331.00,303.62 C331.00,285.29 341.59,270.10 356.52,267.00 C363.75,265.50 368.29,266.88 370.04,271.11 C371.15,273.79 371.05,274.43 369.13,276.81 C365.04,281.90 364.55,283.66 366.41,286.50 C372.16,295.28 384.81,288.85 385.75,276.68 C386.49,266.98 378.22,255.82 368.22,253.05 C349.79,247.93 329.96,259.42 324.02,278.69 C319.35,293.80 322.44,310.63 332.76,326.22 C335.39,330.18 337.02,330.78 335.03,327.05 ZM 696.57 317.27 C706.18,297.86 703.64,275.72 690.29,262.56 C675.19,247.67 650.78,248.57 641.53,264.36 C637.71,270.87 637.24,277.40 640.19,282.89 C644.34,290.62 651.44,292.71 656.75,287.75 C659.68,285.01 659.60,281.94 656.50,278.59 C650.97,272.63 654.57,266.41 663.43,266.62 C674.15,266.88 684.65,274.37 689.54,285.25 C693.29,293.61 694.13,308.20 691.49,319.17 C690.52,323.20 689.31,327.40 688.81,328.50 C686.37,333.83 693.44,323.61 696.57,317.27 ZM 501.02 243.35 C494.31,218.87 482.78,202.49 467.19,195.26 C452.32,188.36 437.50,193.54 437.50,205.64 C437.50,208.96 438.13,210.53 440.44,212.93 C443.28,215.90 443.66,216.00 452.17,216.00 C458.47,216.00 462.81,216.61 467.52,218.15 C480.30,222.35 492.75,233.36 499.68,246.58 C501.20,249.50 502.61,251.72 502.81,251.52 C503.01,251.33 502.20,247.65 501.02,243.35 ZM 524.53 246.54 C534.76,227.30 551.98,216.07 571.32,216.02 C581.17,216.00 583.30,215.25 585.49,211.02 C590.70,200.94 581.20,190.96 567.73,192.37 C547.40,194.50 529.33,215.75 522.69,245.34 C520.95,253.11 521.01,253.15 524.53,246.54 ZM 518.96 214.50 C524.84,201.55 526.56,187.46 523.61,176.39 C522.31,171.47 516.52,159.60 513.47,155.56 C512.01,153.64 511.99,153.64 510.53,155.56 C507.30,159.84 501.97,171.02 500.53,176.55 C497.38,188.66 499.03,200.17 506.37,217.31 C508.77,222.92 511.07,228.40 511.48,229.50 C512.09,231.15 512.53,230.64 514.00,226.50 C514.98,223.75 517.21,218.35 518.96,214.50 ZM 568.20 890.80 C567.54,890.14 567.00,888.43 567.00,887.00 C567.00,885.57 567.54,883.86 568.20,883.20 C568.86,882.54 570.57,882.00 572.00,882.00 C573.43,882.00 575.14,882.54 575.80,883.20 C576.46,883.86 577.00,885.57 577.00,887.00 C577.00,888.43 576.46,890.14 575.80,890.80 C575.14,891.46 573.43,892.00 572.00,892.00 C570.57,892.00 568.86,891.46 568.20,890.80 ZM 443.65 876.17 C442.74,875.17 442.00,873.44 442.00,872.33 C442.00,869.95 444.95,867.00 447.33,867.00 C449.41,867.00 453.00,870.48 453.00,872.50 C453.00,874.59 449.38,878.00 447.15,878.00 C446.14,878.00 444.57,877.18 443.65,876.17 ZM 371.14 864.44 C370.48,860.89 369.45,856.88 368.84,855.54 C367.58,852.79 362.67,850.52 355.71,849.48 C350.87,848.75 349.18,847.00 353.32,847.00 C355.97,847.00 364.80,844.46 366.93,843.09 C367.71,842.58 369.36,838.19 370.58,833.33 C372.24,826.75 372.95,825.14 373.35,827.00 C375.76,838.23 376.56,840.65 378.48,842.57 C380.50,844.59 388.42,847.00 393.05,847.00 C397.44,847.00 394.56,848.74 388.25,849.89 C384.54,850.57 380.51,851.77 379.29,852.56 C376.97,854.06 374.00,862.25 374.00,867.12 C374.00,872.43 372.32,870.86 371.14,864.44 ZM 649.44 863.10 C647.14,853.16 645.53,851.54 636.24,849.81 C632.81,849.17 630.00,848.36 630.00,848.01 C630.00,847.65 633.01,846.77 636.69,846.04 C645.51,844.28 647.33,842.35 649.58,832.40 L 651.37 824.50 L 653.19 832.50 C655.42,842.30 657.32,844.25 666.41,846.06 C670.03,846.78 673.00,847.68 673.00,848.07 C673.00,848.46 670.88,849.09 668.29,849.48 C665.70,849.87 661.88,850.86 659.81,851.69 C655.87,853.27 654.69,855.74 652.22,867.50 L 651.38 871.50 L 649.44 863.10 ZM 273.55 841.87 C273.24,840.57 272.32,836.22 271.50,832.21 C268.81,819.04 267.05,817.47 251.70,814.44 C246.86,813.49 243.26,812.36 243.70,811.95 C244.14,811.53 248.32,810.42 253.00,809.48 C267.56,806.56 268.93,805.11 271.98,789.33 C272.99,784.12 274.02,779.65 274.27,779.40 C274.51,779.15 275.49,782.90 276.44,787.73 C277.39,792.55 279.01,798.43 280.04,800.78 C282.26,805.86 285.29,807.40 297.70,809.79 C302.27,810.67 306.00,811.70 306.00,812.08 C306.00,812.46 302.96,813.34 299.25,814.02 C288.84,815.95 282.19,818.73 280.59,821.83 C279.83,823.30 278.30,828.70 277.19,833.83 C274.97,844.08 274.37,845.41 273.55,841.87 ZM 279.41 809.50 C277.71,807.85 276.11,805.86 275.85,805.08 C275.53,804.09 274.04,805.02 270.88,808.17 L 266.37 812.68 L 269.19 814.29 C270.73,815.18 272.50,817.01 273.12,818.36 L 274.24 820.82 L 278.37 816.66 L 282.50 812.50 L 279.41 809.50 ZM 760.03 840.73 C759.90,837.46 755.54,820.04 754.41,818.27 C752.31,814.99 748.42,813.34 738.18,811.37 C733.13,810.40 729.00,809.31 729.00,808.94 C729.00,808.57 732.93,807.49 737.74,806.54 C747.14,804.67 750.50,803.31 753.26,800.27 C754.72,798.66 757.25,789.83 759.62,778.13 C759.88,776.83 760.28,775.94 760.50,776.16 C760.72,776.38 761.86,781.05 763.03,786.53 C764.21,792.01 765.83,797.53 766.64,798.80 C769.07,802.59 773.75,804.74 783.65,806.60 C788.81,807.58 792.68,808.67 792.26,809.03 C791.84,809.40 787.51,810.46 782.63,811.39 C777.75,812.32 772.42,813.77 770.79,814.61 C767.14,816.50 764.55,822.08 762.95,831.50 C761.93,837.47 760.13,843.18 760.03,840.73 ZM 767.87 810.00 C769.77,810.00 769.13,808.18 766.99,807.50 C765.88,807.14 763.95,805.35 762.70,803.50 L 760.42 800.15 L 758.48 803.03 C757.42,804.61 755.55,806.44 754.32,807.09 C752.12,808.27 752.14,808.32 756.30,812.40 L 760.50 816.51 L 763.62 813.26 C765.33,811.47 767.25,810.00 767.87,810.00 ZM 692.65 821.17 C690.27,818.53 690.62,815.30 693.50,813.41 C695.82,811.89 696.18,811.89 698.50,813.41 C703.06,816.39 701.14,823.00 695.72,823.00 C694.94,823.00 693.57,822.18 692.65,821.17 ZM 342.30 819.92 C339.33,818.82 338.49,815.43 340.44,812.45 C342.58,809.18 346.44,809.22 348.62,812.54 C351.62,817.12 347.56,821.86 342.30,819.92 ZM 205.20 780.80 C204.54,780.14 204.00,778.43 204.00,777.00 C204.00,773.65 205.70,772.00 209.18,772.00 C211.04,772.00 212.50,772.83 213.59,774.50 C215.11,776.82 215.11,777.18 213.59,779.50 C211.81,782.22 207.32,782.92 205.20,780.80 ZM 815.00 780.00 C813.90,778.90 813.00,777.33 813.00,776.50 C813.00,775.67 813.90,774.10 815.00,773.00 C816.10,771.90 817.67,771.00 818.50,771.00 C819.33,771.00 820.90,771.90 822.00,773.00 C823.10,774.10 824.00,775.67 824.00,776.50 C824.00,777.33 823.10,778.90 822.00,780.00 C820.90,781.10 819.33,782.00 818.50,782.00 C817.67,782.00 816.10,781.10 815.00,780.00 ZM 140.65 724.17 C138.25,721.52 138.62,718.30 141.54,716.38 C144.78,714.26 148.65,715.76 149.59,719.51 C150.89,724.68 144.25,728.15 140.65,724.17 ZM 875.38 723.46 C874.06,721.44 873.94,720.42 874.82,718.49 C877.31,713.04 885.00,715.03 885.00,721.12 C885.00,726.17 878.24,727.82 875.38,723.46 ZM 896.65 616.24 C895.67,611.43 894.29,606.72 893.58,605.76 C891.94,603.54 887.08,601.54 879.64,600.01 C872.91,598.63 873.24,597.72 881.00,596.22 C892.87,593.92 894.25,592.46 896.97,579.32 C898.94,569.75 899.06,569.80 901.48,581.18 C903.72,591.76 905.26,593.43 914.76,595.59 C919.02,596.56 922.87,597.67 923.33,598.06 C923.79,598.44 921.76,599.29 918.83,599.94 C904.89,603.04 903.29,604.56 900.95,617.00 C900.28,620.58 899.44,623.83 899.08,624.24 C898.72,624.64 897.62,621.04 896.65,616.24 ZM 901.77 601.08 L 904.69 598.15 L 901.77 595.23 L 898.85 592.31 L 895.99 595.16 L 893.14 598.01 L 895.82 600.89 C897.29,602.47 898.58,603.82 898.67,603.88 C898.77,603.95 900.16,602.68 901.77,601.08 ZM 119.26 611.32 C117.62,601.71 115.93,599.89 106.52,597.58 C98.18,595.53 98.30,594.90 107.27,593.57 C109.89,593.19 113.17,591.89 114.55,590.69 C117.00,588.56 119.96,580.15 119.99,575.25 C120.01,570.53 121.73,573.29 122.93,579.97 C124.66,589.65 126.37,591.50 135.52,593.54 C139.64,594.45 143.00,595.34 143.00,595.50 C143.00,595.66 139.64,596.55 135.52,597.46 C126.37,599.50 124.66,601.35 122.93,611.03 C122.24,614.86 121.39,618.00 121.04,618.00 C120.69,618.00 119.89,614.99 119.26,611.32 ZM 156.60 611.83 C154.54,608.90 154.58,607.69 156.83,605.65 C159.31,603.41 162.30,603.57 164.56,606.07 C166.27,607.96 166.30,608.37 164.94,610.82 C162.93,614.41 158.75,614.91 156.60,611.83 ZM 915.09 555.61 C913.47,553.66 914.07,548.97 916.10,547.70 C918.72,546.06 922.89,547.70 923.63,550.67 C924.00,552.12 923.85,554.03 923.30,554.90 C921.96,557.05 916.66,557.50 915.09,555.61 ZM 88.19 528.33 C85.98,516.68 84.28,515.08 72.25,513.34 C69.91,513.00 68.00,512.43 68.00,512.06 C68.00,511.70 70.73,510.84 74.07,510.15 C85.18,507.85 86.04,506.96 88.15,495.46 C89.41,488.65 90.26,488.66 91.42,495.50 C92.87,504.07 94.01,506.12 98.36,508.02 C100.64,509.02 104.67,510.15 107.33,510.54 C113.17,511.40 112.44,512.28 104.50,513.94 C101.20,514.62 97.51,515.82 96.29,516.59 C93.97,518.06 91.00,526.22 91.00,531.12 C91.00,536.39 89.42,534.82 88.19,528.33 ZM 933.73 534.00 C933.43,533.17 932.69,529.83 932.09,526.57 C930.50,517.95 929.24,516.54 921.31,514.52 C917.56,513.57 913.83,512.56 913.00,512.28 C912.17,511.99 914.59,511.12 918.37,510.33 C929.27,508.05 930.93,506.18 932.66,494.22 C933.00,491.87 933.60,489.75 933.99,489.51 C934.37,489.27 935.27,492.30 935.97,496.24 C937.66,505.68 940.10,508.21 949.27,510.03 C952.97,510.76 956.00,511.68 956.00,512.07 C956.00,512.46 953.88,513.09 951.29,513.48 C943.96,514.58 939.32,516.81 938.09,519.82 C937.50,521.29 936.39,525.42 935.64,529.00 C934.89,532.58 934.03,534.83 933.73,534.00 ZM 136.75 515.92 C134.74,514.75 134.40,510.00 136.20,508.20 C136.86,507.54 138.57,507.00 140.00,507.00 C143.30,507.00 145.00,508.70 145.00,512.00 C145.00,516.51 141.01,518.40 136.75,515.92 ZM 880.57 515.43 C878.71,513.56 878.52,509.88 880.20,508.20 C880.86,507.54 882.57,507.00 884.00,507.00 C885.43,507.00 887.14,507.54 887.80,508.20 C888.46,508.86 889.00,510.57 889.00,512.00 C889.00,513.43 888.46,515.14 887.80,515.80 C886.12,517.48 882.44,517.29 880.57,515.43 ZM 114.58 462.50 C111.97,448.66 109.89,446.61 95.23,443.47 C90.68,442.50 87.16,441.51 87.40,441.27 C87.63,441.03 91.76,439.98 96.58,438.93 C110.14,435.96 111.59,434.44 114.48,420.00 C115.42,415.33 116.52,411.15 116.92,410.73 C117.32,410.30 118.19,413.00 118.86,416.73 C120.52,425.97 122.73,432.44 124.89,434.40 C125.89,435.30 131.12,437.16 136.53,438.53 C141.94,439.90 146.51,441.17 146.69,441.35 C146.87,441.53 144.42,442.23 141.26,442.91 C131.69,444.95 126.40,446.94 124.11,449.39 C122.62,450.97 121.24,454.94 119.79,461.85 C118.61,467.43 117.36,472.00 117.01,472.00 C116.66,472.00 115.56,467.73 114.58,462.50 ZM 120.78 444.98 C124.56,441.21 124.68,440.90 122.85,439.92 C121.77,439.34 120.13,437.66 119.20,436.17 L 117.50 433.47 L 113.38 437.63 C109.26,441.79 109.25,441.80 111.52,443.01 C112.76,443.67 114.36,445.30 115.06,446.61 C115.76,447.92 116.43,449.00 116.55,449.00 C116.67,449.00 118.57,447.19 120.78,444.98 ZM 897.61 442.95 C895.63,433.73 894.74,432.85 885.14,430.61 C881.65,429.80 878.60,428.93 878.35,428.69 C878.11,428.44 880.96,427.67 884.69,426.96 C893.90,425.23 896.33,422.73 898.03,413.24 C898.73,409.30 899.63,406.27 900.02,406.51 C900.41,406.76 901.03,409.18 901.39,411.90 C902.33,418.99 903.90,422.87 906.36,424.21 C907.53,424.85 911.65,426.11 915.50,427.01 L 922.50 428.65 L 915.71 430.23 C904.67,432.81 902.76,434.78 901.41,444.98 C901.04,447.77 900.42,450.24 900.03,450.48 C899.64,450.72 898.55,447.33 897.61,442.95 ZM 154.84 414.54 C153.94,412.57 154.05,411.58 155.38,409.54 C157.57,406.20 161.42,406.18 163.59,409.50 C165.11,411.82 165.11,412.18 163.59,414.50 C161.33,417.95 156.40,417.98 154.84,414.54 ZM 141.45 306.57 C139.75,303.97 140.38,301.59 143.43,299.06 C145.71,297.16 149.90,298.59 151.06,301.66 C153.38,307.75 145.02,312.01 141.45,306.57 ZM 873.44 306.55 C871.54,303.66 872.26,300.46 875.16,298.91 C880.30,296.16 885.67,301.80 882.50,306.63 C880.36,309.90 875.61,309.86 873.44,306.55 ZM 206.75 246.92 C204.45,245.58 204.49,240.77 206.83,238.65 C209.21,236.50 211.29,236.56 213.35,238.83 C217.79,243.74 212.48,250.26 206.75,246.92 ZM 810.65 246.17 C808.28,243.55 808.61,240.30 811.45,238.44 C814.57,236.40 817.81,237.36 819.08,240.72 C821.15,246.17 814.53,250.45 810.65,246.17 ZM 276.55 240.87 C276.24,239.57 275.35,235.34 274.56,231.48 C271.80,217.99 269.98,215.98 258.18,213.47 C253.96,212.57 249.38,211.48 248.00,211.04 C245.03,210.08 245.44,209.91 256.50,207.49 C270.42,204.46 271.62,203.22 274.49,189.00 C276.96,176.79 277.52,176.40 279.47,185.57 C283.23,203.22 283.76,203.83 298.36,207.44 C303.78,208.78 308.39,210.05 308.60,210.27 C308.81,210.48 304.15,211.84 298.24,213.29 C284.27,216.73 283.15,217.89 280.14,232.02 C278.93,237.73 277.74,242.59 277.51,242.82 C277.28,243.05 276.85,242.17 276.55,240.87 ZM 283.33 212.31 L 285.89 210.30 L 282.89 208.08 C281.24,206.86 279.40,204.77 278.79,203.43 L 277.68 201.00 L 275.82 204.06 C274.80,205.74 272.66,207.86 271.07,208.77 L 268.18 210.43 L 271.15 212.24 C272.78,213.23 274.86,215.34 275.77,216.93 L 277.43 219.82 L 279.10 217.07 C280.02,215.56 281.93,213.42 283.33,212.31 ZM 749.18 238.35 C748.66,236.23 747.50,231.35 746.61,227.50 C745.71,223.65 744.18,219.41 743.19,218.08 C741.18,215.36 734.80,212.93 724.75,211.04 C721.04,210.34 718.00,209.48 718.00,209.13 C718.00,208.77 721.71,207.66 726.25,206.65 C730.79,205.64 736.43,203.98 738.78,202.95 C743.84,200.74 745.01,198.45 747.96,184.95 C749.07,179.86 750.17,175.50 750.39,175.27 C750.62,175.05 751.80,179.28 753.02,184.68 C756.21,198.85 757.17,200.75 762.22,202.96 C764.57,203.99 770.21,205.62 774.75,206.59 C779.29,207.55 783.00,208.60 783.00,208.92 C783.00,209.24 777.94,210.72 771.75,212.21 C757.72,215.58 757.09,216.22 753.65,230.56 C752.23,236.44 750.87,241.47 750.61,241.73 C750.34,241.99 749.70,240.47 749.18,238.35 ZM 758.76 210.00 C759.75,210.00 758.79,208.66 756.24,206.47 C753.97,204.53 751.81,201.97 751.43,200.78 C750.79,198.77 750.61,198.87 748.92,202.16 C747.92,204.10 745.70,206.38 743.97,207.22 L 740.84 208.74 L 744.25 210.84 C746.12,212.00 748.20,214.15 748.87,215.61 L 750.08 218.27 L 753.62 214.13 C755.56,211.86 757.88,210.00 758.76,210.00 ZM 337.24 216.33 C333.52,214.84 334.02,207.75 337.91,206.73 C342.96,205.41 346.88,211.27 343.46,215.04 C341.73,216.95 339.78,217.36 337.24,216.33 ZM 677.44 214.55 C674.44,209.97 678.68,204.62 683.54,206.84 C686.68,208.27 687.53,211.54 685.56,214.55 C683.44,217.78 679.56,217.78 677.44,214.55 ZM 371.15 190.51 C370.49,186.92 369.45,182.88 368.84,181.54 C367.64,178.91 362.44,176.41 355.99,175.38 C350.31,174.47 350.21,173.34 355.76,172.52 C366.52,170.91 369.05,168.45 371.01,157.71 C371.69,153.97 372.44,151.11 372.69,151.36 C372.93,151.60 373.77,154.83 374.54,158.54 C376.64,168.54 377.61,169.57 386.90,171.66 C394.35,173.34 396.71,175.00 391.62,175.00 C387.04,175.00 378.99,178.08 377.46,180.42 C376.61,181.71 375.42,185.63 374.80,189.13 C374.18,192.64 373.38,195.85 373.01,196.27 C372.65,196.70 371.81,194.10 371.15,190.51 ZM 650.59 194.50 C650.20,192.85 649.43,189.48 648.88,187.00 C648.32,184.52 647.23,181.51 646.44,180.29 C645.00,178.07 636.81,175.00 632.32,175.00 C627.60,175.00 630.21,173.19 636.70,171.96 C645.10,170.38 647.40,168.21 648.99,160.40 C651.06,150.20 651.46,150.05 653.32,158.73 C654.39,163.72 655.78,167.39 657.00,168.50 C658.09,169.48 662.24,171.07 666.24,172.03 C673.85,173.87 673.79,174.11 665.17,176.04 C657.37,177.79 655.35,180.06 653.15,189.50 C651.51,196.57 651.21,197.15 650.59,194.50 ZM 591.57 157.43 C588.44,154.30 590.49,149.00 594.84,149.00 C598.34,149.00 600.00,150.66 600.00,154.16 C600.00,158.51 594.70,160.56 591.57,157.43 ZM 450.54 136.04 C446.86,131.98 451.56,125.57 456.54,127.84 C459.68,129.27 460.53,132.54 458.56,135.55 C456.61,138.53 452.99,138.75 450.54,136.04 ZM 566.76 136.75 C563.42,134.18 564.64,128.38 568.74,127.35 C570.72,126.85 571.77,127.23 573.17,128.96 C575.49,131.83 575.49,134.24 573.17,136.35 C570.99,138.32 568.96,138.45 566.76,136.75 ZM 506.67 668.28 C506.29,667.66 509.87,666.84 516.08,666.14 C558.49,661.31 593.87,643.62 620.83,613.73 C635.74,597.21 645.83,580.19 652.97,559.48 C658.81,542.53 661.01,530.92 661.69,513.50 C662.88,482.65 656.41,454.86 641.82,428.29 C639.62,424.28 638.30,421.00 638.88,421.00 C640.61,421.00 649.53,434.43 654.38,444.33 C660.11,456.02 664.40,468.40 667.19,481.31 C669.08,490.00 669.40,494.59 669.40,512.50 C669.40,536.20 668.02,545.12 661.43,564.06 C653.31,587.39 642.17,604.97 624.07,623.04 C601.16,645.90 575.66,659.72 544.60,666.10 C533.28,668.43 507.67,669.90 506.67,668.28 ZM 378.18 594.62 C347.64,548.44 345.98,485.15 373.98,434.63 C381.31,421.41 387.85,413.00 400.93,399.98 C422.98,378.01 449.57,363.85 479.74,358.00 C491.95,355.64 514.40,354.22 515.35,355.76 C515.76,356.42 513.70,357.06 509.75,357.50 C481.05,360.67 453.84,370.57 430.50,386.33 C418.67,394.31 397.41,415.59 389.69,427.18 C367.66,460.24 358.44,498.96 363.49,537.20 C366.11,557.04 371.31,573.69 380.64,592.08 C383.59,597.90 386.00,602.97 386.00,603.33 C386.00,605.51 383.67,602.91 378.18,594.62 Z" fill="rgba(0,0,0,1)"/>
</g>
</svg>