<svg xmlns="http://www.w3.org/2000/svg" width="1024" height="1024" viewBox="0 0 1024 1024">
<g>
<path d="M 281.54 913.07 C281.23,912.56 280.29,907.30 279.46,901.38 C278.63,895.46 277.79,890.46 277.60,890.27 C277.41,890.08 274.61,892.18 271.38,894.95 C265.88,899.65 263.00,901.11 263.00,899.18 C263.00,898.73 265.23,895.48 267.96,891.95 C271.30,887.63 272.53,885.33 271.71,884.91 C271.05,884.56 266.23,883.72 261.00,883.03 C244.96,880.92 245.47,879.13 262.75,876.96 C268.39,876.26 273.00,875.48 273.00,875.23 C273.00,874.98 270.75,871.96 268.00,868.50 C260.13,858.61 261.31,857.26 271.02,865.02 C274.47,867.78 277.48,869.85 277.71,869.63 C277.93,869.40 278.74,864.43 279.51,858.59 C281.70,841.91 283.17,841.90 285.61,858.55 C286.49,864.57 287.37,869.67 287.56,869.87 C287.76,870.08 290.67,867.94 294.04,865.12 C297.42,862.31 300.59,860.00 301.09,860.00 C303.10,860.00 301.75,862.83 297.03,868.52 C294.29,871.81 292.04,874.75 292.03,875.07 C292.01,875.38 296.53,876.16 302.06,876.81 C312.69,878.06 317.45,879.62 314.91,881.02 C313.10,882.01 300.20,884.00 295.56,884.00 C293.60,884.00 292.00,884.28 292.00,884.62 C292.00,884.96 294.25,888.10 297.00,891.59 C304.78,901.49 303.27,903.15 293.91,895.00 C290.74,892.25 287.95,890.00 287.69,890.00 C287.44,890.00 286.94,892.14 286.58,894.75 C284.08,913.13 283.31,915.93 281.54,913.07 ZM 509.57 908.12 C508.76,906.81 508.62,815.42 509.43,814.12 C510.53,812.34 513.84,812.82 514.96,814.93 C516.53,817.87 516.38,906.22 514.80,907.80 C513.40,909.20 510.36,909.39 509.57,908.12 ZM 650.65 906.17 C645.97,900.99 653.49,893.64 658.43,898.57 C660.29,900.43 660.50,905.10 658.80,906.80 C657.01,908.59 652.53,908.25 650.65,906.17 ZM 384.20 904.80 C382.41,903.01 382.75,898.53 384.83,896.65 C388.57,893.27 394.00,895.92 394.00,901.13 C394.00,904.44 392.24,906.00 388.50,906.00 C386.80,906.00 384.86,905.46 384.20,904.80 ZM 764.61 905.18 C763.78,903.83 762.02,891.81 762.01,887.42 C762.00,885.17 761.72,883.06 761.39,882.72 C761.05,882.38 757.18,885.01 752.79,888.55 C740.04,898.84 738.35,896.95 748.63,883.91 L 755.27 875.50 L 743.88 874.18 C728.07,872.35 726.37,869.86 739.97,868.43 C743.56,868.05 748.44,867.46 750.82,867.12 L 755.14 866.50 L 748.57 858.16 C742.25,850.14 741.04,847.71 742.84,846.60 C743.30,846.32 747.46,849.18 752.09,852.96 C757.41,857.31 760.73,859.40 761.12,858.67 C761.45,858.02 762.22,853.04 762.82,847.59 C763.82,838.53 765.06,834.73 766.54,836.20 C767.06,836.73 767.74,840.65 769.75,854.82 L 770.50 860.15 L 776.58 855.26 C787.45,846.53 788.93,845.64 789.61,847.42 C789.99,848.42 787.71,852.10 783.20,857.74 L 776.19 866.50 L 784.96 867.61 C797.20,869.17 801.00,869.96 801.00,870.94 C801.00,872.28 798.85,872.80 787.82,874.12 C782.15,874.80 777.31,875.50 777.08,875.68 C776.85,875.86 778.01,877.69 779.66,879.75 C786.18,887.90 790.00,893.20 790.00,894.08 C790.00,896.42 785.84,894.41 778.52,888.53 C774.14,885.00 770.47,882.20 770.37,882.31 C770.27,882.41 769.67,887.00 769.04,892.50 C768.40,898.00 767.66,903.29 767.38,904.25 C766.84,906.10 765.46,906.56 764.61,905.18 ZM 449.14 883.67 C448.32,882.68 449.67,874.11 454.49,849.92 C458.03,832.09 461.19,816.46 461.50,815.19 C462.28,812.00 467.35,812.43 467.82,815.72 C468.22,818.60 456.01,882.11 454.73,883.75 C453.45,885.39 450.53,885.35 449.14,883.67 ZM 569.00 882.75 C567.55,879.31 556.83,823.11 556.65,818.00 C556.50,813.64 556.59,813.50 559.47,813.50 L 562.44 813.50 L 569.22 847.89 C576.27,883.64 576.37,885.00 571.86,885.00 C570.81,885.00 569.53,883.99 569.00,882.75 ZM 420.07 861.58 C419.13,860.46 420.15,856.08 424.89,840.83 C433.61,812.76 433.29,813.55 436.22,813.20 C437.88,813.00 438.97,813.48 439.41,814.61 C440.00,816.17 428.17,856.92 425.86,861.25 C424.74,863.36 421.69,863.53 420.07,861.58 ZM 598.66 862.25 C597.05,859.62 584.16,815.75 584.63,814.52 C585.43,812.44 589.72,812.60 590.86,814.75 C591.38,815.71 594.81,826.30 598.49,838.28 C603.89,855.85 604.95,860.35 603.97,861.53 C602.69,863.08 599.44,863.52 598.66,862.25 ZM 483.32 860.39 C482.45,858.12 486.06,815.76 487.26,814.25 C488.69,812.44 491.79,812.72 492.81,814.75 C493.91,816.92 490.20,858.96 488.76,860.75 C487.34,862.52 484.05,862.30 483.32,860.39 ZM 535.09 859.75 C533.91,856.63 530.56,816.59 531.32,814.61 C532.05,812.70 535.34,812.48 536.76,814.25 C538.19,816.02 541.88,858.07 540.80,860.25 C539.56,862.74 536.12,862.44 535.09,859.75 ZM 208.00 856.00 C206.90,854.90 206.00,853.30 206.00,852.45 C206.00,850.47 210.45,846.00 212.42,846.00 C214.44,846.00 218.00,849.94 218.00,852.19 C218.00,854.60 214.49,858.00 212.00,858.00 C210.90,858.00 209.10,857.10 208.00,856.00 ZM 354.17 853.25 C352.97,850.91 353.05,850.73 362.78,833.50 C373.66,814.25 374.69,812.81 377.36,813.19 C381.20,813.74 380.47,817.52 374.57,827.59 C371.51,832.83 369.00,837.28 369.00,837.47 C369.00,838.43 359.62,853.59 358.63,854.23 C356.75,855.46 355.12,855.10 354.17,853.25 ZM 663.42 851.25 C657.29,842.26 643.93,817.46 644.21,815.56 C644.40,814.19 645.36,813.40 647.06,813.20 C649.41,812.93 650.44,814.35 659.77,830.70 C671.51,851.28 671.63,851.54 669.99,853.51 C668.01,855.90 666.16,855.26 663.42,851.25 ZM 828.65 853.17 C825.33,849.50 827.93,843.00 832.72,843.00 C834.82,843.00 838.00,846.83 838.00,849.35 C838.00,854.22 831.87,856.73 828.65,853.17 ZM 319.71 845.38 C317.91,843.58 319.70,840.14 329.11,827.30 C337.68,815.61 339.63,813.50 341.86,813.50 C343.95,813.50 344.55,814.02 344.72,816.00 C344.88,817.81 342.14,822.20 334.72,832.00 C325.16,844.63 321.88,847.55 319.71,845.38 ZM 689.43 831.82 C678.91,817.64 677.30,813.94 681.30,813.18 C683.87,812.69 685.36,814.19 694.47,826.50 C706.33,842.52 706.05,842.04 704.92,844.15 C702.70,848.30 700.17,846.29 689.43,831.82 ZM 396.03 839.53 C394.93,838.22 395.48,836.19 399.49,826.73 C405.02,813.70 405.61,812.80 408.41,813.20 C411.87,813.70 411.32,817.73 406.20,829.50 C401.23,840.91 399.00,843.11 396.03,839.53 ZM 621.72 837.75 C616.67,826.87 612.87,816.90 613.17,815.32 C613.38,814.23 614.55,813.38 616.10,813.20 C618.43,812.93 619.01,813.64 622.20,820.70 C629.80,837.52 630.39,841.00 625.65,841.00 C623.89,841.00 622.81,840.10 621.72,837.75 ZM 151.75 799.92 C150.66,799.28 150.00,797.70 150.00,795.70 C150.01,792.46 156.18,781.72 243.48,633.00 C277.10,575.74 316.13,509.02 324.80,494.00 C327.82,488.77 332.20,481.35 334.52,477.50 C336.85,473.65 345.27,459.25 353.23,445.50 C378.50,401.87 499.31,194.79 504.91,185.50 C507.92,180.53 509.05,179.45 511.57,179.20 C513.53,179.01 515.15,179.54 516.16,180.70 C517.02,181.69 535.94,213.77 558.21,252.00 C580.47,290.23 610.76,342.20 625.51,367.50 C640.27,392.80 658.48,424.08 666.00,437.00 C673.51,449.92 688.21,475.12 698.66,493.00 C709.11,510.88 721.84,532.70 726.96,541.50 C737.77,560.09 772.18,618.76 788.83,647.00 C795.16,657.72 807.84,679.33 817.01,695.00 C826.17,710.67 842.97,739.34 854.34,758.70 C865.70,778.06 875.00,794.49 875.00,795.22 C875.00,795.96 874.30,797.56 873.44,798.78 L 871.89 801.00 L 512.69 800.97 C270.57,800.95 152.93,800.61 151.75,799.92 ZM 223.55 785.88 C222.11,784.17 220.42,780.85 219.79,778.51 L 218.66 774.27 L 212.49 777.15 C201.67,782.21 181.74,784.80 179.00,781.50 C178.01,780.30 178.02,779.35 179.07,776.75 C182.23,768.95 188.93,759.36 195.58,753.13 L 202.66 746.50 L 200.83 743.50 C199.83,741.85 199.01,739.46 199.01,738.19 C199.00,736.92 198.58,736.14 198.07,736.46 C197.56,736.77 191.87,746.13 185.42,757.26 C178.97,768.39 172.19,779.87 170.35,782.77 C168.51,785.67 167.00,788.26 167.00,788.52 C167.00,788.78 180.32,789.00 196.59,789.00 L 226.18 789.00 L 223.55 785.88 ZM 254.83 787.25 C245.67,776.45 243.56,758.89 249.44,742.50 C250.85,738.57 243.92,747.49 241.35,752.92 C236.40,763.36 237.29,773.30 243.64,778.29 C246.72,780.72 246.63,783.51 243.35,786.55 L 240.71 789.00 L 248.51 789.00 C255.84,789.00 256.22,788.89 254.83,787.25 ZM 279.58 787.69 C274.63,784.62 269.82,779.32 267.28,774.16 C264.90,769.32 264.50,767.27 264.50,760.00 C264.50,752.90 264.87,750.90 266.77,747.85 C269.89,742.83 273.63,740.59 278.98,740.54 C282.98,740.50 283.56,740.20 284.46,737.65 C285.34,735.13 285.13,734.51 282.67,732.40 C274.08,725.00 259.68,735.39 255.41,752.06 C252.44,763.65 255.75,776.45 263.95,785.07 C267.61,788.92 267.83,789.00 274.60,788.94 C280.36,788.89 281.18,788.69 279.58,787.69 ZM 339.06 783.96 C336.87,781.19 334.09,776.22 332.89,772.92 L 330.70 766.92 L 328.29 771.21 C325.17,776.73 319.67,782.50 314.05,786.13 L 309.61 789.00 L 326.33 789.00 L 343.05 789.00 L 339.06 783.96 ZM 366.48 786.34 C358.83,781.21 352.95,775.75 345.35,766.70 C337.94,757.87 337.72,757.69 338.40,761.34 C339.87,769.17 343.43,776.49 347.97,781.02 C353.88,786.91 358.22,788.95 364.98,788.98 L 370.46 789.00 L 366.48 786.34 ZM 400.02 785.52 C396.53,781.92 387.14,777.50 376.50,774.46 C373.20,773.52 368.78,771.88 366.69,770.82 C363.52,769.22 362.93,768.45 363.19,766.24 C363.47,763.85 364.08,763.48 369.50,762.49 C376.42,761.22 379.53,759.74 380.98,757.04 C382.50,754.20 382.29,754.00 378.91,755.18 C370.29,758.19 357.82,753.42 339.51,740.12 C333.47,735.73 328.34,732.33 328.12,732.55 C327.90,732.77 330.61,736.23 334.15,740.23 C337.69,744.23 343.50,751.09 347.05,755.48 C350.60,759.87 355.99,766.00 359.02,769.11 C370.33,780.66 386.47,788.46 399.95,788.89 L 403.39 789.00 L 400.02 785.52 ZM 613.78 784.51 C615.52,782.04 618.74,778.78 620.93,777.26 C623.13,775.74 624.94,774.17 624.96,773.77 C624.98,773.36 574.15,773.02 512.00,773.01 C442.06,772.99 399.00,773.34 399.00,773.92 C399.00,774.44 399.88,775.14 400.95,775.48 C403.04,776.15 413.00,786.56 413.00,788.08 C413.00,788.63 452.38,789.00 511.81,789.00 L 610.61 789.00 L 613.78 784.51 ZM 633.54 787.47 C648.80,783.55 660.87,775.18 673.62,759.69 C677.78,754.64 684.77,746.34 689.15,741.25 C693.53,736.16 696.88,732.00 696.59,732.00 C696.30,732.00 691.05,735.65 684.91,740.11 C666.99,753.13 653.67,758.17 645.09,755.18 C641.71,754.00 641.50,754.20 643.02,757.04 C644.47,759.74 647.58,761.22 654.50,762.49 C659.92,763.48 660.53,763.85 660.81,766.24 C661.19,769.43 658.11,771.22 645.00,775.49 C635.00,778.73 626.08,783.22 622.91,786.59 L 620.65 789.00 L 624.12 789.00 C626.02,789.00 630.26,788.31 633.54,787.47 ZM 668.62 786.94 C676.46,783.14 683.83,772.50 685.55,762.50 C686.36,757.78 686.49,757.68 677.00,768.83 C673.58,772.86 667.33,778.88 663.13,782.20 C658.94,785.52 655.31,788.41 655.08,788.62 C654.85,788.83 656.85,789.00 659.52,789.00 C662.37,789.00 666.12,788.15 668.62,786.94 ZM 709.95 786.17 C704.47,782.68 698.79,776.48 695.91,770.83 L 693.74 766.57 L 691.29 773.20 C689.94,776.85 687.30,781.63 685.42,783.83 C683.54,786.02 682.00,788.08 682.00,788.41 C682.00,788.73 689.29,789.00 698.20,789.00 L 714.39 789.00 L 709.95 786.17 ZM 760.30 784.81 C762.49,782.50 765.45,778.11 766.88,775.06 C770.43,767.44 770.58,754.01 767.20,746.58 C760.95,732.84 749.16,726.15 741.63,732.07 C736.72,735.94 738.64,740.18 745.43,740.47 C751.12,740.70 754.60,743.13 757.80,749.08 C759.85,752.90 760.11,754.52 759.74,761.00 C759.16,771.33 756.20,777.77 749.16,784.05 L 743.60 789.00 L 749.96 789.00 C756.12,789.00 756.43,788.87 760.30,784.81 ZM 780.59 786.09 C777.50,782.87 777.68,779.78 781.06,777.97 C788.96,773.74 786.78,754.91 777.13,744.00 L 774.03 740.50 L 775.60 745.00 C779.74,756.86 778.12,773.69 771.90,783.50 C770.30,786.01 769.00,788.28 769.00,788.53 C769.00,788.79 772.23,789.00 776.19,789.00 L 783.37 789.00 L 780.59 786.09 ZM 856.70 788.25 C854.23,783.85 826.65,736.40 826.39,736.11 C826.20,735.89 825.79,736.57 825.48,737.61 C825.17,738.65 824.08,741.16 823.07,743.19 L 821.23 746.89 L 825.01 749.51 C829.89,752.89 835.58,759.70 840.87,768.50 C848.69,781.50 847.84,783.55 835.02,782.71 C826.31,782.13 812.12,778.31 808.48,775.56 C805.61,773.39 805.32,773.58 804.62,777.97 C804.25,780.32 802.71,783.40 800.89,785.47 L 797.79 789.00 L 827.46 789.00 C843.77,789.00 856.93,788.66 856.70,788.25 ZM 232.97 778.95 C231.77,777.28 230.56,774.14 230.27,771.97 C229.59,766.90 228.00,767.85 228.00,773.34 C228.00,778.22 230.24,782.00 233.12,782.00 C235.11,782.00 235.10,781.95 232.97,778.95 ZM 307.73 779.43 C312.79,777.38 319.61,769.68 321.55,763.86 C324.01,756.45 323.18,745.69 319.68,739.72 C316.09,733.60 307.97,726.52 302.32,724.59 C298.10,723.16 287.00,722.33 287.00,723.45 C287.00,723.70 288.09,725.00 289.42,726.33 C297.79,734.69 292.36,749.00 280.81,749.00 C276.55,749.00 275.89,749.31 274.53,751.95 C273.69,753.57 273.01,756.84 273.02,759.20 L 273.04 763.50 L 274.95 759.31 C276.29,756.34 278.03,754.52 280.89,753.06 C285.99,750.46 288.40,750.47 292.69,753.12 L 296.12 755.24 L 298.54 752.96 C301.92,749.79 302.69,744.62 300.65,738.89 C298.65,733.26 298.64,733.00 300.35,733.00 C302.95,733.00 309.89,738.96 312.53,743.46 C316.06,749.48 316.94,758.25 314.50,763.06 C312.60,766.82 310.08,770.00 309.01,770.00 C308.64,770.00 308.52,766.29 308.76,761.75 L 309.19 753.50 L 306.13 757.12 C300.61,763.65 293.44,765.70 289.40,761.91 C286.54,759.22 283.51,760.10 282.15,764.01 C280.21,769.55 283.81,776.76 289.77,779.31 C296.44,782.16 300.95,782.19 307.73,779.43 ZM 735.88 778.71 C737.93,777.48 740.00,774.99 741.16,772.38 C744.89,763.94 739.79,756.16 734.41,762.10 C730.73,766.16 722.11,763.15 717.33,756.14 L 715.17 752.95 L 714.59 755.73 C714.28,757.25 714.62,761.33 715.35,764.78 C716.90,772.13 715.98,772.44 711.50,766.08 C708.95,762.46 708.50,760.90 708.50,755.64 C708.50,745.47 715.23,735.41 723.34,733.43 L 726.19 732.74 L 724.62 735.76 C722.11,740.63 721.58,746.29 723.33,749.67 C726.02,754.87 727.28,755.35 731.91,752.93 C738.81,749.34 745.85,752.03 749.98,759.84 C752.19,764.03 752.68,762.00 750.96,755.78 C749.58,750.81 747.55,749.00 743.38,749.00 C735.81,749.00 731.00,743.87 731.00,735.80 C731.01,731.49 734.00,725.00 735.99,725.00 C736.54,725.00 737.00,724.55 737.00,724.00 C737.00,723.45 734.42,723.00 731.25,723.00 C720.58,723.00 709.35,730.38 703.84,741.00 C701.92,744.69 701.50,747.02 701.52,754.00 C701.54,763.59 702.83,766.98 708.86,773.33 C716.81,781.70 727.40,783.81 735.88,778.71 ZM 795.16 778.00 C796.16,775.88 796.61,773.22 796.30,771.25 C795.61,766.99 794.00,767.06 794.00,771.36 C794.00,773.30 792.94,776.29 791.48,778.43 L 788.96 782.14 L 791.23 781.82 C792.67,781.62 794.10,780.23 795.16,778.00 ZM 833.31 771.94 C829.51,765.50 823.06,758.23 818.43,755.16 C812.73,751.39 794.00,745.63 794.00,747.65 C794.00,749.04 803.17,760.94 806.47,763.84 C811.43,768.19 819.14,771.93 826.40,773.51 C835.37,775.46 835.38,775.46 833.31,771.94 ZM 206.05 771.02 C209.11,769.84 213.79,767.00 216.46,764.72 C221.18,760.69 230.00,749.71 230.00,747.87 C230.00,747.37 228.76,747.22 227.25,747.54 C209.94,751.16 201.33,756.40 193.15,768.28 C191.42,770.80 190.00,773.18 190.00,773.57 C190.00,774.86 200.39,773.20 206.05,771.02 ZM 634.42 759.25 C633.98,758.29 633.47,755.03 633.28,752.00 C632.70,742.43 636.72,738.44 641.92,743.43 C645.67,747.02 650.40,748.23 655.44,746.90 C660.78,745.50 670.80,739.92 679.54,733.48 C699.00,719.15 714.55,712.11 727.00,712.00 L 730.50 711.96 L 725.00 708.94 C718.52,705.37 711.61,698.89 709.91,694.79 C708.87,692.28 708.98,691.50 710.66,689.19 C713.62,685.13 720.69,681.84 725.68,682.20 L 729.87 682.50 L 729.45 674.50 C729.22,670.10 728.83,662.40 728.59,657.40 C728.35,652.39 727.50,646.73 726.70,644.83 C725.37,641.64 724.06,640.32 717.04,635.07 C712.78,631.89 715.21,628.98 726.82,623.34 C727.39,623.07 724.04,617.05 710.19,593.50 C702.75,580.85 692.76,563.75 687.99,555.50 C668.14,521.19 660.33,507.77 652.48,494.50 C647.94,486.80 630.61,457.10 613.98,428.50 C597.36,399.90 583.59,376.32 583.38,376.09 C583.18,375.86 582.22,376.37 581.26,377.22 C576.39,381.48 568.06,383.45 566.31,380.75 C565.86,380.06 565.47,377.13 565.43,374.24 C565.33,366.89 561.96,362.52 548.50,352.29 C542.45,347.70 535.24,341.70 532.47,338.97 C529.70,336.24 527.23,334.00 526.97,334.00 C526.71,334.01 526.37,336.31 526.21,339.11 C525.72,347.70 517.23,361.00 512.22,361.00 C509.32,361.00 501.50,351.90 499.59,346.32 C498.72,343.75 498.00,339.60 498.00,337.10 L 498.00 332.55 L 491.25 339.14 C487.54,342.77 480.08,349.01 474.67,353.01 C462.54,361.98 459.68,365.98 459.00,374.92 C458.52,381.29 458.41,381.51 455.63,381.83 C451.65,382.28 448.98,381.47 444.56,378.48 C442.47,377.06 440.67,376.04 440.55,376.20 C440.43,376.37 437.64,381.23 434.34,387.00 C431.05,392.77 419.54,412.58 408.77,431.00 C398.01,449.42 374.26,490.15 355.99,521.50 C337.73,552.85 316.94,588.54 309.78,600.80 C302.63,613.07 296.94,623.20 297.14,623.32 C297.34,623.44 299.65,624.54 302.27,625.77 C305.14,627.10 307.52,629.04 308.23,630.61 C309.52,633.43 309.61,633.31 302.43,638.38 C298.26,641.33 296.06,647.59 295.48,658.15 C295.19,663.29 294.77,670.88 294.53,675.00 L 294.11 682.50 L 299.98 682.50 C304.36,682.50 306.56,683.03 308.62,684.56 C313.14,687.94 315.34,691.52 314.63,694.33 C313.72,697.95 306.23,705.04 299.40,708.75 L 293.50 711.95 L 297.09 711.97 C302.84,712.02 315.20,715.57 322.64,719.32 C326.41,721.23 335.12,726.75 342.00,731.60 C358.62,743.31 365.97,746.99 372.72,747.00 C377.09,747.00 378.48,746.51 381.35,744.00 C385.42,740.42 387.35,740.24 389.44,743.22 C391.24,745.79 391.58,756.05 389.96,759.07 C388.94,760.97 390.63,761.00 512.07,761.00 C628.99,761.00 635.17,760.91 634.42,759.25 ZM 215.95 741.25 C215.89,740.26 207.00,735.86 207.00,736.82 C207.00,739.10 210.39,742.00 213.06,742.00 C214.68,742.00 215.98,741.66 215.95,741.25 ZM 815.17 740.35 C818.79,737.07 817.17,736.05 812.50,738.66 C810.03,740.04 808.00,741.36 808.00,741.59 C808.00,742.75 813.59,741.78 815.17,740.35 ZM 238.75 731.28 C241.64,730.38 244.00,729.38 243.99,729.07 C243.99,728.76 241.59,728.43 238.66,728.35 C228.62,728.07 219.71,722.46 215.29,713.65 L 213.35 709.80 L 209.68 715.96 L 206.01 722.13 L 210.25 726.60 C217.41,734.15 225.44,735.47 238.75,731.28 ZM 804.22 732.95 C806.27,732.39 810.28,729.78 813.13,727.16 L 818.31 722.39 L 815.48 717.44 C811.01,709.63 810.83,709.49 809.43,712.84 C807.46,717.50 801.36,723.61 796.27,726.01 C793.21,727.44 789.43,728.25 785.36,728.35 C779.72,728.49 779.36,728.62 781.53,729.76 C784.81,731.49 793.87,733.86 797.50,733.93 C799.15,733.96 802.18,733.52 804.22,732.95 ZM 257.28 715.21 C278.74,704.55 286.35,685.25 274.32,671.94 C267.72,664.63 258.56,664.20 251.88,670.88 C247.26,675.50 246.12,680.34 248.48,685.31 C253.01,694.87 264.12,690.98 262.54,680.39 C261.89,676.06 261.92,676.00 264.78,676.00 C269.40,676.00 271.38,679.09 271.83,686.96 C272.15,692.75 271.80,694.70 269.47,699.89 C266.32,706.91 260.16,713.13 254.52,714.99 C248.42,717.01 238.74,715.80 234.39,712.48 C230.72,709.68 228.00,704.77 228.00,700.93 C228.00,694.33 234.26,688.83 237.78,692.35 C239.26,693.83 239.25,694.26 237.63,697.65 C235.93,701.21 235.94,701.44 237.78,703.92 C241.96,709.56 251.76,708.94 257.84,702.66 L 261.13 699.27 L 255.69 699.35 C251.19,699.42 249.61,698.94 246.54,696.60 C239.59,691.30 236.71,683.13 238.83,674.76 C239.42,672.45 239.76,670.43 239.60,670.27 C237.42,668.08 222.10,692.60 221.26,699.63 C220.66,704.70 222.32,710.04 225.79,714.16 C229.73,718.84 233.39,720.10 241.78,719.67 C247.85,719.36 250.43,718.62 257.28,715.21 ZM 792.30 718.65 C799.53,715.63 803.87,707.50 802.74,699.08 C801.81,692.15 786.53,668.14 784.40,670.27 C784.18,670.49 784.50,672.14 785.13,673.93 C786.82,678.79 785.59,687.51 782.57,692.08 C779.21,697.15 774.93,699.27 768.19,699.21 L 762.78 699.16 L 765.64 702.17 C769.44,706.16 773.14,708.00 777.40,708.00 C785.38,708.00 789.57,702.93 786.49,696.98 C785.00,694.10 784.98,693.59 786.33,692.25 C790.21,688.37 796.00,694.16 796.00,701.92 C796.00,706.64 791.58,712.44 786.30,714.65 C781.70,716.57 772.29,716.31 767.49,714.14 C759.09,710.32 752.89,700.28 752.29,689.50 C751.86,681.70 753.07,678.27 756.96,676.33 C760.31,674.66 763.44,676.30 762.01,678.98 C760.29,682.20 760.88,685.04 763.92,688.08 C767.48,691.63 770.31,691.78 773.50,688.59 C778.32,683.77 777.66,675.81 771.96,670.11 C761.99,660.14 744.04,670.39 744.01,686.07 C743.98,698.83 757.52,713.29 774.45,718.60 C779.86,720.29 788.31,720.32 792.30,718.65 ZM 292.32 702.68 C296.27,700.85 301.02,697.84 302.87,695.98 C305.92,692.92 306.06,692.54 304.37,691.87 C301.08,690.58 295.52,690.95 293.13,692.62 C291.09,694.05 284.00,704.01 284.00,705.45 C284.00,706.40 284.95,706.08 292.32,702.68 ZM 737.58 700.83 C732.71,692.72 730.46,690.99 724.82,691.02 C714.96,691.06 718.95,697.08 732.73,702.96 C736.45,704.54 739.65,705.69 739.83,705.50 C740.02,705.31 739.01,703.21 737.58,700.83 ZM 289.87 641.51 C291.10,638.77 293.05,635.51 294.22,634.26 L 296.35 632.00 L 293.92 632.00 C292.59,632.01 290.03,632.91 288.23,634.00 C284.39,636.34 281.70,636.55 280.10,634.62 C279.24,633.58 279.35,630.96 280.57,623.91 C282.23,614.27 281.93,607.04 279.64,601.57 L 278.41 598.63 L 276.02 604.07 C270.86,615.80 272.22,629.12 280.82,650.86 L 286.50 665.21 L 287.07 655.86 C287.47,649.34 288.32,644.99 289.87,641.51 ZM 742.90 652.19 C749.67,636.03 751.30,628.86 750.78,617.50 C750.45,610.35 749.84,607.48 747.82,603.57 L 745.28 598.63 L 744.21 602.07 C742.04,609.02 741.89,613.88 743.51,623.43 C744.80,631.01 744.90,633.41 743.96,634.55 C742.30,636.54 739.65,636.37 735.77,634.00 C733.97,632.91 731.47,632.01 730.20,632.00 C727.95,632.00 727.96,632.07 731.01,635.86 C735.15,641.02 737.00,647.64 737.00,657.33 C737.00,661.73 737.17,665.15 737.38,664.92 C737.58,664.69 740.07,658.96 742.90,652.19 ZM 254.72 658.43 C262.70,656.75 263.10,656.75 268.99,658.69 C276.20,661.05 276.35,659.84 269.44,655.14 C264.91,652.07 264.03,651.83 258.83,652.29 C254.74,652.66 252.56,652.38 251.01,651.30 C249.83,650.47 248.72,649.95 248.54,650.15 C248.36,650.34 246.79,652.92 245.06,655.88 C241.98,661.13 241.96,661.24 244.20,660.70 C245.47,660.40 250.20,659.38 254.72,658.43 ZM 760.00 657.55 C763.11,657.10 766.95,657.53 772.41,658.95 C776.76,660.08 780.74,661.00 781.26,661.00 C782.10,661.00 777.88,652.76 775.93,650.61 C775.48,650.11 774.43,650.42 773.53,651.32 C772.27,652.58 770.63,652.80 765.72,652.35 C759.84,651.81 759.23,651.96 754.57,655.19 C748.55,659.35 747.33,661.59 752.17,659.58 C754.00,658.81 757.53,657.90 760.00,657.55 ZM 268.53 643.21 C266.99,639.19 265.02,630.99 264.82,627.75 C264.69,625.69 264.33,624.00 264.01,624.00 C263.52,624.00 252.00,643.40 252.00,644.22 C252.00,644.37 255.83,644.50 260.51,644.50 C267.04,644.50 268.91,644.20 268.53,643.21 ZM 761.57 643.52 C762.16,643.34 764.63,643.57 767.07,644.01 C769.51,644.46 771.66,644.67 771.86,644.47 C772.06,644.27 769.59,639.56 766.36,634.00 C760.87,624.53 760.46,624.07 759.83,626.69 C758.05,634.15 756.06,641.68 755.44,643.30 C754.84,644.85 755.14,645.01 757.62,644.47 C759.21,644.12 760.98,643.69 761.57,643.52 ZM 343.53 517.50 C372.03,468.55 400.45,419.79 406.69,409.14 C413.73,397.12 417.36,390.03 416.27,390.46 C412.52,391.91 403.46,394.00 400.90,394.00 C397.98,394.00 397.96,394.02 378.02,428.50 C376.74,430.70 368.72,444.42 360.19,459.00 C351.65,473.58 342.21,489.77 339.19,495.00 C336.18,500.23 329.35,511.92 324.01,521.00 C318.67,530.08 308.33,547.85 301.03,560.50 C293.72,573.15 286.95,584.79 285.99,586.37 C284.30,589.15 284.32,589.44 286.53,594.88 C287.79,597.98 289.14,602.23 289.53,604.33 C289.93,606.43 290.58,607.78 290.98,607.32 C291.39,606.87 315.04,566.45 343.53,517.50 ZM 734.98 603.17 C734.99,602.44 736.15,598.97 737.55,595.47 L 740.10 589.09 L 733.70 578.30 C730.17,572.36 718.37,552.20 707.47,533.50 C696.56,514.80 676.88,481.05 663.73,458.50 C650.58,435.95 636.73,412.28 632.94,405.89 L 626.06 394.28 L 620.46 393.62 C617.37,393.26 613.24,392.29 611.27,391.47 C609.30,390.65 607.50,390.17 607.26,390.41 C606.88,390.79 634.63,438.92 666.98,494.00 C672.31,503.08 683.33,521.97 691.47,536.00 C699.60,550.03 709.06,566.22 712.48,572.00 C715.90,577.78 721.96,588.07 725.96,594.88 C731.20,603.83 733.46,606.88 734.09,605.88 C734.58,605.12 734.98,603.90 734.98,603.17 ZM 412.59 382.00 C415.84,380.35 423.00,374.94 428.50,369.98 C434.00,365.02 439.58,360.68 440.90,360.33 C444.37,359.43 446.46,361.18 446.81,365.28 C446.97,367.24 447.69,369.33 448.40,369.92 C449.40,370.74 449.97,370.02 450.94,366.74 C452.84,360.33 457.80,354.25 466.50,347.71 C468.70,346.06 469.77,344.96 468.87,345.27 C467.98,345.59 460.84,347.68 453.02,349.93 C428.84,356.86 416.09,364.61 407.83,377.38 C405.73,380.64 404.00,383.69 404.00,384.16 C404.00,385.69 406.61,385.04 412.59,382.00 ZM 620.00 384.16 C620.00,382.23 612.01,371.21 607.85,367.40 C599.48,359.74 589.82,355.19 569.62,349.41 C562.96,347.50 556.60,345.68 555.50,345.35 C554.40,345.03 555.42,346.18 557.77,347.91 C567.20,354.83 573.91,363.72 573.98,369.37 C574.02,372.80 576.86,369.18 577.19,365.28 C577.54,361.18 579.63,359.43 583.10,360.33 C584.42,360.68 590.45,365.25 596.50,370.50 C608.92,381.28 620.00,387.71 620.00,384.16 ZM 433.00 347.36 C436.58,346.02 440.13,344.71 440.90,344.44 C442.01,344.05 441.88,343.48 440.27,341.72 C437.57,338.75 436.00,335.58 436.00,333.07 C436.00,331.93 435.66,331.02 435.25,331.03 C434.84,331.05 431.93,335.59 428.79,341.12 C425.03,347.75 423.67,350.94 424.79,350.49 C425.73,350.11 429.42,348.70 433.00,347.36 ZM 598.53 346.75 C597.11,344.41 594.51,339.91 592.74,336.75 C589.37,330.70 588.00,329.64 588.00,333.07 C588.00,335.54 586.44,338.74 583.86,341.58 C581.97,343.66 581.98,343.67 590.73,347.21 C595.56,349.16 599.86,350.81 600.31,350.88 C600.75,350.94 599.95,349.09 598.53,346.75 ZM 515.18 345.75 C518.16,340.07 518.12,331.83 515.06,321.75 C513.77,317.49 512.44,314.00 512.10,314.01 C510.69,314.02 506.51,330.82 506.61,336.11 C506.71,341.49 510.11,350.00 512.16,350.00 C512.60,350.00 513.96,348.09 515.18,345.75 ZM 462.29 338.15 C463.81,337.55 463.48,337.00 460.04,334.47 C446.32,324.37 448.98,301.54 464.82,293.55 C466.64,292.63 469.34,292.02 470.82,292.19 C473.25,292.47 473.50,292.89 473.50,296.66 C473.50,301.86 474.20,302.57 477.84,301.07 C481.11,299.71 483.00,296.35 483.00,291.88 C483.00,288.33 478.67,283.46 474.62,282.44 C470.79,281.48 465.38,282.76 462.54,285.29 C459.86,287.68 441.00,319.39 441.00,321.50 C441.00,322.21 441.67,323.05 442.50,323.36 C443.50,323.74 444.00,325.32 444.00,328.07 C444.00,331.43 444.63,332.83 447.40,335.60 C450.36,338.56 451.42,338.99 455.65,338.93 C458.32,338.89 461.31,338.54 462.29,338.15 ZM 574.32 337.88 C577.82,336.09 579.95,332.76 579.98,329.06 C579.99,327.04 580.81,324.76 581.98,323.53 L 583.95 321.42 L 578.90 312.96 C576.13,308.31 571.34,300.06 568.25,294.63 C562.42,284.34 559.68,282.00 553.50,282.00 C542.93,282.00 537.08,293.99 544.72,299.99 C548.77,303.18 550.50,302.28 550.50,296.98 C550.50,292.87 550.72,292.47 553.17,292.19 C556.73,291.78 562.98,295.07 566.72,299.34 C576.37,310.33 574.63,328.57 563.29,335.25 C560.14,337.12 559.93,337.46 561.60,338.12 C564.53,339.26 571.88,339.13 574.32,337.88 ZM 482.55 329.98 C484.03,329.42 486.31,328.11 487.63,327.07 L 490.03 325.19 L 484.10 325.72 C473.22,326.71 465.27,320.50 463.99,310.01 L 463.44 305.50 L 461.72 308.70 C457.98,315.67 460.48,324.89 467.24,329.01 C470.83,331.19 478.13,331.66 482.55,329.98 ZM 557.01 328.75 C558.83,327.51 561.26,325.23 562.41,323.68 C565.19,319.93 565.24,312.51 562.52,308.46 L 560.53 305.50 L 560.00 310.01 C559.28,316.09 556.21,321.02 551.44,323.79 C548.24,325.65 546.34,326.02 541.32,325.75 C534.54,325.38 534.24,326.02 539.81,328.97 C545.05,331.73 552.77,331.63 557.01,328.75 ZM 492.30 313.24 C497.89,309.19 501.02,303.15 500.92,296.59 C500.77,286.02 494.88,278.12 485.60,276.02 L 481.88 275.18 L 485.27 278.48 C497.25,290.11 492.48,308.65 476.97,310.73 C472.28,311.36 472.06,312.11 475.75,315.03 C479.65,318.10 486.63,317.35 492.30,313.24 ZM 548.37 314.93 C551.73,312.28 551.71,311.00 548.32,311.00 C544.13,311.00 537.74,307.38 535.13,303.53 C530.11,296.11 531.69,285.11 538.67,278.98 C540.62,277.28 542.02,275.69 541.80,275.47 C540.75,274.42 533.58,277.43 530.32,280.30 C521.05,288.43 520.61,301.72 529.30,310.87 C535.22,317.10 543.40,318.84 548.37,314.93 ZM 517.48 260.00 C521.19,249.82 520.74,241.44 515.99,231.75 C514.17,228.04 512.37,225.00 511.99,225.00 C511.61,225.00 509.77,228.26 507.90,232.25 C504.92,238.60 504.50,240.49 504.50,247.50 C504.50,254.15 505.07,257.02 507.88,264.50 C509.74,269.45 511.47,274.17 511.73,275.00 C511.99,275.83 512.78,274.48 513.48,272.00 C514.18,269.52 515.98,264.12 517.48,260.00 ZM 499.31 269.80 C496.95,265.75 490.66,262.04 486.12,262.02 C481.35,261.99 475.34,263.97 473.29,266.23 C471.62,268.08 471.64,268.13 474.03,267.60 C482.33,265.76 488.97,266.62 495.04,270.32 C498.04,272.15 500.67,273.52 500.87,273.37 C501.07,273.22 500.37,271.61 499.31,269.80 ZM 531.93 268.84 C536.55,266.66 544.42,265.96 549.33,267.30 C553.24,268.37 551.91,266.51 546.97,263.99 C538.07,259.44 527.36,263.30 523.73,272.35 C523.00,274.18 523.07,274.19 525.23,272.60 C526.48,271.68 529.49,269.99 531.93,268.84 ZM 500.94 226.54 C503.84,220.63 506.41,213.93 506.64,211.65 C506.97,208.51 506.81,207.86 506.00,209.00 C504.88,210.56 480.00,253.15 480.00,253.51 C480.00,253.62 482.14,253.51 484.75,253.27 C487.36,253.03 490.62,253.26 492.00,253.79 L 494.50 254.74 L 495.08 246.00 C495.60,238.05 496.13,236.31 500.94,226.54 ZM 540.16 253.19 C542.27,253.39 544.00,253.42 544.00,253.25 C544.00,253.09 538.04,242.77 530.75,230.31 C519.86,211.71 517.44,208.16 517.18,210.41 C516.97,212.18 518.87,217.38 522.55,225.11 C527.84,236.21 528.29,237.71 528.76,245.92 L 529.26 254.77 L 532.79 253.79 C534.73,253.26 538.04,252.98 540.16,253.19 ZM 905.82 731.75 C903.03,729.52 902.90,726.01 905.52,723.39 C908.43,720.48 910.37,720.37 913.00,723.00 C915.65,725.65 915.55,729.50 912.78,731.44 C910.09,733.33 907.91,733.42 905.82,731.75 ZM 128.22 721.44 C125.24,719.36 125.24,714.64 128.22,712.56 C131.14,710.51 132.18,710.59 134.81,713.04 C137.54,715.58 137.60,718.40 135.00,721.00 C132.59,723.41 131.16,723.50 128.22,721.44 ZM 143.41 663.37 C143.04,661.37 142.23,655.72 141.61,650.81 L 140.50 641.87 L 131.51 648.94 C126.56,652.82 122.20,656.00 121.82,656.00 C120.18,656.00 119.94,653.74 121.35,651.59 C122.19,650.31 125.43,646.25 128.55,642.57 C131.67,638.90 134.06,635.75 133.86,635.57 C133.66,635.40 129.00,634.72 123.50,634.06 C110.83,632.53 109.00,632.08 109.00,630.49 C109.00,629.63 111.86,628.84 117.75,628.08 C122.56,627.46 128.18,626.62 130.23,626.22 L 133.95 625.50 L 126.98 616.66 C119.83,607.61 119.27,606.57 120.99,605.51 C121.91,604.94 137.14,615.80 138.50,618.00 C140.06,620.52 140.85,618.19 142.04,607.56 C144.07,589.30 146.11,589.14 148.59,607.05 C149.47,613.35 150.25,618.58 150.34,618.67 C150.43,618.76 154.55,615.73 159.50,611.93 C164.45,608.13 168.92,605.16 169.44,605.32 C171.69,606.05 170.65,608.25 164.09,616.75 L 157.10 625.79 L 161.30 626.36 C180.27,628.94 182.00,629.30 182.00,630.57 C182.00,632.02 180.28,632.43 166.27,634.28 L 157.04 635.50 L 164.10 644.72 C170.36,652.90 171.72,656.00 169.07,656.00 C168.62,656.00 164.15,652.82 159.13,648.94 C154.11,645.05 149.99,642.46 149.98,643.19 C149.97,643.91 149.30,649.45 148.49,655.50 C147.68,661.55 147.01,666.61 147.01,666.75 C147.00,666.89 146.35,667.00 145.55,667.00 C144.66,667.00 143.82,665.57 143.41,663.37 ZM 884.46 659.75 C884.20,659.06 883.20,653.79 882.24,648.04 L 880.50 637.58 L 869.08 635.54 C858.04,633.57 854.44,631.81 859.21,630.71 C860.47,630.42 865.79,629.43 871.04,628.51 L 880.57 626.84 L 882.39 614.92 C883.71,606.24 884.58,603.00 885.60,603.00 C886.37,603.00 887.00,603.11 887.01,603.25 C887.05,604.78 891.04,626.37 891.33,626.67 C891.55,626.89 896.18,627.78 901.62,628.64 C912.45,630.36 916.27,631.72 913.91,633.01 C913.13,633.43 907.69,634.59 901.82,635.58 L 891.14 637.38 L 890.04 643.94 C887.94,656.53 886.85,661.00 885.90,661.00 C885.37,661.00 884.72,660.44 884.46,659.75 ZM 201.20 630.80 C199.45,629.05 199.73,626.33 201.75,625.46 C202.71,625.05 210.25,623.04 218.50,620.99 C234.13,617.11 237.00,617.12 237.00,621.06 C237.00,623.67 235.25,624.34 217.65,628.49 C200.25,632.60 202.66,632.26 201.20,630.80 ZM 804.11 627.97 C795.65,625.85 788.29,623.69 787.76,623.16 C787.23,622.63 787.10,621.26 787.47,620.10 C788.42,617.10 792.72,617.44 809.50,621.84 L 823.50 625.50 L 823.50 628.50 C823.50,632.58 822.44,632.55 804.11,627.97 ZM 222.25 595.85 C220.78,594.38 220.60,591.36 221.92,590.55 C222.43,590.23 229.42,589.26 237.45,588.39 C252.41,586.76 255.00,587.07 255.00,590.50 C255.00,592.95 252.37,593.81 241.50,594.91 C235.45,595.52 228.92,596.26 227.00,596.56 C224.86,596.88 223.01,596.61 222.25,595.85 ZM 785.50 595.39 C769.35,593.57 769.00,593.47 769.00,590.45 C769.00,589.07 769.69,587.67 770.53,587.35 C772.23,586.70 800.40,589.51 801.99,590.50 C804.51,592.05 802.17,597.13 799.05,596.87 C798.20,596.80 792.10,596.13 785.50,595.39 ZM 229.54 565.34 C201.52,563.95 198.00,563.41 198.00,560.50 C198.00,556.94 200.08,556.82 234.17,558.45 C260.90,559.72 267.76,560.33 268.96,561.54 C270.10,562.67 270.20,563.46 269.38,564.77 C267.95,567.05 264.88,567.10 229.54,565.34 ZM 755.75 565.96 C753.68,564.71 753.49,562.67 755.29,561.17 C756.07,560.53 770.02,559.45 789.89,558.51 C823.87,556.88 826.00,557.00 826.00,560.50 C826.00,563.34 822.65,563.92 800.47,564.92 C787.84,565.49 773.00,566.20 767.50,566.49 C761.24,566.83 756.85,566.63 755.75,565.96 ZM 129.75 543.92 C127.71,542.73 127.35,537.05 129.20,535.20 C130.99,533.41 135.47,533.75 137.35,535.83 C141.89,540.85 135.73,547.41 129.75,543.92 ZM 877.35 542.53 C874.07,540.24 873.76,537.15 876.52,534.39 C877.83,533.08 879.60,532.00 880.45,532.00 C882.65,532.00 886.00,535.63 886.00,538.00 C886.00,540.24 882.69,544.00 880.72,544.00 C880.02,544.00 878.50,543.34 877.35,542.53 ZM 264.50 540.43 C255.70,539.17 246.90,538.10 244.95,538.07 C243.00,538.03 240.86,537.46 240.20,536.80 C238.49,535.09 238.72,532.05 240.61,531.32 C242.41,530.63 279.24,534.82 282.75,536.12 C285.53,537.15 285.71,540.55 283.07,541.96 C282.00,542.53 280.99,542.94 280.82,542.87 C280.64,542.79 273.30,541.70 264.50,540.43 ZM 741.84 542.26 C738.25,541.46 738.61,536.55 742.32,535.65 C747.46,534.40 781.96,530.77 783.41,531.33 C785.79,532.24 785.36,535.89 782.75,536.97 C781.51,537.48 772.62,538.84 763.00,540.00 C753.38,541.15 745.05,542.22 744.50,542.36 C743.95,542.51 742.75,542.46 741.84,542.26 ZM 260.77 511.60 C243.32,507.11 228.54,502.94 227.93,502.33 C226.24,500.64 227.25,497.54 229.58,497.20 C231.52,496.93 290.41,511.07 295.70,513.08 C297.60,513.80 298.06,514.61 297.82,516.75 C297.57,518.89 296.94,519.53 295.00,519.63 C293.62,519.71 278.22,516.09 260.77,511.60 ZM 727.20 518.80 C725.39,516.99 725.75,515.21 728.25,513.60 C730.54,512.13 790.31,497.00 793.83,497.00 C796.32,497.00 798.21,499.30 797.41,501.36 C797.07,502.25 795.15,503.41 793.15,503.93 C784.64,506.16 729.25,520.00 728.85,520.00 C728.60,520.00 727.86,519.46 727.20,518.80 ZM 289.50 491.46 C252.41,478.11 249.06,476.75 248.46,474.88 C247.65,472.33 248.68,471.00 251.45,471.00 C253.66,471.00 305.09,488.91 309.20,491.11 C310.39,491.75 311.00,492.96 310.81,494.32 C310.30,497.92 305.72,497.30 289.50,491.46 ZM 713.67 496.33 C712.39,495.06 713.01,492.06 714.75,491.14 C719.86,488.41 770.87,470.96 773.00,471.21 C774.92,471.43 775.50,472.08 775.50,473.99 C775.50,476.80 772.93,477.90 737.11,490.44 C719.00,496.77 715.09,497.76 713.67,496.33 ZM 168.17 485.91 C167.67,484.59 166.69,479.45 165.98,474.50 C165.28,469.55 164.37,465.12 163.96,464.66 C163.56,464.20 158.42,463.01 152.54,462.01 C146.66,461.01 141.58,459.91 141.24,459.58 C139.81,458.14 143.21,456.95 153.39,455.31 C159.35,454.35 164.35,453.10 164.49,452.53 C164.63,451.96 165.50,446.77 166.43,441.00 C168.95,425.25 170.51,425.48 172.99,442.00 C173.69,446.67 174.63,451.21 175.08,452.09 C175.65,453.19 179.08,454.20 186.20,455.39 C195.80,456.98 199.16,458.18 197.81,459.52 C197.51,459.83 192.46,460.89 186.61,461.89 C180.75,462.89 175.67,463.99 175.32,464.35 C174.97,464.70 173.85,469.81 172.83,475.70 C170.84,487.22 169.64,489.84 168.17,485.91 ZM 865.63 483.30 C865.32,481.76 864.33,476.33 863.43,471.24 C861.60,460.91 862.68,461.89 851.00,459.99 C840.20,458.24 839.00,457.89 839.00,456.56 C839.00,455.71 842.54,454.67 849.43,453.49 C855.17,452.50 860.38,451.39 861.00,451.00 C861.61,450.62 862.94,445.27 863.94,439.11 C864.94,432.95 866.01,427.66 866.31,427.35 C867.82,425.85 868.91,428.96 870.56,439.47 C871.90,447.99 872.77,451.10 873.93,451.43 C874.79,451.68 879.55,452.60 884.50,453.48 C889.45,454.35 894.14,455.30 894.92,455.57 C897.83,456.59 894.20,458.04 884.16,459.88 C878.52,460.91 873.60,462.06 873.21,462.44 C872.82,462.82 871.60,468.13 870.50,474.23 C868.51,485.27 866.69,488.67 865.63,483.30 ZM 296.75 467.85 C277.64,458.97 275.00,457.46 275.00,455.44 C275.00,450.85 278.20,451.64 299.65,461.48 C311.10,466.74 321.15,471.72 321.97,472.54 C323.65,474.22 322.41,477.31 319.89,477.73 C319.13,477.86 308.71,473.41 296.75,467.85 ZM 701.94 475.88 C701.06,474.24 701.11,473.46 702.19,472.38 C703.74,470.83 741.37,453.45 745.32,452.46 C748.51,451.66 751.12,455.38 748.85,457.49 C747.26,458.97 705.82,478.00 704.18,478.00 C703.57,478.00 702.56,477.05 701.94,475.88 ZM 281.50 432.70 C238.99,409.86 234.50,407.21 234.50,404.97 C234.50,400.29 238.17,401.45 259.22,412.79 C270.38,418.79 289.85,429.23 302.50,435.98 C335.31,453.50 334.17,452.80 333.81,455.33 C333.60,456.82 332.71,457.57 331.00,457.73 C329.35,457.87 312.49,449.35 281.50,432.70 ZM 691.11 456.63 C688.51,453.50 686.20,454.89 757.78,416.59 C772.79,408.57 785.94,402.00 787.00,402.00 C788.06,402.00 789.38,402.84 789.93,403.87 C791.23,406.30 789.90,407.44 779.00,413.21 C774.33,415.68 753.60,426.77 732.94,437.85 C712.28,448.93 694.67,458.00 693.81,458.00 C692.95,458.00 691.73,457.38 691.11,456.63 ZM 335.00 440.87 C333.08,439.68 322.05,433.33 310.50,426.76 C282.38,410.75 281.81,410.36 282.19,407.69 C282.37,406.40 283.32,405.39 284.50,405.22 C286.59,404.93 337.98,433.67 341.49,437.09 C343.05,438.61 343.24,439.40 342.38,440.76 C340.80,443.28 338.96,443.30 335.00,440.87 ZM 682.20 441.80 C680.53,440.13 680.70,438.57 682.75,436.77 C686.75,433.25 737.64,404.95 739.50,405.22 C742.69,405.67 742.57,409.46 739.31,411.75 C734.87,414.84 685.33,443.00 684.31,443.00 C683.81,443.00 682.86,442.46 682.20,441.80 ZM 670.52 421.64 C666.91,419.00 669.38,416.66 689.95,403.29 C701.20,395.98 710.72,390.00 711.13,390.00 C712.44,390.00 715.10,393.20 714.75,394.37 C714.44,395.41 680.90,418.23 674.88,421.49 C672.75,422.65 671.94,422.68 670.52,421.64 ZM 330.00 409.04 C310.45,396.06 308.12,393.80 311.47,391.03 C313.28,389.52 316.14,391.13 340.31,407.24 C352.68,415.49 355.07,417.48 354.81,419.31 C354.13,424.08 350.24,422.47 330.00,409.04 ZM 342.39 384.62 C306.43,356.28 304.50,354.61 304.50,351.93 C304.50,346.47 308.80,349.05 337.60,371.76 C353.05,383.96 366.30,394.66 367.04,395.55 C368.57,397.40 367.33,400.29 364.78,400.80 C363.96,400.96 353.88,393.68 342.39,384.62 ZM 658.16 400.12 C654.40,397.73 657.53,394.60 686.50,371.78 C716.17,348.41 719.50,346.43 719.50,352.12 C719.50,354.36 715.53,357.89 692.49,376.15 C658.15,403.36 660.59,401.66 658.16,400.12 ZM 368.22 369.86 C342.36,345.44 339.44,341.92 343.63,340.31 C346.12,339.36 348.67,341.34 365.49,357.38 C377.36,368.69 381.03,372.77 380.80,374.38 C380.61,375.71 379.65,376.62 378.22,376.82 C376.53,377.06 373.95,375.27 368.22,369.86 ZM 644.01 375.51 C643.33,374.69 643.02,373.39 643.32,372.62 C644.25,370.19 677.38,340.00 679.11,340.00 C681.43,340.00 683.34,342.58 682.33,344.37 C680.83,347.04 648.06,377.00 646.63,377.00 C645.87,377.00 644.69,376.33 644.01,375.51 ZM 837.00 360.00 C834.60,357.60 834.46,355.21 836.56,352.22 C838.65,349.24 842.38,349.39 844.87,352.56 C846.97,355.23 846.79,357.22 844.19,360.25 C842.21,362.56 839.47,362.47 837.00,360.00 ZM 368.84 331.78 C357.65,319.55 345.43,306.27 341.68,302.26 C334.50,294.57 333.23,290.82 337.61,290.20 C339.21,289.97 342.55,292.92 351.21,302.20 C372.57,325.08 395.00,349.96 395.00,350.78 C395.00,352.18 392.68,354.00 390.89,354.00 C389.94,354.00 380.17,344.16 368.84,331.78 ZM 630.71 353.38 C628.39,351.06 631.73,346.72 656.83,319.50 C676.85,297.80 684.23,290.42 686.16,290.20 C689.40,289.81 690.62,292.45 688.57,295.39 C687.76,296.55 675.47,310.10 661.27,325.50 C637.55,351.20 632.84,355.50 630.71,353.38 ZM 229.29 343.79 C228.73,343.08 227.97,340.48 227.60,338.00 C225.36,322.96 224.82,321.00 222.90,321.00 C221.86,321.00 217.37,323.70 212.92,327.00 C208.47,330.30 204.44,333.00 203.97,333.00 C201.37,333.00 202.55,329.99 208.54,321.40 C212.28,316.04 214.84,311.44 214.36,310.96 C213.89,310.49 208.77,309.34 203.00,308.40 C186.85,305.80 186.82,304.05 202.88,301.12 C208.54,300.08 213.59,298.81 214.11,298.29 C214.70,297.70 213.52,295.14 210.95,291.42 C201.69,278.04 201.64,277.96 202.77,276.83 C203.56,276.04 206.37,277.58 212.90,282.37 C221.72,288.85 224.94,290.27 225.05,287.75 C225.09,287.06 225.89,281.78 226.85,276.01 C228.12,268.36 229.00,265.43 230.11,265.22 C231.31,264.99 232.01,267.11 233.39,275.21 C235.56,288.01 235.85,289.00 237.35,289.00 C238.02,289.00 242.53,286.08 247.38,282.50 C255.67,276.40 258.01,275.47 257.99,278.31 C257.99,278.96 255.29,283.26 251.99,287.86 C248.70,292.46 246.00,296.79 246.00,297.48 C246.00,298.29 250.14,299.55 257.50,301.00 C265.62,302.60 269.00,303.67 269.00,304.66 C269.00,306.40 268.74,306.48 256.67,308.57 C250.73,309.59 246.63,310.79 246.32,311.60 C246.04,312.33 248.56,316.73 251.91,321.37 C257.73,329.44 259.27,333.00 256.92,333.00 C256.32,333.00 252.07,330.26 247.47,326.92 C242.86,323.57 238.30,320.99 237.34,321.17 C235.93,321.44 235.22,323.68 233.78,332.46 C231.92,343.78 231.04,346.01 229.29,343.79 ZM 238.25 312.02 C244.56,305.02 239.91,294.00 230.65,294.00 C220.41,294.00 215.47,305.40 222.76,312.20 C226.31,315.51 227.76,316.03 232.00,315.50 C234.27,315.22 236.46,314.00 238.25,312.02 ZM 764.33 342.38 C762.80,340.04 762.77,339.50 764.10,337.13 C765.25,335.09 766.34,334.50 769.00,334.50 C771.66,334.50 772.75,335.09 773.90,337.13 C775.23,339.50 775.20,340.04 773.67,342.38 C772.46,344.23 771.08,345.00 769.00,345.00 C766.92,345.00 765.54,344.23 764.33,342.38 ZM 404.25 330.27 C403.16,329.89 387.37,310.05 381.22,301.34 C378.93,298.10 379.07,295.57 381.58,294.61 C384.05,293.66 385.31,294.81 393.72,305.78 C406.25,322.11 409.13,326.50 408.45,328.26 C407.75,330.08 406.05,330.90 404.25,330.27 ZM 616.71 329.38 C614.82,327.48 616.85,323.74 626.90,310.63 C639.50,294.19 640.50,293.19 642.83,294.67 C645.70,296.47 645.23,298.50 640.56,304.59 C638.07,307.84 632.75,314.77 628.75,320.00 C622.01,328.78 618.70,331.36 616.71,329.38 ZM 401.44 280.36 C392.74,266.81 385.60,254.83 385.56,253.74 C385.47,250.94 388.38,249.24 390.40,250.92 C391.83,252.11 419.26,294.60 421.87,299.68 C423.37,302.59 422.30,305.00 419.52,305.00 C417.65,305.00 414.46,300.65 401.44,280.36 ZM 601.60 303.41 C600.87,301.49 603.38,297.10 619.91,271.50 C634.37,249.10 633.81,249.83 636.34,250.19 C641.10,250.87 639.37,254.78 623.19,280.00 C609.88,300.75 607.07,304.55 604.86,304.80 C603.13,305.01 602.04,304.54 601.60,303.41 ZM 769.11 293.21 C768.52,292.11 767.37,287.03 766.54,281.92 C765.71,276.82 764.56,272.16 763.98,271.58 C762.77,270.37 761.53,271.02 750.93,278.39 C740.79,285.44 740.13,283.65 748.41,271.52 C752.04,266.20 754.79,261.47 754.52,261.02 C754.24,260.58 749.85,259.48 744.76,258.58 C731.38,256.22 731.00,256.11 731.00,254.48 C731.00,253.67 731.15,253.00 731.33,253.00 C733.70,253.00 753.52,248.88 754.15,248.25 C754.61,247.79 751.98,243.04 748.30,237.70 C739.35,224.70 740.49,223.41 753.00,232.40 C758.06,236.03 762.58,239.00 763.04,239.00 C764.43,239.00 764.80,237.81 766.48,227.95 C768.49,216.12 768.83,215.00 770.41,215.00 C771.26,215.00 772.29,218.49 773.43,225.25 C775.57,237.92 775.87,239.00 777.20,239.00 C777.79,239.00 782.10,236.26 786.78,232.91 C791.46,229.56 795.90,226.59 796.65,226.31 C799.54,225.20 797.79,229.63 792.00,238.08 C786.88,245.55 785.13,248.89 786.25,249.03 C793.45,249.94 808.52,253.12 809.30,253.90 C811.02,255.62 809.70,256.13 798.30,258.17 C792.36,259.24 787.12,260.48 786.66,260.95 C785.59,262.01 786.72,264.09 793.55,273.61 C801.13,284.18 799.67,285.11 787.94,277.17 C782.92,273.78 778.21,271.00 777.48,271.00 C775.85,271.00 775.56,271.92 773.44,284.00 C771.61,294.39 770.74,296.25 769.11,293.21 ZM 778.25 262.02 C782.78,256.99 781.54,248.36 775.85,245.43 C771.24,243.04 766.25,243.60 762.97,246.87 C759.27,250.57 758.41,254.16 760.13,258.68 C763.02,266.24 772.82,268.05 778.25,262.02 ZM 432.57 277.11 C428.93,271.23 421.00,254.75 421.00,253.09 C421.00,250.60 423.59,249.25 425.75,250.61 C428.14,252.12 438.03,272.22 437.75,275.00 C437.49,277.60 433.80,279.11 432.57,277.11 ZM 586.71 277.38 C585.13,275.80 586.35,271.98 591.79,261.50 C596.74,251.96 597.83,250.50 600.00,250.50 C604.20,250.50 603.52,254.44 597.23,266.50 C593.10,274.44 590.93,277.58 589.46,277.79 C588.34,277.95 587.10,277.77 586.71,277.38 ZM 307.56 271.78 C305.34,268.61 305.62,266.44 308.56,264.13 C311.05,262.17 313.08,262.21 315.75,264.28 C317.34,265.51 317.38,271.22 315.80,272.80 C313.81,274.79 309.27,274.23 307.56,271.78 ZM 449.59 246.75 C447.77,243.93 436.08,212.84 435.75,209.93 C435.47,207.48 438.00,205.40 440.22,206.25 C441.36,206.69 451.27,231.60 455.59,244.88 C456.13,246.56 454.25,249.00 452.40,249.00 C451.66,249.00 450.39,247.99 449.59,246.75 ZM 570.25 248.34 C567.90,247.39 569.05,242.49 575.86,224.50 C581.32,210.07 583.07,206.44 584.67,206.20 C585.77,206.04 587.23,206.58 587.91,207.40 C588.93,208.62 587.92,212.28 582.38,227.57 C574.88,248.25 573.96,249.83 570.25,248.34 ZM 348.44 219.71 C348.17,219.00 347.17,213.50 346.22,207.50 L 344.50 196.58 L 334.27 194.90 C328.65,193.98 323.29,192.94 322.36,192.58 C319.04,191.31 322.81,189.73 333.57,187.90 C339.45,186.90 344.36,185.95 344.48,185.79 C344.60,185.63 345.45,180.57 346.37,174.54 C347.88,164.53 349.12,160.79 350.47,162.14 C350.75,162.42 351.84,167.71 352.90,173.90 C353.95,180.08 355.07,185.40 355.37,185.71 C355.68,186.01 359.89,186.88 364.72,187.63 C376.82,189.51 378.00,189.85 378.00,191.39 C378.00,192.70 372.92,194.01 361.92,195.54 C359.39,195.89 356.79,196.51 356.14,196.91 C355.29,197.44 351.11,216.86 351.01,220.75 C350.98,221.63 348.85,220.76 348.44,219.71 ZM 676.18 218.91 C675.69,217.59 674.71,212.68 674.01,208.00 C673.31,203.32 672.36,198.78 671.91,197.89 C671.41,196.93 669.16,196.02 666.29,195.63 C654.16,193.97 649.00,192.74 649.00,191.51 C649.00,190.03 650.42,189.63 661.50,187.94 C665.90,187.27 670.17,186.37 670.98,185.94 C671.98,185.42 673.01,181.52 674.12,174.02 C675.04,167.89 676.03,162.64 676.33,162.34 C677.79,160.87 678.87,163.90 680.50,174.00 C681.48,180.08 682.64,185.28 683.08,185.55 C683.71,185.94 704.35,190.00 705.69,190.00 C705.86,190.00 706.00,190.60 706.00,191.34 C706.00,192.22 703.52,193.11 698.75,193.94 C694.76,194.63 689.44,195.63 686.93,196.14 L 682.36 197.09 L 680.69 208.24 C678.91,220.07 677.68,222.97 676.18,218.91 ZM 477.68 198.75 C476.01,195.98 470.55,165.61 471.36,163.51 C472.06,161.68 475.36,161.52 476.79,163.25 C477.36,163.94 479.23,172.15 480.94,181.49 C483.86,197.43 483.94,198.57 482.33,199.74 C479.95,201.49 479.25,201.34 477.68,198.75 ZM 542.20 199.80 C540.47,198.07 540.75,194.28 543.80,178.10 C546.57,163.43 547.77,160.93 551.36,162.31 C553.57,163.16 553.46,164.97 550.08,183.39 C547.02,200.10 545.55,203.15 542.20,199.80 ZM 586.65 165.17 C584.72,163.03 584.48,158.92 586.20,157.20 C588.15,155.25 593.78,155.72 594.96,157.93 C596.51,160.82 596.22,163.49 594.17,165.35 C591.77,167.52 588.71,167.45 586.65,165.17 ZM 509.71 162.38 C509.32,161.99 509.00,151.41 509.00,138.87 C509.00,117.51 509.12,116.01 510.89,115.06 C512.25,114.33 513.08,114.39 513.80,115.27 C514.91,116.62 515.99,154.64 515.06,159.50 C514.50,162.42 511.41,164.08 509.71,162.38 ZM 427.65 146.17 C425.25,143.51 425.62,140.44 428.63,138.07 C431.98,135.44 432.56,135.47 435.55,138.45 C438.52,141.43 438.64,143.36 436.00,146.00 C433.50,148.50 429.83,148.57 427.65,146.17 ZM 497.50 715.06 C444.87,708.01 402.58,666.56 395.91,615.50 C394.81,607.07 395.12,592.35 396.58,583.94 C397.19,580.43 397.07,580.28 386.35,571.31 C371.21,558.65 363.00,549.90 363.00,546.41 C363.00,542.96 376.98,521.86 386.93,510.28 C395.57,500.24 409.68,487.74 420.78,480.32 C426.46,476.51 428.77,474.42 428.15,473.64 C421.95,465.90 417.00,458.53 417.00,457.05 C417.00,455.38 418.82,454.00 421.02,454.00 C421.49,454.00 424.68,457.49 428.10,461.75 C431.53,466.01 434.64,469.85 435.01,470.29 C435.37,470.72 437.88,469.95 440.59,468.57 C443.29,467.19 447.65,465.16 450.29,464.05 L 455.07 462.04 L 446.95 445.97 C440.25,432.69 439.05,429.64 440.08,428.40 C440.77,427.58 442.23,427.04 443.33,427.20 C445.35,427.50 446.06,428.69 456.70,449.50 C459.23,454.45 461.41,458.64 461.55,458.82 C461.69,458.99 466.11,458.09 471.39,456.82 C478.24,455.16 480.98,454.07 480.99,452.99 C480.99,452.16 478.53,441.63 475.51,429.58 C469.81,406.85 469.71,405.00 474.14,405.00 C476.80,405.00 477.42,406.76 483.33,431.00 L 488.57 452.50 L 493.54 452.24 C496.27,452.09 500.83,451.73 503.68,451.42 L 508.86 450.87 L 508.96 415.29 C509.02,395.71 509.30,379.32 509.59,378.85 C510.55,377.29 513.92,377.97 514.96,379.93 C515.62,381.16 516.00,394.50 516.00,416.37 L 516.00 450.88 L 520.25 451.40 C522.59,451.69 526.97,452.18 530.00,452.49 L 535.50 453.06 L 540.88 430.78 C543.83,418.53 546.66,407.71 547.16,406.75 C547.66,405.79 548.90,405.00 549.91,405.00 C554.33,405.00 554.22,406.87 548.45,430.47 C545.39,442.98 543.15,453.49 543.47,453.81 C544.03,454.37 554.69,457.43 560.00,458.55 C562.35,459.05 562.98,458.13 570.50,443.43 C574.90,434.82 579.12,427.53 579.89,427.23 C582.05,426.37 584.53,428.51 584.18,430.92 C584.00,432.13 580.49,439.62 576.38,447.57 C569.78,460.33 569.12,462.10 570.70,462.66 C571.69,463.01 575.88,464.89 580.00,466.83 C584.12,468.78 587.78,470.40 588.13,470.44 C588.47,470.47 591.78,466.76 595.47,462.19 C600.64,455.78 602.67,453.95 604.34,454.19 C608.14,454.73 607.59,458.56 602.83,464.64 C593.95,475.96 594.26,474.32 600.24,478.14 C609.18,483.85 624.39,496.56 632.04,504.71 C640.11,513.33 651.70,528.45 657.34,537.74 C663.02,547.09 662.81,547.74 649.74,560.50 C643.54,566.55 635.89,573.30 632.73,575.50 C627.50,579.14 627.03,579.77 627.49,582.50 C627.77,584.15 628.27,591.12 628.61,598.00 C630.19,629.92 618.11,659.26 593.74,682.66 C577.32,698.42 557.45,708.93 535.52,713.46 C526.75,715.27 505.69,716.16 497.50,715.06 ZM 539.84 699.59 C550.58,696.60 564.44,690.01 573.34,683.64 C582.06,677.41 595.72,662.86 601.37,653.78 C612.59,635.74 616.40,620.81 616.08,596.08 C616.04,592.55 615.80,589.87 615.56,590.11 C615.31,590.35 614.20,594.75 613.08,599.87 C608.92,618.93 599.30,635.64 583.99,650.40 C574.73,659.33 568.86,663.53 558.00,669.01 C519.90,688.22 472.68,681.35 441.60,652.06 C427.35,638.63 416.22,620.22 411.95,603.00 C408.15,587.69 408.05,587.71 408.41,604.00 C408.69,617.30 409.12,620.77 411.42,628.44 C422.56,665.59 453.42,693.36 492.63,701.51 C503.83,703.84 528.08,702.85 539.84,699.59 ZM 520.67 671.93 C557.89,667.78 587.92,645.36 601.40,611.67 C604.88,602.95 604.68,601.63 600.76,607.58 C595.21,616.02 581.07,629.86 571.66,636.06 C561.36,642.85 551.45,647.19 538.07,650.76 C529.64,653.02 526.54,653.32 512.00,653.32 C497.43,653.32 494.37,653.02 485.87,650.75 C480.57,649.33 472.92,646.73 468.87,644.96 C452.47,637.81 434.82,623.67 425.22,610.00 C418.78,600.83 418.56,600.72 421.29,608.01 C435.40,645.68 468.35,669.97 509.29,672.87 C510.27,672.94 515.39,672.52 520.67,671.93 ZM 535.24 638.58 C550.27,634.75 561.63,628.87 574.13,618.46 C580.03,613.55 589.00,603.44 589.00,601.71 C589.00,601.38 586.86,602.06 584.25,603.21 C542.32,621.77 489.29,622.53 445.16,605.21 C439.57,603.01 435.01,601.51 435.01,601.86 C435.04,603.12 445.59,614.84 450.00,618.52 C457.81,625.02 466.18,630.26 474.03,633.57 C481.45,636.70 494.97,640.47 502.00,641.36 C509.35,642.30 526.16,640.89 535.24,638.58 ZM 530.00 598.01 C551.06,590.94 567.79,570.81 569.71,550.25 L 570.31 543.77 L 564.91 544.54 C561.93,544.96 556.80,545.57 553.50,545.90 C548.49,546.40 547.46,546.83 547.24,548.50 C547.03,550.05 548.46,551.28 553.66,554.02 C565.00,559.98 563.29,560.56 546.50,556.42 C545.18,556.09 544.06,556.64 543.20,558.02 C542.01,559.95 542.42,560.62 548.09,566.09 C551.50,569.37 554.02,572.31 553.70,572.63 C553.38,572.95 549.80,571.38 545.75,569.14 C538.95,565.38 538.24,565.19 536.75,566.68 C535.26,568.17 535.44,568.92 539.08,576.15 C541.25,580.47 542.62,584.00 542.12,584.00 C541.62,584.00 538.70,581.28 535.62,577.96 C530.74,572.68 529.77,572.05 528.01,572.99 C525.62,574.27 525.61,574.45 527.39,583.75 C528.20,588.02 528.38,591.00 527.82,591.00 C527.30,591.00 525.29,587.59 523.37,583.42 C520.77,577.81 519.47,575.99 518.35,576.42 C517.52,576.74 516.51,577.00 516.11,577.00 C515.71,577.00 514.81,581.05 514.11,586.00 C513.41,590.95 512.46,595.00 512.01,595.00 C511.55,595.00 510.62,590.95 509.95,586.00 C508.79,577.57 508.57,577.00 506.37,577.00 C504.47,577.00 503.36,578.33 500.50,584.00 C498.56,587.85 496.59,591.00 496.12,591.00 C495.65,591.00 495.65,589.09 496.12,586.75 C498.35,575.55 498.36,574.26 496.19,573.10 C494.39,572.14 493.44,572.74 488.34,578.08 C485.16,581.42 482.40,583.71 482.22,583.16 C482.04,582.62 483.47,579.03 485.40,575.20 C488.76,568.53 488.83,568.16 487.11,566.60 C485.43,565.08 484.83,565.25 478.13,569.13 C474.18,571.42 470.65,572.98 470.28,572.61 C469.91,572.24 472.44,569.31 475.90,566.09 C481.54,560.85 482.08,560.02 481.07,558.12 C479.76,555.69 479.71,555.68 474.94,557.00 C468.87,558.69 462.00,559.78 462.00,559.05 C462.00,558.67 465.38,556.59 469.52,554.43 C475.44,551.34 476.98,550.07 476.77,548.50 C476.54,546.77 475.28,546.34 467.50,545.34 C452.55,543.40 453.61,543.03 454.33,549.91 C455.07,556.99 458.94,567.67 463.11,574.17 C470.63,585.90 485.67,596.45 499.25,599.55 C507.81,601.50 521.67,600.81 530.00,598.01 ZM 462.08 592.25 C456.42,586.50 453.25,582.18 449.81,575.50 C443.46,563.16 441.65,555.93 441.60,542.50 C441.54,529.60 443.19,522.38 448.95,510.30 C453.58,500.60 454.47,500.62 436.14,509.98 C422.36,517.01 408.62,526.01 392.01,538.89 L 379.91 548.27 L 382.20 550.74 C385.46,554.23 399.32,565.87 400.39,566.00 C400.88,566.07 402.57,563.05 404.14,559.31 C407.29,551.82 409.04,550.00 413.07,550.00 C416.80,550.00 417.50,551.30 418.91,560.87 C419.59,565.48 421.03,572.12 422.11,575.63 C424.03,581.83 424.26,582.10 429.94,584.97 C441.18,590.64 463.97,599.35 469.10,599.93 C469.43,599.97 466.27,596.51 462.08,592.25 ZM 576.76 592.89 C580.75,591.31 587.59,588.22 591.96,586.02 L 599.91 582.02 L 601.97 575.35 C603.11,571.68 604.51,565.49 605.10,561.59 C606.65,551.25 607.32,550.00 611.32,550.00 C615.47,550.00 616.87,551.56 620.48,560.22 L 623.28 566.95 L 627.37 563.72 C629.63,561.95 634.35,557.78 637.87,554.45 L 644.28 548.40 L 635.39 541.37 C622.46,531.14 607.78,520.93 597.50,514.99 C589.08,510.13 571.84,501.82 571.30,502.37 C571.17,502.50 572.88,506.10 575.12,510.36 C579.59,518.89 582.96,532.54 582.99,542.16 C583.03,560.86 575.38,578.80 561.20,593.23 L 554.59 599.96 L 562.05 597.86 C566.15,596.71 572.77,594.47 576.76,592.89 ZM 476.00 539.20 C476.00,538.76 471.30,537.03 465.55,535.34 C456.86,532.79 455.02,532.52 454.55,533.72 C453.39,536.76 454.03,538.87 456.25,539.29 C460.36,540.09 476.00,540.01 476.00,539.20 ZM 569.51 538.82 C569.89,538.45 569.90,536.83 569.55,535.22 L 568.91 532.31 L 558.46 535.40 C552.72,537.11 548.01,538.88 548.01,539.34 C548.00,540.32 568.51,539.83 569.51,538.82 ZM 540.97 533.52 C544.65,531.61 547.65,527.38 548.49,522.91 C549.01,520.14 550.08,518.83 553.57,516.72 C556.01,515.25 558.00,513.56 558.00,512.97 C558.00,512.37 557.66,512.06 557.25,512.27 C556.84,512.49 554.78,513.45 552.67,514.42 L 548.85 516.17 L 545.17 512.22 C536.24,502.64 523.64,505.46 519.91,517.89 C518.94,521.15 519.07,522.36 520.82,526.32 C522.08,529.18 524.13,531.72 526.18,532.97 C530.14,535.38 536.88,535.63 540.97,533.52 ZM 477.45 529.13 C475.66,527.48 459.76,521.88 458.38,522.41 C457.62,522.70 457.00,523.56 457.00,524.31 C457.00,526.03 476.07,532.15 477.45,530.87 C478.05,530.32 478.05,529.68 477.45,529.13 ZM 557.86 528.38 C562.61,526.94 566.65,525.63 566.84,525.46 C567.03,525.29 566.90,524.26 566.55,523.16 C565.95,521.26 565.55,521.33 556.78,524.88 C551.75,526.92 547.46,529.13 547.24,529.79 C546.66,531.52 548.14,531.32 557.86,528.38 ZM 482.00 521.22 C482.00,520.00 479.63,518.27 474.48,515.72 C466.78,511.91 464.58,511.26 465.17,512.98 C465.58,514.20 479.05,522.78 480.75,522.91 C481.44,522.96 482.00,522.20 482.00,521.22 ZM 621.97 512.42 C596.94,487.05 567.92,471.54 534.87,465.88 C511.97,461.96 485.41,464.42 463.00,472.54 C441.19,480.44 419.86,494.32 402.53,511.92 C395.52,519.04 394.66,520.97 400.41,516.70 C407.32,511.56 420.36,503.78 430.97,498.47 C491.14,468.32 552.61,472.02 612.80,509.41 C617.92,512.59 623.32,516.25 624.80,517.56 C630.81,522.85 628.97,519.52 621.97,512.42 ZM 488.50 512.92 C488.50,512.14 486.29,509.48 483.59,507.00 C478.47,502.30 478.49,503.00 483.71,511.32 C486.03,515.00 488.50,515.83 488.50,512.92 ZM 495.51 502.60 C494.02,500.07 492.65,498.00 492.45,498.00 C492.14,498.00 493.40,502.01 495.55,507.92 C495.92,508.92 496.38,509.02 497.13,508.27 C497.89,507.51 497.42,505.86 495.51,502.60 Z" fill="rgba(0,0,0,1)"/>
</g>
</svg>