<svg xmlns="http://www.w3.org/2000/svg" width="1024" height="1024" viewBox="0 0 1024 1024">
<g>
<path d="M 579.39 949.79 C578.46,945.37 576.54,943.78 570.50,942.40 L 567.50 941.71 L 571.86 940.39 C577.67,938.62 578.72,937.60 579.51,932.94 C580.36,927.89 581.57,927.91 582.38,932.98 C583.08,937.38 585.31,939.34 591.00,940.55 L 594.50 941.30 L 589.98 942.90 C583.65,945.14 583.26,945.51 582.50,950.01 C581.63,955.16 580.51,955.08 579.39,949.79 ZM 508.20 947.80 C507.54,947.14 507.00,945.85 507.00,944.92 C507.00,940.61 514.23,939.58 514.83,943.81 C515.43,948.03 511.06,950.66 508.20,947.80 ZM 453.68 943.41 C453.37,942.36 452.58,938.67 451.92,935.21 C450.47,927.57 448.55,925.80 439.80,924.01 C432.31,922.47 430.65,921.34 434.61,920.47 C436.20,920.12 440.20,919.07 443.50,918.14 L 449.50 916.44 L 451.15 909.97 C452.06,906.41 453.10,902.21 453.45,900.63 C454.33,896.73 454.81,897.53 457.00,906.50 C458.03,910.74 459.60,915.01 460.48,915.98 C461.36,916.95 464.87,918.32 468.29,919.02 C477.34,920.87 478.21,921.60 472.96,922.97 C470.51,923.61 466.81,924.57 464.75,925.11 C460.20,926.29 458.58,928.65 456.93,936.50 C455.34,944.14 454.45,946.03 453.68,943.41 ZM 329.02 921.58 C327.72,915.32 327.10,914.66 321.00,912.93 C314.33,911.05 314.20,910.31 320.32,909.04 C323.36,908.41 326.32,907.32 326.89,906.63 C327.47,905.93 328.44,903.03 329.05,900.18 C329.67,897.33 330.53,895.00 330.98,895.00 C331.42,895.00 332.41,897.59 333.17,900.75 L 334.56 906.50 L 340.96 908.58 C347.65,910.74 347.80,911.29 342.00,912.48 C336.04,913.70 334.26,915.46 332.92,921.47 C332.24,924.51 331.34,927.00 330.91,927.00 C330.49,927.00 329.64,924.56 329.02,921.58 ZM 686.47 916.75 C684.01,903.26 682.81,901.99 670.23,899.54 C656.93,896.96 657.00,896.56 671.28,893.51 C682.26,891.17 683.56,889.77 686.14,877.50 C688.50,866.23 689.51,864.29 690.44,869.15 C694.54,890.41 694.93,890.99 706.60,893.48 C716.93,895.69 718.00,896.00 718.00,896.83 C718.00,897.21 713.39,898.52 707.75,899.75 C700.50,901.32 697.00,902.57 695.81,904.02 C694.34,905.81 692.87,911.23 690.47,923.75 C690.12,925.54 689.50,927.00 689.09,927.00 C688.67,927.00 687.49,922.39 686.47,916.75 ZM 692.30 897.28 L 694.50 896.30 L 692.25 895.58 C691.01,895.19 689.99,894.11 689.97,893.18 C689.94,891.68 689.82,891.70 688.88,893.31 C688.30,894.31 686.86,895.52 685.66,896.00 C684.00,896.67 683.90,896.89 685.21,896.94 C686.16,896.97 687.49,898.01 688.17,899.25 C689.17,901.05 689.48,901.18 689.75,899.88 C689.94,898.99 691.09,897.82 692.30,897.28 ZM 535.52 914.38 C533.57,912.43 533.86,910.11 536.25,908.61 C539.71,906.43 543.62,911.35 540.96,914.55 C539.39,916.44 537.53,916.39 535.52,914.38 ZM 624.65 906.17 C623.74,905.17 623.00,903.37 623.00,902.17 C623.00,899.45 626.35,896.00 629.00,896.00 C631.71,896.00 635.00,899.48 635.00,902.35 C635.00,907.31 628.02,909.89 624.65,906.17 ZM 378.65 901.17 C373.39,895.36 381.46,887.46 387.00,893.00 C389.40,895.40 389.54,897.79 387.44,900.78 C385.52,903.52 380.97,903.73 378.65,901.17 ZM 487.00 885.41 C485.08,885.19 478.55,884.53 472.50,883.92 C443.41,881.03 404.92,871.41 378.00,860.31 C360.12,852.94 328.98,837.56 324.28,833.79 C323.39,833.07 324.36,831.78 327.98,828.92 L 332.89 825.04 L 340.20 829.19 C360.76,840.89 392.63,854.08 417.00,860.97 C448.59,869.91 470.28,873.03 505.50,873.70 C541.75,874.39 562.78,872.12 595.71,863.97 C626.52,856.34 661.61,842.38 685.69,828.19 L 690.77 825.19 L 695.64 828.64 C698.31,830.54 700.62,832.42 700.76,832.81 C700.90,833.21 696.40,836.08 690.76,839.18 C648.76,862.31 604.03,877.22 557.50,883.58 C546.19,885.13 496.14,886.43 487.00,885.41 ZM 253.02 866.25 C259.00,847.46 299.95,722.68 324.08,649.73 C340.22,600.90 349.87,573.12 350.60,573.40 C351.77,573.85 374.21,590.07 384.13,597.64 L 389.77 601.94 L 378.99 634.72 C373.07,652.75 362.31,685.46 355.08,707.40 C347.85,729.35 342.06,747.62 342.22,748.01 C342.37,748.40 348.37,744.39 355.54,739.11 C391.01,712.96 410.93,698.22 437.00,678.84 C452.67,667.19 470.74,653.79 477.15,649.07 C509.38,625.34 565.73,583.62 585.71,568.69 C598.08,559.44 608.36,552.03 608.56,552.22 C608.96,552.62 624.00,597.54 624.00,598.34 C624.00,598.63 617.47,603.67 609.50,609.55 C601.53,615.43 595.00,620.41 595.00,620.61 C595.00,620.82 599.09,626.84 604.10,633.98 C611.99,645.24 613.44,646.83 615.03,645.98 C617.45,644.69 624.16,644.73 627.68,646.06 C631.52,647.51 635.96,651.83 637.62,655.72 C639.60,660.35 639.33,667.43 637.00,672.00 C634.58,676.75 634.57,676.89 636.90,679.91 L 638.75 682.32 L 641.78 680.16 C648.56,675.33 652.64,679.34 646.43,684.73 L 642.72 687.96 L 647.80 695.73 C653.12,703.85 658.26,714.07 657.44,714.89 C656.63,715.71 649.08,707.87 642.85,699.75 L 636.91 691.99 L 633.13 694.17 C626.38,698.05 622.88,693.29 629.25,688.89 C631.04,687.66 632.66,686.53 632.86,686.38 C633.06,686.23 632.25,684.76 631.07,683.10 C629.20,680.47 628.59,680.20 626.40,681.04 C617.47,684.43 606.39,678.44 603.48,668.63 C601.82,663.04 602.76,657.40 606.03,653.24 C607.86,650.91 607.85,650.90 598.84,638.21 C593.87,631.22 589.68,625.36 589.51,625.18 C589.16,624.83 538.16,662.27 468.50,714.01 C461.35,719.32 430.52,742.12 400.00,764.67 C369.48,787.22 323.43,821.27 297.68,840.34 C271.94,859.40 250.72,875.00 250.55,875.00 C250.37,875.00 251.48,871.06 253.02,866.25 ZM 290.89 830.79 C300.02,824.08 314.25,813.58 322.50,807.46 C385.50,760.75 427.56,729.62 451.50,712.00 C511.17,668.07 610.89,594.24 612.46,592.83 C613.35,592.04 606.54,569.00 605.42,569.00 C604.97,569.00 599.32,573.10 576.50,590.02 C569.35,595.31 540.10,616.98 511.50,638.15 C482.90,659.33 449.83,683.85 438.00,692.65 C426.17,701.44 398.27,722.06 376.00,738.48 C353.73,754.90 332.00,770.96 327.72,774.17 C323.44,777.38 319.76,780.00 319.54,780.00 C319.31,780.00 319.97,777.41 320.99,774.25 C333.30,736.18 350.98,682.11 362.75,646.57 L 377.29 602.64 L 374.40 600.33 C372.80,599.06 368.27,595.76 364.32,593.00 L 357.13 587.99 L 337.13 648.24 C326.13,681.38 308.76,734.15 298.53,765.50 C288.29,796.85 278.40,827.11 276.53,832.75 C274.67,838.39 273.40,843.00 273.71,843.00 C274.02,843.00 281.75,837.51 290.89,830.79 ZM 628.60 671.60 C631.35,668.85 632.00,667.42 632.00,664.15 C632.00,658.83 630.25,655.18 626.85,653.42 C620.71,650.24 613.39,652.54 610.54,658.55 C608.15,663.59 609.16,668.06 613.57,671.92 C618.61,676.35 623.96,676.24 628.60,671.60 ZM 750.99 858.33 C738.62,849.25 714.10,831.13 696.50,818.07 C657.58,789.20 541.08,703.21 528.20,693.85 L 518.89 687.09 L 526.70 681.35 C530.99,678.19 539.82,671.63 546.31,666.78 C553.20,661.64 558.62,658.25 559.31,658.66 C560.45,659.33 641.00,718.58 668.85,739.23 C676.19,744.68 682.37,748.96 682.59,748.74 C682.92,748.41 639.57,618.00 592.09,476.51 C584.34,453.42 578.00,434.18 578.00,433.76 C578.00,433.34 589.17,433.00 602.82,433.00 L 627.64 433.00 L 633.48 450.25 C636.69,459.74 639.45,467.67 639.61,467.87 C639.85,468.17 654.59,462.96 667.21,458.12 C669.88,457.09 669.91,457.02 668.46,453.57 C666.36,448.53 666.58,445.27 669.08,444.48 C671.70,443.64 672.14,444.11 674.11,449.82 C675.47,453.76 676.09,454.46 678.05,454.23 C679.33,454.08 680.58,453.75 680.84,453.49 C681.09,453.24 680.30,449.66 679.08,445.54 C677.85,441.42 677.14,437.59 677.49,437.02 C678.47,435.43 680.49,435.75 695.61,439.91 L 709.72 443.79 L 720.91 440.40 C727.06,438.53 734.66,436.74 737.80,436.42 L 743.50 435.84 L 740.04 438.15 C738.14,439.42 730.94,442.73 724.04,445.51 L 711.50 450.55 L 702.99 461.75 C691.90,476.35 691.39,476.85 689.62,474.96 C688.86,474.16 687.24,470.45 686.02,466.71 C684.04,460.62 683.59,459.99 681.66,460.57 C678.18,461.62 677.99,462.28 679.72,467.08 C681.66,472.49 680.96,475.28 677.76,474.82 C676.06,474.58 675.05,473.21 673.61,469.20 C672.57,466.28 671.21,464.09 670.61,464.32 C670.00,464.55 663.42,466.90 656.00,469.53 C648.58,472.17 642.38,474.41 642.24,474.51 C642.09,474.61 658.37,523.92 678.41,584.09 C732.23,745.69 774.36,873.98 773.79,874.54 C773.62,874.71 763.36,867.42 750.99,858.33 ZM 730.96 780.45 C705.30,702.57 622.55,454.35 619.68,446.67 L 617.50 440.83 L 605.25 440.67 C598.51,440.58 593.00,440.79 593.00,441.15 C593.00,441.51 608.54,488.08 627.53,544.65 C671.11,674.46 705.45,778.89 704.76,779.57 C704.59,779.74 690.73,769.78 673.97,757.43 C657.21,745.08 634.05,728.02 622.50,719.51 C610.95,711.00 591.16,696.40 578.52,687.07 L 555.54 670.11 L 552.52 672.35 C550.86,673.59 546.46,676.80 542.75,679.49 C539.04,682.18 536.03,684.64 536.06,684.94 C536.09,685.25 540.48,688.64 545.81,692.48 C555.69,699.60 638.39,760.52 692.34,800.43 C737.56,833.87 750.47,843.10 750.76,842.21 C750.91,841.76 742.00,813.97 730.96,780.45 ZM 698.44 456.19 C701.07,452.72 703.00,449.67 702.75,449.41 C702.21,448.88 688.47,445.00 687.10,445.00 C686.59,445.00 687.58,449.27 689.30,454.49 C691.02,459.70 692.71,463.64 693.05,463.24 C693.40,462.83 695.82,459.66 698.44,456.19 ZM 318.20 872.80 C315.01,869.61 318.96,864.84 323.00,867.00 C326.41,868.82 324.93,874.00 321.00,874.00 C320.12,874.00 318.86,873.46 318.20,872.80 ZM 496.50 858.39 C446.84,855.37 403.38,843.74 359.38,821.69 L 346.63 815.30 L 358.07 806.84 C383.00,788.38 391.63,782.20 394.54,780.71 C400.33,777.77 409.29,776.81 419.79,778.01 C425.13,778.61 434.22,778.98 440.00,778.81 L 450.49 778.50 L 439.00 774.11 C429.84,770.61 425.83,769.62 419.27,769.24 C414.74,768.97 411.28,768.35 411.59,767.86 C411.89,767.37 413.99,766.02 416.27,764.86 C419.60,763.17 421.57,762.86 426.45,763.28 C429.78,763.56 433.29,764.11 434.25,764.50 C435.79,765.13 436.00,764.56 436.00,759.75 C436.00,746.86 449.14,739.41 457.36,747.64 C460.77,751.04 461.74,756.22 459.60,759.49 C457.51,762.67 453.36,763.79 451.30,761.73 C449.61,760.04 450.30,758.00 452.56,758.00 C454.59,758.00 454.35,754.63 452.17,752.65 C449.69,750.41 448.34,750.57 445.45,753.45 C442.52,756.39 442.13,762.31 444.63,765.89 C448.49,771.40 460.08,773.56 469.17,770.46 C475.02,768.47 483.59,760.74 487.86,753.63 C494.14,743.18 492.88,730.81 485.25,727.90 C479.19,725.59 472.00,729.74 472.00,735.55 C472.00,737.31 472.65,739.30 473.45,739.96 C475.00,741.24 479.00,740.50 479.00,738.93 C479.00,738.42 479.87,738.00 480.93,738.00 C483.62,738.00 484.52,741.56 482.57,744.53 C479.49,749.23 472.65,748.97 467.98,743.98 C460.25,735.70 464.95,725.95 480.99,717.01 C486.07,714.18 496.35,706.17 510.14,694.31 C511.59,693.06 513.16,694.04 524.14,703.05 C530.94,708.63 540.63,715.64 545.68,718.62 C555.36,724.33 558.64,728.01 559.66,734.30 C561.24,744.05 548.97,752.06 542.45,745.55 C539.59,742.68 539.37,740.78 541.63,738.52 C543.13,737.01 543.42,737.05 545.44,738.94 C548.27,741.60 549.60,741.54 551.50,738.64 C554.11,734.65 550.26,728.51 544.46,727.43 C537.55,726.13 532.00,732.10 532.00,740.83 C532.00,750.71 544.40,766.90 554.64,770.39 C564.04,773.60 575.00,771.61 579.01,765.98 C583.96,759.03 578.75,748.31 572.43,752.45 C569.48,754.39 569.31,756.56 572.00,758.00 C573.10,758.59 574.00,759.72 574.00,760.52 C574.00,762.47 569.68,763.44 567.12,762.06 C559.49,757.98 564.05,745.59 573.64,744.33 C581.21,743.34 588.38,751.08 588.38,760.24 C588.38,764.71 588.56,765.08 590.44,764.53 C598.88,762.06 608.01,763.14 611.53,767.04 C613.28,768.97 613.21,769.00 606.90,769.01 C599.48,769.01 596.01,769.86 583.00,774.85 L 573.50 778.50 L 578.50 779.16 C581.25,779.52 588.67,779.31 595.00,778.69 C609.35,777.28 619.25,777.35 624.74,778.88 C629.21,780.14 631.41,781.58 657.24,800.26 C679.99,816.71 677.75,814.72 675.44,816.46 C672.81,818.44 647.10,830.26 635.16,834.97 C606.41,846.33 575.10,854.04 546.00,856.93 C534.88,858.04 505.14,858.91 496.50,858.39 ZM 552.00 844.48 C584.85,840.27 628.53,827.09 655.45,813.28 L 659.24 811.33 L 650.15 804.67 C645.16,801.00 640.89,798.00 640.67,798.00 C640.44,798.00 640.04,799.98 639.76,802.41 C638.11,817.05 618.46,822.34 609.47,810.56 C602.41,801.29 609.82,788.60 620.18,792.21 C624.67,793.78 626.64,799.39 623.59,801.93 C622.46,802.86 621.68,802.57 619.77,800.51 C616.96,797.48 614.00,798.00 614.00,801.53 C614.00,805.23 615.04,806.97 618.24,808.63 C627.77,813.55 636.90,801.91 631.04,792.30 C626.90,785.51 620.53,784.25 599.41,786.04 C575.82,788.04 563.94,785.91 550.00,777.18 C542.44,772.44 538.24,768.66 533.25,762.09 C522.77,748.30 522.20,731.47 531.96,723.83 L 535.16 721.32 L 530.33 717.38 C521.26,709.99 521.80,710.18 523.50,715.00 C525.21,719.83 525.48,725.00 524.02,725.00 C522.71,725.00 520.52,721.48 518.42,716.00 C517.47,713.53 516.32,711.07 515.85,710.55 C515.38,710.03 515.00,725.18 515.00,744.30 L 515.00 779.00 L 524.50 779.00 C531.05,779.00 534.00,779.36 534.00,780.16 C534.00,780.80 530.14,786.46 525.42,792.74 C520.71,799.02 517.06,804.71 517.31,805.38 C517.57,806.05 521.25,811.15 525.48,816.72 C533.17,826.82 534.37,830.11 530.65,830.83 C528.41,831.26 525.51,828.62 520.40,821.49 C518.26,818.49 516.18,816.03 515.78,816.02 C515.39,816.01 514.94,820.61 514.78,826.25 C514.50,836.44 514.49,836.50 512.00,836.50 C509.52,836.50 509.50,836.40 509.00,826.00 L 508.50 815.50 L 502.63 823.25 C496.77,830.99 494.40,832.40 492.05,829.56 C490.54,827.74 490.94,827.03 500.34,814.64 L 507.82 804.77 L 498.91 792.83 C494.01,786.26 490.00,780.46 490.00,779.94 C490.00,779.42 494.24,779.00 499.50,779.00 L 509.00 779.00 L 508.96 744.25 L 508.93 709.50 L 505.59 716.61 C502.07,724.11 500.35,726.08 499.43,723.67 C498.92,722.36 500.11,716.49 501.72,712.29 C502.05,711.42 499.34,713.05 495.70,715.92 L 489.07 721.13 L 492.59 724.21 C497.76,728.75 499.00,731.87 499.00,740.32 C499.00,746.79 498.56,748.62 495.51,754.71 C489.06,767.60 472.52,780.81 458.00,784.66 C450.54,786.64 434.99,786.99 416.79,785.60 C406.76,784.83 404.44,784.94 400.69,786.37 C394.44,788.76 391.81,791.95 391.24,797.82 C390.82,802.19 391.10,803.08 393.80,806.11 C396.40,809.01 397.49,809.50 401.31,809.50 C406.94,809.50 410.00,807.01 410.00,802.45 C410.00,798.27 407.24,796.98 404.79,800.02 C402.61,802.70 399.61,802.23 399.17,799.14 C398.63,795.39 402.56,792.00 407.45,792.00 C412.34,792.00 415.27,793.83 416.98,797.94 C419.43,803.86 415.68,812.04 408.93,815.54 C404.29,817.94 397.04,817.41 392.29,814.34 C387.82,811.44 384.00,805.65 384.00,801.78 C384.00,800.43 383.74,799.07 383.42,798.76 C383.11,798.44 380.02,800.28 376.56,802.84 C373.10,805.40 369.00,808.43 367.45,809.56 L 364.63 811.62 L 378.56 817.73 C415.20,833.80 450.19,842.95 486.50,845.96 C501.67,847.21 536.92,846.42 552.00,844.48 ZM 516.88 792.54 C519.15,789.54 521.00,786.84 521.00,786.54 C521.00,786.24 516.95,786.00 512.00,786.00 C507.05,786.00 503.00,786.22 503.00,786.49 C503.00,787.33 511.46,797.99 512.13,798.00 C512.48,798.00 514.61,795.54 516.88,792.54 ZM 221.97 840.94 C221.15,839.40 221.17,838.50 222.05,837.44 C223.85,835.27 227.75,835.64 228.52,838.05 C229.88,842.36 224.09,844.91 221.97,840.94 ZM 846.13 821.75 C844.33,812.93 843.20,811.59 836.35,810.07 C827.20,808.05 827.02,807.46 834.93,805.52 C843.27,803.47 844.29,802.35 846.05,793.25 C846.72,789.81 847.61,787.00 848.03,787.00 C848.45,787.00 849.54,790.34 850.45,794.42 C851.36,798.50 852.64,802.27 853.30,802.79 C853.96,803.31 856.97,804.30 860.00,805.00 C868.37,806.91 869.10,807.64 863.96,808.94 C852.65,811.80 852.69,811.77 850.61,820.28 C849.58,824.52 848.43,828.00 848.06,828.00 C847.70,828.00 846.83,825.19 846.13,821.75 ZM 189.04 820.32 C188.38,816.57 187.20,811.19 186.42,808.36 C185.18,803.85 184.55,803.04 181.25,801.74 C179.19,800.93 174.35,799.68 170.50,798.96 C159.23,796.86 159.86,796.08 175.29,793.00 C185.03,791.05 185.97,789.51 189.43,769.75 C189.79,767.69 190.46,766.00 190.92,766.00 C191.37,766.00 192.27,768.81 192.92,772.25 C195.04,783.47 196.95,788.92 199.28,790.41 C200.50,791.20 205.32,792.63 210.00,793.58 C222.88,796.23 222.83,796.48 208.72,799.49 C197.74,801.83 196.45,803.23 193.90,815.50 C192.76,821.00 191.47,825.87 191.04,826.32 C190.61,826.78 189.71,824.08 189.04,820.32 ZM 194.72 796.93 C196.17,796.88 196.08,796.66 194.25,795.78 C193.01,795.18 191.99,793.98 191.98,793.10 C191.96,791.83 191.59,791.94 190.23,793.63 C189.28,794.80 187.82,796.00 187.00,796.30 C185.80,796.73 185.84,796.86 187.21,796.92 C188.16,796.96 189.46,798.00 190.11,799.21 L 191.30 801.43 L 192.12 799.21 C192.57,798.00 193.74,796.97 194.72,796.93 ZM 792.38 804.46 C791.04,802.42 790.94,801.43 791.84,799.44 C794.70,793.18 803.00,794.58 803.00,801.32 C803.00,803.13 802.46,805.14 801.80,805.80 C799.58,808.02 794.21,807.25 792.38,804.46 ZM 258.17 784.30 C241.56,769.05 220.25,744.34 205.30,723.00 C169.57,671.97 146.87,613.14 139.34,552.00 C136.89,532.06 136.90,489.24 139.36,469.50 C140.88,457.36 146.17,427.93 147.49,424.23 C148.03,422.74 158.00,429.49 157.99,431.34 C157.99,431.98 156.88,438.26 155.53,445.29 C150.97,468.95 149.59,484.54 149.64,511.50 C149.72,546.70 152.70,569.36 161.49,601.50 C178.89,665.10 211.38,720.47 259.55,768.56 L 271.63 780.62 L 269.73 786.31 C268.69,789.44 267.53,791.99 267.17,791.97 C266.80,791.95 262.75,788.50 258.17,784.30 ZM 756.52 790.84 C756.25,790.10 755.35,787.54 754.52,785.14 L 753.01 780.79 L 768.13 765.14 C798.64,733.58 819.80,703.72 838.02,666.50 C871.99,597.13 882.34,526.09 869.48,450.50 C868.17,442.80 866.81,435.11 866.45,433.40 C865.86,430.56 866.22,430.01 870.95,426.53 C873.78,424.46 876.25,422.93 876.44,423.13 C876.62,423.33 878.18,430.70 879.89,439.50 C897.03,527.57 882.57,614.33 837.53,693.50 C820.99,722.59 802.05,747.59 777.04,773.36 C763.72,787.08 757.18,792.65 756.52,790.84 ZM 264.69 751.79 C236.36,721.46 218.57,695.95 201.01,660.50 C183.86,625.90 173.94,593.69 168.44,554.75 C166.31,539.71 165.43,497.19 166.91,481.00 C168.77,460.55 172.04,441.80 173.63,442.41 C174.38,442.70 185.64,450.92 198.66,460.69 C225.50,480.83 226.36,481.80 231.10,497.50 C232.76,503.00 235.77,512.67 237.79,519.00 L 241.45 530.50 L 242.27 524.00 C243.48,514.45 242.55,502.37 240.13,496.06 C238.99,493.07 238.27,490.40 238.54,490.13 C239.40,489.27 246.19,496.38 247.56,499.58 C248.29,501.28 249.19,504.98 249.57,507.80 C250.23,512.78 250.32,512.89 252.35,511.47 C254.90,509.68 262.60,509.57 265.97,511.28 C269.53,513.08 273.00,518.73 273.00,522.71 C273.00,531.78 264.94,537.03 259.45,531.55 C256.79,528.88 256.59,528.20 257.88,526.16 C258.59,525.04 259.09,525.04 260.85,526.14 C263.77,527.97 266.55,525.33 265.62,521.61 C264.18,515.88 255.79,515.68 251.79,521.29 C249.95,523.87 249.51,525.78 249.54,531.00 C249.62,542.93 256.17,552.50 268.39,558.54 C282.10,565.32 294.07,562.65 296.96,552.17 C298.03,548.29 296.26,542.68 293.24,540.38 C291.05,538.72 285.78,538.62 284.20,540.20 C282.32,542.08 282.79,545.82 285.06,547.03 C288.10,548.66 287.27,552.41 283.77,552.81 C279.41,553.32 276.00,549.20 276.00,543.45 C276.00,539.50 276.51,538.29 279.40,535.40 C282.27,532.53 283.51,532.00 287.33,532.00 C293.69,532.00 295.96,533.09 305.00,540.44 C309.37,543.99 318.69,550.74 325.72,555.42 C332.75,560.10 339.31,564.58 340.30,565.37 C342.01,566.72 341.79,567.64 336.08,583.15 C332.76,592.14 328.91,604.00 327.52,609.50 C325.28,618.35 324.53,619.93 321.03,623.25 C317.55,626.56 316.49,627.00 312.07,627.00 C307.94,627.00 306.48,626.48 303.65,624.00 C299.67,620.50 298.80,617.39 300.61,613.08 C301.67,610.56 302.48,610.00 305.06,610.00 C308.15,610.00 308.21,610.09 307.55,613.58 C305.87,622.52 316.29,621.81 318.51,612.83 C320.14,606.26 312.62,599.15 305.29,600.34 C296.27,601.80 285.59,612.73 282.37,623.79 C278.21,638.10 286.66,655.00 297.96,655.00 C304.21,655.00 307.68,650.01 304.96,644.93 C303.59,642.37 299.00,642.30 299.00,644.83 C299.00,647.29 298.26,647.88 295.94,647.27 C293.02,646.51 293.22,639.66 296.22,637.56 C300.83,634.33 308.71,636.60 311.48,641.97 C313.70,646.25 313.41,652.61 310.85,656.21 C308.54,659.46 303.59,662.00 299.57,662.00 L 297.08 662.00 L 300.29 667.16 C303.02,671.54 303.50,673.27 303.50,678.61 C303.50,687.20 301.64,688.91 299.64,682.16 C297.70,675.62 294.16,669.64 288.23,662.86 C285.62,659.88 282.51,656.11 281.31,654.47 L 279.12 651.50 L 280.10 655.90 C281.09,660.38 283.76,667.40 290.59,683.50 C294.14,691.89 294.40,693.15 294.33,702.00 C294.25,711.14 293.93,712.46 285.83,736.93 C281.20,750.92 276.92,762.53 276.32,762.73 C275.73,762.92 270.49,758.01 264.69,751.79 ZM 277.94 735.03 C279.65,729.55 281.28,724.43 281.58,723.65 C282.02,722.51 281.34,722.39 277.99,723.00 C261.48,726.02 249.37,706.76 260.10,694.54 C265.71,688.15 273.75,687.54 278.47,693.15 C281.59,696.86 281.78,701.74 278.93,705.37 C275.18,710.13 270.20,707.73 273.00,702.50 C274.79,699.15 273.64,697.00 270.05,697.00 C266.25,697.00 263.63,700.69 263.81,705.82 C263.97,710.58 269.41,716.00 274.03,716.00 C283.23,716.00 288.93,707.36 286.90,696.50 C286.43,693.97 283.52,685.96 280.45,678.70 C270.98,656.36 269.10,643.76 272.98,628.60 C276.56,614.60 284.07,603.38 294.21,596.86 C298.90,593.85 300.20,593.50 306.55,593.50 C312.65,593.50 314.23,593.89 317.91,596.32 C320.26,597.88 322.30,599.00 322.45,598.82 C322.59,598.65 323.63,595.80 324.75,592.50 C325.87,589.20 327.11,585.70 327.51,584.72 C328.07,583.35 327.03,583.69 323.09,586.14 C319.46,588.39 317.62,589.02 316.88,588.28 C315.31,586.71 317.02,584.14 322.97,579.12 C325.80,576.74 327.91,574.57 327.65,574.32 C327.39,574.06 319.29,576.58 309.64,579.92 C299.99,583.27 291.88,586.00 291.61,586.00 C291.35,586.00 285.93,587.85 279.56,590.10 L 268.00 594.21 L 267.98 597.85 C267.93,605.79 261.80,613.85 254.22,615.96 C246.51,618.10 240.43,616.42 233.96,610.36 C231.33,607.91 228.97,606.26 228.70,606.70 C228.44,607.14 228.23,610.44 228.24,614.04 C228.25,619.11 227.67,621.72 225.64,625.72 C222.67,631.59 221.76,632.38 218.99,631.50 C216.49,630.70 216.49,629.40 219.01,623.72 C220.11,621.22 221.30,617.12 221.64,614.59 C222.39,609.16 222.05,609.06 213.51,612.00 C207.12,614.20 204.65,613.48 205.20,609.59 C205.43,608.02 207.10,606.94 211.96,605.21 C215.52,603.94 218.62,602.72 218.85,602.48 C219.94,601.39 213.46,594.84 208.81,592.31 C203.01,589.16 202.38,588.23 204.32,585.58 C205.50,583.96 206.10,583.88 209.25,584.92 C214.62,586.69 220.62,591.44 223.20,595.97 C224.47,598.18 226.00,599.99 226.62,599.99 C227.24,600.00 228.05,597.68 228.43,594.84 C229.51,586.68 232.63,582.19 239.70,578.62 C243.60,576.65 251.90,576.52 256.30,578.35 C258.08,579.09 261.06,581.44 262.92,583.56 L 266.31 587.42 L 295.41 577.59 C311.41,572.18 324.93,567.36 325.45,566.88 C326.00,566.37 323.87,566.00 320.33,566.00 C311.67,566.00 307.84,565.09 308.21,563.12 C308.44,561.92 310.04,561.37 314.36,561.00 L 320.21 560.50 L 312.77 555.43 L 305.32 550.36 L 304.18 554.62 C299.94,570.49 278.78,574.14 260.45,562.18 C242.57,550.50 234.30,537.31 226.51,508.04 C221.63,489.71 218.47,483.98 211.57,480.93 C204.27,477.70 197.06,480.75 194.89,487.96 C193.36,493.07 195.67,498.40 200.38,500.65 C203.65,502.20 204.04,502.20 206.44,500.63 C210.06,498.26 209.81,495.11 205.95,494.34 C203.36,493.82 202.94,493.33 203.20,491.11 C203.45,488.97 204.09,488.44 206.76,488.19 C211.22,487.76 216.00,492.41 216.00,497.17 C215.99,505.33 208.30,510.61 200.05,508.13 C191.81,505.66 187.00,499.16 187.00,490.49 C187.00,482.94 191.14,476.53 197.84,473.71 L 201.12 472.33 L 191.61 465.18 C186.38,461.25 181.91,458.36 181.67,458.77 C181.44,459.17 180.63,464.23 179.87,470.00 C177.77,486.07 178.05,537.89 180.32,554.00 C189.69,620.46 218.73,682.38 265.01,734.57 C270.10,740.30 274.39,745.00 274.55,745.00 C274.71,745.00 276.24,740.51 277.94,735.03 ZM 253.51 608.56 C258.53,606.46 261.21,601.66 260.70,595.70 C259.76,584.79 247.22,579.74 239.37,587.12 C237.06,589.29 234.34,595.68 235.31,596.65 C235.59,596.93 238.29,596.38 241.30,595.43 C247.36,593.52 250.00,593.95 250.00,596.85 C250.00,599.42 248.30,600.66 242.71,602.15 C240.12,602.85 238.00,603.69 238.00,604.03 C238.00,604.93 242.24,608.65 244.00,609.29 C246.70,610.28 250.00,610.03 253.51,608.56 ZM 745.22 757.25 C744.10,754.09 741.97,747.45 740.50,742.50 C739.02,737.55 735.78,727.45 733.28,720.07 C729.13,707.78 728.79,706.05 729.31,699.83 C729.69,695.27 731.09,690.13 733.54,684.26 C740.03,668.70 743.75,658.59 744.47,654.51 L 745.18 650.52 L 741.84 655.15 C740.00,657.70 736.52,662.20 734.10,665.14 C729.25,671.05 724.00,681.25 724.00,684.75 C724.00,688.18 722.30,687.43 720.98,683.42 C719.35,678.51 720.50,672.18 724.02,666.63 L 726.96 662.00 L 724.38 662.00 C722.96,662.00 720.22,661.25 718.28,660.33 C706.62,654.80 709.77,636.00 722.35,636.00 C728.54,636.00 733.13,642.72 729.46,646.40 C727.39,648.47 725.51,648.00 725.50,645.42 C725.50,642.79 721.05,642.20 719.31,644.60 C716.09,649.00 719.87,655.00 725.86,655.00 C739.76,655.00 747.60,633.99 739.60,618.19 C733.94,607.03 723.00,599.03 715.36,600.46 C710.00,601.47 706.00,605.88 706.00,610.79 C706.00,617.98 712.28,622.58 716.43,618.43 C717.64,617.22 717.75,616.40 716.92,614.85 C715.31,611.84 716.53,609.81 719.74,610.18 C725.91,610.90 726.10,620.66 720.02,624.98 C714.35,629.02 704.52,626.77 700.41,620.50 C699.47,619.07 697.46,613.04 695.94,607.10 C694.42,601.17 690.66,589.65 687.59,581.51 C684.52,573.37 682.00,566.56 682.00,566.38 C682.00,566.20 688.64,561.67 696.75,556.33 C704.86,550.99 714.65,544.07 718.50,540.97 C728.77,532.70 730.38,531.83 735.50,531.83 C742.95,531.83 748.20,536.66 748.20,543.50 C748.20,547.90 745.77,551.77 742.49,552.59 C736.83,554.01 735.07,550.12 739.70,546.42 C742.35,544.31 742.37,544.21 740.68,541.63 C736.71,535.58 727.00,540.54 727.00,548.63 C727.00,560.83 740.38,565.84 754.79,559.02 C763.05,555.12 771.10,547.10 773.32,540.56 C777.46,528.43 773.39,517.00 764.95,517.00 C762.13,517.00 758.00,520.68 758.00,523.19 C758.00,525.92 760.86,527.57 763.12,526.16 C767.08,523.69 768.59,528.41 765.00,532.00 C762.23,534.77 758.58,534.50 754.98,531.25 C749.21,526.04 750.45,516.13 757.42,511.89 C761.15,509.61 768.70,509.40 771.68,511.49 C773.76,512.94 773.83,512.85 774.52,507.84 C775.51,500.64 777.34,496.79 781.49,493.15 C786.21,489.00 787.22,489.17 785.01,493.75 C782.19,499.59 781.19,507.52 781.76,519.50 L 782.30 530.50 L 784.23 526.00 C785.29,523.53 787.94,514.97 790.12,507.00 C796.77,482.69 798.35,480.52 822.00,463.17 C829.97,457.32 839.58,450.17 843.35,447.27 C847.12,444.37 850.54,442.00 850.95,442.00 C851.67,442.00 853.84,453.58 856.01,469.03 C856.59,473.17 857.45,484.42 857.92,494.03 C862.11,580.23 834.38,662.07 777.44,731.57 C768.60,742.36 749.28,763.00 748.03,763.00 C747.61,763.00 746.35,760.41 745.22,757.25 ZM 766.40 726.00 C789.21,699.07 809.37,665.85 822.23,634.00 C826.55,623.29 833.74,601.84 836.07,592.73 C844.33,560.37 847.95,524.00 846.05,492.38 C845.19,478.00 843.20,459.13 842.44,458.17 C842.10,457.74 824.59,471.07 824.19,472.06 C824.03,472.48 824.78,473.11 825.86,473.46 C835.57,476.54 840.16,490.93 834.51,500.57 C831.94,504.96 825.54,509.00 821.15,509.00 C814.55,509.00 808.00,503.16 808.00,497.29 C808.00,492.80 812.55,488.00 816.80,488.00 C822.59,488.00 823.46,493.26 817.87,494.38 C815.46,494.86 814.92,495.42 815.18,497.21 C815.59,500.07 819.39,501.99 822.84,501.07 C826.04,500.22 830.00,494.70 830.00,491.10 C829.99,487.87 826.81,482.50 824.00,481.00 C820.29,479.01 814.27,479.56 810.21,482.24 C805.60,485.29 802.11,492.10 798.53,505.03 C790.76,533.12 786.81,541.27 775.52,552.50 C759.64,568.30 740.87,573.65 728.37,565.92 C724.89,563.77 720.63,557.52 719.49,552.87 L 718.85 550.25 L 711.32 555.37 L 703.79 560.50 L 709.64 561.00 C714.67,561.43 715.50,561.78 715.50,563.50 C715.50,565.30 714.67,565.55 707.00,566.00 C700.12,566.40 698.88,566.71 700.50,567.60 C701.60,568.20 714.91,572.90 730.07,578.05 L 757.64 587.40 L 761.39 583.26 C765.93,578.23 770.32,576.64 778.09,577.20 C787.71,577.90 794.47,584.70 795.67,594.90 C796.01,597.71 796.61,600.00 797.02,600.00 C797.43,600.00 799.60,597.57 801.84,594.59 C808.65,585.58 820.50,581.14 820.50,587.61 C820.50,588.84 818.78,590.42 815.50,592.18 C811.10,594.55 805.00,600.28 805.00,602.05 C805.00,602.40 806.91,603.25 809.25,603.95 C815.77,605.90 819.00,607.87 819.00,609.90 C819.00,613.57 816.71,614.14 810.49,612.00 C801.91,609.04 801.61,609.15 802.37,614.75 C802.72,617.36 804.09,621.60 805.42,624.18 C807.50,628.22 807.64,629.10 806.47,630.68 C802.44,636.11 793.79,619.96 795.59,610.36 C796.44,605.84 794.82,605.99 789.47,610.92 C785.30,614.77 779.98,616.99 775.00,616.98 C771.82,616.98 763.03,612.88 760.79,610.36 C758.24,607.49 756.00,601.52 756.00,597.61 C756.00,593.54 759.09,594.91 721.03,582.08 L 694.55 573.15 L 701.28 579.40 C704.97,582.83 708.00,586.15 708.00,586.76 C708.00,589.24 705.71,588.99 700.84,586.00 C696.82,583.52 695.89,583.24 696.49,584.68 C697.38,586.81 700.88,595.92 701.52,597.78 C701.83,598.69 703.14,598.28 706.07,596.34 C712.23,592.26 720.26,591.92 727.42,595.42 C742.24,602.67 753.00,622.77 753.00,643.21 C753.00,654.09 750.49,663.58 743.32,679.75 C738.62,690.38 737.61,693.66 737.28,699.50 C736.80,707.82 738.91,712.23 744.49,714.56 C748.91,716.41 751.37,716.38 755.13,714.43 C763.25,710.23 761.81,696.20 753.35,697.18 C749.93,697.57 749.08,700.33 751.55,703.06 C752.96,704.61 753.05,705.24 752.02,706.48 C750.10,708.78 747.39,708.31 744.98,705.25 C743.31,703.13 742.93,701.61 743.32,698.65 C744.39,690.62 751.54,687.15 759.28,690.89 C770.02,696.09 770.90,711.02 760.97,719.37 C757.09,722.64 754.59,723.28 747.55,722.85 C744.10,722.63 742.16,722.88 742.44,723.50 C742.68,724.05 744.36,729.18 746.16,734.90 L 749.43 745.30 L 754.32 739.90 C757.00,736.93 762.44,730.67 766.40,726.00 ZM 782.03 607.75 C783.85,606.51 785.50,605.04 785.68,604.48 C785.86,603.92 783.42,602.57 780.26,601.48 C774.36,599.45 772.70,597.27 774.97,594.54 C775.92,593.39 777.07,593.49 782.11,595.19 C785.41,596.31 788.36,596.97 788.67,596.66 C789.59,595.74 787.12,589.75 784.79,587.28 C777.45,579.46 764.25,584.64 763.30,595.72 C762.37,606.56 773.36,613.62 782.03,607.75 ZM 893.37 749.34 C892.88,747.39 893.19,746.33 894.54,745.34 C895.55,744.60 896.66,744.00 897.00,744.00 C897.34,744.00 898.45,744.60 899.46,745.34 C900.81,746.33 901.12,747.39 900.63,749.34 C900.09,751.47 899.37,752.00 897.00,752.00 C894.63,752.00 893.91,751.47 893.37,749.34 ZM 170.42 736.50 C169.65,733.26 168.73,732.14 165.59,730.60 L 161.71 728.70 L 165.10 727.60 C167.91,726.69 168.75,725.71 169.95,722.00 L 171.39 717.50 L 172.45 721.00 C173.94,725.95 174.63,726.76 178.01,727.50 C181.99,728.38 181.79,729.63 177.55,730.43 C174.47,731.00 173.95,731.58 172.74,735.79 L 171.37 740.50 L 170.42 736.50 ZM 847.04 733.55 C844.38,730.35 848.29,725.43 851.75,727.61 C855.21,729.79 853.98,735.00 850.00,735.00 C849.03,735.00 847.70,734.35 847.04,733.55 ZM 366.99 712.53 C368.87,707.57 372.38,701.33 377.27,694.23 C380.03,690.22 382.11,686.82 381.89,686.65 C381.68,686.49 380.01,685.32 378.19,684.07 C375.90,682.48 374.98,681.13 375.19,679.65 C375.62,676.69 378.69,676.40 382.19,678.98 C385.60,681.50 387.00,681.23 388.89,677.71 C390.10,675.45 389.95,674.60 387.48,669.56 C385.14,664.76 384.81,663.07 385.25,658.14 C385.99,649.98 391.23,640.00 394.78,640.00 C395.59,640.00 399.10,642.04 402.59,644.53 L 408.94 649.06 L 414.28 641.78 C426.07,625.72 429.23,620.84 428.38,620.04 C427.90,619.59 410.62,606.72 390.00,591.44 C369.38,576.16 343.95,557.30 333.50,549.51 C323.05,541.73 300.55,525.01 283.50,512.36 C266.45,499.72 240.80,480.67 226.50,470.03 C212.20,459.40 192.24,444.57 182.15,437.10 C151.95,414.72 102.57,377.83 101.55,376.88 C101.00,376.37 164.97,376.00 253.25,376.00 L 405.89 376.00 L 404.46 380.75 C403.68,383.36 400.19,394.05 396.71,404.50 L 390.39 423.50 L 317.46 424.00 L 244.54 424.50 L 254.02 431.45 C259.23,435.27 277.45,448.80 294.50,461.52 C311.55,474.24 340.58,495.84 359.00,509.52 C377.42,523.20 405.55,544.12 421.50,556.02 C437.45,567.91 462.20,586.33 476.50,596.94 C490.80,607.55 502.95,616.67 503.50,617.19 C504.15,617.81 503.29,619.12 501.00,620.96 C494.89,625.89 465.96,647.00 465.32,647.00 C464.98,647.00 458.01,641.99 449.82,635.87 C441.63,629.74 434.80,624.90 434.64,625.12 C434.48,625.33 430.37,631.12 425.51,638.00 C420.64,644.88 416.26,651.03 415.77,651.68 C415.15,652.49 416.91,654.36 421.40,657.68 C425.27,660.54 427.93,663.26 427.96,664.36 C428.03,667.58 420.29,675.71 414.43,678.58 C410.07,680.71 408.01,681.15 404.23,680.75 C401.63,680.47 398.76,679.93 397.86,679.56 C396.71,679.08 395.55,679.82 393.96,682.06 L 391.69 685.24 L 395.52 688.45 C398.21,690.71 399.15,692.17 398.69,693.36 C397.57,696.28 395.13,696.33 391.42,693.51 C389.47,692.02 387.74,690.96 387.59,691.15 C387.44,691.34 385.36,694.20 382.96,697.50 C378.15,704.14 368.16,715.00 366.87,715.00 C366.42,715.00 366.47,713.89 366.99,712.53 ZM 411.79 672.10 C413.83,671.05 416.54,669.08 417.81,667.72 L 420.11 665.25 L 415.86 662.13 C413.52,660.41 411.36,659.01 411.05,659.02 C409.94,659.06 401.05,672.28 401.58,673.13 C402.51,674.63 407.92,674.08 411.79,672.10 ZM 399.77 662.09 C402.06,658.84 404.06,655.74 404.22,655.19 C404.58,653.90 396.42,647.92 395.51,648.82 C394.00,650.32 392.00,656.44 392.00,659.58 C392.00,662.94 393.78,668.00 394.96,668.00 C395.32,668.00 397.48,665.34 399.77,662.09 ZM 478.36 627.99 C483.11,624.59 487.24,621.42 487.53,620.95 C487.82,620.48 480.28,614.32 470.78,607.25 C461.28,600.18 429.65,576.67 400.50,555.00 C371.35,533.33 322.75,497.17 292.50,474.64 C262.25,452.11 231.06,428.91 223.19,423.08 L 208.87 412.50 L 297.35 412.24 L 385.83 411.99 L 389.84 399.99 L 393.85 388.00 L 265.23 388.00 C191.19,388.00 137.00,388.37 137.55,388.88 C139.08,390.29 157.47,404.00 290.00,502.50 C310.62,517.83 336.27,536.90 347.00,544.87 C357.73,552.85 372.35,563.71 379.50,569.02 C430.89,607.16 461.00,629.62 464.00,632.05 C465.92,633.62 468.00,634.74 468.60,634.54 C469.21,634.34 473.60,631.39 478.36,627.99 ZM 104.99 703.25 C104.99,702.29 104.52,699.83 103.96,697.78 C103.06,694.55 102.37,693.91 98.71,692.91 C91.48,690.95 91.37,690.78 96.48,689.42 C102.17,687.90 103.59,686.40 104.52,680.91 C105.36,675.89 106.80,675.91 107.61,680.95 C108.37,685.72 110.29,687.62 116.10,689.36 L 120.50 690.68 L 116.00 692.01 C109.85,693.83 108.20,695.49 107.43,700.62 C106.79,704.86 105.01,706.80 104.99,703.25 ZM 878.50 693.98 C877.66,689.00 876.08,687.37 870.73,685.93 L 866.55 684.80 L 871.52 683.15 C876.18,681.61 876.61,681.17 878.13,676.50 C879.11,673.50 879.98,672.10 880.31,673.00 C880.60,673.83 881.37,676.19 882.00,678.26 C883.02,681.55 883.70,682.15 887.57,683.12 C892.57,684.38 892.59,685.48 887.61,686.41 C883.46,687.19 882.39,688.39 881.48,693.26 C880.50,698.47 879.30,698.76 878.50,693.98 ZM 142.04 665.07 C140.73,662.63 141.62,660.26 144.14,659.46 C147.88,658.27 150.60,663.00 147.80,665.80 C146.00,667.60 143.20,667.25 142.04,665.07 ZM 920.38 661.56 C919.41,659.03 920.45,656.51 922.60,656.20 C925.28,655.82 927.35,658.33 926.52,660.95 C925.75,663.36 921.24,663.80 920.38,661.56 ZM 436.63 659.30 C434.69,657.36 436.31,653.36 440.74,649.11 C446.43,643.67 447.50,645.10 443.56,652.88 C441.11,657.72 437.96,660.63 436.63,659.30 ZM 583.24 656.75 C580.70,654.04 576.68,645.00 578.02,645.00 C578.54,645.00 581.00,646.95 583.48,649.33 C586.63,652.35 588.00,654.47 588.00,656.33 C588.00,659.61 586.08,659.78 583.24,656.75 ZM 119.01 634.02 C118.17,632.45 118.37,631.63 120.00,630.00 C122.25,627.75 125.20,628.49 126.40,631.60 C127.92,635.55 121.04,637.81 119.01,634.02 ZM 397.00 628.45 C397.00,625.85 399.76,621.38 403.09,618.58 C404.83,617.11 406.47,616.14 406.74,616.40 C407.52,617.18 404.17,626.16 402.35,628.17 C400.33,630.40 397.00,630.58 397.00,628.45 ZM 621.62 627.54 C619.20,624.92 616.42,617.24 617.51,616.16 C618.73,614.94 627.00,624.76 627.00,627.44 C627.00,630.75 624.64,630.79 621.62,627.54 ZM 907.45 613.55 C906.10,612.20 905.00,610.38 905.00,609.50 C905.00,607.27 909.52,603.00 911.88,603.00 C914.00,603.00 918.00,607.36 918.00,609.68 C918.00,611.60 913.47,616.00 911.50,616.00 C910.62,616.00 908.80,614.90 907.45,613.55 ZM 511.77 612.00 C511.44,611.17 510.67,600.15 510.06,587.50 C508.24,549.49 508.65,550.36 503.02,572.58 C497.40,594.77 495.05,603.00 494.35,603.00 C493.67,603.00 494.70,593.14 497.60,572.00 C498.92,562.38 499.98,554.05 499.96,553.50 C499.93,552.95 495.63,561.05 490.40,571.50 C480.77,590.72 477.15,596.54 478.58,590.50 C479.23,587.71 489.35,558.21 491.95,551.50 C493.52,547.46 492.65,548.43 480.73,564.00 C468.40,580.11 465.09,583.90 465.04,581.99 C465.00,580.43 475.76,560.96 482.36,550.64 C484.43,547.42 485.96,544.63 485.77,544.44 C485.58,544.25 481.62,547.51 476.96,551.68 C456.40,570.12 452.59,573.27 452.21,572.14 C451.80,570.90 461.70,558.80 473.24,546.45 C476.96,542.47 480.00,538.94 480.00,538.62 C480.00,538.29 477.19,539.74 473.75,541.84 C462.32,548.81 439.27,562.00 438.51,562.00 C436.81,562.00 441.15,558.28 457.40,545.81 C476.34,531.27 477.45,530.34 474.50,531.48 C473.40,531.90 465.75,534.64 457.50,537.55 C449.25,540.46 438.11,544.45 432.75,546.40 C427.39,548.36 423.00,549.60 423.00,549.16 C423.00,548.72 434.14,542.88 447.75,536.19 C461.36,529.49 472.00,524.01 471.38,524.01 C470.77,524.00 460.64,525.35 448.88,527.01 C421.98,530.79 422.00,530.78 422.00,530.01 C422.00,529.24 435.81,525.22 456.45,519.99 L 471.40 516.19 L 465.95 515.65 C462.95,515.35 452.87,514.61 443.55,514.02 C434.24,513.43 426.40,512.73 426.14,512.47 C424.77,511.10 425.00,511.07 463.00,508.34 L 471.50 507.73 L 458.50 504.36 C439.37,499.41 431.00,496.82 431.00,495.85 C431.00,494.50 436.30,494.87 454.45,497.49 C463.77,498.83 471.52,499.82 471.66,499.67 C471.80,499.53 464.25,495.61 454.88,490.96 C438.82,482.98 435.03,480.64 436.22,479.44 C436.50,479.16 445.68,482.06 456.62,485.89 C467.55,489.71 475.55,492.09 474.39,491.17 C473.24,490.25 466.94,485.38 460.39,480.33 C434.73,460.56 435.19,458.86 461.88,474.87 C471.85,480.86 480.00,485.53 480.00,485.27 C480.00,485.01 476.68,481.13 472.63,476.65 C461.30,464.14 449.01,449.59 449.00,448.69 C449.00,447.36 452.28,450.03 469.74,465.55 C482.92,477.26 485.92,479.54 484.08,476.43 C482.80,474.27 476.79,463.95 470.73,453.50 C464.67,443.05 458.99,433.38 458.12,432.00 C456.61,429.62 456.62,429.57 458.35,430.94 C459.35,431.73 466.94,441.41 475.23,452.44 C493.52,476.81 493.59,476.89 491.45,471.00 C483.59,449.39 477.31,429.94 478.30,430.26 C478.96,430.47 484.10,439.84 489.73,451.07 C495.36,462.31 499.97,470.99 499.98,470.37 C499.99,469.75 498.88,461.42 497.50,451.87 C496.13,442.32 495.02,433.15 495.04,431.50 C495.06,428.78 495.19,428.67 496.40,430.26 C497.82,432.13 507.00,465.19 507.00,468.43 C507.00,469.47 507.24,470.10 507.53,469.80 C507.82,469.51 508.68,460.41 509.43,449.57 C510.19,438.73 511.08,429.59 511.40,429.26 C512.79,427.88 513.33,430.70 514.20,443.73 C514.70,451.30 515.37,460.42 515.69,464.00 L 516.27 470.50 L 520.14 455.50 C530.13,416.75 531.58,420.93 524.46,468.00 C524.12,470.24 527.41,464.64 533.55,452.50 C543.65,432.54 545.88,428.55 546.59,429.25 C547.01,429.68 540.11,450.50 534.16,466.75 C532.50,471.29 531.51,475.00 531.96,475.00 C532.42,475.00 533.05,474.30 533.38,473.45 C534.09,471.59 559.56,437.97 564.02,433.00 L 567.16 429.50 L 565.20 433.00 C562.87,437.18 542.65,472.00 539.66,477.00 L 537.56 480.50 L 542.11 476.50 C544.62,474.30 552.81,466.99 560.33,460.25 C567.84,453.51 574.51,448.00 575.15,448.00 C576.48,448.00 577.14,447.17 562.93,463.41 C548.16,480.28 544.00,485.12 544.00,485.44 C544.00,485.60 552.18,480.84 562.19,474.86 C580.00,464.23 585.33,461.77 581.56,465.94 C580.59,467.00 572.90,473.18 564.47,479.67 C556.03,486.16 549.26,491.59 549.41,491.74 C549.56,491.90 558.15,489.08 568.49,485.49 C578.83,481.90 587.49,479.16 587.75,479.41 C588.94,480.60 585.54,482.73 569.17,491.03 C557.66,496.87 552.72,499.81 555.00,499.47 C568.13,497.50 587.84,495.00 590.19,495.00 C591.74,495.00 593.00,495.44 593.00,495.97 C593.00,497.09 587.36,498.83 567.00,504.01 L 552.50 507.70 L 562.50 508.37 C608.22,511.44 609.53,512.64 569.68,514.94 C561.54,515.41 554.68,515.99 554.45,516.22 C554.22,516.45 557.51,517.45 561.76,518.44 C568.72,520.05 598.42,528.27 601.89,529.54 C606.50,531.22 599.41,530.63 577.59,527.52 C564.00,525.59 552.63,524.00 552.32,524.00 C552.00,524.00 563.11,529.64 577.00,536.54 C600.86,548.39 606.52,551.70 597.46,548.52 C586.00,544.49 557.79,534.57 553.03,532.89 C550.02,531.82 547.99,531.35 548.53,531.82 C549.06,532.30 556.92,538.33 566.00,545.23 C581.88,557.29 587.33,562.00 585.40,562.00 C584.90,562.00 575.38,556.64 564.25,550.10 C553.11,543.55 544.31,538.71 544.69,539.35 C545.07,539.98 547.50,542.75 550.10,545.50 C556.71,552.51 570.93,569.15 572.10,571.25 C573.74,574.20 571.34,573.30 566.78,569.25 C564.45,567.19 561.19,564.32 559.53,562.89 C557.86,561.45 552.47,556.63 547.53,552.19 C542.60,547.74 538.37,544.30 538.12,544.54 C537.88,544.79 538.37,545.78 539.22,546.74 C540.06,547.71 544.13,554.35 548.26,561.50 C552.38,568.65 556.73,576.15 557.92,578.16 C559.13,580.20 559.68,582.08 559.15,582.40 C558.15,583.03 552.40,576.21 538.99,558.50 C534.41,552.45 531.02,548.40 531.45,549.50 C535.68,560.36 546.15,592.18 545.65,592.69 C544.72,593.61 545.16,594.38 534.06,572.50 C528.31,561.18 524.14,553.93 524.44,555.80 C526.66,569.60 530.06,597.74 529.81,600.33 C529.60,602.50 527.71,596.91 523.80,582.50 C520.66,570.95 517.76,559.70 517.35,557.50 L 516.60 553.50 L 515.92 556.50 C515.54,558.15 515.14,564.00 515.02,569.50 C514.70,584.49 512.46,613.71 511.77,612.00 ZM 524.52 541.09 C530.30,538.54 537.42,531.84 539.98,526.53 C547.85,510.28 541.56,491.65 525.49,483.63 C517.91,479.85 511.52,479.34 503.24,481.86 C494.29,484.58 488.19,489.84 483.91,498.53 C480.96,504.52 480.78,505.52 481.18,513.24 C481.54,519.98 482.16,522.52 484.53,526.87 C488.82,534.76 496.62,540.81 505.50,543.13 C509.97,544.30 519.61,543.27 524.52,541.09 ZM 89.54 602.75 C86.25,587.98 86.73,588.51 73.75,585.46 C69.49,584.45 66.00,583.34 66.00,582.98 C66.00,582.62 69.65,581.49 74.10,580.48 C85.42,577.89 86.42,576.89 89.06,565.48 C90.26,560.27 91.64,556.00 92.12,556.00 C92.61,556.00 93.01,556.79 93.02,557.75 C93.04,561.11 97.07,575.50 98.33,576.76 C99.04,577.46 103.75,579.02 108.80,580.22 C113.86,581.42 118.00,582.68 118.00,583.02 C118.00,583.36 114.51,584.43 110.25,585.40 C105.99,586.37 101.67,587.39 100.65,587.68 C98.30,588.34 95.59,594.61 93.93,603.25 C93.22,606.96 92.30,610.00 91.90,610.00 C91.49,610.00 90.43,606.74 89.54,602.75 ZM 935.98 567.40 C934.72,561.87 933.01,557.01 931.96,555.96 C930.93,554.93 926.57,553.36 922.06,552.39 C917.63,551.44 914.00,550.32 914.00,549.90 C914.00,549.48 916.59,548.61 919.75,547.96 C932.80,545.26 933.40,544.66 936.09,531.50 C936.77,528.20 937.67,524.83 938.09,524.00 C939.06,522.12 939.22,522.56 941.52,533.40 C943.68,543.54 945.21,545.05 955.75,547.45 C960.29,548.48 964.00,549.63 964.00,550.01 C964.00,550.38 960.21,551.48 955.57,552.46 C949.82,553.66 946.52,554.91 945.21,556.36 C943.36,558.41 940.00,569.73 940.00,573.90 C940.00,574.99 939.59,576.14 939.08,576.45 C938.58,576.76 937.18,572.69 935.98,567.40 ZM 671.50 535.67 C667.23,523.48 663.54,512.97 663.29,512.32 C663.04,511.67 667.04,508.03 672.17,504.24 C694.96,487.40 739.25,454.42 758.27,440.11 L 779.03 424.50 L 619.02 424.25 C531.01,424.11 459.00,423.68 459.00,423.30 C459.00,422.93 462.49,412.13 466.75,399.32 L 474.50 376.02 L 491.75 376.01 L 509.00 376.00 L 509.00 363.06 L 509.00 350.11 L 504.75 349.81 C501.14,349.55 500.45,349.14 500.16,347.11 C499.76,344.27 501.39,343.04 505.58,343.02 C509.93,342.99 509.59,340.34 504.93,337.97 C497.54,334.19 494.50,323.73 498.54,315.93 C500.17,312.78 500.15,312.69 497.48,310.57 C494.55,308.23 494.41,305.40 497.16,303.67 C498.46,302.85 499.59,303.31 502.44,305.81 C508.44,311.08 509.00,310.48 509.02,298.75 C509.04,288.56 510.41,275.77 511.70,273.67 C513.05,271.50 514.16,278.76 514.71,293.33 C515.35,310.15 515.86,311.09 521.53,306.11 C525.47,302.65 526.07,302.47 527.80,304.20 C529.70,306.10 529.21,308.69 526.53,310.80 L 524.06 312.74 L 526.17 317.73 C529.51,325.64 526.63,334.30 519.51,337.70 C514.58,340.05 514.59,343.47 519.53,343.58 C527.03,343.74 526.69,349.25 519.15,349.81 L 515.00 350.11 L 515.00 363.06 L 515.00 376.00 L 719.25 376.01 L 923.50 376.02 L 920.04 378.76 C915.28,382.52 809.96,460.86 690.38,549.59 L 679.26 557.84 L 671.50 535.67 ZM 727.93 507.00 C787.96,462.35 810.85,445.35 849.00,417.05 C868.53,402.57 885.16,390.11 885.96,389.36 C887.20,388.21 855.42,388.00 683.30,388.00 L 479.18 388.00 L 475.16 400.00 L 471.15 412.00 L 642.57 412.00 C736.86,412.00 813.98,412.34 813.97,412.75 C813.94,413.42 787.26,433.40 701.00,497.38 C686.97,507.78 675.10,516.65 674.61,517.09 C673.84,517.77 676.47,526.57 680.94,538.35 L 682.01 541.16 L 685.81 538.33 C687.90,536.77 706.85,522.67 727.93,507.00 ZM 518.75 329.45 C524.94,322.41 516.59,312.06 508.21,316.39 C504.15,318.49 502.36,323.04 504.02,327.04 C506.57,333.21 514.32,334.48 518.75,329.45 ZM 392.01 523.83 C381.45,516.03 372.57,509.06 372.29,508.32 C372.01,507.59 374.22,499.79 377.20,490.99 L 382.61 475.00 L 375.06 472.12 C370.90,470.54 363.80,467.95 359.28,466.37 L 351.06 463.50 L 347.28 467.40 C342.58,472.24 338.52,474.00 332.00,474.00 C325.80,474.00 321.52,472.26 317.24,467.99 C313.84,464.60 310.41,455.38 311.29,452.01 C311.68,450.50 310.26,449.61 303.13,446.95 C293.27,443.26 283.44,438.53 282.51,437.02 C281.10,434.73 293.60,437.12 307.35,441.78 L 313.19 443.75 L 317.38 439.57 C324.72,432.23 335.35,431.05 343.37,436.69 C348.35,440.19 351.00,444.59 352.43,451.74 L 353.53 457.23 L 367.01 461.97 C374.43,464.58 381.45,467.01 382.62,467.38 C384.31,467.92 384.95,467.49 385.79,465.28 C387.33,461.26 417.90,368.59 439.00,304.00 C469.84,209.59 477.78,185.10 491.50,142.00 C497.37,123.57 504.15,102.27 506.58,94.65 C509.01,87.04 511.00,80.18 511.00,79.40 C511.00,74.81 513.38,80.82 520.43,103.27 C531.47,138.37 603.15,359.78 605.65,366.50 C606.09,367.68 557.02,367.45 555.90,366.26 C555.31,365.63 525.45,275.38 515.38,243.75 C512.86,235.85 511.00,232.72 511.00,236.38 C511.00,238.65 412.32,538.00 411.57,538.00 C411.38,538.00 402.58,531.62 392.01,523.83 ZM 405.00 521.83 C405.00,521.19 416.66,485.53 430.90,442.58 C461.70,349.73 495.24,247.70 504.54,218.50 C508.23,206.95 511.52,197.19 511.87,196.81 C512.22,196.43 516.08,207.23 520.46,220.81 C524.83,234.39 536.81,271.15 547.07,302.50 L 565.74 359.50 L 577.54 359.78 C584.02,359.94 589.65,359.71 590.03,359.28 C590.41,358.85 584.67,340.05 577.27,317.50 C554.74,248.83 537.72,196.56 524.82,156.37 C518.05,135.31 512.22,118.40 511.86,118.79 C511.50,119.18 509.09,126.25 506.51,134.50 C493.85,174.94 443.90,328.04 408.30,435.50 C395.37,474.55 384.72,506.88 384.64,507.35 C384.50,508.18 402.81,522.71 404.25,522.90 C404.66,522.96 405.00,522.48 405.00,521.83 ZM 337.68 466.06 C342.65,463.80 345.32,459.36 345.33,453.33 C345.33,448.43 343.14,444.66 338.70,441.96 C328.59,435.80 315.87,445.39 318.96,456.84 C320.39,462.18 322.71,464.80 327.50,466.49 C332.63,468.31 332.72,468.31 337.68,466.06 ZM 106.00 515.00 C103.60,512.60 103.46,510.21 105.56,507.22 C107.41,504.58 112.10,504.24 114.43,506.57 C116.45,508.59 116.45,513.41 114.43,515.43 C112.26,517.59 108.40,517.40 106.00,515.00 ZM 956.04 506.08 C955.16,504.44 955.35,503.65 957.00,502.00 C959.80,499.20 963.26,500.88 962.81,504.82 C962.40,508.33 957.72,509.21 956.04,506.08 ZM 62.10 504.10 C59.83,501.83 60.21,499.49 63.09,497.95 C64.53,497.18 65.43,497.43 67.04,499.04 C69.44,501.44 69.26,502.75 66.27,504.74 C64.38,505.99 63.92,505.92 62.10,504.10 ZM 353.17 489.48 C349.39,487.83 349.10,484.70 352.68,484.19 C354.84,483.88 360.72,486.47 364.50,489.39 C366.38,490.85 366.21,490.94 361.50,490.93 C358.75,490.93 355.00,490.27 353.17,489.48 ZM 660.06 489.43 C662.06,487.02 668.89,483.84 671.32,484.19 C672.51,484.36 673.63,485.30 673.82,486.27 C674.25,488.55 668.61,491.00 662.91,491.00 C659.24,491.00 658.91,490.81 660.06,489.43 ZM 917.04 483.55 C914.38,480.35 918.29,475.43 921.75,477.61 C925.21,479.79 923.98,485.00 920.00,485.00 C919.03,485.00 917.70,484.35 917.04,483.55 ZM 85.16 459.00 C83.79,452.36 82.07,450.62 75.74,449.46 C70.43,448.49 70.25,447.28 75.22,445.97 C82.36,444.08 83.79,442.65 85.16,436.00 C85.84,432.70 86.70,430.00 87.07,430.00 C87.44,430.00 88.27,432.71 88.92,436.01 C90.26,442.79 91.67,444.16 99.24,446.05 C104.65,447.40 104.67,448.46 99.30,449.47 C92.04,450.83 90.41,452.33 89.01,458.95 C88.30,462.28 87.43,465.00 87.06,465.00 C86.70,465.00 85.84,462.30 85.16,459.00 ZM 370.38 443.91 C365.92,442.62 364.22,440.35 366.21,438.37 C367.58,436.99 368.25,437.05 372.80,439.01 C375.58,440.21 378.63,442.04 379.58,443.09 C381.25,444.94 381.19,445.00 377.40,444.91 C375.26,444.86 372.09,444.41 370.38,443.91 ZM 644.00 444.18 C644.00,442.39 652.42,438.00 655.84,438.00 C658.31,438.00 659.00,438.43 659.00,439.96 C659.00,442.55 656.44,443.81 649.61,444.62 C645.81,445.06 644.00,444.92 644.00,444.18 ZM 934.04 436.55 C930.83,432.69 934.12,425.63 938.85,426.20 C940.20,426.37 942.24,427.76 943.38,429.30 C945.30,431.87 945.34,432.30 943.95,434.80 C942.13,438.05 936.16,439.11 934.04,436.55 ZM 372.45 367.04 C347.03,366.44 345.97,366.19 341.90,359.70 C339.38,355.68 339.91,349.79 343.09,346.40 C346.06,343.24 352.41,343.02 354.01,346.02 C355.37,348.57 354.52,350.00 351.64,350.00 C347.08,350.00 345.69,353.69 349.00,357.00 C351.70,359.70 357.89,359.68 360.80,356.97 C365.37,352.72 364.89,347.10 359.47,341.09 C352.54,333.42 337.03,329.84 326.27,333.41 C315.79,336.89 308.47,346.84 310.92,354.26 C312.35,358.60 316.02,360.73 319.78,359.41 C321.92,358.66 322.50,357.81 322.50,355.48 C322.50,352.82 322.21,352.53 319.75,352.82 C316.81,353.17 316.34,352.10 318.04,348.93 C319.53,346.14 325.04,346.35 327.83,349.31 C329.36,350.95 330.00,352.89 330.00,355.91 C330.00,359.45 329.41,360.79 326.60,363.60 C323.67,366.53 322.53,367.00 318.35,367.00 C312.41,366.99 307.58,364.28 305.41,359.73 L 303.84 356.45 L 299.79 360.19 C294.99,364.62 288.64,367.28 283.91,366.83 L 280.51 366.50 L 285.50 363.31 C288.25,361.55 291.91,358.62 293.63,356.81 C297.34,352.89 307.27,339.00 306.37,339.00 C305.20,339.00 298.59,343.29 287.00,351.57 C273.73,361.04 267.62,364.30 260.20,365.88 C256.97,366.56 243.58,367.00 225.94,367.00 L 196.98 367.00 L 201.95 357.10 C242.41,276.47 314.48,213.08 398.87,183.90 C419.21,176.87 446.81,170.39 468.71,167.51 L 473.91 166.82 L 470.53 177.16 C468.67,182.85 464.60,195.38 461.48,205.00 C458.37,214.62 454.77,224.32 453.50,226.53 C450.36,231.97 443.51,238.16 431.50,246.44 C421.34,253.43 410.63,261.96 411.24,262.57 C411.94,263.27 427.72,258.72 432.62,256.40 C435.44,255.07 439.85,252.12 442.42,249.86 C444.99,247.60 447.29,245.96 447.55,246.21 C448.35,247.02 445.76,253.38 443.29,256.65 C441.99,258.38 438.48,261.07 435.50,262.63 C430.13,265.45 430.10,265.48 432.00,267.50 C439.69,275.68 437.20,288.80 427.34,292.05 C422.85,293.54 416.79,291.97 414.54,288.75 C412.55,285.91 412.57,280.58 414.57,278.57 C417.94,275.20 422.88,278.03 419.90,281.62 C418.78,282.97 418.87,283.43 420.48,284.61 C422.95,286.42 423.24,286.38 426.37,283.93 C433.93,277.97 424.63,267.14 414.33,269.91 C400.64,273.60 392.00,286.59 392.00,303.49 C392.00,309.13 392.53,311.68 394.57,315.77 C397.25,321.13 402.00,325.00 405.92,325.00 C409.38,325.00 413.83,322.22 415.48,319.03 C417.54,315.06 417.40,313.58 414.69,310.43 C411.90,307.19 408.53,307.74 407.56,311.60 C406.72,314.96 402.66,314.62 402.17,311.15 C401.32,305.17 405.31,301.00 411.87,301.00 C417.40,301.00 424.00,308.58 424.00,314.93 C424.00,316.59 422.02,324.37 419.61,332.23 C417.19,340.08 413.74,351.34 411.95,357.25 L 408.68 368.00 L 402.09 367.79 C398.47,367.68 385.13,367.34 372.45,367.04 ZM 384.50 358.43 C379.92,354.98 378.00,352.93 378.00,351.51 C378.00,348.91 381.47,349.85 387.34,354.06 C390.45,356.29 393.00,357.81 393.00,357.44 C393.00,356.48 381.55,340.08 367.72,321.21 L 355.78 304.93 L 350.11 305.57 C344.10,306.25 338.50,304.67 334.68,301.21 C329.46,296.49 327.40,286.00 330.50,279.99 L 332.01 277.09 L 325.25 275.11 C321.54,274.02 315.89,272.39 312.69,271.48 C307.33,269.95 306.91,269.62 307.19,267.16 C307.62,263.47 310.22,263.34 320.58,266.50 C325.33,267.94 329.34,268.99 329.51,268.81 C329.67,268.64 327.38,265.14 324.40,261.04 C321.43,256.94 319.00,253.26 319.00,252.86 C319.00,251.33 322.13,249.11 323.54,249.66 C324.36,249.97 327.43,253.56 330.37,257.63 L 335.71 265.03 L 336.35 258.27 C336.70,254.54 336.99,249.39 336.99,246.82 C337.00,242.98 337.37,242.02 339.05,241.48 C343.31,240.13 343.89,242.16 343.27,256.06 L 342.70 269.00 L 348.20 269.00 C352.72,269.00 354.44,269.53 357.82,271.99 C363.62,276.19 366.34,281.90 365.77,288.71 C365.49,292.10 364.52,295.15 363.13,297.03 L 360.94 300.00 L 364.80 305.25 C366.93,308.14 372.87,316.35 378.01,323.50 C394.29,346.17 400.25,354.09 400.68,353.65 C400.92,353.42 400.33,350.32 399.39,346.77 C398.44,343.22 397.98,339.51 398.35,338.52 C399.01,336.81 399.13,336.81 400.98,338.48 C402.05,339.45 403.45,341.87 404.08,343.87 C404.72,345.87 405.54,347.83 405.90,348.23 C406.26,348.63 407.72,345.14 409.14,340.48 L 411.72 332.00 L 406.93 332.00 C400.61,332.00 397.29,330.65 392.74,326.23 C387.28,320.92 385.00,313.98 385.01,302.71 C385.03,291.74 386.63,285.09 391.70,275.00 C396.85,264.74 409.57,252.07 425.69,241.13 C439.55,231.72 444.90,226.45 447.50,219.63 C449.27,215.01 449.27,214.75 447.41,210.28 C444.82,204.07 439.64,201.19 434.04,202.87 C429.55,204.22 427.00,207.62 427.00,212.26 C427.00,216.15 428.50,218.00 431.64,218.00 C433.43,218.00 433.94,217.35 434.19,214.75 C434.43,212.26 435.03,211.43 436.75,211.18 C438.43,210.94 439.26,211.56 440.05,213.64 C443.44,222.55 432.23,229.90 424.51,223.83 C412.99,214.77 421.06,195.00 436.27,195.00 C442.32,195.00 445.74,196.38 450.04,200.56 L 453.58 203.99 L 456.93 193.75 C458.77,188.11 460.51,182.88 460.80,182.11 C461.49,180.28 456.26,181.02 436.30,185.60 C360.71,202.95 292.65,247.61 244.25,311.61 C234.53,324.48 215.00,355.64 215.00,358.30 C215.00,358.69 220.44,359.00 227.08,359.00 L 239.16 359.00 L 237.17 355.75 C231.36,346.31 235.28,333.50 245.38,328.91 C250.74,326.48 255.14,326.52 260.08,329.04 C268.08,333.12 270.57,342.59 265.08,348.08 C260.09,353.07 250.36,351.58 251.16,345.94 C251.47,343.74 251.91,343.53 255.66,343.81 C260.30,344.15 261.49,343.08 260.56,339.38 C260.15,337.76 258.69,336.35 256.46,335.42 C253.44,334.16 252.56,334.16 249.52,335.43 C245.61,337.06 242.01,342.18 242.00,346.10 C242.00,349.57 245.88,355.16 249.50,356.91 C256.67,360.35 266.14,357.35 280.30,347.16 C301.52,331.88 311.65,326.89 324.97,325.13 C333.03,324.06 345.20,325.35 352.36,328.04 C366.49,333.32 374.10,344.33 370.73,354.59 L 369.30 358.92 L 375.90 359.26 C379.53,359.45 383.40,359.68 384.50,359.77 L 386.50 359.94 L 384.50 358.43 ZM 353.03 297.48 C358.43,294.69 360.45,287.71 357.51,282.01 C354.06,275.34 345.51,273.79 339.89,278.81 C335.58,282.66 334.69,290.09 338.04,294.33 C341.77,299.06 347.61,300.29 353.03,297.48 ZM 615.03 365.57 C614.58,364.39 613.23,360.07 612.03,355.96 C610.83,351.86 607.77,341.98 605.24,334.00 C602.61,325.73 600.63,317.56 600.63,314.98 C600.61,306.90 606.03,301.00 613.48,301.00 C619.90,301.00 625.57,309.03 621.80,312.80 C619.88,314.72 618.21,314.20 616.80,311.26 C614.06,305.54 608.00,308.26 608.00,315.20 C608.00,321.60 614.21,326.17 620.70,324.54 C624.62,323.55 629.49,317.88 630.98,312.56 C632.74,306.29 631.81,292.89 629.20,286.90 C623.47,273.73 607.47,265.54 599.32,271.60 C593.42,276.00 594.08,284.10 600.40,284.83 C604.02,285.25 605.79,283.65 604.05,281.56 C602.26,279.41 603.48,277.00 606.35,277.00 C609.02,277.00 612.00,280.66 612.00,283.95 C612.00,285.06 610.76,287.35 609.25,289.05 C603.44,295.55 593.64,293.41 589.13,284.67 C586.13,278.83 586.80,274.33 591.47,269.17 L 594.82 265.45 L 590.66 263.69 C588.37,262.72 585.52,261.11 584.32,260.11 C580.87,257.24 577.00,250.95 577.00,248.24 C577.00,245.79 577.04,245.81 580.96,249.35 C583.14,251.32 587.17,254.07 589.91,255.45 C594.33,257.69 610.69,263.00 613.17,263.00 C614.80,263.00 605.78,255.70 593.38,246.97 C580.93,238.20 573.05,230.93 570.37,225.74 C569.49,224.04 564.58,210.10 559.47,194.75 L 550.16 166.84 L 555.33 167.48 C584.27,171.11 618.21,180.27 646.04,191.98 C720.66,223.36 783.93,282.15 820.51,354.10 L 827.07 367.00 L 797.75 367.00 C758.80,367.00 758.72,366.98 735.00,350.04 C722.41,341.04 717.27,337.96 718.56,340.17 C718.98,340.90 721.98,345.20 725.21,349.72 C729.63,355.89 732.72,359.00 737.62,362.22 L 744.16 366.50 L 740.83 366.83 C735.63,367.35 730.20,365.23 725.38,360.78 C722.95,358.54 720.83,356.89 720.68,357.10 C720.52,357.32 719.61,358.76 718.64,360.30 C713.33,368.79 699.75,369.22 695.52,361.03 C692.11,354.45 695.22,347.00 701.37,347.00 C704.98,347.00 707.00,348.51 707.00,351.20 C707.00,352.46 706.24,353.00 704.47,353.00 C701.22,353.00 700.25,355.52 702.53,358.04 C706.11,361.99 712.46,359.40 713.56,353.54 C714.45,348.76 712.60,343.98 708.23,339.80 C702.67,334.47 698.45,332.72 690.00,332.23 C675.20,331.36 662.02,338.93 660.35,349.26 C659.12,356.80 669.39,362.58 675.00,357.50 C678.13,354.67 677.34,350.65 673.51,350.00 C671.64,349.68 670.39,348.79 670.16,347.61 C669.71,345.26 671.59,344.04 675.66,344.02 C682.55,343.98 686.33,353.67 682.11,360.58 C678.60,366.34 676.43,366.73 644.67,367.25 C615.91,367.72 615.84,367.71 615.03,365.57 ZM 652.23 359.01 C654.74,359.00 654.87,358.80 653.98,356.43 C653.44,355.02 653.00,352.08 653.00,349.90 C653.00,335.68 669.65,324.65 691.00,324.72 C707.32,324.78 718.35,329.18 739.50,344.06 C746.65,349.09 754.75,354.34 757.50,355.74 C769.55,361.87 782.00,356.71 782.00,345.58 C782.00,340.34 776.61,334.60 771.67,334.60 C767.16,334.60 763.80,337.46 764.20,340.95 C764.47,343.28 764.86,343.48 768.68,343.24 C772.16,343.02 772.97,343.33 773.52,345.06 C774.57,348.37 771.45,351.00 766.48,351.00 C755.63,351.00 752.66,336.62 762.09,329.74 C770.14,323.86 783.53,328.35 788.12,338.46 C790.61,343.93 790.46,348.75 787.64,354.33 L 785.27 359.00 L 797.59 359.00 L 809.91 359.00 L 803.83 348.25 C754.96,261.84 671.03,201.18 575.17,182.97 C568.94,181.79 563.66,181.00 563.44,181.22 C563.22,181.44 564.62,186.09 566.55,191.56 C568.49,197.03 570.28,202.12 570.55,202.87 C570.89,203.84 571.63,203.47 573.11,201.59 C580.47,192.22 596.80,193.32 602.79,203.58 C604.65,206.75 605.01,208.62 604.72,213.39 C604.39,218.69 603.98,219.63 600.69,222.64 C593.65,229.09 583.98,225.88 584.02,217.10 C584.03,212.61 585.19,210.70 587.62,211.16 C588.81,211.39 589.62,212.52 589.82,214.26 C590.27,218.21 593.39,219.61 595.98,217.02 C602.05,210.95 592.35,199.54 584.04,202.98 C576.57,206.08 574.01,214.26 577.97,222.43 C580.42,227.50 586.22,232.76 599.00,241.53 C619.99,255.94 630.08,267.00 635.61,281.69 C642.38,299.68 640.50,317.46 630.84,326.69 C626.67,330.67 623.21,332.00 617.05,332.00 L 612.24 332.00 L 614.87 340.39 C616.32,345.01 617.80,348.61 618.17,348.38 C618.54,348.16 619.14,346.65 619.49,345.04 C620.19,341.86 623.57,337.00 625.07,337.00 C626.24,337.00 626.29,343.10 625.15,346.18 C623.44,350.80 622.89,354.18 623.95,353.53 C625.06,352.84 662.00,301.47 662.00,300.62 C662.00,300.33 659.08,298.01 655.50,295.46 C649.29,291.03 647.80,288.86 650.01,287.49 C650.57,287.15 655.18,286.06 660.26,285.07 C667.12,283.73 669.39,282.91 669.08,281.88 C668.13,278.78 668.79,272.30 670.36,269.26 C672.26,265.59 678.44,262.00 682.85,262.00 L 685.78 262.00 L 683.93 258.37 C680.26,251.17 680.20,241.00 683.82,241.00 C686.63,241.00 688.00,243.08 688.00,247.36 C688.00,253.12 691.97,259.32 697.30,261.90 C702.08,264.21 705.74,264.51 710.98,263.01 C713.71,262.22 714.76,262.33 715.95,263.53 C719.85,267.42 710.39,271.72 701.30,270.19 C696.50,269.39 696.17,269.46 697.05,271.09 C698.48,273.76 698.19,280.73 696.52,283.96 C694.44,287.98 690.61,290.72 685.97,291.50 C683.79,291.87 682.00,292.37 682.00,292.60 C682.00,292.83 682.70,297.36 683.55,302.67 C684.87,310.83 684.89,312.53 683.74,313.69 C682.58,314.85 681.35,314.28 675.73,310.03 C672.08,307.26 668.73,305.02 668.29,305.04 C667.86,305.06 664.58,309.18 661.00,314.19 C641.15,342.01 630.32,357.54 630.55,357.82 C630.69,358.00 633.50,356.31 636.78,354.07 C646.07,347.73 649.23,349.04 642.25,356.34 L 638.50 360.26 L 644.00 359.64 C647.03,359.30 650.73,359.01 652.23,359.01 ZM 675.78 295.65 L 674.77 289.80 L 669.13 290.50 C662.82,291.28 661.84,291.76 664.01,293.02 C664.83,293.50 667.97,295.68 671.00,297.87 C674.02,300.05 676.57,301.76 676.65,301.67 C676.73,301.58 676.34,298.87 675.78,295.65 ZM 689.18 282.33 C691.75,280.01 691.56,274.22 688.83,271.31 C685.85,268.14 680.70,268.21 677.45,271.45 C674.77,274.14 674.40,276.59 676.11,280.35 C678.24,285.02 685.07,286.06 689.18,282.33 ZM 167.00 366.36 C167.00,365.04 181.15,336.47 186.18,327.64 C234.02,243.58 312.35,181.10 405.11,153.03 C426.01,146.70 467.21,139.00 480.15,139.00 L 482.87 139.00 L 480.86 144.94 L 478.86 150.87 L 473.18 151.50 C470.06,151.85 460.69,153.24 452.38,154.59 C337.66,173.24 236.93,248.83 185.80,354.60 L 179.80 367.00 L 173.40 367.00 C169.88,367.00 167.00,366.71 167.00,366.36 ZM 837.63 353.25 C807.57,292.80 766.45,246.13 711.00,209.49 C662.71,177.58 614.31,159.80 554.39,151.95 L 545.29 150.76 L 543.57 145.29 C542.62,142.28 542.07,139.60 542.34,139.32 C543.18,138.49 564.62,141.01 579.00,143.62 C685.86,163.07 780.36,229.27 835.41,323.25 C840.83,332.50 856.96,364.65 856.99,366.25 C856.99,366.66 854.18,367.00 850.73,367.00 L 844.47 367.00 L 837.63 353.25 ZM 487.63 364.48 C486.15,360.61 485.75,352.01 486.99,350.52 C490.17,346.68 492.22,351.24 490.82,359.05 C489.75,365.06 488.60,367.01 487.63,364.48 ZM 534.33 364.50 C533.89,363.40 533.52,359.58 533.52,356.00 C533.50,350.16 533.70,349.50 535.50,349.50 C537.30,349.50 537.49,350.14 537.43,356.01 C537.40,359.59 536.86,363.42 536.25,364.51 C535.14,366.49 535.13,366.49 534.33,364.50 ZM 918.67 339.33 C917.48,338.14 917.96,334.28 919.45,333.04 C921.20,331.59 924.59,332.48 925.40,334.61 C926.74,338.10 921.27,341.94 918.67,339.33 ZM 117.94 321.72 C114.67,319.17 114.91,314.10 118.40,311.77 C121.97,309.38 127.00,312.60 127.00,317.26 C127.00,322.09 121.73,324.68 117.94,321.72 ZM 883.00 316.01 C881.46,308.77 880.35,307.42 874.71,305.98 C867.51,304.14 867.26,303.81 872.01,302.54 C880.48,300.27 881.55,299.03 883.51,289.24 C884.34,285.10 885.56,285.82 886.38,290.95 C887.68,299.08 889.02,300.38 898.29,302.44 C902.04,303.27 900.92,304.67 895.83,305.53 C890.47,306.43 887.41,309.57 886.50,315.09 C885.29,322.42 884.41,322.65 883.00,316.01 ZM 161.00 296.64 C161.00,294.90 158.76,284.93 157.89,282.80 C156.82,280.15 153.21,278.45 144.51,276.51 C140.85,275.69 142.20,274.79 149.76,273.03 C156.48,271.45 158.30,269.10 159.97,259.84 C161.43,251.71 162.05,252.09 164.04,262.34 C165.66,270.66 166.87,271.61 179.49,274.48 C183.05,275.29 181.63,276.36 175.53,277.46 C166.95,279.00 164.78,281.61 163.39,292.08 C163.04,294.79 162.35,297.00 161.87,297.00 C161.39,297.00 161.00,296.84 161.00,296.64 ZM 837.20 284.80 C835.01,282.61 835.76,279.10 838.58,278.39 C842.37,277.44 844.75,280.06 843.20,283.46 C841.97,286.16 839.18,286.78 837.20,284.80 ZM 202.41 254.49 C201.14,249.43 207.04,246.80 209.17,251.47 C210.57,254.54 208.89,257.00 205.40,257.00 C203.71,257.00 202.86,256.28 202.41,254.49 ZM 874.05 248.56 C872.01,246.11 873.16,242.54 876.09,242.20 C879.71,241.78 881.64,244.30 880.17,247.53 C878.92,250.27 875.89,250.78 874.05,248.56 ZM 824.63 240.93 C821.63,238.56 821.32,236.41 823.56,233.22 C825.29,230.74 830.74,230.14 832.80,232.20 C834.86,234.26 834.26,239.71 831.78,241.44 C828.86,243.49 827.79,243.41 824.63,240.93 ZM 166.04 223.55 C163.38,220.35 167.29,215.43 170.75,217.61 C174.21,219.79 172.98,225.00 169.00,225.00 C168.03,225.00 166.70,224.35 166.04,223.55 ZM 222.48 209.25 C219.71,192.34 218.27,187.75 215.20,186.11 C213.28,185.08 203.65,182.57 197.75,181.55 C195.69,181.20 194.00,180.56 194.00,180.14 C194.00,179.71 198.14,178.63 203.19,177.73 C208.31,176.83 213.52,175.27 214.94,174.23 C217.87,172.08 220.32,165.17 222.04,154.25 C222.67,150.26 223.52,147.00 223.93,147.00 C224.34,147.00 225.48,151.70 226.47,157.45 C229.24,173.60 231.18,175.62 246.25,178.03 C253.97,179.27 256.03,180.54 251.75,181.43 C235.83,184.70 233.52,185.39 231.47,187.44 C229.29,189.62 227.02,197.57 225.54,208.25 C224.75,213.95 223.32,214.41 222.48,209.25 ZM 225.18 183.79 C225.38,182.42 226.45,181.34 228.00,180.93 L 230.50 180.28 L 227.75 179.17 C226.02,178.46 225.00,177.30 225.00,176.02 C225.00,174.91 224.55,174.00 224.00,174.00 C223.45,174.00 223.00,174.91 223.00,176.02 C223.00,177.24 221.94,178.52 220.35,179.25 L 217.70 180.46 L 220.10 181.02 C221.58,181.37 222.62,182.42 222.82,183.79 C223.00,185.01 223.53,186.00 224.00,186.00 C224.47,186.00 225.00,185.01 225.18,183.79 ZM 794.62 207.89 C794.38,207.13 793.70,203.28 793.10,199.35 C790.73,183.74 788.46,181.23 774.35,178.61 C762.07,176.33 762.08,176.30 775.50,173.47 C789.18,170.58 790.30,169.28 792.97,153.07 C793.84,147.80 794.99,143.59 795.52,143.71 C796.05,143.83 797.22,148.33 798.12,153.71 C800.81,169.84 801.62,170.71 816.82,173.63 C829.28,176.02 829.08,176.80 815.41,178.99 C807.19,180.31 802.40,182.87 800.87,186.75 C800.28,188.26 799.05,193.63 798.15,198.67 C796.51,207.77 795.44,210.57 794.62,207.89 ZM 799.08 177.00 C801.64,177.00 801.53,175.37 798.93,174.69 C797.78,174.39 796.60,173.19 796.29,172.02 C795.74,169.90 795.73,169.90 794.59,172.20 C793.96,173.46 792.44,174.64 791.21,174.82 C788.57,175.20 789.25,177.00 792.04,177.00 C793.30,177.00 794.20,177.94 794.65,179.74 L 795.34 182.48 L 796.25 179.74 C796.83,178.02 797.88,177.00 799.08,177.00 ZM 285.04 179.55 C282.38,176.35 286.29,171.43 289.75,173.61 C293.21,175.79 291.98,181.00 288.00,181.00 C287.03,181.00 285.70,180.35 285.04,179.55 ZM 294.75 151.42 C294.34,151.01 294.00,149.95 293.99,149.08 C293.99,148.21 293.52,145.82 292.95,143.77 C292.00,140.33 291.45,139.89 286.21,138.34 L 280.50 136.65 L 286.00 135.03 C290.81,133.62 291.65,132.98 292.69,129.96 C293.35,128.06 293.91,125.51 293.94,124.31 C294.05,120.17 295.73,121.05 296.35,125.56 C297.28,132.29 298.38,133.65 303.98,134.99 C309.71,136.37 309.77,137.46 304.15,138.36 C299.31,139.13 297.77,140.92 296.50,147.22 C295.95,149.94 295.16,151.83 294.75,151.42 ZM 679.45 147.55 C676.69,144.78 676.79,142.15 679.77,138.75 C683.05,135.02 689.00,138.05 689.00,143.43 C689.00,146.94 687.91,148.32 684.27,149.44 C682.62,149.95 681.36,149.45 679.45,147.55 ZM 748.60 138.85 C746.68,136.10 748.13,133.00 751.34,133.00 C755.60,133.00 757.31,136.55 754.43,139.43 C752.27,141.59 750.39,141.40 748.60,138.85 ZM 389.22 128.44 C384.68,125.26 387.50,118.00 393.27,118.00 C396.07,118.00 399.00,121.18 399.00,124.22 C399.00,126.51 395.51,130.00 393.22,130.00 C392.24,130.00 390.44,129.30 389.22,128.44 ZM 630.59 114.99 C630.27,113.62 629.55,110.31 628.97,107.62 C627.36,100.03 626.68,99.34 619.01,97.36 C612.74,95.75 609.78,94.00 613.32,94.00 C616.01,94.00 624.96,90.90 626.38,89.47 C627.19,88.66 628.37,85.41 629.00,82.25 C630.77,73.29 631.07,72.51 632.09,74.12 C632.58,74.88 632.98,76.43 632.98,77.57 C632.99,78.71 633.68,81.91 634.50,84.70 C636.13,90.17 637.11,90.87 646.25,93.09 C651.95,94.47 652.29,95.54 647.32,96.47 C637.04,98.40 635.15,100.30 633.42,110.50 C632.44,116.31 631.30,118.11 630.59,114.99 ZM 569.58 112.68 C566.02,110.08 570.01,104.26 573.75,106.61 C576.22,108.17 576.54,111.13 574.42,112.68 C573.43,113.41 572.34,114.00 572.00,114.00 C571.66,114.00 570.57,113.41 569.58,112.68 ZM 344.58 109.68 C341.02,107.08 345.01,101.26 348.75,103.61 C351.22,105.17 351.54,108.13 349.42,109.68 C348.43,110.41 347.34,111.00 347.00,111.00 C346.66,111.00 345.57,110.41 344.58,109.68 ZM 434.19 103.15 C432.87,96.75 431.09,94.51 426.50,93.48 C420.91,92.23 419.97,91.86 420.46,91.06 C420.73,90.62 422.71,89.98 424.86,89.64 C430.77,88.69 432.81,86.41 434.36,79.00 C435.80,72.14 436.13,72.31 438.03,80.80 C439.33,86.56 441.14,88.32 447.00,89.52 C453.39,90.82 453.63,91.70 447.96,92.92 C440.93,94.42 439.26,96.10 437.81,103.15 C437.14,106.37 436.33,109.00 436.00,109.00 C435.67,109.00 434.86,106.37 434.19,103.15 ZM 460.57 822.80 C459.25,820.92 459.23,820.29 460.38,818.55 C462.98,814.63 468.00,815.87 468.00,820.42 C468.00,825.04 463.22,826.57 460.57,822.80 ZM 557.20 823.80 C554.54,821.14 556.47,816.00 560.13,816.00 C562.19,816.00 565.00,818.60 565.00,820.50 C565.00,824.00 559.66,826.26 557.20,823.80 ZM 473.24 799.84 C471.47,798.07 471.71,796.23 473.86,795.07 C476.30,793.77 479.35,795.91 478.85,798.57 C478.41,800.84 475.01,801.61 473.24,799.84 ZM 545.44 798.83 C544.18,794.83 549.94,792.79 551.44,796.70 C551.77,797.56 551.52,798.87 550.89,799.63 C549.17,801.71 546.22,801.27 545.44,798.83 ZM 245.01 666.51 C243.30,664.46 244.55,660.28 247.12,659.46 C248.57,659.00 249.88,659.44 251.30,660.85 C253.05,662.61 253.19,663.29 252.20,665.46 C250.88,668.35 247.01,668.92 245.01,666.51 ZM 250.07 639.14 C248.63,636.44 250.95,633.53 253.83,634.44 C256.20,635.20 256.69,637.91 254.80,639.80 C253.07,641.53 251.22,641.28 250.07,639.14 ZM 227.04 561.55 C225.37,559.54 226.14,556.60 228.45,556.15 C231.09,555.64 233.23,558.71 231.93,561.14 C230.73,563.37 228.69,563.54 227.04,561.55 ZM 199.57 545.43 C197.39,543.25 197.61,540.28 200.04,538.98 C202.86,537.47 205.88,538.66 206.61,541.58 C207.76,546.16 202.94,548.80 199.57,545.43 ZM 772.04 666.07 C769.97,662.21 774.16,657.94 778.00,660.00 C780.22,661.19 780.66,664.94 778.80,666.80 C776.97,668.63 773.19,668.23 772.04,666.07 ZM 768.97 639.46 C767.28,637.42 768.84,634.50 771.61,634.50 C773.04,634.50 773.50,635.22 773.50,637.49 C773.50,640.94 771.07,641.99 768.97,639.46 ZM 792.53 561.38 C790.70,559.56 790.90,558.10 793.17,556.66 C796.67,554.46 799.76,558.84 796.80,561.80 C795.21,563.39 794.46,563.32 792.53,561.38 ZM 818.57 545.43 C816.20,543.06 816.65,540.12 819.58,538.78 C822.72,537.35 825.35,538.67 825.83,541.91 C826.49,546.36 821.78,548.64 818.57,545.43 ZM 328.05 457.56 C326.34,455.50 327.15,450.96 329.51,449.40 C332.41,447.49 336.39,449.63 336.82,453.33 C337.24,456.92 335.47,459.00 332.00,459.00 C330.48,459.00 328.71,458.35 328.05,457.56 ZM 307.31 306.36 C306.66,304.66 307.93,301.86 309.61,301.30 C311.66,300.61 314.26,303.60 313.56,305.83 C312.72,308.45 308.26,308.83 307.31,306.36 ZM 281.20 303.43 C277.43,300.78 278.96,296.00 283.58,296.00 C288.13,296.00 289.37,301.02 285.45,303.62 C283.71,304.77 283.08,304.75 281.20,303.43 ZM 372.97 257.94 C372.14,256.39 372.17,255.50 373.09,254.39 C374.95,252.15 378.44,253.07 378.84,255.89 C379.41,259.93 374.88,261.51 372.97,257.94 ZM 378.57 232.43 C376.73,230.59 376.63,229.56 378.04,226.93 C379.19,224.77 382.96,224.36 384.80,226.20 C386.64,228.04 386.23,231.81 384.07,232.96 C381.44,234.37 380.41,234.27 378.57,232.43 ZM 711.05 306.56 C708.52,303.51 712.51,299.52 715.56,302.05 C716.41,302.75 716.96,304.26 716.80,305.41 C716.43,307.98 712.82,308.70 711.05,306.56 ZM 738.11 303.37 C734.38,300.75 736.02,296.00 740.66,296.00 C743.55,296.00 745.45,299.29 744.06,301.88 C742.63,304.56 740.56,305.08 738.11,303.37 ZM 646.04 258.55 C644.31,256.47 645.16,253.55 647.60,253.20 C650.59,252.77 652.44,255.32 651.03,257.94 C649.74,260.35 647.74,260.60 646.04,258.55 ZM 639.57 232.43 C638.71,231.56 638.00,230.25 638.00,229.50 C638.00,227.92 640.69,225.00 642.14,225.00 C644.49,225.00 647.00,227.24 647.00,229.34 C647.00,233.70 642.65,235.51 639.57,232.43 Z" fill="rgba(0,0,0,1)"/>
</g>
</svg>