<svg xmlns="http://www.w3.org/2000/svg" width="1024" height="1024" viewBox="0 0 1024 1024">
<g>
<path d="M 513.71 868.38 C512.44,867.11 512.96,863.28 514.58,861.93 C516.86,860.04 519.50,862.01 519.50,865.61 C519.50,867.96 519.03,868.56 516.96,868.80 C515.57,868.96 514.10,868.77 513.71,868.38 ZM 193.00 831.46 C193.00,831.15 196.01,825.18 199.68,818.20 C225.52,769.11 259.21,722.70 310.54,665.50 C330.23,643.56 346.11,627.00 404.94,567.12 C430.00,541.62 450.65,520.35 450.83,519.87 C451.02,519.39 450.32,519.00 449.29,519.00 C448.25,519.00 436.40,518.13 422.95,517.06 C409.50,515.99 390.06,514.57 379.75,513.89 C369.44,513.22 361.00,512.29 361.00,511.83 C361.00,511.37 362.91,511.00 365.25,510.99 C367.59,510.98 386.83,509.64 408.00,507.99 C429.17,506.35 447.51,505.01 448.75,505.00 C449.99,505.00 451.00,504.59 451.00,504.09 C451.00,502.81 405.52,459.23 392.77,448.27 C374.04,432.20 362.25,424.49 347.08,418.42 L 338.36 414.93 L 337.27 405.72 C336.67,400.65 335.20,393.88 333.99,390.68 C331.43,383.86 323.86,373.62 319.33,370.85 L 316.16 368.91 L 314.08 371.14 C310.97,374.48 311.29,379.95 314.80,383.31 C316.35,384.79 318.57,386.00 319.75,386.00 C324.48,386.00 322.82,389.08 316.30,392.38 C307.72,396.72 296.96,391.28 293.43,380.81 L 292.35 377.59 L 287.61 383.54 C281.66,391.02 277.21,399.63 276.01,405.97 C274.93,411.62 276.73,420.20 280.12,425.69 L 282.16 429.00 L 275.83 428.99 C268.22,428.98 260.35,425.71 255.46,420.53 L 252.23 417.11 L 242.37 421.38 C229.31,427.05 214.11,432.44 213.35,431.68 C212.41,430.74 221.87,407.12 226.77,398.19 L 229.13 393.88 L 226.10 391.19 C221.90,387.47 218.23,378.79 217.40,370.66 L 216.71 363.82 L 222.17 366.90 C229.32,370.94 234.90,371.65 243.03,369.57 C250.13,367.75 255.79,364.79 263.84,358.68 L 269.17 354.62 L 264.54 352.27 C256.30,348.08 252.16,338.46 254.63,329.25 C255.41,326.32 256.41,326.40 257.82,329.50 C260.89,336.25 272.38,338.10 281.87,333.38 L 287.13 330.76 L 284.23 329.00 C282.64,328.03 280.76,325.72 280.04,323.87 C279.32,322.02 277.90,318.67 276.87,316.43 C275.84,314.20 275.00,311.92 275.00,311.38 C275.00,309.58 262.35,297.32 256.18,293.12 C243.91,284.79 235.67,275.90 219.00,252.98 C206.51,235.82 196.59,227.00 189.75,227.00 C184.39,227.00 180.00,222.50 180.00,217.00 C180.00,213.48 179.67,213.06 175.25,210.89 C169.26,207.95 161.08,207.74 155.72,210.39 C152.21,212.12 151.81,212.14 150.12,210.61 C144.72,205.72 144.76,190.39 150.20,184.37 C152.11,182.26 152.09,182.21 147.37,174.91 C144.76,170.87 141.31,164.43 139.69,160.59 C137.01,154.21 130.78,131.91 131.48,131.20 C131.64,131.03 135.71,131.84 140.53,133.01 C155.11,136.53 166.26,141.26 176.89,148.42 C181.61,151.60 182.48,151.88 183.89,150.65 C189.28,145.93 200.01,144.49 206.55,147.59 C211.78,150.07 212.41,151.33 210.35,155.18 C207.62,160.30 207.93,169.42 211.03,175.00 C213.26,179.02 213.95,179.53 217.51,179.82 C223.02,180.26 227.00,184.12 227.00,189.04 C227.00,191.48 227.95,194.00 229.84,196.60 C234.06,202.39 244.50,212.13 253.00,218.20 C276.29,234.84 283.62,241.62 295.65,257.68 C305.74,271.17 308.70,273.73 318.55,277.49 C323.19,279.26 327.06,281.47 328.50,283.19 L 330.86 285.99 L 332.87 283.43 C335.96,279.52 337.28,274.34 336.77,268.19 C336.35,263.14 335.90,262.24 332.15,258.91 C328.21,255.41 328.12,255.20 330.25,254.63 C334.32,253.54 342.05,253.97 344.90,255.45 C348.52,257.32 353.80,263.34 354.59,266.52 C354.94,267.88 355.54,269.00 355.93,269.00 C357.58,269.00 367.22,255.76 370.19,249.42 C374.33,240.57 374.60,232.09 370.97,224.50 C369.66,221.75 368.40,219.10 368.16,218.60 C367.39,216.97 380.51,218.69 385.42,220.86 C388.06,222.03 391.70,224.61 393.52,226.59 L 396.83 230.20 L 406.59 226.60 C415.97,223.12 435.48,217.00 437.16,217.00 C438.43,217.00 434.47,226.29 426.97,240.89 L 420.09 254.28 L 422.58 256.24 C426.80,259.56 430.11,267.45 430.73,275.64 L 431.29 283.00 L 425.25 279.89 C417.73,276.01 411.94,275.29 404.90,277.36 C398.86,279.12 389.49,284.40 383.62,289.34 L 379.74 292.60 L 384.62 295.11 C390.51,298.14 393.96,303.52 393.98,309.72 C394.00,314.50 391.68,320.09 388.97,321.79 C387.37,322.78 387.06,322.52 386.46,319.71 C385.42,314.80 382.31,312.00 377.88,312.00 C375.41,312.00 373.21,312.78 371.50,314.25 L 368.89 316.50 L 371.69 320.25 C375.14,324.86 382.02,329.84 389.71,333.29 C396.05,336.13 408.09,338.45 411.76,337.53 C413.68,337.04 414.31,337.51 415.43,340.22 C416.17,342.02 418.22,346.99 419.99,351.26 C424.80,362.89 437.21,380.67 452.46,397.78 C468.09,415.31 503.58,451.75 504.29,451.00 C504.74,450.53 507.32,418.48 510.16,378.25 C510.83,368.76 511.74,361.00 512.19,361.00 C512.63,361.00 513.00,362.20 513.00,363.68 C513.00,366.72 518.89,448.77 519.26,450.86 C519.52,452.33 553.13,418.57 569.40,400.51 C581.36,387.23 588.09,378.80 594.13,369.50 C599.87,360.68 600.28,359.90 605.56,347.65 L 609.91 337.54 L 616.71 337.29 C630.22,336.78 644.84,330.04 651.98,321.02 L 655.38 316.73 L 652.64 314.36 C647.20,309.69 639.99,311.97 637.87,319.05 C636.71,322.90 636.62,322.97 634.74,321.26 C626.68,313.97 629.10,300.40 639.39,295.10 L 644.29 292.58 L 639.89 288.75 C637.48,286.64 631.71,283.02 627.08,280.71 C619.56,276.95 617.89,276.50 611.58,276.50 C605.40,276.50 603.75,276.92 598.60,279.84 L 592.70 283.19 L 593.37 275.94 C594.15,267.57 596.40,261.87 600.78,257.21 L 603.87 253.92 L 597.98 242.70 C591.72,230.79 585.69,217.00 586.74,217.00 C588.66,217.00 604.12,221.81 614.73,225.70 L 626.96 230.19 L 630.34 226.60 C632.21,224.62 635.80,222.09 638.34,220.97 C642.86,218.97 656.00,217.05 656.00,218.39 C656.00,218.76 655.35,220.07 654.55,221.29 C653.75,222.50 652.42,226.12 651.59,229.31 C648.92,239.58 652.26,249.84 662.50,262.86 L 668.28 270.22 L 669.56 266.50 C671.02,262.25 675.17,257.51 679.34,255.34 C682.44,253.72 691.99,253.34 694.48,254.73 C695.77,255.45 695.51,255.98 692.93,257.90 C687.04,262.25 685.28,271.80 688.95,279.50 C692.31,286.53 692.46,286.62 695.64,283.20 C697.37,281.35 701.66,278.90 706.50,277.01 C716.06,273.27 718.75,270.87 729.48,256.50 C739.24,243.42 747.83,235.12 762.02,225.07 C784.95,208.82 797.00,196.64 797.00,189.70 C797.00,184.55 800.50,180.84 806.06,180.09 C809.88,179.58 810.73,178.99 812.69,175.50 C816.15,169.35 816.60,163.91 814.22,156.94 L 812.19 151.00 L 815.22 148.84 C820.92,144.79 831.94,145.11 838.45,149.53 L 842.10 152.01 L 847.80 148.14 C858.34,141.00 870.52,135.97 885.25,132.70 C893.33,130.90 893.12,130.34 889.60,144.20 C886.53,156.29 881.78,167.68 876.54,175.49 L 872.40 181.66 L 874.89 185.42 C878.18,190.37 878.92,199.29 876.57,205.46 C874.15,211.79 872.81,212.61 868.36,210.50 C862.90,207.91 857.77,207.55 852.41,209.38 C846.04,211.55 844.00,213.57 844.00,217.73 C844.00,222.71 839.47,227.00 834.23,227.00 C826.93,227.00 818.07,235.52 799.87,260.00 C786.61,277.84 781.72,283.04 770.55,291.19 C761.29,297.93 749.00,309.69 749.00,311.80 C749.00,312.58 748.14,314.86 747.10,316.86 C746.05,318.86 744.63,322.00 743.95,323.83 C743.26,325.66 741.64,327.84 740.36,328.69 C737.47,330.58 738.08,331.68 743.37,334.08 C751.58,337.81 761.48,336.03 766.22,329.98 L 768.77 326.71 L 769.56 329.11 C770.80,332.93 770.37,340.39 768.71,343.57 C766.62,347.59 763.21,350.60 758.51,352.56 L 754.54 354.22 L 757.52 356.65 C764.63,362.45 774.97,368.07 781.47,369.68 C789.64,371.69 796.36,370.69 803.05,366.47 L 807.28 363.80 L 806.79 370.66 C806.23,378.57 803.68,385.02 799.03,390.31 L 795.78 394.02 L 801.23 406.26 C807.93,421.29 811.47,430.86 810.64,431.69 C809.94,432.39 793.94,426.64 780.95,421.02 L 772.40 417.32 L 767.98 421.24 C765.56,423.39 761.98,425.82 760.04,426.63 C756.88,427.96 742.95,430.28 742.27,429.60 C742.12,429.45 743.29,426.67 744.88,423.41 C748.56,415.87 749.19,412.27 747.96,405.75 C746.62,398.62 743.07,391.73 736.84,384.16 L 731.63 377.83 L 729.97 382.08 C727.85,387.50 722.22,392.68 717.48,393.57 C713.16,394.38 707.35,392.85 703.64,389.93 C700.22,387.25 700.30,386.00 703.86,386.00 C710.63,386.00 714.65,376.23 709.96,371.19 C708.84,369.98 707.59,369.00 707.18,369.00 C705.44,369.00 694.99,380.91 692.71,385.50 C689.27,392.42 687.00,400.51 686.99,405.93 C686.96,414.04 686.62,414.46 676.66,418.58 C652.25,428.68 637.02,441.05 577.55,499.10 C574.82,501.75 572.80,504.12 573.05,504.35 C573.30,504.59 593.64,506.28 618.25,508.11 C642.86,509.94 663.00,511.71 663.00,512.04 C663.00,512.38 655.01,513.19 645.25,513.86 C612.35,516.09 573.50,519.19 573.08,519.60 C572.84,519.83 585.45,532.95 601.09,548.76 C679.29,627.80 717.13,668.11 746.34,703.50 C778.49,742.46 804.62,780.88 824.32,818.14 C827.99,825.10 831.00,831.10 831.00,831.48 C831.00,832.31 812.32,822.44 794.50,812.18 C762.77,793.93 731.88,771.82 696.55,742.08 C665.21,715.70 639.26,691.14 570.18,622.50 C543.06,595.55 520.45,573.35 519.93,573.17 C519.42,572.98 519.00,573.88 519.00,575.17 C519.00,576.45 517.88,592.58 516.51,611.00 C515.14,629.42 513.73,648.66 513.36,653.75 C513.00,658.84 512.38,663.00 511.98,663.00 C511.58,663.00 510.95,658.39 510.57,652.75 C508.81,626.48 504.93,577.26 504.45,575.14 C503.97,573.06 497.61,579.03 450.69,625.64 C379.85,696.02 356.93,717.61 323.53,745.46 C295.65,768.71 265.19,790.88 241.00,805.52 C221.60,817.26 193.00,832.72 193.00,831.46 ZM 231.48 802.01 C268.11,779.89 304.58,752.61 342.43,719.01 C366.63,697.53 389.67,675.34 447.58,617.76 C500.87,564.77 503.63,561.85 503.20,558.90 L 502.74 555.80 L 494.76 563.65 C490.37,567.97 485.52,573.20 483.98,575.27 C482.44,577.35 481.03,578.59 480.84,578.04 C480.65,577.49 462.05,595.38 439.50,617.80 C337.86,718.86 300.85,751.09 251.25,781.71 C242.09,787.37 235.88,792.16 228.57,799.22 C223.03,804.56 218.82,808.95 219.20,808.97 C219.59,808.99 225.12,805.85 231.48,802.01 ZM 795.91 799.44 C790.23,793.66 784.10,788.75 777.00,784.30 C747.40,765.75 727.45,751.02 700.00,727.45 C668.89,700.74 648.33,681.18 580.36,613.65 C559.07,592.49 543.77,578.02 543.11,578.43 C542.50,578.81 542.00,578.58 542.00,577.91 C542.00,577.25 537.40,572.03 531.77,566.31 C521.60,555.98 521.53,555.93 520.77,558.71 C520.04,561.36 522.16,563.64 563.25,604.53 C661.35,702.12 690.89,729.40 734.00,762.16 C755.16,778.25 800.14,807.94 803.41,807.99 C803.91,807.99 800.54,804.15 795.91,799.44 ZM 246.87 768.11 C280.77,717.01 312.91,680.05 406.78,584.25 C429.01,561.56 446.64,543.00 445.95,543.00 C445.26,543.00 446.45,541.70 448.60,540.11 C450.74,538.52 456.09,533.57 460.48,529.11 L 468.45 521.00 L 464.83 521.00 C461.37,521.00 459.04,523.20 413.32,569.75 C354.34,629.78 341.56,643.04 322.47,664.00 C279.11,711.61 248.67,750.95 223.79,791.50 C215.08,805.68 215.25,806.12 225.43,795.76 C232.55,788.50 238.03,781.44 246.87,768.11 ZM 806.37 801.75 C798.48,786.46 769.84,745.17 749.68,720.00 C716.27,678.30 682.09,641.64 590.02,548.75 C564.38,522.88 562.28,521.00 559.01,521.01 L 555.50 521.03 L 565.50 530.76 C571.00,536.12 576.40,541.05 577.50,541.72 L 579.50 542.94 L 577.50 542.29 C576.40,541.93 593.98,560.50 616.57,583.57 C709.81,678.78 741.44,715.04 775.27,765.46 C784.00,778.48 791.09,787.73 797.71,794.74 C803.03,800.38 807.53,805.00 807.71,805.00 C807.90,805.00 807.30,803.54 806.37,801.75 ZM 262.50 770.69 C299.82,745.80 330.89,719.04 397.21,654.67 C425.29,627.42 429.31,623.13 431.88,617.67 C433.48,614.28 435.30,609.04 435.93,606.02 C436.87,601.55 441.25,592.00 442.37,592.00 C442.71,592.00 438.32,611.73 437.49,613.88 C436.83,615.61 443.60,609.27 466.21,587.00 L 481.94 571.50 L 486.02 558.14 C488.26,550.80 489.96,544.44 489.80,544.01 C489.63,543.58 480.27,551.16 469.00,560.85 C453.45,574.22 429.78,597.20 371.00,656.01 C281.89,745.17 246.87,780.61 249.00,779.49 C249.82,779.05 255.90,775.09 262.50,770.69 ZM 740.97 744.30 C645.83,648.53 576.33,579.48 566.00,570.48 C543.74,551.09 534.91,543.76 534.41,544.26 C534.13,544.54 535.73,550.78 537.97,558.13 L 542.03 571.50 L 561.77 590.76 C572.62,601.35 582.93,611.43 584.68,613.14 L 587.87 616.26 L 586.04 610.88 C583.55,603.56 581.09,591.94 582.16,592.60 C583.79,593.61 587.01,600.93 588.13,606.22 C590.81,618.77 592.39,620.90 617.26,645.35 C674.15,701.28 703.35,727.50 739.97,755.54 C748.46,762.04 773.23,778.83 774.47,778.93 C775.00,778.97 759.92,763.39 740.97,744.30 ZM 462.64 556.00 C473.54,543.10 479.45,535.87 480.33,534.35 C480.70,533.71 475.94,534.73 469.75,536.61 C463.56,538.49 457.50,540.29 456.28,540.61 C453.56,541.33 367.40,628.98 335.96,663.01 C309.52,691.62 291.60,712.37 275.95,732.53 C267.56,743.34 247.08,772.01 247.03,773.03 C246.95,774.46 454.98,565.07 462.64,556.00 ZM 769.38 761.83 C738.94,717.56 709.18,683.70 620.11,592.00 C573.95,544.48 570.79,541.37 568.00,540.66 C566.62,540.31 560.44,538.49 554.25,536.61 L 543.00 533.19 L 544.90 535.85 C555.86,551.14 581.16,577.56 674.31,671.00 C730.52,727.38 776.65,773.42 776.84,773.33 C777.02,773.24 773.67,768.06 769.38,761.83 ZM 516.02 548.13 C516.71,540.36 517.56,534.00 517.91,534.00 C518.25,534.00 520.99,537.71 523.99,542.25 C526.98,546.79 529.74,550.88 530.11,551.34 C530.47,551.80 529.46,547.76 527.86,542.36 C526.25,536.96 525.07,531.98 525.22,531.29 C525.38,530.56 529.06,532.88 533.90,536.76 C547.83,547.94 547.93,548.00 543.47,542.49 C535.53,532.67 530.73,525.94 531.27,525.40 C531.88,524.79 546.41,528.65 549.34,530.19 C550.35,530.73 551.35,530.98 551.58,530.76 C551.80,530.54 547.93,527.69 542.99,524.44 C533.96,518.50 532.51,517.00 535.75,517.00 C536.71,517.00 544.25,516.35 552.50,515.56 C560.75,514.77 573.01,513.81 579.75,513.42 C586.49,513.03 592.00,512.41 592.00,512.04 C592.00,511.66 581.54,510.59 568.75,509.64 C540.44,507.56 534.00,506.90 534.00,506.11 C534.00,505.77 538.05,502.85 543.00,499.61 C547.95,496.37 552.00,493.62 552.00,493.50 C552.00,493.39 547.48,494.62 541.94,496.26 C536.41,497.89 531.63,498.96 531.30,498.64 C530.76,498.09 537.54,488.78 545.21,479.53 C548.04,476.12 547.37,476.49 540.50,482.10 C536.10,485.70 530.74,489.95 528.59,491.56 L 524.69 494.48 L 525.44 490.49 C525.85,488.29 527.22,483.24 528.49,479.25 C529.75,475.26 530.67,472.00 530.54,472.00 C530.40,472.00 527.63,476.05 524.39,481.00 C521.15,485.95 518.22,490.00 517.89,490.00 C517.29,490.00 516.08,477.86 513.55,446.62 C512.87,438.30 512.07,432.17 511.77,433.00 C511.46,433.83 510.71,441.92 510.11,451.00 C508.68,472.31 506.87,490.00 506.10,489.98 C505.77,489.98 502.85,485.93 499.62,480.98 C496.39,476.04 493.62,472.00 493.46,472.00 C493.31,472.00 494.05,474.81 495.10,478.25 C499.38,492.20 499.87,494.00 499.37,494.00 C498.82,494.00 487.25,485.26 480.51,479.76 L 476.52 476.50 L 479.31 480.00 C487.75,490.58 493.18,498.16 492.68,498.66 C492.37,498.97 487.59,497.89 482.06,496.26 C476.52,494.62 472.00,493.39 472.00,493.52 C472.00,493.64 476.05,496.36 481.00,499.55 C485.95,502.75 490.00,505.66 490.00,506.02 C490.00,506.78 473.38,508.46 448.75,510.17 C438.99,510.84 431.34,511.69 431.75,512.04 C432.16,512.40 440.38,513.21 450.00,513.84 C472.99,515.34 490.00,517.12 490.00,518.02 C490.00,518.42 486.29,521.14 481.75,524.06 C477.21,526.99 473.10,529.72 472.61,530.13 C472.11,530.55 476.12,529.56 481.52,527.94 C486.91,526.33 491.95,525.00 492.72,525.00 C493.50,525.00 490.50,529.74 485.98,535.64 L 477.84 546.29 L 483.67 541.59 C492.09,534.80 498.06,530.73 498.68,531.35 C498.98,531.64 498.03,536.03 496.58,541.08 C495.13,546.14 494.12,550.46 494.34,550.67 C494.56,550.89 496.59,548.01 498.85,544.28 C503.58,536.49 505.81,533.46 506.38,534.07 C506.95,534.68 509.83,565.35 510.56,578.50 C510.89,584.55 511.42,590.17 511.74,591.00 C512.06,591.83 512.87,585.70 513.55,577.38 C514.22,569.06 515.34,555.90 516.02,548.13 ZM 502.97 549.75 C502.99,549.34 502.66,549.01 502.25,549.01 C501.40,549.03 496.99,555.56 497.03,556.74 C497.06,557.69 502.94,550.78 502.97,549.75 ZM 524.82 552.61 C522.75,549.41 521.00,548.01 521.00,549.55 C521.00,550.43 526.39,556.95 526.78,556.55 C526.98,556.35 526.10,554.58 524.82,552.61 ZM 474.99 521.75 C475.02,519.84 472.52,521.28 469.50,524.90 L 467.50 527.29 L 471.24 524.90 C473.29,523.58 474.98,522.16 474.99,521.75 ZM 553.50 524.00 C550.71,521.08 548.99,520.22 549.01,521.75 C549.02,522.42 554.85,526.78 555.94,526.94 C556.18,526.97 555.08,525.65 553.50,524.00 ZM 458.50 493.00 C453.02,487.50 447.94,483.00 447.21,483.00 C446.48,483.00 446.13,482.60 446.44,482.10 C447.14,480.97 413.16,447.79 399.66,436.43 C386.25,425.14 368.55,413.44 358.01,408.90 L 349.50 405.24 L 348.81 399.84 C348.44,396.87 347.40,392.31 346.51,389.69 C342.80,378.75 331.69,364.00 327.17,364.00 C325.98,364.00 325.00,364.13 325.00,364.29 C325.00,364.45 327.18,366.90 329.85,369.75 C338.26,378.70 345.00,394.34 345.00,404.90 C345.00,408.81 345.21,409.10 349.25,410.71 C356.81,413.71 370.15,420.98 377.72,426.22 C391.89,436.01 410.16,452.45 445.50,487.23 C459.94,501.44 461.84,502.97 464.98,502.98 L 468.46 503.00 L 458.50 493.00 ZM 475.00 502.58 C475.00,502.36 473.20,500.74 471.00,499.00 C468.80,497.26 467.02,496.21 467.04,496.67 C467.06,497.12 468.70,498.74 470.70,500.25 C474.32,503.00 475.00,503.37 475.00,502.58 ZM 553.04 500.81 C557.18,497.75 556.75,496.49 552.51,499.24 C550.59,500.48 549.02,501.84 549.01,502.25 C548.99,503.46 549.90,503.14 553.04,500.81 ZM 585.63 480.48 C626.35,441.26 634.43,434.12 649.00,424.50 C657.57,418.84 668.86,412.87 676.25,410.09 C678.58,409.21 679.00,408.47 679.01,405.27 C679.06,394.28 685.43,379.33 693.99,370.10 C696.75,367.14 699.00,364.56 699.00,364.36 C699.00,364.16 698.01,364.00 696.80,364.00 C690.60,364.00 677.93,384.33 675.63,397.99 L 674.38 405.39 L 667.67 408.14 C653.93,413.77 636.00,425.97 618.54,441.57 C603.07,455.38 576.97,481.14 577.53,482.04 C577.80,482.49 577.23,483.11 576.25,483.42 C575.28,483.73 570.21,488.29 564.99,493.55 L 555.50 503.11 L 559.13 502.81 C562.36,502.53 565.34,500.02 585.63,480.48 ZM 480.37 489.75 C479.96,489.06 474.00,481.75 467.13,473.50 C459.70,464.59 439.38,443.21 417.06,420.83 L 379.50 383.16 L 364.70 375.96 C356.56,372.00 349.67,369.00 349.37,369.29 C348.59,370.08 358.93,378.04 363.00,379.79 L 366.50 381.30 L 363.50 382.13 C361.13,382.79 360.18,382.58 359.00,381.14 C358.17,380.13 355.72,378.00 353.54,376.41 C349.70,373.59 349.63,373.58 351.30,375.99 C352.25,377.36 354.14,382.12 355.49,386.57 C356.85,391.01 358.80,395.42 359.83,396.35 C361.65,397.99 361.70,397.89 361.24,393.18 C360.82,388.80 361.05,388.11 363.52,386.16 C365.03,384.97 367.35,384.00 368.67,384.00 C371.69,384.00 377.89,387.12 380.40,389.89 C382.55,392.26 381.46,392.67 378.66,390.54 C376.01,388.53 369.53,387.65 367.07,388.96 C364.69,390.24 364.31,394.18 366.40,395.92 C367.21,396.59 368.93,396.81 370.45,396.42 C372.91,395.81 372.98,395.64 371.48,393.98 C369.95,392.28 370.07,392.26 374.19,393.56 C376.56,394.30 380.47,395.42 382.87,396.03 C389.10,397.63 394.97,403.36 395.66,408.52 C396.35,413.67 393.78,417.22 389.22,417.38 C386.43,417.49 386.25,417.67 387.58,419.00 C388.61,420.04 392.14,420.68 398.99,421.09 C407.23,421.58 409.50,422.09 412.43,424.09 C416.79,427.07 418.39,430.71 417.55,435.71 C416.99,439.04 417.27,439.88 419.70,442.19 C421.24,443.65 427.00,446.97 432.50,449.58 C440.58,453.40 443.70,455.55 448.75,460.75 C452.19,464.29 455.00,467.63 455.00,468.17 C455.00,468.71 453.61,467.76 451.91,466.06 C446.93,461.08 440.13,456.83 430.53,452.69 C420.18,448.23 416.46,445.80 414.15,442.01 C413.24,440.51 412.15,439.28 411.72,439.26 C408.26,439.09 407.00,437.98 407.00,435.09 C407.00,431.58 408.49,430.94 409.31,434.09 C409.67,435.44 410.50,436.05 411.68,435.83 C414.48,435.29 414.40,431.73 411.54,429.04 C409.44,427.07 407.53,426.53 400.75,425.99 C396.21,425.64 392.42,425.39 392.31,425.44 C392.21,425.49 397.61,430.36 404.31,436.26 C417.53,447.88 426.96,456.73 442.50,472.06 L 452.50 481.93 L 466.50 486.38 C474.20,488.82 480.64,490.86 480.81,490.91 C480.98,490.96 480.78,490.44 480.37,489.75 ZM 563.00 484.64 L 571.50 482.00 L 590.50 463.48 C600.95,453.29 614.54,440.59 620.70,435.26 C626.85,429.92 631.80,425.52 631.70,425.47 C631.59,425.42 627.82,425.64 623.33,425.94 C616.50,426.41 614.73,426.90 612.58,428.92 C609.61,431.72 609.24,434.49 611.71,435.44 C612.84,435.88 614.01,435.32 615.19,433.80 L 616.96 431.50 L 616.98 434.23 C616.99,436.11 616.16,437.50 614.28,438.73 C612.79,439.70 609.75,442.30 607.53,444.51 C605.13,446.90 600.68,449.69 596.50,451.43 C586.24,455.72 579.67,459.60 573.79,464.84 L 568.57 469.50 L 572.04 464.63 C576.20,458.77 584.79,452.49 595.08,447.77 C604.94,443.24 607.17,440.89 606.36,435.84 C605.56,430.85 607.23,427.06 611.49,424.14 C614.25,422.25 616.69,421.68 623.72,421.26 C628.55,420.97 633.62,420.14 635.00,419.41 C637.32,418.18 637.35,418.08 635.40,418.04 C634.24,418.02 632.10,416.90 630.65,415.55 C626.69,411.88 627.02,407.09 631.56,402.06 C635.00,398.26 638.78,396.40 647.50,394.26 C649.70,393.72 652.40,392.95 653.50,392.54 C655.17,391.93 655.11,392.13 653.11,393.76 L 650.73 395.71 L 653.46 396.40 C656.75,397.23 659.00,395.64 659.00,392.50 C659.00,388.99 656.64,387.68 651.64,388.43 C649.24,388.79 646.42,389.72 645.39,390.51 C642.54,392.66 641.44,392.28 643.60,389.89 C646.11,387.12 652.31,384.00 655.33,384.00 C656.65,384.00 658.96,384.96 660.45,386.14 C662.85,388.03 663.13,388.85 662.84,393.07 C662.53,397.50 662.63,397.75 664.18,396.34 C665.10,395.50 666.78,391.82 667.90,388.16 C669.02,384.50 670.79,379.84 671.83,377.80 L 673.73 374.10 L 670.31 376.71 C668.43,378.15 666.31,380.15 665.60,381.17 C664.61,382.58 663.56,382.86 661.15,382.38 C657.27,381.60 657.10,380.44 660.75,379.66 C663.76,379.02 675.45,370.12 674.51,369.18 C674.19,368.86 667.31,371.91 659.21,375.96 L 644.50 383.33 L 610.15 417.41 C580.78,446.56 556.38,472.95 545.65,487.18 L 542.87 490.86 L 548.69 489.07 C551.88,488.08 558.33,486.09 563.00,484.64 ZM 564.27 455.17 C579.03,442.18 624.89,397.20 634.38,386.40 C639.73,380.32 643.03,375.21 647.63,365.90 C651.00,359.08 654.09,352.38 654.48,351.00 C655.21,348.50 655.21,348.50 653.22,350.50 C650.11,353.64 644.01,363.05 643.92,364.86 C643.87,365.86 643.36,365.42 642.62,363.74 C641.47,361.15 641.68,360.68 646.20,355.79 C650.88,350.72 652.90,346.97 649.10,350.41 C648.05,351.36 643.03,353.68 637.94,355.58 C628.38,359.13 626.00,360.47 626.00,362.32 C626.00,363.02 626.42,362.98 627.20,362.20 C629.19,360.21 635.12,360.76 637.69,363.17 C641.60,366.86 640.36,374.65 635.10,379.41 C632.61,381.66 632.48,381.22 634.49,377.36 C636.29,373.92 636.46,367.86 634.80,366.20 C631.43,362.83 626.15,366.54 627.84,371.09 L 628.66 373.32 L 630.45 370.91 C631.85,369.03 632.08,368.94 631.48,370.50 C631.05,371.60 630.07,375.42 629.30,379.00 C627.57,386.95 625.42,390.80 621.05,393.75 C614.71,398.01 606.84,395.51 606.61,389.15 C606.55,387.42 606.40,386.00 606.28,386.00 C606.15,386.00 605.36,387.33 604.53,388.95 C603.63,390.67 603.00,394.52 602.99,398.20 C602.99,406.57 601.44,411.71 597.86,415.29 C595.19,417.96 594.43,418.20 589.91,417.77 C583.88,417.19 581.47,418.73 578.34,425.14 C577.17,427.54 574.99,432.04 573.49,435.14 C570.46,441.46 564.10,449.17 558.33,453.54 L 554.50 456.45 L 559.28 450.97 C563.42,446.23 567.57,438.80 574.51,423.72 C575.47,421.65 578.22,418.22 580.63,416.10 C583.03,413.98 585.00,411.61 585.00,410.82 C585.00,408.86 587.04,407.00 589.20,407.00 C591.42,407.00 591.47,407.82 589.40,410.11 C587.42,412.30 588.35,414.00 591.54,414.00 C595.37,414.00 597.42,409.77 598.06,400.55 C598.36,396.12 598.58,392.41 598.53,392.30 C598.48,392.19 596.36,394.67 593.82,397.80 C591.28,400.94 587.97,404.85 586.47,406.50 C577.67,416.18 572.98,421.12 558.44,436.03 L 542.32 452.57 L 538.16 465.61 C535.87,472.78 534.00,479.21 534.00,479.89 C534.00,481.18 543.99,473.02 564.27,455.17 ZM 485.95 465.84 L 481.76 452.50 L 467.53 438.00 C450.47,420.62 436.49,405.57 430.19,397.80 C427.64,394.67 425.52,392.19 425.47,392.30 C425.42,392.41 425.64,396.12 425.94,400.55 C426.62,410.26 428.70,414.29 432.80,413.81 C436.17,413.42 437.12,410.11 434.09,409.31 C431.28,408.58 431.43,407.00 434.30,407.00 C436.92,407.00 439.00,408.71 439.00,410.85 C439.00,411.65 440.84,413.89 443.10,415.82 C446.19,418.46 448.65,422.35 453.10,431.62 C456.34,438.38 461.09,446.49 463.66,449.64 C467.57,454.44 467.84,455.02 465.35,453.25 C459.46,449.06 454.31,442.29 449.15,431.99 C442.48,418.66 440.85,417.12 434.15,417.76 C429.56,418.20 428.82,417.97 426.14,415.29 C422.56,411.71 421.01,406.57 421.01,398.20 C421.00,394.52 420.37,390.67 419.47,388.95 C417.62,385.36 417.13,385.22 417.74,388.44 C418.39,391.83 414.12,396.00 410.00,396.00 C403.43,396.00 398.19,391.19 396.11,383.25 C394.74,378.00 393.04,371.99 392.36,370.00 C392.08,369.17 392.72,369.57 393.78,370.88 L 395.70 373.25 L 396.30 370.97 C396.63,369.71 396.45,367.85 395.91,366.84 C394.68,364.53 389.46,364.35 388.61,366.58 C387.36,369.83 388.07,375.38 390.17,378.88 L 392.35 382.50 L 389.58 380.00 C383.82,374.80 382.42,368.28 386.07,363.63 C387.65,361.63 389.04,361.00 391.87,361.00 C393.92,361.00 396.14,361.54 396.80,362.20 C397.71,363.11 398.00,363.11 398.00,362.22 C398.00,360.43 394.12,358.26 386.00,355.50 C381.96,354.12 377.56,352.29 376.24,351.42 C372.19,348.77 372.79,350.37 377.95,355.94 C382.36,360.72 382.75,361.51 381.85,363.88 L 380.84 366.50 L 379.42 363.14 C377.85,359.42 369.00,347.23 369.00,348.78 C369.00,351.13 375.66,365.56 381.21,375.24 C384.28,380.59 391.70,388.60 417.20,414.08 C445.76,442.61 461.74,457.40 482.86,474.85 C486.37,477.74 489.44,479.90 489.69,479.65 C489.94,479.39 488.26,473.18 485.95,465.84 ZM 499.54 470.22 L 495.67 466.50 L 498.96 470.80 C500.76,473.16 502.50,474.83 502.82,474.51 C503.14,474.19 501.66,472.26 499.54,470.22 ZM 525.37 470.71 L 528.24 466.50 L 524.62 469.95 C521.16,473.24 520.13,475.04 521.75,474.96 C522.16,474.94 523.79,473.03 525.37,470.71 ZM 479.94 438.24 C435.70,393.07 421.45,375.17 412.49,353.55 L 409.16 345.50 L 402.83 344.84 C390.96,343.61 378.58,337.93 369.01,329.32 C363.69,324.54 363.66,324.53 364.35,327.50 C366.06,334.86 383.21,345.71 397.74,348.63 L 405.82 350.25 L 407.97 356.14 C413.09,370.18 426.11,388.88 445.46,410.00 C457.86,423.54 480.38,446.96 480.69,446.64 C480.87,446.46 485.84,451.21 491.74,457.20 C502.17,467.78 502.50,468.01 503.32,465.53 C504.11,463.17 502.39,461.15 479.94,438.24 ZM 534.26 455.50 C537.47,452.20 540.77,448.26 541.58,446.75 C543.23,443.66 544.24,443.09 543.35,445.75 C543.03,446.71 546.09,444.12 550.14,440.00 C577.37,412.30 594.20,393.15 603.76,379.00 C608.76,371.60 618.00,353.74 618.00,351.48 C618.00,350.82 621.47,349.63 625.96,348.75 C630.34,347.89 637.30,345.55 641.45,343.56 C650.26,339.32 660.00,330.52 660.00,326.80 C660.00,324.64 659.50,324.89 654.39,329.65 C645.12,338.28 633.39,343.57 620.62,344.89 L 614.74 345.50 L 612.05 352.52 C603.75,374.16 588.09,393.63 538.88,443.50 C521.73,460.87 520.17,462.74 520.69,465.32 L 521.26 468.14 L 524.83 464.82 C526.80,462.99 531.04,458.80 534.26,455.50 ZM 760.75 417.30 C764.59,414.46 767.01,410.19 766.98,406.30 L 766.95 403.50 L 765.40 406.65 C764.55,408.38 762.87,410.71 761.68,411.83 L 759.50 413.87 L 759.35 407.68 C759.06,395.33 752.06,382.05 739.65,370.29 C727.32,358.61 714.06,353.00 698.74,353.00 C688.63,353.00 682.10,354.37 670.25,358.97 C666.05,360.60 662.52,361.84 662.41,361.72 C662.30,361.60 664.03,356.10 666.24,349.50 C673.04,329.25 672.61,316.20 664.66,300.69 C655.05,281.95 632.10,266.00 614.21,265.63 L 607.92 265.50 L 610.24 263.50 C611.52,262.40 613.68,260.69 615.03,259.70 L 617.50 257.90 L 614.05 258.47 C609.55,259.20 606.36,261.36 603.96,265.30 C601.20,269.82 601.38,271.19 604.57,269.98 C619.34,264.36 647.88,279.82 659.75,299.88 C670.08,317.34 669.84,337.61 659.02,360.71 L 655.15 368.95 L 661.33 365.83 C676.95,357.94 692.90,354.95 706.56,357.35 C726.54,360.87 746.35,377.53 753.13,396.54 C755.33,402.71 756.12,413.30 754.74,418.22 C754.09,420.55 754.23,420.86 755.74,420.33 C756.71,419.98 758.96,418.62 760.75,417.30 ZM 231.21 417.95 C234.12,416.83 238.41,415.03 240.74,413.95 C243.07,412.88 245.25,412.00 245.58,412.00 C246.77,412.00 252.00,407.85 252.00,406.91 C252.00,406.39 250.12,406.92 247.82,408.09 C241.30,411.42 231.00,415.08 231.00,414.07 C231.00,412.79 234.65,404.21 237.12,399.68 C239.22,395.83 239.14,394.17 236.93,395.54 C235.87,396.20 225.00,417.95 225.00,419.42 C225.00,420.29 225.47,420.18 231.21,417.95 ZM 268.93 416.76 C265.71,405.52 272.71,386.94 284.43,375.66 C291.41,368.94 300.45,362.74 307.00,360.17 C322.88,353.96 342.76,355.92 362.17,365.61 L 368.85 368.95 L 364.99 360.72 C359.16,348.26 357.00,339.29 357.01,327.52 C357.02,321.65 357.62,315.52 358.48,312.70 C363.48,296.20 377.14,281.51 395.61,272.76 C401.92,269.77 403.32,269.50 412.25,269.50 C417.61,269.50 422.00,269.27 422.00,269.00 C421.99,268.73 421.12,267.06 420.04,265.30 C417.67,261.40 414.51,259.24 409.95,258.38 L 406.50 257.73 L 410.65 260.80 C415.61,264.47 417.15,266.50 414.28,265.59 C410.23,264.30 399.02,266.82 390.72,270.88 C380.68,275.79 372.51,282.14 366.45,289.76 C350.41,309.90 348.94,330.29 361.41,359.25 C362.30,361.31 362.86,363.00 362.65,363.00 C362.45,363.00 359.22,361.61 355.48,359.92 C341.65,353.65 324.96,351.35 313.00,354.07 C304.49,356.01 292.75,362.53 285.23,369.50 C272.51,381.27 265.09,395.07 264.71,407.66 C264.60,411.05 264.13,413.58 263.66,413.29 C263.19,413.00 261.50,410.70 259.90,408.18 C257.06,403.70 257.00,403.67 257.00,406.55 C257.01,410.47 260.22,415.55 264.24,418.01 C269.01,420.91 270.04,420.64 268.93,416.76 ZM 798.97 419.25 C798.89,416.91 787.79,395.45 786.52,395.18 C785.68,395.00 785.00,395.05 785.00,395.29 C785.00,395.53 786.80,399.56 789.00,404.26 C791.20,408.95 793.00,413.29 793.00,413.89 C793.00,415.08 783.29,411.72 776.07,408.04 C773.18,406.56 771.91,406.28 772.19,407.17 C772.64,408.67 783.79,414.63 792.05,417.80 C798.15,420.15 799.01,420.33 798.97,419.25 ZM 380.98 415.95 C380.37,414.83 380.02,412.47 380.19,410.70 C380.47,407.84 380.87,407.47 384.00,407.18 C387.31,406.88 387.39,406.95 385.50,408.37 C383.89,409.59 383.72,410.24 384.61,411.69 C386.93,415.48 392.00,413.94 392.00,409.45 C392.00,406.95 388.09,403.31 384.39,402.38 C381.31,401.61 375.18,403.74 373.71,406.09 C373.05,407.14 372.18,408.00 371.76,408.00 C370.06,408.00 371.19,405.61 374.40,402.40 L 377.80 399.00 L 375.15 399.04 C373.69,399.05 371.38,399.71 370.00,400.50 C368.62,401.29 365.63,401.95 363.34,401.96 C358.01,402.01 355.05,398.73 352.06,389.45 C349.39,381.18 344.68,372.75 340.29,368.36 C334.97,363.04 333.11,364.19 338.05,369.75 C343.36,375.72 349.77,388.86 351.30,396.89 L 352.46 403.03 L 357.48 404.91 C362.72,406.87 372.00,411.71 378.00,415.61 C382.35,418.43 382.30,418.43 380.98,415.95 ZM 654.00 411.01 C657.58,409.04 662.99,406.42 666.03,405.19 L 671.55 402.95 L 672.68 397.01 C674.15,389.26 679.38,378.04 684.72,371.16 C689.23,365.35 689.58,364.02 686.03,366.18 C682.45,368.36 675.40,379.96 672.33,388.69 C668.74,398.95 666.25,402.00 661.47,402.00 C659.53,402.00 656.49,401.40 654.72,400.66 C652.95,399.93 650.15,399.02 648.50,398.65 L 645.50 397.98 L 648.12 400.24 C650.89,402.63 653.49,406.84 652.69,407.65 C652.43,407.91 651.09,407.00 649.72,405.63 C644.86,400.77 635.90,401.58 632.93,407.14 C630.59,411.50 635.43,416.17 638.80,412.80 C640.38,411.22 640.31,410.46 638.43,408.57 C637.00,407.14 637.13,407.00 639.91,407.00 C642.39,407.00 643.09,407.51 643.63,409.68 C644.00,411.15 643.81,413.66 643.21,415.25 L 642.12 418.15 L 644.81 416.38 C646.29,415.40 650.42,412.99 654.00,411.01 ZM 249.11 402.92 C250.70,401.79 252.00,400.08 252.00,399.13 C252.00,398.18 252.56,396.79 253.25,396.04 C253.94,395.29 253.05,395.67 251.28,396.88 C249.51,398.10 247.80,399.52 247.47,400.04 C247.15,400.56 245.92,401.51 244.75,402.14 C243.33,402.89 244.02,401.62 246.75,398.43 C249.04,395.76 250.77,393.44 250.61,393.28 C250.45,393.12 248.90,393.49 247.15,394.10 C244.79,394.92 243.10,396.78 240.49,401.45 C238.57,404.88 237.00,407.97 237.00,408.31 C237.00,409.21 245.74,405.32 249.11,402.92 ZM 784.47 403.12 C781.35,397.38 778.58,394.56 775.01,393.47 C772.69,392.77 772.78,393.02 776.33,397.36 C780.91,402.95 780.05,403.43 774.72,398.25 L 770.86 394.50 L 771.56 397.50 C771.94,399.15 772.56,400.84 772.93,401.25 C773.99,402.43 786.42,408.92 786.83,408.50 C787.03,408.30 785.97,405.88 784.47,403.12 ZM 262.00 397.77 C262.00,393.91 268.92,381.61 275.45,373.88 C280.97,367.34 291.04,358.54 295.23,356.59 C296.24,356.12 296.24,355.88 295.25,355.42 C294.56,355.10 294.00,354.12 294.00,353.24 C294.00,352.33 290.24,355.43 285.25,360.44 C272.15,373.62 259.14,382.04 248.00,384.55 C244.63,385.31 244.59,385.37 247.00,386.07 C248.38,386.47 251.64,386.85 254.25,386.90 L 259.00 387.00 L 259.01 391.75 C259.03,397.51 259.92,401.17 261.11,400.43 C261.60,400.13 262.00,398.93 262.00,397.77 ZM 764.93 391.73 C765.00,386.08 765.05,385.97 767.51,386.59 C768.89,386.94 772.13,386.91 774.71,386.52 L 779.39 385.82 L 770.94 382.64 C760.40,378.67 749.34,371.10 739.01,360.77 C731.62,353.38 730.93,352.93 729.41,354.45 C728.50,355.36 727.93,356.21 728.13,356.34 C728.33,356.47 730.35,357.76 732.60,359.21 C743.54,366.21 756.20,381.94 761.12,394.66 C763.84,401.71 764.82,400.96 764.93,391.73 ZM 413.39 389.75 C414.17,388.51 414.18,387.51 413.42,386.31 C411.90,383.90 410.47,383.67 408.62,385.53 C407.13,387.01 407.00,386.96 407.00,384.77 C407.00,380.41 411.47,378.57 416.08,381.04 C417.56,381.84 417.17,380.74 414.45,376.49 C410.34,370.07 404.00,357.18 404.00,355.26 C404.00,353.77 401.65,352.70 394.50,350.92 C387.12,349.09 374.48,342.48 369.42,337.82 C366.64,335.25 365.00,334.30 365.00,335.25 C365.00,336.99 371.93,343.59 377.00,346.68 C378.92,347.86 384.33,350.25 389.00,352.00 C393.67,353.75 398.51,356.30 399.75,357.65 C402.59,360.75 402.68,365.75 400.00,371.00 C397.85,375.21 397.38,379.00 399.00,379.00 C399.55,379.00 400.00,378.53 400.00,377.95 C400.00,376.20 404.80,372.00 406.70,372.08 C407.80,372.13 408.00,372.36 407.22,372.67 C404.83,373.63 401.77,381.08 402.42,384.35 C403.72,390.86 410.58,394.24 413.39,389.75 ZM 619.41 388.92 C623.19,384.43 622.68,379.12 618.00,374.18 C616.79,372.91 616.06,371.61 616.37,371.30 C617.35,370.32 622.01,373.96 624.04,377.30 L 625.99 380.50 L 626.00 377.49 C626.00,375.83 625.10,372.79 624.00,370.74 C619.13,361.66 622.41,356.36 635.82,351.66 C647.42,347.58 658.77,339.25 658.96,334.67 C658.98,334.22 656.72,335.84 653.93,338.28 C646.21,345.03 635.95,349.70 622.75,352.46 C621.18,352.79 620.00,353.70 620.00,354.58 C620.00,356.85 613.87,369.73 609.67,376.31 C607.66,379.44 606.44,382.00 606.95,382.00 C607.46,382.00 608.16,381.55 608.50,381.00 C610.01,378.55 618.05,380.95 617.98,383.82 C617.96,385.05 616.03,387.53 616.02,386.36 C615.99,384.63 612.93,383.81 611.37,385.11 C609.68,386.51 609.60,389.20 611.20,390.80 C613.30,392.90 616.72,392.12 619.41,388.92 ZM 239.32 387.01 C232.33,383.00 231.93,382.00 237.34,382.00 C243.05,382.00 253.97,378.67 261.00,374.79 C274.04,367.59 288.33,353.28 297.77,337.98 C300.37,333.77 302.95,330.24 303.50,330.13 C305.06,329.85 309.00,317.09 309.00,312.31 L 309.00 308.00 L 314.25 307.96 C317.14,307.93 321.08,307.35 323.01,306.66 C327.77,304.95 348.90,291.00 357.50,283.88 C373.99,270.23 384.06,253.52 384.36,239.29 C384.49,233.49 384.61,233.20 386.16,234.79 C387.07,235.73 388.75,238.29 389.91,240.49 L 392.00 244.47 L 392.00 241.19 C392.00,236.60 389.62,232.50 385.26,229.53 C383.21,228.14 381.28,227.00 380.97,227.00 C380.66,227.00 380.59,229.94 380.82,233.54 C381.62,246.14 376.17,258.24 363.64,271.65 C354.46,281.49 338.32,293.95 328.24,299.00 C322.54,301.86 320.17,302.44 312.87,302.80 L 304.24 303.23 L 303.80 311.60 C303.42,318.77 302.84,320.99 299.66,327.23 C289.48,347.26 268.89,367.46 251.00,374.98 C244.67,377.64 233.59,378.75 229.09,377.18 C225.59,375.96 225.26,376.67 227.40,380.80 C229.49,384.81 233.44,388.12 237.18,389.01 C243.84,390.59 244.49,389.98 239.32,387.01 ZM 791.00 387.08 C793.34,385.43 798.00,379.45 798.00,378.10 C798.00,377.77 793.61,377.50 788.25,377.50 C780.13,377.49 777.58,377.09 773.00,375.08 C756.09,367.66 738.22,350.92 726.60,331.61 C721.95,323.88 719.76,316.10 720.17,308.82 L 720.50 303.00 L 713.23 303.00 C701.10,303.00 692.57,298.91 672.65,283.53 C653.03,268.39 641.69,248.78 643.36,232.88 C643.69,229.64 643.64,227.00 643.23,227.00 C642.83,227.01 641.03,227.90 639.24,228.99 C635.01,231.58 632.00,236.60 632.05,241.00 L 632.09 244.50 L 634.53 239.82 C637.69,233.75 639.00,232.99 639.00,237.23 C639.00,249.70 649.58,269.17 662.81,281.06 C670.85,288.28 696.28,304.98 701.74,306.62 C704.26,307.38 708.38,308.00 710.91,308.01 L 715.50 308.01 L 715.58 313.26 C715.66,318.55 718.53,329.00 719.91,329.00 C720.32,329.00 722.84,332.49 725.52,336.75 C735.88,353.21 745.38,363.30 758.87,372.15 C767.12,377.57 779.64,382.00 786.67,382.00 C790.55,382.00 791.06,382.22 790.04,383.45 C789.38,384.25 786.85,385.86 784.42,387.04 C781.99,388.22 780.00,389.40 780.00,389.68 C780.00,390.78 788.66,388.73 791.00,387.08 ZM 308.00 386.62 C308.00,386.41 307.29,384.54 306.42,382.46 C304.68,378.29 305.12,373.60 307.74,368.53 C309.24,365.63 309.23,365.57 307.50,367.00 C305.36,368.78 302.70,374.71 303.48,375.97 C303.79,376.46 303.58,377.14 303.02,377.49 C302.39,377.88 301.99,376.47 301.98,373.81 C301.97,370.66 301.71,369.90 301.00,371.00 C298.60,374.71 300.85,383.65 304.75,385.92 C306.56,386.97 308.00,387.28 308.00,386.62 ZM 722.10 382.61 C723.16,380.87 723.99,377.66 724.00,375.31 C724.00,369.65 722.03,368.60 721.90,374.19 L 721.79 378.50 L 720.38 373.89 C719.60,371.35 718.01,368.43 716.84,367.39 L 714.73 365.50 L 716.28 368.53 C718.88,373.63 719.32,378.30 717.58,382.46 C715.62,387.15 715.59,386.92 718.10,386.26 C719.26,385.96 721.06,384.32 722.10,382.61 ZM 353.48 348.75 C352.22,344.76 350.63,337.75 349.96,333.17 C348.90,325.89 348.51,324.89 346.92,325.31 C345.91,325.57 344.33,325.23 343.39,324.54 C341.84,323.41 341.92,323.24 344.22,322.66 C347.13,321.93 349.52,317.21 348.54,314.12 C347.67,311.39 342.33,307.00 339.88,307.00 C337.50,307.00 333.00,311.27 333.00,313.53 C333.00,314.90 333.39,314.83 335.63,313.07 C337.08,311.93 338.96,311.00 339.81,311.00 C342.00,311.00 345.00,313.98 345.00,316.15 C345.00,318.25 343.93,318.53 342.27,316.87 C340.54,315.14 338.00,316.63 338.00,319.36 C338.00,322.31 346.57,341.95 350.98,349.12 L 354.17 354.30 L 350.83 352.08 C346.14,348.95 321.47,337.00 319.71,337.00 C318.90,337.00 317.64,337.72 316.91,338.61 C315.77,339.98 315.87,340.43 317.53,341.65 C319.21,342.88 319.28,343.21 318.00,344.02 C316.04,345.26 315.69,345.24 313.76,343.75 C311.17,341.76 311.08,337.07 313.57,334.57 C315.00,333.14 314.96,333.00 313.14,333.00 C307.84,333.00 306.08,341.17 310.45,345.55 C314.74,349.83 323.00,347.97 323.00,342.72 C323.00,341.04 323.23,340.95 324.59,342.07 C325.61,342.92 325.99,344.32 325.65,346.00 C325.14,348.57 325.26,348.63 332.89,349.74 C337.16,350.36 343.77,351.96 347.58,353.30 C351.38,354.63 354.79,355.78 355.14,355.86 C355.50,355.94 354.75,352.74 353.48,348.75 ZM 692.40 349.40 C698.28,348.80 698.98,348.50 698.46,346.86 C697.75,344.64 698.75,341.00 700.07,341.00 C700.58,341.00 701.00,341.87 701.00,342.94 C701.00,347.85 709.48,349.61 713.55,345.55 C717.88,341.21 716.46,334.71 710.75,332.68 C708.60,331.92 708.51,332.65 710.50,334.64 C712.69,336.84 712.42,342.26 710.04,343.74 C708.25,344.86 705.00,344.54 705.00,343.25 C705.00,342.96 705.77,342.16 706.71,341.47 C708.16,340.41 708.22,339.97 707.09,338.61 C706.36,337.72 704.97,337.00 704.01,337.00 C702.13,337.00 681.23,347.18 674.17,351.54 L 669.85 354.21 L 672.51 349.99 C677.33,342.35 686.00,322.66 686.00,319.34 C686.00,316.35 683.15,315.07 681.51,317.32 C680.20,319.11 679.00,318.56 679.00,316.16 C679.00,314.06 681.97,311.00 684.02,311.00 C684.96,311.00 686.92,311.93 688.37,313.07 C690.61,314.83 691.00,314.90 691.00,313.53 C691.00,312.64 689.85,310.76 688.45,309.36 C686.48,307.39 685.28,306.95 683.20,307.44 C679.79,308.24 675.00,313.35 675.00,316.20 C675.00,318.76 678.67,322.99 680.92,323.03 C682.21,323.06 682.15,323.33 680.59,324.51 C679.54,325.31 677.70,325.71 676.51,325.41 C674.51,324.91 674.33,325.28 674.13,330.34 C673.93,335.15 670.58,349.53 668.57,354.17 C667.96,355.58 669.25,355.39 676.80,352.96 C681.72,351.38 688.74,349.78 692.40,349.40 ZM 296.12 351.73 C295.14,350.75 295.02,350.87 295.56,352.29 C295.94,353.28 296.50,353.83 296.81,353.53 C297.11,353.22 296.81,352.41 296.12,351.73 ZM 299.56 351.78 C298.70,350.56 298.02,348.87 298.04,348.03 C298.06,347.14 298.68,347.60 299.51,349.13 C300.30,350.58 301.72,352.06 302.66,352.42 C304.24,353.03 304.26,352.93 302.82,351.29 C301.96,350.31 300.56,348.15 299.71,346.50 L 298.17 343.50 L 297.46 346.32 C296.69,349.35 298.25,354.00 300.04,354.00 C300.66,354.00 300.46,353.07 299.56,351.78 ZM 727.38 352.45 C727.74,351.53 727.56,351.15 726.95,351.53 C726.29,351.94 726.15,351.26 726.55,349.66 C726.90,348.27 726.76,346.40 726.25,345.48 C725.46,344.07 725.12,344.29 724.03,346.93 C723.32,348.65 722.01,350.47 721.12,350.99 C720.23,351.51 720.03,351.95 720.68,351.97 C721.33,351.99 722.79,350.81 723.93,349.37 C726.40,346.22 726.72,347.52 724.32,350.95 C722.75,353.20 722.75,353.31 724.32,352.71 C725.24,352.35 726.00,352.50 726.00,353.03 C726.00,354.49 726.71,354.19 727.38,352.45 ZM 306.59 347.92 C304.21,345.09 303.47,342.64 303.95,339.15 C304.05,338.41 303.65,338.10 303.07,338.46 C301.72,339.29 301.66,345.67 303.00,346.50 C303.55,346.84 303.99,347.65 303.98,348.31 C303.98,349.04 303.56,348.92 302.91,348.00 C302.08,346.83 301.93,346.81 302.23,347.91 C302.44,348.69 303.41,349.44 304.40,349.59 C305.38,349.73 306.44,350.11 306.76,350.42 C307.07,350.74 307.75,351.00 308.26,351.00 C308.76,351.00 308.01,349.62 306.59,347.92 ZM 717.96 350.02 C719.94,348.96 722.04,343.97 721.93,340.60 C721.88,339.22 721.36,339.86 720.41,342.46 C719.61,344.63 717.99,347.44 716.81,348.71 C714.52,351.14 714.95,351.63 717.96,350.02 ZM 278.50 347.00 C278.87,346.40 277.51,346.00 275.06,346.00 C272.83,346.00 271.00,345.55 271.00,345.00 C271.00,344.45 272.36,344.00 274.03,344.00 C277.27,344.00 284.65,341.32 283.79,340.46 C283.51,340.18 281.99,340.43 280.42,341.03 C277.02,342.32 267.47,342.60 263.97,341.51 L 261.50 340.73 L 263.50 343.00 C267.12,347.11 276.83,349.70 278.50,347.00 ZM 755.28 346.64 C757.05,345.89 759.39,344.28 760.47,343.06 L 762.45 340.85 L 759.72 341.43 C758.23,341.74 755.92,342.22 754.60,342.49 C752.33,342.96 744.87,341.90 740.50,340.49 C738.54,339.86 738.54,339.87 740.45,341.09 C741.52,341.77 744.90,343.11 747.95,344.07 L 753.50 345.82 L 748.50 345.92 C744.88,346.00 743.91,346.30 745.00,347.00 C747.13,348.38 751.53,348.22 755.28,346.64 ZM 337.70 331.89 C335.30,326.72 332.65,321.94 331.81,321.24 C330.08,319.82 318.88,315.79 318.29,316.38 C318.08,316.59 322.77,321.85 328.70,328.08 L 339.50 339.39 L 332.50 335.56 C323.63,330.69 322.52,329.71 319.91,324.32 C316.87,318.03 316.29,319.77 319.27,326.27 C321.64,331.46 322.14,331.88 331.62,336.76 C337.05,339.55 341.62,341.71 341.78,341.56 C341.93,341.40 340.10,337.05 337.70,331.89 ZM 699.75 332.34 C703.02,329.88 705.13,326.63 706.47,322.00 C706.86,320.62 705.68,321.94 703.84,324.93 C701.91,328.08 699.03,331.18 697.00,332.29 C695.08,333.36 691.47,335.39 689.00,336.82 C684.96,339.14 685.61,338.24 695.30,328.08 C701.23,321.86 705.88,316.54 705.62,316.28 C705.01,315.68 693.98,319.77 692.17,321.28 C691.42,321.90 689.23,325.80 687.30,329.95 C681.16,343.19 681.00,342.52 689.27,338.39 C693.25,336.41 697.96,333.68 699.75,332.34 ZM 713.72 325.24 C712.46,320.52 711.48,319.87 710.75,323.25 C710.48,324.49 709.90,326.36 709.46,327.41 C708.99,328.53 709.04,329.10 709.58,328.79 C710.09,328.49 711.40,328.59 712.50,329.00 C713.60,329.41 714.58,329.69 714.68,329.62 C714.77,329.54 714.34,327.57 713.72,325.24 ZM 314.40 327.04 C314.04,326.19 313.52,324.49 313.25,323.25 C312.53,319.91 311.54,320.51 310.34,325.01 L 309.27 329.01 L 312.16 328.79 C314.33,328.63 314.89,328.19 314.40,327.04 ZM 296.00 320.01 C298.34,315.42 299.84,305.00 298.17,305.00 C297.03,305.00 290.19,313.67 288.04,317.84 C286.03,321.73 287.76,321.52 290.08,317.58 C292.55,313.41 293.57,313.37 292.00,317.50 C291.42,319.03 291.17,320.50 291.44,320.78 C291.72,321.05 292.41,319.98 292.99,318.39 C293.56,316.80 294.44,314.60 294.95,313.50 L 295.86 311.50 L 295.93 313.50 C295.96,314.60 295.52,317.17 294.96,319.22 C293.99,322.70 293.72,322.90 290.71,322.41 L 287.50 321.88 L 289.99 323.35 C293.03,325.15 293.51,324.88 296.00,320.01 ZM 735.00 322.90 C736.16,322.08 735.91,321.97 733.86,322.41 C730.51,323.14 729.24,321.61 728.52,315.95 C727.94,311.35 728.44,311.89 731.09,318.75 C731.57,319.99 732.39,321.00 732.92,321.00 C733.45,321.00 733.24,319.76 732.45,318.25 C731.66,316.74 731.03,314.83 731.05,314.00 C731.07,313.17 731.96,314.16 733.03,316.19 C735.19,320.27 737.00,321.88 737.00,319.71 C737.00,318.21 727.85,305.64 725.87,304.42 C723.92,303.21 725.49,315.08 727.91,319.82 C730.07,324.06 732.12,324.95 735.00,322.90 ZM 329.25 311.48 C329.63,309.50 329.38,309.05 328.12,309.43 C327.23,309.69 325.20,310.22 323.61,310.60 L 320.72 311.29 L 323.61 312.56 C327.86,314.44 328.71,314.27 329.25,311.48 ZM 700.00 312.57 L 703.50 311.29 L 700.00 310.53 C698.08,310.11 695.85,309.26 695.06,308.63 C693.89,307.71 693.75,307.84 694.31,309.33 C694.69,310.34 695.00,311.80 695.00,312.58 C695.00,314.25 695.39,314.25 700.00,312.57 ZM 292.07 303.07 C295.05,299.53 300.88,293.96 305.00,290.69 C309.12,287.42 312.63,284.41 312.79,284.00 C312.95,283.58 312.34,282.96 311.43,282.61 C309.33,281.81 299.14,288.99 292.97,295.62 C287.33,301.70 282.58,307.92 283.15,308.49 C283.39,308.73 285.53,306.44 287.90,303.40 C293.36,296.41 294.63,297.14 289.33,304.22 C284.66,310.45 282.87,313.38 285.17,311.00 C285.97,310.17 289.08,306.61 292.07,303.07 ZM 739.18 309.78 C737.38,307.97 737.78,306.57 739.65,308.13 C741.18,309.40 741.18,309.25 739.64,306.27 C738.72,304.49 734.26,299.26 729.73,294.64 C721.00,285.73 714.42,281.46 711.94,283.09 C710.77,283.86 711.07,284.46 713.49,286.27 C720.83,291.74 730.94,301.24 734.93,306.41 C737.32,309.51 739.53,311.81 739.82,311.51 C740.12,311.21 739.83,310.43 739.18,309.78 ZM 349.55 304.44 C348.65,303.06 347.48,302.20 346.96,302.53 C346.43,302.85 346.00,302.71 346.00,302.22 C346.00,301.21 340.35,301.31 339.33,302.34 C338.96,302.70 339.75,303.00 341.08,303.00 C344.01,303.01 349.97,306.48 350.08,308.24 C350.14,309.24 350.27,309.23 350.67,308.22 C350.96,307.51 350.45,305.81 349.55,304.44 ZM 372.33 306.58 C376.86,304.79 377.46,304.77 382.08,306.24 C385.56,307.36 386.99,307.48 386.97,306.66 C386.92,304.98 384.83,302.50 382.32,301.16 C379.51,299.67 372.33,299.66 371.41,301.15 C370.92,301.93 371.46,302.13 373.10,301.77 C374.42,301.48 376.62,301.60 378.00,302.02 L 380.50 302.80 L 377.71 302.90 C374.66,303.01 367.55,306.29 366.43,308.12 C366.04,308.74 366.12,309.09 366.62,308.88 C367.11,308.67 369.68,307.64 372.33,306.58 ZM 654.89 306.04 C653.58,304.94 650.72,303.73 648.54,303.35 C645.39,302.82 644.98,302.53 646.54,301.95 C647.62,301.55 649.85,301.43 651.50,301.69 C653.82,302.06 654.16,301.93 653.00,301.10 C652.17,300.51 649.53,300.02 647.12,300.02 C643.37,300.00 642.24,300.52 639.32,303.62 C637.44,305.61 636.08,307.42 636.30,307.63 C636.51,307.85 638.61,307.34 640.97,306.51 C646.40,304.60 648.64,304.66 653.00,306.87 C657.30,309.04 658.07,308.71 654.89,306.04 ZM 678.00 304.50 C679.60,303.67 681.90,303.00 683.12,303.00 C686.66,303.00 684.26,301.58 680.51,301.46 C678.64,301.39 677.20,301.77 677.31,302.30 C677.41,302.82 676.87,303.48 676.11,303.75 C675.18,304.09 674.98,303.84 675.52,302.98 C676.04,302.13 675.91,301.94 675.14,302.41 C674.49,302.81 674.21,303.53 674.50,304.00 C674.79,304.47 674.58,305.14 674.02,305.49 C673.46,305.84 673.01,306.88 673.03,307.81 C673.06,309.36 673.15,309.36 674.08,307.75 C674.64,306.79 676.40,305.32 678.00,304.50 ZM 677.47 299.60 C679.12,299.01 679.21,298.74 677.97,297.96 C675.91,296.66 672.62,296.78 671.20,298.20 C669.26,300.14 669.83,301.47 671.83,299.65 C672.83,298.74 674.25,298.00 674.96,298.00 C675.68,298.00 675.08,298.93 673.63,300.07 C672.19,301.21 671.00,302.64 671.00,303.25 C671.00,303.85 672.01,303.44 673.25,302.32 C674.49,301.21 676.39,299.98 677.47,299.60 ZM 350.69 300.47 C348.00,298.10 344.98,297.18 345.02,298.75 C345.04,299.53 350.76,302.65 352.50,302.83 C353.05,302.89 352.24,301.83 350.69,300.47 ZM 280.71 294.04 C280.40,290.37 279.25,284.81 278.15,281.68 C277.05,278.56 276.51,276.00 276.95,276.00 C277.39,276.00 279.66,276.67 281.99,277.50 C291.89,280.99 305.54,281.56 302.89,278.37 C302.27,277.62 299.90,276.99 297.63,276.98 C292.77,276.96 281.42,274.08 274.87,271.21 C269.63,268.90 266.00,265.48 266.00,262.83 C266.00,261.75 264.42,260.23 262.00,259.00 C259.80,257.88 258.00,257.14 258.00,257.36 C258.00,259.95 261.46,264.95 263.98,265.99 C269.70,268.36 274.04,277.49 276.58,292.50 L 277.94 300.50 L 277.55 292.50 C277.26,286.51 277.40,285.25 278.10,287.50 C278.62,289.15 279.12,293.06 279.23,296.18 C279.34,299.34 279.83,301.60 280.34,301.29 C280.85,300.97 281.01,297.71 280.71,294.04 ZM 749.97 280.94 C752.43,272.75 755.60,267.96 759.91,265.92 C762.20,264.83 763.63,263.21 764.49,260.72 L 765.73 257.10 L 761.87 259.07 C759.74,260.15 758.00,261.75 758.00,262.62 C758.00,263.49 756.54,265.65 754.75,267.42 C750.94,271.19 738.11,275.70 728.08,276.80 C721.65,277.50 719.09,279.27 723.00,280.29 C725.77,281.01 736.45,279.46 741.90,277.54 C744.29,276.69 746.58,276.00 746.99,276.00 C747.40,276.00 746.87,278.59 745.82,281.75 C744.77,284.91 743.71,290.42 743.48,294.00 L 743.05 300.50 L 744.48 293.13 C745.26,289.08 746.14,285.52 746.43,285.23 C746.72,284.94 746.76,288.49 746.52,293.10 L 746.09 301.50 L 747.04 294.50 C747.57,290.65 748.89,284.55 749.97,280.94 ZM 353.00 298.50 C352.32,297.67 351.05,297.00 350.19,297.00 C348.93,297.00 349.00,297.29 350.56,298.47 C353.10,300.39 354.58,300.41 353.00,298.50 ZM 317.57 296.50 C325.10,294.22 325.48,293.82 323.57,290.13 C322.68,288.41 321.23,287.00 320.35,287.00 C318.75,287.00 306.63,295.17 305.49,297.02 C304.56,298.52 311.96,298.21 317.57,296.50 ZM 354.54 296.07 C354.18,295.48 353.40,295.00 352.82,295.00 C352.16,295.00 352.23,295.57 353.02,296.52 C354.39,298.18 355.62,297.81 354.54,296.07 ZM 672.60 295.26 C672.00,294.67 669.00,296.22 669.00,297.12 C669.00,297.61 669.88,297.47 670.95,296.80 C672.03,296.12 672.77,295.44 672.60,295.26 ZM 718.00 296.50 C716.11,294.22 704.96,287.00 703.34,287.00 C702.55,287.00 701.29,288.46 700.53,290.25 C699.32,293.13 699.35,293.61 700.83,294.45 C704.56,296.57 709.77,297.91 714.37,297.96 C718.59,297.99 719.08,297.80 718.00,296.50 ZM 368.93 282.00 C377.62,273.45 386.65,267.34 395.00,264.38 C397.47,263.50 400.17,262.54 401.00,262.25 C403.17,261.49 398.54,260.22 393.12,260.10 L 388.74 260.00 L 389.35 256.23 C389.68,254.16 389.57,251.12 389.10,249.48 L 388.25 246.50 L 387.13 249.32 C386.51,250.86 386.00,252.67 386.00,253.34 C386.00,254.00 383.91,258.13 381.35,262.52 C378.03,268.20 373.35,273.85 365.07,282.15 C355.55,291.69 353.73,293.98 354.98,294.81 C356.15,295.59 356.94,295.20 358.40,293.16 C359.45,291.70 364.19,286.67 368.93,282.00 ZM 661.49 284.78 C656.20,279.78 649.93,272.95 647.54,269.60 C643.61,264.07 638.02,253.41 636.54,248.61 C635.52,245.31 634.78,247.67 634.87,253.94 L 634.95 260.00 L 630.73 260.12 C628.40,260.18 625.15,260.55 623.50,260.93 C620.61,261.59 620.69,261.67 626.00,263.28 C637.95,266.89 656.64,280.81 664.10,291.64 C666.71,295.44 667.37,295.87 669.10,294.95 C670.93,293.97 670.29,293.12 661.49,284.78 ZM 287.17 292.09 C287.88,293.10 287.98,292.69 287.54,290.67 C287.14,288.82 287.28,288.06 287.96,288.48 C288.53,288.83 289.00,289.82 289.00,290.68 C289.00,291.78 290.15,291.25 292.92,288.87 C295.07,287.01 296.87,285.16 296.92,284.75 C296.96,284.34 295.54,283.99 293.75,283.98 C291.96,283.96 288.81,283.56 286.75,283.08 C284.69,282.60 283.00,282.54 283.00,282.94 C283.00,283.34 283.55,286.33 284.23,289.58 C285.05,293.53 285.58,294.70 285.82,293.09 C286.11,291.18 286.39,290.97 287.17,292.09 ZM 740.98 283.86 C741.00,282.47 740.42,282.35 737.25,283.08 C735.19,283.56 732.04,283.96 730.25,283.98 C728.46,283.99 727.04,284.34 727.08,284.75 C727.13,285.16 728.93,287.01 731.08,288.87 C733.85,291.25 735.00,291.78 735.00,290.68 C735.00,289.82 735.39,288.88 735.86,288.59 C736.33,288.30 736.54,289.28 736.34,290.78 C736.02,293.12 736.10,293.22 736.92,291.50 C737.75,289.72 737.88,289.84 738.02,292.50 C738.16,295.07 738.38,294.79 739.57,290.50 C740.34,287.75 740.97,284.76 740.98,283.86 ZM 267.29 289.98 C264.97,287.79 262.54,286.00 261.87,286.00 C261.21,286.00 260.85,286.18 261.08,286.39 C263.62,288.77 270.34,293.99 270.84,293.98 C271.21,293.96 269.60,292.16 267.29,289.98 ZM 758.97 289.99 C761.97,287.35 762.74,286.25 761.33,286.62 C759.14,287.20 751.89,294.03 753.55,293.96 C754.07,293.93 756.51,292.15 758.97,289.99 ZM 269.02 285.52 C268.32,284.69 267.29,284.00 266.72,284.00 C266.15,284.00 266.51,284.90 267.51,286.01 C269.57,288.29 270.95,287.85 269.02,285.52 ZM 270.62 284.34 C269.77,282.78 269.06,282.07 269.04,282.76 C268.99,284.20 271.24,288.10 271.79,287.54 C271.99,287.34 271.46,285.90 270.62,284.34 ZM 757.53 284.20 C756.86,283.53 754.00,286.02 754.00,287.28 C754.00,287.85 754.90,287.49 756.01,286.49 C757.11,285.50 757.80,284.46 757.53,284.20 ZM 343.38 280.61 C344.27,278.74 345.00,275.80 345.00,274.10 C345.00,272.39 345.50,271.00 346.10,271.00 C346.79,271.00 347.07,272.68 346.84,275.53 C346.54,279.37 346.67,279.80 347.74,278.34 C350.52,274.54 348.68,266.74 344.03,262.52 L 341.85 260.55 L 342.68 263.53 C343.94,268.08 343.42,277.07 341.66,281.29 C339.72,285.91 341.12,285.37 343.38,280.61 ZM 682.36 280.53 C681.38,277.67 680.95,273.53 681.17,269.03 C681.52,261.51 680.91,260.90 677.56,265.39 C675.27,268.45 674.67,277.07 676.61,279.01 C677.42,279.82 677.63,278.70 677.38,274.81 C677.06,269.75 677.10,269.67 678.10,273.00 C679.40,277.32 682.81,285.00 683.43,285.00 C683.68,285.00 683.19,282.99 682.36,280.53 ZM 755.00 282.88 C755.00,282.33 754.55,282.16 754.00,282.50 C753.45,282.84 753.00,283.57 753.00,284.12 C753.00,284.67 753.45,284.84 754.00,284.50 C754.55,284.16 755.00,283.43 755.00,282.88 ZM 265.44 278.78 C267.44,275.93 267.41,274.11 265.35,271.83 C263.04,269.28 260.00,269.45 260.00,272.12 C260.00,273.71 260.47,274.11 261.91,273.73 C263.31,273.37 263.93,273.85 264.26,275.57 C264.71,277.91 263.46,280.00 261.61,280.00 C261.06,280.00 261.41,279.42 262.37,278.72 C263.89,277.61 263.58,277.49 260.15,277.81 C251.89,278.60 245.00,270.96 236.11,251.16 C232.83,243.85 228.99,236.37 227.58,234.52 C225.48,231.76 215.94,226.00 213.48,226.00 C213.13,226.00 215.29,228.24 218.29,230.98 C224.70,236.84 230.56,245.55 235.11,256.00 C239.02,264.97 242.48,270.25 247.66,275.12 C252.83,280.00 254.76,280.93 259.69,280.97 C262.91,280.99 264.25,280.48 265.44,278.78 ZM 771.50 279.13 C778.70,274.67 784.29,267.17 789.51,254.97 C794.04,244.40 798.87,237.23 805.67,231.02 C809.67,227.36 810.47,226.25 808.58,226.97 C799.73,230.33 795.95,233.95 791.82,243.00 C790.19,246.57 787.43,252.63 785.68,256.46 C783.93,260.28 781.02,265.36 779.22,267.75 C777.41,270.15 776.25,272.63 776.63,273.30 C777.01,273.96 776.96,274.18 776.53,273.79 C776.09,273.39 773.79,274.21 771.42,275.60 C766.41,278.54 760.73,278.61 760.18,275.75 C759.96,274.54 760.49,274.00 761.93,274.00 C763.33,274.00 764.00,273.36 764.00,272.00 C764.00,269.54 761.36,269.37 758.83,271.65 C756.59,273.68 756.51,275.85 758.56,278.78 C760.55,281.62 767.19,281.81 771.50,279.13 ZM 251.85 267.97 C249.00,265.26 248.93,265.11 251.38,266.90 C254.54,269.20 256.00,269.55 256.00,268.00 C256.00,267.45 255.36,267.00 254.58,267.00 C253.19,267.00 245.66,259.01 246.37,258.29 C246.57,258.10 248.32,259.52 250.27,261.47 C253.67,264.87 256.00,265.95 256.00,264.12 C256.00,262.58 252.95,255.88 250.42,251.88 C249.08,249.75 248.22,248.00 248.51,248.00 C248.80,248.00 252.67,249.82 257.11,252.05 C261.54,254.28 265.65,255.95 266.23,255.76 C266.82,255.56 265.76,253.65 263.90,251.51 C262.03,249.36 261.17,247.99 262.00,248.45 C264.66,249.95 268.00,253.32 268.00,254.50 C268.00,255.22 269.16,255.48 271.07,255.20 L 274.14 254.75 L 271.32 251.75 C267.00,247.14 259.46,242.66 249.00,238.49 C243.77,236.41 237.91,233.70 235.96,232.47 C227.24,226.98 222.00,216.80 222.00,205.38 C222.00,200.58 221.67,198.95 220.75,199.25 C219.31,199.74 218.99,212.67 220.30,217.38 C221.05,220.05 220.94,220.21 218.80,219.58 C213.46,218.01 205.18,217.79 201.40,219.11 L 197.50 220.47 L 206.54 221.06 C213.92,221.54 216.55,222.18 220.89,224.54 C228.37,228.61 234.22,235.53 237.96,244.76 C243.56,258.52 247.97,266.79 251.14,269.47 C255.41,273.06 255.97,271.88 251.85,267.97 ZM 288.70 268.59 L 286.50 265.17 L 284.78 267.34 C283.13,269.43 283.16,269.54 285.78,270.70 C290.36,272.74 291.06,272.23 288.70,268.59 ZM 737.85 270.90 C741.46,269.64 741.70,268.93 739.25,266.77 C737.64,265.35 737.32,265.49 735.30,268.61 C732.89,272.31 733.15,272.54 737.85,270.90 ZM 774.00 267.88 C774.00,266.53 773.55,266.79 770.92,269.64 L 768.50 272.29 L 771.25 270.53 C772.76,269.56 774.00,268.37 774.00,267.88 ZM 294.30 269.73 C289.55,262.19 287.47,259.78 287.16,261.43 C286.95,262.48 288.39,264.84 290.61,267.11 C294.51,271.11 295.70,271.95 294.30,269.73 ZM 736.97 261.79 C736.96,261.08 735.60,262.08 733.95,264.00 C729.18,269.56 728.45,271.92 732.93,267.29 C735.17,264.97 736.99,262.50 736.97,261.79 ZM 771.65 267.54 C772.80,266.73 773.99,266.32 774.30,266.63 C775.24,267.57 779.44,260.08 784.75,248.00 C793.19,228.79 801.09,222.18 816.94,221.08 C824.84,220.53 825.31,220.37 823.07,219.11 C820.67,217.75 810.72,218.03 805.20,219.60 C803.07,220.21 802.96,220.05 803.70,217.38 C804.91,213.01 804.69,199.74 803.39,199.30 C802.67,199.06 802.10,201.84 801.76,207.36 C801.34,214.09 800.66,216.85 798.40,221.01 C794.53,228.12 788.32,233.28 779.18,236.98 C774.96,238.68 769.27,241.08 766.54,242.29 C761.07,244.73 750.00,252.49 750.00,253.88 C750.00,254.37 751.35,254.97 753.00,255.21 C754.85,255.49 756.00,255.21 756.00,254.50 C756.00,253.32 759.34,249.95 762.00,248.45 C762.83,247.99 761.97,249.36 760.10,251.51 C758.24,253.65 757.19,255.56 757.78,255.76 C758.38,255.96 762.49,254.31 766.93,252.09 C771.37,249.88 775.00,248.25 775.00,248.48 C775.00,248.71 773.42,252.03 771.50,255.86 C769.58,259.70 768.00,263.32 768.00,263.92 C768.00,265.94 770.19,265.01 773.73,261.47 C775.68,259.52 777.42,258.09 777.61,258.27 C778.30,258.97 771.88,265.90 769.98,266.51 C768.89,266.85 768.00,267.55 768.00,268.07 C768.00,269.40 769.24,269.22 771.65,267.54 ZM 280.09 265.13 C284.76,261.34 281.84,251.79 273.72,244.31 C271.27,242.05 265.72,238.56 261.38,236.56 C244.36,228.70 240.52,226.37 233.82,219.88 C226.62,212.90 225.80,212.72 228.93,218.86 C231.56,224.02 237.36,228.98 244.52,232.18 C247.81,233.65 253.64,236.26 257.48,237.98 C272.54,244.73 282.82,256.78 277.80,261.80 C276.02,263.58 275.00,263.26 275.00,260.93 C275.00,259.36 274.46,258.94 272.76,259.18 C269.78,259.61 269.39,262.39 271.94,264.94 C274.50,267.50 277.09,267.56 280.09,265.13 ZM 752.00 265.00 C754.38,262.62 754.49,261.65 752.54,260.04 C750.87,258.65 749.00,259.45 749.00,261.56 C749.00,264.10 746.06,263.10 745.37,260.32 C743.73,253.80 752.74,244.20 766.26,238.06 C769.97,236.38 776.04,233.62 779.75,231.94 C787.78,228.30 791.35,225.14 794.59,218.78 C797.93,212.24 797.63,212.00 792.87,217.41 C787.48,223.54 778.53,229.54 768.74,233.61 C755.69,239.03 748.79,244.18 744.11,252.00 C741.20,256.84 741.26,263.37 744.22,265.44 C747.21,267.54 749.60,267.40 752.00,265.00 ZM 227.36 247.37 C222.83,239.85 211.18,227.00 208.90,227.00 C208.30,227.00 210.84,230.26 214.55,234.25 C218.26,238.24 223.56,244.75 226.33,248.73 C229.11,252.70 231.54,255.79 231.74,255.59 C231.94,255.40 229.97,251.69 227.36,247.37 ZM 811.85 231.63 C815.18,228.18 816.52,226.27 815.11,226.99 C810.86,229.17 800.61,240.52 796.25,247.86 C793.91,251.80 792.00,255.30 792.00,255.63 C792.00,255.96 795.20,252.01 799.10,246.86 C803.01,241.71 808.74,234.86 811.85,231.63 ZM 407.75 246.99 C410.09,243.46 412.00,240.22 412.00,239.80 C412.00,238.36 400.51,244.02 398.25,246.57 C394.68,250.60 395.32,252.60 399.25,249.70 C405.05,245.41 405.53,245.51 401.67,250.23 L 397.87 254.86 L 400.69 254.14 C402.66,253.63 404.77,251.50 407.75,246.99 ZM 621.83 249.79 C618.43,245.48 619.02,245.46 624.75,249.70 C627.39,251.65 628.00,251.80 628.00,250.51 C628.00,247.99 623.47,244.10 617.45,241.44 C614.42,240.10 611.74,239.00 611.48,239.00 C610.63,239.00 618.20,250.49 620.22,252.25 C624.24,255.76 625.29,254.16 621.83,249.79 ZM 415.59 246.25 C421.09,237.08 425.29,228.95 424.79,228.45 C424.21,227.88 406.38,234.25 401.25,236.87 C398.91,238.06 397.00,239.68 397.00,240.46 C397.00,241.50 398.90,240.99 404.25,238.54 C411.99,234.98 419.02,232.73 418.97,233.83 C418.95,234.20 416.77,238.66 414.12,243.75 C408.55,254.44 409.60,256.23 415.59,246.25 ZM 609.87 243.45 C607.06,238.20 604.93,233.73 605.14,233.53 C605.68,232.99 617.83,237.36 622.75,239.87 C626.23,241.65 627.00,241.77 627.00,240.54 C627.00,239.72 625.31,238.18 623.25,237.13 C618.59,234.76 602.37,229.00 600.35,229.00 C599.27,229.00 600.10,231.32 603.39,237.46 C609.48,248.81 612.25,252.97 613.74,252.99 C614.45,252.99 612.79,248.92 609.87,243.45 ZM 254.62 229.69 C249.50,226.44 237.81,217.03 232.14,211.60 C228.13,207.76 226.24,206.43 227.03,208.00 C229.16,212.24 242.41,224.33 248.61,227.69 C254.25,230.75 258.54,232.17 254.62,229.69 ZM 779.00 225.09 C785.04,221.29 794.91,211.92 796.99,208.00 C797.78,206.51 795.50,208.14 791.39,212.01 C783.65,219.30 772.65,228.00 771.20,228.00 C770.67,228.00 769.66,228.70 768.95,229.56 C767.80,230.95 767.97,230.97 770.58,229.83 C772.19,229.12 775.97,226.99 779.00,225.09 ZM 197.64 210.50 C202.10,204.97 207.24,200.04 212.32,196.40 C221.05,190.14 222.08,187.98 213.83,193.22 C205.31,198.64 205.28,198.66 206.89,196.67 C207.65,195.74 210.46,193.55 213.14,191.81 C215.81,190.08 218.00,188.29 218.00,187.83 C218.00,184.65 207.85,190.96 199.47,199.35 C193.14,205.69 188.76,211.82 187.76,215.75 C186.94,218.97 188.28,218.53 189.81,215.07 C190.52,213.46 192.93,210.19 195.16,207.82 C197.39,205.44 198.50,204.62 197.62,206.00 C196.74,207.38 195.35,209.85 194.54,211.50 C193.72,213.15 192.31,215.51 191.41,216.75 C190.50,217.99 189.99,219.00 190.27,219.00 C190.56,219.00 193.87,215.17 197.64,210.50 ZM 831.54 215.27 C830.14,213.22 829.00,211.19 829.00,210.77 C829.00,210.35 828.10,209.10 827.00,208.00 C825.90,206.90 825.01,205.44 825.01,204.75 C825.03,202.85 832.44,211.23 833.93,214.84 C835.62,218.91 837.13,218.95 835.97,214.89 C833.44,206.07 813.22,186.93 806.55,187.03 C804.54,187.07 804.54,187.10 806.70,188.78 C807.90,189.73 810.48,191.62 812.42,193.00 C814.36,194.38 815.96,195.87 815.97,196.32 C815.99,196.77 814.76,196.27 813.25,195.20 C810.02,192.93 803.05,189.35 804.50,190.71 C805.05,191.22 808.42,193.94 812.00,196.74 C819.01,202.24 824.75,208.01 829.91,214.75 C833.93,220.00 834.98,220.33 831.54,215.27 ZM 206.00 213.38 C206.00,213.17 205.10,213.00 204.00,213.00 C202.90,213.00 202.00,213.41 202.00,213.91 C202.00,214.40 202.90,214.58 204.00,214.29 C205.10,214.00 206.00,213.59 206.00,213.38 ZM 214.99 211.25 C214.58,209.19 213.93,206.60 213.53,205.50 C213.02,204.09 213.09,203.89 213.77,204.84 C214.50,205.86 214.85,205.57 215.23,203.59 C215.50,202.17 215.39,201.00 214.98,201.00 C214.58,201.00 211.96,203.18 209.17,205.84 L 204.10 210.67 L 208.30 212.82 C214.65,216.07 215.89,215.78 214.99,211.25 ZM 822.11 213.72 C821.68,213.29 819.27,212.89 816.76,212.84 L 812.18 212.75 L 814.83 210.47 C817.45,208.22 817.46,208.16 815.59,206.09 C812.28,202.44 811.22,203.41 808.58,212.56 C808.02,214.52 808.37,214.62 815.44,214.56 C819.54,214.53 822.54,214.15 822.11,213.72 ZM 819.00 211.00 C820.29,210.16 820.27,210.03 818.81,210.02 C817.88,210.01 816.84,210.45 816.50,211.00 C815.72,212.27 817.04,212.27 819.00,211.00 ZM 185.44 205.69 C184.15,202.33 164.79,195.78 161.73,197.67 C161.09,198.06 161.00,197.82 161.48,197.03 C162.05,196.11 164.31,195.89 169.64,196.23 C175.36,196.59 178.35,197.40 183.01,199.84 C186.30,201.57 189.00,202.59 189.00,202.11 C189.00,200.65 183.90,197.77 177.01,195.34 L 170.50 193.04 L 174.68 193.02 C177.51,193.01 180.95,194.09 185.37,196.39 C188.95,198.26 192.13,199.54 192.44,199.23 C195.33,196.33 184.50,190.75 174.90,190.18 C167.63,189.75 163.57,191.20 159.36,195.74 C155.55,199.86 156.27,200.50 164.75,200.54 C171.43,200.57 173.33,201.01 178.50,203.69 C185.41,207.27 186.12,207.48 185.44,205.69 ZM 845.50 203.49 C850.53,201.04 852.75,200.57 859.25,200.55 C867.42,200.53 868.17,199.98 865.12,196.33 C859.07,189.08 847.78,187.77 837.16,193.08 C833.77,194.77 831.00,196.80 831.00,197.58 C831.00,199.58 832.34,199.37 838.17,196.41 C841.18,194.89 845.58,193.65 848.89,193.39 L 854.50 192.96 L 849.18 194.48 C843.41,196.12 835.00,200.64 835.00,202.10 C835.00,203.47 835.94,203.20 838.73,201.00 C843.75,197.05 858.09,194.51 861.86,196.89 C862.73,197.44 860.93,197.90 856.86,198.17 C850.26,198.60 839.08,203.26 838.18,205.95 C837.95,206.66 838.14,207.06 838.62,206.83 C839.11,206.59 842.20,205.09 845.50,203.49 ZM 809.69 202.27 C809.44,201.30 809.22,201.85 809.19,203.50 C809.17,205.15 809.38,205.95 809.66,205.27 C809.93,204.59 809.95,203.24 809.69,202.27 ZM 156.31 193.11 C157.72,190.97 160.26,188.61 161.94,187.87 C165.77,186.17 165.86,185.00 162.17,185.00 C158.85,185.00 155.77,188.03 154.14,192.90 C152.29,198.42 152.76,198.47 156.31,193.11 ZM 870.10 192.84 C868.46,188.15 865.14,185.00 861.83,185.00 C858.12,185.00 858.28,186.13 862.27,188.07 C864.05,188.93 866.59,191.30 867.92,193.32 C870.76,197.64 871.70,197.43 870.10,192.84 ZM 198.51 191.99 C198.85,191.43 198.02,188.62 196.66,185.74 C195.30,182.86 193.90,178.25 193.55,175.50 L 192.91 170.50 L 194.78 175.69 C196.61,180.75 201.79,189.55 202.52,188.82 C202.72,188.62 201.46,185.59 199.73,182.09 C196.39,175.36 194.55,163.00 196.88,163.00 C197.53,163.00 198.00,164.81 198.00,167.34 C198.00,171.80 202.60,182.59 205.53,185.02 C207.72,186.84 207.45,184.45 205.09,181.13 C201.88,176.62 199.68,167.34 200.40,161.29 C200.97,156.36 200.88,155.99 199.26,156.88 C189.65,162.11 187.43,173.49 193.44,186.75 C196.23,192.91 197.27,193.98 198.51,191.99 ZM 830.26 186.92 C835.48,176.64 835.15,167.39 829.33,160.94 C824.21,155.28 823.41,155.73 823.46,164.25 C823.49,170.41 823.01,172.53 820.23,178.40 C816.68,185.90 816.55,187.85 819.91,183.13 C823.52,178.05 825.96,171.69 825.98,167.25 C825.99,164.80 826.47,163.00 827.12,163.00 C827.86,163.00 828.10,165.07 827.82,169.25 C827.46,174.79 826.16,178.52 821.21,188.25 C821.00,188.66 821.24,189.00 821.73,189.00 C822.99,189.00 827.16,181.55 829.27,175.54 L 831.03 170.50 L 830.44 175.50 C830.12,178.25 828.76,182.92 827.43,185.87 C824.69,191.93 824.45,193.35 826.25,192.75 C826.94,192.53 828.74,189.90 830.26,186.92 ZM 181.17 185.14 C179.03,184.00 177.15,181.82 175.90,179.04 C174.84,176.65 174.11,174.55 174.29,174.37 C174.47,174.19 177.74,176.96 181.56,180.52 C185.38,184.08 188.62,187.00 188.78,187.00 C188.93,187.00 188.43,185.76 187.67,184.25 C186.90,182.74 186.01,180.38 185.68,179.00 C185.13,176.70 181.59,174.47 173.74,171.46 C171.42,170.56 171.48,172.62 173.96,178.41 C175.77,182.62 180.72,187.06 183.50,186.95 C184.05,186.93 183.00,186.12 181.17,185.14 ZM 843.98 185.86 C846.65,184.92 847.79,183.53 850.19,178.25 C851.80,174.69 852.87,171.54 852.57,171.24 C852.27,170.94 849.10,171.93 845.52,173.45 C839.49,176.02 838.94,176.52 837.91,180.36 C837.30,182.64 836.55,184.95 836.26,185.50 C835.96,186.05 837.92,184.46 840.61,181.98 C843.30,179.49 846.73,176.38 848.24,175.06 L 850.98 172.67 L 848.48 177.86 C846.96,181.01 844.70,183.82 842.74,185.02 C839.03,187.28 839.33,187.48 843.98,185.86 ZM 171.28 182.77 C169.98,181.12 166.00,169.13 166.00,166.86 C166.00,165.22 166.34,165.21 171.02,166.60 C173.79,167.42 178.10,168.97 180.61,170.05 C183.12,171.12 185.01,171.52 184.81,170.92 C184.05,168.64 161.47,158.20 160.15,159.52 C158.95,160.72 166.64,179.69 169.78,183.26 C171.50,185.21 172.86,184.78 171.28,182.77 ZM 858.03 176.50 C861.22,169.41 864.38,160.05 863.78,159.45 C863.18,158.85 850.40,163.86 844.56,166.99 C838.30,170.34 837.26,172.65 843.17,170.07 C845.55,169.03 849.86,167.49 852.75,166.64 C857.67,165.20 858.00,165.22 858.00,166.86 C858.00,169.09 854.02,181.19 852.87,182.45 C851.32,184.15 851.95,185.28 853.67,183.87 C854.59,183.12 856.55,179.80 858.03,176.50 ZM 161.05 177.25 C156.82,171.73 151.39,163.43 150.11,160.50 C147.40,154.31 145.04,148.00 145.44,148.00 C145.67,148.00 147.72,151.49 149.99,155.76 C152.27,160.03 154.97,164.63 156.00,165.99 C157.80,168.39 157.80,168.24 155.95,161.48 C154.64,156.70 153.17,153.71 151.27,152.00 C145.59,146.88 144.71,144.71 150.16,149.27 C153.27,151.87 156.42,154.01 157.16,154.02 C159.34,154.05 175.08,159.82 177.73,161.56 C181.69,164.15 181.36,162.56 177.17,158.77 C170.52,152.76 155.78,145.12 144.68,141.91 C141.93,141.12 141.88,141.17 142.55,144.30 C144.75,154.51 152.46,169.95 158.52,176.25 C162.75,180.65 164.06,181.17 161.05,177.25 ZM 867.30 174.42 C873.13,166.85 882.91,145.08 881.83,142.06 C881.33,140.66 863.63,147.64 855.85,152.30 C852.09,154.55 847.54,157.93 845.75,159.81 L 842.50 163.23 L 846.54 161.20 C848.76,160.09 854.94,157.76 860.27,156.02 C865.60,154.29 870.20,152.48 870.49,152.01 C870.79,151.53 872.93,149.67 875.26,147.87 C877.59,146.06 878.71,145.50 877.75,146.62 C875.78,148.91 875.43,150.47 877.11,149.43 C878.43,148.61 877.66,151.60 875.03,157.50 C874.05,159.70 873.01,162.18 872.74,163.00 C872.46,163.82 869.70,168.03 866.60,172.34 C860.50,180.82 861.07,182.51 867.30,174.42 ZM 873.15 157.35 C876.78,150.57 876.42,148.13 872.38,152.17 C870.80,153.75 869.11,157.36 867.97,161.61 C866.17,168.31 866.17,168.42 867.98,166.03 C869.00,164.67 871.33,160.77 873.15,157.35 ZM 194.34 155.46 C198.73,152.86 195.96,152.47 191.03,154.98 C186.86,157.11 184.57,160.73 185.64,163.51 C186.08,164.65 186.89,164.03 188.75,161.16 C190.14,159.02 192.65,156.45 194.34,155.46 ZM 837.62 158.54 C836.00,156.06 829.57,152.64 827.70,153.27 C827.19,153.44 828.38,154.69 830.36,156.04 C832.33,157.39 834.75,159.98 835.72,161.78 C837.36,164.83 837.56,164.92 838.38,163.07 C839.01,161.67 838.78,160.31 837.62,158.54 ZM 336.98 825.96 C335.61,823.40 336.54,820.32 339.11,818.94 C343.70,816.49 348.36,821.28 345.55,825.57 C343.50,828.69 338.56,828.92 336.98,825.96 ZM 684.57 823.50 C683.26,817.49 681.66,815.54 677.23,814.56 C671.93,813.38 671.86,812.44 676.98,811.62 C681.50,810.90 683.36,808.65 684.54,802.50 L 685.31 798.50 L 686.25 803.00 C687.42,808.58 689.31,810.78 693.64,811.59 C697.43,812.30 698.20,814.00 694.72,814.00 C691.01,814.00 688.13,816.78 686.63,821.79 C685.24,826.45 685.22,826.47 684.57,823.50 ZM 450.12 813.47 C448.78,801.65 446.82,787.49 446.49,787.15 C446.25,786.91 444.13,788.28 441.78,790.18 C433.79,796.65 433.00,796.43 439.06,789.43 C441.38,786.75 442.75,784.35 442.26,783.86 C441.78,783.38 436.46,782.46 430.44,781.82 C424.42,781.18 419.14,780.36 418.71,779.99 C418.27,779.62 422.55,778.76 428.21,778.08 C433.87,777.40 439.73,776.60 441.22,776.30 L 443.95 775.76 L 439.47 770.65 C437.01,767.84 435.00,765.15 435.00,764.68 C435.00,764.21 437.31,765.67 440.13,767.91 C442.95,770.16 445.60,772.00 446.02,772.00 C446.72,772.00 448.04,764.10 449.58,750.70 C449.94,747.52 450.38,745.04 450.54,745.20 C450.70,745.37 451.33,750.00 451.93,755.50 C453.33,768.21 454.03,772.00 454.98,772.00 C455.40,772.00 458.05,770.16 460.87,767.91 C463.69,765.67 466.00,764.12 466.00,764.49 C466.00,764.85 464.13,767.36 461.84,770.08 C459.55,772.79 457.95,775.28 458.28,775.62 C458.62,775.95 464.43,777.00 471.20,777.95 C484.59,779.83 484.40,780.19 469.00,781.99 C463.77,782.61 459.08,783.53 458.56,784.05 C457.97,784.64 458.54,786.02 460.09,787.74 C467.48,795.99 467.27,796.72 459.33,790.34 C457.04,788.51 454.95,787.00 454.69,787.00 C454.42,787.00 453.69,790.71 453.06,795.25 C451.14,808.97 450.24,814.55 450.12,813.47 ZM 456.73 781.47 C460.75,780.15 461.94,779.00 459.28,779.00 C456.22,779.00 453.09,776.00 451.60,771.62 L 450.27 767.75 L 449.60 771.33 C448.86,775.25 445.04,778.96 441.62,779.07 C440.10,779.12 440.64,779.65 443.53,780.94 C447.42,782.67 449.94,786.09 450.05,789.80 C450.08,790.73 450.88,789.47 451.83,787.00 C453.17,783.50 454.26,782.27 456.73,781.47 ZM 560.08 807.08 C557.47,804.47 557.45,802.55 560.00,800.00 C563.00,797.00 565.68,797.52 567.73,801.50 C568.84,803.64 567.75,808.00 566.11,808.00 C565.59,808.00 564.49,808.26 563.66,808.58 C562.83,808.89 561.22,808.22 560.08,807.08 ZM 617.44 748.93 C615.73,747.04 615.70,746.63 617.06,744.18 C619.12,740.50 623.34,740.06 625.46,743.30 C629.16,748.94 622.00,753.97 617.44,748.93 ZM 560.13 727.50 C557.26,712.83 557.25,712.82 546.62,710.80 C542.98,710.11 540.00,709.29 540.00,708.97 C540.00,708.66 542.81,707.83 546.25,707.13 C556.61,705.02 557.23,704.23 560.14,689.50 L 561.33 683.50 L 563.15 692.50 C565.38,703.44 566.99,705.21 576.40,706.98 C580.03,707.67 583.00,708.55 583.00,708.95 C583.00,709.35 579.80,710.25 575.89,710.95 C571.81,711.68 568.01,712.99 566.98,714.02 C565.99,715.01 564.65,718.45 564.01,721.66 C561.52,734.08 561.44,734.20 560.13,727.50 ZM 566.61 710.11 C569.46,708.79 569.47,708.76 567.26,707.92 C566.02,707.45 564.15,705.66 563.11,703.93 C561.28,700.93 561.17,700.89 560.51,702.97 C560.13,704.16 558.46,705.97 556.79,706.98 L 553.76 708.82 L 556.87 710.43 C558.66,711.36 560.25,713.13 560.62,714.64 L 561.28 717.24 L 562.50 714.35 C563.17,712.75 565.02,710.85 566.61,710.11 ZM 828.20 715.80 C826.43,714.03 826.74,710.55 828.83,708.65 C831.21,706.50 833.29,706.56 835.35,708.83 C838.65,712.48 836.80,717.00 832.00,717.00 C830.57,717.00 828.86,716.46 828.20,715.80 ZM 446.58 705.68 C443.02,703.08 447.01,697.26 450.75,699.61 C453.14,701.11 453.43,703.43 451.48,705.38 C449.51,707.34 448.90,707.38 446.58,705.68 ZM 199.54 695.50 C197.34,686.37 195.38,684.00 190.01,684.00 C186.62,684.00 186.93,682.24 190.44,681.58 C195.56,680.62 198.04,678.10 198.70,673.22 C199.51,667.17 200.51,667.24 201.90,673.45 C203.00,678.38 203.43,678.96 207.07,680.41 C209.25,681.29 211.73,682.00 212.58,682.00 C215.54,682.00 213.01,683.74 209.15,684.36 C204.36,685.13 203.54,686.08 201.71,693.01 C200.33,698.28 200.24,698.38 199.54,695.50 ZM 813.53 649.50 C813.14,647.30 812.61,644.71 812.34,643.74 C811.78,641.71 807.05,639.00 804.05,639.00 C800.51,639.00 801.81,637.47 806.38,636.24 C811.06,634.99 811.56,634.31 813.43,626.50 L 814.64 621.50 L 815.85 626.96 C817.35,633.67 819.22,635.85 824.17,636.64 C828.07,637.27 829.52,639.00 826.15,639.00 C825.13,639.00 822.89,639.49 821.16,640.09 C818.66,640.97 817.80,642.03 816.91,645.34 C814.76,653.35 814.31,653.91 813.53,649.50 ZM 476.46 649.00 C479.51,632.95 487.91,607.00 490.05,607.00 C492.42,607.00 487.12,628.20 481.30,642.00 C477.19,651.73 475.46,654.24 476.46,649.00 ZM 546.11 649.36 C542.68,641.87 536.89,626.47 535.91,622.23 C534.23,614.94 533.26,607.00 534.04,607.00 C535.83,607.00 542.92,627.26 546.08,641.40 C548.22,650.94 548.23,653.98 546.11,649.36 ZM 719.41 605.63 C718.21,602.50 719.42,600.50 722.51,600.50 C725.17,600.50 725.50,600.84 725.50,603.50 C725.50,606.03 725.07,606.55 722.74,606.82 C720.99,607.02 719.78,606.59 719.41,605.63 ZM 252.99 584.42 C252.98,581.14 249.96,556.62 249.51,556.18 C249.28,555.95 246.66,557.84 243.69,560.38 C240.72,562.92 237.99,565.00 237.63,565.00 C237.27,565.00 238.99,562.42 241.46,559.28 C243.93,556.13 245.63,553.24 245.23,552.85 C244.83,552.46 239.83,551.61 234.12,550.95 C223.47,549.73 216.60,548.27 220.50,548.07 C226.21,547.77 244.45,544.95 245.14,544.26 C245.58,543.82 243.89,540.89 241.39,537.73 C238.88,534.58 237.08,532.00 237.38,532.00 C237.68,532.00 240.45,534.06 243.55,536.58 C246.64,539.10 249.35,540.98 249.58,540.75 C249.80,540.53 250.74,533.97 251.65,526.17 C252.57,518.37 253.47,512.14 253.66,512.33 C253.85,512.51 254.73,518.48 255.62,525.58 C256.51,532.69 257.54,539.05 257.90,539.73 C258.35,540.58 260.25,539.57 263.98,536.52 C266.96,534.07 269.59,532.26 269.82,532.49 C270.05,532.72 268.14,535.36 265.57,538.36 C263.01,541.37 261.35,544.10 261.88,544.43 C262.75,544.97 283.00,547.90 286.94,548.06 C290.77,548.22 283.76,549.78 274.01,550.93 C268.23,551.61 262.94,552.49 262.24,552.89 C261.31,553.41 261.85,554.67 264.25,557.55 C270.08,564.57 270.73,565.51 269.00,564.52 C268.17,564.05 265.40,561.92 262.83,559.80 C260.26,557.68 257.93,556.30 257.66,556.74 C257.39,557.17 256.45,563.80 255.56,571.46 C254.10,584.04 253.02,589.52 252.99,584.42 ZM 260.59 550.41 L 265.06 548.71 L 261.28 547.01 C256.86,545.03 255.56,543.59 254.49,539.50 L 253.71 536.50 L 252.73 540.34 C251.72,544.35 247.45,547.92 243.50,548.07 C242.27,548.11 243.01,548.69 245.39,549.57 C250.75,551.53 251.84,552.63 252.64,556.85 L 253.32 560.50 L 254.73 556.31 C255.92,552.73 256.78,551.87 260.59,550.41 ZM 315.67 579.33 C313.06,576.73 316.90,571.26 320.39,572.60 C322.52,573.41 323.41,576.80 321.96,578.55 C320.72,580.04 316.86,580.52 315.67,579.33 ZM 168.20 576.80 C165.40,574.00 168.12,569.27 171.84,570.45 C174.38,571.26 175.22,574.64 173.34,576.52 C171.54,578.31 169.81,578.41 168.20,576.80 ZM 851.20 573.80 C849.27,571.87 849.76,568.21 852.05,567.48 C854.43,566.73 857.00,568.51 857.00,570.92 C857.00,572.83 855.14,575.00 853.50,575.00 C852.90,575.00 851.86,574.46 851.20,573.80 ZM 755.04 556.48 C754.36,549.56 753.51,542.80 753.15,541.46 C752.50,539.03 752.49,539.03 747.00,543.47 C743.97,545.92 741.13,547.94 740.67,547.96 C740.22,547.98 741.97,545.51 744.57,542.48 C747.16,539.44 749.03,536.70 748.72,536.39 C747.72,535.38 740.98,534.18 732.38,533.46 C727.75,533.08 723.76,532.43 723.51,532.02 C723.26,531.62 727.88,530.71 733.78,530.02 C739.68,529.32 745.56,528.35 746.86,527.86 C749.51,526.86 749.58,527.01 743.02,518.84 C739.32,514.23 739.72,514.38 747.30,520.41 C749.95,522.51 752.34,524.00 752.61,523.72 C752.89,523.44 753.91,516.76 754.87,508.86 C756.79,493.11 756.92,493.22 759.05,512.50 C759.66,518.00 760.47,522.82 760.85,523.22 C761.23,523.61 764.11,521.89 767.27,519.39 C770.42,516.88 773.00,515.14 773.00,515.51 C773.00,515.88 770.92,518.61 768.39,521.58 C762.90,528.01 762.35,527.58 779.30,529.97 C786.01,530.91 790.83,531.94 790.00,532.24 C789.17,532.55 783.75,533.28 777.93,533.86 C763.06,535.35 763.18,535.27 767.65,540.87 C773.52,548.21 773.72,548.51 772.00,547.52 C771.17,547.05 768.38,544.91 765.79,542.77 C760.21,538.16 760.84,537.02 758.45,555.98 C757.58,562.84 756.74,568.59 756.57,568.76 C756.41,568.92 755.72,563.40 755.04,556.48 ZM 758.47 538.74 C759.43,535.79 761.58,534.10 766.50,532.43 C768.35,531.81 768.30,531.70 765.94,531.01 C760.82,529.54 759.06,527.95 757.88,523.73 L 756.68 519.50 L 755.95 522.86 C755.05,526.92 753.01,529.12 748.72,530.63 L 745.50 531.77 L 748.50 532.88 C753.62,534.79 754.47,535.58 755.42,539.34 C756.46,543.42 756.97,543.32 758.47,538.74 ZM 376.00 545.58 C384.10,541.38 399.65,536.07 408.14,534.59 C415.43,533.33 418.34,533.24 416.92,534.32 C414.21,536.36 398.87,541.86 388.28,544.57 C372.71,548.56 369.77,548.80 376.00,545.58 ZM 637.50 545.06 C621.19,540.83 608.93,536.32 607.51,534.02 C605.85,531.34 626.92,536.69 641.46,542.64 C647.53,545.13 652.69,547.35 652.92,547.58 C654.04,548.71 647.39,547.62 637.50,545.06 ZM 130.24 513.84 C127.34,510.94 130.48,505.55 133.83,507.67 C136.29,509.22 136.04,514.42 133.49,514.79 C132.38,514.95 130.92,514.52 130.24,513.84 ZM 889.04 513.55 C887.45,511.63 888.59,508.26 891.10,507.47 C894.87,506.27 897.62,510.98 894.80,513.80 C893.17,515.43 890.50,515.31 889.04,513.55 ZM 607.48 489.96 C606.38,488.19 637.01,478.13 648.00,476.64 L 652.50 476.03 L 646.50 478.98 C634.48,484.89 608.80,492.11 607.48,489.96 ZM 402.00 488.10 C394.97,486.17 375.44,478.65 373.00,476.94 C368.42,473.72 401.29,482.27 411.11,486.85 L 417.50 489.83 L 413.00 489.85 C410.52,489.87 405.58,489.08 402.00,488.10 ZM 798.41 484.50 C796.89,482.18 796.89,481.82 798.41,479.50 C799.42,477.96 800.99,477.00 802.50,477.00 C804.01,477.00 805.58,477.96 806.59,479.50 C808.11,481.82 808.11,482.18 806.59,484.50 C805.58,486.04 804.01,487.00 802.50,487.00 C800.99,487.00 799.42,486.04 798.41,484.50 ZM 195.00 480.00 C193.90,478.90 193.00,477.36 193.00,476.57 C193.00,474.43 195.85,472.00 198.37,472.00 C201.32,472.00 203.00,473.81 203.00,477.00 C203.00,481.98 198.62,483.62 195.00,480.00 ZM 316.57 475.43 C314.61,473.46 314.54,469.63 316.44,468.05 C318.94,465.97 323.35,467.17 324.41,470.22 C326.15,475.18 320.25,479.10 316.57,475.43 ZM 704.65 470.17 C702.27,467.53 702.62,464.30 705.50,462.41 C707.82,460.89 708.18,460.89 710.50,462.41 C713.47,464.36 713.78,467.98 711.17,470.35 C708.79,472.50 706.71,472.44 704.65,470.17 ZM 487.21 412.25 C482.63,401.56 475.37,375.38 476.26,372.73 C477.47,369.10 491.00,408.88 491.00,416.07 C491.00,418.50 489.04,416.53 487.21,412.25 ZM 533.67 413.25 C534.90,404.79 538.31,393.36 542.63,383.24 C545.14,377.33 547.44,372.27 547.73,372.00 C548.83,370.96 546.72,381.71 543.82,391.90 C538.69,409.93 532.15,423.68 533.67,413.25 ZM 178.71 336.00 C178.38,334.62 177.82,331.30 177.47,328.62 C176.32,319.76 173.82,316.78 166.40,315.44 C159.82,314.26 159.11,313.26 164.32,312.48 C171.58,311.39 175.28,308.39 176.65,302.46 C177.29,299.73 177.85,296.06 177.90,294.31 C178.06,289.22 179.81,289.51 180.53,294.73 C182.34,307.91 184.08,310.32 193.04,312.09 C199.65,313.39 199.42,314.29 192.19,315.49 C185.06,316.66 182.99,319.27 181.02,329.56 C179.78,336.08 179.15,337.82 178.71,336.00 ZM 843.20 330.49 C841.45,319.06 839.32,316.88 827.50,314.42 C824.81,313.86 825.23,313.61 831.43,312.04 C835.70,310.95 839.02,309.46 840.07,308.16 C841.06,306.94 842.34,302.35 843.08,297.35 C844.51,287.75 845.10,288.10 846.98,299.66 C848.40,308.36 849.77,309.80 858.79,312.08 L 865.50 313.78 L 859.03 315.06 C850.84,316.69 848.55,318.90 847.07,326.60 C844.69,339.07 844.55,339.21 843.20,330.49 ZM 542.11 332.71 C541.30,326.88 538.53,316.01 537.44,314.30 C536.38,312.65 533.98,311.66 527.87,310.35 C519.02,308.45 519.17,307.93 529.12,306.00 C532.21,305.40 535.47,304.37 536.36,303.71 C537.25,303.04 538.69,299.35 539.56,295.50 C542.76,281.31 542.42,281.64 544.29,290.92 C545.23,295.55 546.67,300.38 547.50,301.64 C548.89,303.77 553.06,305.40 562.37,307.46 C566.19,308.31 565.45,308.80 558.43,310.10 C547.41,312.14 547.02,312.58 543.60,327.50 C542.84,330.80 542.17,333.14 542.11,332.71 ZM 548.26 309.08 L 550.50 308.23 L 547.82 306.98 C546.34,306.30 544.58,304.41 543.91,302.79 L 542.69 299.83 L 541.42 302.84 C540.73,304.50 538.89,306.54 537.33,307.39 C535.77,308.23 535.15,308.94 535.94,308.96 C537.93,309.02 542.00,313.02 542.00,314.92 C542.01,315.79 542.91,315.03 544.01,313.22 C545.11,311.41 547.02,309.55 548.26,309.08 ZM 474.05 275.56 C472.14,273.25 473.16,269.55 475.81,269.17 C480.42,268.52 482.99,273.87 479.07,275.96 C476.47,277.35 475.47,277.27 474.05,275.56 ZM 322.75 205.42 C322.34,205.00 322.00,203.27 322.00,201.56 C322.00,197.18 319.60,194.26 314.84,192.83 L 310.76 191.61 L 314.52 190.31 C319.71,188.51 320.85,187.37 321.60,183.15 C322.52,178.05 323.93,175.68 323.97,179.18 C324.04,185.66 326.98,189.36 333.00,190.55 L 336.50 191.24 L 331.77 192.64 C326.63,194.17 325.26,195.88 324.19,202.13 C323.81,204.35 323.16,205.83 322.75,205.42 ZM 510.51 193.75 C510.11,188.66 509.49,182.52 509.14,180.10 L 508.50 175.71 L 503.07 180.34 C500.09,182.89 497.44,184.78 497.20,184.53 C496.95,184.28 498.66,181.79 501.00,179.00 C503.34,176.21 505.03,173.70 504.76,173.43 C504.49,173.16 498.96,172.28 492.48,171.48 C481.71,170.14 476.76,169.01 481.58,168.99 C484.53,168.98 501.15,167.00 503.70,166.36 C505.88,165.81 505.80,165.59 501.49,160.66 C494.22,152.36 495.76,152.19 504.64,160.31 C506.40,161.92 508.04,162.74 508.39,162.18 C508.72,161.64 509.53,155.52 510.19,148.60 C510.84,141.67 511.66,136.00 512.00,136.00 C512.34,136.00 513.16,141.67 513.81,148.60 C514.47,155.52 515.26,161.61 515.57,162.11 C515.88,162.62 518.52,161.00 521.43,158.52 C524.34,156.03 527.03,154.00 527.41,154.00 C527.80,154.00 526.03,156.55 523.49,159.67 C520.04,163.90 519.21,165.54 520.20,166.09 C521.42,166.77 538.59,169.00 542.63,169.00 C546.99,169.00 542.41,170.01 531.57,171.43 C525.03,172.29 519.48,173.19 519.23,173.44 C518.98,173.69 520.33,175.83 522.23,178.20 C527.80,185.13 527.76,185.77 522.04,181.22 C519.08,178.86 516.32,177.29 515.90,177.72 C515.49,178.15 514.58,184.01 513.89,190.75 C513.20,197.49 512.33,203.00 511.94,203.00 C511.55,203.00 510.91,198.84 510.51,193.75 ZM 514.94 172.57 C515.60,171.78 517.57,170.81 519.32,170.42 L 522.50 169.71 L 519.00 168.52 C515.74,167.41 514.14,165.46 512.41,160.50 C511.83,158.82 511.59,159.06 510.94,161.98 C510.07,165.86 506.88,168.96 503.64,169.08 C502.09,169.13 502.46,169.50 505.00,170.41 C508.26,171.58 509.87,173.56 511.59,178.50 C512.18,180.21 512.39,180.03 513.01,177.26 C513.42,175.47 514.28,173.36 514.94,172.57 ZM 699.76 197.50 C699.42,196.40 698.86,194.07 698.51,192.32 C697.73,188.44 696.30,187.17 690.86,185.57 L 686.65 184.32 L 691.27 183.16 C696.30,181.90 698.99,179.07 699.02,175.03 C699.05,170.11 700.71,169.58 701.41,174.26 C702.30,180.16 703.61,181.73 709.00,183.35 L 713.50 184.70 L 709.83 185.45 C705.09,186.41 702.40,189.40 701.27,195.00 C700.60,198.35 700.21,198.99 699.76,197.50 ZM 586.49 187.62 C584.57,184.69 586.08,180.47 589.35,179.62 C592.30,178.85 596.00,181.54 596.00,184.45 C596.00,189.79 589.36,192.00 586.49,187.62 ZM 382.22 149.44 C378.12,146.57 380.31,140.00 385.37,140.00 C388.36,140.00 390.00,141.82 390.00,145.13 C390.00,147.96 387.75,151.00 385.65,151.00 C384.99,151.00 383.44,150.30 382.22,149.44 ZM 635.75 147.92 C633.05,146.35 633.49,142.17 636.44,141.42 C637.79,141.09 639.36,141.11 639.94,141.46 C641.37,142.35 641.28,146.32 639.80,147.80 C638.37,149.23 638.02,149.24 635.75,147.92 ZM 311.44 724.05 C337.15,698.57 349.77,687.02 335.47,702.05 C331.05,706.70 323.94,714.38 319.68,719.12 C313.06,726.46 291.50,746.02 287.62,748.19 C286.94,748.58 297.65,737.71 311.44,724.05 ZM 326.47 715.64 C331.01,710.06 345.53,696.31 348.50,694.80 C350.98,693.53 334.31,710.63 327.51,716.32 L 322.53 720.50 L 326.47 715.64 ZM 348.04 689.55 C346.81,688.06 347.48,684.00 348.95,684.00 C349.40,684.00 350.00,684.90 350.29,686.00 C351.70,691.39 358.00,685.26 358.00,678.50 C358.00,670.86 362.79,666.95 374.33,665.16 C378.09,664.58 381.87,663.52 382.74,662.80 C385.10,660.85 387.00,655.57 387.00,650.98 C387.00,644.13 390.02,640.00 395.04,640.00 C396.72,640.00 396.66,640.25 394.50,642.41 C391.89,645.02 391.43,646.48 390.49,655.19 C389.95,660.14 389.38,661.33 386.10,664.29 C383.57,666.58 380.90,667.92 377.92,668.39 C367.31,670.06 362.00,672.77 362.00,676.53 C362.00,678.91 364.86,679.44 367.04,677.47 C368.93,675.75 369.00,675.77 369.00,677.82 C369.00,680.25 364.73,683.49 362.60,682.68 C361.69,682.33 360.96,683.01 360.57,684.59 C359.60,688.42 356.41,691.00 352.62,691.00 C350.76,691.00 348.70,690.35 348.04,689.55 ZM 374.73 657.82 C377.90,654.90 380.86,651.94 381.30,651.25 C381.74,650.56 382.57,650.00 383.14,650.00 C383.71,650.00 382.78,651.89 381.09,654.20 C377.42,659.19 377.29,660.00 380.20,660.00 C384.45,660.00 380.51,661.77 374.73,662.46 L 368.96 663.15 L 374.73 657.82 ZM 394.00 647.67 C394.00,644.63 395.02,643.68 396.40,645.42 C397.17,646.39 398.17,646.56 399.71,645.96 C401.31,645.33 402.34,643.51 403.48,639.30 C407.29,625.16 408.04,623.35 411.48,620.01 C415.27,616.34 416.19,616.67 413.10,620.60 C411.25,622.95 410.30,626.23 407.97,638.26 C406.45,646.11 403.12,650.00 397.91,650.00 C394.48,650.00 394.00,649.71 394.00,647.67 ZM 395.00 638.17 C395.00,637.18 401.34,631.00 402.35,631.00 C403.87,631.00 399.61,636.86 397.33,637.89 C396.05,638.48 395.00,638.61 395.00,638.17 ZM 411.39 634.25 C411.67,633.29 412.21,631.15 412.59,629.50 C413.55,625.25 415.57,623.30 419.82,622.51 C424.28,621.68 426.00,620.38 426.00,617.85 C426.00,614.94 422.98,614.31 420.97,616.79 C419.14,619.05 418.00,618.74 418.00,615.99 C418.00,611.61 425.24,609.40 428.35,612.83 C432.52,617.45 427.58,626.00 420.74,626.00 C417.66,626.00 417.04,626.51 414.60,631.00 C411.85,636.04 410.42,637.49 411.39,634.25 ZM 423.08 608.72 C423.31,608.56 425.69,606.68 428.38,604.54 C432.49,601.27 433.06,601.04 432.00,603.08 C429.86,607.20 427.79,609.00 425.18,609.00 C423.80,609.00 422.85,608.87 423.08,608.72 ZM 442.00 606.66 C442.00,606.47 443.30,602.41 444.90,597.64 C447.87,588.72 450.83,583.97 456.98,578.20 C463.21,572.35 464.66,572.49 459.24,578.42 C455.66,582.34 452.25,587.81 448.52,595.59 C443.91,605.22 442.00,608.46 442.00,606.66 ZM 728.44 741.56 C722.97,736.91 715.06,729.83 710.85,725.81 C701.44,716.81 679.38,692.66 683.47,695.83 C686.26,698.00 739.24,750.00 738.65,750.00 C738.50,750.00 733.91,746.20 728.44,741.56 ZM 686.64 706.90 C673.39,693.69 671.79,691.31 682.10,700.14 C687.95,705.15 701.69,720.00 700.48,720.00 C700.10,720.00 693.87,714.10 686.64,706.90 ZM 665.92 688.08 C664.32,686.47 663.00,684.46 663.00,683.61 C663.00,682.64 662.44,682.28 661.49,682.64 C659.22,683.51 655.00,680.30 655.03,677.73 C655.06,675.66 655.16,675.63 656.39,677.25 C658.27,679.72 662.00,679.55 662.00,677.00 C662.00,672.76 657.13,670.12 646.06,668.38 C643.14,667.92 640.45,666.61 638.17,664.52 C635.09,661.69 634.57,660.45 633.39,653.02 C632.44,647.09 631.43,644.02 629.86,642.35 C628.08,640.46 627.96,640.00 629.24,640.00 C633.75,640.00 637.00,644.26 637.01,650.20 C637.01,655.52 638.93,660.91 641.38,662.51 C642.63,663.33 646.32,664.47 649.58,665.05 C661.50,667.14 666.00,670.86 666.00,678.62 C666.00,682.03 666.58,683.67 668.45,685.55 C671.43,688.52 673.01,688.66 673.71,686.00 C674.38,683.42 675.69,683.44 676.52,686.05 C678.21,691.38 670.67,692.82 665.92,688.08 ZM 643.70 661.60 C641.58,660.72 641.60,660.67 644.34,660.10 L 647.17 659.50 L 643.49 654.68 C641.46,652.03 639.97,649.70 640.17,649.50 C640.37,649.30 643.75,652.27 647.68,656.10 L 654.83 663.07 L 650.37 662.78 C647.91,662.63 644.91,662.09 643.70,661.60 ZM 620.57 647.67 C618.19,645.28 616.61,640.77 613.93,628.65 C613.22,625.44 611.82,621.76 610.82,620.49 C607.79,616.65 608.78,616.39 612.54,620.04 C616.00,623.39 616.77,625.28 620.92,640.69 C622.11,645.14 624.38,646.65 628.08,645.47 C629.83,644.92 630.11,645.18 629.83,647.16 C629.34,650.66 623.87,650.96 620.57,647.67 ZM 624.38 636.75 C623.98,636.06 622.94,634.38 622.07,633.02 C620.70,630.85 621.04,630.96 624.75,633.93 C627.09,635.80 629.00,637.48 629.00,637.67 C629.00,638.61 625.01,637.82 624.38,636.75 ZM 610.63 633.66 C609.56,629.42 606.10,626.00 602.85,626.00 C596.29,626.00 591.39,616.67 595.83,612.65 C599.45,609.38 606.00,611.75 606.00,616.33 C606.00,618.43 605.15,618.44 602.87,616.38 C600.69,614.41 598.00,615.23 598.00,617.85 C598.00,620.42 600.08,621.98 604.48,622.69 C608.67,623.37 610.46,625.57 611.84,631.75 C612.81,636.10 611.69,637.88 610.63,633.66 ZM 594.78 607.25 C593.94,606.29 592.73,604.47 592.08,603.22 C591.09,601.31 591.69,601.53 595.70,604.58 C598.34,606.58 600.69,608.40 600.92,608.61 C601.15,608.82 600.20,609.00 598.82,609.00 C597.44,609.00 595.62,608.21 594.78,607.25 ZM 575.57 595.70 C571.65,587.34 568.73,582.73 564.38,577.99 C560.72,574.00 559.63,572.39 561.50,573.71 C566.52,577.27 571.53,582.29 574.25,586.50 C576.63,590.17 582.46,607.00 581.36,607.00 C581.10,607.00 578.49,601.91 575.57,595.70 ZM 431.50 445.11 C429.30,444.09 426.51,442.19 425.30,440.87 C423.19,438.58 417.52,427.00 418.50,427.00 C418.76,427.00 421.24,430.11 424.01,433.92 C426.78,437.73 430.72,442.21 432.77,443.89 C437.12,447.44 436.93,447.62 431.50,445.11 ZM 406.50 418.92 C404.85,418.42 400.58,418.24 397.00,418.52 L 390.50 419.02 L 396.39 417.40 C401.18,416.07 403.01,415.98 406.14,416.92 C408.26,417.56 410.00,418.51 410.00,419.04 C410.00,419.57 409.89,419.96 409.75,419.91 C409.61,419.87 408.15,419.42 406.50,418.92 ZM 593.05 442.33 C595.28,440.32 598.21,436.78 599.56,434.48 C600.91,432.18 602.92,429.47 604.03,428.47 C605.84,426.84 605.78,427.26 603.44,432.57 C600.56,439.13 597.87,442.48 593.80,444.60 C589.14,447.02 588.84,446.14 593.05,442.33 ZM 615.00 418.50 C615.62,417.75 617.47,416.84 619.10,416.48 C622.33,415.77 632.00,417.85 632.00,419.26 C632.00,419.74 631.21,419.90 630.25,419.62 C625.42,418.20 620.91,417.93 617.57,418.85 C614.46,419.71 614.04,419.66 615.00,418.50 ZM 578.00 434.53 C578.00,434.20 578.89,432.18 579.97,430.05 C582.32,425.46 585.77,422.55 590.81,420.93 C592.84,420.27 595.07,419.28 595.77,418.73 C596.47,418.17 597.28,417.95 597.57,418.24 C597.86,418.52 595.03,420.92 591.30,423.57 C587.56,426.21 583.04,429.90 581.25,431.76 C579.46,433.62 578.00,434.87 578.00,434.53 ZM 605.32 406.46 C606.09,403.09 606.02,400.62 605.07,396.90 C603.40,390.39 604.31,389.51 606.39,395.62 C608.40,401.52 608.42,404.29 606.47,408.05 C604.37,412.12 604.10,411.76 605.32,406.46 ZM 441.78 430.82 C439.73,428.75 435.57,425.41 432.53,423.39 C429.49,421.37 427.00,419.32 427.00,418.84 C427.00,418.35 428.01,418.59 429.25,419.37 C430.49,420.15 432.62,421.12 434.00,421.51 C437.74,422.59 442.80,426.71 444.56,430.12 C446.94,434.72 445.90,434.99 441.78,430.82 ZM 416.90 407.25 C416.32,405.74 416.09,403.15 416.38,401.50 C417.70,393.98 418.30,392.00 419.24,392.00 C419.88,392.00 419.96,393.20 419.46,395.25 C419.02,397.04 418.71,401.09 418.77,404.25 C418.82,407.41 418.66,410.00 418.41,410.00 C418.16,410.00 417.48,408.76 416.90,407.25 ZM 261.50 390.50 C261.83,388.85 262.35,386.65 262.66,385.62 C263.17,383.91 262.81,383.80 258.61,384.43 C256.07,384.81 254.00,384.91 254.00,384.65 C254.00,384.05 266.23,379.90 266.68,380.35 C266.87,380.53 265.65,383.57 263.97,387.09 C262.12,390.97 261.15,392.32 261.50,390.50 ZM 761.31 391.25 C760.97,390.29 759.86,387.36 758.86,384.75 C757.85,382.14 757.37,380.00 757.78,380.00 C758.96,380.00 769.18,383.85 769.88,384.55 C770.22,384.90 768.34,384.87 765.70,384.47 L 760.90 383.76 L 761.54 386.63 C761.90,388.21 762.40,390.29 762.66,391.25 C762.92,392.21 762.87,393.00 762.54,393.00 C762.21,393.00 761.66,392.21 761.31,391.25 ZM 733.65 302.77 C731.72,300.44 730.34,298.32 730.60,298.07 C731.13,297.54 737.95,305.10 737.98,306.25 C738.02,307.68 737.15,306.98 733.65,302.77 ZM 314.67 292.73 C321.29,287.40 321.08,287.51 322.06,289.06 C323.45,291.26 323.18,292.70 321.25,293.38 C320.29,293.72 318.83,294.27 318.00,294.60 C317.17,294.93 317.81,294.03 319.41,292.60 C323.11,289.29 321.89,289.22 317.59,292.50 C313.49,295.62 310.81,295.83 314.67,292.73 ZM 702.91 293.11 C700.76,291.34 700.66,290.96 702.01,289.59 C703.36,288.22 703.96,288.42 707.90,291.53 C710.31,293.44 711.63,295.00 710.84,295.00 C710.05,295.00 708.84,294.44 708.16,293.76 C707.17,292.77 706.76,292.78 706.12,293.80 C705.51,294.80 704.79,294.64 702.91,293.11 ZM 706.00 292.54 C706.00,292.28 704.99,291.53 703.75,290.87 C701.71,289.78 701.63,289.83 702.87,291.34 C704.15,292.89 706.00,293.59 706.00,292.54 ZM 383.51 262.97 C385.91,256.18 387.09,254.89 386.35,259.86 C385.73,264.05 385.79,264.18 387.79,263.11 C388.93,262.50 390.91,262.03 392.18,262.06 C393.83,262.10 392.95,262.82 389.12,264.56 C386.16,265.90 383.37,267.00 382.92,267.00 C382.46,267.00 382.73,265.19 383.51,262.97 ZM 635.25 265.03 C632.91,263.97 631.00,262.80 631.00,262.44 C631.00,261.80 634.23,262.38 637.43,263.61 C638.80,264.14 638.89,263.84 638.02,261.55 C637.01,258.90 636.61,255.28 637.42,256.08 C637.65,256.31 638.76,258.86 639.90,261.75 C642.25,267.71 641.82,268.01 635.25,265.03 ZM 770.00 277.95 C773.47,275.60 775.44,274.91 773.00,276.91 C771.62,278.04 770.05,278.96 769.50,278.96 C768.95,278.97 769.17,278.51 770.00,277.95 ZM 207.69 211.56 C206.69,210.81 206.30,209.93 206.81,209.62 C207.32,209.30 208.54,209.94 209.52,211.02 C211.56,213.28 210.40,213.62 207.69,211.56 Z" fill="rgba(0,0,0,1)"/>
</g>
</svg>