<svg xmlns="http://www.w3.org/2000/svg" width="1024" height="1024" viewBox="0 0 1024 1024">
<g>
<path d="M 500.54 838.89 C468.32,834.19 441.13,809.93 432.87,778.50 C429.96,767.45 429.96,750.53 432.85,739.72 C435.56,729.58 441.44,717.91 446.67,712.28 C452.88,705.59 453.49,706.42 453.54,721.59 C453.58,736.73 454.77,742.48 460.25,754.00 C467.35,768.94 482.33,781.25 498.55,785.47 C505.94,787.39 518.83,787.42 525.95,785.52 C543.92,780.74 560.34,765.76 566.64,748.40 C570.00,739.14 571.28,727.71 570.04,717.85 C569.17,710.89 569.24,709.33 570.48,708.09 C571.79,706.78 572.48,707.14 576.39,711.22 C582.36,717.46 587.33,726.66 590.56,737.50 C592.79,744.96 593.26,748.55 593.33,758.50 C593.44,773.28 591.74,780.55 584.82,794.91 C580.43,804.02 578.67,806.46 570.66,814.51 C551.24,834.01 526.38,842.65 500.54,838.89 ZM 529.00 826.45 C532.58,825.62 539.33,823.05 544.00,820.75 C555.68,815.01 568.80,802.10 574.73,790.50 C581.58,777.13 583.96,763.83 581.97,750.18 C580.70,741.52 579.66,740.48 578.64,746.86 C578.29,749.01 575.90,754.98 573.33,760.14 C561.84,783.09 537.72,797.97 512.00,797.97 C482.66,797.97 456.76,779.20 446.94,750.81 C445.42,746.43 443.95,742.61 443.67,742.34 C443.39,742.06 442.79,744.46 442.33,747.67 C437.15,783.99 459.22,816.72 495.50,826.52 C502.35,828.37 520.95,828.33 529.00,826.45 ZM 649.00 786.00 C647.90,784.90 647.00,783.10 647.00,782.00 C647.00,779.45 650.41,776.00 652.93,776.00 C655.21,776.00 657.61,778.18 658.53,781.09 C658.98,782.52 658.48,783.92 656.92,785.59 C654.16,788.52 651.66,788.66 649.00,786.00 ZM 377.33 771.38 C375.80,769.04 375.77,768.49 377.09,766.13 C379.93,761.05 388.00,762.74 388.00,768.42 C388.00,773.87 380.35,776.00 377.33,771.38 ZM 306.52 763.81 C306.26,763.09 305.60,759.60 305.05,756.06 C304.50,752.52 303.45,749.02 302.71,748.28 C301.97,747.55 298.25,746.37 294.44,745.66 C290.62,744.96 287.53,743.96 287.57,743.44 C287.61,742.92 290.74,741.94 294.53,741.25 C298.33,740.56 302.01,739.41 302.73,738.70 C303.45,737.98 304.59,734.04 305.27,729.95 C305.95,725.85 306.94,722.50 307.47,722.50 C308.00,722.50 308.93,725.77 309.53,729.78 C310.13,733.78 311.27,737.68 312.06,738.45 C312.85,739.21 316.65,740.45 320.50,741.21 C324.35,741.96 327.44,743.01 327.36,743.54 C327.29,744.07 324.17,745.00 320.43,745.61 C311.98,747.00 310.40,748.71 309.46,757.53 C308.79,763.79 307.49,766.56 306.52,763.81 ZM 753.63 743.75 C753.30,742.51 753.02,740.38 753.01,739.00 C752.97,734.15 750.92,728.92 748.69,728.00 C747.49,727.50 743.91,726.59 740.75,725.97 C737.59,725.36 735.00,724.47 735.00,723.99 C735.00,723.51 737.14,722.81 739.75,722.44 C742.36,722.06 745.94,721.17 747.69,720.45 C751.09,719.07 752.11,716.63 753.47,706.73 C753.83,704.11 754.51,702.20 754.97,702.48 C755.44,702.77 756.36,706.20 757.02,710.11 C758.45,718.59 760.15,720.61 766.68,721.56 C769.33,721.95 772.62,722.69 774.00,723.21 C777.31,724.44 775.37,725.50 768.08,726.43 C765.09,726.81 761.85,727.55 760.86,728.07 C758.99,729.08 757.64,733.19 756.53,741.25 C755.83,746.34 754.61,747.40 753.63,743.75 ZM 672.67 736.58 C672.34,735.73 671.16,729.38 670.04,722.48 C668.91,715.57 667.34,708.35 666.53,706.43 C664.64,701.90 660.80,700.29 646.00,697.78 C634.91,695.90 631.06,694.56 634.08,693.63 C634.86,693.39 640.65,692.23 646.95,691.05 C660.94,688.43 664.80,686.73 666.62,682.37 C667.38,680.56 669.01,672.87 670.25,665.29 C671.49,657.71 672.95,651.50 673.50,651.50 C674.05,651.50 675.54,657.58 676.80,665.00 C680.49,686.62 681.64,687.86 701.23,691.34 C717.76,694.29 717.38,695.08 697.91,698.46 C686.97,700.36 682.46,702.65 680.53,707.27 C679.79,709.05 678.21,716.35 677.01,723.50 C674.85,736.42 673.81,739.55 672.67,736.58 ZM 683.52 697.01 L 688.50 694.52 L 683.50 692.01 C679.37,689.94 678.04,688.56 675.86,684.09 L 673.23 678.68 L 672.53 681.87 C671.56,686.27 667.39,690.92 662.57,692.97 L 658.52 694.69 L 662.21 695.90 C666.68,697.38 671.55,702.67 672.53,707.12 L 673.24 710.39 L 675.90 704.95 C678.09,700.44 679.40,699.07 683.52,697.01 ZM 509.75 727.25 C508.89,726.29 506.81,720.78 505.12,715.00 C499.47,695.58 494.08,684.20 484.41,671.29 C478.57,663.49 468.58,654.56 463.15,652.29 C460.00,650.97 459.60,651.03 457.44,653.06 C452.24,657.94 450.63,665.79 453.45,672.53 C454.84,675.86 454.81,676.00 452.76,676.00 C451.48,676.00 448.51,673.82 445.38,670.59 C439.78,664.82 439.00,664.94 439.00,671.58 C439.00,676.08 437.66,675.90 434.03,670.88 C428.05,662.62 429.03,655.02 437.20,646.38 C441.81,641.51 442.18,640.76 441.58,637.57 C440.62,632.44 433.78,619.46 428.02,611.85 C411.55,590.08 389.32,577.78 369.04,579.23 C356.32,580.14 347.31,586.01 339.35,598.58 C332.33,609.67 331.44,609.15 325.46,590.50 C321.11,576.93 311.81,557.44 304.94,547.51 C298.38,538.02 287.05,527.24 278.87,522.69 C269.10,517.27 262.41,515.70 251.11,516.20 C239.75,516.70 231.15,519.87 220.51,527.46 C212.27,533.33 209.47,533.34 209.56,527.50 C209.59,525.30 210.15,519.98 210.81,515.68 C211.46,511.38 212.00,503.45 212.00,498.06 C212.00,464.52 197.25,436.26 173.66,424.62 C162.64,419.17 154.78,417.70 140.00,418.31 C125.90,418.89 116.66,421.10 99.31,428.07 C83.34,434.49 82.95,431.15 97.75,414.65 C126.98,382.06 169.45,354.15 212.14,339.47 C256.79,324.12 291.74,324.15 344.58,339.59 C353.34,342.15 361.38,344.30 362.46,344.37 C364.97,344.54 366.50,340.46 365.64,335.90 C365.28,334.03 363.20,330.14 361.01,327.25 L 357.03 322.00 L 359.77 322.01 C363.72,322.02 372.12,326.21 376.97,330.59 C383.10,336.13 385.94,342.49 387.14,353.34 C390.19,381.15 393.47,393.77 402.48,412.51 C414.32,437.13 432.22,455.38 454.46,465.51 C458.67,467.43 462.31,469.00 462.56,469.00 C462.80,469.00 463.00,466.71 463.00,463.91 C463.00,458.97 462.81,458.63 456.67,452.66 C446.27,442.55 442.00,431.04 442.00,413.17 C442.00,402.17 444.15,384.86 446.56,376.50 C448.15,371.00 451.45,365.00 452.89,365.00 C453.40,365.00 456.20,368.04 459.12,371.75 C464.99,379.23 465.15,379.39 476.97,389.96 C487.28,399.18 492.92,406.73 497.04,416.80 L 500.22 424.57 L 506.11 423.59 C509.99,422.95 514.08,422.96 518.10,423.63 C522.38,424.34 524.31,424.32 524.57,423.57 C529.76,408.35 535.55,400.07 549.50,387.90 C555.27,382.88 562.29,375.65 565.12,371.84 C567.94,368.03 570.73,365.08 571.31,365.27 C576.85,367.12 582.00,390.06 582.00,412.84 C582.00,432.47 577.33,444.54 566.07,454.04 C561.14,458.19 561.00,458.46 561.00,463.66 C561.00,466.60 561.34,469.00 561.75,469.00 C562.16,469.01 567.00,466.77 572.50,464.04 C593.72,453.49 609.46,436.98 621.93,412.15 C629.92,396.24 633.98,380.97 636.49,357.32 C638.02,342.90 639.52,338.75 645.63,331.99 C649.68,327.50 659.93,322.00 664.24,322.00 L 667.16 322.00 L 663.70 326.04 C659.19,331.30 657.27,337.83 658.99,341.99 C660.45,345.49 660.40,345.48 666.12,343.44 C694.51,333.34 731.77,327.14 757.00,328.32 C784.46,329.60 813.72,337.81 843.55,352.61 C874.13,367.79 906.02,391.79 926.49,415.04 C941.53,432.13 940.77,434.38 922.34,427.23 C902.50,419.53 897.77,418.54 881.00,418.52 C864.88,418.50 861.07,419.36 848.62,425.81 C822.88,439.17 808.81,472.68 813.08,510.50 C814.93,526.91 814.86,531.39 812.77,531.80 C811.82,531.99 806.73,529.43 801.46,526.13 C788.36,517.91 783.91,516.51 771.00,516.50 C758.63,516.50 751.87,518.34 742.83,524.19 C724.03,536.34 710.08,557.33 698.53,590.88 C694.97,601.21 693.01,605.58 691.81,605.80 C690.66,606.02 688.67,603.91 685.55,599.17 C680.02,590.79 673.58,584.66 667.22,581.73 C660.86,578.80 644.25,578.62 636.00,581.40 C620.84,586.50 607.25,596.98 595.68,612.50 C589.31,621.04 583.42,632.26 582.37,637.82 C581.80,640.88 582.15,641.59 585.86,644.99 C588.13,647.06 590.88,650.73 591.97,653.13 C594.90,659.59 594.58,663.92 590.75,669.58 C586.52,675.82 585.00,676.29 584.98,671.33 C584.96,665.11 583.77,664.48 580.44,668.93 C577.33,673.08 573.26,676.00 570.58,676.00 C569.12,676.00 569.11,675.67 570.49,672.38 C573.46,665.25 572.06,658.18 566.68,653.16 C563.43,650.12 561.81,650.67 552.71,657.89 C538.58,669.13 528.23,686.02 520.41,710.65 C516.12,724.17 513.91,729.00 512.00,729.00 C511.62,729.00 510.61,728.21 509.75,727.25 ZM 504.99 667.00 C503.56,655.45 499.57,635.32 497.35,628.50 C495.60,623.13 490.29,612.24 487.22,607.73 L 485.33 604.96 L 481.45 608.04 C473.84,614.09 469.18,622.08 464.19,637.65 C463.20,640.72 463.28,640.84 467.34,642.41 C478.25,646.63 492.58,661.07 501.58,676.92 L 505.50 683.82 L 505.83 680.16 C506.02,678.15 505.64,672.22 504.99,667.00 ZM 534.31 660.23 C541.06,652.44 548.78,646.23 555.92,642.84 C558.44,641.65 560.60,640.61 560.72,640.54 C561.09,640.30 557.33,628.74 555.50,624.50 C552.97,618.62 547.48,611.52 542.78,608.07 L 538.66 605.04 L 536.25 608.58 C527.19,621.92 520.14,648.14 518.39,675.00 L 517.78 684.50 L 522.95 675.94 C525.80,671.23 530.91,664.17 534.31,660.23 ZM 517.10 623.10 C519.95,614.44 522.12,610.20 528.78,600.25 C532.57,594.59 534.92,592.00 536.27,592.00 C539.29,592.00 551.34,600.47 556.53,606.24 C559.09,609.09 562.47,613.91 564.04,616.96 C567.38,623.43 567.83,621.68 565.45,611.42 C563.41,602.63 560.67,597.46 552.09,586.16 C548.19,581.03 545.00,575.85 545.00,574.66 C545.00,573.47 546.60,568.03 548.55,562.56 C553.55,548.58 555.09,540.51 555.74,525.00 C556.37,509.58 556.73,508.69 564.34,503.66 C575.09,496.56 593.34,492.00 611.06,492.00 C620.82,492.00 620.87,491.99 623.00,488.99 C626.12,484.61 630.42,472.17 633.40,458.88 C634.83,452.49 636.00,446.87 636.00,446.40 C636.00,445.93 632.63,452.28 628.50,460.52 C624.38,468.76 619.07,478.20 616.71,481.50 L 612.42 487.50 L 605.10 487.80 C601.08,487.96 591.29,487.17 583.35,486.05 C575.41,484.92 565.76,484.00 561.90,484.00 L 554.88 484.00 L 546.19 490.63 C541.41,494.28 535.25,499.43 532.50,502.08 C525.81,508.53 520.20,510.96 512.00,510.96 C503.73,510.96 498.68,508.71 491.21,501.72 C488.07,498.78 481.72,493.53 477.09,490.05 L 468.68 483.72 L 458.09 484.30 C452.27,484.62 442.72,485.61 436.87,486.49 C431.03,487.37 422.93,487.96 418.87,487.80 L 411.50 487.50 L 406.74 480.50 C404.13,476.65 398.84,467.20 394.99,459.51 C391.15,451.81 388.00,445.96 388.00,446.51 C388.01,447.05 389.53,453.58 391.39,461.00 C395.02,475.52 397.81,483.59 400.98,488.75 L 402.97 492.00 L 411.91 492.00 C430.18,492.00 449.18,496.59 459.72,503.54 C467.81,508.87 468.28,510.04 468.66,525.72 C469.03,540.71 470.99,550.94 475.98,563.75 C480.31,574.88 480.11,576.09 472.48,585.50 C464.55,595.27 460.51,603.19 458.51,612.82 C456.32,623.40 456.61,624.10 460.20,616.91 C465.88,605.54 483.96,590.24 489.29,592.28 C491.31,593.06 498.37,603.98 502.99,613.50 C505.13,617.90 507.88,625.55 509.10,630.50 C510.31,635.45 511.52,640.17 511.77,641.00 C512.02,641.83 512.84,639.62 513.58,636.10 C514.33,632.59 515.91,626.74 517.10,623.10 ZM 448.04 609.06 C450.60,598.34 453.58,592.32 461.37,582.06 L 467.78 573.62 L 464.46 564.45 C459.97,552.04 458.07,542.20 457.32,527.38 C456.70,515.12 456.64,514.88 453.84,512.88 C444.84,506.47 426.47,502.46 409.98,503.30 C404.19,503.60 398.73,503.43 397.84,502.93 C395.46,501.60 390.31,493.15 387.43,485.87 C381.52,470.95 376.94,447.03 372.54,408.11 C371.14,395.80 369.99,384.77 369.97,383.61 C369.94,381.54 369.91,381.54 368.48,383.43 C366.50,386.04 358.04,407.85 353.51,422.00 C339.76,464.94 333.27,515.66 335.91,559.48 C336.61,571.04 337.32,580.64 337.49,580.81 C337.66,580.99 340.78,579.08 344.44,576.58 C354.33,569.81 362.54,567.63 375.84,568.24 C388.02,568.81 396.70,571.47 408.50,578.28 C417.35,583.38 432.67,598.61 440.05,609.64 C443.05,614.12 445.63,617.67 445.80,617.52 C445.96,617.37 446.97,613.56 448.04,609.06 ZM 584.27 609.47 C595.71,591.96 612.97,577.65 630.00,571.56 C637.81,568.77 639.55,568.52 651.50,568.52 C664.04,568.52 664.74,568.64 671.31,571.73 C675.06,573.49 679.92,576.35 682.11,578.09 C684.30,579.82 686.25,581.07 686.44,580.87 C686.63,580.67 687.35,573.08 688.04,564.02 C691.22,522.27 684.74,468.02 671.32,424.00 C667.99,413.08 659.86,391.59 656.91,385.91 L 654.63 381.50 L 651.84 406.00 C646.47,453.07 641.92,475.32 634.56,490.51 C628.09,503.85 628.80,503.47 610.16,503.52 C592.30,503.56 582.36,505.64 572.79,511.36 L 567.50 514.51 L 566.86 526.51 C566.04,541.98 564.77,548.98 560.31,562.69 L 556.66 573.87 L 562.51 581.64 C570.25,591.93 573.59,598.68 576.19,609.28 C577.37,614.11 578.64,617.71 579.01,617.28 C579.38,616.85 581.74,613.34 584.27,609.47 ZM 703.47 551.49 C721.75,518.80 750.54,500.92 778.34,504.99 C782.79,505.64 788.59,506.99 791.22,507.99 C793.85,508.99 796.00,509.62 796.00,509.38 C796.00,508.37 786.62,490.42 781.87,482.34 C754.36,435.54 719.04,400.96 674.85,377.57 C669.06,374.51 664.07,372.00 663.75,372.00 C663.44,372.00 665.37,376.96 668.05,383.02 C681.23,412.82 691.54,451.59 696.37,489.50 C698.43,505.65 700.35,539.20 699.80,549.58 C699.56,554.21 699.46,558.00 699.59,558.00 C699.72,558.00 701.47,555.07 703.47,551.49 ZM 324.64 535.75 C324.92,495.11 330.65,458.49 343.15,417.50 C346.10,407.83 356.53,380.74 359.57,374.87 C360.38,373.29 360.80,372.00 360.50,372.00 C359.33,372.00 347.38,378.38 336.84,384.64 C305.37,403.32 274.74,432.67 253.09,464.87 C246.56,474.59 234.98,494.67 231.12,502.99 C229.71,506.02 228.42,508.76 228.25,509.08 C228.08,509.40 231.22,508.54 235.22,507.17 C244.55,503.97 260.20,503.60 269.50,506.37 C282.24,510.15 296.09,519.56 306.16,531.27 C312.50,538.63 321.42,551.61 322.52,555.05 C324.04,559.85 324.51,555.58 324.64,535.75 ZM 517.51 499.56 C519.40,498.77 524.08,495.28 527.91,491.81 C531.73,488.34 537.44,483.26 540.58,480.52 C546.43,475.43 549.94,469.58 549.98,464.85 C549.99,463.40 548.43,458.90 546.51,454.85 C539.98,441.10 539.60,429.98 545.08,413.61 C546.72,408.72 547.90,404.57 547.72,404.38 C547.53,404.20 545.31,407.17 542.78,410.99 C538.41,417.59 536.49,422.14 534.02,431.73 C532.49,437.67 530.99,438.13 521.09,435.68 C513.04,433.70 512.36,433.68 505.09,435.21 C500.92,436.09 496.81,437.09 495.97,437.43 C493.24,438.53 490.97,435.62 489.44,429.08 C488.62,425.56 486.58,420.11 484.90,416.97 C481.68,410.93 475.29,402.91 476.55,406.50 C484.69,429.67 484.88,439.74 477.44,455.26 C475.55,459.21 474.00,463.13 474.01,463.97 C474.03,470.81 479.17,478.13 489.00,485.33 C492.02,487.55 496.31,491.28 498.53,493.63 C504.97,500.47 510.90,502.32 517.51,499.56 ZM 228.98 483.00 C237.24,467.93 251.88,446.57 263.31,432.91 C284.78,407.26 308.88,387.39 340.31,369.42 C352.83,362.27 353.76,363.18 331.00,360.33 C313.87,358.18 269.36,357.89 254.00,359.82 C217.35,364.44 188.68,372.74 158.50,387.49 C144.93,394.12 124.27,406.60 125.25,407.58 C125.46,407.80 129.61,407.49 134.47,406.89 C160.31,403.73 186.21,413.97 202.58,433.81 C213.03,446.48 220.77,466.47 222.52,485.29 C222.92,489.58 223.36,492.96 223.51,492.79 C223.65,492.63 226.11,488.23 228.98,483.00 ZM 807.02 460.76 C817.24,430.22 840.29,410.76 870.72,406.97 C879.22,405.91 891.51,406.42 897.27,408.08 C906.15,410.62 884.79,396.86 864.50,386.97 C832.15,371.20 797.66,362.07 758.50,358.92 C740.74,357.49 710.20,358.21 692.00,360.48 C670.50,363.17 671.21,362.18 685.09,370.13 C720.53,390.44 747.90,414.56 771.71,446.48 C780.00,457.59 793.46,478.81 797.71,487.49 L 800.47 493.10 L 802.20 481.56 C803.15,475.21 805.32,465.85 807.02,460.76 ZM 438.00 475.67 L 446.50 474.49 L 440.12 470.60 C421.84,459.42 404.84,440.78 393.65,419.60 C389.04,410.88 389.03,413.03 393.62,427.27 C398.66,442.90 403.87,454.61 411.15,466.67 L 417.38 477.00 L 423.44 476.92 C426.77,476.88 433.33,476.32 438.00,475.67 ZM 609.63 472.25 C615.09,463.89 621.78,450.79 625.85,440.50 C629.61,431.00 635.33,412.00 634.44,412.00 C634.21,412.00 632.39,415.26 630.38,419.25 C620.86,438.21 605.65,455.76 589.17,466.78 C584.05,470.20 579.45,473.00 578.93,473.00 C578.42,473.00 578.00,473.40 578.00,473.88 C578.00,474.93 590.81,476.66 600.02,476.86 L 606.53 477.00 L 609.63 472.25 ZM 470.66 443.42 C473.46,434.16 471.40,420.80 465.29,408.50 C461.42,400.73 455.66,391.00 454.91,391.00 C454.54,391.00 453.69,396.06 453.03,402.25 C451.57,415.81 452.61,425.27 456.47,433.72 C459.15,439.62 466.61,448.30 468.46,447.68 C469.02,447.49 470.01,445.58 470.66,443.42 ZM 561.43 442.97 C570.37,433.41 573.24,421.53 571.15,402.71 C570.46,396.58 569.70,391.37 569.44,391.11 C567.98,389.64 555.63,413.90 553.49,422.46 C551.02,432.35 552.24,448.00 555.48,448.00 C556.17,448.00 558.84,445.74 561.43,442.97 ZM 191.50 362.49 C213.89,355.08 240.40,349.90 266.00,347.92 C282.63,346.64 317.98,347.22 330.92,348.98 C335.00,349.53 338.52,349.81 338.74,349.59 C339.32,349.01 314.81,343.31 303.91,341.49 C266.03,335.18 227.67,341.69 188.50,361.09 C180.80,364.90 175.40,367.74 176.50,367.41 C177.60,367.07 184.35,364.86 191.50,362.49 ZM 848.00 367.43 C848.00,367.11 842.49,364.25 835.75,361.05 C786.48,337.71 749.41,333.70 697.69,346.13 C690.64,347.83 685.05,349.39 685.27,349.60 C685.48,349.81 689.00,349.54 693.08,348.99 C706.31,347.22 740.51,346.65 757.00,347.92 C784.83,350.07 818.44,356.90 837.50,364.28 C847.29,368.07 848.00,368.28 848.00,367.43 ZM 354.65 706.25 C354.39,705.29 353.88,702.25 353.53,699.50 C353.18,696.75 352.22,692.41 351.40,689.85 C349.69,684.52 348.22,683.65 337.57,681.69 C329.46,680.19 328.05,678.47 334.20,677.55 C342.86,676.25 347.87,674.80 349.28,673.17 C351.31,670.82 352.79,665.94 353.57,659.11 C354.23,653.24 355.39,650.05 356.47,651.13 C356.78,651.45 357.67,655.26 358.44,659.60 C360.94,673.73 361.88,674.70 375.37,677.05 C379.29,677.73 381.94,678.67 381.73,679.30 C381.54,679.89 377.58,681.18 372.94,682.17 C362.47,684.40 360.68,686.14 359.09,695.67 C357.30,706.42 356.90,708.00 355.99,708.00 C355.52,708.00 354.92,707.21 354.65,706.25 ZM 357.42 685.47 C357.77,684.08 359.41,682.11 361.06,681.11 L 364.07 679.28 L 361.49 677.59 C360.07,676.66 358.41,674.79 357.79,673.45 C356.58,670.77 355.00,670.18 355.00,672.40 C355.00,673.16 353.50,675.11 351.66,676.72 L 348.33 679.65 L 351.13 681.26 C352.67,682.14 354.22,684.02 354.57,685.43 C355.39,688.70 356.60,688.72 357.42,685.47 ZM 238.65 703.17 C234.60,698.69 238.74,691.81 244.23,693.90 C248.37,695.47 249.21,699.79 246.00,703.00 C243.51,705.49 240.81,705.55 238.65,703.17 ZM 243.05 649.80 C240.76,635.19 239.06,627.79 237.30,624.78 C235.12,621.04 231.38,619.63 216.59,616.97 C200.96,614.15 200.97,613.55 216.73,610.88 C232.24,608.25 235.80,606.70 238.07,601.58 C239.08,599.28 240.81,591.63 241.91,584.58 C244.76,566.25 245.22,566.29 248.47,585.17 C251.01,599.93 251.87,602.69 254.71,605.25 C256.85,607.18 268.45,610.41 277.11,611.49 C282.82,612.21 285.92,613.41 284.83,614.50 C284.50,614.84 279.33,615.99 273.36,617.07 C252.04,620.90 251.68,621.29 248.21,644.44 C247.23,651.00 245.93,656.52 245.31,656.73 C244.62,656.96 243.76,654.31 243.05,649.80 ZM 249.46 620.42 C250.40,618.98 253.23,616.90 255.75,615.79 L 260.34 613.76 L 256.57 612.46 C251.53,610.73 248.36,607.58 246.68,602.61 L 245.29 598.50 L 243.60 602.46 C241.38,607.71 239.30,609.92 234.58,612.06 L 230.66 613.83 L 234.13 615.28 C238.35,617.05 242.41,621.69 244.04,626.63 L 245.25 630.30 L 246.51 626.66 C247.19,624.66 248.53,621.85 249.46,620.42 ZM 302.57 646.43 C299.55,643.41 301.29,639.00 305.50,639.00 C306.65,639.00 308.14,639.54 308.80,640.20 C309.46,640.86 310.00,642.34 310.00,643.50 C310.00,647.71 305.59,649.45 302.57,646.43 ZM 774.63 640.21 C774.27,639.63 773.29,635.19 772.44,630.33 C771.60,625.47 770.25,620.51 769.45,619.29 C767.95,616.99 761.58,614.66 753.51,613.45 C747.82,612.60 748.09,610.81 754.08,609.74 C763.08,608.13 767.12,606.66 768.95,604.34 C770.04,602.95 771.54,597.99 772.53,592.48 C773.47,587.26 774.62,583.00 775.10,583.00 C776.02,583.00 776.08,583.23 778.41,595.38 C779.24,599.71 780.62,604.03 781.48,604.98 C783.30,606.98 788.38,608.62 795.77,609.58 C804.64,610.73 803.18,612.91 792.50,614.45 C783.94,615.69 781.22,617.53 779.52,623.23 C778.71,625.98 777.75,630.55 777.39,633.37 C776.65,639.22 775.61,641.79 774.63,640.21 ZM 780.88 613.22 L 783.88 611.39 L 781.09 610.34 C779.50,609.74 777.69,607.93 776.90,606.14 C775.22,602.34 774.42,602.19 773.58,605.53 C773.23,606.92 771.62,608.87 769.99,609.86 L 767.04 611.65 L 770.07 613.90 C771.74,615.13 773.61,617.25 774.23,618.60 L 775.35 621.07 L 776.62 618.05 C777.32,616.40 779.24,614.22 780.88,613.22 ZM 723.20 637.80 C719.99,634.59 723.59,629.10 727.99,630.50 C730.44,631.28 731.41,634.36 730.02,636.96 C728.81,639.21 725.07,639.67 723.20,637.80 ZM 638.40 633.23 C636.10,631.70 634.89,628.08 635.99,626.02 C637.92,622.41 640.91,621.55 643.87,623.75 C647.23,626.25 647.68,629.32 645.06,631.94 C642.96,634.04 640.37,634.55 638.40,633.23 ZM 381.75 627.92 C378.25,625.88 379.93,620.00 384.00,620.00 C388.19,620.00 389.75,626.00 386.07,627.96 C383.76,629.20 383.95,629.20 381.75,627.92 ZM 840.00 580.00 C837.59,577.59 837.50,576.16 839.56,573.22 C842.45,569.10 850.00,571.16 850.00,576.07 C850.00,578.59 846.55,582.00 844.00,582.00 C842.90,582.00 841.10,581.10 840.00,580.00 ZM 158.00 529.64 C158.00,525.63 155.48,514.14 154.31,512.83 C153.48,511.89 149.77,510.60 145.88,509.91 C142.00,509.22 139.10,508.21 139.29,507.63 C139.48,507.06 142.70,506.09 146.45,505.47 C154.27,504.19 155.63,502.93 156.52,496.11 C157.53,488.45 158.12,486.00 158.96,486.00 C159.93,486.00 160.97,489.56 160.99,493.00 C161.00,494.38 161.47,497.14 162.02,499.14 C163.17,503.26 165.47,504.55 173.79,505.74 C176.70,506.16 179.17,506.95 179.29,507.50 C179.40,508.05 176.24,509.17 172.26,510.00 C168.28,510.83 164.41,512.17 163.65,513.00 C162.89,513.83 161.78,517.61 161.18,521.40 C160.58,525.20 159.62,528.78 159.05,529.35 C158.47,529.93 158.00,530.06 158.00,529.64 ZM 863.64 512.25 C863.37,511.29 862.84,508.13 862.48,505.24 C861.54,497.89 859.65,495.96 852.00,494.57 C844.40,493.20 843.20,491.46 849.20,490.53 C856.05,489.47 859.94,487.98 860.99,486.03 C861.52,485.03 862.25,481.74 862.60,478.71 C863.27,473.07 864.42,470.08 865.51,471.17 C865.84,471.51 866.55,474.85 867.08,478.59 C867.61,482.33 868.72,486.14 869.55,487.05 C870.38,487.98 873.98,489.20 877.64,489.80 C881.26,490.41 884.45,491.11 884.72,491.38 C886.00,492.67 883.49,493.80 877.97,494.42 C870.54,495.26 868.49,497.08 867.60,503.62 C866.50,511.56 865.89,514.00 864.99,514.00 C864.52,514.00 863.91,513.21 863.64,512.25 ZM 508.57 358.43 C506.59,356.45 506.59,355.03 508.56,352.22 C510.62,349.28 513.57,349.41 515.62,352.54 C519.01,357.72 512.94,362.80 508.57,358.43 ZM 430.57 333.75 C430.31,332.51 429.61,328.45 429.02,324.72 C428.42,320.99 427.43,316.84 426.82,315.50 C425.58,312.79 420.85,310.74 411.75,308.97 C408.59,308.36 406.00,307.47 406.00,307.00 C406.00,306.53 408.59,305.63 411.75,305.01 C425.89,302.21 426.90,301.23 429.04,288.23 C430.59,278.87 432.42,275.49 433.42,280.18 C433.69,281.46 434.44,285.85 435.08,289.95 C436.65,299.98 438.73,302.03 449.75,304.39 C460.60,306.73 460.65,307.91 450.00,309.55 C443.20,310.59 438.40,312.83 437.17,315.53 C436.56,316.86 435.58,320.99 434.98,324.72 C433.37,334.81 433.05,336.00 432.00,336.00 C431.47,336.00 430.83,334.99 430.57,333.75 ZM 437.45 308.84 C440.59,307.41 440.64,306.76 437.75,305.49 C436.51,304.94 434.83,303.05 434.00,301.27 C432.18,297.36 431.42,297.20 430.57,300.57 C430.22,301.98 428.60,303.89 426.97,304.82 C423.84,306.60 423.12,308.00 425.33,308.00 C426.92,308.00 430.42,311.73 431.43,314.50 C432.07,316.29 432.29,316.16 433.53,313.25 C434.28,311.46 436.05,309.48 437.45,308.84 ZM 594.09 326.64 C593.37,322.18 592.21,318.60 591.19,317.69 C590.26,316.86 586.89,315.70 583.69,315.11 C573.94,313.32 573.59,311.64 582.74,310.54 C591.48,309.48 592.64,308.35 594.06,299.50 C595.85,288.46 597.10,288.58 598.54,299.91 C599.45,307.02 601.96,309.54 609.09,310.50 C616.59,311.50 618.30,312.55 614.68,313.93 C613.14,314.52 610.76,315.00 609.40,315.00 C608.05,315.00 605.39,315.65 603.50,316.43 C599.87,317.95 599.50,318.76 598.24,327.92 C597.15,335.85 595.49,335.34 594.09,326.64 ZM 510.61 317.83 C510.39,317.10 509.48,310.13 508.58,302.35 C507.68,294.56 506.26,285.88 505.42,283.04 L 503.89 277.89 L 496.86 284.20 C487.88,292.25 485.05,294.38 484.31,293.65 C483.59,292.93 487.12,288.22 494.08,280.60 C497.04,277.37 498.91,274.54 498.40,274.07 C496.61,272.43 490.24,270.98 476.18,269.02 C468.31,267.93 461.44,266.77 460.92,266.45 C458.90,265.21 461.24,264.21 467.74,263.53 C481.94,262.05 499.01,258.60 498.99,257.21 C498.98,256.82 495.60,252.53 491.49,247.69 C484.64,239.62 482.95,237.00 484.61,237.00 C484.95,237.00 489.33,240.64 494.35,245.09 L 503.48 253.19 L 504.76 250.04 C505.47,248.31 507.09,239.27 508.37,229.94 C511.66,205.85 512.32,205.83 515.55,229.77 C516.80,239.02 518.43,248.00 519.16,249.74 L 520.50 252.89 L 529.97 244.85 C535.17,240.42 539.60,237.30 539.80,237.91 C540.01,238.52 536.76,242.95 532.59,247.76 C528.41,252.56 525.00,256.78 525.00,257.12 C525.00,258.26 533.82,260.23 548.67,262.41 C564.10,264.68 567.71,266.39 559.31,267.48 C537.22,270.34 527.67,272.18 525.74,273.93 C525.32,274.31 528.36,278.57 532.49,283.39 C539.52,291.59 541.07,294.03 539.25,293.98 C538.84,293.97 534.45,290.40 529.50,286.05 L 520.50 278.14 L 519.31 280.93 C518.20,283.52 516.04,296.77 514.25,311.92 C513.56,317.85 511.57,321.08 510.61,317.83 ZM 513.00 283.70 C513.00,279.99 517.96,271.07 520.85,269.58 C522.31,268.83 525.53,267.66 528.00,266.98 L 532.50 265.75 L 528.50 264.55 C519.13,261.71 514.92,257.57 513.47,249.75 C512.83,246.27 511.01,244.43 510.99,247.25 C510.98,250.40 508.69,256.21 506.38,258.96 C504.68,260.98 501.85,262.59 497.81,263.83 L 491.78 265.68 L 496.30 266.94 C498.78,267.64 502.14,269.02 503.77,270.01 C507.08,272.02 511.00,279.23 511.00,283.32 C511.00,284.79 511.45,286.00 512.00,286.00 C512.55,286.00 513.00,284.96 513.00,283.70 ZM 241.94 296.66 C237.19,294.31 238.85,286.00 244.07,286.00 C246.48,286.00 250.01,289.42 249.98,291.75 C249.95,295.83 245.61,298.48 241.94,296.66 ZM 736.00 291.00 C734.90,289.90 734.00,288.10 734.00,287.00 C734.00,284.50 737.40,281.00 739.83,281.00 C742.07,281.00 746.00,285.02 746.00,287.31 C746.00,289.62 742.44,293.00 740.00,293.00 C738.90,293.00 737.10,292.10 736.00,291.00 ZM 661.54 283.25 C660.19,271.91 658.06,263.69 655.87,261.36 C653.25,258.57 649.97,257.43 639.05,255.51 C626.35,253.28 626.61,252.54 641.03,249.95 C646.60,248.95 652.28,247.39 653.66,246.49 C657.09,244.24 658.72,239.85 660.71,227.51 C661.68,221.46 662.87,217.00 663.51,217.00 C664.16,217.00 665.32,221.59 666.29,228.06 C668.92,245.60 670.32,247.16 685.79,249.87 C700.46,252.44 700.72,253.22 687.69,255.50 C677.32,257.30 671.90,259.33 670.21,262.03 C668.82,264.25 666.57,274.47 665.53,283.25 C665.09,286.99 664.40,289.00 663.54,289.00 C662.69,289.00 661.99,286.98 661.54,283.25 ZM 669.28 255.77 C670.50,254.82 672.29,254.03 673.25,254.02 C674.21,254.01 675.00,253.55 675.00,253.00 C675.00,252.45 674.39,252.00 673.63,252.00 C671.39,252.00 667.08,248.06 665.06,244.16 L 663.17 240.50 L 662.01 243.50 C660.50,247.42 658.15,250.00 654.73,251.46 L 651.96 252.64 L 655.73 255.07 C657.80,256.41 660.35,259.25 661.40,261.38 L 663.29 265.27 L 665.17 261.38 C666.21,259.25 668.05,256.72 669.28,255.77 ZM 328.67 286.33 C328.30,285.97 328.00,284.64 328.00,283.38 C328.00,282.13 327.51,278.82 326.91,276.04 C325.65,270.15 324.46,269.29 315.72,267.88 C312.33,267.33 309.33,266.66 309.05,266.39 C308.09,265.42 311.37,264.18 316.63,263.53 C324.43,262.55 326.12,260.74 327.45,251.90 C328.06,247.83 329.00,244.50 329.53,244.50 C330.06,244.50 331.05,247.85 331.73,251.95 C332.41,256.04 333.64,260.07 334.47,260.89 C335.29,261.72 338.98,262.89 342.67,263.49 C346.35,264.10 349.52,265.06 349.71,265.63 C349.90,266.21 347.00,267.22 343.12,267.91 C338.93,268.66 335.52,269.88 334.52,270.98 C333.61,271.98 332.39,276.00 331.81,279.90 C330.81,286.63 330.21,287.87 328.67,286.33 ZM 387.57 277.43 C386.71,276.56 386.00,275.02 386.00,274.00 C386.00,271.83 388.55,269.00 390.50,269.00 C392.58,269.00 395.00,271.89 395.00,274.37 C395.00,278.70 390.64,280.50 387.57,277.43 ZM 430.00 209.00 C428.90,207.90 428.00,206.10 428.00,205.00 C428.00,202.76 431.31,199.00 433.28,199.00 C436.01,199.00 439.00,202.13 439.00,204.99 C439.00,210.51 433.82,212.82 430.00,209.00 Z" fill="rgba(0,0,0,1)"/>
</g>
</svg>