<svg xmlns="http://www.w3.org/2000/svg" width="1024" height="1024" viewBox="0 0 1024 1024">
<g>
<path d="M 513.70 956.39 C503.91,948.77 494.51,934.67 491.44,923.00 C487.89,909.53 489.28,897.41 496.59,878.00 C498.99,871.64 499.43,868.98 499.46,860.50 C499.50,851.60 499.20,849.90 496.79,845.00 C495.29,841.97 490.65,835.45 486.46,830.50 C466.94,807.41 460.62,792.56 460.72,770.00 C460.76,761.10 461.33,756.36 463.25,749.03 L 465.73 739.55 L 462.11 743.66 C457.29,749.14 452.46,757.32 449.78,764.57 C447.81,769.90 447.52,773.12 446.96,796.50 C446.28,824.97 445.58,828.91 438.76,842.50 C434.30,851.39 432.19,854.00 429.50,854.00 C426.40,854.00 425.74,851.65 426.99,845.05 C428.42,837.51 428.24,826.27 426.56,818.32 C425.77,814.57 422.80,805.20 419.96,797.50 C413.51,780.00 412.04,773.13 412.02,760.41 C412.00,749.78 413.98,739.75 417.90,730.70 C419.13,727.85 419.47,726.19 418.74,726.62 C409.62,731.93 399.43,740.97 395.30,747.39 C389.71,756.08 388.79,760.87 388.55,782.50 C388.35,799.78 388.03,803.38 386.20,809.00 C382.04,821.72 372.65,834.01 361.30,841.58 C358.44,843.48 351.24,847.06 345.30,849.53 C322.76,858.89 314.97,864.27 310.09,873.83 C307.22,879.46 305.03,889.27 305.01,896.63 C305.00,903.53 303.75,905.33 299.31,904.82 C295.80,904.42 293.90,900.75 291.06,888.88 C286.10,868.13 290.48,848.38 303.12,834.56 C305.88,831.54 312.12,825.89 316.99,822.01 C326.78,814.20 331.90,807.45 334.39,799.07 C336.47,792.05 336.40,787.16 333.98,772.50 C328.40,738.64 333.98,718.44 355.33,695.24 C359.25,690.98 361.57,688.22 360.48,689.10 C359.39,689.97 340.05,706.00 317.50,724.70 C248.39,782.03 238.56,790.00 236.95,790.00 C234.95,790.00 233.00,788.03 233.00,786.01 C233.00,785.13 237.39,778.98 242.75,772.35 C291.79,711.70 313.11,685.51 330.72,664.28 C338.57,654.81 345.00,646.85 345.00,646.60 C345.00,646.35 343.54,646.57 341.75,647.09 C339.96,647.61 331.17,648.69 322.21,649.49 C303.77,651.13 300.01,651.96 291.53,656.23 C281.47,661.29 272.66,671.19 265.04,686.00 C259.54,696.70 257.45,699.66 250.56,706.55 C241.72,715.39 232.33,720.78 221.84,723.05 C213.19,724.92 193.67,723.71 182.00,720.58 C158.14,714.17 144.79,717.23 131.92,732.09 C126.53,738.32 123.59,739.44 120.57,736.43 C118.67,734.53 118.68,734.62 120.41,729.00 C125.79,711.59 136.51,697.64 149.86,690.66 C158.75,686.02 162.03,685.21 178.87,683.48 C196.40,681.68 202.51,679.33 209.86,671.55 C215.59,665.50 217.52,661.96 222.82,647.86 C229.97,628.83 236.10,619.39 247.33,610.12 C255.90,603.05 260.77,600.21 270.83,596.42 C280.94,592.60 280.12,591.93 264.44,591.25 C250.36,590.63 242.46,592.52 224.35,600.83 C217.12,604.15 208.79,607.62 205.85,608.54 C199.55,610.50 176.26,611.68 171.00,610.29 C168.05,609.52 167.50,608.93 167.50,606.58 C167.50,603.93 167.95,603.65 175.81,601.38 C190.95,597.01 196.76,593.19 214.50,575.98 C232.69,558.34 240.96,553.19 257.00,549.52 C261.12,548.57 264.93,547.70 265.47,547.58 C266.71,547.29 252.91,537.54 246.96,534.50 C238.86,530.36 231.40,528.72 222.89,529.21 C215.58,529.64 214.21,530.12 199.81,537.37 C182.30,546.19 176.59,547.97 165.80,547.99 C150.96,548.01 137.92,542.18 120.96,527.94 C115.76,523.57 108.61,518.55 105.07,516.77 C99.55,514.00 97.63,513.56 91.46,513.61 C85.30,513.67 83.12,514.22 76.14,517.49 C68.23,521.21 67.95,521.26 66.00,519.50 C64.90,518.51 64.00,517.03 64.00,516.21 C64.00,511.08 76.79,499.19 88.50,493.45 C102.19,486.72 114.83,487.00 134.75,494.45 C156.61,502.62 164.22,500.86 185.33,482.74 C195.23,474.25 203.90,469.31 215.00,465.84 C221.19,463.91 224.60,463.51 234.50,463.56 C247.12,463.63 251.92,464.70 269.50,471.33 L 276.50 473.97 L 269.05 466.89 C253.15,451.77 240.79,446.00 216.75,442.49 C198.72,439.85 186.05,434.87 173.50,425.48 C166.44,420.19 164.91,417.66 167.31,415.26 C168.85,413.72 169.54,413.80 177.23,416.40 C191.88,421.36 202.47,421.16 228.00,415.41 C232.69,414.36 239.80,413.73 247.00,413.74 C258.39,413.75 260.56,414.17 277.25,419.66 C278.58,420.10 277.91,418.13 274.48,411.52 C268.59,400.15 265.33,395.51 259.28,389.86 C249.96,381.14 243.77,379.03 224.50,377.99 C200.53,376.70 190.44,372.56 177.32,358.64 C170.01,350.89 167.49,346.53 160.67,329.84 C155.50,317.21 150.70,310.30 144.22,306.14 C139.21,302.93 129.75,300.00 124.36,300.00 C120.99,300.00 118.00,297.85 118.00,295.43 C118.00,290.67 130.88,286.52 145.50,286.58 C162.46,286.64 173.73,292.40 188.63,308.62 C204.65,326.04 211.64,327.95 240.76,322.88 C251.37,321.03 268.96,322.22 278.50,325.42 C293.99,330.63 302.36,336.90 317.42,354.54 C323.06,361.16 330.12,368.64 333.09,371.17 C338.77,375.99 350.00,383.49 350.00,382.46 C350.00,382.13 344.94,375.75 338.75,368.27 C332.56,360.80 308.72,331.24 285.77,302.59 C242.38,248.44 241.14,246.60 246.00,244.00 C247.45,243.22 248.62,243.26 250.25,244.11 C251.49,244.76 263.08,253.69 276.00,263.96 C288.92,274.23 309.62,290.66 322.00,300.47 C334.38,310.29 349.36,322.34 355.31,327.24 L 366.12 336.16 L 365.59 330.33 C365.30,327.12 364.79,318.98 364.47,312.22 C363.27,287.23 358.91,279.12 339.84,266.35 C327.73,258.23 321.32,251.40 316.15,241.07 C309.10,226.98 308.41,214.28 313.57,193.50 C315.42,186.08 316.32,179.73 316.37,174.00 C316.42,166.53 316.05,164.71 313.37,159.00 C310.16,152.18 307.39,148.83 300.09,142.95 C296.28,139.87 295.77,139.03 296.36,136.71 C297.23,133.25 300.71,132.36 307.34,133.89 C316.02,135.89 326.54,141.63 333.56,148.21 C344.30,158.25 348.30,167.09 350.45,185.56 C351.93,198.35 354.62,205.36 360.54,211.91 C363.49,215.18 368.27,218.03 382.41,224.95 C396.59,231.89 401.84,235.02 406.70,239.44 C416.80,248.63 424.80,262.32 428.06,276.00 C428.78,279.02 429.69,281.88 430.09,282.35 C431.08,283.52 432.54,269.08 432.30,260.50 C432.02,250.22 429.01,240.18 421.68,225.00 C413.60,208.27 411.41,201.81 409.98,190.43 C408.22,176.38 410.04,165.00 414.05,165.00 C415.51,165.00 417.66,169.14 418.92,174.37 C421.83,186.48 427.94,195.19 446.02,213.00 C464.26,230.96 468.82,238.35 473.90,258.19 L 475.61 264.88 L 483.86 251.93 C495.95,232.93 499.27,222.49 497.09,210.38 C496.43,206.71 493.41,199.25 489.03,190.50 C480.56,173.55 478.60,166.10 479.29,153.50 C479.94,141.52 483.28,131.52 491.28,117.65 C499.56,103.30 501.32,97.94 500.83,88.67 C500.53,83.20 499.66,79.81 497.12,74.36 C494.38,68.46 494.00,66.86 494.94,65.11 C495.69,63.72 497.04,63.00 498.94,63.00 C502.75,63.00 513.33,74.30 517.83,83.17 C524.25,95.81 525.29,105.28 522.40,124.72 C519.58,143.63 523.17,154.82 537.08,170.51 C554.36,190.01 560.30,203.75 560.25,224.06 C560.22,235.20 557.94,245.41 552.01,260.96 C549.83,266.69 548.15,271.48 548.28,271.61 C548.41,271.74 552.07,267.64 556.42,262.51 C570.68,245.64 575.59,236.00 579.06,218.06 C580.19,212.25 581.80,203.90 582.64,199.50 C585.30,185.64 592.88,170.09 601.30,161.25 C604.73,157.65 606.15,157.27 607.99,159.49 C608.99,160.69 608.71,162.80 606.55,170.40 C602.97,183.03 602.91,196.33 606.36,214.50 C609.74,232.38 610.14,237.40 608.95,246.95 C608.07,253.92 605.14,265.03 602.59,271.07 C602.18,272.03 608.16,269.59 617.97,264.80 C631.65,258.12 634.96,256.04 640.34,250.73 C650.26,240.95 653.16,233.19 654.99,211.50 C656.12,198.16 657.55,191.85 661.32,183.62 C667.59,169.92 675.98,162.08 695.76,151.46 C713.95,141.70 721.66,133.24 723.63,120.90 C724.28,116.86 726.90,113.00 729.00,113.00 C729.55,113.00 730.90,113.90 732.00,115.00 C733.71,116.71 734.00,118.33 734.00,126.34 C734.00,143.75 729.58,155.44 716.88,171.55 C713.00,176.47 708.90,182.30 707.76,184.50 C702.76,194.19 701.74,206.66 704.67,222.50 C706.95,234.84 706.89,253.45 704.56,262.50 C700.10,279.74 693.99,288.91 674.25,308.00 C664.34,317.57 657.66,324.97 654.57,329.76 C649.82,337.12 646.46,344.00 647.60,344.00 C647.94,344.00 654.14,339.13 661.36,333.18 C674.03,322.74 714.83,290.12 752.87,260.00 C773.79,243.44 775.23,242.52 777.89,243.94 C780.98,245.60 781.27,248.07 778.76,251.60 C777.49,253.38 758.24,277.65 735.97,305.51 C713.71,333.38 694.62,357.33 693.55,358.74 L 691.61 361.31 L 694.55 360.64 C696.17,360.27 705.62,359.54 715.54,359.02 C736.87,357.91 742.95,356.35 752.42,349.60 C757.86,345.71 760.31,342.88 767.40,332.23 C776.88,318.00 781.77,312.76 790.37,307.60 C805.26,298.68 821.05,297.15 843.86,302.41 C852.97,304.51 857.73,305.12 861.97,304.74 C872.56,303.78 882.35,297.87 888.12,288.96 C889.88,286.25 892.13,283.78 893.12,283.46 C895.43,282.73 898.70,284.47 899.45,286.84 C900.25,289.38 896.51,301.16 892.40,309.00 C883.20,326.55 870.05,334.86 845.83,338.40 C834.28,340.10 831.68,340.96 825.35,345.19 C819.33,349.21 814.57,356.33 810.00,368.12 C803.99,383.63 801.82,387.78 795.15,396.63 C784.62,410.62 770.81,419.45 751.46,424.57 C745.98,426.02 740.90,427.54 740.16,427.95 C737.90,429.19 753.83,431.51 764.00,431.42 C776.13,431.32 782.85,429.51 801.00,421.50 C819.41,413.37 826.18,411.71 841.50,411.59 C854.76,411.49 858.35,412.53 857.81,416.31 C857.56,418.05 856.25,418.82 851.09,420.20 C835.90,424.29 825.92,430.88 808.90,448.04 C794.12,462.95 782.36,470.03 765.85,473.98 C761.40,475.04 757.62,476.05 757.45,476.21 C757.29,476.38 761.28,479.33 766.32,482.77 C777.63,490.48 786.40,494.14 795.07,494.77 C803.85,495.40 810.50,493.37 825.48,485.48 C840.90,477.35 847.39,475.64 860.50,476.26 C876.23,476.99 884.67,481.06 903.57,497.02 C915.97,507.49 922.28,510.47 931.99,510.47 C938.60,510.47 940.45,510.02 947.40,506.71 C954.80,503.19 955.44,503.06 957.65,504.50 C961.14,506.80 960.54,509.92 955.47,515.72 C949.42,522.63 938.04,530.09 929.23,532.93 C919.29,536.12 904.95,535.56 894.00,531.55 C875.51,524.77 875.77,524.83 868.33,525.27 C858.85,525.82 853.23,528.65 840.08,539.48 C827.18,550.10 820.74,554.06 810.49,557.66 C803.30,560.19 801.20,560.47 789.50,560.46 C776.86,560.44 776.18,560.33 765.00,556.37 C758.67,554.13 752.60,551.94 751.50,551.51 C748.34,550.25 758.80,560.68 765.66,565.61 C772.71,570.69 784.19,576.16 791.50,577.94 C794.25,578.61 802.21,580.00 809.19,581.03 C828.64,583.88 839.00,588.12 852.57,598.76 C856.47,601.83 858.00,603.71 858.00,605.45 C858.00,609.08 855.25,609.32 846.94,606.39 C841.26,604.39 836.87,603.65 828.38,603.26 C818.32,602.81 815.89,603.07 802.88,606.06 C779.40,611.46 760.22,610.47 744.90,603.07 C742.76,602.03 741.00,601.38 741.00,601.62 C741.00,603.25 748.55,616.51 751.88,620.73 C760.60,631.76 769.69,635.74 789.20,637.05 C805.96,638.17 810.15,639.11 820.61,644.07 C827.26,647.23 830.05,649.34 836.16,655.83 C844.21,664.39 847.73,670.58 853.32,686.07 C860.67,706.40 865.49,713.16 876.54,718.62 C882.81,721.72 885.39,722.40 892.72,722.90 C900.68,723.45 901.55,723.71 902.66,725.94 C905.15,730.95 901.39,733.60 887.79,736.41 C873.62,739.33 860.59,737.84 848.88,731.95 C840.25,727.61 834.11,722.29 826.51,712.54 C810.45,691.98 802.70,688.64 777.80,691.55 C738.99,696.08 717.48,687.10 693.06,656.15 C685.48,646.53 677.31,638.56 671.58,635.18 C669.61,634.02 668.00,633.28 668.00,633.54 C668.00,633.80 675.30,642.90 684.22,653.76 C693.14,664.62 712.60,688.38 727.47,706.56 C795.58,789.87 792.36,785.66 790.09,788.39 C787.18,791.90 787.02,791.79 756.50,766.48 C750.45,761.47 733.33,747.27 718.46,734.93 C679.05,702.23 649.01,677.61 647.41,676.70 C646.25,676.04 646.21,676.38 647.15,678.70 C647.79,680.28 648.60,691.14 649.00,703.50 C649.75,726.74 650.31,729.73 655.50,738.58 C659.24,744.97 668.02,752.33 678.46,757.82 C694.54,766.29 703.17,774.33 709.31,786.57 C716.08,800.08 717.10,816.89 712.42,838.00 C707.59,859.77 709.08,871.59 718.06,882.96 C720.22,885.69 724.68,889.82 727.98,892.15 C734.42,896.69 735.72,898.78 734.06,901.89 C732.41,904.98 729.86,905.20 722.41,902.92 C710.50,899.27 700.23,893.32 692.41,885.55 C681.18,874.39 677.74,865.39 675.11,840.35 C673.80,827.91 671.20,820.64 665.87,814.59 C660.85,808.88 656.10,806.06 642.92,800.92 C621.63,792.62 609.29,784.29 599.36,771.50 C593.61,764.09 587.38,751.12 585.17,741.94 C584.25,738.13 583.20,735.01 582.84,735.01 C581.71,735.00 580.70,749.91 581.36,756.95 C582.40,768.18 586.50,778.03 596.56,793.46 C606.24,808.31 610.39,819.63 611.97,835.47 C612.40,839.89 612.48,845.53 612.13,848.00 C611.55,852.14 611.27,852.50 608.63,852.50 C605.96,852.50 605.58,851.97 603.11,845.00 C597.48,829.12 591.23,821.13 572.88,806.41 C566.35,801.16 558.94,794.48 556.42,791.57 C547.41,781.12 540.59,767.01 538.63,754.75 C538.04,751.04 537.28,748.00 536.94,748.00 C535.93,748.00 528.22,764.16 527.01,768.81 C526.39,771.19 525.89,776.41 525.89,780.43 C525.89,789.13 528.19,796.39 534.16,806.49 C546.15,826.79 548.09,832.48 548.09,847.50 C548.10,864.30 544.38,873.85 529.97,894.00 C519.15,909.14 516.83,914.31 516.23,924.62 C515.71,933.72 516.50,937.06 521.61,947.25 C525.44,954.87 525.65,956.20 523.43,958.43 C521.04,960.82 518.77,960.35 513.70,956.39 ZM 503.07 905.00 C503.65,901.97 507.50,892.48 511.63,883.89 C520.77,864.92 522.14,858.65 519.74,846.89 C517.79,837.33 515.54,832.43 507.49,820.14 C495.93,802.49 492.33,793.65 491.36,780.50 C490.46,768.32 491.99,762.43 500.42,745.50 C510.58,725.09 511.48,722.02 511.49,708.00 L 511.50 696.50 L 507.25 696.19 L 503.00 695.89 L 502.99 705.69 C502.97,717.32 501.17,725.74 496.88,734.26 C493.89,740.18 490.00,746.04 490.00,744.60 C490.00,744.24 490.91,741.24 492.02,737.94 C496.42,724.89 498.26,708.53 496.38,699.15 C495.69,695.70 495.08,695.42 486.39,694.49 L 480.28 693.84 L 481.23 699.67 C482.98,710.29 481.49,724.96 477.00,741.29 C471.93,759.74 470.64,769.39 471.97,778.79 C473.98,792.96 479.40,804.28 490.84,818.19 C502.02,831.78 503.77,834.30 507.31,841.76 C510.35,848.18 510.50,849.07 510.49,860.50 C510.47,872.21 510.36,872.83 505.74,886.14 C501.64,897.93 501.02,900.78 501.12,907.14 C501.18,911.19 501.41,913.60 501.63,912.50 C501.84,911.40 502.49,908.03 503.07,905.00 ZM 522.51 885.00 C533.49,870.08 537.01,860.85 536.98,847.07 C536.95,836.57 534.26,828.21 527.15,816.53 C517.45,800.59 515.03,793.30 515.03,780.00 C515.03,766.81 518.26,757.70 530.43,736.60 C536.14,726.71 539.23,715.88 539.38,705.34 C539.44,700.30 539.21,695.88 538.85,695.52 C538.49,695.16 533.88,695.18 528.60,695.57 L 519.00 696.27 L 519.00 705.26 C519.00,719.04 516.17,729.31 508.45,743.55 C500.50,758.21 498.26,764.04 497.41,772.27 C496.01,785.97 499.92,797.65 512.21,816.50 C524.27,835.00 526.49,841.72 525.74,857.50 C525.21,868.59 524.49,870.86 515.58,889.08 C509.49,901.56 508.24,906.40 513.14,898.50 C514.85,895.75 519.06,889.67 522.51,885.00 ZM 692.82 863.00 C691.11,856.47 690.94,853.56 691.50,840.50 C691.99,828.92 691.79,823.84 690.62,818.22 C687.49,803.24 679.08,793.04 662.50,784.10 C645.44,774.89 638.62,770.33 632.88,764.31 C625.72,756.80 622.69,752.10 619.43,743.50 C617.11,737.39 616.68,734.34 616.00,719.50 C615.53,709.20 614.56,699.94 613.53,696.00 C611.63,688.72 607.15,678.73 603.95,674.67 L 601.84 671.98 L 598.67 674.17 C596.93,675.37 595.36,676.45 595.19,676.57 C595.02,676.69 596.25,679.00 597.92,681.72 C604.71,692.75 609.51,713.50 607.25,722.03 C606.35,725.43 606.31,725.36 605.10,718.50 C602.77,705.29 596.62,690.31 590.13,682.07 L 588.21 679.63 L 582.36 682.18 C579.14,683.59 575.71,685.01 574.75,685.34 C573.26,685.85 573.83,687.13 578.67,694.22 C586.46,705.63 589.58,712.97 593.62,729.40 C597.72,746.10 599.97,752.10 605.12,760.06 C613.99,773.79 624.71,781.72 645.63,790.03 C652.71,792.85 660.53,796.32 663.00,797.75 C673.04,803.54 682.08,816.27 684.86,828.50 C685.48,831.25 686.45,838.52 687.01,844.65 C687.56,850.78 688.67,857.66 689.47,859.92 C691.22,864.86 694.16,871.18 694.53,870.79 C694.67,870.63 693.91,867.12 692.82,863.00 ZM 701.89 833.34 C706.01,813.53 704.22,798.83 696.19,786.43 C691.44,779.10 686.24,774.79 674.00,768.03 C657.15,758.73 650.08,752.19 644.23,740.50 C639.38,730.80 638.82,727.60 638.02,705.00 C637.38,686.86 636.91,682.41 635.01,676.50 C632.60,668.98 627.67,658.53 626.06,657.54 C625.29,657.06 614.36,664.06 609.71,668.01 C609.27,668.38 610.69,672.02 612.87,676.09 C619.55,688.60 621.04,695.08 622.03,716.00 C622.98,736.17 623.64,739.56 628.32,748.41 C634.40,759.90 644.09,767.80 665.97,779.08 C677.65,785.11 687.00,794.04 691.43,803.41 C696.55,814.24 697.42,819.43 697.18,837.50 C696.92,856.20 698.03,864.25 699.10,851.50 C699.47,847.10 700.73,838.93 701.89,833.34 ZM 328.50 834.02 C341.65,826.41 349.53,818.87 353.84,809.80 C358.30,800.40 358.98,794.65 358.33,771.81 C357.68,748.87 358.44,743.99 364.48,732.09 C369.09,723.01 376.24,715.42 387.21,707.94 C399.37,699.65 408.11,691.20 413.50,682.53 C419.57,672.74 419.87,670.96 415.82,668.68 C412.73,666.94 412.52,666.93 411.29,668.62 C410.58,669.59 410.00,670.76 410.00,671.22 C410.00,671.67 408.17,674.95 405.93,678.50 C401.45,685.59 390.60,696.20 384.14,699.81 C379.05,702.66 378.71,701.22 383.60,697.49 C388.47,693.78 398.54,680.05 402.64,671.53 C404.49,667.69 406.00,664.09 406.00,663.53 C406.00,662.41 399.61,656.99 398.30,657.01 C397.86,657.01 395.64,660.95 393.36,665.76 C388.12,676.84 382.66,684.06 370.51,696.00 C359.01,707.29 353.36,714.34 349.21,722.58 C342.56,735.77 341.38,749.82 345.11,771.34 C349.79,798.31 344.89,813.80 327.12,828.20 C316.43,836.86 310.24,842.95 307.03,847.96 C305.36,850.55 304.00,852.97 304.00,853.33 C304.00,853.69 307.04,850.93 310.75,847.19 C315.38,842.52 320.95,838.38 328.50,834.02 ZM 336.21 841.10 C352.42,835.52 365.89,825.32 371.87,814.10 C376.87,804.71 378.32,796.57 377.59,782.00 C376.01,750.79 383.78,736.41 412.41,717.57 C427.68,707.52 437.29,698.39 442.30,689.17 L 445.11 684.02 L 435.91 679.51 C430.85,677.03 426.38,675.00 425.98,675.00 C425.57,675.00 424.67,676.39 423.96,678.09 C419.45,688.98 408.95,700.53 394.86,710.10 C382.03,718.80 373.09,727.85 369.28,736.00 C364.58,746.04 363.59,751.81 364.06,766.50 C364.82,790.27 364.41,797.93 361.98,805.00 C357.11,819.19 349.67,827.88 334.59,836.98 C325.64,842.38 316.07,849.16 316.03,850.12 C316.01,850.46 319.36,848.98 323.46,846.83 C327.57,844.68 333.31,842.10 336.21,841.10 ZM 436.74 793.25 C436.54,775.99 436.80,771.43 438.26,766.11 C441.16,755.62 445.59,747.64 455.12,735.75 C469.22,718.16 471.93,711.58 469.98,699.63 C469.28,695.38 468.16,691.99 467.19,691.23 C465.74,690.10 465.33,690.92 463.39,698.81 C460.50,710.58 457.54,716.55 447.86,730.12 C438.60,743.11 435.50,749.18 432.36,760.50 L 430.15 768.50 L 430.09 762.00 C429.97,750.33 433.36,741.26 443.59,725.78 C447.23,720.29 451.22,713.48 452.47,710.65 C454.62,705.76 458.00,692.88 458.00,689.55 C458.00,686.88 455.30,687.86 453.99,691.01 C452.85,693.77 449.40,699.17 438.34,715.50 C432.72,723.80 427.62,734.20 424.84,743.04 C422.93,749.13 422.51,752.62 422.56,762.00 C422.61,773.12 422.77,773.95 427.40,787.00 C430.04,794.42 433.14,803.54 434.30,807.25 C435.45,810.96 436.53,814.00 436.69,814.00 C436.84,814.00 436.87,804.66 436.74,793.25 ZM 593.13 807.25 C591.58,804.64 587.78,798.62 584.67,793.87 C571.64,773.94 568.58,758.22 572.59,731.93 C574.51,719.40 573.99,708.85 571.19,703.38 C568.58,698.27 561.23,690.00 559.31,690.00 C558.24,690.00 558.01,690.52 558.54,691.75 C558.95,692.71 560.35,697.04 561.65,701.36 C564.37,710.47 564.69,720.65 562.81,738.68 C561.52,751.12 562.38,759.78 566.02,770.81 C567.04,773.91 567.72,776.61 567.53,776.80 C566.88,777.45 562.03,768.40 559.83,762.42 C557.83,757.00 557.63,754.50 557.52,733.00 C557.40,710.27 557.31,709.26 554.75,702.10 C553.29,698.03 551.73,694.33 551.28,693.88 C550.83,693.43 550.63,696.44 550.84,700.57 C551.07,705.03 550.52,711.99 549.49,717.71 C546.93,731.89 547.74,751.82 551.27,761.83 C556.50,776.66 563.20,785.14 581.09,799.57 C587.75,804.94 593.42,809.94 593.70,810.67 C593.98,811.40 594.60,812.00 595.08,812.00 C595.56,812.00 594.68,809.86 593.13,807.25 ZM 739.78 738.25 C738.94,737.29 721.68,716.25 701.42,691.50 C658.00,638.45 653.12,632.59 652.06,632.21 C651.07,631.85 645.80,637.96 646.21,638.99 C646.37,639.40 654.43,648.23 664.13,658.62 C682.18,677.95 697.00,694.64 697.00,695.62 C697.00,695.93 695.54,694.96 693.75,693.47 C689.11,689.60 652.45,655.13 646.54,649.08 C643.81,646.29 641.07,644.00 640.46,644.00 C639.85,644.00 638.32,645.10 637.06,646.44 L 634.76 648.88 L 636.94 652.40 C638.13,654.33 642.12,658.29 645.81,661.20 C656.97,670.01 729.73,730.37 737.44,737.22 C740.95,740.34 742.01,740.81 739.78,738.25 ZM 318.00 710.51 C329.27,701.22 343.45,689.52 349.50,684.51 C355.55,679.51 365.19,671.61 370.93,666.96 C384.71,655.79 386.77,653.75 387.57,650.59 C388.26,647.82 385.92,644.00 383.53,644.00 C382.89,644.00 375.87,650.21 367.94,657.81 C344.34,680.38 330.62,693.06 328.60,694.18 C326.84,695.15 326.85,695.02 328.78,692.37 C331.70,688.33 343.60,675.31 362.28,655.68 L 378.29 638.87 L 376.34 636.25 C375.26,634.81 373.88,633.46 373.27,633.26 C371.09,632.53 359.94,645.13 327.05,685.50 C308.68,708.05 291.48,729.05 288.82,732.17 C286.17,735.29 284.00,738.15 284.00,738.52 C284.00,738.90 287.04,736.55 290.75,733.30 C294.46,730.06 306.73,719.80 318.00,710.51 ZM 847.71 715.86 C844.83,712.81 840.46,706.63 837.99,702.11 C829.96,687.42 824.41,680.22 817.82,675.96 C806.51,668.65 802.95,667.81 780.00,666.99 C763.28,666.39 758.48,665.89 753.95,664.25 C735.23,657.48 726.59,648.64 714.66,624.00 C706.89,607.95 698.60,599.05 684.52,591.64 L 679.54 589.01 L 677.70 592.60 C676.68,594.57 676.00,596.30 676.18,596.43 C676.35,596.56 679.21,598.29 682.53,600.27 C693.79,607.00 702.83,617.48 708.49,630.34 C709.90,633.56 710.65,636.03 710.15,635.84 C709.65,635.65 706.48,631.82 703.11,627.33 C699.74,622.84 694.78,617.33 692.10,615.08 C687.55,611.27 674.37,603.00 672.85,603.00 C672.48,603.00 670.72,605.36 668.94,608.25 C667.17,611.14 665.08,614.47 664.30,615.66 C662.95,617.72 663.17,617.96 669.20,621.01 C682.84,627.92 691.29,635.43 704.35,652.23 C723.89,677.37 743.61,684.66 779.75,680.07 C803.76,677.03 817.85,683.10 833.00,703.00 C836.24,707.25 840.34,712.18 842.11,713.96 C845.06,716.91 852.19,722.03 852.72,721.58 C852.84,721.47 850.59,718.90 847.71,715.86 ZM 226.89 709.69 C239.52,704.42 246.89,696.87 255.69,680.21 C265.17,662.27 274.13,652.67 287.43,646.18 C296.23,641.89 303.24,640.30 321.00,638.55 C329.52,637.71 339.20,636.31 342.50,635.44 C348.56,633.83 360.92,628.25 364.37,625.56 C366.18,624.15 366.14,623.96 363.27,620.30 C361.63,618.21 359.74,615.46 359.08,614.19 L 357.87 611.89 L 354.68 614.02 C349.81,617.27 341.12,621.21 339.78,620.76 C339.12,620.54 341.26,618.50 344.54,616.22 C347.82,613.94 351.55,611.24 352.84,610.22 L 355.18 608.35 L 353.28 605.22 L 351.37 602.09 L 346.44 605.65 C338.47,611.41 324.90,617.56 315.11,619.86 C310.10,621.04 301.84,622.96 296.75,624.14 C272.30,629.80 260.22,640.12 247.78,665.98 C240.50,681.11 235.56,688.38 228.84,693.84 C216.66,703.75 207.03,706.13 181.50,705.53 C171.60,705.29 164.62,705.34 166.00,705.62 C180.38,708.58 189.41,710.52 194.00,711.62 C197.28,712.40 203.73,712.82 210.00,712.65 C218.69,712.41 221.60,711.90 226.89,709.69 ZM 849.51 706.75 C848.22,704.41 845.55,697.83 843.57,692.13 C836.52,671.75 828.68,660.82 816.42,654.30 C808.75,650.22 803.56,649.09 787.50,647.98 C772.74,646.97 764.44,644.69 756.57,639.47 C745.60,632.19 740.22,625.17 730.48,605.43 C723.28,590.82 722.02,588.93 714.58,581.44 C706.88,573.69 696.94,566.99 690.97,565.52 C688.56,564.92 688.32,565.28 685.60,573.62 C682.38,583.54 681.73,582.10 692.09,587.99 C695.80,590.09 701.34,594.76 706.09,599.78 C713.07,607.15 714.83,609.86 721.67,623.74 C728.30,637.22 730.29,640.32 735.94,646.03 C747.52,657.74 757.41,661.05 782.01,661.45 C800.32,661.75 806.25,662.93 816.49,668.34 C825.22,672.95 832.48,680.89 839.85,693.88 C845.37,703.61 850.40,711.00 851.52,711.00 C851.71,711.00 850.80,709.09 849.51,706.75 ZM 183.00 699.47 C203.02,700.28 210.66,698.96 219.71,693.11 C228.50,687.43 233.25,681.24 241.63,664.58 C250.35,647.26 253.69,642.35 262.03,634.63 C272.84,624.63 280.16,621.54 309.40,614.65 C321.72,611.75 332.37,607.05 341.66,600.42 L 348.00 595.90 L 346.37 592.70 C345.48,590.94 344.60,589.33 344.42,589.13 C344.24,588.93 341.94,590.33 339.30,592.26 C333.25,596.66 326.15,600.25 318.46,602.77 C305.95,606.88 305.21,606.22 316.00,600.56 C321.77,597.53 329.96,592.30 334.19,588.94 C341.23,583.35 341.80,582.62 340.94,580.41 C340.42,579.09 339.54,576.82 338.98,575.38 L 337.96 572.75 L 332.59 577.82 C321.70,588.12 308.25,595.33 286.51,602.52 C267.59,608.77 260.18,612.82 250.89,621.99 C242.76,630.02 238.06,638.27 230.97,657.00 C226.63,668.45 222.02,675.87 215.57,681.76 C206.25,690.28 198.15,693.07 178.66,694.48 C169.55,695.14 158.97,697.84 155.49,700.39 C153.78,701.64 154.43,701.63 160.00,700.32 C165.17,699.11 169.88,698.93 183.00,699.47 ZM 544.00 681.03 C578.84,673.93 606.06,659.52 631.87,634.54 C656.96,610.24 673.88,579.16 681.22,543.88 C684.08,530.13 684.34,495.15 681.68,482.50 C677.78,463.95 673.65,451.64 666.45,437.11 C648.46,400.82 621.96,374.28 586.50,357.05 C560.31,344.32 535.27,339.17 505.00,340.29 C452.32,342.24 406.31,366.80 373.45,410.50 C364.46,422.45 352.74,445.20 348.19,459.52 C332.06,510.26 339.81,562.94 370.10,608.59 C380.02,623.55 400.27,643.78 415.40,653.87 C434.40,666.53 450.63,673.83 471.02,678.90 C488.58,683.26 495.03,683.93 515.50,683.53 C528.81,683.26 536.23,682.61 544.00,681.03 ZM 801.27 595.85 C809.94,594.12 816.92,592.59 816.77,592.44 C816.62,592.30 811.33,591.44 805.00,590.54 C776.85,586.51 765.18,580.65 742.69,559.21 C735.46,552.32 731.00,548.96 725.72,546.43 C717.41,542.45 713.00,542.13 701.40,544.68 L 693.74 546.37 L 702.62 548.69 C716.51,552.32 726.13,557.58 738.08,568.09 C751.25,579.68 758.13,584.18 768.90,588.25 C778.54,591.91 777.31,593.04 766.45,590.52 C756.41,588.20 748.54,583.89 735.88,573.81 C723.57,564.01 717.18,560.36 706.64,557.11 C696.13,553.87 695.70,554.56 705.00,559.73 C711.25,563.22 716.06,567.02 723.19,574.14 C737.04,587.97 745.66,593.43 759.36,597.02 C770.44,599.92 782.57,599.59 801.27,595.85 ZM 221.09 590.96 C238.14,582.98 246.12,580.99 260.91,581.02 C267.28,581.03 275.42,581.69 279.00,582.49 C282.58,583.28 288.58,584.49 292.34,585.18 L 299.18 586.44 L 307.34 582.20 C311.83,579.87 316.85,576.80 318.50,575.38 C321.42,572.86 321.43,572.81 319.00,573.45 C308.73,576.17 302.19,576.28 286.99,574.00 C270.07,571.46 257.63,571.62 248.15,574.51 C240.56,576.82 240.54,575.54 248.11,572.11 C257.37,567.90 265.26,566.61 276.77,567.39 C302.98,569.19 307.44,569.21 314.23,567.62 C320.80,566.07 334.72,560.39 333.91,559.57 C333.68,559.35 331.25,559.60 328.50,560.13 C319.79,561.80 303.96,561.30 294.49,559.05 C274.17,554.23 251.97,558.73 234.80,571.17 C230.33,574.41 206.60,597.00 207.66,597.00 C207.94,597.00 213.98,594.28 221.09,590.96 ZM 325.84 549.34 L 331.19 548.70 L 330.55 545.60 C330.20,543.89 329.65,539.74 329.32,536.37 L 328.73 530.24 L 316.12 530.73 C295.87,531.51 286.47,528.44 265.48,514.21 C249.95,503.68 242.48,500.78 230.50,500.62 C219.21,500.48 210.23,503.21 198.64,510.31 C178.44,522.70 172.45,524.98 160.00,524.98 C148.36,524.98 142.06,522.89 125.50,513.54 C116.22,508.30 112.71,507.56 119.10,512.19 C121.52,513.94 126.36,517.80 129.86,520.77 C144.69,533.35 154.59,537.49 168.00,536.75 C177.39,536.23 182.46,534.45 195.00,527.27 C213.28,516.81 231.03,515.21 247.61,522.51 C250.42,523.75 258.07,528.27 264.61,532.55 C277.83,541.21 287.74,546.21 296.00,548.41 C301.80,549.95 316.86,550.42 325.84,549.34 ZM 808.09 546.81 C815.57,544.03 824.69,538.08 836.83,528.04 C855.36,512.73 869.19,510.44 891.57,518.99 C898.99,521.83 904.59,523.31 909.00,523.60 L 915.50 524.03 L 910.02 522.48 C907.00,521.62 901.15,519.05 897.02,516.76 C876.63,505.47 869.64,503.20 859.08,504.43 C851.50,505.31 844.24,508.48 831.59,516.42 C818.46,524.66 811.41,527.65 801.48,529.20 C786.53,531.52 772.40,527.18 755.67,515.14 C745.64,507.92 737.31,503.65 729.05,501.51 C722.11,499.71 709.38,499.21 701.25,500.41 C696.02,501.19 696.00,501.20 696.00,504.84 L 696.00 508.50 L 709.75 508.50 C722.42,508.50 724.12,508.73 731.31,511.37 C738.63,514.07 754.78,523.55 753.77,524.57 C753.51,524.82 750.71,523.88 747.54,522.48 C736.36,517.53 725.49,515.00 715.44,515.00 C710.30,515.00 703.89,515.47 701.19,516.05 L 696.28 517.11 L 695.72 525.30 C695.41,529.80 695.29,533.62 695.45,533.79 C695.62,533.95 698.62,533.62 702.13,533.05 C711.15,531.58 725.32,531.78 733.37,533.49 C740.88,535.08 746.08,536.91 759.00,542.50 C772.88,548.51 780.00,550.07 791.50,549.63 C798.94,549.35 803.19,548.63 808.09,546.81 ZM 325.00 523.11 C327.02,522.55 327.56,521.69 327.81,518.66 L 328.13 514.90 L 318.31 515.55 C302.69,516.57 287.39,512.15 274.45,502.85 C268.82,498.82 268.69,497.29 274.21,500.11 C276.53,501.29 282.27,503.64 286.96,505.33 C294.72,508.11 296.65,508.40 308.00,508.45 C314.88,508.48 322.12,508.15 324.11,507.73 L 327.72 506.96 L 328.27 498.23 C328.57,493.43 328.72,489.40 328.60,489.28 C328.48,489.15 326.61,489.59 324.44,490.24 C322.27,490.88 314.42,491.43 307.00,491.45 C291.25,491.49 287.48,490.64 267.22,482.54 C248.97,475.24 241.88,473.65 230.50,474.31 C216.12,475.13 205.97,479.75 191.48,492.03 C168.33,511.65 155.89,514.23 130.50,504.69 C120.19,500.81 113.59,499.33 109.50,499.96 C108.95,500.05 111.54,501.17 115.26,502.46 C118.98,503.75 126.41,507.30 131.76,510.36 C145.38,518.13 148.88,519.26 159.50,519.32 C170.34,519.38 175.57,517.60 188.66,509.36 C201.29,501.41 208.15,498.13 216.77,495.93 C234.41,491.42 247.05,494.61 268.47,508.98 C286.72,521.22 294.43,523.89 311.50,523.83 C317.55,523.82 323.62,523.49 325.00,523.11 ZM 807.96 521.37 C814.50,519.51 821.55,516.04 829.00,511.00 C842.99,501.53 852.38,498.54 865.94,499.25 C876.70,499.81 881.68,501.45 893.84,508.47 C900.65,512.40 910.35,517.04 909.00,515.72 C908.72,515.46 904.97,512.37 900.65,508.87 C896.33,505.37 890.70,500.79 888.15,498.70 C875.08,488.03 858.64,484.37 844.09,488.90 C840.73,489.94 833.61,493.27 828.25,496.29 C814.34,504.14 809.64,505.51 797.00,505.44 C783.73,505.37 777.42,503.08 761.29,492.47 C736.07,475.88 721.46,471.34 701.95,474.01 C697.30,474.64 693.38,475.29 693.23,475.44 C693.08,475.59 693.51,479.84 694.20,484.88 L 695.45 494.05 L 701.47 493.27 C709.52,492.24 721.09,492.59 727.38,494.06 C733.82,495.56 745.60,500.90 751.78,505.12 C768.59,516.60 772.78,519.09 778.31,520.89 C781.72,522.00 785.85,523.11 787.50,523.35 C792.10,524.04 801.89,523.09 807.96,521.37 ZM 325.25 478.31 C328.41,477.44 331.00,476.43 331.00,476.06 C331.00,475.69 327.74,474.84 323.75,474.17 C315.09,472.70 302.23,467.67 296.00,463.31 C293.52,461.58 287.00,456.28 281.50,451.54 C271.31,442.76 257.64,434.77 250.48,433.43 C248.57,433.07 247.00,432.38 247.00,431.89 C247.00,430.67 248.01,430.75 256.30,432.62 C267.83,435.21 276.55,440.04 290.50,451.55 C298.99,458.55 310.83,464.29 321.21,466.42 C335.37,469.32 337.00,468.03 325.25,463.21 C315.52,459.22 307.48,453.98 297.66,445.21 C276.26,426.10 254.91,420.52 225.67,426.41 C218.61,427.84 211.78,429.00 210.48,429.00 C209.18,429.00 207.88,429.39 207.58,429.87 C207.28,430.35 213.20,431.71 220.72,432.89 C228.25,434.07 238.14,436.33 242.71,437.91 C255.94,442.46 260.89,445.86 282.69,465.35 C291.99,473.66 296.12,476.22 305.00,479.15 C311.01,481.14 315.60,480.95 325.25,478.31 ZM 752.03 465.97 C765.26,464.35 777.35,459.89 788.00,452.69 C793.71,448.82 817.48,425.71 814.90,426.53 C813.84,426.87 808.22,429.37 802.40,432.09 C787.72,438.97 779.74,441.07 766.00,441.67 C756.28,442.10 752.49,441.78 741.50,439.59 C726.66,436.64 719.17,436.34 714.65,438.52 C710.82,440.36 697.68,452.42 700.50,451.51 C712.47,447.63 724.33,447.02 739.50,449.51 C754.20,451.93 764.86,451.38 780.00,447.42 L 782.50 446.77 L 780.29 448.42 C779.07,449.32 775.02,451.24 771.29,452.69 C765.38,454.97 762.94,455.33 752.50,455.40 C745.90,455.44 735.55,455.09 729.50,454.60 C719.87,453.84 717.50,453.98 710.48,455.76 C706.06,456.87 699.54,459.17 695.98,460.87 L 689.50 463.94 L 696.50 463.22 C708.67,461.97 721.92,462.58 730.50,464.79 C740.01,467.24 741.07,467.30 752.03,465.97 ZM 339.42 447.75 C340.90,443.76 342.20,439.91 342.31,439.18 C342.42,438.44 340.07,436.86 336.91,435.57 C324.72,430.56 312.44,420.69 304.49,409.50 C302.15,406.20 297.75,398.55 294.72,392.50 C283.75,370.57 274.81,361.80 258.00,356.48 C253.91,355.18 247.11,354.56 231.50,354.03 C212.15,353.38 209.97,353.12 203.74,350.71 C191.40,345.92 184.15,339.62 174.78,325.54 C165.13,311.05 162.95,308.71 167.42,317.66 C168.75,320.32 171.52,326.55 173.58,331.50 C178.22,342.68 182.83,349.79 188.85,355.11 C198.04,363.21 209.31,366.95 224.66,366.98 C246.39,367.03 263.45,374.94 274.62,390.17 C276.68,392.98 281.15,400.55 284.54,406.99 C287.93,413.43 292.44,421.36 294.56,424.60 C299.70,432.44 310.15,442.71 317.20,446.84 C323.03,450.26 333.61,454.93 335.62,454.98 C336.23,454.99 337.94,451.74 339.42,447.75 ZM 707.60 429.81 C716.39,423.78 724.84,420.28 741.46,415.79 C749.69,413.57 758.34,410.93 760.69,409.92 C772.22,404.98 783.95,394.79 790.44,384.09 C792.30,381.02 795.70,373.77 798.00,368.00 C803.88,353.19 807.52,346.77 813.31,340.98 C820.81,333.48 829.97,329.40 843.50,327.55 C855.82,325.86 859.37,324.98 863.59,322.57 L 866.50 320.90 L 863.50 321.53 C861.85,321.88 851.95,322.51 841.50,322.92 C825.33,323.57 821.70,324.01 817.10,325.88 C805.26,330.72 799.62,336.71 788.88,355.88 C778.51,374.36 767.18,384.57 751.00,390.02 C745.68,391.81 740.97,392.35 725.00,392.99 C705.12,393.79 698.73,395.01 689.50,399.75 C685.70,401.70 676.52,408.06 672.13,411.78 L 668.76 414.64 L 670.51 418.07 C671.47,419.96 672.38,421.65 672.54,421.83 C672.70,422.01 675.45,420.02 678.66,417.40 C690.00,408.16 706.87,402.05 721.19,402.02 C729.57,402.00 730.88,403.53 723.23,404.40 C710.31,405.87 693.00,414.12 681.56,424.26 L 676.63 428.64 L 680.95 438.76 L 685.27 448.89 L 693.48 441.37 C698.00,437.24 704.35,432.04 707.60,429.81 ZM 348.23 427.64 L 349.84 424.28 L 343.95 421.56 C328.32,414.34 315.85,402.56 308.81,388.35 C306.53,383.75 304.90,379.77 305.17,379.50 C305.44,379.22 307.30,381.36 309.29,384.25 C315.01,392.53 324.95,402.36 332.61,407.32 C339.74,411.93 350.18,417.00 352.54,417.00 C353.72,417.00 365.60,401.15 364.83,400.59 C364.65,400.46 361.58,399.31 358.00,398.04 C338.92,391.28 326.28,381.92 310.01,362.50 C295.82,345.55 282.99,336.77 268.32,333.95 C260.83,332.52 245.42,333.12 231.07,335.43 C217.42,337.61 209.74,336.57 198.29,330.96 C191.59,327.68 188.91,325.63 183.79,319.85 C175.89,310.94 169.73,305.06 165.66,302.55 C162.88,300.83 163.06,301.21 167.23,305.74 C169.84,308.56 174.51,314.84 177.63,319.69 C184.58,330.50 187.91,334.43 194.17,339.18 C203.46,346.24 207.78,347.23 232.50,348.03 C253.13,348.69 254.98,348.91 262.16,351.52 C279.37,357.78 288.34,366.88 300.93,390.87 C309.30,406.81 315.75,414.68 326.00,421.50 C332.35,425.72 342.97,430.85 345.56,430.96 C346.15,430.98 347.35,429.49 348.23,427.64 ZM 673.50 401.95 C681.88,395.63 692.37,390.58 701.68,388.41 C705.93,387.42 715.00,386.66 725.71,386.39 C745.52,385.89 751.94,384.43 761.57,378.19 C770.22,372.59 776.91,364.65 785.11,350.25 C793.75,335.08 801.44,326.80 811.17,322.18 C819.62,318.16 826.63,317.02 843.43,316.91 L 857.50 316.82 L 846.00 314.37 C822.71,309.40 818.88,309.10 809.46,311.54 C795.67,315.11 787.68,321.63 776.61,338.36 C768.28,350.94 763.18,356.27 754.50,361.48 C744.35,367.56 737.86,369.02 716.50,370.01 C695.34,370.99 687.77,372.57 676.05,378.48 C669.32,381.86 653.63,393.64 654.21,394.87 C654.37,395.22 656.73,398.52 659.45,402.20 C662.54,406.38 664.80,408.59 665.45,408.07 C666.03,407.61 669.65,404.86 673.50,401.95 ZM 376.85 386.92 L 379.20 383.95 L 363.73 367.72 C346.87,350.04 327.00,328.24 327.00,327.44 C327.00,325.45 346.85,343.02 370.84,366.23 C378.18,373.33 384.45,378.89 384.76,378.57 C385.08,378.25 383.90,375.99 382.14,373.54 C380.38,371.10 377.00,365.45 374.62,361.00 C369.75,351.89 374.90,356.46 319.55,312.10 C301.98,298.02 286.92,286.08 286.08,285.58 C285.24,285.07 288.40,289.34 293.10,295.08 C297.80,300.81 310.19,316.08 320.63,329.00 C368.50,388.24 370.01,390.01 372.48,389.94 C373.59,389.91 375.56,388.55 376.85,386.92 ZM 656.11 378.12 C659.07,375.71 663.89,372.39 666.81,370.74 C672.50,367.53 675.34,364.34 699.98,333.50 C707.89,323.60 720.01,308.55 726.91,300.05 C733.80,291.56 738.85,284.97 738.13,285.42 C736.84,286.22 679.63,331.92 655.51,351.41 C648.92,356.74 643.18,361.71 642.77,362.44 C641.89,364.02 639.91,377.25 640.48,377.81 C640.69,378.03 646.63,372.60 653.68,365.75 C669.38,350.51 692.82,329.17 695.40,327.79 C697.17,326.84 697.15,326.97 695.23,329.63 C692.94,332.80 678.93,348.05 664.11,363.53 C658.82,369.04 652.31,375.86 649.63,378.68 C646.89,381.57 645.07,384.30 645.46,384.93 C646.20,386.13 646.40,386.01 656.11,378.12 ZM 401.57 364.41 L 408.86 358.83 L 405.57 353.66 C395.83,338.40 393.20,329.30 391.96,306.50 C390.97,288.27 389.55,281.00 385.37,272.73 C381.68,265.42 371.10,255.51 360.05,249.00 C344.74,239.99 336.87,231.59 331.70,218.78 C329.88,214.24 329.50,210.75 329.03,194.00 C328.66,180.95 328.23,175.82 327.73,178.50 C327.31,180.70 326.08,186.55 324.99,191.50 C319.88,214.61 320.22,224.18 326.60,236.92 C330.55,244.83 336.37,250.57 349.96,259.99 C369.24,273.34 373.94,283.74 375.96,317.50 C377.02,335.14 378.39,342.27 382.59,351.85 C384.85,357.00 392.93,370.00 393.88,370.00 C394.10,370.00 397.56,367.49 401.57,364.41 ZM 634.13 347.50 C639.78,328.41 649.52,315.05 672.76,294.51 C682.17,286.20 690.47,272.63 693.43,260.68 C696.23,249.43 696.38,241.78 694.09,226.65 C689.78,198.10 692.33,185.35 705.66,168.75 C708.65,165.04 710.72,162.00 710.27,162.00 C708.83,162.00 693.31,178.35 690.65,182.67 C685.09,191.68 683.81,197.92 682.93,220.00 C682.05,242.34 680.59,249.93 675.06,260.88 C668.26,274.35 659.18,282.18 637.59,293.15 C617.86,303.19 609.82,309.49 601.94,321.08 C597.94,326.97 593.45,337.06 592.45,342.42 C591.93,345.19 592.21,345.77 594.55,346.84 C596.04,347.52 597.35,347.95 597.46,347.79 C597.57,347.63 598.71,344.65 599.98,341.17 C601.26,337.69 603.97,332.29 606.01,329.17 C610.22,322.72 617.73,314.00 619.07,314.00 C619.56,314.00 617.32,319.29 614.10,325.75 C610.87,332.21 607.22,340.62 605.98,344.43 L 603.72 351.35 L 606.02 353.22 L 608.32 355.08 L 610.48 348.27 C616.94,327.90 630.82,309.35 646.16,300.59 C648.77,299.11 647.94,300.31 642.39,306.09 C630.26,318.73 621.76,333.27 616.51,350.35 C614.38,357.30 614.24,358.55 615.50,359.26 C616.31,359.71 619.78,362.33 623.20,365.08 L 629.43 370.09 L 630.75 362.29 C631.47,358.01 633.00,351.35 634.13,347.50 ZM 419.73 352.22 L 421.96 350.80 L 418.95 346.43 C411.26,335.25 407.04,321.50 407.01,307.55 C407.00,297.19 408.12,297.32 409.84,307.88 C411.76,319.70 418.69,335.07 426.32,344.45 L 428.72 347.39 L 437.16 343.51 L 445.59 339.63 L 439.04 330.91 C428.37,316.69 423.68,305.61 418.11,281.50 C414.95,267.83 410.14,258.92 401.10,250.00 C393.36,242.37 392.60,241.90 370.00,231.17 C358.05,225.49 352.70,221.30 347.77,213.76 C342.71,206.03 341.10,201.08 339.93,189.71 C338.83,179.05 336.07,168.91 333.33,165.50 C331.73,163.50 331.73,163.50 332.43,165.50 C334.56,171.59 335.22,178.61 334.73,189.90 C334.07,205.33 335.01,212.30 338.91,220.62 C342.81,228.96 350.35,236.37 361.76,243.07 C378.67,253.01 387.22,261.46 392.55,273.52 C396.19,281.75 396.92,285.85 397.98,304.00 C399.04,321.93 400.48,329.07 405.04,338.87 C408.86,347.08 414.81,355.22 416.34,354.33 C416.98,353.95 418.50,353.00 419.73,352.22 ZM 587.41 335.45 C592.85,320.43 604.01,306.10 616.88,297.62 C620.52,295.22 630.00,289.97 637.94,285.96 C650.33,279.70 653.38,277.67 659.48,271.59 C672.30,258.81 675.74,248.68 677.01,220.00 C678.32,190.26 680.96,183.00 695.90,168.07 L 705.34 158.63 L 698.42 162.41 C684.62,169.95 676.87,177.23 671.73,187.50 C668.07,194.80 667.10,199.07 665.94,213.00 C664.72,227.66 663.03,235.15 659.00,243.79 C652.69,257.32 644.13,264.51 620.50,276.09 C611.70,280.41 601.41,286.28 597.64,289.14 C589.40,295.37 581.37,304.84 576.67,313.87 C572.72,321.46 567.67,335.01 568.50,335.83 C569.57,336.90 582.52,341.81 583.86,341.66 C584.61,341.57 586.21,338.78 587.41,335.45 ZM 455.40 328.15 C449.83,314.34 449.00,305.77 450.42,276.50 C451.18,260.89 451.07,258.77 449.11,250.60 C447.93,245.71 447.14,241.53 447.35,241.32 C448.07,240.59 452.91,251.87 454.49,257.97 C455.72,262.71 456.03,268.70 455.90,284.78 C455.80,296.99 456.18,307.35 456.82,310.00 C458.46,316.76 461.51,325.17 463.91,329.57 L 466.05 333.50 L 465.28 328.00 C464.30,321.08 464.38,300.47 465.44,288.00 C466.92,270.38 462.83,251.29 454.91,238.92 C452.65,235.39 444.77,226.39 437.40,218.92 C430.03,211.45 424.00,205.44 424.00,205.56 C424.00,205.69 427.13,212.25 430.96,220.14 C442.25,243.46 444.52,256.22 441.35,278.50 C440.33,285.65 439.51,295.55 439.52,300.50 C439.54,308.55 439.87,310.18 442.71,316.00 C445.30,321.31 455.60,334.00 457.32,334.00 C457.57,334.00 456.70,331.37 455.40,328.15 ZM 560.50 322.72 C563.82,313.45 570.28,301.84 575.76,295.27 C584.99,284.22 593.62,268.30 596.50,257.06 C599.12,246.85 599.45,234.95 597.45,223.50 C596.48,218.00 595.17,209.68 594.52,205.00 L 593.35 196.50 L 592.26 202.00 C591.67,205.02 590.45,212.17 589.56,217.88 C587.76,229.44 583.09,242.93 577.92,251.53 C576.04,254.65 570.31,262.23 565.18,268.35 C550.51,285.90 543.71,298.90 543.66,309.50 C543.62,315.87 548.04,331.14 549.12,328.39 C549.53,327.35 549.89,324.92 549.93,323.00 C550.05,317.44 554.76,301.23 558.06,295.05 C559.71,291.94 564.19,285.36 568.01,280.44 C578.19,267.31 583.97,257.81 587.66,248.11 C590.37,240.99 590.94,240.08 590.97,242.86 C591.06,252.54 585.36,266.00 575.00,280.55 C562.94,297.49 558.43,308.86 556.60,326.92 C555.91,333.74 556.96,332.61 560.50,322.72 ZM 494.67 327.67 C494.89,327.44 494.53,323.19 493.87,318.21 C492.43,307.41 493.60,295.27 497.11,284.59 C499.29,277.98 501.45,274.07 514.38,253.34 C521.80,241.43 524.13,234.73 524.75,223.50 C525.54,209.22 522.95,201.52 510.50,181.09 C502.20,167.47 499.83,160.57 499.28,148.50 C498.87,139.31 499.11,137.53 502.31,126.54 C506.17,113.24 505.43,113.56 498.03,128.39 C492.24,139.99 490.00,147.84 490.00,156.50 C490.00,165.43 492.17,172.34 499.48,186.75 C513.40,214.14 512.09,228.53 493.01,258.00 C480.20,277.78 475.00,292.36 475.00,308.48 C475.00,316.35 476.40,328.22 477.55,330.09 C477.92,330.68 493.92,328.41 494.67,327.67 ZM 535.66 327.56 C532.46,319.21 530.79,301.70 532.09,290.10 C533.01,281.92 535.48,273.83 545.07,247.50 C547.93,239.67 548.41,236.93 548.79,226.40 C549.49,207.09 546.16,198.68 530.29,179.75 C519.58,166.97 516.60,162.35 513.39,153.50 C510.09,144.41 509.57,137.10 511.42,125.76 C513.93,110.31 513.20,109.52 509.04,123.17 C501.14,149.10 502.35,156.30 519.29,184.20 C527.78,198.20 530.07,204.87 530.70,217.50 C531.54,234.28 528.64,242.76 514.66,264.50 C502.87,282.83 499.38,294.29 500.37,311.50 C501.19,325.73 501.80,327.43 506.20,327.80 L 509.77 328.11 L 509.25 315.22 C508.63,299.95 510.19,291.23 515.52,280.11 C519.05,272.72 524.88,263.55 525.59,264.26 C525.81,264.47 524.45,268.45 522.58,273.09 C516.01,289.38 513.95,302.99 516.00,316.55 C517.66,327.48 517.92,327.83 524.76,328.26 C527.92,328.46 531.79,328.71 533.36,328.81 C535.48,328.95 536.07,328.63 535.66,327.56 ZM 375.10 920.75 C373.37,910.88 372.06,907.10 370.00,906.00 C368.95,905.44 364.60,904.15 360.35,903.15 C356.09,902.14 352.45,900.86 352.27,900.30 C352.08,899.74 354.75,898.72 358.21,898.04 C371.26,895.48 372.62,894.04 375.05,880.25 C376.90,869.73 377.47,870.15 380.48,884.23 C382.50,893.72 384.15,895.25 395.09,897.70 C399.44,898.68 402.87,899.88 402.71,900.36 C402.55,900.84 398.44,902.23 393.56,903.46 C388.28,904.78 384.19,906.39 383.41,907.45 C382.70,908.42 381.36,912.66 380.44,916.86 C378.21,926.97 378.21,927.00 377.13,927.00 C376.62,927.00 375.71,924.19 375.10,920.75 ZM 384.06 901.67 L 387.01 900.56 L 383.76 899.03 C381.97,898.19 379.77,896.03 378.87,894.24 L 377.25 890.99 L 375.96 894.09 C375.21,895.90 373.30,897.84 371.33,898.78 L 367.99 900.38 L 371.02 901.65 C372.69,902.35 374.81,904.25 375.74,905.87 L 377.43 908.82 L 379.27 905.80 C380.27,904.15 382.43,902.29 384.06,901.67 ZM 586.78 921.42 C586.48,920.91 585.92,918.47 585.55,916.00 C583.88,905.08 582.79,903.85 573.11,901.94 C569.72,901.28 566.76,900.42 566.52,900.04 C566.29,899.66 569.09,898.75 572.74,898.03 C581.51,896.28 583.41,894.30 585.04,885.17 C585.74,881.22 586.70,878.00 587.16,878.00 C587.62,878.00 588.00,878.16 588.00,878.36 C588.00,880.09 590.23,890.06 591.09,892.18 C592.28,895.09 596.72,897.30 603.75,898.47 C607.71,899.13 609.78,901.00 606.55,901.00 C602.34,901.00 594.40,903.51 592.45,905.46 C591.00,906.90 589.97,909.56 589.49,913.09 C588.62,919.43 587.55,922.71 586.78,921.42 ZM 640.20 920.80 C636.99,917.59 640.59,912.10 644.99,913.50 C647.44,914.28 648.41,917.36 647.02,919.96 C645.81,922.21 642.07,922.67 640.20,920.80 ZM 771.04 868.78 C770.33,864.78 769.37,860.51 768.92,859.30 C767.70,856.07 763.75,853.89 755.73,852.00 C751.82,851.08 748.46,849.89 748.28,849.35 C748.10,848.81 751.46,847.56 755.73,846.56 C768.00,843.70 767.94,843.77 770.47,831.48 C773.03,819.07 773.48,819.20 776.48,833.23 C778.50,842.69 779.88,843.96 790.90,846.48 C795.35,847.49 799.00,848.69 799.00,849.13 C799.00,849.56 797.09,850.41 794.75,851.02 C778.09,855.30 778.83,854.65 776.12,867.24 C775.16,871.72 773.91,875.53 773.35,875.72 C772.79,875.90 771.75,872.78 771.04,868.78 ZM 778.88 851.30 L 782.24 849.04 L 779.62 848.05 C778.18,847.50 776.14,845.63 775.09,843.90 L 773.18 840.76 L 771.63 843.74 C770.79,845.38 768.69,847.30 766.96,848.01 L 763.83 849.31 L 766.85 850.58 C768.51,851.28 770.62,853.29 771.53,855.05 L 773.19 858.26 L 774.36 855.91 C775.00,854.62 777.04,852.54 778.88,851.30 ZM 457.50 872.00 C456.00,870.34 455.88,869.56 456.82,867.50 C458.79,863.17 465.00,864.70 465.00,869.50 C465.00,873.97 460.60,875.43 457.50,872.00 ZM 636.45 844.55 C635.10,843.20 634.00,841.23 634.00,840.18 C634.00,837.16 637.84,833.00 640.62,833.00 C643.63,833.00 648.00,837.14 648.00,840.00 C648.00,841.15 646.90,843.20 645.55,844.55 C644.20,845.90 642.15,847.00 641.00,847.00 C639.85,847.00 637.80,845.90 636.45,844.55 ZM 252.75 843.92 C249.19,841.85 251.22,836.00 255.50,836.00 C259.89,836.00 261.81,841.96 258.07,843.96 C255.70,845.23 254.99,845.22 252.75,843.92 ZM 738.71 798.38 C738.32,797.99 738.00,796.38 738.00,794.81 C738.00,792.75 738.68,791.65 740.47,790.83 C743.88,789.28 746.20,791.28 745.80,795.41 C745.55,798.04 745.05,798.54 742.46,798.80 C740.79,798.96 739.11,798.77 738.71,798.38 ZM 176.53 786.76 C174.78,777.67 173.70,774.00 172.51,773.01 C171.78,772.40 168.00,771.16 164.10,770.25 C160.19,769.33 157.00,768.32 157.00,767.99 C157.00,767.67 159.81,766.83 163.25,766.13 C173.43,764.05 173.75,763.64 176.53,749.24 C177.35,745.01 178.56,745.85 179.41,751.23 C181.25,762.93 181.73,763.50 192.00,766.00 C199.70,767.88 199.71,768.19 192.08,770.12 C188.00,771.16 183.87,772.72 182.90,773.59 C181.89,774.51 180.63,778.09 179.91,782.13 C178.49,790.05 177.45,791.48 176.53,786.76 ZM 838.63 788.47 C836.77,783.64 839.97,779.84 844.06,782.03 C845.60,782.86 846.04,783.93 845.81,786.32 C845.54,789.07 845.08,789.54 842.38,789.80 C840.21,790.01 839.06,789.61 838.63,788.47 ZM 297.69 786.89 C294.72,785.16 293.79,781.32 295.52,777.96 C297.54,774.06 301.36,773.14 304.84,775.72 C311.91,780.98 305.30,791.31 297.69,786.89 ZM 226.20 751.80 C225.54,751.14 225.00,749.66 225.00,748.50 C225.00,743.79 231.21,742.16 233.12,746.37 C235.26,751.07 229.77,755.37 226.20,751.80 ZM 795.63 739.93 C792.54,737.49 792.24,734.16 794.84,730.94 C797.18,728.07 802.67,727.83 804.64,730.52 C806.80,733.48 806.35,738.64 803.78,740.44 C800.80,742.53 798.78,742.40 795.63,739.93 ZM 902.72 677.50 C902.41,676.40 901.84,673.92 901.46,672.00 C900.53,667.29 899.54,666.27 895.17,665.53 C888.53,664.41 888.26,663.29 894.33,662.03 C900.44,660.77 900.01,661.36 902.47,650.55 C903.30,646.91 904.59,648.54 905.56,654.48 C906.42,659.68 907.42,660.81 911.85,661.60 C913.86,661.96 916.17,662.62 917.00,663.06 C918.69,663.97 918.96,663.83 911.28,665.92 C907.48,666.95 906.95,667.48 905.93,671.28 C905.30,673.60 904.46,676.40 904.05,677.50 L 903.30 679.50 L 902.72 677.50 ZM 185.50 646.00 C181.81,641.93 187.92,636.32 191.80,640.20 C193.64,642.04 193.23,645.81 191.07,646.96 C188.35,648.42 187.56,648.28 185.50,646.00 ZM 134.63 644.00 C134.35,643.17 133.42,638.90 132.56,634.50 C130.59,624.40 128.93,622.80 118.02,620.44 C113.57,619.48 110.09,618.23 110.28,617.67 C110.46,617.11 113.71,616.02 117.49,615.25 C129.79,612.77 129.91,612.63 133.23,597.50 C133.95,594.20 134.99,591.59 135.52,591.70 C136.06,591.81 136.86,593.83 137.31,596.20 C140.09,611.06 141.27,612.57 152.00,614.95 C163.69,617.55 163.75,618.00 152.78,620.49 C142.27,622.87 140.70,624.42 138.47,634.60 C136.47,643.77 135.42,646.34 134.63,644.00 ZM 141.47 619.42 C144.76,618.59 144.66,617.78 141.11,616.21 C139.51,615.50 137.66,613.60 136.99,611.98 L 135.77 609.04 L 133.61 612.26 C132.42,614.02 130.38,616.00 129.09,616.64 L 126.74 617.81 L 129.66 619.32 C131.26,620.15 133.19,621.99 133.95,623.41 L 135.33 625.99 L 137.13 623.02 C138.13,621.39 140.08,619.77 141.47,619.42 ZM 850.05 638.56 C847.20,635.13 851.12,629.33 854.75,631.61 C858.32,633.84 857.03,640.00 853.00,640.00 C852.03,640.00 850.71,639.35 850.05,638.56 ZM 882.56 593.75 C882.36,593.06 881.70,589.80 881.10,586.50 C879.62,578.40 878.38,577.44 865.63,574.55 C861.72,573.67 862.99,572.78 870.26,571.30 C873.64,570.61 877.22,569.22 878.22,568.22 C879.24,567.20 880.55,563.56 881.19,559.95 C883.01,549.64 883.74,549.82 885.98,561.14 C886.59,564.24 887.89,567.50 888.87,568.38 C889.85,569.27 893.44,570.55 896.85,571.24 C900.26,571.93 903.15,572.94 903.28,573.47 C903.40,574.01 901.47,574.79 899.00,575.21 C889.00,576.91 886.55,579.46 885.38,589.41 C884.77,594.61 883.44,596.66 882.56,593.75 ZM 107.71 576.98 C104.09,574.14 104.06,569.88 107.63,567.07 C110.95,564.46 113.04,564.45 115.81,567.04 C122.07,572.87 114.41,582.26 107.71,576.98 ZM 136.28 457.45 C134.74,448.46 133.23,446.48 126.80,445.02 C115.98,442.58 115.84,442.10 125.34,440.07 C128.56,439.38 131.99,438.01 132.98,437.02 C134.01,435.99 135.32,432.17 136.06,428.07 C136.76,424.13 137.67,420.70 138.08,420.45 C138.48,420.20 139.39,423.22 140.10,427.16 C141.76,436.44 143.72,438.68 151.50,440.15 C158.65,441.50 160.36,442.67 156.39,443.49 C142.71,446.33 141.76,447.27 139.55,460.25 C139.20,462.31 138.57,464.00 138.16,464.00 C137.74,464.00 136.90,461.05 136.28,457.45 ZM 909.99 454.20 C908.23,452.77 907.85,451.73 908.35,449.74 C909.21,446.32 912.54,445.27 915.12,447.60 C917.53,449.79 917.22,452.80 914.39,454.66 C912.55,455.88 912.00,455.82 909.99,454.20 ZM 888.67 436.35 C888.38,435.33 887.64,432.02 887.04,429.00 C886.44,425.98 885.62,423.00 885.22,422.40 C884.05,420.62 880.88,419.30 874.75,418.04 C871.59,417.39 869.00,416.51 869.00,416.09 C869.00,415.66 871.57,414.74 874.72,414.04 C885.14,411.71 885.90,410.84 887.80,399.16 C888.18,396.78 888.94,394.84 889.48,394.87 C890.02,394.89 891.02,397.97 891.70,401.71 C893.22,410.03 895.33,412.16 903.86,413.97 C907.24,414.69 910.00,415.60 910.00,416.00 C910.00,416.40 907.24,417.31 903.86,418.03 C895.39,419.83 893.21,422.00 891.81,430.00 C890.57,437.07 889.50,439.25 888.67,436.35 ZM 158.43 389.23 C156.47,387.90 156.13,385.26 157.63,383.11 C160.20,379.45 165.00,381.01 165.00,385.50 C165.00,389.14 161.33,391.22 158.43,389.23 ZM 901.67 384.25 C901.43,383.84 900.91,381.58 900.52,379.23 C899.62,373.79 898.18,372.40 892.55,371.56 C887.02,370.73 886.69,369.46 891.75,368.54 C897.77,367.44 899.79,365.59 900.55,360.51 C901.51,354.10 902.67,354.09 904.00,360.49 C905.25,366.54 906.37,367.56 912.87,368.60 C918.18,369.44 918.13,370.64 912.75,371.53 C906.21,372.61 905.25,373.49 904.00,379.50 C902.86,384.97 902.52,385.68 901.67,384.25 ZM 119.51 371.28 C118.47,364.61 116.89,362.61 111.60,361.30 C108.94,360.64 106.57,359.91 106.34,359.67 C106.11,359.44 108.51,358.63 111.68,357.87 C117.83,356.41 117.62,356.69 119.48,347.71 C120.28,343.86 121.64,345.10 122.43,350.41 C123.22,355.67 124.05,356.48 130.25,358.04 C135.72,359.42 135.67,360.48 130.09,361.37 C124.97,362.19 123.27,364.00 122.44,369.52 C121.58,375.31 120.26,376.09 119.51,371.28 ZM 211.00 280.00 C205.31,274.31 212.47,264.98 218.87,269.74 C222.32,272.31 222.88,277.12 220.06,279.94 C217.45,282.55 213.58,282.58 211.00,280.00 ZM 791.63 280.14 C790.30,278.68 790.16,277.72 790.95,275.64 C792.66,271.13 799.00,272.60 799.00,277.50 C799.00,281.87 794.61,283.44 791.63,280.14 ZM 831.00 258.00 C828.50,255.50 828.42,250.84 830.83,248.65 C833.26,246.46 838.28,246.55 840.35,248.83 C843.99,252.85 840.89,260.00 835.50,260.00 C834.12,260.00 832.10,259.10 831.00,258.00 ZM 193.71 231.38 C193.32,230.99 193.00,229.38 193.00,227.80 C193.00,225.75 193.64,224.69 195.25,224.09 C198.79,222.75 201.17,224.56 200.81,228.32 C200.54,231.05 200.07,231.54 197.46,231.80 C195.79,231.96 194.11,231.77 193.71,231.38 ZM 742.60 225.87 C741.65,219.97 740.45,218.25 736.76,217.51 C730.40,216.23 729.61,215.86 731.12,214.91 C731.88,214.42 733.64,214.02 735.03,214.02 C739.42,213.99 741.74,211.50 742.50,206.01 C743.34,199.88 744.59,199.57 745.53,205.25 C746.58,211.61 747.49,212.68 752.98,213.99 C755.74,214.66 758.00,215.55 758.00,215.97 C758.00,216.39 756.17,216.98 753.92,217.28 C748.54,218.01 746.35,220.17 745.54,225.56 C744.71,231.12 743.46,231.26 742.60,225.87 ZM 254.59 223.75 C254.40,223.06 253.48,219.06 252.56,214.85 C251.63,210.64 250.12,206.52 249.19,205.69 C248.26,204.86 243.79,203.39 239.25,202.42 C234.71,201.45 231.00,200.34 231.00,199.96 C231.00,199.58 233.81,198.73 237.25,198.09 C249.49,195.79 250.85,194.48 253.04,182.99 C253.72,179.42 254.64,175.82 255.07,175.00 C256.06,173.12 256.22,173.55 258.51,184.34 C259.43,188.65 260.95,192.95 261.90,193.90 C262.85,194.85 267.31,196.43 271.82,197.40 C276.32,198.37 280.00,199.51 280.00,199.94 C280.00,200.36 276.35,201.50 271.89,202.46 C267.43,203.43 262.98,205.02 262.00,206.00 C260.40,207.60 257.00,219.46 257.00,223.45 C257.00,225.30 255.09,225.54 254.59,223.75 ZM 261.57 201.00 C262.36,201.00 263.00,200.55 263.00,200.00 C263.00,199.45 262.36,199.00 261.57,199.00 C260.79,199.00 259.07,197.63 257.76,195.96 L 255.38 192.92 L 254.04 195.42 C253.30,196.81 251.55,198.32 250.14,198.79 L 247.58 199.64 L 250.79 201.54 C252.56,202.58 254.28,204.30 254.61,205.36 C255.17,207.10 255.46,206.98 257.69,204.14 C259.04,202.41 260.79,201.00 261.57,201.00 ZM 806.56 214.75 C806.29,213.51 805.56,209.80 804.93,206.50 C802.58,194.21 800.96,192.73 786.75,189.97 C783.59,189.36 781.00,188.47 781.00,188.00 C781.00,187.53 783.59,186.64 786.75,186.03 C801.10,183.24 802.73,181.72 804.96,168.99 C807.22,156.14 808.17,156.20 810.60,169.30 C812.98,182.09 813.92,182.94 829.25,185.99 C832.41,186.63 835.00,187.53 835.00,188.00 C835.00,188.47 832.41,189.38 829.25,190.01 C813.95,193.07 812.90,194.05 810.47,207.52 C808.79,216.83 807.51,219.21 806.56,214.75 ZM 814.11 189.60 L 817.18 188.30 L 813.58 186.18 C811.60,185.01 809.46,182.90 808.82,181.49 L 807.65 178.93 L 806.34 182.05 C805.54,183.95 803.85,185.61 802.01,186.30 C798.26,187.72 798.25,188.18 801.94,189.81 C803.56,190.53 805.45,192.40 806.15,193.98 L 807.42 196.84 L 809.23 193.86 C810.22,192.23 812.42,190.31 814.11,189.60 ZM 447.20 166.80 C444.39,163.99 446.51,159.00 450.50,159.00 C453.18,159.00 455.00,160.82 455.00,163.50 C455.00,166.18 453.18,168.00 450.50,168.00 C449.35,168.00 447.86,167.46 447.20,166.80 ZM 557.80 157.46 C556.81,155.28 556.95,154.61 558.76,152.80 C560.77,150.78 560.99,150.76 563.44,152.37 C566.37,154.29 566.68,156.18 564.43,158.43 C562.07,160.78 559.12,160.35 557.80,157.46 ZM 371.84 141.50 C371.52,140.95 370.94,138.70 370.54,136.50 C369.61,131.33 368.59,130.19 364.15,129.40 C362.14,129.04 359.86,128.40 359.09,127.99 C357.58,127.19 358.10,126.95 364.49,125.51 C368.82,124.54 369.82,123.37 370.57,118.41 C371.45,112.54 372.80,111.92 373.62,117.01 C374.53,122.70 376.71,125.02 381.78,125.70 C386.92,126.39 388.12,127.73 384.29,128.51 C376.39,130.11 375.16,131.28 373.28,139.00 C372.81,140.92 372.16,142.05 371.84,141.50 ZM 579.16 132.25 C578.61,129.64 577.84,125.80 577.46,123.73 C576.38,117.86 573.83,116.42 559.25,113.42 C555.65,112.68 556.65,111.23 561.25,110.52 C573.51,108.62 576.36,106.35 577.99,97.17 C580.33,84.05 581.01,83.86 583.28,95.75 C585.29,106.23 586.18,107.17 596.51,109.60 C604.44,111.47 605.75,112.57 601.25,113.58 C596.59,114.63 590.59,116.09 588.74,116.63 C586.22,117.36 584.43,121.43 582.96,129.75 C582.26,133.74 581.34,137.00 580.92,137.00 C580.51,137.00 579.71,134.86 579.16,132.25 ZM 583.37 108.43 C581.30,106.23 580.00,105.43 580.00,106.36 C580.00,107.18 578.54,109.01 576.75,110.42 C574.30,112.35 573.94,112.98 575.30,112.99 C576.28,113.00 577.83,114.29 578.74,115.87 L 580.38 118.73 L 583.56 115.37 L 586.74 112.00 L 583.37 108.43 ZM 654.00 134.00 C649.88,129.88 652.96,123.00 658.93,123.00 C661.86,123.00 666.00,126.81 666.00,129.50 C666.00,130.18 665.07,131.92 663.93,133.37 C661.39,136.59 656.88,136.88 654.00,134.00 ZM 497.04 674.91 C456.37,671.00 415.84,650.27 389.25,619.78 C371.14,599.02 356.97,570.38 351.50,543.50 C347.68,524.68 347.86,499.31 351.97,479.17 C364.45,417.89 411.36,368.71 471.72,353.60 C486.77,349.83 496.21,348.67 512.00,348.65 C555.71,348.59 595.76,365.08 626.99,396.00 C652.66,421.42 668.56,453.00 674.08,489.50 C675.65,499.93 675.65,525.47 674.07,535.00 C668.60,567.96 655.48,596.02 633.98,620.75 C607.82,650.82 567.47,670.98 525.45,674.96 C513.31,676.11 509.42,676.10 497.04,674.91 ZM 526.76 668.99 C547.28,666.83 562.15,662.52 580.50,653.42 C617.08,635.29 644.04,606.23 658.67,569.19 C682.14,509.74 667.15,442.90 620.24,397.87 C578.20,357.52 517.99,344.03 462.36,362.50 C452.35,365.83 435.57,373.69 427.60,378.79 C403.25,394.39 382.15,418.50 369.58,445.08 C354.67,476.62 350.64,511.37 357.97,545.08 C371.09,605.39 420.55,654.21 481.00,666.51 C497.39,669.85 511.42,670.61 526.76,668.99 ZM 432.62 638.59 C413.66,627.21 399.06,613.50 387.85,596.57 C376.63,579.62 369.83,562.74 366.53,543.62 C363.98,528.80 364.94,527.72 368.42,541.50 C373.72,562.45 382.13,581.01 393.74,597.36 C401.88,608.84 421.52,628.25 433.75,636.92 C442.91,643.41 444.85,645.00 443.64,645.00 C443.45,645.00 438.48,642.12 432.62,638.59 ZM 584.50 641.61 C586.15,640.22 590.83,636.63 594.89,633.62 C610.19,622.31 627.30,603.55 637.05,587.41 C646.20,572.27 654.93,549.74 657.57,534.50 C658.69,528.01 659.97,526.96 659.39,533.00 C655.10,577.94 627.36,619.58 587.50,640.92 C582.17,643.78 581.84,643.85 584.50,641.61 ZM 531.78 634.90 C521.31,629.51 508.53,629.02 495.47,633.51 L 488.50 635.90 L 491.79 633.10 C499.73,626.32 517.34,624.99 528.29,630.35 C533.44,632.87 536.79,635.55 535.89,636.43 C535.68,636.64 533.83,635.95 531.78,634.90 ZM 496.79 621.13 C489.15,619.14 480.09,613.41 477.09,608.68 C476.01,606.96 475.27,605.40 475.46,605.20 C475.66,605.01 477.70,606.22 480.01,607.89 C496.50,619.84 528.44,619.56 544.75,607.33 C549.43,603.83 549.07,606.86 544.25,611.55 C539.08,616.59 532.83,620.07 526.15,621.64 C518.36,623.47 504.86,623.24 496.79,621.13 ZM 504.50 602.07 C501.20,601.10 493.57,599.97 487.55,599.57 C473.97,598.66 463.49,595.51 455.54,589.94 C449.76,585.90 448.06,585.85 448.02,589.75 C448.01,590.44 447.33,591.00 446.50,591.00 C445.43,591.00 445.00,589.90 445.00,587.14 C445.00,581.48 449.41,577.39 454.75,578.10 C455.54,578.21 455.52,578.55 454.52,581.10 C454.05,582.32 455.12,583.24 458.88,584.85 C466.25,588.02 473.08,587.68 485.71,583.50 C491.52,581.58 497.41,580.00 498.79,580.00 C500.18,580.00 503.77,581.16 506.77,582.58 L 512.23 585.17 L 517.99 582.58 C521.16,581.16 524.70,580.00 525.86,580.00 C527.02,580.00 532.54,581.58 538.14,583.50 C549.56,587.43 558.45,588.09 564.71,585.48 C569.97,583.28 571.26,582.02 569.93,580.41 C568.08,578.19 569.72,577.01 573.04,578.16 C576.99,579.54 579.00,582.59 579.00,587.22 C579.00,591.60 577.90,592.02 575.61,588.53 L 574.00 586.06 L 568.31 590.05 C560.51,595.51 549.94,598.67 536.45,599.57 C530.43,599.97 522.58,601.13 519.00,602.15 C511.37,604.32 512.12,604.33 504.50,602.07 ZM 519.73 595.59 C521.80,594.81 528.48,593.92 534.57,593.62 C540.66,593.32 546.74,592.66 548.07,592.15 C550.34,591.30 550.21,591.16 546.00,590.07 C543.53,589.43 538.83,588.02 535.56,586.95 C527.90,584.44 523.77,584.49 517.27,587.18 L 512.00 589.37 L 506.73 587.18 C500.23,584.49 496.10,584.44 488.44,586.95 C485.17,588.02 480.48,589.43 478.00,590.07 C473.89,591.14 473.70,591.32 475.84,592.12 C477.13,592.61 483.43,593.30 489.84,593.65 C496.25,594.01 503.08,594.88 505.00,595.58 C509.71,597.30 515.16,597.30 519.73,595.59 ZM 505.00 574.56 C505.00,573.22 505.45,571.84 506.00,571.50 C506.58,571.14 507.00,572.16 507.00,573.94 C507.00,575.62 506.55,577.00 506.00,577.00 C505.45,577.00 505.00,575.90 505.00,574.56 ZM 419.44 575.06 C415.37,574.09 406.49,569.21 404.27,566.72 C402.71,564.98 403.10,565.04 407.50,567.23 C422.29,574.61 438.45,572.83 449.38,562.62 C454.04,558.26 454.49,558.15 452.59,561.82 C447.14,572.36 432.53,578.20 419.44,575.06 ZM 586.91 574.51 C581.68,572.83 573.70,566.26 571.34,561.68 C569.76,558.63 569.80,558.65 574.78,562.81 C582.84,569.56 587.98,571.44 598.50,571.47 C606.57,571.49 608.23,571.15 614.50,568.25 L 621.50 565.02 L 618.07 567.98 C609.95,575.00 596.94,577.73 586.91,574.51 ZM 501.67 563.95 C497.98,561.73 494.45,560.22 493.83,560.60 C489.47,563.30 481.55,558.46 480.41,552.39 C479.63,548.23 481.57,542.30 484.17,540.91 C486.76,539.52 487.45,540.29 486.03,542.95 C484.31,546.15 485.13,553.08 487.38,554.40 C488.79,555.23 489.37,555.19 489.71,554.25 C489.97,553.55 491.82,553.00 493.90,553.00 C496.70,553.00 498.98,554.00 503.00,557.00 C510.14,562.32 513.50,562.32 521.50,557.00 C527.74,552.85 530.71,552.18 533.93,554.19 C535.43,555.12 536.18,555.10 537.42,554.07 C539.25,552.54 539.55,545.90 537.92,542.85 C535.62,538.56 539.73,539.58 542.30,543.94 C547.55,552.82 539.78,563.74 530.41,560.66 C528.99,560.19 527.15,560.77 524.64,562.47 C514.44,569.39 511.04,569.61 501.67,563.95 ZM 505.42 553.58 C502.50,552.31 497.51,547.15 498.37,546.30 C498.59,546.08 500.44,547.04 502.48,548.42 C509.27,553.03 516.50,552.98 522.07,548.29 C525.84,545.12 527.18,546.09 523.92,549.63 C519.24,554.71 511.70,556.32 505.42,553.58 ZM 524.03 527.25 C523.45,525.19 522.51,519.13 521.95,513.79 C520.31,498.18 523.24,481.09 529.33,470.71 C531.99,466.16 535.91,462.02 534.73,465.00 C531.26,473.75 526.96,489.28 525.97,496.62 C525.30,501.68 524.94,511.38 525.17,518.37 C525.40,525.32 525.48,531.00 525.34,531.00 C525.21,531.00 524.62,529.31 524.03,527.25 ZM 499.56 521.50 C500.71,507.08 497.23,484.80 491.66,471.01 C488.75,463.80 489.90,463.20 494.06,469.75 C500.55,479.98 503.86,498.62 502.03,514.71 C500.72,526.26 498.74,531.71 499.56,521.50 ZM 424.94 511.57 L 429.29 507.13 L 425.95 506.27 C423.05,505.52 421.96,505.84 417.76,508.66 C413.00,511.86 407.39,513.64 404.80,512.76 C404.09,512.51 405.75,511.17 408.50,509.76 C411.25,508.36 414.35,506.28 415.38,505.13 C417.24,503.08 417.23,503.04 414.62,502.05 C412.53,501.25 411.31,501.45 408.77,502.99 C404.84,505.38 398.33,506.45 395.07,505.23 C392.81,504.38 392.94,504.25 397.07,503.19 C399.51,502.56 403.05,501.09 404.94,499.92 C407.90,498.09 408.15,497.66 406.71,496.86 C405.63,496.25 403.51,496.32 400.81,497.05 C398.48,497.68 394.79,497.90 392.59,497.55 C388.70,496.93 382.00,493.52 382.00,492.16 C382.00,491.79 385.04,491.49 388.75,491.49 C394.24,491.50 396.55,490.96 401.14,488.60 L 406.77 485.70 L 416.15 490.35 C432.09,498.26 442.20,499.38 457.76,494.93 C468.88,491.74 475.62,492.61 480.35,497.83 C483.02,500.78 481.73,502.04 477.30,500.82 C472.55,499.51 468.79,500.16 458.71,504.06 C452.64,506.41 448.28,507.37 442.00,507.74 C434.47,508.18 433.16,508.55 430.50,511.00 C423.67,517.28 418.84,517.78 424.94,511.57 ZM 598.50 514.84 C597.40,514.23 595.15,512.50 593.50,510.98 C590.88,508.57 589.49,508.16 582.50,507.75 C577.23,507.44 571.94,506.34 567.00,504.53 C555.17,500.18 551.54,499.50 547.28,500.81 C542.58,502.25 540.86,500.91 543.57,497.92 C548.50,492.48 554.54,491.77 567.33,495.16 C582.97,499.31 592.89,498.03 609.59,489.74 L 617.68 485.72 L 624.35 489.00 C630.42,491.99 631.58,492.23 637.26,491.67 L 643.50 491.06 L 640.50 493.55 C635.78,497.46 630.80,498.58 624.27,497.21 C618.93,496.09 617.00,496.27 617.00,497.87 C617.00,499.04 624.09,502.70 627.92,503.51 C630.82,504.12 631.07,504.38 629.58,505.22 C627.24,506.53 620.20,505.39 615.70,502.98 C612.83,501.44 611.49,501.24 609.41,502.03 L 606.77 503.04 L 611.13 506.54 C613.54,508.46 616.51,510.30 617.75,510.62 C620.41,511.32 620.76,513.00 618.25,512.99 C614.58,512.98 609.10,510.86 605.65,508.12 C603.12,506.11 601.31,505.41 599.52,505.75 C595.48,506.52 595.50,507.90 599.59,512.09 C603.30,515.89 602.78,517.19 598.50,514.84 ZM 485.49 483.19 C479.31,471.31 462.72,458.10 451.78,456.35 C445.67,455.37 445.82,453.59 451.93,454.40 C467.91,456.52 482.53,468.45 487.68,483.58 C489.87,490.00 488.95,489.84 485.49,483.19 ZM 471.70 480.51 C468.51,476.94 463.85,472.82 461.35,471.36 C449.85,464.62 433.77,464.45 418.69,470.92 C412.97,473.37 413.40,471.86 419.27,468.86 C430.36,463.21 441.44,461.13 450.62,463.00 C463.82,465.69 473.81,473.47 477.91,484.26 C478.48,485.77 478.62,487.00 478.23,487.00 C477.83,487.00 474.89,484.08 471.70,480.51 ZM 546.24 484.25 C550.04,475.48 555.16,470.21 563.70,466.29 C575.98,460.65 588.37,461.04 601.83,467.49 C610.65,471.71 611.93,473.55 603.73,470.23 C590.70,464.95 576.16,464.89 565.25,470.08 C562.58,471.35 557.35,475.55 553.31,479.67 C549.36,483.70 545.88,487.00 545.58,487.00 C545.29,487.00 545.58,485.76 546.24,484.25 ZM 536.59 483.00 C538.48,476.14 548.58,464.09 556.15,459.65 C562.65,455.84 578.22,452.21 576.57,454.89 C576.27,455.37 574.38,456.08 572.38,456.46 C562.62,458.29 551.09,466.01 543.49,475.81 C535.26,486.42 535.80,485.86 536.59,483.00 ZM 387.00 463.67 C387.00,461.65 392.35,455.39 398.94,449.71 C418.13,433.16 448.68,428.93 471.96,439.58 C482.66,444.48 488.31,450.83 486.16,455.55 C484.28,459.68 481.67,459.46 470.24,454.22 C464.33,451.51 456.58,448.49 453.00,447.50 C444.54,445.17 431.56,445.15 422.50,447.45 C414.10,449.58 400.52,455.72 394.13,460.29 C387.38,465.12 387.00,465.30 387.00,463.67 ZM 631.50 461.41 C617.72,451.53 601.09,445.71 586.50,445.67 C575.10,445.64 567.43,447.63 553.89,454.13 C542.76,459.47 540.02,459.78 537.96,455.92 C536.52,453.24 539.18,447.86 543.63,444.47 C548.43,440.81 558.37,436.47 565.50,434.93 C573.75,433.14 589.09,433.39 597.00,435.45 C605.86,437.74 618.43,443.99 624.65,449.19 C630.70,454.26 637.00,461.60 637.00,463.59 C637.00,465.44 637.24,465.53 631.50,461.41 ZM 509.20 459.80 C507.56,458.16 507.69,454.50 509.45,453.04 C511.40,451.42 513.96,452.05 515.62,454.55 C518.20,458.45 512.51,463.11 509.20,459.80 ZM 376.56 450.75 C378.25,445.28 384.59,433.24 390.27,424.74 C401.70,407.63 422.35,389.41 440.93,380.04 C446.14,377.41 463.34,370.94 464.83,371.05 C465.20,371.08 461.45,373.02 456.50,375.38 C424.35,390.66 396.58,416.37 380.96,445.33 C376.81,453.04 375.27,454.93 376.56,450.75 ZM 642.50 443.77 C624.23,412.23 595.92,387.16 563.00,373.39 C555.05,370.06 559.44,370.48 568.84,373.94 C602.97,386.52 629.00,410.26 644.16,442.59 C646.36,447.30 647.97,451.36 647.73,451.60 C647.49,451.84 645.14,448.32 642.50,443.77 ZM 509.05 436.94 C506.43,428.30 503.95,425.62 496.62,423.49 C493.55,422.60 490.80,421.48 490.51,421.01 C490.21,420.54 492.52,419.58 495.64,418.88 C504.80,416.83 507.46,413.39 510.46,399.68 C511.39,395.39 513.22,396.97 514.66,403.32 C517.10,414.03 519.55,416.76 528.75,418.95 C531.64,419.64 534.00,420.59 534.00,421.06 C534.00,421.54 532.09,422.40 529.75,422.99 C519.55,425.54 517.28,427.82 514.63,438.18 C513.90,441.05 512.83,443.56 512.26,443.75 C511.69,443.94 510.25,440.87 509.05,436.94 ZM 517.52 423.17 L 520.27 421.00 L 517.52 418.83 C516.00,417.64 514.20,415.32 513.50,413.67 L 512.24 410.68 L 511.00 413.09 C510.32,414.41 508.60,416.74 507.19,418.25 L 504.63 421.00 L 507.19 423.75 C508.60,425.26 510.32,427.59 511.00,428.91 L 512.24 431.32 L 513.50 428.33 C514.20,426.68 516.00,424.36 517.52,423.17 Z" fill="rgba(0,0,0,1)"/>
</g>
</svg>