<svg xmlns="http://www.w3.org/2000/svg" width="1024" height="1024" viewBox="0 0 1024 1024">
<g>
<path d="M 483.25 877.91 C393.23,872.47 316.17,839.49 294.03,796.94 C284.85,779.29 284.58,763.29 293.19,746.01 C298.16,736.02 315.31,719.42 329.22,711.14 C353.58,696.63 388.98,684.70 427.38,678.05 C433.91,676.92 439.49,676.00 439.78,676.00 C440.68,676.00 439.15,643.82 437.95,637.50 C437.33,634.20 434.63,627.00 431.97,621.50 C426.30,609.81 423.95,601.84 420.52,582.57 C419.15,574.83 416.39,560.85 414.39,551.50 C411.66,538.75 410.75,532.13 410.75,525.00 C410.74,515.91 411.01,514.75 416.91,498.04 C420.30,488.44 425.33,471.39 428.09,460.14 C430.84,448.90 433.71,438.23 434.46,436.43 C435.21,434.64 438.51,429.19 441.80,424.33 C450.15,411.97 452.14,407.62 457.43,390.12 C462.12,374.63 463.65,370.80 467.20,365.75 C469.53,362.44 473.84,362.06 476.45,364.95 C477.42,366.02 479.91,367.73 481.97,368.75 L 485.72 370.61 L 486.35 359.55 C486.70,353.47 486.99,343.04 487.00,336.37 C487.00,324.73 486.90,324.17 484.65,322.69 C481.08,320.35 479.00,314.98 479.00,308.10 L 479.00 302.00 L 471.05 302.00 C462.23,302.00 463.36,302.75 456.73,292.54 C452.31,285.74 445.16,282.00 436.64,282.01 C426.64,282.03 419.06,286.58 412.09,296.75 C410.36,299.27 409.15,300.00 406.68,299.99 C402.50,299.98 387.70,296.41 384.08,294.54 C380.19,292.53 376.27,287.65 374.97,283.20 C374.24,280.71 373.99,263.54 374.20,230.50 C374.48,184.66 374.62,181.25 376.41,177.66 C379.02,172.40 383.82,169.53 395.00,166.54 C408.80,162.86 409.24,162.93 413.72,169.71 C419.11,177.84 425.14,181.37 434.48,181.84 C446.35,182.44 454.16,177.96 459.94,167.25 L 462.50 162.50 L 470.63 162.21 L 478.76 161.92 L 479.22 156.42 C479.70,150.59 481.64,147.10 486.39,143.56 C488.99,141.62 490.48,141.50 512.00,141.50 C533.62,141.50 535.01,141.61 537.68,143.59 C542.52,147.18 545.00,151.77 545.00,157.15 L 545.00 162.00 L 552.96 162.00 C561.79,162.00 561.51,161.83 566.29,169.96 C570.98,177.94 576.99,181.40 586.92,181.83 C593.69,182.13 595.09,181.86 599.98,179.29 C603.32,177.54 606.77,174.67 608.80,171.96 C615.04,163.61 614.89,163.72 618.84,164.26 C625.76,165.20 639.05,169.23 642.27,171.37 C644.05,172.55 646.51,175.52 647.75,177.97 C650.00,182.42 650.00,182.50 649.92,231.96 C649.87,267.35 649.51,282.43 648.67,284.75 C645.92,292.31 640.50,295.52 624.63,298.94 L 615.76 300.85 L 613.63 298.54 C612.46,297.26 609.72,294.08 607.55,291.46 C601.91,284.66 594.98,281.66 586.05,282.17 C576.96,282.68 570.78,286.39 566.29,294.04 C561.51,302.17 561.79,302.00 552.96,302.00 L 545.00 302.00 L 545.00 308.10 C545.00,314.98 542.92,320.35 539.35,322.69 C537.24,324.07 537.00,324.95 537.05,331.37 L 537.09 338.50 L 539.76 335.00 C551.62,319.43 565.81,313.64 575.86,320.29 C581.75,324.18 584.20,329.57 584.17,338.52 C584.13,348.52 580.85,357.67 569.43,379.61 C564.24,389.57 560.00,397.99 560.00,398.31 C560.00,398.63 561.56,398.25 563.47,397.45 C568.49,395.35 577.62,395.64 583.00,398.08 C597.96,404.83 604.14,421.74 597.10,436.63 C595.50,440.00 593.70,443.06 593.10,443.44 C590.82,444.85 592.14,446.62 596.29,447.73 C601.87,449.22 609.15,455.69 612.05,461.73 C615.02,467.91 615.25,478.21 612.58,485.96 C610.78,491.19 610.78,491.45 612.50,492.46 C617.75,495.52 622.74,500.04 624.75,503.55 C628.08,509.37 630.98,519.44 631.66,527.53 C632.54,537.86 627.04,558.93 619.02,576.00 C615.79,582.88 611.73,592.10 610.00,596.50 C603.16,613.88 597.35,624.22 581.79,646.72 C577.84,652.43 575.00,662.48 575.00,670.74 L 575.00 675.59 L 587.90 677.33 C608.59,680.14 629.14,684.75 647.45,690.70 C668.66,697.60 681.88,703.34 694.88,711.31 C748.88,744.43 751.12,791.49 700.50,829.40 C654.27,864.02 568.89,883.08 483.25,877.91 ZM 496.24 866.96 C494.99,866.46 492.30,864.92 490.26,863.53 C487.39,861.58 485.26,861.00 481.02,860.99 C467.77,860.97 436.42,856.14 415.83,850.95 C404.36,848.06 385.32,841.76 375.50,837.61 C371.40,835.88 369.15,835.59 363.00,836.00 L 355.50 836.50 L 367.67 841.69 C390.22,851.30 411.71,857.40 440.50,862.36 C464.18,866.43 502.87,869.63 496.24,866.96 ZM 546.00 866.97 C587.75,863.81 630.16,853.56 663.00,838.70 L 668.50 836.21 L 660.50 835.82 C654.52,835.54 651.62,835.85 649.00,837.09 C625.53,848.13 583.54,857.86 546.17,860.91 C538.44,861.54 534.31,862.32 533.14,863.37 C532.21,864.22 529.88,865.59 527.97,866.42 L 524.50 867.92 L 528.50 867.96 C530.70,867.98 538.58,867.54 546.00,866.97 ZM 524.72 860.16 C531.24,856.81 532.74,852.48 528.83,848.31 C527.63,847.04 526.23,846.00 525.71,846.00 C525.19,846.00 522.17,848.25 519.00,851.00 C515.83,853.75 512.44,856.00 511.47,856.00 C510.51,856.00 507.42,854.06 504.61,851.68 C501.80,849.30 498.95,847.04 498.29,846.64 C496.42,845.54 493.00,849.63 493.00,852.95 C493.00,856.15 496.86,859.77 502.50,861.85 C507.32,863.63 519.82,862.68 524.72,860.16 ZM 484.41 851.60 C484.77,849.73 485.94,847.07 487.03,845.69 C488.11,844.31 489.00,842.99 489.00,842.74 C489.00,842.50 484.61,842.01 479.25,841.66 C457.87,840.24 429.48,834.25 406.80,826.36 C399.66,823.87 393.70,821.99 393.55,822.17 C392.72,823.16 390.89,827.21 391.17,827.44 C391.35,827.59 394.65,828.89 398.50,830.34 C416.39,837.06 438.53,842.36 463.18,845.83 C473.64,847.30 475.54,847.84 475.85,849.44 C476.18,851.19 475.66,851.27 467.78,850.66 C446.43,849.02 413.00,841.27 393.30,833.38 C388.41,831.43 386.34,831.05 384.23,831.76 C381.61,832.63 381.58,832.70 383.55,833.76 C387.35,835.79 409.42,842.83 421.50,845.85 C440.82,850.69 465.57,854.64 478.14,854.89 L 483.78 855.00 L 484.41 851.60 ZM 571.00 851.90 C593.98,848.45 615.34,843.01 634.37,835.74 C641.76,832.92 642.23,832.58 639.86,831.79 C637.85,831.12 634.24,831.96 623.88,835.51 C607.95,840.97 591.73,845.16 575.98,847.88 C559.38,850.75 549.45,851.53 548.52,850.04 C548.11,849.37 548.16,848.46 548.64,848.01 C549.11,847.56 556.25,846.22 564.50,845.04 C582.63,842.44 607.96,836.45 621.31,831.60 C626.71,829.64 631.51,827.80 631.98,827.51 C632.45,827.22 632.19,825.67 631.39,824.08 L 629.94 821.17 L 623.72 823.63 C600.47,832.81 558.09,842.00 538.95,842.00 C536.23,842.00 534.00,842.27 534.00,842.61 C534.00,842.94 535.12,844.55 536.50,846.18 C537.98,847.94 539.00,850.41 539.00,852.22 L 539.00 855.29 L 548.25 854.60 C553.34,854.23 563.58,853.01 571.00,851.90 ZM 513.50 845.00 C515.28,843.03 515.25,843.00 510.90,843.03 L 506.50 843.07 L 508.86 845.03 C511.72,847.42 511.31,847.42 513.50,845.00 ZM 539.56 821.90 C548.33,814.14 555.85,807.47 556.29,807.06 C556.98,806.41 541.52,804.32 521.75,802.38 L 515.00 801.72 L 515.00 807.86 L 515.00 814.00 L 521.88 814.00 C529.48,814.00 532.39,815.61 530.00,818.50 C529.11,819.57 526.77,820.00 521.88,820.00 L 515.00 820.00 L 515.00 825.43 C515.00,829.98 514.68,830.97 513.01,831.50 C509.83,832.51 509.00,831.25 509.00,825.44 L 509.00 820.00 L 502.25 819.98 C494.71,819.97 492.63,819.15 493.16,816.38 C493.46,814.80 494.70,814.42 501.01,814.00 L 508.50 813.50 L 508.80 807.75 L 509.10 802.00 L 504.80 802.01 C499.61,802.03 464.03,805.64 463.46,806.21 C463.24,806.43 471.01,813.22 480.72,821.30 L 498.38 836.00 L 511.00 836.00 L 523.61 836.00 L 539.56 821.90 ZM 482.47 833.15 C479.15,830.04 453.58,808.45 452.30,807.67 C451.25,807.04 408.27,811.00 399.00,812.58 L 395.50 813.18 L 398.32 814.66 C413.25,822.48 459.24,833.64 481.47,834.84 C484.41,835.00 484.42,834.98 482.47,833.15 ZM 562.84 831.85 C583.86,828.44 608.14,821.87 620.93,816.14 L 625.36 814.16 L 621.93 813.60 C620.04,813.30 607.12,811.78 593.20,810.23 L 567.91 807.42 L 555.20 818.78 C548.22,825.03 541.38,831.28 540.00,832.66 L 537.50 835.18 L 544.00 834.52 C547.58,834.15 556.05,832.95 562.84,831.85 ZM 375.72 828.49 C380.77,826.99 386.00,823.67 384.96,822.63 C384.66,822.33 381.73,822.91 378.46,823.92 C366.78,827.54 352.60,827.73 351.28,824.30 C350.46,822.14 352.77,821.05 358.50,820.90 C361.25,820.83 362.69,820.56 361.70,820.30 C360.29,819.94 360.15,819.53 361.03,818.46 C362.95,816.15 361.13,815.00 355.57,815.00 C343.35,815.00 333.23,822.36 340.25,826.14 C347.69,830.14 366.07,831.36 375.72,828.49 ZM 678.22 828.44 C684.11,826.43 686.54,823.88 685.11,821.21 C683.40,818.01 677.09,815.62 669.23,815.18 L 661.95 814.78 L 662.19 817.89 C662.41,820.83 662.65,821.00 666.59,821.00 C670.69,821.00 673.76,822.96 672.61,824.82 C670.76,827.81 650.49,826.64 642.43,823.07 C637.70,820.98 636.74,821.55 640.00,824.50 C645.77,829.72 667.79,831.99 678.22,828.44 ZM 375.72 819.40 C382.60,817.10 382.94,816.32 378.04,814.13 C373.27,812.00 368.45,808.12 356.88,797.14 C348.72,789.39 342.83,780.04 341.46,772.67 C340.84,769.33 340.47,768.92 338.62,769.51 C337.46,769.88 335.26,770.42 333.75,770.71 C330.40,771.34 330.27,773.00 333.00,780.21 C337.43,791.94 352.90,808.09 360.93,809.37 C364.89,810.01 369.00,812.90 369.00,815.05 C369.00,815.62 367.90,817.20 366.55,818.55 L 364.09 821.00 L 367.51 821.00 C369.39,821.00 373.08,820.28 375.72,819.40 ZM 657.22 819.44 C655.90,818.52 655.00,816.84 655.00,815.31 C655.00,812.82 654.83,812.75 650.46,813.35 C645.19,814.07 641.69,815.70 642.52,817.03 C643.35,818.38 651.89,820.85 655.97,820.93 C659.40,821.00 659.41,820.98 657.22,819.44 ZM 706.55 809.51 C731.57,784.62 732.31,758.69 708.68,734.79 C702.20,728.23 691.09,720.14 682.80,715.92 C677.60,713.28 677.01,713.17 676.14,714.71 C675.36,716.11 676.60,717.35 683.35,721.94 C695.82,730.41 705.17,740.48 710.20,750.86 C712.51,755.61 715.02,760.25 715.78,761.17 C716.82,762.42 716.89,763.33 716.08,764.85 C715.49,765.96 715.00,768.85 715.00,771.28 C715.00,781.67 708.48,794.22 696.75,806.43 C692.49,810.87 689.00,814.65 689.00,814.84 C689.00,815.03 690.01,816.43 691.25,817.95 L 693.50 820.72 L 696.50 818.62 C698.15,817.47 702.67,813.37 706.55,809.51 ZM 332.71 817.17 L 334.80 814.35 L 326.63 805.84 C315.29,794.03 309.05,781.59 309.01,770.74 C309.01,768.67 308.46,766.10 307.79,765.04 C306.82,763.48 306.89,762.77 308.21,761.31 C309.10,760.31 311.03,756.49 312.50,752.80 C316.85,741.89 328.38,729.62 343.75,719.53 C348.29,716.54 348.46,716.27 347.07,714.08 C346.34,712.93 344.80,713.48 338.84,717.00 C318.66,728.91 303.28,745.76 299.45,760.16 C295.68,774.29 299.84,789.14 311.51,803.29 C316.35,809.16 328.28,820.00 329.90,820.00 C330.30,820.00 331.56,818.73 332.71,817.17 ZM 348.18 810.01 C349.27,810.00 347.32,807.39 342.68,802.62 C334.16,793.86 329.30,786.15 327.00,777.69 C325.35,771.65 325.22,771.49 321.65,771.19 C317.30,770.82 317.22,771.25 319.99,780.22 C322.55,788.54 328.28,797.31 336.15,804.99 C340.86,809.59 342.94,810.98 344.47,810.57 C345.59,810.27 347.26,810.02 348.18,810.01 ZM 687.45 804.89 C695.49,797.38 701.42,788.52 704.02,780.14 C706.76,771.33 706.69,771.00 702.09,771.00 C698.29,771.00 698.16,771.12 697.49,775.06 C696.23,782.53 690.30,792.55 681.88,801.44 C674.03,809.74 673.96,809.87 676.71,810.28 C678.24,810.51 679.82,810.77 680.21,810.85 C680.61,810.93 683.86,808.25 687.45,804.89 ZM 669.60 806.17 C679.58,798.94 690.84,783.37 692.59,774.40 C693.15,771.49 692.97,771.26 689.85,770.73 C688.01,770.42 685.80,769.89 684.95,769.55 C683.75,769.08 683.11,770.05 682.16,773.74 C679.59,783.76 670.57,795.64 658.83,804.47 L 652.80 809.00 L 659.25 809.00 C664.74,809.00 666.28,808.58 669.60,806.17 ZM 418.47 803.45 C432.20,802.05 443.53,800.81 443.64,800.69 C443.76,800.58 440.80,797.91 437.07,794.77 C430.74,789.44 429.41,788.80 416.90,785.12 C406.72,782.13 403.22,781.46 402.32,782.34 C400.99,783.65 387.00,805.78 387.00,806.57 C387.00,806.86 388.46,806.85 390.25,806.55 C392.04,806.25 404.74,804.85 418.47,803.45 ZM 628.41 805.75 C624.62,799.07 613.64,782.00 613.14,782.01 C612.79,782.01 607.39,783.36 601.14,785.00 C590.82,787.71 589.27,788.44 584.04,792.97 C576.41,799.58 575.38,800.84 577.14,801.44 C579.12,802.12 619.72,806.76 624.81,806.89 C627.99,806.97 628.93,806.67 628.41,805.75 ZM 647.04 802.75 C660.22,793.94 671.68,779.73 673.49,769.95 L 674.15 766.40 L 648.57 772.84 C634.51,776.38 623.00,779.66 623.00,780.13 C623.00,781.45 639.12,807.00 639.95,807.00 C640.36,807.00 643.55,805.09 647.04,802.75 ZM 386.20 791.72 C391.40,783.48 393.51,779.32 392.70,778.88 C391.23,778.09 352.42,767.00 351.14,767.00 C349.85,767.00 351.62,774.51 354.13,779.73 C356.69,785.07 363.73,792.93 371.49,799.13 C374.80,801.77 377.73,803.93 378.00,803.92 C378.27,803.92 381.97,798.43 386.20,791.72 ZM 468.79 798.49 C468.94,798.37 464.67,797.25 459.29,796.00 C453.90,794.76 448.83,793.51 448.00,793.22 C447.17,792.93 448.30,794.30 450.50,796.26 C454.45,799.78 454.58,799.81 461.50,799.27 C465.35,798.97 468.63,798.62 468.79,798.49 ZM 569.00 795.79 C571.47,793.52 572.60,792.01 571.50,792.43 C570.40,792.85 565.11,794.16 559.75,795.35 C554.39,796.53 550.01,797.81 550.00,798.20 C550.00,798.58 552.36,799.06 555.25,799.26 C558.14,799.46 561.40,799.69 562.50,799.77 C563.60,799.85 566.53,798.06 569.00,795.79 ZM 535.70 791.47 C562.77,787.96 582.17,780.87 591.25,771.17 C593.82,768.42 596.21,765.01 596.57,763.58 C598.32,756.59 593.45,749.19 582.64,742.45 L 576.78 738.80 L 577.51 752.30 L 578.23 765.80 L 575.75 767.43 C572.82,769.35 568.52,768.23 567.61,765.31 C565.18,757.52 562.96,672.33 564.92,662.16 C565.72,658.04 565.66,657.86 563.63,658.49 C556.59,660.67 552.64,661.16 550.38,660.13 C549.07,659.53 548.00,658.56 548.00,657.98 C548.00,657.39 550.98,655.58 554.63,653.94 C558.28,652.30 563.35,649.22 565.90,647.09 C575.20,639.29 589.34,616.88 598.02,596.14 C601.15,588.64 606.01,577.96 608.79,572.40 C611.58,566.85 614.60,559.42 615.50,555.90 C616.40,552.38 618.06,546.42 619.19,542.66 C621.79,534.04 621.32,523.25 617.97,514.51 C615.17,507.19 611.53,503.38 606.46,502.43 C600.46,501.30 595.86,504.49 581.37,519.80 C559.49,542.91 551.41,552.30 552.97,552.82 C555.97,553.82 559.00,557.95 559.00,561.02 C559.00,564.70 557.71,567.45 554.13,571.40 L 551.50 574.30 L 555.87 571.90 C559.74,569.77 567.95,563.46 601.45,536.83 C606.37,532.91 611.10,529.66 611.95,529.61 C614.34,529.44 613.53,534.60 610.44,539.27 L 607.80 543.26 L 611.40 542.58 C614.28,542.04 615.00,542.22 615.00,543.47 C615.00,545.62 609.16,548.99 605.43,549.00 C602.71,549.00 594.00,554.32 594.00,555.98 C594.00,556.28 596.74,557.74 600.10,559.22 C610.27,563.72 605.49,566.95 594.41,563.05 C591.20,561.92 588.26,561.00 587.88,561.00 C587.50,561.00 583.73,563.94 579.51,567.53 C575.28,571.12 569.21,575.90 566.02,578.15 L 560.22 582.24 L 562.28 586.87 C564.65,592.21 566.08,598.83 565.00,599.50 C564.59,599.75 562.79,597.16 560.99,593.73 C556.04,584.32 555.60,583.95 551.19,585.54 C549.16,586.27 546.23,587.14 544.67,587.48 L 541.84 588.08 L 542.42 595.29 C542.75,599.26 543.12,621.85 543.25,645.50 L 543.50 688.50 L 540.55 693.82 C534.74,704.32 524.70,710.22 512.66,710.24 C499.34,710.25 488.62,704.04 483.31,693.22 C480.52,687.55 480.50,687.34 480.53,668.50 C480.55,658.05 481.19,621.38 481.94,587.00 C483.07,535.72 483.09,523.78 482.02,520.50 C480.33,515.27 476.17,507.00 475.23,507.00 C474.83,507.00 473.42,509.03 472.11,511.50 C469.23,516.93 461.23,524.63 459.87,523.27 C459.29,522.69 460.83,518.69 463.97,512.66 C467.91,505.08 469.01,501.96 469.03,498.24 C469.04,495.63 470.39,486.98 472.02,479.00 C473.65,471.02 474.99,463.04 474.99,461.25 C475.00,458.16 474.81,458.00 471.25,457.98 C463.68,457.95 463.08,454.97 470.27,453.16 C475.31,451.89 477.80,449.45 481.41,442.24 C485.72,433.62 488.29,421.04 488.40,408.00 C488.52,394.65 486.54,386.85 481.93,382.43 L 479.08 379.70 L 479.65 383.21 C480.38,387.73 476.81,401.94 473.55,407.51 C471.02,411.82 465.11,415.64 462.51,414.64 C461.64,414.31 459.73,416.51 457.16,420.81 C454.96,424.49 451.55,429.75 449.58,432.50 L 446.00 437.50 L 449.75 440.67 C452.57,443.06 453.22,444.13 452.36,445.01 C451.50,445.89 450.47,445.78 448.09,444.54 C442.31,441.56 440.86,445.54 446.50,448.87 C451.42,451.77 451.07,453.42 445.69,452.68 L 441.38 452.09 L 440.19 457.86 C438.49,466.08 438.49,466.07 442.08,464.82 C444.37,464.02 445.45,464.06 446.33,464.96 C447.58,466.26 447.02,466.82 440.00,471.33 C438.08,472.56 436.36,474.57 436.18,475.78 C435.78,478.56 435.82,478.56 442.36,475.35 C447.79,472.68 451.44,472.69 450.42,475.36 C450.11,476.15 447.16,478.23 443.86,479.99 C440.56,481.75 438.05,483.71 438.28,484.35 C441.24,492.38 442.11,496.29 441.15,497.25 C439.48,498.92 437.33,496.50 435.44,490.83 C434.48,487.92 433.41,486.19 432.89,486.71 C432.41,487.19 429.70,494.32 426.87,502.55 C419.89,522.90 419.91,524.14 428.41,566.50 C435.74,603.05 436.65,606.42 441.86,616.47 C447.37,627.08 455.60,635.26 465.66,640.13 C474.13,644.24 475.80,645.88 471.75,646.15 C466.02,646.52 461.99,645.61 455.76,642.54 L 449.01 639.22 L 449.76 643.36 C450.17,645.64 450.46,665.28 450.41,687.00 C450.31,727.13 448.41,761.49 446.05,765.91 C444.64,768.54 439.94,768.70 437.68,766.20 C436.24,764.61 436.17,763.03 437.08,752.58 C437.64,746.09 437.85,740.52 437.55,740.22 C437.25,739.92 434.45,741.42 431.34,743.57 C425.50,747.59 420.38,753.63 419.36,757.70 C415.69,772.30 441.75,786.77 480.10,791.41 C495.77,793.30 521.33,793.33 535.70,791.47 ZM 415.11 774.84 C414.00,773.55 412.45,771.63 411.68,770.58 C410.32,768.72 410.22,768.74 408.50,771.36 C407.53,772.85 407.05,774.39 407.43,774.78 C408.19,775.55 416.29,777.84 416.82,777.43 C417.00,777.30 416.23,776.13 415.11,774.84 ZM 605.38 776.82 C607.65,776.17 609.63,775.56 609.78,775.46 C610.22,775.17 606.57,769.01 606.00,769.07 C604.88,769.19 599.11,778.00 600.15,778.00 C600.76,778.00 603.12,777.47 605.38,776.82 ZM 403.32 764.70 L 405.15 761.32 L 401.95 756.58 C400.19,753.97 398.24,751.65 397.63,751.41 C397.01,751.18 388.62,753.63 379.00,756.87 C363.51,762.08 361.84,762.85 364.50,763.55 C366.15,763.98 374.25,766.25 382.50,768.58 L 397.50 772.81 L 399.50 770.45 C400.60,769.15 402.32,766.57 403.32,764.70 ZM 639.69 768.00 C650.32,765.25 659.30,763.00 659.67,763.00 C661.81,763.00 657.47,761.48 641.45,756.62 C631.58,753.63 622.74,751.03 621.81,750.84 C620.18,750.51 612.00,760.10 612.00,762.34 C612.00,764.02 618.15,773.00 619.30,773.00 C619.89,773.00 629.07,770.75 639.69,768.00 ZM 334.85 764.90 C338.73,763.55 338.87,762.28 335.25,761.28 C329.10,759.59 316.00,760.79 316.00,763.05 C316.00,765.76 328.80,767.01 334.85,764.90 ZM 705.50 764.63 L 708.50 763.35 L 706.16 762.09 C702.46,760.10 694.00,759.71 689.00,761.30 L 684.50 762.73 L 688.00 764.33 C692.21,766.24 701.35,766.40 705.50,764.63 ZM 380.66 749.01 L 393.82 744.67 L 386.89 734.33 C383.08,728.65 379.68,724.00 379.35,724.00 C377.77,724.00 365.91,733.38 361.21,738.36 C355.85,744.04 351.03,752.70 351.01,756.69 L 351.00 758.87 L 359.25 756.11 C363.79,754.59 373.42,751.40 380.66,749.01 ZM 673.50 756.75 C671.43,749.46 666.56,741.82 660.08,735.71 C652.79,728.84 641.21,721.34 639.98,722.70 C638.29,724.56 625.84,742.26 625.39,743.42 C625.05,744.32 631.76,746.77 648.20,751.75 C661.02,755.62 672.09,758.84 672.82,758.90 C673.72,758.97 673.93,758.29 673.50,756.75 ZM 342.52 752.29 C345.35,742.71 355.17,730.81 365.90,723.95 L 371.29 720.50 L 368.21 720.19 C364.34,719.80 361.25,721.40 352.24,728.45 C344.74,734.31 337.83,742.46 334.06,749.87 C331.70,754.51 332.01,755.56 336.00,756.29 C340.41,757.10 341.26,756.58 342.52,752.29 ZM 687.83 755.98 C692.03,755.95 692.36,754.44 689.37,748.89 C683.01,737.09 665.12,721.53 656.55,720.35 C654.05,720.01 652.00,719.97 652.00,720.27 C652.00,720.57 654.01,721.99 656.47,723.43 C662.21,726.79 672.33,736.16 676.02,741.54 C678.57,745.23 680.39,749.17 682.41,755.35 C682.80,756.53 683.59,756.99 684.59,756.60 C685.46,756.27 686.91,755.99 687.83,755.98 ZM 329.69 748.10 C333.31,740.46 343.58,728.74 351.43,723.29 C354.22,721.35 355.66,720.05 354.64,720.39 C346.29,723.21 328.18,739.77 323.64,748.73 C320.34,755.23 320.35,755.75 323.75,755.24 C326.02,754.90 327.05,753.66 329.69,748.10 ZM 700.33 748.78 C696.55,741.76 685.20,730.36 676.18,724.53 C672.15,721.94 668.65,720.01 668.41,720.26 C668.16,720.51 669.83,721.94 672.11,723.46 C681.66,729.77 691.82,741.66 695.23,750.50 C696.42,753.59 697.42,754.62 699.64,755.03 C701.21,755.33 702.65,755.22 702.83,754.81 C703.00,754.39 701.88,751.68 700.33,748.78 ZM 612.00 747.98 C612.00,747.65 609.64,746.78 606.75,746.05 C603.86,745.31 600.92,744.50 600.21,744.23 C599.50,743.97 600.62,746.27 602.71,749.35 L 606.50 754.95 L 609.25 751.76 C610.76,750.01 612.00,748.31 612.00,747.98 ZM 413.80 748.36 C416.88,744.13 416.95,743.88 414.80,744.54 C406.15,747.18 405.39,748.02 408.28,751.75 C409.71,753.60 410.19,753.31 413.80,748.36 ZM 418.00 736.54 C440.61,728.87 444.25,725.72 431.75,724.66 C414.71,723.21 389.84,721.83 389.36,722.31 C388.93,722.74 397.81,736.53 401.27,740.80 C401.85,741.51 403.04,741.80 403.91,741.44 C404.78,741.08 411.12,738.87 418.00,736.54 ZM 623.66 731.71 C627.60,726.09 630.75,721.47 630.66,721.44 C630.57,721.40 618.22,722.28 603.21,723.39 C572.35,725.66 571.08,726.18 583.51,731.38 C590.18,734.17 613.40,741.79 615.50,741.88 C616.05,741.90 619.72,737.33 623.66,731.71 ZM 439.47 711.43 C439.87,707.26 439.91,703.57 439.57,703.23 C438.34,702.00 398.52,713.15 396.32,715.34 C396.06,715.60 399.15,716.08 403.18,716.41 C412.98,717.20 432.86,718.68 436.13,718.86 C438.70,719.00 438.78,718.81 439.47,711.43 ZM 607.78 716.88 C617.83,716.21 625.70,715.34 625.28,714.95 C623.08,712.96 590.80,704.14 579.57,702.46 L 575.00 701.77 L 575.00 710.53 L 575.00 719.29 L 582.25 718.70 C586.24,718.38 597.72,717.56 607.78,716.88 ZM 374.85 712.55 L 377.50 711.14 L 373.78 709.57 C369.13,707.61 362.01,707.55 357.47,709.45 C353.29,711.19 353.02,712.75 356.75,713.57 C358.26,713.90 359.95,714.35 360.50,714.56 C362.43,715.32 372.23,713.94 374.85,712.55 ZM 668.36 712.81 C670.42,711.69 670.38,711.60 667.00,710.18 C661.48,707.85 654.03,707.54 649.47,709.46 C645.82,710.99 645.66,711.21 647.47,712.23 C652.50,715.07 663.57,715.37 668.36,712.81 ZM 399.00 707.47 C405.33,705.11 416.58,701.73 424.00,699.97 C431.42,698.20 438.06,696.60 438.75,696.41 C439.44,696.22 440.00,695.42 440.00,694.64 C440.00,692.39 413.72,698.17 392.40,705.11 C383.76,707.91 383.32,708.20 383.77,710.59 C384.13,712.45 384.68,712.94 385.88,712.44 C386.77,712.07 392.67,709.84 399.00,707.47 ZM 639.24 710.53 C639.68,708.22 639.16,707.89 630.60,705.08 C619.16,701.32 609.10,698.82 592.24,695.56 C577.10,692.63 575.00,692.48 575.00,694.33 C575.00,695.22 578.30,696.23 585.25,697.44 C597.81,699.64 616.31,704.66 629.00,709.33 C634.22,711.25 638.56,712.86 638.63,712.91 C638.71,712.96 638.98,711.89 639.24,710.53 ZM 410.00 695.10 C418.52,692.96 428.76,690.68 432.75,690.02 C438.55,689.06 440.00,688.47 440.00,687.06 C440.00,685.48 439.41,685.39 434.25,686.20 C416.69,688.94 372.00,700.66 372.00,702.52 C372.00,702.75 373.46,703.32 375.25,703.79 C377.79,704.45 380.25,704.02 386.50,701.81 C390.90,700.25 401.48,697.23 410.00,695.10 ZM 649.81 703.33 C652.35,702.69 652.32,702.64 648.46,701.27 C633.15,695.85 606.29,689.40 586.97,686.50 C574.66,684.65 574.00,684.65 574.00,686.48 C574.00,688.17 573.90,688.14 591.66,691.01 C606.25,693.36 631.76,699.67 639.50,702.85 C642.25,703.97 645.10,704.69 645.84,704.44 C646.58,704.19 648.37,703.70 649.81,703.33 ZM 523.81 696.27 C526.24,694.75 529.28,691.70 530.57,689.50 L 532.91 685.50 L 512.47 685.50 C492.48,685.50 492.04,685.54 492.66,687.50 C494.18,692.32 500.35,697.58 506.24,699.08 C511.70,700.46 518.99,699.30 523.81,696.27 ZM 518.50 675.44 C520.65,674.86 520.62,679.74 519.13,577.44 L 519.00 568.38 L 515.04 566.64 C512.87,565.68 509.93,563.51 508.50,561.82 C507.08,560.13 505.76,558.92 505.58,559.12 C505.39,559.33 504.91,585.45 504.51,617.17 L 503.78 674.83 L 506.14 675.28 C509.71,675.96 516.25,676.04 518.50,675.44 ZM 499.65 588.00 C500.12,547.03 500.38,511.02 500.24,508.00 C499.70,496.72 499.85,483.76 500.81,457.00 C501.36,441.88 502.05,406.21 502.36,377.75 L 502.91 326.00 L 500.61 326.00 C498.35,326.00 498.30,326.26 497.66,339.66 C496.64,360.79 496.88,387.05 498.13,391.50 C499.85,397.59 499.59,416.27 497.66,426.50 C496.26,433.90 495.70,448.55 494.50,509.00 C493.70,549.42 492.57,602.71 491.98,627.41 C491.39,652.10 491.27,672.65 491.71,673.07 C492.14,673.49 493.62,673.98 495.00,674.17 C497.37,674.48 497.53,674.18 498.15,668.50 C498.50,665.20 499.18,628.97 499.65,588.00 ZM 532.32 673.26 C533.16,672.79 532.31,593.96 531.41,588.50 C531.14,586.85 529.29,583.70 527.31,581.50 C525.32,579.30 523.97,578.28 524.31,579.23 C524.65,580.19 525.05,595.04 525.20,612.23 C525.35,629.43 525.61,650.59 525.78,659.26 L 526.10 675.01 L 528.80 674.37 C530.28,674.01 531.87,673.51 532.32,673.26 ZM 541.80 575.59 C548.16,572.25 554.64,563.07 552.91,559.83 C551.36,556.93 547.59,557.68 542.18,561.95 C534.18,568.28 532.28,572.14 535.57,575.43 C537.50,577.36 538.37,577.38 541.80,575.59 ZM 529.40 551.90 C534.63,546.08 537.99,539.67 537.26,536.89 C536.97,535.78 535.69,534.19 534.41,533.35 C532.27,531.95 531.75,532.01 527.95,534.15 C522.80,537.04 515.00,547.16 515.00,550.94 C515.00,554.98 519.30,558.24 523.27,557.22 C524.24,556.96 527.00,554.57 529.40,551.90 ZM 551.58 536.25 C559.20,527.59 573.55,512.27 583.47,502.21 C593.39,492.14 602.11,482.47 602.85,480.71 C604.90,475.87 603.90,467.86 600.73,463.71 C595.37,456.69 584.91,454.94 579.34,460.13 C577.94,461.44 565.48,476.43 551.65,493.45 C520.80,531.41 518.80,534.17 525.98,528.86 C532.43,524.09 543.00,529.49 543.00,537.56 C543.00,541.04 539.98,548.28 538.01,549.49 C537.06,550.08 536.57,552.00 537.37,552.00 C537.57,552.00 543.96,544.91 551.58,536.25 ZM 515.18 522.29 C519.59,516.28 519.86,515.01 516.75,514.98 C515.51,514.97 512.59,514.09 510.25,513.03 L 506.00 511.10 L 506.01 523.80 L 506.02 536.50 L 508.69 532.00 C510.16,529.53 513.08,525.16 515.18,522.29 ZM 524.42 500.74 C526.66,498.40 529.81,493.99 531.41,490.94 C534.76,484.53 534.48,481.02 530.42,478.36 C528.07,476.82 527.62,476.81 524.50,478.30 C520.91,480.01 513.80,488.28 511.15,493.82 C509.73,496.78 509.73,497.42 511.06,499.80 C512.58,502.50 516.31,504.96 518.92,504.99 C519.70,504.99 522.18,503.08 524.42,500.74 ZM 484.24 483.83 C484.38,477.96 484.28,473.38 484.02,473.65 C483.75,473.92 483.03,476.47 482.43,479.32 C481.82,482.17 480.73,487.21 480.01,490.53 C478.74,496.32 478.79,496.70 481.10,500.24 L 483.50 503.92 L 483.74 499.21 C483.87,496.62 484.09,489.70 484.24,483.83 ZM 549.18 479.34 C569.60,455.05 585.00,435.72 587.06,431.79 C589.37,427.37 589.59,420.05 587.54,416.07 C585.50,412.14 580.64,408.27 575.99,406.88 C570.84,405.34 564.79,407.54 559.84,412.76 C552.62,420.36 511.16,480.50 512.33,481.67 C512.61,481.94 513.35,481.22 513.97,480.05 C514.59,478.89 516.95,476.60 519.20,474.97 C530.88,466.51 544.18,478.09 537.54,490.93 C536.66,492.62 536.15,494.00 536.40,494.00 C536.65,494.00 542.40,487.40 549.18,479.34 ZM 512.49 460.48 L 518.04 451.95 L 517.49 407.23 C517.19,382.63 516.68,354.29 516.36,344.25 L 515.78 326.00 L 511.89 326.00 L 508.00 326.00 L 507.87 353.25 C507.80,368.24 507.46,400.41 507.12,424.75 C506.78,449.09 506.60,469.00 506.72,469.00 C506.83,469.00 509.43,465.16 512.49,460.48 ZM 526.58 439.94 C528.41,437.49 528.47,435.94 527.87,406.94 C527.53,390.20 527.19,365.14 527.12,351.25 L 527.00 326.00 L 524.25 326.00 L 521.50 326.00 L 522.12 366.25 C522.46,388.39 522.80,415.03 522.87,425.45 C522.94,435.87 523.37,443.97 523.83,443.45 C524.28,442.93 525.52,441.35 526.58,439.94 ZM 572.01 348.14 C574.26,340.96 574.52,336.24 572.87,332.61 C571.46,329.52 567.18,327.67 563.55,328.58 C558.88,329.75 548.92,340.05 543.24,349.57 C538.88,356.89 538.00,359.17 538.00,363.13 C538.00,367.34 538.38,368.18 541.25,370.33 C543.04,371.68 546.41,373.73 548.75,374.91 C551.09,376.08 553.00,377.48 553.00,378.02 C553.00,379.78 545.58,379.04 542.14,376.94 C540.29,375.81 538.61,375.05 538.42,375.25 C538.22,375.44 538.35,384.69 538.69,395.79 L 539.31 415.98 L 554.67 385.24 C563.11,368.33 570.92,351.64 572.01,348.14 ZM 467.40 406.11 C471.46,401.62 474.80,388.01 473.50,381.26 C472.79,377.59 472.75,377.56 471.77,380.00 C471.22,381.38 469.10,388.24 467.05,395.25 C463.38,407.88 463.46,410.47 467.40,406.11 ZM 532.80 313.80 C533.46,313.14 534.00,310.21 534.00,307.30 L 534.00 302.00 L 512.00 302.00 L 490.00 302.00 L 490.00 307.45 C490.00,311.59 490.42,313.15 491.75,313.92 C494.35,315.44 531.27,315.33 532.80,313.80 ZM 554.47 287.31 C555.52,281.71 560.59,272.41 564.99,268.01 C570.76,262.24 576.29,259.76 584.62,259.22 C594.20,258.59 600.44,260.73 607.26,266.96 L 612.50 271.74 L 612.50 232.37 C612.50,210.72 612.36,193.00 612.19,193.00 C612.01,193.00 610.75,194.34 609.37,195.97 C608.00,197.60 603.92,200.39 600.30,202.17 C594.86,204.85 592.56,205.41 587.00,205.41 C572.65,205.41 560.29,195.46 555.76,180.25 L 553.60 173.00 L 511.93 173.00 L 470.26 173.00 L 469.65 176.80 C468.10,186.48 459.32,198.25 450.53,202.42 C438.75,208.01 424.57,205.41 415.08,195.93 L 412.00 192.85 L 412.00 232.05 L 412.00 271.25 L 416.39 267.21 C423.72,260.45 426.27,259.50 437.00,259.50 C445.66,259.50 446.97,259.76 451.86,262.47 C460.63,267.33 467.74,277.28 469.54,287.25 L 470.22 291.00 L 512.00 291.00 L 553.78 291.00 L 554.47 287.31 ZM 401.00 232.09 L 401.00 176.19 L 398.75 176.69 C392.84,178.01 389.31,179.42 387.25,181.30 L 385.00 183.35 L 385.00 231.95 C385.00,286.77 384.59,283.89 392.79,286.41 C401.90,289.21 401.00,295.18 401.00,232.09 ZM 630.78 286.47 C639.47,283.89 639.00,287.02 639.00,232.21 C639.00,201.14 638.63,183.18 637.98,181.96 C637.37,180.83 634.61,179.36 631.23,178.39 C628.08,177.47 624.94,176.52 624.25,176.26 C623.26,175.88 623.00,187.42 623.00,231.89 C623.00,277.67 623.24,288.00 624.32,288.00 C625.04,288.00 627.95,287.31 630.78,286.47 ZM 456.44 274.75 C446.62,263.07 431.19,261.77 420.75,271.75 C416.75,275.57 417.36,276.18 422.75,273.73 C426.46,272.05 429.47,271.57 436.50,271.54 C444.65,271.50 446.07,271.79 451.50,274.60 C459.28,278.62 459.71,278.64 456.44,274.75 ZM 587.46 271.50 C594.66,271.50 597.47,271.95 601.25,273.69 C606.63,276.18 607.26,275.57 603.25,271.75 C597.20,265.96 588.09,263.74 579.83,266.03 C576.46,266.97 566.00,275.21 566.00,276.92 C566.00,277.33 568.80,276.27 572.21,274.58 C577.77,271.83 579.38,271.50 587.46,271.50 ZM 446.98 196.92 C451.96,194.67 454.28,192.81 457.13,188.81 L 459.05 186.12 L 452.97 189.25 C447.86,191.89 445.50,192.46 438.13,192.81 C430.46,193.17 428.57,192.91 423.05,190.67 L 416.73 188.12 L 420.05 191.55 C427.26,198.99 437.79,201.09 446.98,196.92 ZM 596.50 197.10 C600.77,195.13 608.25,188.00 604.50,189.48 C595.99,192.84 594.09,193.17 585.80,192.79 C578.51,192.45 576.14,191.89 571.09,189.29 L 565.08 186.18 L 567.22 189.08 C569.54,192.22 575.01,196.31 579.00,197.89 C583.15,199.53 592.14,199.12 596.50,197.10 ZM 534.00 158.57 C534.00,152.30 533.02,152.00 512.36,152.00 C501.53,152.00 493.07,152.43 491.93,153.04 C490.52,153.79 490.00,155.14 490.00,158.04 L 490.00 162.00 L 512.00 162.00 L 534.00 162.00 L 534.00 158.57 ZM 699.65 679.17 C696.18,675.33 699.07,668.00 704.05,668.00 C706.60,668.00 711.00,672.28 711.00,674.77 C711.00,679.87 703.07,682.95 699.65,679.17 ZM 318.57 671.43 C315.55,668.41 317.29,664.00 321.50,664.00 C325.71,664.00 327.45,668.41 324.43,671.43 C323.56,672.29 322.25,673.00 321.50,673.00 C320.75,673.00 319.44,672.29 318.57,671.43 ZM 643.05 654.75 C641.14,644.84 640.46,644.22 628.75,641.58 C624.31,640.58 625.56,639.19 632.04,637.91 C639.44,636.46 641.38,634.30 642.87,625.86 C643.46,622.48 644.21,619.46 644.53,619.14 C645.55,618.12 646.76,621.11 647.45,626.38 C648.55,634.80 650.14,636.18 661.32,638.49 C665.46,639.35 664.07,641.32 658.42,642.63 C649.81,644.62 648.84,645.61 647.47,653.66 C645.88,663.08 644.72,663.37 643.05,654.75 ZM 647.69 643.15 L 650.54 640.31 L 647.76 637.76 L 644.98 635.21 L 641.97 638.03 C639.16,640.66 639.08,640.89 640.92,641.48 C642.01,641.82 643.18,642.98 643.52,644.05 C644.31,646.54 644.31,646.54 647.69,643.15 ZM 388.20 643.80 C387.54,643.14 387.00,641.35 387.00,639.82 C387.00,634.69 395.07,634.77 395.83,639.91 C396.45,644.14 391.21,646.81 388.20,643.80 ZM 342.75 621.40 C342.44,620.91 341.43,616.36 340.50,611.29 C339.21,604.29 338.22,601.49 336.37,599.64 C333.84,597.12 333.38,596.95 323.75,595.01 C319.97,594.25 318.00,593.37 318.00,592.43 C318.00,591.64 318.20,591.00 318.43,591.00 C318.67,591.00 322.15,590.31 326.15,589.47 C336.93,587.20 338.64,585.05 341.07,570.70 C341.97,565.37 342.57,563.96 343.82,564.20 C344.98,564.43 345.74,566.57 346.61,572.01 C348.73,585.41 350.16,587.09 361.50,589.46 C365.23,590.25 368.72,591.32 369.25,591.85 C370.54,593.14 367.69,594.58 362.00,595.50 C351.29,597.23 348.87,599.85 346.88,611.91 C345.73,618.88 343.85,623.19 342.75,621.40 ZM 347.50 588.52 L 343.50 584.41 L 341.80 587.14 C340.87,588.64 339.17,590.37 338.03,590.98 C336.02,592.06 336.06,592.19 339.48,595.41 C341.42,597.24 343.00,599.24 343.00,599.84 C343.00,600.45 344.91,599.08 347.25,596.79 L 351.50 592.63 L 347.50 588.52 ZM 687.60 612.83 C687.39,612.10 686.50,607.67 685.65,603.00 C683.65,592.12 681.54,589.95 671.21,588.11 C664.57,586.92 661.99,585.68 663.34,584.33 C663.63,584.03 667.12,583.17 671.08,582.42 C675.04,581.66 679.32,580.36 680.60,579.53 C683.08,577.90 685.51,571.19 686.61,562.90 C687.21,558.33 689.24,554.92 690.29,556.70 C690.55,557.14 691.32,560.88 692.00,565.00 C694.28,578.83 695.51,579.95 712.25,583.46 C717.49,584.56 715.28,586.60 706.88,588.40 C697.01,590.53 694.58,592.70 693.01,600.84 C690.87,611.89 690.45,613.35 689.23,613.76 C688.55,613.98 687.82,613.57 687.60,612.83 ZM 695.01 586.70 C697.19,585.18 697.19,585.17 695.15,584.08 C694.02,583.48 692.31,581.64 691.34,579.99 C689.48,576.85 688.00,576.10 688.00,578.31 C688.00,579.04 686.69,580.89 685.08,582.42 L 682.16 585.22 L 685.58 588.65 C687.46,590.53 689.00,592.61 689.00,593.28 C689.01,593.95 689.87,593.09 690.92,591.37 C691.97,589.64 693.81,587.55 695.01,586.70 ZM 754.20 531.80 C753.54,531.14 753.00,529.66 753.00,528.50 C753.00,524.11 758.96,522.19 760.96,525.93 C762.37,528.56 762.27,529.59 760.43,531.43 C758.56,533.30 755.86,533.46 754.20,531.80 ZM 269.81 519.75 C266.57,517.18 267.09,513.09 270.92,511.04 C272.34,510.28 273.41,510.53 275.39,512.09 C278.52,514.55 278.68,516.32 276.00,519.00 C273.69,521.31 272.03,521.51 269.81,519.75 ZM 364.47 513.04 C359.03,510.86 357.93,504.17 362.39,500.34 C365.89,497.33 369.46,497.37 372.55,500.45 C375.60,503.51 375.68,507.14 372.75,510.36 C370.11,513.27 367.30,514.18 364.47,513.04 ZM 369.89 507.63 C371.26,505.98 370.44,503.38 368.30,502.56 C365.43,501.46 362.48,506.15 364.67,508.33 C365.80,509.46 368.70,509.07 369.89,507.63 ZM 675.75 490.92 C671.02,488.17 676.10,479.38 680.92,481.96 C683.87,483.54 684.65,487.62 682.46,490.04 C680.51,492.20 678.42,492.47 675.75,490.92 ZM 736.61 476.25 C736.31,474.74 735.77,471.70 735.40,469.50 C733.63,458.91 731.52,456.83 720.24,454.57 C713.27,453.17 712.48,451.45 718.19,450.07 C731.70,446.79 733.25,445.32 735.46,433.60 C736.29,429.26 737.20,425.47 737.50,425.17 C738.66,424.01 740.04,426.87 741.05,432.55 C742.87,442.80 743.85,444.88 747.86,446.93 C749.89,447.96 753.60,449.12 756.11,449.49 C765.04,450.83 765.20,453.25 756.46,454.91 C745.30,457.03 743.80,458.61 741.35,470.83 C739.67,479.23 737.66,481.53 736.61,476.25 ZM 741.61 448.65 L 738.50 445.30 L 735.49 448.75 L 732.48 452.21 L 735.48 455.42 L 738.48 458.63 L 741.60 455.32 L 744.73 452.01 L 741.61 448.65 ZM 320.46 470.31 C318.19,456.99 315.90,447.51 314.30,444.72 C311.86,440.48 307.13,438.28 295.81,436.12 C288.07,434.64 286.50,434.03 286.50,432.50 C286.50,430.97 288.07,430.36 295.81,428.88 C300.94,427.90 306.79,426.29 308.81,425.30 C313.38,423.07 316.32,417.60 317.95,408.28 C320.67,392.80 321.15,391.00 322.55,391.00 C324.13,391.00 324.31,391.64 326.50,404.92 C329.45,422.77 332.25,425.69 349.38,428.86 C357.20,430.31 358.50,430.83 358.50,432.51 C358.50,434.15 357.36,434.68 351.50,435.74 C331.45,439.37 328.43,443.03 325.27,467.49 C324.69,471.92 324.05,473.56 322.80,473.80 C321.54,474.04 320.95,473.17 320.46,470.31 ZM 324.82 443.75 C326.86,439.21 329.82,436.10 334.23,433.86 L 336.95 432.47 L 332.54 430.13 C329.27,428.40 327.44,426.46 325.41,422.59 L 322.68 417.38 L 320.06 422.44 C318.08,426.26 316.29,428.11 312.78,429.97 L 308.13 432.45 L 312.80 434.97 C316.46,436.95 318.02,438.64 319.99,442.74 C321.37,445.61 322.59,447.98 322.70,447.99 C322.81,447.99 323.77,446.09 324.82,443.75 ZM 242.05 416.56 C240.35,414.51 241.49,410.30 243.96,409.51 C247.38,408.43 250.16,410.71 249.81,414.32 C249.54,417.06 249.07,417.54 246.41,417.80 C244.55,417.98 242.83,417.50 242.05,416.56 ZM 673.54 407.75 C673.32,407.06 672.44,402.23 671.58,397.00 C667.98,375.06 666.47,373.62 642.75,369.55 C640.02,369.08 639.00,368.41 639.00,367.08 C639.00,365.64 640.30,365.01 645.25,364.07 C657.81,361.68 662.97,359.83 665.52,356.79 C668.38,353.39 670.33,346.91 672.08,335.00 C674.19,320.63 676.17,321.44 678.92,337.80 C679.95,343.93 681.77,350.96 682.96,353.42 C685.67,359.02 690.07,361.28 702.75,363.58 C710.35,364.96 712.00,365.57 712.00,367.05 C712.00,368.92 711.97,368.93 700.00,371.11 C692.88,372.41 687.42,374.76 684.84,377.64 C682.62,380.12 680.34,387.58 678.52,398.33 C677.69,403.19 676.76,407.58 676.45,408.08 C675.64,409.40 674.01,409.21 673.54,407.75 ZM 682.54 371.15 C684.07,369.94 686.38,368.69 687.66,368.37 C688.95,368.05 690.00,367.43 690.00,367.00 C690.00,366.57 688.95,365.95 687.66,365.63 C683.72,364.64 679.86,360.90 677.48,355.75 L 675.20 350.85 L 674.00 354.49 C672.47,359.13 666.93,364.70 662.74,365.80 L 659.50 366.65 L 664.09 368.70 C668.86,370.83 672.30,374.69 674.15,380.00 L 675.23 383.10 L 677.49 378.22 C678.73,375.54 681.00,372.36 682.54,371.15 ZM 774.98 387.96 C772.68,383.67 776.67,379.68 780.96,381.98 C783.21,383.19 783.67,386.93 781.80,388.80 C779.93,390.67 776.19,390.21 774.98,387.96 ZM 411.01 366.52 C410.45,365.06 410.00,363.46 410.00,362.96 C410.00,362.46 408.65,361.35 407.00,360.50 C403.39,358.64 403.18,356.77 406.35,354.69 C407.64,353.85 409.27,351.77 409.97,350.08 C411.61,346.11 414.47,346.07 416.50,349.99 C417.35,351.64 419.16,353.71 420.52,354.61 C423.72,356.70 423.66,358.59 420.34,360.33 C418.88,361.10 416.97,363.22 416.09,365.04 C414.04,369.32 412.27,369.83 411.01,366.52 ZM 415.78 358.82 C417.12,357.48 415.64,355.00 413.50,355.00 C411.36,355.00 409.88,357.48 411.22,358.82 C411.87,359.47 412.89,360.00 413.50,360.00 C414.11,360.00 415.13,359.47 415.78,358.82 ZM 286.25 351.74 C285.71,351.06 284.97,348.48 284.60,346.00 C282.70,333.43 280.68,330.67 272.11,328.97 C263.88,327.34 263.00,327.01 263.00,325.48 C263.00,324.66 264.53,323.83 266.75,323.45 C280.89,321.04 282.66,319.13 284.58,304.25 C285.09,300.29 285.67,299.00 286.92,299.00 C288.22,299.00 288.94,300.90 290.21,307.59 C292.27,318.51 293.89,320.36 303.31,322.50 C307.19,323.38 310.75,324.35 311.23,324.64 C313.02,325.75 309.67,327.93 305.17,328.57 C294.29,330.14 292.20,332.45 289.96,345.33 C288.74,352.32 287.88,353.81 286.25,351.74 ZM 292.46 324.33 C291.34,323.68 289.82,322.03 289.08,320.65 L 287.74 318.15 L 284.12 321.82 L 280.50 325.50 L 284.00 329.00 L 287.50 332.50 L 291.00 329.00 C294.39,325.61 294.44,325.46 292.46,324.33 ZM 351.98 344.96 C350.47,342.14 351.66,339.12 354.58,338.39 C357.56,337.64 360.00,339.46 360.00,342.42 C360.00,346.96 354.05,348.84 351.98,344.96 ZM 736.63 327.35 C734.94,315.02 733.74,313.50 724.07,311.54 C716.52,310.02 716.54,308.39 724.16,306.89 C732.68,305.21 734.50,303.19 736.11,293.62 C737.85,283.26 739.59,284.15 741.53,296.40 C742.37,301.68 746.41,305.56 752.05,306.49 C757.20,307.35 760.27,308.75 759.55,309.92 C759.28,310.36 756.23,311.28 752.77,311.95 C749.32,312.63 745.72,313.88 744.77,314.73 C743.81,315.59 742.29,319.77 741.35,324.14 C739.43,333.05 737.59,334.31 736.63,327.35 ZM 741.44 305.50 C738.34,302.22 738.09,302.13 737.48,304.06 C737.12,305.19 735.74,306.62 734.41,307.22 C731.46,308.57 731.34,309.66 734.06,310.52 C735.19,310.88 736.60,312.23 737.19,313.52 L 738.26 315.87 L 741.50 312.43 L 744.74 309.00 L 741.44 305.50 ZM 689.50 244.81 C686.63,243.18 686.03,241.97 686.02,237.81 C686.00,233.43 688.72,231.00 693.65,231.00 C695.92,231.00 697.46,231.77 698.93,233.63 C701.68,237.13 701.55,240.55 698.55,243.55 C695.91,246.18 692.71,246.63 689.50,244.81 ZM 695.80 238.12 C695.59,236.32 694.83,235.40 693.34,235.19 C690.40,234.77 689.01,238.80 691.47,240.61 C694.00,242.45 696.16,241.21 695.80,238.12 ZM 327.20 238.80 C326.54,238.14 326.00,236.43 326.00,235.00 C326.00,231.86 327.67,230.00 330.50,230.00 C333.33,230.00 335.00,231.86 335.00,235.00 C335.00,238.14 333.33,240.00 330.50,240.00 C329.35,240.00 327.86,239.46 327.20,238.80 ZM 407.20 796.80 C404.12,793.72 408.01,790.40 413.51,791.44 C417.13,792.11 418.67,794.48 416.89,796.63 C415.49,798.32 408.84,798.44 407.20,796.80 ZM 640.44 787.56 C638.89,786.40 638.72,785.76 639.61,784.31 C641.10,781.87 648.82,781.77 650.33,784.17 C652.82,788.11 644.85,790.84 640.44,787.56 ZM 510.20 774.80 C509.40,774.00 509.00,769.53 509.00,761.29 L 509.00 748.97 L 502.19 740.24 C493.35,728.91 491.69,726.31 492.47,725.04 C494.40,721.92 499.76,726.29 507.20,737.04 C508.85,739.44 508.90,739.26 508.95,730.37 C508.99,723.53 509.38,720.93 510.50,720.00 C513.51,717.50 514.90,720.48 515.21,730.08 L 515.50 738.97 L 521.33 731.43 C525.83,725.60 527.66,723.95 529.32,724.19 C530.51,724.36 531.59,725.17 531.73,726.00 C531.87,726.83 528.17,732.39 523.49,738.36 L 515.00 749.22 L 515.00 761.41 C515.00,772.73 514.33,776.00 512.00,776.00 C511.67,776.00 510.86,775.46 510.20,774.80 ZM 450.23 592.75 C448.87,591.07 442.59,553.51 443.34,551.55 C443.67,550.70 444.70,550.00 445.63,550.00 C447.93,550.00 464.13,559.17 464.76,560.83 C465.05,561.56 462.99,564.49 460.19,567.33 L 455.10 572.50 L 463.55 577.82 C468.20,580.75 472.00,583.80 472.00,584.60 C472.00,587.70 468.76,587.00 460.79,582.17 C456.24,579.41 452.46,577.23 452.39,577.33 C452.32,577.42 452.72,580.49 453.28,584.14 C454.58,592.64 453.23,596.45 450.23,592.75 ZM 457.97 562.05 C457.96,561.75 455.88,560.46 453.35,559.18 L 448.75 556.86 L 449.46 561.56 C450.62,569.32 450.86,569.52 454.63,565.87 C456.48,564.08 457.99,562.36 457.97,562.05 ZM 572.47 543.67 C568.57,539.77 568.09,538.00 570.91,538.00 C572.74,538.00 578.00,543.21 578.00,545.02 C578.00,547.38 575.59,546.79 572.47,543.67 ZM 442.22 534.75 C444.12,531.84 454.36,525.59 454.85,527.05 C455.37,528.62 451.11,532.88 446.79,535.10 C441.75,537.68 440.38,537.58 442.22,534.75 ZM 584.51 533.11 C581.81,532.70 580.41,531.93 580.19,530.75 C579.90,529.24 580.68,529.00 585.79,529.00 L 591.73 529.00 L 590.19 523.47 C589.19,519.86 589.00,517.60 589.64,516.96 C590.82,515.78 602.13,515.34 603.86,516.42 C606.26,517.90 602.98,520.00 598.27,520.00 C594.78,520.00 593.91,520.32 594.34,521.44 C595.87,525.43 597.07,531.37 596.60,532.60 C596.04,534.07 591.92,534.24 584.51,533.11 ZM 604.18 732.94 C601.11,731.71 601.71,728.93 605.30,727.73 C608.55,726.65 614.00,728.44 614.00,730.59 C614.00,733.47 608.67,734.74 604.18,732.94 ZM 554.00 513.23 C547.75,508.08 547.19,507.25 549.44,506.38 C551.55,505.58 558.09,509.94 559.93,513.37 C562.44,518.06 559.81,518.00 554.00,513.23 ZM 561.18 496.07 C561.68,493.07 581.04,470.86 582.86,471.21 C584.66,471.56 588.23,482.20 587.79,485.92 C587.28,490.20 585.20,489.33 583.33,484.06 C580.34,475.65 578.06,478.80 580.49,487.98 C581.35,491.24 581.57,493.83 581.04,494.36 C579.39,496.01 577.26,494.21 576.58,490.58 C576.21,488.61 575.51,487.00 575.02,487.00 C574.53,487.00 571.96,489.47 569.31,492.49 C564.42,498.06 560.57,499.76 561.18,496.07 ZM 548.50 456.36 C542.89,452.09 540.53,449.00 542.86,449.00 C546.94,449.00 556.00,455.97 556.00,459.10 C556.00,461.78 555.26,461.51 548.50,456.36 ZM 563.66 445.25 C563.40,444.84 562.87,442.34 562.48,439.71 L 561.76 434.92 L 558.30 438.96 C554.59,443.29 553.27,443.86 552.37,441.51 C551.58,439.46 567.95,417.05 570.25,417.02 C572.14,417.00 572.72,420.43 571.01,421.50 C570.46,421.83 569.52,423.02 568.93,424.14 C567.88,426.09 568.08,426.15 574.17,425.83 C579.07,425.58 580.50,425.81 580.50,426.89 C580.50,428.90 578.27,429.82 571.72,430.53 L 565.93 431.15 L 566.60 438.58 C567.18,444.96 567.05,446.00 565.70,446.00 C564.83,446.00 563.91,445.66 563.66,445.25 ZM 510.01 281.75 C509.49,280.51 507.65,273.88 505.92,267.00 C504.19,260.12 502.42,254.12 501.99,253.65 C501.56,253.19 496.40,255.82 490.53,259.50 C484.67,263.19 479.64,265.97 479.35,265.69 C479.07,265.41 481.88,260.19 485.58,254.08 C489.29,247.98 492.11,242.78 491.85,242.51 C491.58,242.25 484.92,240.48 477.03,238.58 C456.17,233.54 456.20,231.96 477.32,226.66 C484.93,224.75 491.36,222.98 491.61,222.72 C491.87,222.47 489.14,217.36 485.54,211.38 C481.95,205.40 479.45,200.35 479.98,200.17 C480.52,199.99 485.35,202.58 490.73,205.93 C496.10,209.27 500.92,212.12 501.44,212.26 C501.95,212.39 503.79,206.88 505.51,200.00 C507.24,193.12 508.96,186.26 509.34,184.75 C510.42,180.49 513.68,181.08 514.89,185.75 C515.42,187.81 517.07,194.23 518.56,200.00 C520.04,205.77 521.54,211.05 521.90,211.71 C522.33,212.54 525.79,210.88 532.83,206.46 C542.20,200.59 545.00,199.20 545.00,200.43 C545.00,200.67 542.08,205.73 538.51,211.67 C530.97,224.23 529.80,222.41 548.40,227.09 C560.66,230.17 564.38,232.02 562.35,234.05 C561.76,234.64 554.80,236.72 546.89,238.68 C538.97,240.64 532.36,242.36 532.19,242.52 C532.02,242.67 534.83,247.62 538.44,253.51 C544.61,263.59 545.77,266.00 544.45,266.00 C544.15,266.00 541.34,264.35 538.20,262.34 C527.28,255.33 522.71,252.89 521.99,253.69 C521.59,254.14 519.79,260.58 517.99,268.00 C516.19,275.42 514.27,282.06 513.74,282.75 C512.28,284.60 511.07,284.28 510.01,281.75 ZM 518.88 243.17 C521.40,239.62 527.85,236.04 535.37,234.00 L 540.23 232.67 L 532.16 230.05 C520.53,226.27 517.32,222.75 513.92,210.00 C512.97,206.43 511.98,204.18 511.73,205.00 C511.48,205.82 510.28,209.78 509.07,213.79 C506.07,223.68 502.77,226.87 492.27,230.04 L 484.22 232.47 L 492.07 235.02 C503.00,238.57 507.10,242.93 509.95,254.01 C511.92,261.70 512.12,261.70 514.38,253.95 C515.59,249.80 517.61,244.95 518.88,243.17 Z" fill="rgba(0,0,0,1)"/>
</g>
</svg>