<svg xmlns="http://www.w3.org/2000/svg" width="1024" height="1024" viewBox="0 0 1024 1024">
<g>
<path d="M 521.19 923.47 C520.54,919.32 519.31,914.56 518.44,912.89 C516.58,909.28 511.78,907.04 504.28,906.27 C495.61,905.37 496.02,902.75 504.99,901.69 C516.27,900.35 519.21,897.24 521.19,884.53 C522.48,876.23 524.49,874.47 525.52,880.75 C528.21,897.13 529.54,899.18 538.61,900.95 C541.85,901.58 545.74,902.34 547.25,902.63 C548.76,902.92 550.00,903.56 550.00,904.06 C550.00,905.03 548.71,905.39 539.58,906.97 C530.97,908.46 527.78,912.02 526.54,921.51 C525.50,929.49 525.04,931.00 523.66,931.00 C522.81,931.00 521.95,928.39 521.19,923.47 ZM 525.00 911.63 C525.00,909.89 530.07,905.28 532.50,904.81 C534.24,904.47 534.11,904.22 531.50,902.94 C529.85,902.14 527.41,899.79 526.08,897.73 L 523.66 893.99 L 522.13 897.15 C521.29,898.88 519.06,901.21 517.17,902.33 C514.08,904.15 513.93,904.43 515.70,905.08 C517.85,905.88 523.00,911.56 523.00,913.14 C523.00,913.68 523.45,913.84 524.00,913.50 C524.55,913.16 525.00,912.32 525.00,911.63 ZM 409.75 895.42 C409.34,895.01 409.00,893.65 409.00,892.40 C409.00,889.45 406.48,887.00 403.43,887.00 C402.09,887.00 401.00,886.55 401.00,886.00 C401.00,885.45 402.09,885.00 403.43,885.00 C406.70,885.00 409.00,882.49 409.00,878.93 C409.00,874.87 410.64,875.25 411.43,879.49 C412.11,883.09 414.36,885.00 417.93,885.00 C421.28,885.00 420.30,886.57 416.33,887.57 C413.22,888.36 412.50,889.08 411.58,892.34 C410.99,894.45 410.16,895.84 409.75,895.42 ZM 583.73 893.34 C583.45,892.88 582.90,890.47 582.50,888.00 C581.19,880.00 579.78,878.34 572.96,876.84 C569.62,876.10 566.79,875.05 566.69,874.50 C566.59,873.95 568.97,872.92 572.00,872.20 C579.13,870.52 581.54,867.83 582.45,860.53 C583.35,853.32 585.06,853.73 586.80,861.56 C587.52,864.81 588.82,868.25 589.69,869.21 C590.56,870.17 593.92,871.47 597.17,872.11 C604.32,873.52 604.27,875.06 597.02,876.67 C590.26,878.17 588.29,880.19 587.01,886.97 C585.97,892.41 584.68,894.93 583.73,893.34 ZM 587.04 872.34 C584.50,870.15 584.50,870.15 582.38,872.13 L 580.25 874.11 L 582.34 876.46 L 584.43 878.80 L 587.00 876.67 L 589.57 874.54 L 587.04 872.34 ZM 669.00 880.00 C666.59,877.59 666.50,876.16 668.56,873.22 C670.27,870.77 674.81,870.21 676.80,872.20 C678.50,873.90 678.29,878.57 676.43,880.43 C674.29,882.57 671.40,882.40 669.00,880.00 ZM 462.22 878.44 C458.03,875.51 460.55,868.00 465.72,868.00 C467.61,868.00 471.00,871.73 471.00,873.81 C471.00,878.23 465.82,880.96 462.22,878.44 ZM 324.62 856.89 C314.32,854.47 302.12,844.98 294.08,833.12 C277.46,808.62 271.41,775.41 273.88,722.15 C274.53,708.19 275.51,695.92 276.06,694.89 C276.61,693.85 278.96,692.04 281.28,690.86 C283.60,689.68 286.54,688.03 287.80,687.21 C290.09,685.71 290.06,685.68 284.19,682.37 C280.94,680.54 277.75,678.40 277.10,677.62 C276.19,676.52 276.21,672.08 277.20,658.35 C278.01,647.14 278.49,620.58 278.49,587.00 C278.50,533.77 277.99,521.67 274.42,490.19 C273.58,482.87 273.19,475.97 273.54,474.86 C273.95,473.58 277.44,471.26 283.16,468.48 L 292.13 464.11 L 288.31 463.12 C286.22,462.57 281.80,461.44 278.50,460.60 C275.20,459.76 271.79,458.20 270.91,457.13 C270.04,456.06 268.52,450.98 267.54,445.84 C264.24,428.64 260.11,413.29 252.63,390.31 C236.02,339.30 235.01,311.81 248.71,284.07 C256.95,267.39 269.34,257.46 285.17,254.84 C290.48,253.96 294.66,254.21 311.00,256.39 C422.50,271.27 530.38,274.61 636.50,266.47 C662.08,264.51 706.78,259.59 728.00,256.41 C747.35,253.50 750.60,253.88 760.01,260.17 C769.64,266.60 780.61,283.34 781.73,293.34 C782.20,297.44 782.01,297.88 779.12,299.59 C775.21,301.90 775.22,302.49 779.15,303.61 C780.88,304.11 783.24,305.78 784.40,307.33 C786.28,309.86 786.49,311.45 786.44,322.82 C786.37,336.87 784.28,346.43 778.92,357.30 C770.13,375.10 759.59,381.70 745.07,378.52 C741.24,377.68 741.25,375.20 745.00,409.16 C746.65,424.11 748.00,439.87 748.00,444.18 L 748.00 452.02 L 741.50 455.22 C737.92,456.99 735.00,458.68 735.00,458.98 C735.00,459.29 737.69,460.60 740.97,461.91 C750.50,465.69 750.14,464.58 750.08,489.65 C750.05,501.67 749.74,528.83 749.39,550.00 C749.00,573.61 749.21,601.18 749.93,621.27 C750.59,639.30 750.84,654.92 750.50,655.98 C750.17,657.05 746.54,659.77 742.45,662.03 C738.35,664.29 735.00,666.47 735.00,666.88 C735.00,667.28 738.17,669.15 742.04,671.02 C752.19,675.93 752.25,676.03 753.12,690.28 C753.53,697.00 754.43,709.63 755.10,718.35 L 756.34 734.21 L 759.92 733.57 C761.89,733.21 766.68,732.66 770.56,732.33 C778.77,731.64 783.99,733.42 790.47,739.11 C803.29,750.35 811.95,778.85 809.01,800.12 C807.86,808.49 805.87,811.06 798.99,813.12 C796.79,813.78 795.00,814.58 795.01,814.91 C795.01,815.23 796.59,816.58 798.52,817.89 C803.20,821.07 803.72,823.80 800.95,830.62 C797.63,838.81 790.88,847.40 784.36,851.73 C778.96,855.31 778.28,855.50 770.59,855.50 C766.14,855.50 752.83,854.06 741.00,852.29 C647.23,838.31 551.40,836.29 445.50,846.05 C422.77,848.15 371.12,854.04 353.52,856.54 C342.36,858.13 330.50,858.27 324.62,856.89 ZM 345.57 844.20 C351.12,841.35 358.29,833.81 361.91,827.01 C366.33,818.73 366.13,817.68 360.25,818.37 C347.14,819.92 333.22,820.15 328.94,818.89 C322.52,816.99 314.01,808.26 311.02,800.49 C307.88,792.35 307.04,774.29 309.38,765.18 C314.05,746.94 325.45,735.00 339.75,733.36 C342.36,733.06 351.25,733.74 359.50,734.87 C459.10,748.51 569.42,752.40 659.50,745.45 C688.51,743.22 732.07,738.45 742.25,736.40 C744.76,735.89 745.00,735.45 745.00,731.34 C745.00,726.96 744.93,726.86 742.25,727.41 C727.67,730.46 666.42,736.58 640.25,737.61 C618.89,738.46 616.97,736.85 637.25,735.11 C654.57,733.62 691.27,729.59 711.00,727.02 C745.93,722.46 744.00,722.84 743.96,720.57 C743.93,718.91 741.21,683.13 741.04,682.26 C741.02,682.13 737.75,680.42 733.78,678.46 C718.16,670.74 716.97,669.05 722.82,662.92 C724.84,660.80 729.42,657.31 733.00,655.17 L 739.50 651.27 L 739.25 644.38 C739.11,640.60 738.95,600.38 738.90,555.00 L 738.80 472.50 L 728.15 468.00 C718.73,464.02 717.46,463.19 717.19,460.84 C716.84,457.79 719.30,455.63 730.25,449.41 L 737.00 445.57 L 737.00 441.08 C737.00,436.89 732.09,390.78 731.59,390.26 C730.32,388.95 668.53,380.81 634.55,377.48 C620.28,376.08 608.39,374.72 608.13,374.47 C607.88,374.21 612.80,374.00 619.08,374.00 C643.41,374.01 693.38,378.92 727.31,384.64 L 731.13 385.28 L 730.81 380.93 C730.43,375.64 732.44,376.22 700.00,372.09 C672.39,368.58 652.74,366.70 618.50,364.29 C586.91,362.07 487.44,361.77 457.00,363.80 C407.98,367.08 363.65,371.51 324.42,377.04 C312.03,378.79 301.93,379.75 299.92,379.36 C293.85,378.20 287.62,374.70 282.41,369.51 C264.14,351.34 263.06,312.23 280.42,297.38 C286.36,292.29 290.04,291.67 307.97,292.71 C316.51,293.21 323.71,293.45 323.98,293.25 C325.11,292.37 318.32,281.56 313.44,276.49 C295.82,258.14 271.95,263.54 258.63,288.88 C246.37,312.21 247.60,339.23 263.06,386.50 C270.19,408.29 275.86,429.21 278.06,441.81 C278.87,446.43 279.92,449.42 280.92,449.95 C281.79,450.41 288.03,452.25 294.79,454.03 C307.33,457.34 312.00,459.76 312.00,462.92 C312.00,465.57 309.67,467.20 296.41,473.82 L 284.31 479.86 L 285.08 485.68 C288.90,514.63 291.46,569.13 290.55,602.00 C289.74,630.96 288.12,665.76 287.43,669.14 C286.94,671.52 287.52,672.16 293.19,675.55 C302.69,681.21 306.00,683.91 306.00,685.98 C306.00,688.43 300.74,692.69 292.66,696.78 L 286.18 700.06 L 285.41 709.78 C284.01,727.37 284.58,765.42 286.42,777.50 C292.13,814.89 305.60,837.97 326.08,845.42 C331.69,847.46 340.28,846.92 345.57,844.20 ZM 778.49 842.31 L 782.44 839.63 L 779.47 838.79 C772.78,836.91 733.79,830.76 708.72,827.63 C694.00,825.79 681.66,823.99 681.31,823.64 C679.55,821.88 683.55,821.71 699.78,822.85 C718.51,824.16 749.57,828.29 771.91,832.44 C779.28,833.81 785.70,834.69 786.17,834.40 C786.98,833.90 791.00,826.60 791.00,825.63 C791.00,825.38 788.08,822.88 784.50,820.07 C774.99,812.60 775.79,809.60 788.31,805.89 C792.27,804.71 796.10,803.19 796.84,802.50 C798.95,800.53 798.50,782.19 796.10,772.85 C794.56,766.86 790.21,756.17 788.52,754.22 C788.38,754.06 782.25,755.05 774.89,756.41 C757.74,759.56 736.59,762.51 717.11,764.46 C689.43,767.23 681.48,765.79 706.50,762.54 C730.36,759.45 752.34,756.03 768.79,752.88 C784.88,749.79 785.06,749.73 783.29,747.77 C780.19,744.35 775.98,742.74 771.58,743.30 C769.34,743.58 756.47,745.41 743.00,747.37 C676.68,756.99 639.11,759.51 562.50,759.48 C494.47,759.45 458.48,757.46 393.50,750.12 C379.75,748.57 368.32,747.45 368.10,747.63 C367.89,747.81 368.87,749.71 370.28,751.85 L 372.86 755.74 L 383.68 757.36 C396.21,759.23 411.87,761.14 438.23,764.01 C457.51,766.11 460.00,766.58 460.00,768.11 C460.00,770.08 436.80,768.47 400.10,763.96 C386.68,762.31 375.54,761.12 375.35,761.32 C375.15,761.51 375.86,764.17 376.91,767.23 C380.07,776.41 381.35,787.12 380.69,798.81 C380.36,804.69 379.64,811.00 379.09,812.83 L 378.10 816.15 L 387.98 815.45 C398.27,814.72 404.77,815.43 401.99,816.98 C401.17,817.44 395.33,818.57 389.00,819.50 C382.67,820.43 377.32,821.36 377.09,821.58 C375.89,822.76 373.24,830.00 374.01,830.00 C374.52,830.00 379.78,829.33 385.72,828.52 C418.96,823.95 450.76,821.17 477.50,820.51 C499.77,819.95 500.00,821.09 478.00,822.97 C458.98,824.60 406.66,830.41 386.76,833.11 L 370.02 835.38 L 367.43 839.28 C366.01,841.43 365.00,843.31 365.18,843.46 C365.35,843.62 369.77,843.15 375.00,842.43 C380.23,841.71 392.60,840.21 402.50,839.10 C502.82,827.81 581.32,825.86 665.50,832.54 C696.76,835.03 759.66,842.60 764.50,844.46 C768.10,845.84 774.81,844.81 778.49,842.31 ZM 368.82 806.52 C369.73,805.60 370.09,787.38 369.28,783.00 L 368.45 778.50 L 361.14 778.00 C357.12,777.72 353.69,777.64 353.52,777.81 C353.35,777.98 353.87,779.44 354.68,781.06 C357.80,787.32 357.34,797.12 353.45,807.28 C353.02,808.38 354.33,808.48 360.64,807.80 C364.89,807.35 368.57,806.77 368.82,806.52 ZM 340.98 805.17 C343.71,802.45 345.99,796.67 345.99,792.50 C345.99,788.59 343.80,782.71 341.48,780.39 C339.61,778.52 338.19,778.08 334.51,778.24 C331.36,778.38 329.59,777.97 328.96,776.97 C327.41,774.52 327.86,772.99 331.06,769.78 L 334.13 766.72 L 349.56 767.24 C358.75,767.54 365.00,767.38 365.00,766.83 C365.00,762.82 355.75,750.52 350.36,747.37 C346.67,745.20 345.01,744.83 340.62,745.20 C334.28,745.72 330.26,748.31 325.90,754.65 C320.84,762.00 318.76,769.24 318.77,779.50 C318.78,786.40 319.31,789.90 321.04,794.50 C325.68,806.79 334.59,811.56 340.98,805.17 ZM 760.94 364.48 C761.73,363.69 762.14,362.80 761.84,362.50 C760.50,361.17 718.49,354.69 681.00,350.04 C656.27,346.97 650.65,345.95 651.84,344.76 C653.07,343.53 676.45,345.12 700.44,348.07 C717.22,350.13 761.26,356.71 764.20,357.59 C765.43,357.96 766.49,356.96 768.02,353.96 C769.19,351.67 769.96,349.62 769.74,349.40 C769.51,349.18 764.42,348.32 758.42,347.48 C740.04,344.94 728.55,342.86 727.55,341.91 C726.01,340.44 739.12,340.91 756.00,342.93 C767.49,344.31 771.69,344.49 772.22,343.64 C774.49,340.03 776.52,322.21 775.31,316.63 C774.50,312.93 774.15,312.64 767.48,310.28 C759.54,307.47 756.60,305.20 757.59,302.64 C757.95,301.68 760.89,299.11 764.13,296.91 C767.36,294.72 770.00,292.35 770.00,291.65 C770.00,290.21 763.59,279.22 761.51,277.10 C760.33,275.91 757.85,276.09 744.32,278.35 C715.59,283.15 681.69,287.05 669.64,286.93 C658.37,286.83 664.06,285.40 687.50,282.47 C699.05,281.03 719.02,278.08 731.87,275.92 C744.72,273.76 755.41,272.00 755.62,272.00 C756.99,272.00 755.52,270.15 752.96,268.63 C747.00,265.11 744.87,265.07 724.32,268.05 C629.46,281.79 525.16,285.38 422.00,278.45 C394.13,276.58 360.56,273.54 339.56,270.99 C330.79,269.93 323.42,269.25 323.19,269.48 C322.66,270.00 328.90,278.00 329.83,278.00 C330.20,278.00 337.48,278.90 346.00,280.00 C354.52,281.09 374.28,283.33 389.90,284.97 C405.51,286.61 418.55,288.22 418.87,288.53 C420.51,290.18 415.50,290.95 406.50,290.43 C393.41,289.68 359.37,286.35 345.72,284.48 C339.78,283.67 334.32,283.00 333.57,283.00 C332.56,283.00 332.96,284.91 335.09,290.41 C339.31,301.28 341.33,314.38 340.72,326.87 L 340.20 337.24 L 344.85 336.60 C354.85,335.23 373.33,334.66 372.66,335.75 C371.93,336.93 357.39,339.75 346.53,340.82 L 339.56 341.50 L 337.75 346.38 C336.75,349.07 336.07,351.40 336.23,351.56 C336.39,351.72 343.27,350.98 351.51,349.91 C381.12,346.08 417.90,342.93 440.00,342.33 C452.38,342.00 462.25,342.00 461.95,342.33 C461.64,342.67 449.04,344.09 433.95,345.51 C395.53,349.10 334.17,356.26 333.54,357.22 C333.44,357.37 332.36,359.25 331.13,361.39 L 328.91 365.27 L 332.78 364.65 C351.93,361.59 400.26,356.72 440.50,353.80 C467.71,351.83 479.09,351.55 533.50,351.55 C582.57,351.55 600.61,351.91 620.00,353.30 C667.71,356.71 704.62,360.73 736.00,365.93 C750.73,368.37 752.88,368.52 756.00,367.28 C757.92,366.53 760.15,365.26 760.94,364.48 ZM 311.57 365.51 C313.90,364.15 317.39,360.87 319.32,358.24 C322.76,353.56 326.66,345.33 325.83,344.50 C325.60,344.27 321.38,344.50 316.46,345.02 C296.26,347.15 290.41,345.79 287.97,338.41 C286.88,335.12 286.95,334.51 288.48,333.39 C289.92,332.34 290.94,332.39 294.19,333.69 C297.94,335.19 298.30,335.17 300.83,333.29 C304.44,330.61 306.31,324.74 305.52,318.59 C304.34,309.42 299.68,304.00 292.98,304.00 C289.89,304.00 288.61,304.69 285.67,307.94 C275.20,319.53 277.05,346.74 289.26,360.64 C296.16,368.51 303.66,370.14 311.57,365.51 ZM 327.13 333.39 C330.07,332.58 330.91,321.87 328.92,310.46 L 327.84 304.25 L 323.28 303.62 C320.77,303.28 317.22,303.00 315.40,303.00 L 312.07 303.00 L 314.00 307.50 C317.43,315.51 317.59,325.09 314.42,333.34 C313.77,335.04 314.16,335.13 319.61,334.51 C322.85,334.14 326.23,333.63 327.13,333.39 ZM 236.90 778.12 C234.84,776.46 234.71,775.93 235.76,773.62 C237.69,769.40 244.00,770.56 244.00,775.13 C244.00,776.91 241.49,780.00 240.04,780.00 C239.59,780.00 238.18,779.15 236.90,778.12 ZM 821.69 727.88 C817.35,725.36 818.10,718.52 822.84,717.32 C824.78,716.84 825.87,717.31 827.67,719.40 C830.59,722.80 830.58,723.51 827.55,726.55 C824.81,729.28 824.29,729.40 821.69,727.88 ZM 229.50 720.25 C229.20,718.74 228.40,715.72 227.73,713.54 C226.47,709.49 224.44,708.20 216.75,706.55 C212.72,705.69 213.33,703.36 217.75,702.73 C226.31,701.52 227.75,699.93 229.46,689.75 C230.43,683.96 232.65,685.00 233.47,691.63 C234.39,698.93 236.99,701.66 243.91,702.58 C249.54,703.33 250.87,705.58 246.25,706.53 C235.36,708.76 234.84,709.24 233.47,718.34 C232.69,723.58 230.37,724.69 229.50,720.25 ZM 233.58 706.93 L 235.78 704.86 L 233.64 702.61 C231.51,700.38 231.49,700.38 229.30,702.31 C227.20,704.17 227.17,704.36 228.80,706.60 C230.89,709.47 230.87,709.47 233.58,706.93 ZM 798.57 689.83 C798.34,689.10 797.87,686.00 797.52,682.93 C796.79,676.35 794.02,671.34 790.36,669.95 C788.91,669.39 785.42,668.61 782.61,668.21 C775.38,667.17 775.60,664.72 783.00,663.88 C793.46,662.70 795.24,660.91 797.28,649.50 C798.16,644.53 798.96,642.50 800.01,642.50 C801.09,642.50 801.72,644.27 802.30,648.99 C802.74,652.56 803.87,656.80 804.80,658.41 C806.67,661.60 811.51,663.80 817.00,663.94 C821.14,664.05 823.95,665.51 822.49,666.79 C821.95,667.28 818.62,668.18 815.10,668.80 C811.11,669.51 807.83,670.75 806.39,672.10 C804.22,674.15 802.34,680.33 801.75,687.42 C801.49,690.48 799.31,692.13 798.57,689.83 ZM 804.29 668.37 L 806.72 666.54 L 804.02 664.02 C802.54,662.63 801.03,660.83 800.67,660.00 C800.07,658.67 799.93,658.67 799.34,660.00 C798.98,660.83 797.51,662.56 796.09,663.87 L 793.50 666.23 L 797.00 669.94 C799.98,673.10 800.60,673.39 801.18,671.92 C801.56,670.97 802.95,669.37 804.29,668.37 ZM 181.65 660.17 C179.48,657.77 179.55,654.71 181.83,652.65 C185.50,649.33 191.00,651.63 191.00,656.50 C191.00,661.46 184.96,663.83 181.65,660.17 ZM 217.58 631.83 C217.35,631.10 216.63,626.85 215.98,622.39 C213.86,607.84 209.70,603.57 195.68,601.57 C184.82,600.02 184.56,598.05 195.00,596.40 C199.12,595.74 203.62,594.76 205.00,594.22 C211.57,591.63 215.12,584.56 216.53,571.25 C216.99,566.92 217.62,565.00 218.58,565.00 C220.06,565.00 220.30,565.79 222.02,576.49 C224.11,589.53 228.65,593.97 242.06,596.10 C254.19,598.03 254.18,599.61 242.01,601.56 C227.90,603.82 224.51,607.43 221.94,622.94 C220.51,631.52 218.67,635.28 217.58,631.83 ZM 220.00 611.59 C220.00,609.05 225.84,602.30 229.57,600.53 L 233.38 598.73 L 228.70 596.35 C225.07,594.50 223.45,592.84 221.46,588.91 L 218.89 583.86 L 216.20 589.14 C214.17,593.11 212.44,594.97 209.24,596.63 L 204.98 598.84 L 209.24 601.17 C212.39,602.89 214.15,604.83 216.00,608.62 C218.33,613.38 220.00,614.62 220.00,611.59 ZM 836.81 617.35 C836.49,613.56 835.40,612.52 830.71,611.53 C827.45,610.84 828.02,609.00 831.49,609.00 C834.68,609.00 837.00,606.47 837.00,602.99 C837.00,599.12 838.79,598.23 839.56,601.71 C840.91,607.76 841.10,607.99 845.07,608.63 C849.98,609.41 850.09,610.54 845.35,611.66 C841.52,612.57 840.49,613.73 839.54,618.25 C838.72,622.16 837.18,621.65 836.81,617.35 ZM 794.52 583.50 C794.23,582.12 793.74,579.76 793.43,578.25 C792.46,573.52 790.26,571.13 786.26,570.46 C780.17,569.43 779.00,568.94 779.00,567.43 C779.00,566.62 779.97,566.00 781.25,565.99 C785.41,565.98 790.97,563.93 791.99,562.03 C792.54,560.99 793.34,557.74 793.76,554.82 C794.82,547.44 796.98,547.71 798.52,555.42 C799.91,562.39 802.10,564.59 808.56,565.56 C812.79,566.20 814.87,567.47 813.65,568.69 C813.34,568.99 810.93,569.63 808.30,570.11 C802.15,571.23 799.28,574.39 798.40,581.02 C797.69,586.42 795.42,587.86 794.52,583.50 ZM 798.38 569.92 L 800.77 567.84 L 798.63 565.64 L 796.50 563.45 L 794.27 565.75 C792.16,567.94 792.13,568.14 793.77,569.94 C795.96,572.34 795.59,572.34 798.38,569.92 ZM 169.67 562.25 C169.42,561.84 168.69,558.90 168.03,555.72 C166.66,549.06 164.94,547.51 157.70,546.46 C154.02,545.92 152.97,545.38 153.21,544.14 C153.43,543.03 155.16,542.25 158.66,541.70 C165.11,540.67 166.78,538.82 168.22,531.11 C168.86,527.63 169.82,525.11 170.43,525.31 C171.01,525.50 171.98,527.88 172.59,530.60 C173.19,533.32 174.19,536.49 174.82,537.66 C176.01,539.89 180.73,542.00 184.53,542.00 C186.89,542.00 189.43,544.24 188.32,545.34 C187.96,545.70 186.95,546.00 186.08,546.01 C183.13,546.02 177.08,548.07 175.58,549.56 C174.76,550.38 173.56,553.74 172.92,557.03 C171.83,562.52 170.81,564.16 169.67,562.25 ZM 172.80 541.84 L 170.50 539.50 L 168.43 541.89 L 166.36 544.28 L 168.43 546.39 L 170.50 548.50 L 172.80 546.34 L 175.10 544.17 L 172.80 541.84 ZM 836.81 543.71 C833.88,525.79 831.74,523.80 811.75,520.52 C805.32,519.47 807.17,517.37 815.63,516.11 C824.69,514.76 829.33,512.74 832.00,509.00 C834.14,505.99 837.00,496.19 837.00,491.86 C837.00,487.95 838.87,483.47 840.02,484.62 C840.53,485.13 841.45,489.15 842.06,493.53 C844.18,508.92 847.85,513.25 860.78,515.55 C865.03,516.31 869.06,516.95 869.75,516.97 C870.44,516.98 871.00,517.64 871.00,518.42 C871.00,519.84 869.41,520.34 861.00,521.53 C853.56,522.59 848.20,525.68 845.86,530.26 C844.25,533.43 841.03,548.01 841.00,552.25 C841.00,552.66 840.40,553.00 839.67,553.00 C838.76,553.00 837.85,550.03 836.81,543.71 ZM 847.84 521.46 C849.83,520.11 852.15,518.99 852.98,518.98 C853.82,518.97 852.66,518.12 850.42,517.10 C845.87,515.04 842.66,511.47 840.86,506.48 L 839.65 503.15 L 837.45 507.91 C835.11,512.95 831.24,516.65 827.24,517.66 C824.96,518.23 825.13,518.45 829.64,520.88 C833.40,522.92 835.02,524.62 836.93,528.55 L 839.39 533.60 L 841.81 528.76 C843.17,526.02 845.79,522.86 847.84,521.46 ZM 232.64 520.89 C232.42,520.13 231.85,517.70 231.37,515.50 C230.54,511.71 230.25,511.45 225.72,510.58 C220.19,509.51 220.03,507.77 225.38,506.90 C230.14,506.13 230.88,505.32 231.80,499.93 C232.77,494.27 234.23,494.27 235.20,499.93 C236.12,505.31 236.50,505.72 241.44,506.75 C246.95,507.89 246.88,509.50 241.28,510.58 C236.60,511.48 236.48,511.60 235.50,516.17 C234.42,521.24 233.28,523.10 232.64,520.89 ZM 795.61 471.83 C795.40,471.10 794.74,467.64 794.15,464.13 C792.42,453.87 791.80,453.32 778.50,450.38 C773.56,449.29 773.64,447.76 778.69,446.71 C791.41,444.08 792.45,443.09 794.33,431.85 C795.21,426.61 795.98,424.50 797.03,424.50 C798.09,424.50 798.72,426.31 799.30,430.99 C800.66,442.05 803.68,444.99 815.25,446.50 C822.23,447.41 821.37,450.99 814.17,451.01 C809.34,451.02 804.01,453.06 802.40,455.51 C801.53,456.83 800.28,461.17 799.61,465.14 C798.48,471.80 796.55,475.04 795.61,471.83 ZM 798.49 454.02 C798.84,452.93 800.42,451.27 802.02,450.33 L 804.91 448.62 L 802.04 446.88 C800.47,445.92 798.88,444.21 798.52,443.07 C797.78,440.73 796.00,440.26 796.00,442.41 C796.00,443.19 794.67,444.95 793.03,446.32 L 790.07 448.81 L 792.46 450.38 C793.77,451.24 795.14,452.86 795.49,453.97 C796.31,456.55 797.68,456.57 798.49,454.02 ZM 203.69 458.35 C203.31,457.98 203.00,456.25 203.00,454.51 C203.00,449.42 200.12,441.14 197.95,439.98 C196.87,439.39 192.98,438.37 189.31,437.71 C185.64,437.04 182.69,436.05 182.76,435.50 C182.83,434.95 185.05,434.12 187.69,433.64 C198.76,431.67 200.54,429.89 202.41,418.79 C204.03,409.16 206.17,408.81 207.30,417.99 C208.67,429.08 210.34,430.71 223.32,433.64 C225.43,434.11 227.14,434.95 227.12,435.50 C227.11,436.05 224.04,437.10 220.30,437.83 C211.14,439.61 209.21,441.63 207.63,451.03 C206.47,457.89 205.33,460.00 203.69,458.35 ZM 208.23 438.57 L 211.66 435.14 L 208.99 432.80 C207.52,431.52 206.02,429.80 205.66,428.98 C205.08,427.68 204.92,427.68 204.34,428.97 C203.98,429.78 202.52,431.58 201.09,432.97 L 198.50 435.50 L 201.50 438.62 C203.15,440.34 204.57,441.80 204.65,441.87 C204.73,441.94 206.34,440.46 208.23,438.57 ZM 846.41 435.49 C846.05,434.05 846.30,432.34 847.01,431.49 C848.78,429.35 852.74,429.64 854.00,432.00 C855.62,435.02 853.63,438.00 849.98,438.00 C847.67,438.00 846.90,437.46 846.41,435.49 ZM 821.55 395.75 C821.33,395.06 820.62,392.11 819.97,389.20 C818.60,383.11 816.70,381.44 809.63,380.12 C807.03,379.64 804.60,378.94 804.23,378.57 C803.30,377.64 806.05,376.03 808.60,376.02 C812.61,375.99 817.07,373.77 818.43,371.13 C819.19,369.67 820.13,366.34 820.52,363.74 C821.46,357.45 823.65,357.46 824.57,363.75 C825.90,372.89 827.35,374.24 838.25,376.47 C839.76,376.78 841.00,377.47 841.00,378.00 C841.00,378.53 839.76,379.23 838.25,379.56 C829.38,381.49 827.58,382.46 826.35,386.00 C825.68,387.92 824.85,391.19 824.52,393.25 C823.92,396.91 822.33,398.25 821.55,395.75 ZM 824.59 375.68 L 822.28 373.37 L 820.20 375.70 L 818.11 378.04 L 820.31 380.27 L 822.50 382.50 L 824.70 380.25 L 826.91 378.00 L 824.59 375.68 ZM 208.07 366.37 C206.93,364.92 206.00,363.40 206.00,363.00 C206.00,361.26 210.31,357.00 212.07,357.00 C214.59,357.00 218.00,360.46 218.00,363.00 C218.00,365.54 214.59,369.00 212.07,369.00 C211.01,369.00 209.21,367.81 208.07,366.37 ZM 622.19 238.28 C621.68,237.30 621.02,234.52 620.71,232.10 C620.00,226.51 617.86,224.47 611.00,222.82 C607.97,222.09 605.55,221.05 605.61,220.50 C605.66,219.95 608.06,218.98 610.92,218.34 C617.65,216.85 619.76,214.84 620.58,209.13 C621.35,203.86 622.72,200.71 623.92,201.45 C624.37,201.73 625.05,204.33 625.43,207.23 C626.30,213.85 628.10,216.67 631.97,217.41 C633.63,217.74 636.35,218.26 638.00,218.58 C641.76,219.31 641.91,221.77 638.25,222.53 C627.69,224.69 626.89,225.46 625.47,234.74 C624.74,239.57 623.52,240.88 622.19,238.28 ZM 625.57 218.44 L 623.50 216.12 L 621.25 218.24 L 618.99 220.36 L 621.14 222.65 L 623.29 224.93 L 625.46 222.84 L 627.63 220.75 L 625.57 218.44 ZM 409.50 233.28 C408.60,227.67 407.71,226.60 403.15,225.70 C398.05,224.69 397.82,223.45 402.59,222.68 C407.09,221.95 409.00,220.40 409.00,217.46 C409.00,214.51 409.97,212.00 411.11,212.00 C411.60,212.00 412.00,213.10 412.00,214.43 C412.00,219.77 413.63,221.82 418.45,222.54 C420.95,222.92 423.00,223.58 423.00,224.01 C423.00,225.05 420.37,226.00 417.47,226.00 C414.62,226.00 412.00,229.43 412.00,233.16 C412.00,237.40 410.17,237.49 409.50,233.28 ZM 498.50 234.43 C485.77,231.93 470.19,222.52 461.09,211.86 C455.95,205.83 451.08,196.96 448.28,188.50 C445.96,181.52 445.62,178.85 445.60,167.50 C445.58,155.98 445.88,153.64 448.23,146.90 C458.86,116.45 485.36,98.48 516.96,100.28 C527.39,100.87 531.39,101.97 532.36,104.50 C533.65,107.86 531.37,109.68 525.06,110.34 C507.92,112.13 492.11,126.57 488.06,144.11 C481.81,171.22 503.75,199.04 531.34,198.99 C547.37,198.96 563.68,189.47 570.36,176.29 C573.35,170.38 575.07,169.42 578.17,171.94 C580.38,173.73 580.41,173.97 579.14,180.14 C571.36,218.13 536.13,241.85 498.50,234.43 ZM 530.31 224.91 C538.30,222.23 546.36,217.61 551.91,212.54 C556.32,208.50 565.00,197.51 565.00,195.96 C565.00,195.51 562.76,196.65 560.01,198.49 C550.69,204.77 544.88,206.41 532.00,206.42 C522.59,206.42 519.42,206.02 514.54,204.21 C493.04,196.24 479.05,176.45 479.01,153.96 C478.98,136.75 486.65,121.69 501.00,110.74 L 504.50 108.07 L 499.00 109.58 C475.90,115.93 458.88,133.89 454.39,156.68 C449.73,180.35 460.65,205.37 481.31,218.36 C488.23,222.72 495.70,225.79 502.18,226.95 C509.75,228.30 523.08,227.33 530.31,224.91 ZM 301.71 225.38 C300.49,224.15 300.93,220.30 302.44,219.05 C303.24,218.39 304.93,217.99 306.19,218.17 C308.10,218.44 308.50,219.11 308.50,222.00 C308.50,225.17 308.21,225.53 305.46,225.80 C303.79,225.96 302.11,225.77 301.71,225.38 ZM 712.65 223.17 C710.29,220.56 710.57,216.42 713.22,214.56 C716.09,212.55 717.28,212.60 720.01,214.81 C721.39,215.92 722.25,217.73 722.25,219.48 C722.25,224.50 716.02,226.89 712.65,223.17 ZM 356.63 216.00 C356.34,215.18 355.67,211.48 355.13,207.79 C354.59,204.09 353.55,199.84 352.82,198.32 C350.82,194.16 345.73,191.30 337.99,190.00 C334.15,189.35 330.77,188.43 330.48,187.96 C329.66,186.64 332.95,185.34 338.70,184.69 C344.89,183.99 349.40,181.84 351.56,178.55 C352.43,177.23 353.90,172.27 354.83,167.53 C355.76,162.79 356.97,158.90 357.51,158.89 C358.06,158.89 358.88,161.05 359.34,163.69 C359.80,166.34 360.93,170.97 361.84,173.98 C363.81,180.48 367.61,183.57 374.82,184.51 C383.17,185.61 385.00,186.14 385.00,187.44 C385.00,188.26 382.36,189.15 377.70,189.90 C365.17,191.92 361.64,195.61 360.34,208.01 C359.68,214.36 357.60,218.83 356.63,216.00 ZM 364.57 189.51 L 367.61 187.46 L 364.59 185.48 C362.92,184.39 360.54,181.70 359.30,179.50 C358.05,177.30 357.03,176.23 357.02,177.12 C356.99,179.33 353.29,183.85 349.74,186.01 C347.00,187.68 346.94,187.84 348.84,188.45 C351.49,189.29 357.00,195.58 357.02,197.78 C357.03,198.75 358.01,197.77 359.28,195.53 C360.52,193.35 362.90,190.64 364.57,189.51 ZM 667.00 203.50 C666.45,202.05 666.00,199.89 665.99,198.68 C665.98,194.91 664.06,189.37 662.17,187.65 C661.16,186.74 657.68,185.51 654.42,184.91 C645.44,183.25 645.16,183.11 647.44,181.43 C648.51,180.64 650.53,180.00 651.94,179.99 C660.32,179.98 664.12,176.74 665.48,168.47 C666.87,160.05 667.22,158.91 668.29,159.26 C668.89,159.46 669.94,162.91 670.62,166.92 C672.08,175.63 674.37,178.58 680.36,179.48 C688.56,180.72 690.00,181.18 690.00,182.58 C690.00,183.47 688.95,184.00 687.18,184.00 C685.63,184.00 682.08,184.68 679.29,185.51 C673.37,187.27 671.60,190.01 670.47,199.26 C669.67,205.83 668.45,207.31 667.00,203.50 ZM 669.50 187.00 C669.85,185.89 671.27,184.40 672.66,183.67 L 675.18 182.35 L 672.67 180.70 C671.28,179.79 669.87,178.17 669.53,177.09 C668.96,175.31 668.60,175.47 665.57,178.77 L 662.24 182.40 L 664.62 184.27 C665.93,185.30 667.00,186.79 667.00,187.57 C667.00,189.70 668.77,189.30 669.50,187.00 ZM 401.61 150.70 C399.45,149.12 399.75,144.17 402.10,142.70 C406.81,139.75 412.18,145.94 408.46,150.04 C406.40,152.32 404.11,152.54 401.61,150.70 ZM 613.04 143.55 C611.41,141.58 612.05,139.03 614.61,137.34 C616.46,136.11 617.00,136.18 619.07,137.86 C621.16,139.54 621.29,140.07 620.24,142.38 C618.89,145.33 615.04,145.96 613.04,143.55 ZM 318.34 829.13 C306.00,820.19 297.37,802.18 294.03,778.36 C292.77,769.31 292.70,740.42 293.94,734.50 C294.66,731.03 294.79,731.58 294.89,738.60 C295.08,752.13 296.91,771.90 299.00,783.05 C302.77,803.09 309.12,817.25 318.62,826.75 C324.45,832.58 324.35,833.48 318.34,829.13 ZM 341.40 679.62 C333.73,675.95 327.51,671.08 326.75,668.14 C326.00,665.27 328.31,660.96 333.47,655.64 C336.77,652.23 338.49,651.09 339.23,651.83 C339.97,652.57 339.91,653.80 339.03,655.94 C337.24,660.26 339.20,662.81 347.81,667.33 C358.72,673.06 362.00,672.02 362.00,662.82 C361.99,656.02 359.24,652.75 346.66,644.58 C340.42,640.53 334.35,635.99 333.16,634.48 C328.34,628.34 328.45,620.03 333.45,613.48 C337.52,608.15 349.35,599.00 352.18,599.00 C359.87,599.00 371.00,606.25 371.00,611.25 C371.00,614.49 362.31,625.22 360.09,624.73 C359.22,624.54 358.67,623.73 358.89,622.94 C360.66,616.33 359.91,614.78 353.50,611.86 C345.22,608.09 340.08,610.96 341.33,618.66 C342.11,623.43 344.49,625.80 354.86,632.16 C373.48,643.56 378.17,651.41 373.07,662.66 C370.00,669.41 355.01,683.00 350.63,683.00 C349.43,683.00 345.27,681.48 341.40,679.62 ZM 403.63 679.97 C399.52,675.08 399.01,671.11 399.01,643.55 L 399.00 617.61 L 401.69 614.80 L 404.37 612.00 L 395.94 612.02 C389.79,612.04 386.35,612.56 383.27,613.96 C380.95,615.02 378.79,615.47 378.48,614.97 C377.71,613.73 380.39,608.76 384.12,604.51 L 387.21 601.00 L 407.24 601.00 C419.54,601.00 428.76,600.55 431.14,599.84 C436.01,598.38 436.88,599.22 434.67,603.29 C430.44,611.07 429.82,611.46 420.81,612.00 L 412.50 612.50 L 412.50 639.50 C412.50,668.41 412.92,671.20 417.24,670.73 C421.31,670.30 419.98,673.45 414.06,678.25 C410.83,680.86 407.74,683.00 407.18,683.00 C406.63,683.00 405.03,681.64 403.63,679.97 ZM 456.50 681.34 C451.85,678.89 447.92,674.88 445.90,670.50 C444.25,666.94 444.04,663.68 444.02,640.68 C444.00,613.61 443.57,610.65 439.78,611.20 C438.63,611.36 437.51,611.00 437.30,610.38 C436.89,609.17 448.09,599.00 449.83,599.00 C450.42,599.00 452.16,600.65 453.70,602.67 L 456.50 606.34 L 457.00 633.92 C457.55,664.19 457.85,665.71 464.04,669.36 C467.91,671.65 470.36,671.41 473.92,668.41 L 477.00 665.82 L 477.00 640.35 C477.00,614.12 476.58,611.00 473.02,611.00 C469.21,611.00 470.07,609.01 476.03,604.06 C479.37,601.28 482.45,599.00 482.88,599.00 C484.44,599.00 488.08,603.78 489.02,607.08 C489.56,608.96 490.00,622.95 490.00,638.18 C490.00,667.52 490.51,671.62 494.08,670.69 C495.37,670.35 496.34,670.72 496.71,671.69 C497.11,672.72 495.50,674.85 491.90,678.07 C488.93,680.74 486.00,682.93 485.39,682.96 C483.48,683.03 479.16,678.00 478.48,674.93 C478.13,673.32 477.64,672.00 477.39,672.00 C477.14,672.00 474.02,674.47 470.46,677.50 C463.57,683.34 461.43,683.93 456.50,681.34 ZM 523.00 680.96 C516.65,678.84 512.05,678.58 506.74,680.06 C504.67,680.63 502.55,680.84 502.03,680.52 C501.51,680.20 502.53,677.89 504.29,675.39 L 507.50 670.84 L 507.80 646.01 L 508.10 621.17 L 513.39 617.08 C516.30,614.84 519.21,613.00 519.84,613.00 C520.69,613.00 521.00,619.59 521.00,637.42 L 521.00 661.85 L 518.41 664.92 L 515.82 668.00 L 519.82 668.00 C522.02,668.00 526.64,668.88 530.09,669.95 C533.53,671.02 536.73,671.67 537.18,671.39 C540.92,669.07 544.44,652.01 543.75,639.57 C542.37,615.01 530.04,605.80 506.70,611.89 C502.65,612.94 499.67,613.28 499.33,612.72 C499.01,612.20 501.20,609.32 504.20,606.32 C509.32,601.20 510.08,600.80 516.58,599.80 C530.87,597.59 544.76,602.40 550.91,611.68 C555.92,619.24 557.49,625.83 557.42,639.00 C557.35,652.26 555.50,658.47 549.09,667.00 C545.08,672.34 532.09,683.07 529.84,682.90 C529.10,682.84 526.03,681.97 523.00,680.96 ZM 574.66 681.87 C573.64,681.28 571.96,678.93 570.93,676.65 C569.22,672.89 569.04,669.72 569.02,642.87 C569.00,612.25 568.76,610.37 564.91,611.21 C561.50,611.97 563.70,608.00 569.15,603.58 C575.93,598.08 576.98,598.13 580.50,604.11 C582.38,607.30 582.50,609.30 582.50,637.59 C582.50,669.37 582.84,671.82 587.06,670.48 C588.03,670.17 589.17,670.47 589.59,671.15 C590.09,671.95 588.26,674.26 584.43,677.69 C578.15,683.31 577.57,683.56 574.66,681.87 ZM 616.22 680.42 C605.72,675.19 598.37,663.48 597.25,650.19 L 596.72 643.87 L 593.41 644.16 C591.59,644.31 589.81,644.15 589.46,643.79 C588.71,643.04 594.68,634.00 595.93,634.00 C596.39,634.00 597.30,631.86 597.96,629.25 C600.47,619.26 608.74,608.83 620.13,601.30 L 623.96 598.76 L 631.73 601.89 C636.00,603.60 640.74,605.01 642.25,605.01 C646.05,605.00 645.69,606.67 640.64,612.44 L 636.31 617.38 L 630.91 615.04 C627.93,613.75 623.60,612.11 621.28,611.40 C617.24,610.17 616.97,610.22 615.10,612.60 C613.11,615.12 610.00,626.69 610.00,631.54 L 610.00 634.18 L 622.45 633.88 C629.30,633.71 635.13,633.79 635.39,634.06 C635.66,634.32 634.66,636.76 633.19,639.47 L 630.50 644.41 L 620.12 644.12 L 609.75 643.83 L 610.40 647.67 C611.48,653.98 617.11,664.17 620.94,666.74 C627.64,671.25 631.20,671.00 638.08,665.53 C643.06,661.57 645.00,661.12 645.00,663.91 C645.00,665.01 641.18,669.41 635.87,674.41 C625.53,684.14 624.39,684.49 616.22,680.42 ZM 664.23 679.43 C655.88,675.37 650.00,670.05 650.00,666.56 C650.00,665.25 651.73,662.00 653.83,659.34 C658.70,653.20 660.61,651.64 662.42,652.33 C663.61,652.79 663.66,653.44 662.71,655.97 C661.23,659.88 662.17,661.49 668.42,665.74 C674.42,669.81 680.55,671.77 682.84,670.34 C684.92,669.04 686.49,663.09 685.64,659.71 C684.59,655.50 680.13,651.09 671.07,645.29 C657.34,636.49 653.00,631.53 653.00,624.61 C653.00,617.61 655.78,613.57 667.30,603.88 C674.32,597.97 677.08,597.70 685.75,602.03 C692.46,605.38 695.48,608.95 694.60,612.47 C693.87,615.38 685.27,625.00 683.41,625.00 C681.70,625.00 681.64,623.90 683.16,620.55 C684.13,618.42 684.01,617.66 682.41,615.86 C679.98,613.14 673.31,610.05 669.79,610.02 C665.38,609.99 663.46,616.52 666.14,622.42 C667.32,625.00 668.45,625.85 683.11,635.26 C687.85,638.29 693.03,642.48 694.61,644.56 C697.14,647.87 697.50,649.20 697.50,655.09 C697.50,660.98 697.12,662.37 694.46,666.15 C690.16,672.27 677.12,683.00 674.00,682.98 C672.62,682.97 668.23,681.37 664.23,679.43 ZM 391.01 572.79 C379.95,568.54 372.76,558.26 369.86,542.56 L 368.65 536.00 L 365.22 536.00 C361.34,536.00 361.35,535.57 365.45,529.08 C366.87,526.83 368.42,525.00 368.89,525.00 C369.37,525.00 370.29,522.91 370.93,520.37 C372.52,514.05 375.38,508.69 379.75,503.85 C384.71,498.36 394.42,491.00 396.70,491.00 C397.72,491.00 401.69,492.34 405.53,493.97 C409.36,495.61 413.74,496.96 415.25,496.97 C416.76,496.99 417.98,497.34 417.96,497.75 C417.93,498.16 415.76,500.91 413.12,503.85 L 408.32 509.20 L 404.41 507.24 C397.17,503.60 390.08,501.69 388.54,502.97 C386.50,504.66 384.00,512.61 383.33,519.50 L 382.75 525.50 L 395.01 525.00 C404.44,524.61 407.37,524.80 407.75,525.79 C408.47,527.66 402.58,536.57 400.90,536.14 C400.13,535.95 395.72,535.54 391.09,535.24 L 382.69 534.70 L 383.34 539.45 C384.24,546.04 389.41,555.32 393.91,558.44 C399.53,562.33 404.09,561.92 410.68,556.95 C415.77,553.11 418.00,552.62 418.00,555.34 C418.00,557.30 399.10,575.10 397.17,574.95 C396.80,574.92 394.03,573.95 391.01,572.79 ZM 427.78 572.25 C423.86,567.75 423.05,562.52 425.33,556.28 C426.87,552.04 433.82,542.58 439.41,537.09 L 443.87 532.71 L 436.96 518.92 C430.06,505.14 428.26,502.86 424.97,503.72 C424.01,503.97 422.87,503.60 422.43,502.89 C421.60,501.55 432.43,491.01 434.65,491.00 C436.97,491.00 441.95,498.15 448.14,510.40 C451.64,517.33 454.73,522.99 455.00,522.99 C455.27,523.00 457.03,520.75 458.90,518.01 C461.27,514.53 462.43,511.53 462.77,508.04 C463.22,503.37 463.08,502.98 460.63,502.05 C459.18,501.50 458.00,500.63 458.00,500.12 C458.00,498.46 467.91,490.84 469.62,491.17 C472.63,491.76 475.51,496.82 475.40,501.32 C475.27,507.27 471.75,513.43 463.78,521.65 L 456.85 528.81 L 463.93 542.51 C473.08,560.21 474.51,562.20 477.77,561.81 C481.93,561.31 481.34,563.23 475.60,568.91 C466.89,577.50 465.24,576.26 453.42,552.16 L 446.35 537.73 L 442.21 543.93 C435.88,553.40 435.32,561.01 440.78,563.13 L 443.50 564.18 L 438.00 569.08 C432.06,574.37 430.15,574.96 427.78,572.25 ZM 506.69 572.21 C502.42,567.49 502.00,564.25 502.00,535.99 L 502.00 508.91 L 504.45 506.45 L 506.91 504.00 L 497.70 504.00 C490.26,504.01 487.87,504.39 485.22,506.01 C482.51,507.66 481.84,507.76 481.39,506.58 C480.59,504.48 487.58,494.11 490.57,492.97 C491.98,492.44 502.36,492.00 513.63,492.00 C525.42,492.00 534.93,491.57 536.01,491.00 C540.38,488.65 538.89,494.41 533.45,500.88 C530.92,503.89 530.54,504.00 522.91,504.00 L 515.00 504.00 L 515.00 530.78 C515.00,559.53 515.32,561.47 520.18,562.18 C523.72,562.70 523.12,564.24 517.40,569.25 C511.56,574.37 509.23,575.01 506.69,572.21 ZM 551.05 571.34 C549.90,569.87 548.72,567.74 548.44,566.59 C548.16,565.44 547.82,551.45 547.70,535.50 C547.58,519.55 547.10,505.71 546.63,504.75 C546.17,503.79 544.74,503.00 543.45,503.00 C539.27,503.00 539.90,501.28 546.05,495.96 C551.41,491.32 552.36,490.84 554.44,491.79 C555.83,492.43 557.47,494.67 558.50,497.36 L 560.22 501.86 L 566.80 496.43 C574.51,490.08 576.92,489.71 582.81,493.98 C589.65,498.93 592.49,505.09 591.32,512.43 C590.80,515.68 589.39,517.78 584.37,522.81 L 578.06 529.13 L 581.42 532.48 C584.89,535.96 586.12,538.65 590.75,553.00 C593.27,560.79 593.74,561.54 596.42,562.00 C598.02,562.28 599.50,563.00 599.70,563.60 C600.18,565.04 589.28,574.00 587.06,574.00 C585.24,574.00 581.94,570.85 580.19,567.44 C579.61,566.30 577.95,560.72 576.51,555.02 C573.47,543.03 571.92,539.65 568.44,537.37 C566.42,536.05 565.43,535.94 563.46,536.84 C561.08,537.92 561.00,538.28 561.00,548.40 C561.00,560.51 561.39,562.00 564.55,562.00 C565.83,562.00 567.14,562.41 567.45,562.91 C568.21,564.15 557.04,574.00 554.87,574.00 C553.92,574.00 552.20,572.80 551.05,571.34 ZM 573.73 524.68 C580.08,518.72 580.15,509.83 573.90,504.57 C570.05,501.33 567.95,501.33 564.08,504.59 L 561.00 507.18 L 561.00 520.64 L 561.00 534.10 L 565.75 530.90 C568.36,529.15 571.95,526.35 573.73,524.68 ZM 609.26 569.82 C606.62,565.82 606.50,565.10 606.50,553.32 L 606.50 541.00 L 603.75 541.00 C600.19,541.00 600.28,540.20 604.43,535.35 C606.32,533.15 608.83,528.48 610.01,524.97 C612.67,517.07 618.18,508.63 622.68,505.57 C625.98,503.33 626.02,503.24 623.79,502.64 C619.57,501.51 615.50,501.98 611.63,504.06 C609.51,505.19 607.57,505.90 607.30,505.63 C605.32,503.66 615.63,492.63 620.62,491.38 C622.22,490.98 626.88,491.39 631.46,492.34 C641.74,494.47 648.41,494.46 652.06,492.30 C655.74,490.13 656.80,491.22 654.97,495.29 C652.77,500.18 652.31,557.29 654.44,560.55 C655.42,562.05 656.59,562.66 657.85,562.33 C658.91,562.05 660.05,562.28 660.39,562.83 C661.18,564.09 650.07,573.97 647.84,573.99 C645.17,574.01 641.27,568.47 640.09,562.98 C639.49,560.19 639.00,553.12 639.00,547.28 L 639.00 536.65 L 636.69 538.83 C634.76,540.64 633.19,541.00 627.23,541.00 L 620.09 541.00 L 619.42 544.55 C617.98,552.23 621.17,563.64 624.40,562.40 C625.17,562.10 626.12,562.38 626.50,563.01 C627.48,564.59 617.07,573.90 614.26,573.95 C612.72,573.99 611.17,572.71 609.26,569.82 ZM 639.00 518.00 L 639.00 505.00 L 634.55 505.00 C630.69,505.00 629.78,505.43 627.70,508.25 C624.89,512.04 624.25,513.59 622.43,521.00 C619.89,531.28 619.68,531.00 630.00,531.00 L 639.00 531.00 L 639.00 518.00 ZM 630.85 452.71 C629.77,451.63 629.56,446.16 629.78,425.18 C630.12,394.32 629.04,395.95 643.26,404.65 C653.24,410.76 656.00,412.82 656.00,414.18 C656.00,414.67 652.63,417.18 648.51,419.78 C644.38,422.38 641.01,424.78 641.01,425.12 C641.00,425.47 644.62,428.12 649.04,431.03 C654.24,434.44 656.98,436.86 656.79,437.87 C656.51,439.28 649.71,443.88 636.85,451.37 C632.95,453.64 631.99,453.85 630.85,452.71 ZM 647.07 438.94 C649.08,437.43 648.94,437.25 642.07,432.69 L 635.00 427.98 L 635.00 437.05 L 635.00 446.12 L 640.00 443.31 C642.75,441.76 645.93,439.80 647.07,438.94 ZM 647.00 413.83 C647.00,413.47 645.31,412.14 643.25,410.89 C641.19,409.64 638.49,407.98 637.25,407.20 L 635.00 405.77 L 635.00 413.89 L 635.00 422.01 L 641.00 418.26 C644.30,416.19 647.00,414.20 647.00,413.83 ZM 367.48 451.80 C367.20,451.07 367.09,439.00 367.23,424.98 C367.49,400.02 367.54,399.49 369.58,399.20 C371.10,398.98 373.50,400.95 378.43,406.45 L 385.18 414.01 L 392.19 406.50 C403.31,394.59 403.00,394.03 403.00,426.07 L 403.00 453.14 L 400.75 452.82 C398.51,452.50 398.50,452.37 398.00,430.71 L 397.50 408.91 L 393.05 413.44 L 388.60 417.98 L 391.50 421.00 C394.22,423.84 394.30,424.13 392.71,425.71 C391.13,427.30 390.86,427.24 388.26,424.77 L 385.50 422.14 L 382.64 424.62 C381.07,425.98 379.27,426.92 378.64,426.71 C376.57,426.03 376.78,422.86 379.06,420.44 C381.51,417.83 381.44,417.64 376.05,411.68 L 373.50 408.86 L 373.00 430.68 C372.50,452.39 372.49,452.50 370.25,452.82 C369.01,453.00 367.76,452.54 367.48,451.80 ZM 438.63 451.47 C437.83,449.38 437.83,404.24 438.63,401.25 C438.99,399.93 440.01,399.00 441.12,399.00 C443.04,399.00 461.50,411.10 463.72,413.81 C465.37,415.83 464.96,416.29 456.43,422.05 C452.34,424.80 449.00,427.40 449.00,427.80 C449.00,428.21 452.60,432.66 457.00,437.69 C461.40,442.72 465.00,447.57 465.00,448.45 C465.00,451.54 461.82,451.48 459.09,448.34 C457.67,446.69 453.80,442.25 450.50,438.46 L 444.50 431.57 L 444.00 442.03 C443.54,451.75 443.35,452.52 441.38,452.80 C440.13,452.98 439.00,452.44 438.63,451.47 ZM 456.00 415.10 C456.00,414.33 445.61,407.00 444.52,407.00 C444.23,407.00 444.00,410.84 444.00,415.54 L 444.00 424.07 L 450.00 420.00 C453.30,417.76 456.00,415.56 456.00,415.10 ZM 499.63 451.47 C498.82,449.37 498.80,402.68 499.61,400.58 C499.94,399.71 500.87,399.00 501.66,399.00 C503.77,399.00 526.00,417.78 526.00,419.56 C526.00,420.39 525.32,421.32 524.49,421.64 C522.99,422.22 521.93,421.51 510.75,412.48 L 505.00 407.84 L 505.00 413.19 L 505.00 418.54 L 514.06 425.33 C520.18,429.91 523.02,432.66 522.80,433.80 C522.20,436.93 519.45,436.08 512.24,430.55 L 505.06 425.04 L 504.78 438.77 C504.51,451.90 504.41,452.51 502.38,452.80 C501.13,452.98 500.00,452.44 499.63,451.47 ZM 559.36 451.49 C559.01,450.57 563.55,442.50 570.89,431.01 C577.55,420.58 583.00,411.80 583.00,411.49 C583.00,411.18 581.32,412.07 579.27,413.46 C577.22,414.86 575.15,416.00 574.69,416.00 C572.96,416.00 559.00,402.60 559.00,400.94 C559.00,397.19 562.13,398.01 567.82,403.26 C570.94,406.14 573.76,408.85 574.08,409.29 C574.40,409.72 578.83,407.34 583.93,403.99 C591.46,399.05 593.46,398.14 594.64,399.12 C595.44,399.78 595.88,400.87 595.63,401.53 C595.37,402.20 590.04,410.79 583.78,420.62 C577.52,430.46 572.00,439.15 571.52,439.95 C571.03,440.76 572.75,440.17 575.37,438.63 L 580.11 435.85 L 583.31 438.36 C590.97,444.40 596.00,449.82 595.40,451.40 C594.35,454.15 591.71,453.14 585.55,447.63 L 579.60 442.30 L 571.31 447.65 C562.62,453.25 560.32,453.99 559.36,451.49 ZM 418.58 428.68 C415.02,426.08 419.01,420.26 422.75,422.61 C425.14,424.11 425.43,426.43 423.48,428.38 C421.51,430.34 420.90,430.38 418.58,428.68 ZM 479.58 428.68 C476.02,426.08 480.01,420.26 483.75,422.61 C486.14,424.11 486.43,426.43 484.48,428.38 C482.51,430.34 481.90,430.38 479.58,428.68 ZM 540.58 428.08 C538.09,425.33 540.06,421.76 543.82,422.19 C546.84,422.54 548.02,426.06 545.95,428.56 C544.33,430.52 542.65,430.37 540.58,428.08 ZM 609.60 428.69 C606.84,426.68 607.85,422.58 611.18,422.19 C614.94,421.76 616.91,425.33 614.42,428.08 C612.37,430.35 611.94,430.41 609.60,428.69 ZM 293.29 391.55 C287.17,389.64 280.45,385.44 278.00,382.00 C276.82,380.35 276.32,379.00 276.87,379.00 C277.43,379.00 278.17,379.46 278.51,380.02 C279.73,382.00 290.65,386.83 296.20,387.86 C300.66,388.68 304.61,388.50 315.65,386.93 C359.84,380.66 391.22,377.52 385.00,379.98 C381.49,381.37 306.44,393.01 301.53,392.93 C299.31,392.90 295.60,392.27 293.29,391.55 ZM 258.01 320.25 C258.05,302.48 266.55,285.30 278.24,279.38 C283.64,276.64 293.83,274.84 292.60,276.84 C292.20,277.48 291.12,278.00 290.19,278.01 C286.66,278.03 278.33,282.88 274.31,287.26 C267.31,294.89 261.89,308.03 260.43,320.91 C259.51,329.07 258.00,328.66 258.01,320.25 ZM 647.25 822.29 C643.90,821.65 644.53,820.31 648.55,819.56 C653.84,818.56 666.00,820.28 666.00,822.02 C666.00,822.98 651.88,823.19 647.25,822.29 ZM 475.19 769.95 C473.82,769.40 473.16,768.55 473.58,767.88 C474.06,767.10 476.79,766.91 482.08,767.27 C490.19,767.82 492.43,768.49 491.46,770.07 C490.72,771.26 478.23,771.17 475.19,769.95 ZM 626.50 345.38 C624.85,345.16 621.59,344.74 619.25,344.43 C611.72,343.45 614.72,342.00 624.25,342.02 C632.64,342.03 637.33,343.00 635.90,344.44 C635.05,345.28 629.81,345.81 626.50,345.38 ZM 432.67 291.33 C430.92,289.59 432.58,289.00 439.25,289.01 C447.10,289.03 451.00,289.73 451.00,291.12 C451.00,292.13 433.67,292.34 432.67,291.33 ZM 498.91 218.56 C473.96,211.67 456.41,184.32 460.88,159.30 C461.98,153.15 466.15,142.00 467.35,142.00 C467.59,142.00 466.89,144.81 465.79,148.25 C463.38,155.78 462.97,169.05 464.91,177.00 C466.59,183.94 472.06,194.54 476.79,200.07 C484.80,209.43 496.10,215.70 510.00,218.50 L 516.50 219.81 L 510.00 219.82 C506.42,219.82 501.44,219.25 498.91,218.56 Z" fill="rgba(0,0,0,1)"/>
</g>
</svg>