<svg xmlns="http://www.w3.org/2000/svg" width="1024" height="1024" viewBox="0 0 1024 1024">
<g>
<path d="M 488.17 882.90 C460.15,880.40 427.84,872.00 401.71,860.42 C358.19,841.12 316.04,806.57 287.76,767.00 C257.61,724.81 241.43,679.93 237.75,628.25 C235.09,590.77 242.06,547.17 256.10,513.59 C263.74,495.33 271.12,482.00 291.00,450.58 C299.31,437.46 306.36,422.46 309.14,412.00 C311.03,404.92 311.40,401.01 311.35,388.56 L 311.31 373.62 L 314.54 377.48 C324.05,388.80 328.99,401.68 329.75,417.11 C330.41,430.60 329.02,440.30 323.44,461.00 C317.57,482.76 316.06,491.09 315.33,505.50 C313.93,533.16 320.23,560.36 335.02,590.50 C341.11,602.90 356.70,628.64 357.58,627.75 C357.77,627.56 356.59,623.29 354.97,618.24 C353.35,613.20 351.34,605.17 350.51,600.40 C348.54,589.09 348.57,567.04 350.57,555.50 C354.45,533.10 365.80,509.51 381.11,492.00 C384.75,487.83 384.55,488.36 378.96,497.50 C370.21,511.79 362.99,530.34 359.29,548.00 C356.78,559.98 356.79,587.37 359.31,598.50 C367.46,634.57 386.80,667.44 411.06,686.47 C417.84,691.79 417.87,691.50 411.40,682.99 C400.71,668.91 387.86,644.48 382.20,627.47 C375.79,608.24 374.50,599.63 374.50,576.00 C374.50,549.72 376.73,536.42 384.70,515.00 C393.46,491.47 412.21,461.08 428.32,444.27 C430.55,441.95 432.17,439.83 431.91,439.58 C431.13,438.79 412.07,450.90 400.50,459.53 C368.45,483.45 347.88,513.05 340.40,546.00 C339.09,551.78 338.01,558.50 338.01,560.95 C338.00,566.99 336.85,565.34 333.17,554.00 C325.60,530.70 323.42,515.79 324.30,493.50 C325.76,456.83 337.42,428.32 366.63,390.00 C390.87,358.21 398.00,342.45 398.00,320.65 C398.00,305.71 393.96,292.41 385.00,277.85 C383.35,275.17 382.00,272.78 382.00,272.54 C382.00,271.78 392.34,275.63 398.02,278.50 C424.20,291.72 439.98,316.31 441.67,346.50 C442.35,358.62 440.51,370.41 435.53,385.77 C433.63,391.62 432.25,396.59 432.47,396.81 C433.43,397.76 452.22,383.74 460.36,376.00 C468.28,368.47 479.00,355.15 479.00,352.84 C479.00,352.38 477.31,352.00 475.25,351.99 C469.84,351.98 461.96,347.93 457.75,343.02 C444.81,327.90 451.27,302.94 470.48,293.85 C473.79,292.28 477.44,291.00 478.58,291.00 C479.73,291.00 480.93,290.73 481.26,290.41 C481.58,290.09 479.78,286.62 477.25,282.71 C466.72,266.45 462.00,249.67 462.00,228.58 C462.00,213.54 463.41,204.71 468.04,190.79 C477.68,161.79 501.06,133.19 530.41,114.50 C534.93,111.62 536.14,111.18 535.55,112.62 C531.40,122.88 526.70,136.26 524.85,143.12 C522.95,150.14 522.58,154.01 522.59,167.00 C522.60,181.31 522.81,183.15 525.42,191.00 C531.89,210.52 538.65,220.90 562.41,247.87 C583.34,271.62 592.55,285.92 598.86,304.50 C605.18,323.11 607.04,347.07 603.57,365.36 C602.65,370.24 602.06,374.39 602.26,374.59 C602.46,374.79 605.30,374.52 608.56,373.98 C611.83,373.45 616.14,373.01 618.14,373.01 L 621.77 373.00 L 619.73 365.75 C616.65,354.84 616.71,336.11 619.87,326.01 C625.65,307.47 636.35,294.26 654.09,283.77 C657.55,281.72 660.54,280.21 660.75,280.41 C660.95,280.62 659.57,284.77 657.69,289.64 C652.85,302.19 651.00,311.34 651.00,322.79 C651.00,340.49 655.53,353.01 670.06,375.50 C680.17,391.15 686.16,402.76 689.67,413.50 C693.17,424.17 694.05,443.17 691.58,454.28 C688.61,467.65 681.15,480.37 672.09,487.54 C668.31,490.53 668.11,490.90 669.97,491.49 C671.10,491.85 674.45,492.14 677.41,492.14 C684.16,492.14 689.21,489.66 694.79,483.61 C699.30,478.72 699.89,479.27 697.88,486.48 C696.05,493.07 691.58,498.57 685.75,501.39 C673.70,507.23 666.58,506.01 639.55,493.44 L 633.61 490.67 L 640.58 489.03 C666.36,482.98 680.45,465.25 680.36,439.00 C680.32,428.70 677.86,417.26 673.61,407.64 C672.29,404.66 666.58,394.86 660.93,385.86 C643.95,358.83 639.20,346.46 638.10,326.50 L 637.50 315.50 L 634.80 322.14 C626.12,343.47 629.40,364.99 645.40,391.54 C647.34,394.77 648.78,397.55 648.60,397.73 C648.42,397.91 645.85,396.47 642.89,394.51 C631.23,386.83 617.35,384.36 604.50,387.69 L 597.50 389.50 L 594.28 395.50 C592.51,398.80 591.04,401.77 591.03,402.09 C591.01,402.42 593.56,401.83 596.68,400.77 C619.25,393.15 643.81,402.69 653.30,422.76 C656.16,428.80 656.49,430.44 656.47,438.50 C656.44,450.31 653.30,457.69 645.09,465.21 C639.92,469.94 639.73,470.28 642.50,469.63 C647.77,468.39 655.94,461.86 659.55,456.00 C664.38,448.17 666.40,439.42 665.65,429.50 C665.07,421.75 662.62,411.90 660.10,407.19 C657.52,402.37 659.75,402.94 662.95,407.92 C675.93,428.14 674.28,455.27 659.25,469.13 C652.34,475.50 645.06,478.40 635.00,478.82 C624.14,479.27 617.65,477.00 609.85,470.05 C602.81,463.78 599.63,457.04 599.55,448.25 C599.52,444.81 599.38,442.00 599.23,442.00 C599.07,442.00 598.48,443.24 597.90,444.75 C592.48,458.98 596.30,472.99 609.33,486.71 C621.71,499.74 639.99,510.13 659.38,515.16 C669.57,517.80 684.09,517.40 691.00,514.28 C697.95,511.14 704.54,504.69 707.94,497.70 C712.12,489.08 713.13,481.30 711.99,466.39 C709.93,439.36 716.09,420.09 731.76,404.54 C734.83,401.50 737.51,399.17 737.71,399.38 C737.91,399.58 737.56,402.84 736.92,406.62 C734.34,421.93 736.05,441.74 741.17,455.91 C742.28,458.98 748.96,473.42 756.01,488.00 C773.49,524.14 779.30,541.51 784.14,572.01 C786.06,584.13 786.44,590.42 786.46,610.50 C786.49,636.12 785.83,642.92 780.93,667.39 C772.87,707.67 753.02,749.11 726.50,781.00 C687.38,828.05 637.12,860.63 581.50,874.99 C550.50,882.99 519.14,885.65 488.17,882.90 ZM 523.15 867.60 C561.20,860.31 598.87,833.13 614.76,801.50 C619.16,792.74 623.68,779.31 626.15,767.69 C628.08,758.62 628.34,754.04 628.51,726.00 C628.71,692.48 628.82,691.44 634.61,670.20 C637.37,660.06 638.09,648.32 636.67,636.75 C635.72,628.99 634.00,627.71 634.00,634.75 C633.99,642.80 630.28,665.23 626.65,679.20 C617.57,714.14 599.36,745.84 573.84,771.16 C533.54,811.12 484.59,831.48 429.00,831.38 C403.37,831.34 382.99,827.60 359.75,818.68 C356.04,817.26 353.00,816.25 353.00,816.44 C353.00,817.05 374.29,830.66 381.00,834.34 C405.44,847.74 434.63,855.68 463.22,856.70 C481.69,857.35 492.49,856.34 508.08,852.48 C535.98,845.57 560.83,829.67 577.40,808.13 C581.92,802.26 592.00,785.77 592.00,784.26 C592.00,783.90 587.76,787.93 582.57,793.20 C557.17,819.01 526.84,836.06 493.78,843.13 C479.83,846.10 457.10,846.73 442.57,844.53 C436.19,843.57 430.79,842.47 430.56,842.10 C430.33,841.72 434.41,841.60 439.62,841.83 C444.84,842.06 454.60,841.73 461.30,841.10 C486.24,838.75 504.44,833.58 526.90,822.45 C562.11,805.01 588.55,780.01 610.79,743.12 L 617.19 732.50 L 616.54 739.00 C614.60,758.56 608.86,778.59 600.35,795.50 C582.14,831.70 545.38,858.64 503.32,866.59 C498.47,867.51 493.60,868.66 492.50,869.15 C489.38,870.55 514.37,869.28 523.15,867.60 ZM 590.50 857.53 C618.93,846.85 647.82,824.42 665.24,799.50 L 669.44 793.50 L 662.97 799.12 C649.94,810.43 638.60,817.15 624.65,821.84 C616.51,824.57 616.03,824.92 606.55,834.79 C596.57,845.19 583.93,855.28 573.75,860.98 C570.59,862.74 568.00,864.34 568.00,864.51 C568.00,864.98 583.40,860.20 590.50,857.53 ZM 677.85 809.53 C706.49,781.98 726.12,742.39 731.50,701.34 C735.31,672.25 730.64,642.02 719.17,621.62 C717.58,618.80 713.90,612.00 710.98,606.50 C699.73,585.29 682.37,563.57 666.61,551.00 C663.57,548.57 661.22,546.44 661.40,546.27 C661.82,545.85 675.84,551.88 684.00,555.99 C701.82,564.96 720.56,580.06 731.12,593.95 C741.98,608.25 750.16,630.03 751.42,648.02 L 752.01 656.50 L 749.59 648.00 C743.48,626.58 737.11,613.46 726.08,599.60 C719.66,591.53 702.29,576.00 699.68,576.00 C699.41,576.00 701.23,579.04 703.74,582.75 C706.25,586.46 710.30,593.73 712.73,598.89 C715.16,604.06 719.44,611.64 722.23,615.74 C735.98,635.92 743.17,664.80 741.59,693.50 C740.47,713.90 734.56,738.24 726.46,755.78 C724.62,759.78 723.54,762.79 724.07,762.46 C726.51,760.95 741.80,736.17 747.48,724.50 C755.14,708.77 759.33,695.96 761.43,681.84 C767.61,640.21 754.95,600.91 726.02,571.97 C710.96,556.89 694.09,546.44 663.33,533.11 C624.21,516.15 606.81,505.01 594.58,489.09 C589.10,481.96 586.55,476.91 584.58,469.30 C579.61,450.12 586.90,431.86 602.50,424.41 C616.01,417.96 632.02,425.78 632.00,438.82 L 631.99 441.50 L 629.75 438.84 C620.12,427.46 605.09,438.85 611.61,452.58 C616.65,463.22 632.83,462.93 640.50,452.07 C643.24,448.19 643.50,447.12 643.50,439.66 C643.50,430.30 642.00,426.36 636.18,420.46 C634.16,418.41 630.03,415.55 627.00,414.11 C622.27,411.86 620.17,411.50 611.98,411.50 C603.23,411.50 601.91,411.77 595.76,414.80 C578.21,423.44 568.62,443.49 571.76,465.02 C574.96,486.95 587.33,503.54 617.40,526.23 C641.93,544.73 647.59,549.41 659.33,560.90 C672.51,573.79 679.63,582.31 688.38,595.66 C702.86,617.77 712.30,642.51 715.54,666.83 C721.22,709.46 709.36,756.10 682.37,797.37 C678.72,802.94 673.65,809.97 671.10,813.00 C661.03,824.92 662.78,824.02 677.85,809.53 ZM 453.42 817.49 C513.67,809.59 569.03,771.52 597.74,718.23 C603.67,707.22 612.30,687.41 611.81,685.93 C611.63,685.40 607.74,690.94 603.16,698.25 C592.99,714.47 585.93,723.47 573.23,736.41 C548.15,761.95 515.96,781.11 495.50,782.67 L 489.50 783.13 L 505.50 774.76 C523.78,765.20 535.05,758.10 546.50,748.94 C555.34,741.87 577.00,721.18 577.00,719.81 C577.00,719.33 574.62,720.70 571.71,722.85 C553.94,735.98 523.86,752.55 501.56,761.49 C472.13,773.30 450.09,777.93 419.50,778.70 C397.28,779.27 383.41,777.95 365.24,773.52 C346.95,769.07 324.06,759.33 309.50,749.81 L 303.50 745.88 L 308.00 750.01 C310.48,752.29 317.00,757.30 322.50,761.15 C361.37,788.36 403.81,798.48 458.34,793.55 C468.70,792.61 477.37,792.04 477.61,792.28 C478.60,793.27 465.14,798.34 456.66,800.16 C444.67,802.74 418.20,803.69 403.98,802.06 C362.96,797.35 326.61,779.82 295.11,749.56 L 286.72 741.50 L 291.19 748.24 C309.71,776.14 341.00,799.63 373.93,810.34 C384.30,813.72 401.65,817.39 411.50,818.30 C421.96,819.26 443.04,818.85 453.42,817.49 ZM 641.50 805.95 C656.53,798.89 672.76,786.60 678.56,777.90 C682.30,772.28 691.00,755.02 691.00,753.22 C691.00,752.90 689.34,754.63 687.31,757.07 C674.96,771.89 658.75,782.70 644.00,785.95 C633.71,788.21 633.94,788.06 631.52,794.53 C630.27,797.84 628.07,802.89 626.63,805.75 C625.18,808.60 624.00,811.39 624.00,811.95 C624.00,813.10 632.42,810.21 641.50,805.95 ZM 652.74 773.51 C662.94,769.83 669.95,765.06 680.00,754.95 C688.34,746.58 697.08,734.75 695.85,733.52 C695.62,733.28 693.64,733.73 691.46,734.50 C686.66,736.21 677.94,736.39 672.50,734.88 C666.41,733.19 659.53,725.79 658.18,719.47 C656.24,710.31 659.95,701.65 667.35,698.07 C674.95,694.39 677.52,695.58 672.31,700.36 C665.55,706.55 667.16,717.48 675.42,721.39 C679.95,723.54 683.51,723.42 688.66,720.92 C702.74,714.10 708.72,690.17 700.71,672.67 C695.58,661.48 685.61,655.01 673.50,655.03 C657.12,655.06 645.89,666.62 641.49,688.00 C640.82,691.26 641.05,691.08 644.89,685.36 C651.77,675.12 660.26,670.04 670.50,670.04 C677.85,670.04 683.37,672.38 687.72,677.33 C693.53,683.95 694.36,693.76 689.74,701.03 L 687.53 704.50 L 687.02 698.50 C686.13,688.21 680.38,682.00 671.73,682.00 C656.83,682.00 645.87,700.59 642.50,731.58 C641.90,737.17 642.05,737.91 644.45,740.76 C647.98,744.95 652.75,746.36 661.36,745.74 L 668.44 745.24 L 665.47 747.64 C660.62,751.57 652.58,753.48 646.66,752.11 C643.93,751.48 641.63,751.09 641.54,751.23 C641.44,751.38 640.79,755.55 640.09,760.50 C639.38,765.45 638.56,771.24 638.26,773.36 L 637.71 777.23 L 642.10 776.49 C644.52,776.09 649.31,774.75 652.74,773.51 ZM 441.95 764.37 C461.75,761.79 485.20,754.99 507.00,745.51 C511.67,743.47 516.57,741.39 517.89,740.88 C522.39,739.12 519.36,739.03 511.43,740.69 C499.98,743.08 463.93,743.14 451.50,740.79 C425.28,735.82 401.25,725.20 380.00,709.18 C375.88,706.07 367.77,698.77 362.00,692.97 C347.96,678.85 339.28,666.11 330.69,647.00 C329.33,643.97 326.13,639.25 323.57,636.50 L 318.92 631.50 L 319.55 635.00 C320.89,642.45 327.31,659.83 332.08,668.95 C339.02,682.17 348.93,695.79 359.11,706.09 C367.10,714.17 381.76,725.84 390.00,730.68 C407.71,741.08 417.58,744.94 443.50,751.59 C446.34,752.31 446.24,752.39 441.50,753.09 C432.68,754.39 405.51,754.05 393.80,752.51 C362.56,748.38 331.98,735.43 306.48,715.52 C296.12,707.42 281.23,691.76 273.30,680.60 C267.15,671.95 256.91,652.89 253.49,643.73 C252.51,641.10 251.55,639.11 251.36,639.31 C250.60,640.06 255.06,661.85 257.33,668.50 C265.28,691.82 286.13,718.37 309.31,734.70 C345.89,760.46 392.30,770.84 441.95,764.37 ZM 369.23 731.59 C335.86,707.02 312.77,669.75 304.93,627.81 C302.63,615.48 301.27,590.22 302.49,582.37 L 303.25 577.50 L 305.07 582.77 C309.97,596.96 320.74,616.21 329.66,626.71 C332.09,629.57 336.76,637.22 340.03,643.71 C358.92,681.19 397.31,712.93 437.69,724.44 C446.87,727.06 464.88,730.46 465.62,729.71 C465.86,729.47 462.55,728.05 458.28,726.55 C430.99,717.00 405.43,700.30 382.89,677.32 C327.81,621.13 299.58,560.93 302.34,505.50 C302.97,492.68 306.27,474.16 310.52,459.51 C313.90,447.87 317.00,434.52 316.99,431.71 C316.98,430.48 314.82,433.95 312.15,439.50 C309.49,445.00 302.59,456.92 296.81,466.00 C279.48,493.20 272.35,506.76 265.43,525.72 C250.88,565.53 251.76,607.58 267.92,645.06 C282.41,678.68 311.31,708.60 344.83,724.69 C353.15,728.68 371.78,735.78 374.36,735.95 C374.83,735.98 372.52,734.02 369.23,731.59 ZM 533.50 724.33 C573.59,716.55 608.61,681.97 619.62,639.29 C623.05,626.01 623.88,605.62 621.57,591.59 C617.44,566.46 605.79,543.76 587.83,525.87 C570.62,508.73 550.25,498.01 528.00,494.39 C494.58,488.95 459.52,501.61 434.37,528.21 C415.68,547.98 404.89,571.69 401.91,599.50 C396.75,647.85 423.95,695.78 468.29,716.47 C489.56,726.39 510.12,728.87 533.50,724.33 ZM 696.01 640.04 C687.58,614.22 672.63,591.54 648.88,568.49 C638.42,558.35 618.52,542.00 616.62,542.00 C616.32,542.00 617.62,544.66 619.53,547.92 C621.44,551.17 623.00,554.35 623.00,554.97 C623.00,555.60 628.54,561.60 635.31,568.31 C649.16,582.02 654.78,589.43 661.27,602.50 C666.23,612.49 668.32,618.48 670.06,627.66 C671.80,636.87 670.83,637.09 667.07,628.34 C662.02,616.59 656.52,606.87 649.74,597.72 C643.69,589.56 633.31,578.00 632.02,578.00 C630.55,578.00 635.39,594.98 639.01,602.50 C645.66,616.33 649.98,632.88 649.99,644.58 L 650.00 649.66 L 655.84 646.77 C667.16,641.16 680.14,641.38 692.00,647.39 C695.58,649.21 698.62,650.39 698.78,650.02 C698.93,649.64 697.68,645.16 696.01,640.04 ZM 773.49 604.25 C771.48,561.97 764.43,534.77 745.90,497.77 C734.84,475.68 729.49,463.21 727.02,453.81 L 725.11 446.50 L 725.06 466.86 C725.00,488.75 724.05,495.01 719.45,504.09 C714.03,514.79 701.53,524.94 690.00,528.02 L 685.50 529.21 L 692.00 532.56 C703.16,538.30 713.72,536.77 723.30,528.01 C730.48,521.44 735.95,509.62 735.99,500.58 C736.01,496.32 736.86,497.87 738.05,504.32 C740.78,519.07 732.67,536.08 719.79,542.61 C717.16,543.94 715.00,545.17 715.00,545.34 C715.00,545.50 718.60,548.47 722.99,551.93 C735.73,561.97 746.79,574.57 756.36,589.97 C758.91,594.08 761.00,597.15 761.00,596.79 C761.00,594.29 757.27,581.05 753.40,569.82 C746.11,548.66 745.92,547.95 745.30,538.84 C744.44,526.09 745.65,524.68 748.64,534.95 C749.99,539.59 753.60,549.27 756.66,556.45 C759.71,563.63 763.50,573.42 765.06,578.20 C768.03,587.27 772.00,606.02 772.00,610.97 C772.00,613.89 772.85,617.00 773.66,617.00 C773.90,617.00 773.82,611.26 773.49,604.25 ZM 391.11 586.50 C395.33,544.96 409.96,507.77 433.39,479.00 C444.41,465.47 454.21,455.97 475.00,438.62 C502.94,415.32 519.27,398.72 529.48,383.23 C531.03,380.88 532.49,379.16 532.73,379.40 C533.62,380.29 524.51,397.48 519.28,404.76 C510.37,417.18 503.46,424.36 482.00,443.49 C451.92,470.31 440.91,482.22 428.44,501.42 C423.30,509.34 411.35,533.68 412.19,534.52 C412.36,534.70 416.44,529.59 421.24,523.17 C440.35,497.63 456.81,481.81 493.50,453.71 C545.19,414.12 564.38,388.64 569.07,353.38 C571.42,335.71 567.45,313.56 558.93,296.86 C556.26,291.62 556.98,290.98 560.44,295.51 C565.31,301.90 571.82,315.30 574.52,324.50 C577.79,335.63 578.92,353.99 577.06,365.53 C573.69,386.45 562.31,407.86 544.52,426.75 C533.77,438.17 523.64,446.71 498.81,465.29 C479.05,480.08 465.93,490.97 469.50,489.62 C476.07,487.13 483.49,484.96 490.50,483.47 C501.20,481.20 521.96,481.13 531.93,483.33 C536.02,484.23 539.52,484.81 539.71,484.62 C539.90,484.43 539.56,482.98 538.95,481.39 C538.34,479.80 537.54,475.87 537.17,472.65 L 536.50 466.80 L 527.88 473.40 C523.15,477.03 519.03,480.00 518.74,480.00 C517.40,480.00 517.08,476.41 518.09,472.66 C519.00,469.29 522.30,465.38 535.93,451.51 C554.47,432.64 561.76,424.05 571.03,410.09 C591.13,379.83 597.39,348.01 588.77,320.00 C583.32,302.29 575.17,291.74 552.80,273.41 C540.32,263.19 531.88,254.00 526.64,244.91 C525.19,242.39 524.00,240.04 524.00,239.70 C524.00,239.36 528.61,243.69 534.25,249.33 C539.89,254.97 547.65,261.78 551.50,264.46 C555.35,267.13 561.65,271.83 565.49,274.90 L 572.48 280.48 L 567.87 274.49 C565.33,271.19 557.06,261.52 549.50,253.00 C527.93,228.70 517.06,210.85 511.84,191.18 C509.46,182.17 508.31,162.04 509.75,154.28 C512.94,137.04 497.58,172.54 493.41,192.03 C490.92,203.71 490.89,226.44 493.35,237.80 C495.89,249.50 498.97,258.04 504.60,269.00 C510.80,281.06 510.86,281.31 506.48,276.50 C496.36,265.39 488.99,250.26 485.52,233.46 C482.29,217.79 484.10,191.32 489.44,176.17 C490.25,173.88 490.71,172.00 490.47,172.00 C490.22,172.00 488.45,175.14 486.52,178.97 C475.22,201.40 471.81,228.30 477.45,250.45 C482.05,268.51 492.45,285.24 504.04,293.26 C512.20,298.90 518.76,305.79 521.53,311.65 C522.89,314.52 524.01,317.47 524.02,318.19 C524.02,318.91 524.50,320.17 525.07,321.00 C526.73,323.38 525.07,308.49 522.89,301.40 C521.85,298.04 519.86,293.60 518.46,291.53 C517.05,289.46 516.06,287.60 516.26,287.41 C517.38,286.29 524.01,291.42 527.10,295.80 C532.25,303.12 534.27,310.39 534.19,321.37 C534.07,337.59 529.38,351.06 517.65,368.87 C509.19,381.71 499.50,392.55 480.93,409.95 C445.13,443.47 430.52,459.53 416.73,480.50 C399.06,507.38 389.00,535.28 387.17,562.50 C386.14,577.83 388.45,612.70 389.68,600.50 C389.85,598.85 390.49,592.55 391.11,586.50 ZM 344.52 480.21 C350.87,461.20 360.05,445.73 379.63,421.00 C403.36,391.02 411.82,374.33 415.36,350.50 L 416.70 341.50 L 417.47 347.31 C419.11,359.61 415.69,376.51 408.50,391.75 C403.30,402.76 396.09,414.01 384.09,429.85 C367.86,451.27 358.62,467.44 352.57,485.00 C350.03,492.37 350.03,492.45 352.24,489.50 C371.47,463.95 388.80,449.81 430.00,426.04 C454.94,411.64 466.75,403.81 478.26,394.02 C494.74,380.00 506.53,363.88 511.52,348.53 C516.24,334.01 514.12,320.67 505.58,311.22 C493.85,298.24 472.84,300.50 465.90,315.50 C462.08,323.73 464.28,333.15 471.10,337.84 C480.42,344.24 492.73,333.28 485.93,324.63 C484.48,322.80 482.90,321.99 480.68,321.97 C477.67,321.94 477.60,321.86 479.44,320.47 C480.51,319.66 483.11,319.00 485.23,319.00 C488.33,319.00 489.90,319.77 493.29,322.93 L 497.50 326.86 L 497.47 335.68 C497.43,343.42 497.05,345.32 494.31,351.18 C487.17,366.45 476.96,379.13 462.30,390.91 C453.54,397.95 447.26,401.98 420.50,417.77 C411.15,423.28 401.14,429.38 398.25,431.33 C395.36,433.27 393.00,434.61 393.00,434.30 C393.00,434.00 395.20,430.76 397.88,427.12 C419.88,397.30 428.45,375.91 428.42,351.00 C428.40,338.46 426.92,331.51 421.82,320.06 C419.04,313.81 411.54,303.00 409.98,303.00 C409.56,303.00 409.66,304.91 410.21,307.25 C411.88,314.35 411.31,331.61 409.12,340.09 C404.39,358.43 397.72,371.03 381.16,392.87 C358.00,423.40 350.48,436.14 344.11,455.56 C339.31,470.22 336.97,484.44 337.10,498.12 L 337.20 508.50 L 339.07 499.71 C340.10,494.88 342.55,486.10 344.52,480.21 ZM 566.57 489.14 C560.92,477.91 558.60,468.24 558.65,456.04 L 558.69 445.58 L 553.83 451.04 C545.57,460.32 543.85,472.09 549.19,482.84 C551.25,486.99 552.48,488.01 560.50,492.17 C565.45,494.73 569.64,496.69 569.81,496.52 C569.99,496.35 568.53,493.03 566.57,489.14 ZM 310.45 880.55 C307.37,877.46 307.33,873.89 310.34,870.39 C315.97,863.85 326.88,870.72 322.86,878.27 C320.06,883.53 314.47,884.56 310.45,880.55 ZM 703.63 880.93 C699.23,877.46 700.17,870.67 705.36,868.49 C710.81,866.20 715.91,869.65 715.97,875.68 C716.00,879.30 712.23,883.00 708.50,883.00 C707.27,883.00 705.08,882.07 703.63,880.93 ZM 223.54 860.75 C222.78,855.23 221.02,834.32 221.01,830.65 L 221.00 827.81 L 217.25 830.94 C209.33,837.56 202.93,842.26 202.47,841.80 C202.05,841.38 204.12,838.52 214.33,825.36 L 216.17 823.00 L 210.83 822.99 C204.80,822.98 180.02,820.35 179.32,819.65 C178.61,818.94 183.43,818.18 196.00,817.03 C202.32,816.44 209.42,815.72 211.76,815.42 L 216.02 814.88 L 209.01 806.37 C205.15,801.69 202.00,797.42 202.00,796.87 C202.00,795.62 206.75,798.88 214.14,805.19 C217.24,807.83 219.98,810.00 220.24,810.00 C220.49,810.00 221.24,803.14 221.91,794.75 C224.07,767.30 225.26,766.43 227.08,791.00 C227.76,800.08 228.59,808.06 228.94,808.74 C229.36,809.57 232.37,807.67 238.03,802.98 C242.68,799.12 246.65,796.44 246.84,797.01 C247.03,797.58 244.18,801.72 240.50,806.22 C234.74,813.27 234.08,814.48 235.66,815.04 C236.67,815.40 244.25,816.26 252.50,816.95 C276.28,818.94 275.79,820.20 250.50,822.08 C241.70,822.73 234.31,823.43 234.09,823.63 C233.86,823.83 235.45,826.13 237.62,828.74 C250.28,844.01 250.30,846.03 237.69,835.39 C233.39,831.76 229.64,829.02 229.36,829.30 C228.88,829.79 226.04,858.11 226.01,862.75 C225.99,866.67 224.15,865.18 223.54,860.75 ZM 798.55 861.88 C798.22,860.02 797.40,851.64 796.73,843.25 L 795.50 828.01 L 787.07 835.00 C774.56,845.38 773.75,844.61 783.94,832.00 L 790.82 823.50 L 776.16 822.29 C750.41,820.17 748.73,818.85 769.50,817.07 C776.65,816.46 784.42,815.72 786.76,815.42 L 791.02 814.88 L 784.01 806.37 C773.56,793.70 774.35,793.08 787.29,803.80 C791.58,807.34 795.23,810.08 795.41,809.87 C795.59,809.67 796.29,802.36 796.98,793.63 C798.28,777.20 799.29,771.28 800.32,774.00 C801.06,775.94 803.00,798.34 803.00,804.92 C803.00,807.71 803.34,809.99 803.75,809.98 C804.16,809.96 808.30,806.75 812.95,802.84 C817.78,798.78 821.58,796.24 821.81,796.92 C822.03,797.58 821.57,798.88 820.78,799.81 C820.00,800.74 816.96,804.32 814.02,807.76 C811.09,811.20 808.97,814.30 809.31,814.65 C809.66,814.99 816.37,815.87 824.22,816.60 C840.29,818.09 845.46,818.87 844.65,819.69 C843.93,820.40 820.02,822.95 813.75,822.98 C811.14,822.99 809.00,823.29 809.00,823.64 C809.00,823.99 811.57,827.48 814.70,831.39 C822.28,840.84 822.37,840.97 821.75,841.59 C821.45,841.88 817.50,839.13 812.97,835.47 C808.08,831.53 804.46,829.25 804.08,829.88 C803.72,830.46 802.85,838.26 802.15,847.22 C800.87,863.45 799.68,868.33 798.55,861.88 ZM 170.63 708.26 C170.35,707.29 169.58,703.67 168.92,700.21 C167.59,693.19 167.18,692.82 158.70,690.95 C155.52,690.24 152.69,689.31 152.42,688.88 C151.96,688.12 156.10,686.73 162.78,685.39 C166.92,684.57 167.56,683.66 168.96,676.50 C171.30,664.58 171.97,664.49 174.03,675.85 C175.50,683.98 175.22,683.72 185.29,686.48 C188.47,687.36 190.84,688.45 190.56,688.90 C190.28,689.36 187.35,690.26 184.05,690.91 C180.75,691.56 177.41,692.73 176.62,693.52 C175.83,694.31 174.62,698.13 173.93,702.02 C172.63,709.29 171.53,711.36 170.63,708.26 ZM 851.63 708.26 C851.35,707.29 850.57,703.64 849.90,700.14 C848.82,694.44 848.37,693.64 845.60,692.50 C843.89,691.80 840.59,690.91 838.26,690.52 C830.67,689.28 832.40,687.67 843.78,685.39 C848.42,684.47 848.43,684.44 851.61,669.13 C852.34,665.58 853.17,667.19 854.99,675.74 C856.81,684.26 856.76,684.22 867.88,687.04 C870.28,687.65 871.86,688.49 871.38,688.91 C870.89,689.34 867.48,690.48 863.79,691.44 C856.49,693.36 856.78,692.98 854.92,702.77 C853.68,709.32 852.51,711.27 851.63,708.26 ZM 192.75 623.92 C190.40,622.55 190.53,618.73 193.00,616.50 C197.13,612.76 203.18,618.94 199.44,623.07 C197.51,625.20 195.41,625.47 192.75,623.92 ZM 825.20 623.80 C823.21,621.81 823.75,617.20 826.13,615.93 C829.39,614.19 833.00,616.21 833.00,619.78 C833.00,623.13 831.39,625.00 828.50,625.00 C827.34,625.00 825.86,624.46 825.20,623.80 ZM 129.54 582.04 C127.22,579.48 128.21,575.32 131.49,573.82 C136.69,571.45 141.47,578.38 137.43,582.43 C135.28,584.58 131.67,584.40 129.54,582.04 ZM 886.65 582.17 C884.25,579.52 884.62,576.30 887.54,574.38 C890.78,572.26 894.65,573.76 895.59,577.51 C896.89,582.68 890.25,586.15 886.65,582.17 ZM 178.75 540.02 C171.46,534.28 177.81,522.61 186.31,526.13 C192.22,528.58 193.10,536.72 187.84,540.40 C184.78,542.54 181.80,542.42 178.75,540.02 ZM 837.32 540.99 C834.61,539.90 832.99,537.01 833.03,533.32 C833.12,525.67 842.25,522.69 847.02,528.75 C849.80,532.29 849.50,535.66 846.08,539.08 C843.07,542.09 841.10,542.52 837.32,540.99 ZM 185.98 453.83 C185.95,451.57 183.01,435.68 182.54,435.20 C182.29,434.96 178.22,433.97 173.50,433.00 C160.73,430.39 160.68,429.45 173.23,427.29 C177.78,426.51 181.86,425.52 182.31,425.08 C182.75,424.65 183.79,420.07 184.62,414.91 C185.45,409.76 186.29,405.37 186.50,405.17 C187.73,403.94 188.90,406.98 190.01,414.23 C190.70,418.78 191.64,423.23 192.10,424.11 C192.65,425.19 195.83,426.26 201.58,427.32 C214.31,429.66 214.30,430.38 201.50,433.00 C196.78,433.97 192.64,435.02 192.31,435.35 C191.98,435.68 190.99,440.09 190.11,445.15 C189.20,450.35 187.96,454.52 187.25,454.75 C186.56,454.98 185.99,454.57 185.98,453.83 ZM 830.66 445.56 C830.33,444.69 829.50,440.12 828.82,435.41 C827.46,426.00 827.19,425.68 820.00,424.60 C813.25,423.58 808.00,422.03 808.00,421.05 C808.00,420.58 812.26,419.42 817.48,418.48 C826.85,416.79 826.96,416.74 827.51,413.64 C827.81,411.91 828.61,407.39 829.28,403.58 C830.93,394.23 832.51,394.10 833.99,403.20 C836.29,417.38 835.41,416.23 845.75,418.50 C850.77,419.60 855.19,420.82 855.56,421.20 C856.29,421.96 855.45,422.20 844.06,424.53 C839.96,425.37 836.51,426.16 836.38,426.29 C836.25,426.42 835.41,430.79 834.51,436.01 C832.84,445.67 831.75,448.38 830.66,445.56 ZM 250.38 397.09 C241.69,391.79 248.86,378.94 258.46,382.62 C260.43,383.38 263.00,388.13 263.00,391.03 C263.00,393.63 257.83,399.00 255.33,399.00 C254.32,398.99 252.10,398.14 250.38,397.09 ZM 719.65 354.17 C717.27,351.53 717.62,348.30 720.50,346.41 C722.82,344.89 723.18,344.89 725.50,346.41 C728.47,348.36 728.78,351.98 726.17,354.35 C723.79,356.50 721.71,356.44 719.65,354.17 ZM 263.61 320.50 C263.24,317.75 262.32,307.71 261.57,298.19 C260.82,288.66 260.02,280.69 259.79,280.46 C259.56,280.23 255.01,283.67 249.68,288.10 C244.35,292.54 239.56,296.01 239.04,295.83 C238.52,295.65 241.67,291.11 246.05,285.74 C250.42,280.38 254.00,275.63 254.00,275.19 C254.00,274.75 244.92,273.62 233.82,272.68 C214.45,271.04 212.01,270.66 213.20,269.46 C213.74,268.92 239.86,266.30 249.85,265.78 L 255.19 265.50 L 247.53 256.00 C234.70,240.11 235.06,239.34 249.68,251.46 L 259.87 259.91 L 260.43 254.70 C260.74,251.84 261.46,243.20 262.03,235.50 C264.06,208.16 265.06,208.52 267.53,237.46 C268.54,249.31 269.62,259.00 269.94,259.00 C270.25,259.00 274.33,255.81 279.00,251.92 C293.62,239.74 294.39,240.24 283.00,254.50 C278.61,260.00 275.01,264.84 275.01,265.25 C275.00,265.66 277.64,266.00 280.87,266.00 C284.10,266.00 293.43,266.70 301.60,267.56 C323.55,269.87 323.14,270.23 296.00,272.57 C284.73,273.53 275.32,274.47 275.10,274.65 C274.88,274.83 278.40,279.49 282.92,285.02 C287.44,290.55 291.00,295.51 290.82,296.04 C290.64,296.57 285.78,293.14 280.01,288.41 L 269.53 279.82 L 267.72 300.66 C265.73,323.62 264.69,328.63 263.61,320.50 ZM 334.00 319.00 C332.90,317.90 332.00,316.33 332.00,315.50 C332.00,313.64 335.53,310.00 337.35,310.00 C339.31,310.00 342.00,313.33 342.00,315.76 C342.00,318.17 339.53,321.00 337.43,321.00 C336.64,321.00 335.10,320.10 334.00,319.00 ZM 753.61 304.87 C753.30,302.47 752.55,294.20 751.94,286.50 C751.32,278.80 750.67,272.35 750.49,272.16 C750.30,271.97 746.50,274.84 742.03,278.53 C737.57,282.23 733.66,284.99 733.34,284.67 C733.02,284.35 735.73,280.36 739.37,275.80 C747.27,265.87 748.26,266.67 726.00,265.03 C702.52,263.30 703.68,262.38 732.50,259.91 C739.65,259.30 745.67,258.64 745.87,258.44 C746.08,258.25 743.34,254.58 739.80,250.29 C729.12,237.40 729.59,236.71 742.02,247.03 L 750.50 254.05 L 751.74 240.28 C754.44,210.36 755.08,209.58 756.95,234.00 C758.66,256.40 757.98,255.07 764.79,249.26 C772.90,242.35 776.23,239.90 776.79,240.45 C777.05,240.72 774.11,244.93 770.25,249.81 L 763.24 258.69 L 775.87 259.87 C796.99,261.84 800.00,262.23 800.00,262.98 C800.00,263.71 777.76,266.01 770.50,266.02 C763.12,266.04 763.11,267.00 770.37,275.92 C780.49,288.35 779.36,288.38 764.44,276.05 C761.74,273.82 759.19,272.00 758.77,272.00 C758.35,272.00 758.00,274.24 758.00,276.98 C758.00,285.13 755.85,307.43 754.97,308.37 C754.52,308.85 753.91,307.27 753.61,304.87 ZM 417.40 239.67 C413.76,236.53 413.80,231.43 417.50,228.25 C420.85,225.36 424.18,225.39 427.61,228.34 C431.11,231.35 431.27,236.02 427.99,239.51 C425.03,242.67 420.96,242.73 417.40,239.67 ZM 603.17 232.69 C600.53,229.87 600.43,227.92 602.81,224.99 C606.26,220.73 614.00,223.46 614.00,228.94 C614.00,231.23 609.87,235.00 607.36,235.00 C606.25,235.00 604.37,233.96 603.17,232.69 ZM 654.03 201.25 C652.48,191.59 651.86,190.42 647.84,189.62 C640.98,188.25 636.96,186.87 637.46,186.07 C637.74,185.61 640.92,184.68 644.52,184.00 C648.57,183.23 651.39,182.14 651.92,181.13 C652.40,180.23 653.35,176.00 654.04,171.72 C654.72,167.44 655.64,163.72 656.07,163.46 C656.78,163.02 657.82,167.09 659.58,177.26 C660.36,181.81 660.76,182.10 668.99,184.02 C672.57,184.86 675.50,185.96 675.50,186.48 C675.50,186.99 672.62,187.99 669.10,188.70 C665.58,189.42 662.14,190.47 661.45,191.04 C660.76,191.62 659.68,195.10 659.05,198.79 C656.86,211.72 655.79,212.24 654.03,201.25 ZM 376.64 199.23 C376.37,198.78 375.45,194.49 374.62,189.69 C373.78,184.89 372.85,180.57 372.55,180.08 C372.25,179.60 369.07,178.70 365.48,178.07 C361.89,177.45 357.73,176.47 356.23,175.90 C352.71,174.56 354.24,173.70 363.00,172.08 C366.58,171.42 370.26,170.67 371.18,170.40 C372.45,170.03 373.30,167.43 374.61,159.93 C376.48,149.23 377.93,147.73 379.28,155.08 C381.71,168.34 382.18,169.92 383.81,170.38 C384.74,170.65 389.02,171.62 393.33,172.55 C397.83,173.52 400.79,174.61 400.28,175.12 C399.80,175.60 395.68,176.74 391.12,177.66 C381.64,179.56 381.92,179.22 379.97,191.31 C378.78,198.64 377.77,201.05 376.64,199.23 ZM 310.87 687.43 C291.06,664.39 278.28,638.04 271.87,607.00 C269.82,597.03 269.51,592.84 269.57,575.50 C269.66,553.37 271.13,543.69 277.14,525.75 C280.29,516.33 287.49,501.12 290.50,497.50 L 292.16 495.50 L 291.48 497.50 C291.10,498.60 289.70,502.65 288.36,506.50 C281.84,525.28 278.94,541.16 278.28,561.67 C277.52,585.49 280.88,612.71 282.30,594.23 C283.14,583.34 286.33,571.26 291.01,561.25 C293.13,556.71 295.08,553.00 295.34,553.00 C295.59,553.00 295.18,555.09 294.41,557.63 C289.17,575.04 287.74,608.60 291.37,629.00 C294.67,647.55 304.33,672.60 314.13,688.01 C318.94,695.59 319.18,696.00 318.68,696.00 C318.44,696.00 314.92,692.14 310.87,687.43 ZM 509.67 713.33 C508.40,712.07 508.90,670.50 510.20,669.20 C511.78,667.62 512.54,667.69 514.43,669.57 C515.75,670.89 516.00,674.25 516.00,690.64 C516.00,702.16 515.58,710.92 514.96,712.07 C513.95,713.96 511.00,714.66 509.67,713.33 ZM 476.47 693.72 C475.86,691.29 484.11,668.63 486.52,666.11 C488.06,664.50 490.78,665.25 491.65,667.52 C492.23,669.05 483.82,692.23 481.77,694.75 C480.10,696.80 477.09,696.22 476.47,693.72 ZM 541.31 692.25 C535.35,678.17 532.22,668.46 533.11,666.79 C534.13,664.88 535.73,664.54 537.73,665.81 C538.41,666.24 541.24,672.57 544.03,679.88 C548.03,690.36 548.85,693.47 547.93,694.59 C545.76,697.20 542.99,696.23 541.31,692.25 ZM 445.20 681.80 C444.54,681.14 444.00,680.08 444.00,679.44 C444.00,677.34 462.96,656.00 464.82,656.00 C466.63,656.00 469.00,657.79 469.00,659.16 C469.00,660.01 458.89,672.28 452.85,678.75 C448.71,683.19 447.20,683.80 445.20,681.80 ZM 565.60 671.91 C555.60,660.37 554.04,656.85 558.64,656.19 C560.91,655.87 563.73,658.55 574.47,671.20 C580.53,678.36 581.51,682.21 577.40,682.80 C575.80,683.03 572.98,680.42 565.60,671.91 ZM 491.14 655.54 C472.13,650.52 455.45,640.39 438.12,623.35 L 426.75 612.16 L 429.04 608.95 C432.73,603.76 447.04,589.65 453.00,585.31 C485.35,561.78 517.91,557.41 549.46,572.35 C562.24,578.41 571.87,585.02 582.17,594.82 C594.09,606.17 597.40,610.40 596.13,612.71 C594.34,616.00 577.59,631.94 569.79,637.78 C560.64,644.63 548.70,650.74 537.00,654.55 C529.72,656.92 526.48,657.36 514.50,657.66 C502.11,657.97 499.42,657.72 491.14,655.54 ZM 526.92 640.45 C542.82,631.79 549.28,612.96 541.85,596.91 C532.71,577.20 506.95,571.73 490.67,586.06 C485.49,590.62 480.44,599.87 479.42,606.67 C478.07,615.72 482.92,629.09 489.72,635.06 C493.49,638.37 500.04,641.94 504.50,643.12 C506.15,643.56 510.68,643.78 514.57,643.62 C520.09,643.39 522.79,642.70 526.92,640.45 ZM 476.52 634.04 C471.40,626.42 469.69,619.57 470.18,608.61 C470.51,601.37 471.16,598.27 473.34,593.53 C474.86,590.24 476.82,586.75 477.71,585.77 C480.51,582.67 478.43,582.80 472.87,586.06 C464.15,591.18 455.96,597.37 448.50,604.50 L 441.50 611.18 L 447.52 616.84 C450.83,619.95 455.61,624.19 458.14,626.26 C462.87,630.14 479.14,640.19 479.73,639.61 C479.91,639.43 478.47,636.92 476.52,634.04 ZM 564.00 627.96 C567.58,625.30 573.18,620.40 576.46,617.07 L 582.43 611.01 L 577.96 606.42 C575.51,603.90 570.76,599.64 567.40,596.96 C561.30,592.07 547.27,583.00 545.82,583.00 C545.39,583.00 546.37,585.09 547.99,587.65 C552.70,595.07 554.48,601.49 554.48,611.00 C554.48,620.97 552.52,627.57 547.29,635.17 L 543.74 640.32 L 550.62 636.56 C554.40,634.48 560.42,630.62 564.00,627.96 ZM 426.36 651.50 C425.30,648.74 426.86,647.09 433.93,643.54 C441.99,639.48 443.53,639.25 444.96,641.93 C446.31,644.44 444.60,646.16 436.91,650.04 C430.42,653.32 427.23,653.76 426.36,651.50 ZM 586.50 649.22 C580.69,646.13 579.50,645.07 579.50,643.00 C579.50,639.18 582.95,639.34 590.90,643.52 C598.12,647.31 599.83,649.29 597.89,651.63 C596.17,653.71 594.15,653.28 586.50,649.22 ZM 433.50 578.22 C426.26,574.37 424.38,571.59 427.37,569.11 C428.55,568.13 430.35,568.66 436.79,571.89 C444.89,575.97 446.93,578.17 444.89,580.63 C443.17,582.71 441.15,582.28 433.50,578.22 ZM 579.31 580.36 C578.37,577.92 580.12,575.80 585.58,572.78 C593.32,568.50 595.72,567.86 597.48,569.63 C599.80,571.95 597.92,574.31 590.49,578.40 C583.31,582.34 580.27,582.87 579.31,580.36 ZM 460.15 562.31 C457.59,559.63 452.83,554.15 449.56,550.13 C444.78,544.24 443.83,542.50 444.67,541.16 C446.87,537.68 449.69,539.35 458.40,549.30 C469.86,562.38 470.69,564.02 466.90,566.05 C465.05,567.04 464.25,566.59 460.15,562.31 ZM 556.04 564.54 C554.50,562.69 554.57,562.59 565.83,549.70 C573.02,541.47 575.77,538.97 577.38,539.20 C582.02,539.86 580.48,543.54 570.82,554.91 C561.39,565.98 558.69,567.74 556.04,564.54 ZM 487.19 556.14 C485.73,555.21 476.00,531.54 476.00,528.91 C476.00,526.75 478.58,524.63 480.38,525.32 C481.76,525.84 492.00,550.42 492.00,553.20 C492.00,554.59 490.11,557.01 489.05,556.98 C488.75,556.98 487.91,556.59 487.19,556.14 ZM 533.57 555.43 C532.71,554.56 532.00,553.71 532.00,553.53 C532.00,553.34 533.99,547.95 536.42,541.54 C540.93,529.67 543.33,525.00 544.95,525.00 C546.74,525.00 549.11,528.28 548.48,529.88 C548.12,530.77 546.04,536.22 543.85,542.00 C538.15,557.00 536.84,558.70 533.57,555.43 ZM 510.20 552.80 C509.34,551.94 509.00,545.42 509.00,529.77 C509.00,510.48 509.19,507.86 510.64,507.31 C511.54,506.96 513.00,507.14 513.89,507.70 C515.27,508.57 515.54,511.64 515.77,529.39 C516.04,549.87 515.52,554.00 512.66,554.00 C511.97,554.00 510.86,553.46 510.20,552.80 ZM 536.00 397.74 C542.71,383.43 545.29,373.14 545.40,360.30 C545.52,346.49 544.55,344.88 540.06,351.41 C538.33,353.93 536.75,356.00 536.56,356.00 C536.37,356.00 537.48,352.73 539.04,348.73 C542.93,338.69 545.34,324.20 544.48,316.02 C542.98,301.88 537.05,288.64 523.74,269.70 C506.91,245.76 499.77,223.13 502.51,202.42 L 503.29 196.50 L 505.08 207.43 C508.15,226.20 515.23,242.59 527.59,259.50 C550.14,290.36 553.28,298.65 554.49,330.50 C555.48,356.50 553.00,371.04 544.76,387.50 C542.00,393.02 533.41,406.00 532.51,406.00 C532.30,406.00 533.87,402.29 536.00,397.74 ZM 503.00 630.33 C499.06,628.30 496.55,626.09 494.16,622.50 C491.01,617.79 490.83,617.08 491.17,610.32 C491.37,606.37 491.84,602.82 492.22,602.44 C492.60,602.06 494.32,602.93 496.03,604.38 C497.75,605.82 500.00,607.00 501.03,607.00 C508.71,607.00 512.85,597.76 507.55,592.46 L 505.10 590.01 L 507.61 589.38 C512.49,588.16 519.97,589.60 524.32,592.62 C529.72,596.36 534.00,604.51 534.00,611.07 C534.00,622.02 525.11,631.55 513.89,632.64 C509.32,633.08 507.66,632.73 503.00,630.33 Z" fill="rgba(0,0,0,1)"/>
</g>
</svg>