<svg xmlns="http://www.w3.org/2000/svg" width="1024" height="1024" viewBox="0 0 1024 1024">
<g>
<path d="M 516.50 914.63 C500.28,907.02 479.42,885.75 470.28,867.50 C461.61,850.21 451.26,838.72 436.19,829.65 C431.75,826.98 419.30,821.03 408.53,816.42 C386.48,807.00 378.34,802.55 367.76,794.14 C354.66,783.73 342.85,768.12 335.94,752.11 C332.12,743.25 329.53,735.14 330.28,734.38 C330.51,734.15 332.97,735.78 335.75,737.99 C343.98,744.54 358.14,752.41 367.32,755.53 C372.04,757.13 376.18,758.16 376.52,757.81 C377.49,756.84 374.50,751.74 370.82,748.06 C366.50,743.76 360.78,740.11 342.50,730.03 C323.64,719.62 313.63,712.43 303.03,701.65 C285.50,683.83 275.41,662.39 271.92,635.51 C269.50,616.93 273.08,596.00 285.16,558.00 C294.44,528.81 294.83,511.32 286.61,493.54 C284.63,489.24 283.00,485.53 283.00,485.30 C283.00,485.07 284.38,485.70 286.08,486.69 C291.45,489.85 299.95,499.66 303.05,506.30 C307.74,516.32 308.97,524.25 310.00,551.00 C310.96,576.06 311.59,581.28 315.18,593.50 C321.21,614.06 339.81,639.00 349.11,639.00 C352.46,639.00 354.00,636.65 354.00,631.54 C354.00,625.47 350.53,617.61 341.50,603.26 C323.62,574.85 317.00,555.31 317.00,530.98 C317.00,518.78 318.56,509.99 322.79,498.41 C326.85,487.30 332.08,478.51 345.13,460.84 C362.88,436.82 368.70,424.97 370.48,409.28 C371.81,397.60 367.63,382.18 359.80,369.86 C354.19,361.05 354.36,361.63 357.60,362.41 C361.58,363.36 375.28,371.66 380.65,376.36 C394.66,388.63 404.00,410.56 404.00,431.20 C404.00,443.81 402.04,453.19 395.91,469.84 C389.16,488.20 389.41,490.41 397.79,486.08 C401.68,484.07 409.47,476.41 412.33,471.78 C415.43,466.75 418.04,458.86 419.09,451.32 C420.30,442.57 419.49,436.01 414.78,416.50 C412.08,405.30 411.64,401.63 411.61,390.00 C411.57,375.16 412.76,369.51 418.25,358.50 C427.39,340.16 439.46,328.82 470.45,309.48 C491.59,296.28 496.38,291.25 497.57,281.00 C498.32,274.46 495.75,265.70 490.51,257.00 C474.87,231.00 470.56,213.25 474.46,190.88 C478.40,168.37 489.78,148.22 509.99,127.98 C520.52,117.44 533.72,106.39 534.66,107.33 C534.87,107.54 531.96,114.03 528.19,121.75 C516.86,144.96 513.35,158.86 515.13,173.50 C516.81,187.35 524.38,198.26 544.01,215.17 C580.27,246.40 591.27,265.40 591.16,296.65 C591.10,313.07 586.36,329.24 574.86,352.24 C563.07,375.81 561.53,389.85 568.74,408.00 C571.09,413.91 575.92,422.43 576.55,421.77 C576.69,421.62 576.47,418.35 576.05,414.50 C574.63,401.35 578.10,386.08 585.18,374.31 C587.01,371.27 592.41,364.09 597.19,358.36 C610.80,342.03 613.10,337.24 613.11,325.19 C613.11,316.33 614.23,316.19 618.50,324.50 C621.15,329.67 621.49,331.34 621.48,338.93 C621.46,345.70 620.90,348.97 618.83,354.50 C617.39,358.35 614.95,364.88 613.40,369.00 C610.94,375.58 610.59,377.91 610.55,388.00 C610.49,401.21 611.82,406.24 617.76,415.25 C621.76,421.33 636.93,438.40 637.67,437.66 C637.92,437.41 636.98,433.00 635.59,427.86 C628.37,401.18 632.93,376.20 649.00,354.52 C655.62,345.58 674.90,328.56 676.54,330.21 C676.82,330.48 675.31,334.49 673.18,339.10 C660.54,366.62 658.79,388.53 667.42,411.40 C670.95,420.75 675.03,427.66 684.03,439.50 C688.21,445.00 693.48,452.25 695.76,455.61 C713.40,481.72 718.44,510.29 710.99,541.83 C708.40,552.77 706.01,559.23 700.46,570.27 C693.50,584.11 688.50,590.87 667.36,615.00 C664.22,618.58 660.58,623.87 659.25,626.76 C656.47,632.83 655.48,643.04 656.71,653.00 L 657.51 659.50 L 660.39 654.00 C664.76,645.67 671.58,636.01 684.37,620.00 C695.90,605.59 702.30,595.06 705.35,585.50 C706.23,582.75 707.89,574.20 709.05,566.50 C712.59,542.97 717.56,531.45 729.04,520.15 C734.34,514.93 746.06,507.52 748.00,508.17 C748.55,508.35 747.19,511.42 744.98,515.00 C739.03,524.63 735.77,535.59 735.77,546.00 C735.77,555.24 738.98,570.59 743.34,582.18 C763.45,635.61 747.28,684.78 699.98,714.01 C694.71,717.27 682.91,723.72 673.74,728.36 C664.58,733.00 654.28,738.75 650.84,741.15 C640.59,748.30 635.42,757.02 639.20,760.80 C640.98,762.58 648.95,762.25 655.10,760.14 C670.00,755.01 681.81,747.22 696.75,732.65 C702.94,726.61 708.33,722.00 708.73,722.40 C710.13,723.80 704.92,740.63 700.02,750.50 C689.00,772.71 671.16,789.56 645.50,802.01 C640.00,804.68 624.25,810.68 610.50,815.36 C596.75,820.03 581.56,825.67 576.74,827.89 C547.74,841.23 529.74,860.82 524.39,884.84 C523.07,890.79 522.85,894.96 523.37,904.69 C524.12,918.63 524.34,918.31 516.50,914.63 ZM 503.10 885.02 C501.53,877.73 501.74,866.17 503.59,857.21 C509.04,830.83 527.46,809.64 565.00,786.54 C598.08,766.18 614.89,752.22 627.36,734.74 C634.06,725.36 640.40,711.19 643.58,698.50 C646.16,688.25 646.32,686.34 646.01,670.50 C645.83,661.15 645.64,648.21 645.59,641.75 C645.54,635.29 645.43,630.00 645.35,630.00 C645.26,630.00 643.85,632.36 642.22,635.25 C634.28,649.25 613.87,675.12 599.00,690.02 C581.88,707.17 565.66,719.14 532.00,739.46 C511.64,751.75 502.89,758.26 494.11,767.64 C466.63,796.97 463.62,837.65 486.39,871.82 C491.19,879.02 502.70,891.63 503.63,890.70 C503.94,890.39 503.70,887.83 503.10,885.02 ZM 515.00 875.20 C515.00,872.21 522.42,857.91 527.36,851.37 C539.14,835.78 558.20,822.24 581.21,813.12 C585.22,811.53 596.83,807.43 607.00,804.00 C635.35,794.44 649.18,788.02 661.62,778.60 C667.16,774.40 680.66,761.28 678.50,762.18 C677.95,762.41 673.63,764.48 668.91,766.78 C654.45,773.80 643.07,775.58 635.27,772.04 C630.38,769.82 627.34,765.45 626.42,759.33 L 625.79 755.10 L 619.16 761.73 C610.36,770.53 597.19,780.22 575.96,793.52 C538.19,817.18 523.99,831.24 517.05,851.86 C513.93,861.12 512.00,877.00 514.00,877.00 C514.55,877.00 515.00,876.19 515.00,875.20 ZM 455.13 821.07 C447.34,802.99 439.60,793.27 425.85,784.29 C416.35,778.09 406.14,774.75 386.52,771.44 C373.65,769.27 365.27,767.03 356.50,763.43 C351.59,761.42 365.56,777.07 376.57,785.93 C384.64,792.42 396.01,798.52 413.96,806.00 C435.87,815.13 450.60,823.43 456.47,829.96 C459.74,833.59 459.31,830.75 455.13,821.07 ZM 465.63 790.79 C467.01,787.10 470.36,780.39 473.07,775.88 C475.78,771.37 478.00,767.64 478.00,767.59 C478.00,767.54 473.80,767.65 468.66,767.84 C457.69,768.24 444.76,766.10 435.28,762.30 C422.55,757.20 414.65,750.98 392.50,728.57 C370.59,706.41 364.08,701.13 343.66,688.96 C316.58,672.83 299.78,653.94 290.44,629.13 C288.60,624.23 286.52,617.13 285.82,613.36 C284.71,607.40 284.46,606.89 283.89,609.50 C282.66,615.13 283.00,631.72 284.51,640.39 C288.10,660.96 297.76,679.73 312.09,693.95 C320.69,702.47 331.16,709.70 352.02,721.50 C375.66,734.87 383.66,741.89 388.48,753.50 C390.08,757.35 391.48,760.65 391.61,760.83 C391.73,761.01 395.60,761.98 400.21,762.99 C424.67,768.34 442.55,780.32 455.80,800.25 L 460.39 807.15 L 461.75 802.32 C462.50,799.67 464.25,794.48 465.63,790.79 ZM 484.64 755.03 C488.33,754.21 492.70,751.80 500.14,746.49 C505.84,742.42 517.03,735.16 525.00,730.34 C542.71,719.64 568.09,702.80 570.04,700.45 C570.83,699.50 569.01,700.30 565.99,702.22 C555.97,708.62 542.47,713.75 529.66,716.05 C526.21,716.67 521.52,718.40 519.00,720.00 C506.42,727.98 489.36,734.72 474.72,737.49 C470.35,738.32 461.48,739.00 455.00,739.00 C441.57,739.00 431.21,737.30 418.50,733.00 C413.63,731.36 409.48,730.18 409.27,730.39 C409.06,730.60 411.84,733.41 415.44,736.64 C426.44,746.49 437.65,752.38 451.50,755.58 C458.36,757.17 476.45,756.87 484.64,755.03 ZM 473.79 728.42 C482.60,726.62 494.63,722.69 500.50,719.71 L 504.50 717.67 L 496.50 716.32 C479.11,713.38 464.51,707.12 450.78,696.71 C446.23,693.26 436.88,686.20 430.00,681.03 C414.68,669.50 391.82,646.80 383.15,634.50 C375.57,623.73 368.67,609.92 365.00,598.14 C362.38,589.74 362.29,589.62 361.63,593.14 C360.64,598.44 362.66,621.22 364.97,630.73 C371.84,659.10 388.69,681.92 415.39,699.03 C427.37,706.70 426.62,707.55 412.78,701.96 C392.26,693.67 373.08,675.18 362.00,653.00 C360.77,650.53 359.65,648.38 359.53,648.24 C359.41,648.09 357.59,648.69 355.49,649.57 C346.04,653.52 333.15,645.62 319.51,627.50 C307.66,611.77 299.02,585.09 299.00,564.19 C299.00,560.55 298.61,558.13 298.07,558.46 C297.56,558.77 296.15,563.31 294.94,568.53 C293.05,576.74 292.82,579.95 293.27,592.26 C293.88,609.25 296.16,619.16 302.59,632.87 C310.82,650.42 325.23,666.21 341.54,675.57 C362.71,687.71 367.21,690.59 375.84,697.48 C387.53,706.82 402.09,716.25 411.54,720.61 C418.01,723.60 432.55,728.04 440.00,729.30 C446.53,730.41 466.64,729.89 473.79,728.42 ZM 695.55 702.85 C719.09,687.60 733.31,667.91 738.51,643.37 C740.43,634.31 740.39,617.15 738.42,607.36 C737.55,603.04 735.05,594.33 732.85,588.00 C727.82,573.50 725.02,561.91 725.01,555.55 C724.99,546.87 723.21,551.79 720.49,568.01 C715.75,596.19 711.36,605.66 692.77,627.77 C671.60,652.95 664.05,667.34 656.10,697.62 C653.95,705.80 652.26,712.58 652.35,712.67 C652.96,713.33 682.93,687.77 688.82,681.57 C705.22,664.28 716.21,641.45 719.57,617.65 C720.56,610.64 721.97,613.83 721.98,623.12 C722.01,633.36 719.60,646.51 716.00,655.84 C709.42,672.90 695.55,690.21 675.55,706.32 C662.83,716.56 655.03,723.32 655.01,724.12 C654.99,725.09 687.80,707.88 695.55,702.85 ZM 534.00 703.03 C567.67,694.32 593.07,668.12 601.70,633.24 C604.23,622.99 604.01,601.01 601.25,589.94 C596.88,572.33 590.72,558.24 580.58,542.64 C573.09,531.12 566.91,523.70 550.06,506.00 C533.18,488.27 526.96,480.34 521.09,469.06 C504.72,437.59 503.95,406.89 518.78,376.75 C520.88,372.49 522.29,369.00 521.93,369.00 C520.61,369.00 507.18,383.84 503.26,389.62 C495.14,401.60 491.83,410.25 489.98,424.35 C489.07,431.24 489.22,434.71 490.95,446.76 C493.36,463.52 493.52,473.18 491.52,481.63 C488.21,495.67 481.43,506.44 465.47,523.00 C442.54,546.79 433.78,559.15 426.98,577.32 C421.19,592.80 419.17,616.37 422.34,631.56 C427.83,657.86 445.05,681.44 468.25,694.39 C475.24,698.29 489.92,703.48 498.11,704.94 C506.70,706.47 524.35,705.53 534.00,703.03 ZM 615.79 651.50 C640.52,622.10 653.28,590.67 653.34,559.00 C653.40,527.97 640.69,502.91 619.18,491.65 C615.15,489.54 605.02,485.57 596.68,482.84 C572.79,475.00 562.02,468.90 549.14,455.90 C534.08,440.70 524.54,419.16 523.94,399.00 L 523.80 394.50 L 522.24 399.00 C521.10,402.26 520.64,407.65 520.58,418.50 C520.49,436.15 522.32,444.59 529.50,459.54 C537.59,476.42 549.35,490.30 573.24,511.17 C601.33,535.73 614.22,548.69 623.06,561.29 L 628.00 568.31 L 628.00 558.87 C628.00,547.30 626.23,540.18 620.75,529.64 C615.72,519.97 609.06,511.73 601.52,505.84 C598.47,503.46 596.41,501.36 596.94,501.19 C597.47,501.01 600.96,502.36 604.69,504.18 C619.11,511.23 631.33,526.97 635.62,544.00 C638.54,555.62 636.57,575.46 631.26,587.92 L 629.38 592.33 L 625.63 584.44 C620.27,573.16 612.07,561.26 603.44,552.28 L 595.98 544.50 L 601.37 555.50 C611.78,576.74 615.54,592.31 615.39,613.50 C615.26,631.02 612.90,642.03 606.15,656.43 L 602.16 664.94 L 605.19 662.72 C606.86,661.50 611.63,656.45 615.79,651.50 ZM 415.90 651.03 C409.59,637.97 407.19,609.79 410.83,591.50 C415.85,566.30 426.64,546.73 447.49,525.00 C467.87,503.75 470.90,500.04 475.76,490.22 L 480.50 480.68 L 480.44 467.09 C480.39,454.29 480.13,452.57 476.05,437.50 C470.41,416.62 469.11,409.40 469.07,398.50 C468.98,375.81 477.02,359.19 496.73,341.35 C514.51,325.25 525.15,314.58 529.57,308.41 C537.75,297.03 543.06,283.41 544.58,269.97 C544.95,266.68 545.61,264.00 546.04,264.00 C546.48,264.00 547.13,267.26 547.49,271.25 C548.77,285.22 544.46,300.53 535.42,314.12 C530.22,321.94 522.24,330.32 504.41,346.67 C487.76,361.94 481.34,372.58 479.03,388.73 C478.02,395.73 478.63,408.36 480.10,411.00 C480.80,412.25 480.94,412.21 480.97,410.72 C481.03,407.06 487.28,392.83 491.99,385.62 C498.58,375.51 508.83,364.95 521.75,354.94 C549.43,333.49 559.21,323.47 566.08,309.52 C570.33,300.91 572.97,290.55 572.97,282.50 C572.97,269.78 567.64,255.47 559.06,245.17 C555.11,240.42 531.01,219.00 529.61,219.00 C529.38,219.00 529.92,221.59 530.81,224.75 C533.34,233.76 533.01,250.64 530.12,259.97 C525.94,273.48 518.96,284.99 508.65,295.40 C500.34,303.78 492.97,309.25 473.52,321.47 C464.46,327.17 453.68,334.60 449.57,338.00 C437.85,347.70 429.47,359.62 425.46,372.30 C421.67,384.32 422.02,394.48 426.99,416.68 C431.43,436.48 432.15,448.49 429.56,459.49 C428.78,462.79 428.27,465.61 428.43,465.76 C429.02,466.35 434.04,458.19 436.89,452.00 C442.98,438.81 443.93,428.04 440.99,405.50 C437.73,380.54 447.23,356.10 466.59,339.58 C473.38,333.79 487.54,325.20 488.58,326.24 C488.81,326.48 485.38,329.71 480.95,333.42 C470.43,342.22 461.68,353.32 456.46,364.50 C447.29,384.08 447.01,395.15 454.90,424.61 C458.95,439.74 459.72,450.33 457.55,461.08 C454.34,476.97 449.98,484.88 432.53,506.50 C427.19,513.10 420.61,522.10 417.90,526.49 C409.32,540.38 403.92,557.55 402.40,575.81 C402.01,580.37 401.33,583.73 400.88,583.28 C399.65,582.05 398.28,567.38 398.70,560.00 C399.90,539.48 407.82,522.42 427.49,498.03 C437.81,485.23 443.77,475.42 446.48,466.74 C449.12,458.27 450.46,449.60 448.99,450.51 C448.44,450.84 448.00,451.65 448.00,452.31 C447.99,454.60 440.89,467.31 436.51,472.88 C432.03,478.57 427.61,482.69 410.79,496.89 C381.81,521.34 370.89,542.89 372.27,572.94 C373.46,598.90 385.53,623.21 409.40,647.75 C413.28,651.74 416.76,655.00 417.13,655.00 C417.51,655.00 416.96,653.22 415.90,651.03 ZM 672.55 568.50 C683.25,536.45 680.01,505.58 663.52,482.47 C654.64,470.04 644.55,464.35 625.32,460.96 C609.94,458.24 601.03,455.60 592.87,451.34 C573.59,441.27 557.79,420.68 553.90,400.55 C552.24,392.02 552.75,377.29 554.96,369.35 C556.05,365.42 560.75,354.17 565.40,344.35 C574.26,325.63 577.50,317.15 578.59,309.88 C579.21,305.80 578.94,306.11 574.65,314.50 C572.12,319.45 568.35,325.60 566.27,328.17 C552.55,345.16 548.23,351.00 544.38,357.76 C533.25,377.30 530.53,399.71 537.02,418.56 C540.24,427.91 546.99,439.52 553.26,446.46 C564.59,459.02 577.51,466.44 599.50,473.00 C623.46,480.15 635.03,486.90 645.25,499.67 C654.22,510.88 658.66,520.45 662.75,537.32 C665.33,547.99 665.04,572.31 662.19,585.00 C661.01,590.22 659.81,595.62 659.52,597.00 C658.47,601.93 669.27,578.29 672.55,568.50 ZM 343.01 577.49 C336.48,549.13 338.34,523.30 348.44,502.50 C352.30,494.53 362.00,480.24 362.00,482.51 C362.00,482.98 360.20,487.75 358.00,493.12 C347.38,519.01 345.24,546.17 351.60,574.15 L 353.27 581.49 L 355.49 572.50 C364.03,537.91 371.82,520.41 385.43,505.29 L 390.12 500.08 L 386.64 498.62 C377.90,494.97 377.26,486.04 384.39,467.25 C390.67,450.67 392.22,443.51 392.23,431.00 C392.24,422.28 391.79,419.07 389.52,412.07 C387.31,405.23 382.83,395.98 381.74,396.00 C381.61,396.01 381.48,400.85 381.46,406.75 C381.39,426.76 374.59,442.08 354.05,468.50 C335.91,491.83 328.95,509.06 328.93,530.61 C328.92,543.94 331.31,556.01 336.59,569.28 C340.65,579.48 343.95,586.39 344.50,585.84 C344.70,585.64 344.03,581.88 343.01,577.49 ZM 682.70 577.25 C701.88,547.56 707.37,516.30 698.40,487.85 C694.10,474.20 691.35,469.54 673.11,444.85 C664.08,432.63 656.19,417.48 653.42,407.00 C652.46,403.37 651.42,394.54 651.08,387.00 L 650.46 373.50 L 648.15 380.50 C642.55,397.54 642.95,413.27 649.50,434.00 C653.33,446.10 653.54,450.71 650.49,455.37 C649.09,457.51 649.28,457.76 655.46,461.82 C669.25,470.89 681.08,489.58 685.61,509.50 C688.12,520.50 688.15,543.28 685.68,555.00 C684.19,562.07 679.46,577.15 676.51,584.25 C674.80,588.38 677.44,585.38 682.70,577.25 ZM 634.00 451.00 C634.00,450.45 629.81,445.84 624.70,440.75 C605.02,421.18 598.54,408.17 598.66,388.50 C598.69,383.00 599.22,377.26 599.83,375.75 C601.99,370.44 599.32,373.07 595.26,380.25 C589.80,389.92 587.90,395.91 587.28,405.50 C586.64,415.26 588.42,423.10 593.89,434.57 C597.53,442.22 598.03,442.78 603.30,445.28 C613.56,450.13 634.00,453.94 634.00,451.00 ZM 515.92 266.92 C521.08,256.62 522.36,250.02 521.73,237.02 C521.17,225.54 519.81,220.82 511.64,201.99 C505.26,187.29 503.59,180.36 503.54,168.50 C503.52,163.00 503.83,156.93 504.23,155.00 L 504.96 151.50 L 502.46 154.50 C498.76,158.94 489.34,178.53 487.32,186.00 C486.05,190.71 485.56,196.22 485.57,206.00 C485.58,218.34 485.82,220.15 488.38,227.00 C489.93,231.12 493.82,239.23 497.04,245.00 C505.24,259.72 507.98,266.06 508.68,271.93 C509.44,278.39 510.57,277.61 515.92,266.92 ZM 419.17 885.69 C417.98,884.41 417.00,882.37 417.00,881.14 C417.00,878.16 421.30,874.00 424.38,874.00 C427.09,874.00 431.00,878.14 431.00,881.00 C431.00,881.95 430.07,883.92 428.93,885.37 C426.30,888.71 422.14,888.84 419.17,885.69 ZM 635.16 880.28 C634.65,879.30 633.67,875.83 633.00,872.56 C631.41,864.85 628.30,861.66 620.69,859.96 C613.87,858.43 613.31,856.51 619.25,854.99 C630.25,852.18 630.91,851.35 634.42,835.75 C635.33,831.70 637.79,832.30 638.52,836.75 C638.86,838.81 639.89,842.75 640.83,845.50 C642.67,850.95 645.47,853.01 653.81,855.05 C659.28,856.39 658.81,858.13 652.58,859.69 C643.75,861.91 641.19,864.85 639.05,875.23 C637.75,881.52 636.60,883.01 635.16,880.28 ZM 639.07 854.61 L 636.09 851.63 L 633.38 854.34 L 630.68 857.05 L 633.53 860.03 L 636.38 863.01 L 639.21 860.30 L 642.04 857.58 L 639.07 854.61 ZM 579.00 871.00 C577.90,869.90 577.00,868.41 577.00,867.69 C577.00,862.41 584.70,861.32 586.46,866.35 C587.32,868.81 587.13,869.48 585.12,871.10 C582.18,873.49 581.47,873.47 579.00,871.00 ZM 387.65 851.17 C385.46,848.75 385.57,846.70 388.00,844.50 C392.13,840.76 398.18,846.94 394.44,851.07 C392.24,853.49 389.79,853.53 387.65,851.17 ZM 322.44 834.25 C320.23,824.08 319.89,823.60 313.75,822.04 C307.21,820.39 306.32,818.54 311.59,817.55 C319.51,816.06 320.00,815.49 322.42,804.75 C322.76,803.24 323.47,802.00 324.00,802.00 C324.53,802.00 325.23,803.24 325.56,804.75 C327.79,814.99 328.08,815.39 334.50,817.00 C341.06,818.66 341.80,820.07 336.75,821.29 C328.13,823.38 327.64,823.95 325.53,834.25 C325.22,835.76 324.53,837.00 324.00,837.00 C323.47,837.00 322.77,835.76 322.44,834.25 ZM 695.39 817.57 C694.39,814.98 695.79,812.83 698.25,813.18 C699.90,813.41 700.50,814.17 700.50,816.00 C700.50,817.83 699.90,818.59 698.25,818.82 C696.89,819.01 695.75,818.51 695.39,817.57 ZM 261.93 793.88 C261.01,792.14 261.15,791.41 262.72,789.84 C265.99,786.56 270.17,789.94 267.96,794.07 C266.59,796.63 263.35,796.53 261.93,793.88 ZM 731.36 773.00 C728.74,771.96 726.00,768.22 726.00,765.70 C726.00,763.16 731.36,758.00 734.00,758.00 C736.72,758.00 742.00,763.19 742.00,765.87 C742.00,768.33 738.24,772.65 735.50,773.35 C734.40,773.63 732.54,773.47 731.36,773.00 ZM 292.20 752.80 C288.77,749.37 293.56,742.63 297.82,744.90 C302.62,747.47 300.94,753.94 295.45,753.98 C294.32,753.99 292.86,753.46 292.20,752.80 ZM 235.61 736.89 C235.33,735.58 234.83,731.80 234.50,728.50 C234.17,725.20 233.65,721.05 233.34,719.28 L 232.79 716.07 L 228.24 719.54 C225.73,721.46 223.46,722.79 223.17,722.51 C222.89,722.23 224.14,719.95 225.94,717.44 C227.74,714.93 229.05,712.76 228.86,712.62 C228.66,712.48 224.29,711.86 219.13,711.23 C205.13,709.54 205.16,708.61 219.30,706.87 C224.64,706.22 229.00,705.36 229.00,704.98 C229.00,704.59 227.65,702.58 226.00,700.50 C220.90,694.09 222.11,693.21 228.65,698.57 C231.04,700.53 233.00,701.91 233.00,701.64 C233.00,701.37 233.46,697.62 234.01,693.32 C236.33,675.44 237.11,674.98 238.95,690.47 C239.64,696.26 240.54,701.00 240.96,701.00 C241.38,701.00 243.42,699.65 245.50,698.00 C251.58,693.17 252.88,694.20 247.96,699.96 C246.33,701.87 245.00,703.92 245.00,704.53 C245.00,705.17 248.86,706.15 254.16,706.86 C268.66,708.79 268.22,710.24 252.75,711.53 C247.94,711.93 244.00,712.47 244.00,712.74 C244.00,713.00 245.39,714.96 247.08,717.11 C251.44,722.60 250.30,723.77 244.73,719.52 C242.13,717.53 240.00,716.40 240.00,716.99 C240.00,717.59 239.52,722.45 238.93,727.79 C237.84,737.67 236.53,741.27 235.61,736.89 ZM 776.57 711.43 C774.43,709.29 774.60,706.67 777.00,704.50 C781.13,700.76 787.18,706.94 783.44,711.07 C781.32,713.41 778.69,713.55 776.57,711.43 ZM 795.65 643.17 C792.25,639.41 795.05,632.00 799.87,632.00 C805.48,632.00 809.12,639.77 805.17,643.35 C802.74,645.54 797.72,645.45 795.65,643.17 ZM 238.20 602.80 C237.54,602.14 237.00,600.66 237.00,599.50 C237.00,596.63 238.87,595.00 242.16,595.00 C243.94,595.00 245.33,595.74 246.04,597.07 C248.37,601.43 241.70,606.30 238.20,602.80 ZM 778.20 597.80 C776.56,596.16 776.69,592.50 778.44,591.05 C779.23,590.39 781.14,590.00 782.67,590.18 C786.10,590.57 788.13,594.93 786.05,597.44 C784.52,599.29 779.90,599.50 778.20,597.80 ZM 209.66 569.25 C209.40,568.29 208.93,566.32 208.61,564.88 C208.17,562.93 206.82,561.75 203.26,560.25 C200.35,559.02 199.08,558.05 200.00,557.76 C200.82,557.49 202.85,556.87 204.50,556.37 C206.94,555.63 207.80,554.54 209.11,550.48 L 210.73 545.50 L 211.87 549.63 C213.19,554.39 214.09,555.29 219.26,556.95 C223.56,558.34 223.43,559.46 218.87,560.38 C214.43,561.26 213.08,562.67 212.36,567.13 C211.71,571.21 210.46,572.19 209.66,569.25 ZM 796.65 565.25 C796.35,564.76 795.53,559.55 794.83,553.68 C794.13,547.75 793.11,543.02 792.53,543.04 C791.96,543.06 789.96,544.39 788.09,546.00 C783.46,549.96 782.39,548.82 786.03,543.81 C787.66,541.55 789.00,539.39 789.00,539.01 C789.00,538.63 784.64,537.78 779.30,537.13 C773.97,536.47 769.39,535.73 769.14,535.47 C768.03,534.36 770.48,533.66 778.72,532.75 C791.01,531.38 790.63,531.70 786.49,526.28 C782.23,520.70 783.39,519.56 788.89,523.92 C791.04,525.61 793.00,527.00 793.26,527.00 C793.51,527.00 794.03,523.51 794.41,519.25 C795.97,501.52 797.30,500.03 799.04,514.04 C799.62,518.69 800.31,523.53 800.57,524.79 L 801.06 527.08 L 805.53 523.87 C807.99,522.11 810.26,520.92 810.57,521.24 C810.89,521.56 809.77,523.71 808.09,526.03 C806.41,528.35 805.24,530.58 805.49,530.98 C805.74,531.39 809.22,532.02 813.22,532.38 C821.76,533.15 826.84,534.36 825.38,535.27 C824.81,535.62 820.10,536.44 814.92,537.09 C809.74,537.74 805.33,538.42 805.13,538.59 C804.93,538.76 806.16,540.82 807.88,543.15 C809.60,545.48 811.00,547.77 811.00,548.23 C811.00,549.43 806.97,547.20 803.80,544.24 L 801.11 541.73 L 800.61 544.11 C800.34,545.43 799.62,550.76 799.01,555.97 C797.87,565.70 797.59,566.77 796.65,565.25 ZM 252.65 521.17 C251.74,520.17 251.00,518.82 251.00,518.17 C251.00,516.74 254.62,513.00 256.00,513.00 C257.50,513.00 261.00,516.80 261.00,518.43 C261.00,520.41 258.22,523.00 256.08,523.00 C255.11,523.00 253.57,522.18 252.65,521.17 ZM 743.78 470.46 C735.86,466.10 738.56,454.60 747.50,454.60 C754.73,454.60 758.55,463.03 753.75,468.41 C750.88,471.62 747.24,472.37 743.78,470.46 ZM 792.31 466.36 C791.48,464.21 793.26,461.50 795.50,461.50 C796.48,461.50 797.74,462.23 798.30,463.11 C799.83,465.54 798.42,468.00 795.50,468.00 C794.05,468.00 792.66,467.29 792.31,466.36 ZM 235.15 463.25 C233.70,460.48 235.53,457.00 238.43,457.00 C241.63,457.00 243.51,460.17 242.00,463.00 C240.67,465.48 236.41,465.64 235.15,463.25 ZM 297.17 453.69 C295.98,452.41 295.00,450.37 295.00,449.14 C295.00,446.16 299.30,442.00 302.38,442.00 C305.09,442.00 309.00,446.14 309.00,449.00 C309.00,449.95 308.07,451.92 306.93,453.37 C304.30,456.71 300.14,456.84 297.17,453.69 ZM 712.20 424.80 C709.16,421.76 712.87,415.34 716.86,416.72 C718.86,417.40 721.00,419.94 721.00,421.62 C721.00,425.12 714.77,427.37 712.20,424.80 ZM 329.41 421.50 C327.89,419.18 327.89,418.82 329.41,416.50 C331.34,413.55 334.04,413.29 336.35,415.83 C338.42,418.13 338.45,420.40 336.43,422.43 C334.13,424.73 331.28,424.35 329.41,421.50 ZM 769.52 420.50 C769.23,419.12 768.74,416.76 768.43,415.25 C767.47,410.57 765.34,408.28 761.31,407.57 C752.16,405.95 751.64,404.63 759.53,402.99 C765.82,401.69 767.64,399.71 768.79,392.96 C769.70,387.66 771.59,386.76 772.48,391.20 C774.29,400.20 774.79,400.88 780.83,402.60 C789.68,405.13 789.71,405.83 781.00,407.54 C775.89,408.54 774.19,410.56 772.89,417.13 C771.67,423.34 770.38,424.64 769.52,420.50 ZM 279.66 415.75 C279.35,413.96 278.59,408.00 277.96,402.50 C277.33,397.00 276.66,392.34 276.46,392.14 C276.27,391.94 274.13,393.40 271.70,395.39 C267.67,398.69 265.00,399.90 265.00,398.42 C265.00,398.10 266.66,395.81 268.68,393.34 C273.09,387.96 272.70,387.51 262.63,386.56 C245.27,384.92 243.76,383.76 256.75,382.06 C261.56,381.42 267.17,380.67 269.21,380.37 L 272.92 379.84 L 268.96 374.83 C266.78,372.07 265.00,369.36 265.00,368.80 C265.00,367.60 269.39,370.23 273.05,373.63 C274.46,374.93 275.86,376.00 276.18,376.00 C276.49,376.00 277.28,370.94 277.95,364.75 C280.04,345.28 281.20,344.41 282.97,361.00 C284.75,377.61 284.15,376.72 290.24,371.91 C296.50,366.96 297.63,368.31 292.48,374.59 C290.44,377.07 288.97,379.30 289.20,379.54 C289.44,379.77 294.98,380.67 301.52,381.52 C308.06,382.38 313.61,383.28 313.85,383.51 C314.88,384.55 308.50,385.92 299.59,386.57 C294.29,386.96 289.74,387.61 289.49,388.02 C289.24,388.43 290.59,390.73 292.51,393.13 C298.05,400.11 296.58,401.25 289.51,395.45 L 285.18 391.91 L 284.64 394.70 C284.35,396.24 283.57,402.34 282.91,408.25 C281.69,419.21 280.67,421.56 279.66,415.75 ZM 716.58 358.46 C716.22,357.05 714.85,355.51 713.47,354.99 C710.73,353.95 710.13,352.00 712.55,352.00 C713.40,352.00 714.86,350.65 715.80,349.01 C717.87,345.35 718.60,345.25 719.41,348.50 C719.76,349.88 720.39,351.00 720.83,351.00 C721.26,351.00 722.46,351.61 723.48,352.36 C725.25,353.65 725.19,353.80 722.42,355.12 C720.72,355.93 719.37,357.46 719.18,358.76 C718.75,361.76 717.37,361.60 716.58,358.46 ZM 360.01 330.51 C358.35,328.51 359.46,326.00 362.00,326.00 C363.13,326.00 364.32,326.68 364.64,327.51 C365.22,329.01 363.46,332.00 362.00,332.00 C361.58,332.00 360.69,331.33 360.01,330.51 ZM 398.59 315.79 C396.63,307.12 394.40,304.46 387.31,302.40 C378.96,299.98 379.41,298.84 389.80,296.05 C394.99,294.65 397.27,291.39 398.93,282.96 C400.77,273.58 402.26,274.21 404.94,285.50 C406.72,293.01 409.41,295.25 419.25,297.43 C423.71,298.42 422.52,300.71 416.66,302.41 C408.26,304.85 406.39,306.87 404.46,315.52 C403.44,320.11 402.30,323.00 401.51,323.00 C400.72,323.00 399.58,320.17 398.59,315.79 ZM 404.18 296.99 L 401.64 294.10 L 399.32 296.60 C396.48,299.67 396.47,299.81 399.18,302.70 L 401.37 305.02 L 404.05 302.46 L 406.72 299.89 L 404.18 296.99 ZM 318.45 310.55 C317.10,309.20 316.00,307.15 316.00,306.00 C316.00,303.63 320.18,299.00 322.32,299.00 C323.10,299.00 324.92,299.93 326.37,301.07 C329.91,303.86 329.91,308.14 326.37,310.93 C322.95,313.61 321.45,313.54 318.45,310.55 ZM 668.20 302.80 C667.54,302.14 667.00,300.65 667.00,299.50 C667.00,298.35 667.54,296.86 668.20,296.20 C668.86,295.54 670.34,295.00 671.50,295.00 C672.66,295.00 674.14,295.54 674.80,296.20 C675.46,296.86 676.00,298.35 676.00,299.50 C676.00,300.65 675.46,302.14 674.80,302.80 C674.14,303.46 672.66,304.00 671.50,304.00 C670.34,304.00 668.86,303.46 668.20,302.80 ZM 730.25 299.34 C728.54,298.65 728.67,294.52 730.45,293.04 C732.20,291.59 735.59,292.48 736.40,294.61 C737.76,298.13 734.14,300.91 730.25,299.34 ZM 624.17 292.69 C620.32,288.58 621.64,282.22 626.78,280.09 C632.52,277.71 638.83,282.93 637.51,288.96 C636.20,294.93 628.35,297.13 624.17,292.69 ZM 453.65 276.17 C451.46,273.75 451.57,271.70 454.00,269.50 C456.89,266.88 461.00,268.81 461.00,272.78 C461.00,277.79 456.86,279.71 453.65,276.17 ZM 652.72 256.71 C652.42,255.93 651.62,249.94 650.94,243.40 C650.27,236.85 649.41,230.92 649.05,230.21 C648.56,229.28 647.09,229.91 643.66,232.54 C641.06,234.52 638.45,235.98 637.86,235.79 C637.27,235.59 638.41,233.30 640.39,230.71 C642.38,228.11 644.00,225.57 644.00,225.06 C644.00,224.56 641.41,223.86 638.25,223.52 C635.09,223.17 629.37,222.45 625.54,221.90 C613.90,220.25 614.78,219.55 630.95,217.55 C637.75,216.70 643.53,215.80 643.80,215.53 C644.06,215.27 642.57,212.57 640.47,209.53 C638.38,206.49 636.92,203.75 637.22,203.44 C637.53,203.14 640.29,204.93 643.35,207.42 L 648.92 211.96 L 649.43 208.73 C649.72,206.95 650.44,200.57 651.04,194.55 C652.76,177.21 654.11,177.87 656.02,197.00 C656.70,203.88 657.62,209.89 658.06,210.37 C658.49,210.85 661.13,209.32 663.93,206.96 C666.72,204.61 669.33,203.00 669.72,203.39 C670.48,204.15 670.24,204.57 665.25,211.39 L 662.00 215.82 L 665.75 216.38 C667.81,216.69 673.89,217.46 679.25,218.09 C684.61,218.73 689.00,219.61 689.00,220.06 C689.00,220.89 687.75,221.11 671.28,223.29 L 662.07 224.50 L 666.03 229.69 C668.22,232.54 670.00,235.13 670.00,235.44 C670.00,236.82 667.52,235.73 663.25,232.46 C659.89,229.90 658.44,229.28 657.97,230.21 C657.61,230.92 656.75,237.12 656.06,244.00 C654.84,256.04 653.87,259.72 652.72,256.71 ZM 433.93 243.87 C431.28,238.92 437.43,234.57 441.43,238.57 C443.27,240.41 443.37,241.44 441.96,244.07 C440.51,246.79 435.43,246.67 433.93,243.87 ZM 396.72 224.34 C396.45,223.88 395.70,220.95 395.06,217.83 C393.70,211.25 393.18,210.69 386.58,208.85 C383.87,208.10 381.50,206.99 381.30,206.40 C381.10,205.81 383.39,204.78 386.39,204.11 C389.39,203.44 392.32,202.32 392.89,201.63 C393.47,200.93 394.45,197.92 395.08,194.93 C396.47,188.27 397.68,186.76 398.54,190.61 C400.47,199.09 401.25,201.06 403.25,202.46 C404.46,203.31 406.36,204.02 407.47,204.05 C408.59,204.07 410.85,204.68 412.50,205.41 L 415.50 206.73 L 409.50 208.48 C406.20,209.45 402.96,210.67 402.30,211.20 C401.65,211.72 400.56,214.71 399.90,217.83 C398.65,223.66 397.60,225.81 396.72,224.34 ZM 578.65 184.17 C575.04,180.18 578.11,173.00 583.43,173.00 C588.38,173.00 591.42,179.19 588.59,183.51 C586.57,186.58 581.17,186.95 578.65,184.17 ZM 489.55 839.25 C487.53,821.32 495.76,801.10 511.44,785.46 C521.45,775.47 531.46,768.80 554.50,756.74 C575.81,745.59 581.02,742.48 591.00,734.95 C608.49,721.74 622.86,702.00 629.56,682.00 C631.84,675.19 632.62,677.64 631.04,686.68 C628.09,703.65 619.68,719.21 605.54,733.86 C594.43,745.36 583.99,752.38 558.50,765.47 C548.05,770.83 535.67,777.71 531.00,780.74 C520.26,787.72 507.55,800.43 502.22,809.50 C497.29,817.91 492.97,830.37 492.25,838.28 C491.55,845.93 490.35,846.36 489.55,839.25 ZM 473.29 677.06 C456.17,668.96 441.40,652.55 435.88,635.48 C434.64,631.64 432.13,626.65 430.31,624.40 C428.49,622.14 427.00,619.67 427.00,618.90 C427.01,618.13 428.35,615.47 430.00,613.00 C431.65,610.53 432.99,607.37 433.00,605.98 C433.00,601.52 437.03,588.71 440.68,581.50 C447.70,567.67 459.26,556.17 472.50,549.86 C481.13,545.75 483.74,546.16 476.98,550.57 C469.24,555.62 459.49,565.38 454.56,573.00 C450.69,578.99 445.00,590.92 445.00,593.03 C445.00,593.53 448.77,590.91 453.37,587.22 C473.18,571.33 489.92,565.05 512.62,565.02 C535.04,564.98 556.46,573.69 574.48,590.16 L 579.94 595.15 L 578.00 589.49 C573.63,576.79 563.22,562.39 553.07,555.00 C549.67,552.53 545.67,549.49 544.19,548.26 L 541.50 546.01 L 545.83 547.49 C569.22,555.47 586.58,577.37 590.99,604.47 C591.56,607.94 592.93,611.54 594.47,613.54 C597.73,617.83 597.66,619.75 594.05,624.12 C592.43,626.09 590.12,630.58 588.91,634.10 C581.88,654.66 567.12,670.86 548.86,678.06 C541.56,680.93 540.90,680.02 547.23,675.81 C554.34,671.09 564.09,662.01 568.35,656.16 C572.06,651.06 579.23,637.90 578.64,637.30 C578.43,637.10 574.61,639.45 570.14,642.53 C549.24,656.92 525.96,663.33 503.12,660.96 C485.62,659.15 471.17,653.86 455.52,643.54 C450.29,640.09 446.00,637.70 446.00,638.23 C446.00,640.56 453.57,653.30 458.50,659.28 C461.45,662.86 467.95,668.84 472.94,672.56 C477.92,676.28 482.00,679.48 482.00,679.66 C482.00,680.63 478.84,679.69 473.29,677.06 ZM 524.77 646.00 C531.66,643.04 539.23,634.85 541.56,627.82 C546.48,613.00 539.85,595.90 527.69,592.02 C522.92,590.50 501.88,590.40 496.46,591.87 C491.82,593.13 487.24,597.54 483.86,604.00 C481.90,607.75 481.51,609.99 481.52,617.50 C481.52,625.31 481.87,627.17 484.18,631.56 C486.82,636.59 492.67,642.68 497.16,645.09 C505.34,649.49 515.86,649.83 524.77,646.00 ZM 546.87 645.12 C554.75,641.91 570.83,631.47 578.50,624.58 L 583.50 620.09 L 580.50 617.56 C572.60,610.92 549.60,597.07 548.42,598.24 C548.22,598.45 548.98,601.07 550.12,604.06 C551.84,608.55 552.13,611.17 551.82,619.08 C551.49,627.41 551.03,629.49 548.25,635.08 C546.50,638.61 543.68,642.96 541.98,644.75 C540.29,646.54 539.10,648.00 539.35,648.00 C539.59,648.00 542.98,646.70 546.87,645.12 ZM 481.10 643.25 C479.45,641.19 476.84,636.80 475.30,633.50 C472.78,628.11 472.50,626.44 472.53,617.00 C472.56,609.28 473.02,605.47 474.30,602.60 C475.25,600.45 475.82,598.49 475.57,598.24 C474.16,596.83 440.86,617.85 441.08,620.00 C441.17,620.97 453.69,631.26 459.56,635.20 C466.16,639.63 480.65,647.00 482.74,647.00 C483.58,647.00 482.96,645.58 481.10,643.25 ZM 478.40 586.98 C506.59,577.39 532.72,579.39 559.94,593.23 C568.04,597.35 569.03,597.66 566.94,595.42 C565.60,593.99 560.63,590.22 555.90,587.05 C534.82,572.93 511.36,569.37 489.00,576.89 C478.34,580.47 466.97,586.90 459.50,593.56 L 454.50 598.02 L 462.23 593.93 C466.48,591.69 473.75,588.56 478.40,586.98 ZM 504.98 555.15 C500.16,552.58 495.89,546.23 495.27,540.68 C494.19,531.12 501.81,522.21 511.89,521.24 C517.33,520.71 519.76,522.45 515.05,523.49 C511.23,524.33 506.28,529.98 505.44,534.46 C504.18,541.21 511.39,550.00 518.18,550.00 C519.77,550.00 522.69,549.32 524.69,548.49 C526.68,547.65 528.48,547.15 528.69,547.36 C529.53,548.20 523.83,553.85 520.61,555.38 C516.07,557.53 509.28,557.43 504.98,555.15 ZM 509.50 637.49 C508.95,637.32 507.25,636.90 505.72,636.56 C501.61,635.65 495.35,629.49 493.43,624.45 C489.66,614.59 493.67,604.34 503.13,599.62 C507.60,597.40 516.00,595.98 516.00,597.46 C516.00,597.71 514.88,599.57 513.50,601.60 C512.12,603.62 511.00,606.45 511.00,607.89 C511.01,613.38 517.46,620.00 522.81,620.00 C523.86,620.00 526.36,618.89 528.36,617.53 L 532.00 615.06 L 532.00 618.47 C532.00,620.34 531.52,623.14 530.94,624.68 C529.67,628.05 524.48,633.67 521.00,635.45 C518.40,636.77 511.24,638.05 509.50,637.49 Z" fill="rgba(0,0,0,1)"/>
</g>
</svg>