<svg xmlns="http://www.w3.org/2000/svg" width="1024" height="1024" viewBox="0 0 1024 1024">
<g>
<path d="M 338.04 947.07 C336.70,944.56 336.71,944.43 338.57,942.57 C339.78,941.37 342.33,941.00 349.57,941.00 L 359.00 941.00 L 359.00 931.17 C359.00,921.92 359.15,921.21 361.56,918.94 C362.97,917.62 365.02,915.09 366.10,913.33 C367.19,911.57 369.08,909.99 370.29,909.81 L 372.50 909.50 L 372.76 847.67 L 373.02 785.83 L 367.51 777.84 C364.48,773.44 362.00,769.09 362.00,768.17 C362.01,767.25 364.48,763.73 367.51,760.34 C371.98,755.33 373.75,754.05 377.00,753.50 L 381.00 752.82 L 380.97 726.16 L 380.93 699.50 L 378.94 701.89 C377.85,703.21 376.78,704.11 376.57,703.89 C376.35,703.68 377.64,697.42 379.43,690.00 C382.20,678.48 382.46,676.35 381.24,675.44 C379.10,673.86 380.07,669.56 382.65,669.19 C386.44,668.65 387.18,661.79 383.75,658.97 C381.92,657.47 381.71,656.78 382.61,655.31 C383.22,654.32 384.56,653.50 385.58,653.50 C386.96,653.50 387.65,652.42 388.27,649.30 C388.97,645.74 388.79,644.79 387.07,643.07 C385.15,641.15 385.17,638.15 387.11,637.88 C387.60,637.81 388.55,637.69 389.22,637.62 C389.89,637.56 390.79,635.50 391.20,633.06 C391.84,629.31 391.65,628.32 389.97,626.76 C388.40,625.30 388.20,624.49 389.03,622.95 C389.60,621.88 390.70,621.00 391.47,621.00 C393.38,621.00 394.68,612.32 393.14,609.85 C391.50,607.23 391.73,605.30 393.86,603.81 C395.18,602.88 395.85,600.84 396.19,596.71 C396.46,593.53 397.18,590.42 397.79,589.81 C399.57,588.03 402.00,590.74 402.00,594.50 C402.00,599.68 403.14,604.00 404.52,604.00 C406.56,604.00 407.17,607.10 405.60,609.49 C403.60,612.55 404.61,620.09 407.12,620.74 C409.70,621.42 410.50,624.79 408.59,626.90 C405.93,629.84 406.89,636.48 410.09,637.31 C412.94,638.06 413.52,640.79 411.37,643.30 C408.73,646.38 409.27,652.75 412.20,653.19 C413.35,653.36 414.79,654.32 415.40,655.31 C416.29,656.77 416.08,657.47 414.32,658.91 C412.53,660.39 412.24,661.41 412.70,664.80 C413.13,668.00 413.71,668.96 415.37,669.20 C417.62,669.52 417.74,670.51 416.42,678.25 C416.07,680.31 416.09,683.21 416.46,684.69 C417.07,687.13 417.73,686.29 423.57,675.64 L 430.00 663.91 L 430.00 552.10 C430.00,473.00 429.68,439.30 428.89,436.90 C428.28,435.03 425.54,428.81 422.81,423.08 C418.66,414.41 418.00,412.29 418.87,410.39 C419.70,408.56 420.84,408.05 424.70,407.81 L 429.50 407.50 L 429.81 390.50 C429.98,381.15 429.83,369.30 429.46,364.17 L 428.80 354.84 L 426.24 357.17 C424.61,358.66 423.88,358.94 424.23,357.95 C424.53,357.10 426.02,350.83 427.54,344.01 C429.76,334.02 430.08,331.06 429.21,328.74 C427.86,325.18 428.60,323.00 431.14,323.00 C433.21,323.00 433.53,322.42 434.44,316.87 C434.95,313.80 434.74,313.16 433.02,312.72 C431.65,312.36 431.00,311.36 431.00,309.59 C431.00,307.50 431.48,307.00 433.48,307.00 C435.32,307.00 436.10,306.36 436.48,304.50 C436.77,303.12 437.23,300.89 437.51,299.54 C437.88,297.75 437.46,296.78 435.95,295.97 C433.22,294.51 433.70,290.61 436.66,290.19 C438.47,289.93 438.99,288.85 439.96,283.33 C440.95,277.61 440.89,276.54 439.46,274.96 C437.37,272.65 437.91,269.77 440.64,268.56 C442.77,267.62 443.97,262.56 443.99,254.36 C444.00,250.96 446.35,249.21 448.50,251.00 C449.20,251.58 449.95,255.39 450.23,259.72 C450.52,264.24 451.20,267.57 451.88,267.79 C453.43,268.31 456.00,270.93 456.00,272.00 C456.00,272.47 455.26,273.60 454.35,274.50 C452.89,275.97 452.85,276.93 453.94,283.08 C454.95,288.69 455.53,290.00 457.02,290.00 C459.83,290.00 460.68,294.03 458.28,295.97 C456.67,297.28 456.42,298.35 456.90,301.82 C457.23,304.16 457.95,306.10 458.50,306.14 C462.71,306.39 464.65,311.34 461.00,312.50 C458.85,313.18 458.66,314.05 459.62,318.85 C459.97,320.58 461.04,322.19 462.06,322.52 C463.06,322.83 464.03,324.09 464.22,325.30 C464.53,327.31 464.70,327.23 466.28,324.30 C467.84,321.41 468.00,316.72 468.00,275.25 C468.00,227.56 468.05,227.00 472.16,227.00 C474.87,227.00 475.99,230.17 476.10,238.18 L 476.20 245.50 L 478.30 236.07 C479.88,228.96 480.10,226.53 479.18,226.23 C477.69,225.73 474.99,223.11 475.02,222.18 C475.06,220.36 476.96,218.88 479.53,218.69 C482.05,218.49 482.53,217.90 483.67,213.48 C485.33,207.07 485.41,207.51 482.43,206.15 C478.65,204.43 479.41,200.61 483.62,200.20 C486.55,199.91 486.81,199.55 487.87,194.28 C488.49,191.19 488.89,188.63 488.75,188.58 C486.26,187.75 484.50,185.81 484.50,183.89 C484.50,181.93 485.08,181.44 487.69,181.19 C490.69,180.90 490.95,180.55 492.03,175.36 C492.66,172.33 493.02,169.76 492.84,169.67 C489.46,167.96 488.50,166.90 488.50,164.89 C488.50,162.94 489.08,162.44 491.65,162.19 C494.45,161.92 494.91,161.41 495.90,157.50 C497.35,151.72 497.29,150.00 495.62,150.00 C493.47,150.00 491.77,147.31 492.48,145.05 C492.94,143.61 493.99,143.00 496.02,143.00 C498.50,143.00 499.05,142.48 499.95,139.25 C501.49,133.68 501.25,131.21 499.09,130.53 C494.74,129.15 495.61,124.27 500.30,123.81 C503.24,123.52 503.50,123.17 504.56,117.84 C505.66,112.33 505.62,112.15 503.28,111.08 C501.44,110.24 500.94,109.34 501.18,107.25 C501.43,105.09 502.13,104.40 504.50,104.00 L 507.50 103.49 L 508.00 90.49 C508.27,83.35 508.86,76.94 509.31,76.25 C510.53,74.36 513.80,74.75 514.96,76.93 C515.53,78.00 516.01,83.96 516.02,90.18 C516.02,96.41 516.36,102.02 516.77,102.65 C517.17,103.28 518.62,103.96 520.00,104.15 C523.64,104.66 524.11,109.54 520.68,111.10 C518.53,112.08 518.32,112.62 519.01,115.36 C519.45,117.09 520.08,119.74 520.42,121.25 C520.88,123.30 521.64,124.00 523.40,124.00 C528.12,124.00 529.45,129.55 524.99,130.71 C522.70,131.31 522.58,132.43 524.10,138.50 C525.09,142.41 525.55,142.92 528.35,143.19 C530.92,143.44 531.50,143.94 531.50,145.89 C531.50,147.81 529.74,149.75 527.25,150.58 C527.11,150.63 527.51,153.19 528.13,156.28 C529.19,161.55 529.45,161.91 532.38,162.20 C534.94,162.45 535.56,162.99 535.81,165.22 C536.07,167.44 535.64,168.05 533.49,168.59 C531.42,169.11 530.96,169.72 531.36,171.38 C531.63,172.54 532.17,175.19 532.54,177.25 C533.13,180.52 533.58,181.00 535.99,181.00 C541.28,181.00 542.39,186.36 537.36,187.62 C535.73,188.03 535.09,188.77 535.40,189.87 C535.65,190.76 536.16,193.45 536.53,195.83 C537.14,199.75 537.43,200.11 539.53,199.58 C541.77,199.02 545.00,201.04 545.00,203.00 C545.00,204.33 542.01,207.00 540.52,207.00 C539.16,207.00 539.19,207.42 541.16,215.30 C541.92,218.35 542.47,218.99 543.95,218.52 C545.73,217.95 549.00,220.21 549.00,222.00 C549.00,223.05 546.44,225.69 544.92,226.19 C544.14,226.45 544.36,229.22 545.66,235.53 L 547.50 244.50 L 548.00 237.00 C548.55,228.78 549.24,227.00 551.86,227.00 C555.95,227.00 556.00,227.61 556.00,275.25 C556.00,316.72 556.16,321.41 557.72,324.30 C559.32,327.27 559.47,327.34 559.79,325.25 C559.98,324.01 560.79,323.00 561.59,323.00 C564.94,323.00 566.09,314.16 563.00,312.23 C561.90,311.55 561.00,310.33 561.00,309.53 C561.00,308.09 563.54,306.21 565.50,306.19 C566.05,306.18 566.83,304.22 567.24,301.84 C567.88,298.08 567.70,297.28 565.84,295.88 C563.43,294.06 563.86,291.36 566.73,290.30 C569.30,289.35 569.77,288.29 570.53,281.76 C571.07,277.06 570.88,275.53 569.58,274.09 C567.70,272.01 568.37,269.33 570.98,268.50 C573.21,267.80 573.97,265.12 573.99,257.87 C574.00,254.13 574.50,251.83 575.49,251.01 C577.86,249.04 580.00,250.56 580.01,254.22 C580.01,256.02 580.30,259.82 580.64,262.65 C581.13,266.77 581.73,268.01 583.63,268.88 C586.36,270.12 586.69,272.58 584.45,275.05 C583.12,276.53 583.07,277.66 584.12,283.33 C585.12,288.76 585.69,289.96 587.41,290.20 C590.20,290.60 590.74,294.52 588.23,296.09 C586.56,297.13 586.45,297.83 587.30,302.13 C588.11,306.24 588.62,307.00 590.53,307.00 C593.72,307.00 594.63,310.07 592.06,312.15 C588.82,314.78 589.64,323.00 593.15,323.00 C595.69,323.00 596.57,325.58 595.01,328.48 C593.82,330.70 595.27,339.55 599.67,357.00 L 600.30 359.50 L 597.65 357.08 L 595.00 354.65 L 595.00 381.33 L 595.00 408.00 L 599.30 408.00 C603.61,408.00 606.00,409.31 606.00,411.66 C606.00,412.35 604.17,416.65 601.94,421.21 C593.22,439.00 594.00,426.10 594.00,552.17 L 594.00 664.03 L 600.18 675.00 C603.58,681.04 606.56,685.77 606.81,685.53 C607.05,685.28 607.60,683.18 608.02,680.87 C608.60,677.71 608.43,676.29 607.34,675.20 C605.28,673.14 606.05,669.56 608.63,669.20 C610.29,668.96 610.87,668.00 611.30,664.80 C611.76,661.41 611.47,660.39 609.68,658.91 C607.90,657.45 607.71,656.79 608.64,655.31 C609.26,654.32 610.51,653.56 611.40,653.64 C612.93,653.77 613.56,652.38 614.22,647.36 C614.37,646.18 613.66,644.28 612.63,643.15 C610.48,640.77 611.08,638.05 613.93,637.31 C616.73,636.58 617.80,629.54 615.51,627.01 C613.50,624.80 614.24,621.43 616.88,620.74 C619.45,620.07 620.62,611.48 618.43,609.29 C617.58,608.44 617.14,607.09 617.44,606.29 C617.75,605.49 618.00,604.65 618.00,604.42 C618.00,604.19 618.62,604.00 619.38,604.00 C621.05,604.00 621.97,600.95 621.99,595.37 C621.99,592.89 622.61,590.74 623.54,589.96 C625.96,587.95 627.31,590.18 627.81,597.02 C628.14,601.62 628.69,603.30 630.12,604.07 C632.26,605.21 632.52,607.20 630.86,609.85 C629.09,612.69 630.61,620.67 633.05,621.30 C635.31,621.89 635.60,624.65 633.64,626.92 C631.43,629.48 632.71,635.94 635.64,637.05 C639.15,638.39 639.77,640.96 637.10,643.12 C635.13,644.72 634.97,645.42 635.72,649.21 C636.35,652.41 637.03,653.50 638.42,653.50 C639.44,653.50 640.78,654.32 641.39,655.31 C642.29,656.78 642.08,657.47 640.25,658.97 C636.82,661.79 637.56,668.65 641.34,669.19 C643.91,669.56 644.65,672.42 642.98,675.54 C641.97,677.43 642.23,679.84 644.51,689.66 C646.02,696.17 647.50,702.17 647.79,703.00 C648.10,703.87 647.21,703.48 645.66,702.08 L 643.00 699.65 L 643.00 726.24 L 643.00 752.82 L 646.97 753.49 C650.12,754.03 652.07,755.39 656.47,760.14 C659.51,763.43 662.00,767.01 662.00,768.10 C662.00,769.20 659.73,773.45 656.96,777.56 L 651.92 785.03 L 651.81 847.27 L 651.69 909.50 L 653.80 909.81 C654.97,909.99 656.81,911.57 657.90,913.33 C658.98,915.09 661.03,917.62 662.44,918.94 C664.85,921.21 665.00,921.92 665.00,931.17 L 665.00 941.00 L 674.43 941.00 C683.94,941.00 687.00,942.06 687.00,945.37 C687.00,949.04 689.10,949.00 511.84,949.00 C342.05,949.00 339.05,948.97 338.04,947.07 ZM 378.33 933.46 L 386.15 926.00 L 376.58 926.00 L 367.00 926.00 L 367.00 933.50 C367.00,943.25 368.06,943.25 378.33,933.46 ZM 396.45 939.25 C396.04,938.29 395.49,936.04 395.24,934.25 C394.99,932.46 394.53,931.00 394.23,931.00 C393.50,931.00 383.08,939.06 382.41,940.15 C382.12,940.62 385.33,941.00 389.55,941.00 C396.47,941.00 397.14,940.83 396.45,939.25 ZM 425.47 934.89 C416.17,925.36 408.68,922.79 403.43,927.31 C400.05,930.21 399.84,934.64 402.97,937.18 C405.87,939.53 409.45,937.98 408.44,934.81 C407.62,932.22 409.71,930.78 412.29,932.16 C413.78,932.95 414.11,934.02 413.82,937.09 L 413.45 941.00 L 422.44 941.00 L 431.44 941.00 L 425.47 934.89 ZM 470.99 937.75 C469.90,935.96 469.01,933.49 469.00,932.25 C469.00,931.01 468.74,930.00 468.43,930.00 C468.12,930.00 465.75,931.75 463.18,933.88 C460.61,936.02 457.15,938.48 455.50,939.34 C452.59,940.87 452.80,940.92 462.74,940.96 L 472.97 941.00 L 470.99 937.75 ZM 507.00 938.49 C502.24,925.98 494.90,919.00 486.49,919.00 C478.83,919.00 473.19,924.89 474.45,931.59 C475.55,937.46 482.75,940.15 486.44,936.06 C488.30,934.01 487.87,932.40 484.85,930.22 C482.37,928.43 483.65,926.00 487.08,926.00 C492.21,926.00 494.43,932.60 491.55,939.25 C490.86,940.84 491.57,941.00 499.37,941.00 L 507.95 941.00 L 507.00 938.49 ZM 532.45 939.25 C532.02,938.29 531.48,935.86 531.24,933.85 C530.73,929.50 533.53,926.00 537.53,926.00 C541.16,926.00 541.66,928.52 538.56,931.22 C536.08,933.37 536.02,933.62 537.52,935.75 C539.73,938.88 544.36,938.73 547.67,935.42 C549.87,933.22 550.16,932.24 549.68,928.67 C548.02,916.28 531.03,915.66 522.73,927.69 C520.04,931.57 517.00,938.10 517.00,939.97 C517.00,940.59 520.20,941.00 525.11,941.00 C532.45,941.00 533.14,940.84 532.45,939.25 ZM 565.41 937.17 C562.16,935.07 558.89,932.60 558.14,931.68 C556.49,929.67 555.00,930.37 555.00,933.15 C555.00,934.27 554.07,936.50 552.93,938.10 L 550.86 941.00 L 561.09 941.00 L 571.31 941.00 L 565.41 937.17 ZM 610.18 937.09 C609.89,934.02 610.22,932.95 611.71,932.16 C614.29,930.78 616.38,932.22 615.56,934.81 C615.08,936.33 615.50,937.19 617.14,938.07 C619.09,939.12 619.66,938.93 621.72,936.54 C624.47,933.34 624.08,930.63 620.36,927.25 C615.45,922.78 607.98,925.42 598.53,934.97 L 592.56 941.00 L 601.56 941.00 L 610.55 941.00 L 610.18 937.09 ZM 642.00 940.50 C642.00,940.22 639.19,937.92 635.75,935.39 L 629.50 930.79 L 628.89 934.15 C628.55,935.99 627.94,938.29 627.53,939.25 C626.86,940.83 627.53,941.00 634.39,941.00 C638.58,941.00 642.00,940.77 642.00,940.50 ZM 657.00 933.50 L 657.00 926.00 L 647.42 926.00 L 637.85 926.00 L 645.67 933.46 C655.94,943.25 657.00,943.25 657.00,933.50 ZM 449.53 935.90 C453.74,934.33 457.45,931.63 464.48,925.02 C475.36,914.79 480.21,912.39 488.11,913.33 C494.09,914.03 500.78,917.68 504.50,922.25 L 507.14 925.50 L 506.49 922.00 C506.13,920.08 504.22,915.00 502.25,910.72 C496.06,897.31 486.72,891.28 481.00,897.00 C478.57,899.43 478.46,901.74 480.65,904.17 C482.84,906.58 484.44,906.48 486.20,903.82 C487.98,901.14 491.00,901.97 491.00,905.14 C491.00,908.85 488.17,911.00 483.30,911.00 C477.98,911.00 474.47,908.02 473.46,902.64 L 472.79 899.05 L 468.32 902.12 C463.57,905.39 446.04,914.00 444.13,914.00 C442.52,914.00 442.72,914.82 445.00,917.73 C448.86,922.63 446.40,931.00 441.11,931.00 C438.50,931.00 437.61,928.09 439.56,925.93 C442.20,923.01 441.02,920.54 436.80,920.19 C432.04,919.80 429.44,923.18 430.32,928.61 C431.02,932.93 432.54,934.89 436.50,936.61 C440.69,938.44 443.09,938.31 449.53,935.90 ZM 587.40 936.61 C591.55,934.87 594.00,931.49 594.00,927.50 C594.00,922.86 591.51,920.00 587.48,920.00 C582.98,920.00 581.16,922.93 584.03,925.53 C587.51,928.67 586.03,931.73 581.57,930.61 C576.73,929.39 575.85,920.96 580.09,916.41 L 582.04 914.33 L 577.77 913.05 C572.46,911.46 560.89,905.69 555.25,901.82 C551.19,899.04 551.00,899.00 551.00,901.00 C551.00,909.50 538.97,915.08 534.47,908.66 C531.20,903.99 534.58,899.46 537.97,903.96 C541.69,908.89 547.03,902.75 543.59,897.49 C541.15,893.77 535.19,894.01 530.62,898.03 C525.85,902.22 521.14,909.87 518.89,917.09 C516.32,925.37 516.43,925.57 520.95,921.05 C526.06,915.94 530.01,913.96 536.44,913.29 C543.69,912.55 549.45,915.31 558.34,923.81 C567.04,932.13 570.90,934.86 576.34,936.57 C581.79,938.27 583.40,938.28 587.40,936.61 ZM 425.74 921.88 L 426.91 918.77 L 423.83 919.38 C422.14,919.72 419.91,920.00 418.88,920.00 C416.02,920.00 416.63,921.45 420.25,923.25 C424.57,925.40 424.39,925.45 425.74,921.88 ZM 603.90 923.11 C607.71,921.07 607.32,920.53 601.31,919.54 L 597.11 918.84 L 598.28 921.92 C599.62,925.49 599.48,925.46 603.90,923.11 ZM 401.00 918.00 L 405.50 916.11 L 389.95 916.06 C374.99,916.00 372.00,916.53 372.00,919.20 C372.00,919.64 377.51,919.97 384.25,919.94 C393.91,919.90 397.45,919.49 401.00,918.00 ZM 652.00 919.20 C652.00,916.53 649.01,916.00 634.05,916.06 L 618.50 916.11 L 623.00 918.00 C626.55,919.49 630.09,919.90 639.75,919.94 C646.49,919.97 652.00,919.64 652.00,919.20 ZM 408.00 868.71 C408.00,834.84 407.72,826.36 406.47,821.53 C404.68,814.68 400.75,807.05 397.36,803.87 L 394.98 801.63 L 391.45 805.05 C387.32,809.05 383.68,816.36 382.11,823.80 C381.40,827.19 381.00,843.65 381.00,869.55 L 381.00 910.00 L 394.50 910.00 L 408.00 910.00 L 408.00 868.71 ZM 433.25 908.47 C434.88,907.83 435.00,904.93 434.99,867.14 C434.98,826.53 434.98,826.50 432.62,821.50 C431.33,818.75 429.13,815.45 427.74,814.18 L 425.21 811.85 L 422.49 815.42 C417.18,822.39 417.09,823.23 417.04,868.39 L 417.00 910.29 L 424.25 909.73 C428.24,909.42 432.29,908.85 433.25,908.47 ZM 607.00 868.74 C607.00,844.88 606.59,826.05 606.02,824.08 C604.79,819.76 600.14,813.00 598.41,813.00 C596.55,813.00 592.31,818.88 590.52,823.94 C589.26,827.52 589.00,835.00 589.00,868.07 L 589.00 907.88 L 593.25 908.83 C595.59,909.36 599.64,909.83 602.25,909.89 L 607.00 910.00 L 607.00 868.74 ZM 642.80 866.20 L 642.50 822.39 L 638.75 814.95 C634.12,805.75 630.73,801.51 628.66,802.30 C626.06,803.30 620.05,813.17 617.98,819.86 C616.14,825.76 616.00,829.20 616.00,868.11 L 616.00 910.00 L 629.55 910.00 L 643.10 910.00 L 642.80 866.20 ZM 506.54 897.78 C505.66,894.33 503.37,888.16 501.44,884.07 L 497.93 876.64 L 491.93 882.57 L 485.93 888.50 L 489.71 889.41 C494.16,890.47 503.79,899.70 506.06,905.08 C507.32,908.06 507.54,908.22 507.82,906.28 C507.99,905.06 507.41,901.23 506.54,897.78 ZM 526.22 894.21 C527.60,892.94 530.80,891.12 533.34,890.16 L 537.97 888.40 L 532.02 882.52 L 526.07 876.64 L 522.57 884.07 C518.96,891.71 516.00,901.55 516.00,905.87 C516.00,907.86 516.71,907.22 519.86,902.41 C521.98,899.16 524.84,895.47 526.22,894.21 ZM 452.00 901.71 L 458.50 898.50 L 458.50 862.50 L 458.50 826.50 L 455.75 820.91 C454.24,817.83 452.08,814.48 450.95,813.46 C448.93,811.63 448.85,811.65 446.47,814.55 C445.14,816.17 443.14,819.88 442.03,822.79 C440.12,827.77 440.00,830.31 440.00,867.15 L 440.00 906.22 L 442.75 905.57 C444.26,905.22 448.42,903.48 452.00,901.71 ZM 583.99 866.25 L 583.98 826.50 L 581.60 821.50 C580.29,818.75 578.57,815.66 577.78,814.63 C574.11,809.84 567.72,817.96 566.04,829.55 C565.49,833.37 565.03,850.28 565.02,867.13 C565.00,892.47 565.25,897.96 566.43,898.94 C568.19,900.40 581.03,905.94 582.75,905.97 C583.73,905.99 584.00,897.40 583.99,866.25 ZM 513.40 891.75 C513.75,889.96 515.87,884.80 518.11,880.28 L 522.18 872.06 L 518.60 866.16 C516.62,862.91 514.39,858.77 513.62,856.95 L 512.23 853.65 L 510.49 857.07 C509.53,858.96 507.20,863.04 505.30,866.15 L 501.84 871.79 L 505.90 880.18 C508.14,884.80 510.25,890.02 510.61,891.79 C511.43,895.90 512.57,895.89 513.40,891.75 ZM 470.02 836.71 L 470.04 782.50 L 472.91 774.50 C474.49,770.10 476.10,765.71 476.50,764.75 C477.13,763.21 476.55,763.00 471.61,763.00 L 466.00 763.00 L 466.00 828.04 C466.00,892.76 466.01,893.07 468.00,892.00 C469.96,890.95 470.00,889.90 470.02,836.71 ZM 558.00 828.00 L 558.00 763.00 L 552.50 763.00 C549.47,763.00 547.00,763.18 547.00,763.40 C547.00,763.62 548.58,767.88 550.50,772.86 L 554.00 781.92 L 554.00 836.41 C554.00,887.25 554.12,890.97 555.75,891.92 C556.71,892.48 557.61,892.95 557.75,892.97 C557.89,892.99 558.00,863.75 558.00,828.00 ZM 480.01 850.60 C480.01,815.93 480.55,809.98 484.55,799.94 C489.29,788.04 503.26,772.30 510.81,770.35 C516.29,768.93 531.37,783.13 537.54,795.50 C543.34,807.15 543.96,812.36 543.98,849.60 C544.00,881.41 544.08,882.76 546.00,884.50 C548.00,886.31 548.00,886.25 548.00,849.37 C548.00,808.10 547.76,806.07 541.25,793.00 C536.96,784.40 525.78,772.35 517.35,767.26 L 512.21 764.15 L 505.98 767.82 C497.52,772.81 487.19,784.06 482.69,793.19 C476.42,805.91 476.03,809.17 476.01,849.90 C476.00,886.25 476.00,886.31 478.00,884.50 C479.92,882.76 480.00,881.42 480.01,850.60 ZM 493.09 869.00 C499.32,861.24 505.46,848.98 507.04,841.16 C508.66,833.16 509.68,831.00 511.86,831.00 C514.58,831.00 515.51,832.68 516.80,839.92 C517.43,843.46 519.46,849.53 521.32,853.42 C524.70,860.49 535.58,876.00 537.16,876.00 C537.62,876.00 538.00,864.61 538.00,850.68 C538.00,822.59 537.24,817.62 532.01,811.66 C530.41,809.84 527.28,807.53 525.05,806.52 C520.51,804.48 520.43,804.22 522.53,798.18 C523.72,794.77 523.81,793.01 522.96,789.84 C521.73,785.29 514.65,777.00 511.99,777.00 C510.19,777.00 504.08,783.11 502.02,786.96 C500.44,789.91 500.50,795.96 502.13,800.52 C503.23,803.57 503.25,804.41 502.23,804.75 C497.80,806.24 491.34,811.99 489.04,816.47 C486.53,821.38 486.50,821.75 486.19,848.82 C485.99,866.78 486.23,876.08 486.88,875.85 C487.43,875.66 490.23,872.58 493.09,869.00 ZM 438.98 815.75 C438.99,815.34 438.08,815.00 436.96,815.00 C435.20,815.00 435.08,815.28 436.07,817.14 C436.99,818.84 437.39,818.99 438.09,817.89 C438.57,817.12 438.98,816.16 438.98,815.75 ZM 588.00 816.44 C588.00,815.65 587.33,815.00 586.50,815.00 C584.82,815.00 584.75,815.18 585.60,817.41 C586.31,819.24 588.00,818.56 588.00,816.44 ZM 415.89 800.69 C417.64,797.64 421.12,792.86 423.62,790.07 L 428.19 785.00 L 404.59 785.00 L 381.00 785.00 L 381.00 788.49 C381.00,791.23 381.37,791.93 382.75,791.74 C383.71,791.61 384.58,791.95 384.69,792.50 C384.79,793.05 384.00,793.39 382.94,793.26 C381.15,793.04 381.00,793.68 381.05,801.26 C381.10,809.33 381.14,809.45 382.80,807.00 C386.02,802.25 393.28,795.00 394.82,795.00 C397.06,795.00 404.80,803.68 407.75,809.50 L 410.28 814.49 L 411.50 810.36 C412.17,808.09 414.15,803.74 415.89,800.69 ZM 616.96 808.42 C618.69,805.35 622.15,800.80 624.64,798.30 L 629.18 793.77 L 633.21 797.63 C635.43,799.76 638.54,803.26 640.12,805.40 L 643.00 809.30 L 643.00 797.15 L 643.00 785.00 L 619.40 785.00 L 595.80 785.00 L 600.84 790.51 C605.91,796.06 613.00,808.67 613.00,812.13 C613.00,814.98 613.54,814.47 616.96,808.42 ZM 454.87 805.93 C452.64,800.72 452.60,800.70 451.70,803.41 C450.92,805.74 451.21,806.61 453.57,809.07 C455.10,810.67 456.53,811.80 456.75,811.59 C456.96,811.37 456.12,808.83 454.87,805.93 ZM 423.99 806.18 C423.98,805.81 423.68,804.42 423.33,803.10 C422.73,800.86 422.55,800.98 420.39,805.10 C417.34,810.94 417.43,811.54 421.00,809.00 C422.65,807.83 423.99,806.56 423.99,806.18 ZM 572.81 803.40 L 572.47 800.50 L 570.23 804.71 C567.26,810.31 567.41,812.05 570.58,808.87 C572.44,807.02 573.06,805.48 572.81,803.40 ZM 603.72 805.43 L 601.30 800.67 L 600.59 803.50 C600.00,805.85 600.35,806.71 602.69,808.57 C604.24,809.81 605.64,810.68 605.82,810.51 C605.99,810.34 605.05,808.05 603.72,805.43 ZM 443.08 807.08 C448.82,801.33 445.26,792.00 437.32,792.00 C429.33,792.00 425.87,802.18 432.08,807.41 C436.11,810.80 439.45,810.70 443.08,807.08 ZM 591.15 808.92 C592.26,808.33 593.81,806.30 594.60,804.42 C597.18,798.24 592.98,791.96 586.32,792.03 C578.69,792.12 575.33,801.48 580.92,807.08 C584.01,810.16 587.62,810.81 591.15,808.92 ZM 495.81 801.43 C496.66,800.82 494.65,794.10 493.78,794.64 C492.86,795.21 488.00,805.30 488.00,806.65 C488.00,806.97 489.69,805.98 491.75,804.45 C493.81,802.91 495.64,801.55 495.81,801.43 ZM 532.97 799.30 L 529.70 792.50 L 528.86 796.97 C528.24,800.33 528.36,801.62 529.35,802.18 C530.08,802.59 531.76,803.80 533.09,804.87 C534.42,805.95 535.67,806.66 535.87,806.46 C536.07,806.26 534.76,803.04 532.97,799.30 ZM 573.05 789.85 L 577.90 785.00 L 570.95 785.00 L 564.00 785.00 L 564.04 793.75 L 564.09 802.50 L 566.14 798.60 C567.27,796.46 570.38,792.52 573.05,789.85 ZM 460.00 793.00 L 460.00 785.00 L 453.41 785.00 L 446.81 785.00 L 451.48 790.19 C454.04,793.04 456.80,796.64 457.60,798.19 C458.40,799.73 459.26,801.00 459.53,801.00 C459.79,801.00 460.00,797.40 460.00,793.00 ZM 485.54 769.75 C507.34,708.02 510.55,699.50 512.00,699.50 C513.50,699.50 523.64,726.33 539.18,771.43 C545.55,789.88 546.49,792.01 547.23,789.43 C547.68,787.82 547.81,785.15 547.50,783.50 C547.20,781.85 541.61,765.65 535.08,747.50 C528.56,729.35 520.86,707.64 517.98,699.25 C515.10,690.86 512.45,684.00 512.10,684.00 C511.76,684.00 510.72,686.14 509.81,688.75 C498.29,721.71 482.43,766.36 480.04,772.57 C477.92,778.08 477.00,782.20 477.00,786.23 C477.00,789.40 477.15,792.00 477.34,792.00 C477.53,792.00 481.22,781.99 485.54,769.75 ZM 434.75 777.03 L 460.00 777.00 L 460.00 774.00 L 460.00 771.00 L 416.38 771.00 C374.99,771.00 372.82,771.09 374.08,772.75 C377.99,777.90 377.02,777.67 393.75,777.35 C402.41,777.19 420.86,777.04 434.75,777.03 ZM 647.03 777.04 C647.33,777.02 648.37,775.65 649.34,774.00 L 651.11 771.00 L 607.56 771.00 L 564.00 771.00 L 564.00 773.93 C564.00,776.21 564.50,776.93 566.25,777.18 C567.91,777.42 643.72,777.28 647.03,777.04 ZM 504.11 762.80 C505.07,762.48 504.35,761.26 501.75,758.80 C499.69,756.85 498.00,754.66 498.00,753.93 C498.00,751.17 496.22,754.75 493.15,763.70 C491.42,768.76 490.00,773.16 490.00,773.48 C490.00,773.79 492.86,771.62 496.36,768.66 C499.86,765.69 503.35,763.05 504.11,762.80 ZM 531.02 763.77 C527.32,753.30 526.48,751.92 525.55,754.86 C525.19,755.99 523.57,758.02 521.96,759.38 L 519.03 761.85 L 523.76 765.33 C526.37,767.25 529.59,769.98 530.92,771.41 C532.25,772.83 533.55,773.78 533.82,773.52 C534.08,773.26 532.82,768.87 531.02,763.77 ZM 425.65 765.00 C454.34,765.00 460.00,764.77 460.00,763.61 C460.00,762.84 459.29,761.94 458.42,761.61 C457.55,761.27 439.20,761.00 417.64,761.00 C382.04,761.00 378.22,761.16 375.97,762.74 L 373.50 764.47 L 376.50 765.18 C378.15,765.56 382.15,765.68 385.40,765.44 C388.64,765.20 406.75,765.00 425.65,765.00 ZM 650.00 765.15 C650.00,764.69 649.17,763.56 648.16,762.64 C646.49,761.14 642.41,761.00 605.42,761.24 C567.50,761.48 564.50,761.63 564.19,763.24 C563.88,764.86 566.31,764.99 600.18,765.25 C620.16,765.40 639.54,765.63 643.25,765.76 C646.96,765.89 650.00,765.62 650.00,765.15 ZM 516.00 753.35 C516.00,751.58 516.56,751.00 518.25,750.98 C521.63,750.96 523.21,749.55 522.84,746.89 C522.57,745.01 521.80,744.43 519.25,744.19 C516.64,743.94 516.00,743.43 516.00,741.63 C516.00,735.40 509.86,733.99 509.00,740.01 C508.56,743.11 508.11,743.56 505.01,744.00 C499.23,744.83 500.08,751.36 505.89,750.77 C508.13,750.54 508.54,750.93 508.81,753.50 C509.25,757.70 511.78,759.51 514.18,757.34 C515.18,756.43 516.00,754.63 516.00,753.35 ZM 478.69 750.75 C477.41,739.35 472.52,708.00 472.02,708.00 C471.17,708.00 465.92,745.02 465.96,750.75 L 466.00 756.00 L 472.64 756.00 L 479.28 756.00 L 478.69 750.75 ZM 558.03 750.25 C558.06,744.11 552.88,708.00 551.96,708.00 C551.47,708.00 544.93,751.78 544.98,754.75 C544.99,755.62 546.98,756.00 551.50,756.00 L 558.00 756.00 L 558.03 750.25 ZM 396.80 728.86 C396.51,711.83 396.03,704.75 395.04,702.75 C391.35,695.30 390.00,702.48 390.00,729.58 L 390.00 752.87 L 392.75 753.22 C394.26,753.41 395.88,753.26 396.34,752.89 C396.81,752.52 397.01,741.70 396.80,728.86 ZM 408.77 731.64 C408.99,714.16 408.73,708.88 407.45,704.47 C406.57,701.46 405.64,699.00 405.38,699.00 C405.11,699.00 404.25,700.56 403.45,702.47 C402.32,705.16 402.00,711.17 402.00,729.40 L 402.00 752.86 L 404.25 753.29 C405.49,753.52 406.95,753.63 407.50,753.52 C408.12,753.41 408.60,745.09 408.77,731.64 ZM 429.73 718.00 C429.98,677.63 430.54,679.17 421.92,696.23 L 417.00 705.96 L 417.00 729.32 C417.00,742.16 417.32,752.99 417.71,753.38 C418.10,753.77 420.91,753.96 423.96,753.79 L 429.50 753.50 L 429.73 718.00 ZM 453.76 682.75 L 454.01 612.00 L 451.01 612.00 L 448.00 612.00 L 448.00 682.33 C448.00,721.02 448.32,752.99 448.71,753.38 C449.10,753.77 450.34,753.95 451.46,753.79 C453.49,753.50 453.50,753.12 453.76,682.75 ZM 607.00 729.92 L 607.00 705.85 L 600.75 693.67 L 594.50 681.50 L 594.24 716.49 C594.09,735.74 594.19,752.05 594.46,752.74 C594.77,753.56 597.05,754.00 600.97,754.00 L 607.00 754.00 L 607.00 729.92 ZM 444.00 682.50 L 444.00 612.00 L 441.00 612.00 L 438.00 612.00 L 438.00 682.50 L 438.00 753.00 L 441.00 753.00 L 444.00 753.00 L 444.00 682.50 ZM 576.00 682.50 L 576.00 612.00 L 573.00 612.00 L 570.00 612.00 L 570.00 682.50 L 570.00 753.00 L 573.00 753.00 L 576.00 753.00 L 576.00 682.50 ZM 586.00 682.50 L 586.00 612.00 L 583.00 612.00 L 580.00 612.00 L 580.00 682.50 L 580.00 753.00 L 583.00 753.00 L 586.00 753.00 L 586.00 682.50 ZM 622.00 729.47 C622.00,710.01 621.72,705.29 620.38,702.22 L 618.77 698.50 L 617.13 702.00 C615.80,704.86 615.45,709.82 615.20,729.25 L 614.90 753.00 L 618.45 753.00 L 622.00 753.00 L 622.00 729.47 ZM 634.00 729.65 C634.00,707.33 633.23,700.00 630.88,700.00 C628.46,700.00 627.63,706.62 627.22,729.25 L 626.79 753.00 L 630.40 753.00 L 634.00 753.00 L 634.00 729.65 ZM 486.00 732.96 C486.00,732.60 485.02,731.45 483.83,730.40 C481.78,728.61 481.70,728.60 482.33,730.33 C482.70,731.34 483.01,733.36 483.03,734.83 C483.06,737.39 483.12,737.42 484.53,735.56 C485.34,734.49 486.00,733.32 486.00,732.96 ZM 540.73 732.25 C540.33,730.58 540.27,730.58 539.55,732.25 C539.13,733.21 539.13,734.79 539.55,735.75 C540.27,737.42 540.33,737.42 540.73,735.75 C540.96,734.79 540.96,733.21 540.73,732.25 ZM 564.01 657.06 L 564.05 577.77 L 560.15 573.55 C555.28,568.27 552.54,564.13 553.36,563.31 C554.26,562.41 557.58,565.65 560.91,570.68 C564.10,575.49 565.00,574.88 565.00,567.91 C565.00,564.41 564.33,563.32 558.90,558.06 C555.21,554.49 553.08,551.68 553.52,550.97 C553.99,550.20 555.81,551.36 558.90,554.40 C561.47,556.93 563.89,559.00 564.28,559.00 C564.68,559.00 565.00,557.25 565.00,555.12 C565.00,551.59 564.51,550.87 559.50,547.09 C556.47,544.80 554.00,542.25 554.00,541.41 C554.00,539.67 554.84,540.04 560.14,544.17 C562.15,545.73 564.09,547.00 564.45,547.00 C564.82,547.00 564.98,545.33 564.81,543.29 C564.53,539.97 563.94,539.25 559.25,536.58 C556.36,534.94 554.00,533.01 554.00,532.30 C554.00,530.47 554.95,530.67 559.50,533.47 C561.70,534.83 563.86,535.95 564.31,535.97 C564.76,535.99 564.98,534.36 564.81,532.35 C564.52,528.96 564.13,528.57 559.25,526.72 C556.36,525.63 554.00,524.12 554.00,523.37 C554.00,521.66 554.26,521.66 558.65,523.50 C563.69,525.60 565.00,525.40 565.00,522.54 C565.00,519.77 563.25,518.58 557.75,517.59 C555.33,517.15 554.00,516.36 554.00,515.37 C554.00,514.11 554.79,513.95 558.25,514.52 C560.59,514.90 562.72,515.28 563.00,515.36 C563.70,515.56 564.00,514.41 564.00,511.50 C564.00,509.17 563.67,509.00 559.00,509.00 C555.22,509.00 554.00,508.63 554.00,507.50 C554.00,506.37 555.22,506.00 559.00,506.00 C563.83,506.00 564.00,505.90 564.00,503.15 C564.00,500.32 563.96,500.30 558.87,500.79 C554.79,501.18 553.83,501.00 554.20,499.89 C554.48,499.03 556.44,498.38 559.33,498.20 C563.93,497.90 564.00,497.84 564.00,494.45 C564.00,490.54 564.10,490.59 558.83,492.17 C556.00,493.02 554.64,493.04 553.83,492.23 C553.03,491.43 554.27,490.69 558.37,489.50 C563.80,487.92 564.00,487.73 564.00,484.43 C564.00,482.54 563.76,481.00 563.47,481.00 C563.17,481.00 560.72,482.12 558.02,483.49 C554.83,485.11 552.88,485.61 552.45,484.92 C551.63,483.59 551.34,483.82 558.75,480.10 C564.62,477.16 565.00,476.76 565.00,473.49 C565.00,471.57 564.66,470.00 564.25,470.00 C563.84,470.00 560.80,471.80 557.50,474.00 C551.12,478.25 550.00,478.67 550.00,476.86 C550.00,475.46 551.97,473.89 558.75,469.93 L 564.00 466.85 L 564.00 454.08 L 564.00 441.31 L 560.08 435.25 C554.68,426.89 549.71,421.61 542.21,416.26 C535.51,411.47 516.46,403.00 512.41,403.00 C511.11,403.00 507.22,404.06 503.77,405.36 C485.80,412.13 473.37,421.18 465.13,433.50 L 460.00 441.17 L 460.00 454.05 C460.00,466.39 460.09,466.98 462.25,468.11 C468.95,471.62 475.05,476.35 474.10,477.30 C473.41,477.99 471.87,477.52 469.29,475.83 C467.21,474.46 464.26,472.54 462.75,471.55 L 460.00 469.77 L 460.00 473.70 C460.00,477.52 460.17,477.71 466.00,480.50 C469.30,482.08 472.00,483.96 472.00,484.68 C472.00,486.45 471.70,486.39 466.00,483.50 C463.29,482.12 460.69,481.00 460.23,481.00 C459.78,481.00 459.58,482.53 459.80,484.40 C460.16,487.54 460.59,487.91 465.29,489.21 C471.73,491.01 473.19,493.61 467.22,492.65 C465.00,492.30 462.46,491.73 461.59,491.40 C460.32,490.91 460.00,491.50 460.00,494.34 C460.00,497.86 460.04,497.89 464.67,498.20 C471.34,498.63 471.69,501.00 465.08,501.00 C460.20,501.00 460.00,501.11 460.00,503.75 C460.00,506.43 460.13,506.49 465.00,506.15 C469.06,505.87 470.00,506.11 470.00,507.40 C470.00,508.65 468.91,509.00 465.00,509.00 L 460.00 509.00 L 460.00 512.57 C460.00,515.49 460.32,516.05 461.75,515.64 C467.84,513.93 470.00,513.87 470.00,515.42 C470.00,516.29 469.44,517.00 468.75,517.01 C468.06,517.01 465.81,517.48 463.75,518.05 C460.50,518.96 460.00,519.49 460.00,522.05 C460.00,525.51 459.62,525.40 465.05,523.48 C467.92,522.47 469.70,522.30 470.36,522.96 C471.29,523.89 469.19,525.07 461.25,528.09 C459.64,528.71 459.00,529.77 459.00,531.81 C459.00,535.97 459.79,536.21 464.47,533.46 C469.30,530.63 470.00,530.49 470.00,532.34 C470.00,533.08 467.80,534.88 465.10,536.35 C460.68,538.76 460.17,539.39 459.83,543.01 C459.62,545.20 459.62,547.00 459.83,547.00 C460.04,547.00 461.85,545.73 463.86,544.17 C468.89,540.25 469.77,539.82 470.46,540.94 C470.79,541.47 468.68,543.78 465.78,546.07 C461.16,549.71 460.43,550.78 459.95,554.62 C459.65,557.03 459.67,559.00 460.00,559.00 C460.32,559.00 462.57,556.97 465.00,554.50 C467.43,552.03 469.77,550.00 470.21,550.00 C472.37,550.00 470.45,553.23 465.52,557.89 L 460.04 563.08 L 460.15 649.79 C460.21,697.48 460.46,735.60 460.69,734.50 C460.93,733.40 463.03,721.03 465.35,707.00 C469.34,682.97 469.71,681.48 471.80,681.18 C473.01,681.00 474.22,681.45 474.48,682.18 C474.74,682.91 476.31,692.28 477.97,703.00 C481.75,727.38 481.80,727.60 483.26,726.14 C483.88,725.52 485.41,725.00 486.65,725.00 C488.50,725.00 489.21,724.02 490.62,719.52 C492.27,714.31 492.27,713.95 490.59,712.10 C488.11,709.35 488.93,706.62 492.42,706.01 C495.05,705.55 495.58,704.72 498.13,697.14 L 500.94 688.77 L 498.84 687.07 C495.84,684.64 497.12,681.00 500.97,681.00 C503.46,681.00 504.01,680.42 505.41,676.32 C507.51,670.15 507.44,669.52 504.50,668.18 C500.04,666.15 501.95,659.89 506.50,661.64 C507.76,662.12 508.00,660.81 508.00,653.31 C508.00,643.88 508.76,642.00 512.59,642.00 C515.52,642.00 516.00,643.64 516.00,653.65 C516.00,661.52 516.14,662.09 517.89,661.53 C520.62,660.67 523.30,663.58 522.00,666.00 C521.45,667.03 520.10,668.15 519.00,668.50 C516.59,669.27 516.53,670.27 518.57,676.26 C519.96,680.32 520.53,680.92 523.32,681.19 C527.18,681.57 528.10,684.70 525.14,687.38 C523.21,689.12 523.21,689.23 525.93,697.32 C528.42,704.72 528.95,705.55 531.58,706.01 C535.01,706.61 535.91,709.34 533.53,711.97 C532.00,713.65 532.00,714.20 533.51,719.39 C535.00,724.51 535.39,725.00 537.99,725.00 C539.55,725.00 541.04,725.56 541.29,726.25 C541.94,728.01 542.58,724.99 546.00,704.00 C549.87,680.24 549.67,681.00 551.96,681.00 C553.02,681.00 554.08,681.34 554.33,681.75 C554.58,682.16 556.74,694.73 559.14,709.67 C561.54,724.61 563.61,736.73 563.74,736.59 C563.87,736.46 563.99,700.67 564.01,657.06 ZM 512.00 731.57 C514.47,731.57 517.29,731.94 518.24,732.39 C519.69,733.07 519.37,731.50 516.43,723.35 C514.47,717.93 512.56,713.19 512.19,712.80 C511.81,712.42 509.86,716.84 507.85,722.62 C504.94,730.98 504.53,732.98 505.85,732.36 C506.76,731.92 509.52,731.57 512.00,731.57 ZM 401.63 688.09 L 399.26 682.97 L 397.10 687.99 L 394.94 693.00 L 397.10 695.92 L 399.26 698.84 L 401.63 696.03 L 404.00 693.21 L 401.63 688.09 ZM 627.28 695.86 C628.96,692.91 628.97,692.48 627.40,688.36 C626.48,685.96 625.39,684.00 624.97,684.00 C624.56,684.00 623.47,685.88 622.55,688.18 C620.97,692.12 620.98,692.54 622.66,695.68 C623.65,697.50 624.69,699.00 624.98,698.99 C625.26,698.99 626.30,697.58 627.28,695.86 ZM 404.05 661.04 C401.82,647.19 400.00,635.37 400.00,634.76 C400.00,634.16 399.79,633.88 399.53,634.14 C398.95,634.72 390.97,682.68 391.08,684.90 C391.13,685.78 393.05,682.53 395.34,677.68 L 399.52 668.86 L 403.50 678.45 C405.70,683.72 407.63,687.62 407.79,687.13 C407.96,686.63 406.27,674.89 404.05,661.04 ZM 620.07 679.50 C621.87,675.10 623.70,671.09 624.14,670.58 C624.82,669.80 628.90,677.63 632.12,685.89 C632.64,687.20 633.21,688.10 633.41,687.89 C633.88,687.36 625.59,635.26 624.93,634.59 C624.63,634.30 622.68,644.96 620.58,658.28 C618.48,671.60 616.53,683.85 616.24,685.50 C615.46,689.92 616.41,688.44 620.07,679.50 ZM 444.00 522.50 L 444.00 440.00 L 441.00 440.00 L 438.00 440.00 L 438.00 522.50 L 438.00 605.00 L 441.00 605.00 L 444.00 605.00 L 444.00 522.50 ZM 585.76 522.25 L 586.01 440.00 L 583.01 440.00 L 580.00 440.00 L 580.00 521.83 C580.00,566.84 580.32,603.99 580.71,604.38 C581.10,604.77 582.34,604.95 583.46,604.79 C585.49,604.50 585.50,604.19 585.76,522.25 ZM 454.00 522.00 L 454.00 440.00 L 451.00 440.00 L 448.00 440.00 L 448.00 522.00 L 448.00 604.00 L 451.00 604.00 L 454.00 604.00 L 454.00 522.00 ZM 576.00 522.00 L 576.00 440.00 L 573.00 440.00 L 570.00 440.00 L 570.00 522.00 L 570.00 604.00 L 573.00 604.00 L 576.00 604.00 L 576.00 522.00 ZM 454.00 430.50 L 454.00 427.00 L 444.50 427.00 C439.27,427.00 435.00,427.42 435.00,427.93 C435.00,428.45 435.44,430.02 435.98,431.43 C436.92,433.91 437.24,434.00 445.48,434.00 L 454.00 434.00 L 454.00 430.50 ZM 587.96 432.07 C590.47,427.39 589.65,426.90 579.76,427.21 C571.78,427.46 570.48,427.75 570.18,429.31 C569.40,433.36 570.59,434.00 578.93,434.00 C585.82,434.00 587.07,433.73 587.96,432.07 ZM 484.65 392.94 C491.17,380.52 499.65,364.22 503.50,356.70 C507.76,348.39 511.09,343.03 512.00,343.02 C512.97,343.01 520.23,355.97 532.39,379.43 C547.81,409.17 552.11,416.66 555.79,420.18 L 560.30 424.50 L 554.28 413.00 C535.44,377.03 521.62,350.34 517.37,341.75 C514.72,336.39 512.31,332.04 512.02,332.08 C511.74,332.13 509.10,336.96 506.17,342.83 C503.23,348.70 492.54,369.32 482.42,388.66 C472.29,408.00 464.00,424.07 464.00,424.37 C464.00,424.67 465.98,422.80 468.40,420.21 C471.33,417.07 476.75,407.97 484.65,392.94 ZM 457.69 419.00 L 458.94 416.50 L 444.33 416.22 C436.30,416.07 429.54,416.12 429.32,416.34 C429.10,416.56 429.47,417.94 430.14,419.40 L 431.35 422.06 L 443.90 421.78 C456.16,421.51 456.47,421.44 457.69,419.00 ZM 593.84 419.45 C594.48,418.05 595.00,416.70 595.00,416.45 C595.00,416.20 588.25,416.00 580.00,416.00 C571.75,416.00 565.00,416.20 565.00,416.45 C565.00,416.70 565.52,418.05 566.16,419.45 C567.32,421.99 567.38,422.00 580.00,422.00 C592.62,422.00 592.68,421.99 593.84,419.45 ZM 444.00 383.95 C444.00,363.46 443.75,359.43 442.33,356.70 L 440.67 353.50 L 439.38 356.50 C438.45,358.66 438.08,366.26 438.05,383.75 L 438.00 408.00 L 441.00 408.00 L 444.00 408.00 L 444.00 383.95 ZM 456.00 384.15 C456.00,361.53 455.24,354.00 452.94,354.00 C452.47,354.00 451.39,356.33 450.54,359.18 C449.37,363.13 449.00,369.39 449.00,385.51 C449.00,397.15 449.30,406.97 449.67,407.33 C450.03,407.70 451.61,408.00 453.17,408.00 L 456.00 408.00 L 456.00 384.15 ZM 491.14 404.50 C495.16,402.58 499.02,401.00 499.72,401.00 C501.54,401.00 501.35,400.51 498.24,397.33 C496.72,395.77 494.78,393.41 493.93,392.09 C492.38,389.69 492.35,389.72 487.64,398.84 C485.04,403.88 483.12,408.00 483.37,408.00 C483.63,408.00 487.12,406.42 491.14,404.50 ZM 536.37 398.75 C532.30,390.64 531.59,389.73 530.61,391.40 C530.00,392.45 528.15,394.89 526.50,396.82 C524.85,398.75 523.98,400.49 524.57,400.69 C525.15,400.88 528.75,402.58 532.57,404.45 C536.38,406.32 539.84,407.88 540.26,407.93 C540.68,407.97 538.93,403.84 536.37,398.75 ZM 574.50 384.00 C574.50,366.34 574.16,359.69 573.13,357.25 C572.37,355.46 571.45,354.00 571.08,354.00 C568.82,354.00 568.00,362.09 568.00,384.38 L 568.00 408.13 L 571.25 407.81 L 574.50 407.50 L 574.50 384.00 ZM 586.00 383.95 C586.00,363.46 585.75,359.43 584.33,356.70 L 582.67 353.50 L 581.38 356.50 C580.45,358.66 580.08,366.26 580.05,383.75 L 580.00 408.00 L 583.00 408.00 L 586.00 408.00 L 586.00 383.95 ZM 467.98 378.86 C468.00,362.20 467.73,358.11 466.62,357.68 C464.55,356.89 463.89,364.19 464.10,385.68 C464.27,403.98 464.30,404.25 466.11,401.90 C467.76,399.75 467.96,397.36 467.98,378.86 ZM 559.52 361.35 C559.20,359.61 558.28,357.94 557.47,357.63 C556.21,357.14 556.00,359.92 556.00,377.58 C556.00,395.24 556.24,398.55 557.75,401.30 C559.47,404.45 559.50,404.18 559.79,384.50 C559.95,373.50 559.83,363.08 559.52,361.35 ZM 514.80 395.74 C515.38,395.04 516.00,392.68 516.18,390.49 C516.49,386.63 516.61,386.51 519.81,386.82 C523.76,387.21 526.00,385.61 526.00,382.41 C526.00,379.63 523.39,378.00 519.39,378.29 C516.38,378.51 516.50,378.74 516.10,371.79 C515.96,369.30 512.47,367.68 510.06,368.97 C508.70,369.70 508.02,371.28 507.81,374.25 C507.50,378.45 507.45,378.50 503.71,378.50 C499.87,378.50 498.04,379.98 498.02,383.13 C497.99,385.65 500.55,387.18 504.19,386.82 C507.39,386.51 507.51,386.63 507.82,390.49 C508.19,395.02 509.46,397.00 512.00,397.00 C512.97,397.00 514.23,396.43 514.80,395.74 ZM 503.00 393.00 C503.00,392.45 502.52,392.00 501.94,392.00 C501.36,392.00 501.16,392.45 501.50,393.00 C501.84,393.55 502.32,394.00 502.56,394.00 C502.80,394.00 503.00,393.55 503.00,393.00 ZM 523.00 393.00 C523.00,392.45 522.80,392.00 522.56,392.00 C522.32,392.00 521.84,392.45 521.50,393.00 C521.16,393.55 521.36,394.00 521.94,394.00 C522.52,394.00 523.00,393.55 523.00,393.00 ZM 548.00 338.45 L 548.00 294.91 L 545.46 292.37 C543.15,290.06 543.03,289.55 544.12,286.54 C545.15,283.70 545.04,282.69 543.34,279.43 C540.80,274.52 539.48,274.17 537.56,277.89 C535.76,281.37 535.58,284.34 537.01,287.02 C537.83,288.55 537.59,289.15 535.76,290.11 C534.52,290.76 533.17,291.79 532.77,292.40 C532.36,293.00 532.02,306.89 532.02,323.27 L 532.00 353.03 L 535.25 358.77 L 538.50 364.50 L 538.76 330.18 C539.01,298.21 539.15,295.88 540.76,296.19 C542.37,296.50 542.54,299.55 543.00,336.01 C543.45,371.36 543.69,375.84 545.28,378.75 C546.25,380.54 547.26,382.00 547.53,382.00 C547.79,382.00 548.00,362.40 548.00,338.45 ZM 480.96 335.72 C481.00,301.11 481.17,296.87 482.60,296.32 C483.48,295.99 484.58,296.31 485.03,297.05 C485.49,297.79 485.78,313.16 485.68,331.20 C485.58,349.24 485.60,364.00 485.73,364.00 C485.86,364.00 487.31,361.64 488.97,358.75 L 491.98 353.50 L 491.99 323.28 L 492.00 293.06 L 489.05 290.88 C486.71,289.15 486.29,288.32 487.05,286.91 C487.57,285.93 488.00,284.18 488.00,283.02 C488.00,280.48 485.31,275.00 484.06,275.00 C483.58,275.00 482.24,276.95 481.08,279.33 C479.31,282.99 479.16,284.16 480.11,286.89 C481.10,289.73 480.98,290.37 479.12,292.10 C477.02,294.06 477.00,294.51 477.04,337.79 C477.08,381.42 477.09,381.49 479.00,378.00 C480.79,374.73 480.92,372.01 480.96,335.72 ZM 517.00 362.53 C517.00,361.47 512.56,353.00 512.00,353.00 C511.44,353.00 507.00,361.47 507.00,362.53 C507.00,362.79 509.25,363.00 512.00,363.00 C514.75,363.00 517.00,362.79 517.00,362.53 ZM 468.51 337.17 C468.31,336.98 467.46,338.15 466.61,339.78 C465.30,342.31 465.26,343.70 466.29,349.13 L 467.50 355.50 L 468.18 346.52 C468.56,341.58 468.71,337.37 468.51,337.17 ZM 557.80 348.36 C558.43,344.68 558.33,342.40 557.43,340.36 C556.29,337.79 556.16,338.41 556.16,346.50 C556.16,356.14 556.40,356.41 557.80,348.36 ZM 448.89 350.94 C451.14,347.90 451.14,347.86 449.32,343.44 C448.32,341.00 447.21,339.01 446.86,339.00 C446.51,339.00 445.47,340.88 444.55,343.18 C442.97,347.12 442.98,347.54 444.66,350.68 C445.65,352.50 446.49,354.00 446.54,354.00 C446.59,354.00 447.64,352.62 448.89,350.94 ZM 579.50 343.35 C578.58,340.96 577.53,339.00 577.17,339.00 C576.80,339.01 575.68,341.00 574.68,343.44 C572.86,347.85 572.87,347.90 575.10,350.92 L 577.35 353.96 L 579.25 350.83 C581.06,347.85 581.07,347.48 579.50,343.35 ZM 444.47 329.75 C445.30,327.69 446.35,326.00 446.80,326.00 C447.25,326.00 449.16,329.64 451.03,334.08 C454.52,342.33 456.03,344.68 455.30,340.72 C455.08,339.50 453.17,328.15 451.07,315.50 C448.96,302.85 446.99,293.17 446.69,294.00 C446.38,294.83 445.43,299.77 444.57,305.00 C443.71,310.23 442.10,319.67 441.00,326.00 C437.70,345.01 437.73,344.07 440.49,338.50 C441.85,335.75 443.64,331.81 444.47,329.75 ZM 573.05 333.75 C574.82,329.49 576.60,326.00 577.00,326.00 C577.39,326.00 579.59,329.94 581.89,334.75 C584.18,339.56 585.86,342.38 585.62,341.00 C585.38,339.62 583.48,328.27 581.40,315.77 C579.32,303.27 577.37,293.30 577.06,293.60 C576.75,293.91 574.70,305.13 572.50,318.53 C570.30,331.94 568.80,342.59 569.16,342.20 C569.52,341.82 571.27,338.01 573.05,333.75 ZM 525.82 313.50 C525.58,301.40 525.06,294.76 524.20,293.25 C523.50,292.02 521.15,290.10 518.97,288.98 C516.78,287.87 515.00,286.81 515.00,286.63 C515.00,286.45 515.68,284.94 516.52,283.27 C518.26,279.77 517.48,276.62 514.10,273.59 C512.00,271.69 511.95,271.70 509.41,274.09 C506.80,276.54 506.54,279.74 508.47,285.62 C509.03,287.31 508.68,287.86 506.75,288.35 C505.43,288.68 503.14,290.07 501.67,291.43 L 499.00 293.90 L 499.03 316.20 L 499.05 338.50 L 503.12 331.00 C505.57,326.50 507.41,321.61 507.72,318.77 C508.22,314.35 508.08,313.98 505.56,313.02 C502.14,311.72 502.28,307.67 505.75,307.18 C507.74,306.90 508.00,306.28 508.00,301.86 C508.00,295.98 509.34,293.00 511.98,293.00 C514.60,293.00 515.39,294.59 515.99,301.00 C516.43,305.76 516.80,306.54 518.75,306.82 C522.03,307.29 521.85,311.73 518.50,313.00 C514.53,314.51 515.16,319.41 520.75,330.27 L 525.49 339.50 L 525.83 335.50 C526.02,333.30 526.01,323.40 525.82,313.50 ZM 501.93 284.59 C502.68,283.68 502.74,282.96 502.10,282.56 C501.55,282.22 500.61,282.86 500.01,283.97 C498.78,286.28 500.16,286.72 501.93,284.59 ZM 523.95 283.91 C523.34,282.77 522.59,282.07 522.30,282.37 C521.47,283.20 522.79,286.00 524.00,286.00 C524.74,286.00 524.73,285.36 523.95,283.91 ZM 504.20 271.50 C507.68,268.02 510.54,266.00 512.00,266.00 C513.46,266.00 516.32,268.02 519.80,271.50 C522.83,274.52 525.46,277.00 525.65,277.00 C525.84,277.00 526.00,276.05 526.00,274.89 C526.00,272.75 513.18,247.98 512.09,248.02 C510.91,248.06 499.48,270.16 498.91,273.53 C498.58,275.44 498.40,277.00 498.51,277.00 C498.61,277.00 501.17,274.52 504.20,271.50 ZM 488.41 260.89 C486.35,255.45 484.42,251.24 484.13,251.54 C483.53,252.14 477.06,272.97 477.02,274.42 C477.01,274.92 478.56,273.57 480.47,271.42 L 483.95 267.50 L 487.72 271.50 C491.34,275.34 491.51,275.40 491.83,273.14 C492.01,271.84 490.47,266.33 488.41,260.89 ZM 543.50 271.24 C545.43,273.29 547.00,274.49 547.00,273.89 C547.00,272.64 541.01,252.95 540.21,251.58 C539.45,250.27 532.00,269.85 532.00,273.16 L 532.00 275.92 L 536.00 271.71 L 540.01 267.50 L 543.50 271.24 ZM 495.30 249.25 C495.63,245.54 497.73,224.56 499.99,202.63 C502.24,180.69 503.92,162.26 503.72,161.66 C503.52,161.06 502.57,164.61 501.61,169.54 C500.65,174.47 496.94,191.75 493.38,207.94 L 486.90 237.39 L 490.17 246.69 C491.97,251.81 493.73,256.00 494.08,256.00 C494.42,256.00 494.98,252.96 495.30,249.25 ZM 536.99 237.08 C537.00,236.30 534.56,224.60 531.58,211.08 C528.60,197.56 524.93,180.76 523.43,173.74 C521.92,166.72 520.52,161.15 520.30,161.37 C519.88,161.79 528.77,249.79 529.65,254.00 C530.08,256.02 530.83,254.78 533.58,247.50 C535.45,242.55 536.99,237.86 536.99,237.08 ZM 508.96 232.00 C509.45,225.18 509.70,224.47 511.75,224.18 C514.62,223.77 515.86,226.80 515.79,234.10 C515.75,238.49 516.42,240.71 519.36,246.00 C523.68,253.76 523.77,253.23 521.52,234.00 C519.67,218.22 514.06,163.89 513.29,154.20 C512.97,150.18 512.39,147.26 512.01,147.70 C511.63,148.14 510.54,156.60 509.59,166.50 C508.64,176.40 506.32,199.23 504.43,217.23 C502.54,235.23 501.01,250.53 501.02,251.23 C501.02,251.93 502.69,249.57 504.72,246.00 C507.79,240.60 508.51,238.23 508.96,232.00 ZM 315.68 770.27 C315.43,769.84 314.92,767.63 314.54,765.34 C313.72,760.35 311.71,758.32 306.52,757.25 C301.38,756.18 301.00,754.42 305.74,753.66 C311.18,752.79 313.05,751.04 314.46,745.49 C315.82,740.12 318.00,738.25 318.00,742.45 C318.00,743.89 318.64,746.59 319.42,748.46 C320.51,751.08 321.72,752.11 324.67,752.93 C326.78,753.51 329.10,753.99 329.83,753.99 C331.85,754.00 330.61,756.46 328.42,756.81 C321.96,757.84 318.00,762.05 318.00,767.91 C318.00,769.99 316.45,771.57 315.68,770.27 ZM 318.40 753.15 L 316.60 751.05 L 314.70 753.09 C312.88,755.05 312.87,755.20 314.59,757.10 C316.35,759.04 316.40,759.04 318.28,757.16 C320.13,755.32 320.13,755.17 318.40,753.15 ZM 706.57 769.81 C706.34,769.09 705.89,766.87 705.56,764.89 C704.82,760.42 702.57,758.29 697.45,757.23 C692.61,756.23 693.06,754.97 698.97,753.00 C703.94,751.34 705.96,748.53 705.99,743.25 C706.01,738.12 708.64,739.12 709.46,744.57 C710.30,750.21 712.56,752.58 717.95,753.49 C722.17,754.21 723.07,756.22 719.42,756.81 C712.96,757.84 709.00,762.05 709.00,767.91 C709.00,770.25 707.16,771.69 706.57,769.81 ZM 709.83 753.34 C707.82,751.18 707.82,751.18 705.83,753.17 C703.95,755.05 703.93,755.27 705.54,757.04 C707.15,758.82 707.35,758.83 709.53,757.21 L 711.83 755.50 L 709.83 753.34 ZM 346.04 730.55 C342.86,726.71 348.67,722.22 352.22,725.77 C353.85,727.40 354.00,728.13 353.07,729.88 C351.75,732.33 347.83,732.71 346.04,730.55 ZM 671.67 731.33 C670.48,730.14 670.96,726.28 672.45,725.04 C674.37,723.45 677.74,724.59 678.53,727.10 C678.88,728.20 678.62,729.75 677.96,730.55 C676.72,732.04 672.86,732.52 671.67,731.33 ZM 752.00 711.00 C749.20,708.20 750.88,704.74 754.82,705.19 C756.89,705.43 757.57,706.11 757.81,708.18 C758.26,712.12 754.80,713.80 752.00,711.00 ZM 266.38 710.56 C265.32,707.79 266.48,705.50 269.09,705.20 C272.23,704.83 274.40,707.17 273.52,709.95 C272.74,712.39 267.27,712.86 266.38,710.56 ZM 310.48 707.80 C309.06,699.27 307.09,697.44 297.58,695.83 C293.76,695.18 295.07,693.33 300.18,692.15 C307.10,690.55 308.73,688.86 310.11,681.87 C311.35,675.53 312.63,674.37 313.53,678.75 C315.70,689.35 317.11,690.99 325.33,692.53 C330.24,693.45 329.53,695.24 323.77,696.50 C317.53,697.86 315.28,700.19 314.31,706.27 C313.28,712.73 311.42,713.47 310.48,707.80 ZM 316.17 695.45 C317.87,694.91 317.76,694.58 315.00,692.00 L 311.94 689.15 L 309.54 691.55 L 307.14 693.95 L 309.82 697.00 C312.37,699.91 312.54,699.96 313.39,698.05 C313.88,696.95 315.13,695.78 316.17,695.45 ZM 710.03 706.63 C708.52,699.38 707.29,698.00 701.00,696.59 C698.05,695.92 695.48,694.95 695.31,694.43 C695.13,693.90 697.30,692.93 700.12,692.26 C707.60,690.48 708.23,689.66 710.47,678.75 C711.35,674.50 712.72,675.48 713.96,681.24 C715.62,688.98 717.09,690.65 723.50,692.09 C726.56,692.77 728.90,693.79 728.72,694.35 C728.53,694.92 726.14,695.88 723.40,696.50 C720.67,697.11 717.89,697.95 717.24,698.35 C716.13,699.04 714.85,702.79 713.53,709.25 C712.64,713.55 711.25,712.50 710.03,706.63 ZM 714.33 691.43 L 711.82 688.91 L 709.43 691.48 C707.06,694.04 707.06,694.06 709.02,696.02 C710.11,697.11 711.00,698.50 711.00,699.11 C711.00,699.71 712.32,698.80 713.93,697.08 L 716.85 693.94 L 714.33 691.43 ZM 262.70 671.32 C262.41,670.85 261.64,667.56 261.00,663.99 C258.67,651.16 256.47,648.88 244.21,646.62 C235.83,645.07 235.12,643.38 242.47,642.46 C254.49,640.96 259.17,636.31 260.82,624.20 C262.17,614.37 264.21,614.59 265.39,624.68 C266.76,636.35 270.26,639.97 282.19,642.10 C286.10,642.80 288.91,643.78 288.71,644.38 C288.51,644.96 285.53,646.01 282.09,646.71 C270.19,649.12 267.66,651.66 265.84,663.00 C264.65,670.46 263.71,672.95 262.70,671.32 ZM 270.49 646.30 L 274.09 644.59 L 270.55 642.78 C268.38,641.66 266.21,639.38 264.92,636.84 L 262.81 632.71 L 260.98 636.79 C259.75,639.55 257.92,641.53 255.33,642.89 C253.22,644.00 252.25,644.93 253.17,644.96 C255.64,645.02 260.55,649.51 262.01,653.02 L 263.28 656.09 L 265.09 652.05 C266.32,649.30 268.04,647.47 270.49,646.30 ZM 759.68 670.35 C759.40,669.33 758.86,666.27 758.49,663.54 C756.89,651.82 754.02,648.80 742.46,646.67 C738.98,646.02 736.08,645.05 736.01,644.50 C735.94,643.95 738.63,642.94 741.98,642.26 C754.79,639.64 756.89,637.06 759.50,620.69 C760.42,614.95 762.23,616.71 763.56,624.61 C765.69,637.23 768.24,639.89 780.35,642.12 C788.67,643.65 789.06,645.52 781.25,646.46 C778.09,646.83 773.61,648.04 771.31,649.13 C766.64,651.35 764.61,655.24 763.11,664.81 C762.19,670.69 760.53,673.38 759.68,670.35 ZM 763.00 651.73 C763.83,649.96 766.18,647.58 768.24,646.44 L 771.99 644.36 L 768.53 642.72 C766.33,641.67 764.30,639.55 762.94,636.89 L 760.81 632.71 L 758.98 636.79 C757.73,639.58 755.94,641.50 753.33,642.85 L 749.50 644.82 L 752.25 645.52 C755.21,646.27 760.00,651.25 760.00,653.58 C760.00,655.99 761.43,655.11 763.00,651.73 ZM 353.21 638.87 C353.94,636.66 381.00,611.88 382.00,612.50 C383.66,613.53 381.96,615.40 368.84,627.00 C355.05,639.18 352.45,641.17 353.21,638.87 ZM 659.77 631.09 C646.77,619.82 640.54,613.40 641.81,612.62 C642.36,612.28 649.15,617.87 656.90,625.05 C669.20,636.43 672.45,640.00 670.52,640.00 C670.25,640.00 665.41,635.99 659.77,631.09 ZM 309.39 636.57 C308.39,633.98 309.79,631.83 312.25,632.18 C313.90,632.41 314.50,633.17 314.50,635.00 C314.50,636.83 313.90,637.59 312.25,637.82 C310.89,638.01 309.75,637.51 309.39,636.57 ZM 709.39 636.57 C708.39,633.98 709.79,631.83 712.25,632.18 C713.90,632.41 714.50,633.17 714.50,635.00 C714.50,636.83 713.90,637.59 712.25,637.82 C710.89,638.01 709.75,637.51 709.39,636.57 ZM 217.39 622.57 C216.39,619.98 217.79,617.83 220.25,618.18 C221.90,618.41 222.50,619.17 222.50,621.00 C222.50,622.83 221.90,623.59 220.25,623.82 C218.89,624.01 217.75,623.51 217.39,622.57 ZM 802.05 622.56 C800.23,620.37 801.52,617.79 804.25,618.18 C805.89,618.41 806.50,619.17 806.50,620.99 C806.50,623.90 803.92,624.81 802.05,622.56 ZM 415.00 609.23 C415.00,607.46 422.12,598.96 423.10,599.56 C423.64,599.89 422.54,602.23 420.64,604.80 C417.29,609.32 415.00,611.12 415.00,609.23 ZM 603.66 605.37 C600.45,601.25 599.56,597.99 602.06,599.53 C603.11,600.19 609.00,608.58 609.00,609.43 C609.00,611.11 606.86,609.48 603.66,605.37 ZM 376.55 589.15 C377.75,588.07 395.93,574.88 410.96,564.18 C417.77,559.34 422.79,556.39 423.32,556.92 C423.82,557.42 423.93,558.31 423.57,558.89 C422.57,560.51 378.27,590.00 376.84,590.00 C376.08,590.00 375.97,589.67 376.55,589.15 ZM 624.10 575.50 C600.56,559.69 599.74,559.05 600.83,557.28 C601.35,556.43 607.90,560.58 622.16,570.78 C647.81,589.13 648.86,589.94 647.00,589.90 C646.17,589.88 635.87,583.40 624.10,575.50 ZM 606.90 582.06 C601.70,577.23 599.81,574.87 600.54,574.11 C601.27,573.34 603.73,575.19 608.89,580.39 C612.91,584.44 615.78,588.02 615.25,588.35 C614.72,588.67 610.96,585.84 606.90,582.06 ZM 409.00 586.65 C409.00,584.50 422.73,572.75 423.60,574.16 C424.06,574.90 421.80,577.75 417.66,581.67 C410.95,588.03 409.00,589.15 409.00,586.65 ZM 346.00 584.58 C346.00,584.08 364.48,573.89 381.00,565.27 C387.33,561.97 399.17,555.78 407.33,551.51 C420.65,544.54 425.47,543.06 423.21,546.64 C422.44,547.86 348.66,585.00 347.01,585.00 C346.45,585.00 346.00,584.81 346.00,584.58 ZM 638.71 566.42 C605.77,549.88 599.48,546.19 601.27,544.39 C602.28,543.39 678.00,583.06 678.00,584.60 C678.00,585.91 671.94,583.11 638.71,566.42 ZM 236.05 582.56 C233.20,579.13 237.12,573.33 240.75,575.61 C244.32,577.84 243.03,584.00 239.00,584.00 C238.03,584.00 236.71,583.35 236.05,582.56 ZM 782.75 582.93 C780.74,581.75 780.43,577.97 782.20,576.20 C784.06,574.34 786.73,574.78 788.43,577.20 C789.75,579.08 789.77,579.71 788.62,581.45 C787.01,583.88 785.15,584.35 782.75,582.93 ZM 318.52 571.14 C319.48,570.12 366.83,552.58 375.76,549.94 C380.03,548.67 382.22,549.18 380.38,551.02 C379.27,552.13 326.35,570.37 321.00,571.48 C318.53,572.00 317.80,571.90 318.52,571.14 ZM 673.59 561.98 C657.68,556.53 644.21,551.61 643.65,551.05 C640.89,548.29 645.34,548.91 656.83,552.89 C681.29,561.36 704.35,569.95 705.37,570.97 C707.69,573.29 701.30,571.49 673.59,561.98 ZM 270.52 569.38 C268.57,567.43 268.86,565.11 271.25,563.61 C274.71,561.43 278.62,566.35 275.96,569.55 C274.39,571.44 272.53,571.39 270.52,569.38 ZM 748.75 569.93 C746.62,568.68 746.47,565.68 748.45,564.04 C751.65,561.38 756.57,565.29 754.39,568.75 C753.04,570.89 751.07,571.30 748.75,569.93 ZM 199.52 562.38 C197.57,560.43 197.86,558.11 200.25,556.61 C202.29,555.33 205.31,556.76 205.80,559.24 C206.11,560.79 203.55,564.00 202.00,564.00 C201.53,564.00 200.41,563.27 199.52,562.38 ZM 819.52 562.38 C817.57,560.43 817.86,558.11 820.25,556.61 C823.99,554.26 827.98,560.08 824.42,562.68 C822.10,564.38 821.49,564.34 819.52,562.38 ZM 389.23 546.81 C389.61,545.68 419.07,534.11 421.75,534.03 C424.10,533.97 423.00,536.76 420.25,537.85 C408.98,542.32 392.55,548.00 390.87,548.00 C389.74,548.00 389.01,547.47 389.23,546.81 ZM 620.00 543.95 C614.22,541.78 607.59,539.29 605.25,538.42 C602.91,537.55 601.00,536.20 601.00,535.42 C601.00,533.39 601.43,533.49 616.16,538.89 C631.85,544.65 635.00,546.03 635.00,547.16 C635.00,548.84 630.29,547.83 620.00,543.95 ZM 360.00 543.19 C360.00,542.35 374.52,538.05 408.50,528.84 C414.55,527.20 420.29,525.63 421.25,525.36 C422.47,525.02 423.00,525.43 423.00,526.72 C423.00,528.31 418.91,529.57 393.25,535.88 C376.89,539.90 362.71,543.40 361.75,543.66 C360.79,543.92 360.00,543.71 360.00,543.19 ZM 649.00 540.56 C612.48,531.90 601.00,528.58 601.00,526.69 C601.00,525.42 601.53,525.03 602.75,525.40 C603.71,525.69 613.72,528.40 625.00,531.42 C647.46,537.44 662.05,541.71 662.83,542.50 C664.23,543.90 661.36,543.49 649.00,540.56 ZM 218.67 536.31 C218.39,535.31 217.86,532.27 217.49,529.54 C215.92,518.00 211.68,512.85 202.26,511.03 C192.33,509.12 191.85,508.96 192.26,507.71 C192.48,507.05 193.75,506.36 195.08,506.19 C200.87,505.46 209.57,502.80 211.31,501.22 C214.51,498.33 216.26,493.85 217.45,485.57 C218.69,476.87 220.54,474.64 221.48,480.69 C224.41,499.36 226.72,502.55 239.21,505.04 C249.76,507.15 250.17,508.91 240.50,510.57 C227.45,512.80 224.82,515.53 222.73,529.03 C221.49,537.00 219.73,540.15 218.67,536.31 ZM 221.37 518.66 C222.26,515.11 225.55,511.44 229.53,509.55 L 233.12 507.85 L 228.81 505.67 C225.71,504.11 223.94,502.32 222.50,499.29 C221.40,496.97 220.27,495.08 220.00,495.08 C219.73,495.09 218.59,496.98 217.47,499.30 C216.02,502.28 214.19,504.13 211.16,505.67 L 206.88 507.85 L 210.47 509.55 C214.45,511.44 217.74,515.11 218.63,518.66 C218.95,519.95 219.57,521.00 220.00,521.00 C220.43,521.00 221.05,519.95 221.37,518.66 ZM 802.49 534.31 C801.00,525.16 799.90,520.70 798.43,517.86 C796.57,514.28 790.27,511.17 783.10,510.33 C773.18,509.15 773.72,506.99 784.40,505.11 C796.95,502.90 799.21,500.48 801.62,486.62 C803.02,478.64 804.50,475.26 805.37,478.08 C805.61,478.86 806.25,482.44 806.80,486.02 C808.76,498.99 812.11,502.92 822.97,505.02 C833.59,507.06 833.29,506.94 831.97,508.54 C831.30,509.34 829.54,510.00 828.06,510.00 C823.68,510.00 814.68,513.02 812.14,515.34 C809.09,518.14 808.05,520.88 806.62,529.93 C805.30,538.23 803.45,540.19 802.49,534.31 ZM 812.71 510.50 C815.03,509.40 816.94,508.27 816.95,508.00 C816.97,507.73 815.17,506.74 812.95,505.81 C809.73,504.45 808.48,503.13 806.71,499.19 L 804.50 494.27 L 802.00 498.88 C800.41,501.81 798.12,504.23 795.75,505.50 C791.89,507.56 790.93,509.00 793.42,509.00 C795.74,509.00 801.16,514.15 802.69,517.80 L 804.11 521.20 L 806.31 516.85 C807.89,513.70 809.67,511.95 812.71,510.50 ZM 341.55 532.12 C343.16,530.62 414.97,517.00 421.24,517.00 C424.20,517.00 423.19,519.71 420.00,520.35 C416.01,521.15 366.08,529.53 353.76,531.47 C342.50,533.24 340.21,533.36 341.55,532.12 ZM 675.50 532.27 C670.26,531.53 606.62,521.01 603.75,520.41 C600.43,519.72 600.04,517.00 603.26,517.00 C609.21,517.00 680.97,530.67 682.45,532.09 C683.42,533.02 681.20,533.08 675.50,532.27 ZM 309.00 514.14 C309.00,513.28 314.02,512.89 349.86,510.93 C368.89,509.88 373.29,510.11 371.39,512.01 C369.60,513.80 309.00,515.87 309.00,514.14 ZM 673.22 513.94 C655.18,513.15 653.00,512.83 653.00,510.89 C653.00,510.03 655.84,509.88 663.75,510.34 C669.66,510.68 683.61,511.49 694.75,512.14 C705.89,512.79 715.00,513.70 715.00,514.16 C715.00,515.12 698.35,515.03 673.22,513.94 ZM 378.19 512.91 C378.73,511.29 384.62,510.61 407.75,509.48 C420.93,508.83 423.00,508.93 423.00,510.22 C423.00,511.90 417.80,512.49 392.61,513.64 C380.05,514.21 377.80,514.10 378.19,512.91 ZM 619.00 512.95 C613.22,512.56 606.78,512.19 604.68,512.12 C601.60,512.02 600.92,511.66 601.21,510.25 C601.45,509.08 602.39,508.56 604.04,508.69 C605.39,508.80 614.60,509.38 624.50,509.99 C643.34,511.15 646.00,511.53 646.00,513.07 C646.00,514.10 635.21,514.05 619.00,512.95 ZM 392.50 502.95 C382.05,502.57 371.81,502.20 369.75,502.13 C367.69,502.06 366.00,501.54 366.00,500.98 C366.00,500.31 375.62,500.06 394.24,500.23 C420.21,500.48 422.50,500.64 422.81,502.25 C423.19,504.21 425.79,504.15 392.50,502.95 ZM 601.19 502.27 C601.50,500.63 603.68,500.48 629.76,500.23 C646.29,500.08 658.00,500.35 658.00,500.88 C658.00,501.73 652.53,502.06 615.17,503.49 C601.85,504.00 600.87,503.91 601.19,502.27 ZM 400.00 494.43 C355.44,490.65 346.25,489.75 343.50,488.92 C339.63,487.75 365.13,488.55 394.50,490.52 C420.56,492.27 423.00,492.62 423.00,494.55 C423.00,496.28 421.59,496.27 400.00,494.43 ZM 601.00 494.52 C601.00,492.45 602.50,492.24 629.50,490.47 C670.03,487.83 681.46,487.32 682.37,488.09 C683.34,488.93 679.70,489.48 663.50,490.99 C652.88,491.98 603.32,496.00 601.76,496.00 C601.34,496.00 601.00,495.33 601.00,494.52 ZM 410.00 485.97 C404.77,484.94 391.95,482.45 381.50,480.42 C362.27,476.69 356.65,475.09 362.61,475.03 C365.64,475.00 417.75,483.49 421.25,484.59 C422.21,484.89 423.00,485.78 423.00,486.57 C423.00,488.34 421.84,488.29 410.00,485.97 ZM 601.00 486.57 C601.00,485.78 601.79,484.89 602.75,484.59 C605.74,483.67 651.15,476.12 658.00,475.41 C665.95,474.58 665.41,475.62 656.85,477.61 C650.88,479.00 603.09,488.00 601.66,488.00 C601.30,488.00 601.00,487.36 601.00,486.57 ZM 266.57 477.43 C265.71,476.56 265.00,475.25 265.00,474.50 C265.00,473.21 267.59,470.00 268.64,470.00 C270.53,470.00 273.00,472.45 273.00,474.34 C273.00,478.60 269.45,480.31 266.57,477.43 ZM 407.00 475.58 C391.26,471.50 387.00,470.08 387.00,468.92 C387.00,467.39 390.53,467.85 403.31,471.05 C422.90,475.96 423.00,475.99 423.00,477.54 C423.00,479.52 421.48,479.33 407.00,475.58 ZM 601.00 477.54 C601.00,475.99 601.10,475.96 620.69,471.05 C633.85,467.76 637.39,467.34 636.78,469.17 C636.45,470.16 605.88,478.83 602.25,478.96 C601.56,478.98 601.00,478.34 601.00,477.54 ZM 752.54 477.66 C751.17,476.65 750.88,475.62 751.39,473.59 C751.98,471.25 752.51,470.92 755.28,471.19 C757.77,471.43 758.57,472.03 758.83,473.81 C759.18,476.29 757.48,479.00 755.57,479.00 C754.92,479.00 753.55,478.40 752.54,477.66 ZM 406.00 464.91 C363.11,449.13 357.90,447.00 362.17,447.00 C363.59,447.00 401.35,459.54 416.75,465.13 C420.19,466.38 423.00,467.98 423.00,468.70 C423.00,470.78 420.33,470.19 406.00,464.91 ZM 601.00 468.62 C601.00,466.68 661.27,445.93 662.70,447.37 C662.99,447.65 661.48,448.61 659.36,449.50 C651.66,452.74 603.65,470.00 602.34,470.00 C601.60,470.00 601.00,469.38 601.00,468.62 ZM 360.50 463.91 C331.44,456.27 316.00,451.75 316.00,450.91 C316.00,449.72 318.70,450.29 350.93,458.37 C367.24,462.46 379.53,466.03 379.76,466.75 C380.40,468.72 376.73,468.18 360.50,463.91 ZM 644.23 466.75 C644.56,465.73 692.05,453.11 704.75,450.67 C710.22,449.62 708.36,451.75 702.25,453.54 C690.19,457.07 647.42,468.00 645.67,468.00 C644.65,468.00 644.01,467.44 644.23,466.75 ZM 198.39 462.43 C197.61,459.32 198.98,457.71 202.03,458.17 C207.25,458.94 206.69,465.00 201.40,465.00 C199.70,465.00 198.86,464.28 198.39,462.43 ZM 818.93 463.42 C817.15,461.27 818.88,458.60 822.32,458.19 C824.40,457.94 825.06,458.38 825.56,460.38 C825.91,461.76 825.89,463.36 825.54,463.94 C824.55,465.54 820.42,465.21 818.93,463.42 ZM 418.00 459.21 C385.20,443.61 349.99,426.55 348.16,425.36 C338.85,419.30 361.21,428.81 407.00,450.37 C416.75,454.96 422.62,458.29 422.82,459.33 C423.22,461.37 422.50,461.35 418.00,459.21 ZM 601.16 459.44 C601.50,457.69 617.45,449.80 656.66,431.99 C675.74,423.32 678.00,422.45 678.00,423.79 C678.00,424.65 608.07,458.89 603.09,460.47 C601.26,461.05 600.88,460.85 601.16,459.44 ZM 404.19 437.45 C394.67,431.15 387.16,425.55 387.50,425.00 C387.91,424.34 388.88,424.39 390.31,425.15 C394.30,427.25 419.47,443.22 421.25,444.78 C423.00,446.31 423.66,449.05 422.25,448.95 C421.84,448.92 413.71,443.74 404.19,437.45 ZM 601.00 447.55 C601.00,446.75 602.01,445.36 603.25,444.47 C609.24,440.13 635.01,424.00 635.94,424.00 C638.19,424.00 636.81,425.95 632.25,429.21 C625.74,433.87 602.28,449.00 601.57,449.00 C601.26,449.00 601.00,448.35 601.00,447.55 ZM 782.65 442.17 C781.74,441.17 781.00,439.85 781.00,439.24 C781.00,437.70 783.87,435.00 785.50,435.00 C787.04,435.00 790.00,437.67 790.00,439.07 C790.00,440.23 786.30,444.00 785.15,444.00 C784.69,444.00 783.57,443.18 782.65,442.17 ZM 235.41 441.62 C234.53,439.34 235.30,436.84 237.25,435.61 C239.82,434.00 242.50,436.04 242.50,439.61 C242.50,442.14 242.10,442.54 239.24,442.81 C237.05,443.03 235.80,442.64 235.41,441.62 ZM 398.56 413.42 C389.36,405.39 382.09,398.58 382.40,398.27 C382.71,397.96 385.11,399.37 387.73,401.42 C411.22,419.71 420.08,428.00 416.14,428.00 C415.66,428.00 407.75,421.44 398.56,413.42 ZM 607.00 426.62 C607.00,425.86 612.74,420.54 619.75,414.81 C638.55,399.43 640.94,397.61 641.57,398.24 C642.22,398.88 609.26,428.00 607.89,428.00 C607.40,428.00 607.00,427.38 607.00,426.62 ZM 354.74 405.05 C342.23,396.82 332.00,389.60 332.00,388.99 C332.00,387.63 333.03,388.23 358.77,404.50 C377.80,416.53 382.29,420.00 378.82,420.00 C378.08,420.00 367.24,413.27 354.74,405.05 ZM 644.25 418.75 C644.47,418.06 653.40,411.94 664.08,405.15 C688.93,389.34 692.00,387.56 692.00,388.95 C692.00,390.29 647.24,420.00 645.22,420.00 C644.46,420.00 644.02,419.44 644.25,418.75 ZM 609.60 403.16 C609.27,402.63 610.63,400.23 612.62,397.85 C617.15,392.41 649.38,357.88 654.89,352.56 C659.67,347.94 661.75,348.54 657.35,353.26 C655.69,355.04 645.33,366.40 634.31,378.50 C611.98,403.03 610.46,404.55 609.60,403.16 ZM 396.33 385.75 C369.84,356.94 363.70,349.96 364.30,349.37 C365.25,348.42 366.36,349.47 382.21,366.30 C402.42,387.75 414.00,400.75 414.00,401.99 C414.00,404.49 411.19,401.91 396.33,385.75 ZM 260.62 399.92 C260.38,399.14 259.64,395.58 258.99,392.01 C256.84,380.23 253.97,377.25 243.08,375.46 C234.60,374.08 234.09,371.87 241.97,370.74 C253.67,369.06 257.22,365.31 259.10,352.70 C259.89,347.38 260.67,345.00 261.62,345.00 C262.38,345.00 263.01,346.01 263.02,347.25 C263.03,348.49 263.69,352.65 264.50,356.50 C266.65,366.77 268.63,368.25 284.82,371.59 C288.99,372.46 286.50,374.38 279.57,375.66 C268.46,377.71 266.01,380.36 263.94,392.59 C262.75,399.62 261.44,402.52 260.62,399.92 ZM 268.73 375.00 C270.50,374.17 271.96,373.27 271.96,373.00 C271.96,372.73 270.50,371.83 268.73,371.00 C266.93,370.16 264.63,367.87 263.53,365.82 L 261.56 362.15 L 259.53 365.74 C258.41,367.72 256.05,370.05 254.27,370.92 C252.50,371.79 251.04,372.73 251.04,373.00 C251.04,373.27 252.50,374.17 254.27,375.00 C256.38,375.98 258.18,377.97 259.47,380.73 L 261.43 384.97 L 263.47 380.73 C264.77,378.01 266.65,375.96 268.73,375.00 ZM 761.61 399.92 C761.35,399.14 760.69,395.69 760.13,392.26 C758.11,379.99 755.00,376.98 742.47,375.19 C735.26,374.15 735.70,371.73 743.28,370.79 C755.03,369.32 758.21,366.02 760.32,353.08 C761.76,344.27 763.58,342.80 764.51,349.69 C765.70,358.50 767.91,364.79 770.57,366.88 C771.97,367.98 775.68,369.40 778.81,370.04 C785.84,371.46 789.48,372.85 788.56,373.77 C788.17,374.16 784.72,375.00 780.89,375.65 C769.63,377.55 767.02,380.43 764.81,393.40 C763.73,399.73 762.41,402.41 761.61,399.92 ZM 769.98 375.01 C773.80,373.43 773.78,372.57 769.91,370.96 C767.89,370.13 766.11,368.21 764.76,365.44 L 762.70 361.19 L 760.60 365.35 C759.30,367.92 757.27,370.07 755.27,371.00 C753.50,371.83 752.04,372.73 752.04,373.00 C752.04,373.27 753.50,374.17 755.27,375.00 C757.07,375.84 759.37,378.13 760.47,380.17 L 762.43 383.85 L 764.70 380.05 C765.94,377.97 768.32,375.70 769.98,375.01 ZM 217.39 398.57 C216.39,395.98 217.79,393.83 220.25,394.18 C221.90,394.41 222.50,395.17 222.50,397.00 C222.50,398.83 221.90,399.59 220.25,399.82 C218.89,400.01 217.75,399.51 217.39,398.57 ZM 802.05 398.56 C800.23,396.37 801.52,393.79 804.25,394.18 C805.89,394.41 806.50,395.17 806.50,396.99 C806.50,399.90 803.92,400.81 802.05,398.56 ZM 417.97 382.79 C412.60,375.39 403.74,360.92 404.26,360.41 C405.12,359.55 423.00,384.13 423.00,386.16 C423.00,388.17 420.79,386.69 417.97,382.79 ZM 602.00 385.66 C602.00,384.12 615.20,364.49 618.24,361.50 C621.71,358.09 619.75,361.89 611.30,374.94 C603.82,386.49 602.00,388.59 602.00,385.66 ZM 308.55 324.75 C308.33,324.06 307.88,321.81 307.53,319.75 C306.64,314.39 303.38,311.10 298.08,310.21 C293.55,309.45 291.12,307.00 294.90,307.00 C296.03,307.00 298.73,306.29 300.89,305.43 C304.99,303.79 306.34,301.68 307.74,294.72 C308.83,289.29 310.17,289.69 311.55,295.85 C313.04,302.46 315.21,304.71 321.56,306.28 C324.28,306.95 326.50,307.94 326.50,308.47 C326.50,309.01 324.53,309.78 322.12,310.19 C315.12,311.39 313.25,313.17 311.84,320.00 C310.66,325.69 309.41,327.51 308.55,324.75 ZM 311.77 305.49 L 309.31 303.04 L 307.03 305.46 L 304.76 307.89 L 307.12 310.74 L 309.48 313.59 L 311.85 310.77 L 314.22 307.95 L 311.77 305.49 ZM 712.60 321.02 C711.75,314.62 708.86,311.37 703.08,310.29 C696.75,309.11 696.87,307.38 703.37,306.03 C709.96,304.66 711.07,303.47 712.52,296.22 C713.13,293.14 714.10,290.47 714.68,290.27 C715.25,290.08 716.26,292.62 716.91,295.92 C718.27,302.84 720.70,305.38 726.91,306.37 C731.00,307.02 733.14,308.70 730.81,309.43 C730.09,309.66 727.76,310.13 725.64,310.49 C720.20,311.39 717.38,314.60 716.52,320.84 C715.59,327.58 713.48,327.68 712.60,321.02 ZM 716.88 305.58 L 714.56 303.17 L 712.18 305.55 L 709.79 307.93 L 712.13 310.76 L 714.48 313.59 L 716.83 310.79 L 719.19 307.98 L 716.88 305.58 ZM 262.67 320.33 C261.48,319.14 261.96,315.28 263.45,314.04 C264.25,313.38 265.80,313.12 266.90,313.47 C269.41,314.26 270.55,317.63 268.96,319.55 C267.72,321.04 263.86,321.52 262.67,320.33 ZM 754.97 318.94 C753.99,317.12 754.13,316.43 755.78,314.78 C758.54,312.02 762.26,313.89 761.81,317.82 C761.39,321.43 756.71,322.20 754.97,318.94 ZM 350.39 313.57 C349.39,310.98 350.79,308.83 353.25,309.18 C354.90,309.41 355.50,310.17 355.50,312.00 C355.50,313.83 354.90,314.59 353.25,314.82 C351.89,315.01 350.75,314.51 350.39,313.57 ZM 668.39 313.57 C667.39,310.98 668.79,308.83 671.25,309.18 C672.90,309.41 673.50,310.17 673.50,312.00 C673.50,313.83 672.90,314.59 671.25,314.82 C669.89,315.01 668.75,314.51 668.39,313.57 ZM 396.57 277.43 C395.71,276.56 395.00,275.25 395.00,274.50 C395.00,272.73 397.76,270.00 399.55,270.00 C400.32,270.00 401.70,271.14 402.61,272.53 C404.16,274.89 404.15,275.18 402.48,277.03 C400.32,279.41 398.67,279.52 396.57,277.43 ZM 622.20 277.80 C620.53,276.13 620.70,272.49 622.53,270.98 C623.70,270.00 624.64,269.97 626.53,270.83 C630.54,272.66 629.35,279.00 625.00,279.00 C624.12,279.00 622.86,278.46 622.20,277.80 ZM 344.83 269.53 C343.36,266.30 345.29,263.78 348.91,264.20 C350.93,264.43 351.57,265.13 351.83,267.39 C352.38,272.23 346.83,273.92 344.83,269.53 ZM 673.04 270.55 C670.38,267.35 674.29,262.43 677.75,264.61 C681.21,266.79 679.98,272.00 676.00,272.00 C675.03,272.00 673.70,271.35 673.04,270.55 ZM 388.66 247.25 C388.39,246.82 387.65,243.56 387.00,240.01 C386.36,236.46 385.41,232.76 384.89,231.79 C383.65,229.49 379.43,227.34 374.47,226.50 C365.42,224.96 364.43,223.49 371.75,222.44 C382.51,220.89 385.28,218.27 386.91,208.12 C387.47,204.61 388.14,201.52 388.40,201.27 C389.65,200.02 390.80,202.50 391.39,207.75 C392.56,218.05 394.80,220.07 407.80,222.55 C412.74,223.49 411.18,225.19 404.04,226.64 C400.42,227.38 396.73,228.84 395.45,230.05 C393.09,232.26 391.00,238.77 391.00,243.88 C391.00,246.81 389.62,248.80 388.66,247.25 ZM 390.52 229.93 C390.88,228.79 392.48,227.07 394.07,226.10 L 396.96 224.35 L 393.92 222.10 C392.25,220.86 390.53,218.91 390.10,217.75 C389.36,215.75 389.23,215.80 387.50,218.74 C386.49,220.44 384.54,222.34 383.16,222.97 L 380.66 224.11 L 383.74 225.99 C385.43,227.02 387.12,228.79 387.48,229.93 C387.84,231.07 388.52,232.00 389.00,232.00 C389.48,232.00 390.16,231.07 390.52,229.93 ZM 633.71 246.44 C633.41,245.37 632.87,242.30 632.50,239.62 C631.22,230.17 628.71,227.69 619.13,226.42 C616.29,226.05 613.73,225.37 613.45,224.92 C612.73,223.75 615.80,222.38 620.88,221.61 C623.28,221.24 626.09,220.49 627.11,219.94 C629.84,218.48 631.98,213.72 632.79,207.31 C633.63,200.60 635.62,199.19 636.48,204.69 C638.47,217.36 640.71,220.15 650.35,221.97 C658.17,223.45 658.65,225.17 651.53,226.19 C641.40,227.64 638.44,230.52 637.31,240.05 C636.99,242.77 636.17,245.76 635.49,246.69 C634.35,248.25 634.21,248.23 633.71,246.44 ZM 636.28 230.05 C636.56,228.98 638.08,227.29 639.66,226.30 L 642.53 224.50 L 638.27 220.27 C635.86,217.89 634.00,216.67 634.00,217.48 C634.00,218.27 632.45,220.15 630.56,221.66 L 627.13 224.40 L 629.97 226.13 C631.54,227.08 633.12,228.79 633.48,229.93 C634.31,232.54 635.61,232.59 636.28,230.05 ZM 331.18 233.72 C329.36,231.53 332.27,228.13 334.69,229.61 C337.19,231.14 337.02,234.43 334.41,234.80 C333.26,234.96 331.81,234.48 331.18,233.72 ZM 687.59 233.37 C686.89,231.55 688.59,229.00 690.50,229.00 C692.41,229.00 694.11,231.55 693.41,233.37 C693.07,234.27 691.76,235.00 690.50,235.00 C689.24,235.00 687.93,234.27 687.59,233.37 ZM 438.55 181.47 C437.69,175.78 435.53,173.50 430.15,172.64 C427.87,172.28 426.00,171.58 426.00,171.10 C426.00,170.04 428.46,169.00 430.95,169.00 C434.63,169.00 437.78,165.25 438.50,160.00 C439.26,154.50 440.64,153.48 441.55,157.75 C443.47,166.72 444.36,167.69 452.25,169.43 C456.26,170.31 455.61,171.88 450.94,172.63 C445.39,173.51 443.09,175.70 442.21,180.92 C441.21,186.92 439.41,187.19 438.55,181.47 ZM 441.92 168.92 C440.77,167.77 439.74,166.98 439.63,167.17 C439.52,167.35 438.86,168.25 438.16,169.17 C437.11,170.55 437.18,171.18 438.56,172.80 C440.20,174.72 440.28,174.72 442.12,172.88 C443.96,171.04 443.96,170.96 441.92,168.92 ZM 582.67 185.33 C582.30,184.97 582.00,183.15 582.00,181.29 C582.00,176.83 578.62,173.51 573.21,172.65 C570.89,172.28 569.00,171.58 569.00,171.10 C569.00,169.98 571.51,169.00 574.36,169.00 C577.95,169.00 580.87,166.25 581.55,162.22 C583.03,153.45 584.51,152.52 585.58,159.69 C586.35,164.81 589.63,169.00 592.87,169.00 C595.41,169.00 598.00,170.00 598.00,170.99 C598.00,171.41 596.00,172.27 593.56,172.88 C588.51,174.15 586.23,176.75 585.35,182.25 C584.76,185.89 584.05,186.71 582.67,185.33 ZM 585.53 169.03 C583.77,167.08 583.60,167.07 582.00,168.74 C580.45,170.36 580.44,170.68 581.91,172.68 C583.47,174.83 583.53,174.84 585.44,172.97 C587.32,171.12 587.32,171.02 585.53,169.03 ZM 455.53 921.65 C453.48,920.15 453.80,917.16 456.17,915.67 C457.37,914.90 458.27,914.98 459.42,915.93 C463.05,918.95 459.33,924.42 455.53,921.65 ZM 564.04 921.55 C561.39,918.36 565.30,913.34 568.42,915.93 C570.58,917.73 570.41,920.71 568.07,921.96 C565.59,923.29 565.48,923.28 564.04,921.55 ZM 392.57 903.43 C391.39,902.25 391.26,901.39 392.04,899.93 C393.14,897.87 393.90,897.64 396.42,898.61 C398.61,899.45 398.40,902.72 396.07,903.96 C394.61,904.74 393.75,904.61 392.57,903.43 ZM 392.04 889.07 C391.25,887.61 391.39,886.75 392.62,885.52 C393.51,884.64 394.71,884.07 395.29,884.26 C397.06,884.85 398.36,887.62 397.69,889.36 C396.83,891.61 393.30,891.42 392.04,889.07 ZM 392.04 875.55 C390.99,874.29 390.99,873.71 392.04,872.45 C394.05,870.04 397.50,871.02 397.50,874.00 C397.50,876.98 394.05,877.96 392.04,875.55 ZM 392.53 862.38 C390.70,860.56 390.90,859.10 393.17,857.66 C396.67,855.46 399.76,859.84 396.80,862.80 C395.21,864.39 394.46,864.32 392.53,862.38 ZM 391.93 848.42 C390.28,846.43 391.79,843.64 394.77,843.19 C397.28,842.82 398.75,846.39 396.96,848.55 C395.39,850.44 393.57,850.39 391.93,848.42 ZM 392.09 834.61 C390.63,832.85 392.23,829.00 394.41,829.00 C396.74,829.00 398.52,831.95 397.33,833.83 C395.93,836.07 393.59,836.42 392.09,834.61 ZM 392.36 820.50 C391.57,818.44 392.64,816.00 394.35,816.00 C395.12,816.00 396.32,816.67 397.00,817.50 C397.99,818.70 397.99,819.30 397.00,820.50 C396.32,821.33 395.12,822.00 394.35,822.00 C393.57,822.00 392.68,821.33 392.36,820.50 ZM 627.43 903.58 C625.44,902.12 626.05,899.30 628.55,898.34 C630.62,897.55 633.25,900.18 632.46,902.25 C631.59,904.52 629.49,905.08 627.43,903.58 ZM 626.44 888.83 C625.18,884.83 630.94,882.79 632.44,886.70 C632.77,887.56 632.52,888.87 631.89,889.63 C630.17,891.71 627.22,891.27 626.44,888.83 ZM 626.36 875.50 C625.49,873.22 626.71,871.00 628.85,871.00 C629.90,871.00 631.32,871.67 632.00,872.50 C633.56,874.39 631.73,877.00 628.85,877.00 C627.80,877.00 626.68,876.33 626.36,875.50 ZM 627.49 862.62 C625.26,860.98 625.95,857.58 628.60,857.20 C631.10,856.84 633.26,859.15 632.44,861.30 C631.59,863.50 629.47,864.07 627.49,862.62 ZM 627.05 848.56 C624.35,845.30 628.81,841.39 631.81,844.38 C633.08,845.66 633.21,846.44 632.38,847.77 C630.92,850.09 628.60,850.43 627.05,848.56 ZM 627.05 834.56 C624.35,831.30 628.81,827.39 631.81,830.38 C633.08,831.66 633.21,832.44 632.38,833.77 C630.92,836.09 628.60,836.43 627.05,834.56 ZM 626.99 820.49 C625.89,819.16 625.93,818.64 627.26,817.31 C629.40,815.17 632.23,816.36 631.82,819.24 C631.43,821.97 628.79,822.66 626.99,820.49 ZM 508.67 875.33 C506.06,872.73 509.90,867.26 513.39,868.60 C515.52,869.41 516.41,872.80 514.96,874.55 C513.72,876.04 509.86,876.52 508.67,875.33 ZM 406.20 796.80 C403.00,793.60 406.38,788.94 410.53,790.83 C414.38,792.59 413.23,798.00 409.00,798.00 C408.12,798.00 406.86,797.46 406.20,796.80 ZM 612.20 796.80 C608.97,793.57 613.95,788.06 617.47,790.98 C620.31,793.33 618.67,798.00 615.00,798.00 C614.12,798.00 612.86,797.46 612.20,796.80 ZM 494.07 653.00 C494.04,651.08 494.88,642.30 495.94,633.50 C499.85,601.09 500.20,599.00 501.63,599.00 C503.52,599.00 503.45,599.93 499.49,627.81 C496.04,652.04 494.21,660.59 494.07,653.00 ZM 528.78 654.50 C528.13,652.66 523.03,618.06 521.45,604.75 C520.87,599.84 521.01,599.00 522.38,599.00 C523.27,599.00 524.00,599.23 524.00,599.51 C524.00,599.78 525.37,611.08 527.05,624.61 C529.89,647.47 530.59,659.62 528.78,654.50 ZM 542.71 638.32 C542.07,637.27 533.38,606.55 532.50,602.25 C531.78,598.72 533.29,597.75 534.83,600.75 C536.15,603.32 544.28,638.06 543.70,638.64 C543.42,638.91 542.98,638.77 542.71,638.32 ZM 480.08 637.25 C480.62,632.29 489.82,599.52 490.75,599.23 C491.44,599.01 492.00,599.42 492.00,600.14 C492.00,602.97 481.71,638.00 480.88,638.00 C480.40,638.00 480.04,637.66 480.08,637.25 ZM 511.75 630.42 C510.56,629.22 510.83,599.00 512.03,599.00 C512.60,599.00 513.31,599.65 513.61,600.44 C514.42,602.54 512.63,631.31 511.75,630.42 ZM 468.41 621.68 C469.78,615.85 477.35,598.95 478.40,599.34 C479.89,599.90 479.56,600.97 474.33,612.50 C469.55,623.04 467.24,626.62 468.41,621.68 ZM 553.43 620.86 C550.50,615.20 545.00,601.85 545.00,600.41 C545.00,599.64 545.42,599.00 545.92,599.00 C546.72,599.00 553.45,615.06 555.46,621.75 C556.44,625.00 555.32,624.51 553.43,620.86 ZM 462.00 593.35 C462.00,592.99 463.62,589.79 465.60,586.25 C468.03,581.91 469.54,580.14 470.22,580.82 C470.90,581.50 470.00,583.81 467.47,587.91 C464.18,593.25 462.00,595.41 462.00,593.35 ZM 475.68 593.35 C475.31,592.97 475.01,570.35 475.01,543.08 C475.03,488.63 475.20,486.69 481.08,474.64 C486.92,462.66 497.36,451.72 507.81,446.64 L 512.11 444.55 L 517.81 447.47 C526.25,451.80 537.67,463.74 542.23,473.00 C548.93,486.61 549.05,487.94 548.76,543.70 L 548.50 593.50 L 512.43 593.76 C492.59,593.91 476.05,593.72 475.68,593.35 ZM 544.00 542.96 C544.00,492.34 543.57,488.06 537.28,475.57 C533.38,467.82 522.29,455.92 515.81,452.54 C512.18,450.64 512.08,450.64 508.31,452.56 C501.37,456.10 490.39,467.97 486.50,476.16 C480.35,489.12 480.04,492.30 480.02,542.75 L 480.00 588.00 L 512.00 588.00 L 544.00 588.00 L 544.00 542.96 ZM 556.72 587.84 C554.72,584.45 553.36,581.23 553.69,580.69 C554.44,579.48 556.34,581.91 559.58,588.22 C562.23,593.38 562.40,594.00 561.18,594.00 C560.73,594.00 558.73,591.23 556.72,587.84 ZM 461.00 575.36 C461.00,574.04 466.61,565.56 468.55,563.96 C471.02,561.91 471.37,563.67 469.18,567.20 C466.79,571.06 461.00,576.84 461.00,575.36 ZM 469.26 464.59 C465.54,461.06 462.78,457.90 463.12,457.55 C463.94,456.73 477.40,467.75 477.82,469.58 C478.46,472.38 475.90,470.89 469.26,464.59 ZM 546.56 470.10 C545.85,468.95 557.95,458.01 559.96,458.00 C560.80,458.00 559.52,459.95 556.96,462.58 C551.29,468.41 547.30,471.29 546.56,470.10 ZM 473.01 455.38 C469.11,450.64 466.20,446.47 466.56,446.13 C467.43,445.27 482.00,460.79 482.00,462.58 C482.00,465.44 479.97,463.82 473.01,455.38 ZM 542.49 462.99 C541.54,461.45 556.24,444.91 557.47,446.14 C557.98,446.65 545.88,462.34 544.16,463.40 C543.60,463.75 542.85,463.56 542.49,462.99 ZM 484.21 454.26 C480.32,448.70 473.85,436.00 474.92,436.00 C475.99,436.00 479.77,441.49 485.38,451.16 C488.34,456.27 487.39,458.79 484.21,454.26 ZM 536.61 456.18 C535.90,455.03 547.26,436.75 549.04,436.15 C549.75,435.92 547.84,440.38 544.80,446.07 C539.44,456.10 537.81,458.11 536.61,456.18 ZM 492.15 448.25 C490.32,444.77 484.92,426.66 485.25,425.10 C485.57,423.56 493.12,441.57 494.53,447.25 C495.31,450.36 493.63,451.06 492.15,448.25 ZM 529.59 449.15 C528.93,448.07 536.40,427.20 538.04,425.56 C539.81,423.79 539.07,427.40 535.50,438.01 C531.90,448.69 530.70,450.95 529.59,449.15 ZM 500.60 441.25 C498.24,429.67 497.28,418.15 498.92,421.00 C500.07,423.00 503.00,437.46 503.00,441.11 C503.00,444.78 501.34,444.88 500.60,441.25 ZM 521.00 441.68 C521.00,435.74 524.69,419.69 525.89,420.43 C526.61,420.88 525.15,433.51 523.50,440.98 C522.72,444.54 521.00,445.02 521.00,441.68 ZM 511.00 425.50 C511.00,417.52 511.38,411.00 511.85,411.00 C512.91,411.00 514.28,434.04 513.42,437.47 C511.91,443.49 511.00,438.99 511.00,425.50 ZM 484.23 537.25 C484.57,491.74 484.64,490.34 486.82,484.50 C490.82,473.77 500.43,461.78 508.51,457.42 C511.93,455.58 512.07,455.58 515.61,457.49 C524.13,462.08 532.88,473.11 537.29,484.80 C539.35,490.28 539.45,492.30 539.77,537.25 L 540.11 584.00 L 511.99 584.00 L 483.88 584.00 L 484.23 537.25 ZM 509.00 541.02 C509.00,499.89 508.88,498.80 503.29,491.24 C500.24,487.10 498.71,487.82 494.00,495.62 L 490.50 501.42 L 490.21 540.21 L 489.91 579.00 L 499.46 579.00 L 509.00 579.00 L 509.00 541.02 ZM 534.00 541.16 L 534.00 503.32 L 531.00 497.41 C529.34,494.16 526.89,490.71 525.55,489.74 C523.14,488.01 523.07,488.04 520.57,491.31 C515.20,498.36 515.00,500.13 515.00,541.13 L 515.00 579.00 L 524.50 579.00 L 534.00 579.00 L 534.00 541.16 ZM 513.29 493.00 C513.68,491.51 513.32,491.00 511.87,491.00 C510.24,491.00 510.10,491.32 511.00,493.00 C511.59,494.10 512.23,495.00 512.42,495.00 C512.61,495.00 513.00,494.10 513.29,493.00 ZM 497.85 483.32 C498.04,483.22 497.87,481.67 497.47,479.87 L 496.75 476.59 L 494.42 481.04 C491.20,487.21 491.31,488.95 494.75,485.92 C496.26,484.59 497.66,483.42 497.85,483.32 ZM 529.95 481.90 C527.58,476.84 527.56,476.82 526.81,479.62 C526.20,481.92 526.55,482.97 528.70,485.21 C530.16,486.73 531.58,487.76 531.85,487.49 C532.12,487.22 531.26,484.70 529.95,481.90 ZM 519.08 483.08 C523.79,478.37 522.85,470.04 517.38,467.95 C516.00,467.43 515.12,466.61 515.42,466.14 C515.71,465.66 515.10,464.50 514.06,463.56 C512.25,461.92 511.95,462.06 507.08,466.82 C502.58,471.24 502.00,472.28 502.00,475.98 C502.00,481.85 506.14,486.00 512.00,486.00 C515.26,486.00 516.78,485.37 519.08,483.08 Z" fill="rgba(0,0,0,1)"/>
</g>
</svg>