<svg xmlns="http://www.w3.org/2000/svg" width="1024" height="1024" viewBox="0 0 1024 1024">
<g>
<path d="M 484.22 971.42 C473.05,965.85 463.15,953.52 459.44,940.54 C458.48,937.17 457.73,931.09 457.73,926.53 C457.71,912.72 462.01,901.95 471.99,890.79 C477.04,885.14 477.08,885.04 475.42,882.52 C473.31,879.29 474.07,873.62 477.04,870.46 L 479.16 868.20 L 476.10 852.35 C471.76,829.91 470.39,821.50 468.40,805.00 C465.15,778.20 466.78,731.21 472.05,699.89 C475.86,677.20 474.24,665.97 465.97,657.68 C461.66,653.38 460.75,652.90 457.33,653.18 C453.55,653.50 453.47,653.60 451.09,660.50 C449.76,664.35 448.55,667.66 448.39,667.87 C448.23,668.07 447.07,667.03 445.80,665.56 L 443.50 662.89 L 438.56 665.07 C431.16,668.35 422.82,668.70 415.50,666.03 C409.04,663.67 408.21,663.58 403.25,664.57 C399.46,665.33 398.91,663.60 401.62,659.46 C402.50,658.11 402.94,657.00 402.58,657.00 C401.21,657.00 393.35,661.42 385.46,666.61 C380.96,669.58 376.79,672.00 376.18,672.00 C375.58,672.00 373.24,668.83 370.97,664.95 C367.95,659.78 366.41,658.03 365.18,658.38 C364.26,658.64 362.04,659.15 360.25,659.50 C356.24,660.31 356.05,659.00 359.22,652.49 L 361.44 647.92 L 357.99 641.21 C356.09,637.52 353.29,632.43 351.77,629.89 C350.25,627.35 349.00,624.51 349.00,623.58 C349.00,622.65 351.87,616.71 355.38,610.38 L 361.76 598.87 L 358.90 593.69 C357.32,590.83 356.03,588.10 356.02,587.62 C356.00,586.78 360.10,587.22 364.63,588.55 C366.47,589.09 367.34,588.13 370.95,581.59 C373.26,577.41 375.56,574.00 376.07,574.00 C376.58,574.00 379.81,576.07 383.25,578.61 C386.69,581.14 392.13,584.54 395.34,586.17 C401.65,589.36 401.57,589.42 399.29,583.35 C398.54,581.35 400.80,580.89 404.27,582.34 C407.30,583.61 407.99,583.55 411.56,581.71 C413.73,580.60 417.96,579.42 420.96,579.09 C426.08,578.54 426.49,578.29 427.36,575.25 C427.87,573.46 428.65,572.00 429.08,572.00 C429.52,572.00 430.87,573.78 432.10,575.96 C433.49,578.45 436.39,581.20 439.91,583.37 C442.98,585.28 446.80,588.20 448.38,589.86 C451.10,592.72 451.38,592.80 453.62,591.33 C455.76,589.93 456.04,589.93 456.60,591.39 C457.62,594.06 458.51,593.25 460.42,587.95 C464.96,575.33 461.15,560.54 451.13,551.92 C448.31,549.49 446.00,546.69 446.00,545.71 C446.00,544.73 446.89,542.17 447.98,540.03 C454.41,527.44 457.35,504.50 461.50,434.50 C469.29,303.20 479.61,225.93 499.45,150.50 C510.13,109.92 512.14,107.45 518.36,127.33 C530.71,166.85 543.11,228.01 549.92,283.00 C555.64,329.13 558.69,366.06 564.02,453.50 C567.10,504.17 569.25,520.72 574.55,534.55 C578.93,546.00 578.88,547.03 573.77,551.22 C571.27,553.28 567.89,557.56 565.93,561.17 C562.74,567.06 562.50,568.12 562.52,576.50 C562.54,582.85 563.06,586.65 564.29,589.42 C565.89,592.99 566.15,593.18 567.34,591.55 C568.45,590.03 568.95,589.95 570.70,591.04 C572.53,592.18 573.29,591.88 577.63,588.32 C580.31,586.11 584.19,583.30 586.26,582.07 C588.33,580.83 591.19,577.82 592.63,575.37 C594.07,572.92 595.47,571.13 595.74,571.40 C596.01,571.68 596.53,573.38 596.90,575.20 C597.55,578.36 597.81,578.53 603.22,579.11 C606.32,579.45 610.46,580.66 612.41,581.82 C615.72,583.76 616.22,583.81 619.53,582.42 C624.11,580.51 625.23,581.27 624.39,585.75 L 623.71 589.34 L 627.61 586.98 C629.75,585.68 632.62,583.93 634.00,583.09 C635.38,582.25 638.79,579.86 641.59,577.78 C644.39,575.70 647.32,574.00 648.10,574.00 C648.88,574.00 651.31,577.37 653.51,581.50 C656.10,586.38 657.97,588.82 658.84,588.50 C659.57,588.22 661.94,587.71 664.09,587.37 C668.85,586.61 669.00,587.42 665.29,594.02 L 662.59 598.83 L 665.45 604.17 C667.02,607.10 670.11,612.58 672.33,616.35 C675.85,622.35 676.19,623.46 675.08,625.24 C672.36,629.61 663.00,647.11 663.00,647.85 C663.00,648.28 664.08,650.85 665.39,653.56 C666.71,656.28 667.57,658.86 667.30,659.31 C666.86,660.04 663.37,659.66 658.82,658.38 C657.59,658.03 656.05,659.78 653.03,664.95 C650.76,668.83 648.54,672.00 648.09,672.00 C647.64,672.00 643.95,669.81 639.89,667.14 C631.60,661.69 624.03,657.64 623.37,658.30 C623.12,658.54 623.47,659.94 624.14,661.40 C625.91,665.29 624.20,666.53 619.68,664.64 C616.34,663.24 615.79,663.29 611.79,665.27 C605.53,668.37 593.42,668.33 586.19,665.20 L 580.87 662.89 L 578.86 665.45 C577.76,666.85 576.49,668.00 576.04,668.00 C575.59,668.00 574.43,665.09 573.47,661.53 C570.71,651.33 567.06,649.71 560.06,655.61 C555.23,659.67 552.15,665.85 550.88,674.06 C549.86,680.64 550.03,683.64 552.32,700.00 C556.74,731.52 557.44,740.67 557.40,767.00 C557.37,800.08 554.49,825.02 546.80,858.94 C545.23,865.91 544.98,868.49 545.85,868.78 C549.40,869.97 551.25,879.91 548.60,883.54 C547.32,885.28 547.69,885.99 552.85,891.54 C559.66,898.88 563.55,906.36 565.64,916.18 C567.46,924.76 566.95,935.92 564.38,943.50 C560.52,954.89 551.17,965.71 540.59,971.03 C533.62,974.53 530.49,974.78 528.97,971.94 C528.06,970.24 528.39,969.06 530.87,965.19 C540.21,950.58 535.87,933.81 521.00,927.08 C513.06,923.49 502.65,925.26 496.15,931.31 C491.99,935.18 488.79,942.80 488.75,948.93 C488.70,954.65 491.82,963.78 494.61,966.09 C496.52,967.67 496.39,972.64 494.42,973.39 C491.62,974.47 489.50,974.06 484.22,971.42 ZM 483.54 961.25 C476.01,941.76 489.28,919.87 509.62,918.24 C526.66,916.87 541.57,929.82 542.74,947.00 C542.98,950.58 542.74,955.41 542.20,957.75 C541.66,960.09 541.58,962.00 542.03,962.00 C543.69,962.00 553.17,950.33 555.49,945.44 C563.25,929.03 560.20,910.34 547.46,896.17 C541.76,889.82 538.47,888.00 532.80,888.01 L 528.50 888.03 L 532.90 890.26 C545.33,896.57 553.74,909.44 554.71,923.61 C555.35,933.04 553.28,942.48 549.24,948.50 L 546.55 952.50 L 545.83 946.16 C544.13,931.33 538.43,922.31 527.31,916.83 C521.20,913.83 519.70,913.50 512.02,913.54 C501.86,913.59 496.54,915.62 489.48,922.12 C483.32,927.80 480.17,934.27 478.98,943.68 C478.44,947.89 477.83,951.50 477.61,951.72 C476.75,952.59 473.18,946.14 471.15,940.06 C464.92,921.36 472.80,901.04 490.14,891.09 L 495.50 888.02 L 490.91 888.01 C487.19,888.00 485.49,888.66 481.83,891.50 C476.44,895.70 471.85,901.89 468.29,909.72 C464.48,918.14 463.92,931.25 466.98,940.45 C469.32,947.48 473.89,954.36 479.80,959.75 C483.87,963.46 484.49,963.71 483.54,961.25 ZM 478.71 930.00 C481.36,924.16 487.08,917.64 491.96,914.90 L 495.83 912.73 L 492.98 910.33 C489.86,907.71 487.51,901.98 488.31,898.93 C488.59,897.87 488.46,897.00 488.03,897.00 C486.28,897.00 478.64,906.53 476.16,911.82 C473.86,916.72 473.50,918.80 473.50,927.00 C473.50,937.51 474.75,942.81 475.97,937.50 C476.35,935.85 477.58,932.47 478.71,930.00 ZM 550.91 927.50 C550.94,920.33 550.49,917.37 548.66,912.92 C545.98,906.40 541.92,900.79 537.74,897.81 C534.95,895.83 534.80,895.81 535.35,897.60 C536.31,900.72 534.34,907.03 531.47,910.03 L 528.78 912.84 L 531.64 914.34 C538.20,917.78 547.95,931.35 547.99,937.08 C548.00,937.95 548.32,938.99 548.72,939.39 C550.08,940.74 550.86,936.49 550.91,927.50 ZM 526.76 908.62 C529.20,907.80 532.00,903.29 532.00,900.18 C532.00,894.94 523.02,889.05 515.00,889.04 C509.94,889.03 508.79,889.56 507.15,892.68 C505.05,896.67 508.70,902.00 513.51,902.00 C514.41,902.00 516.47,900.69 518.07,899.08 C521.42,895.73 522.76,896.62 520.62,900.78 C518.04,905.75 512.04,907.32 506.99,904.33 C502.44,901.65 500.63,895.43 503.06,890.88 C504.12,888.90 504.11,888.90 500.31,890.84 C494.88,893.61 492.80,896.29 492.80,900.50 C492.80,904.20 495.05,907.70 498.19,908.87 C500.57,909.75 524.02,909.55 526.76,908.62 ZM 542.69 879.36 C543.04,878.46 542.86,877.00 542.30,876.11 C541.41,874.70 537.69,874.47 512.18,874.23 C483.61,873.97 483.07,874.01 481.97,876.05 C481.14,877.60 481.16,878.49 482.05,879.56 C483.04,880.75 488.31,881.00 512.65,881.00 C538.96,881.00 542.13,880.83 542.69,879.36 ZM 537.59 864.49 C538.44,861.13 537.33,854.42 535.13,849.50 L 533.34 845.50 L 532.12 849.17 C530.74,853.31 528.94,855.22 527.38,854.19 C526.80,853.81 525.86,849.55 525.29,844.71 C524.16,835.24 523.47,833.98 516.89,829.43 C512.42,826.33 510.74,826.67 503.98,832.02 C500.47,834.79 500.29,835.25 499.20,844.12 C497.68,856.48 496.33,857.53 492.24,849.51 L 490.21 845.51 L 488.00 852.78 C486.51,857.67 486.00,861.19 486.44,863.53 L 487.09 867.00 L 512.03 867.00 L 536.96 867.00 L 537.59 864.49 ZM 494.36 834.52 C498.24,830.72 505.63,825.34 513.40,820.66 C529.01,811.25 538.79,803.55 543.84,796.71 C548.90,789.84 550.00,787.66 550.00,784.48 C550.00,782.26 549.20,783.03 545.02,789.28 C537.93,799.87 531.90,804.68 504.71,821.40 C496.77,826.28 485.61,836.54 483.12,841.24 C482.21,842.96 481.98,845.10 482.45,847.56 L 483.14 851.28 L 485.59 846.01 C487.04,842.88 490.61,838.20 494.36,834.52 ZM 542.00 846.55 C542.00,839.28 523.73,820.63 518.55,822.62 C516.17,823.53 516.64,824.22 522.21,828.00 C528.08,831.98 537.44,842.82 539.19,847.65 C540.62,851.60 542.00,851.06 542.00,846.55 ZM 495.93 841.69 C495.97,841.25 495.55,841.16 495.00,841.50 C494.45,841.84 494.03,843.10 494.07,844.31 C494.14,846.42 494.17,846.43 495.00,844.50 C495.47,843.40 495.89,842.14 495.93,841.69 ZM 529.58 841.25 C528.49,840.16 528.08,841.58 528.77,844.04 L 529.46 846.50 L 529.81 844.16 C530.00,842.88 529.90,841.57 529.58,841.25 ZM 491.14 825.41 C493.60,823.16 496.48,820.83 497.55,820.23 C498.61,819.64 499.26,818.96 498.99,818.74 C498.72,818.51 496.42,816.92 493.87,815.20 L 489.25 812.07 L 488.61 816.86 C487.31,826.72 483.23,827.58 480.40,818.60 C478.93,813.94 478.85,812.45 479.87,809.03 C481.01,805.25 480.91,804.75 478.42,801.49 C476.96,799.57 475.59,798.00 475.37,798.00 C475.15,798.00 475.19,799.69 475.46,801.75 C475.73,803.81 476.67,811.12 477.56,818.00 C478.45,824.88 479.61,832.23 480.15,834.34 L 481.13 838.19 L 483.90 833.84 C485.43,831.46 488.69,827.66 491.14,825.41 ZM 545.41 827.47 C547.46,813.97 549.16,798.83 548.68,798.34 C548.46,798.12 547.10,799.49 545.66,801.38 C543.34,804.42 543.17,805.18 544.14,807.97 C546.01,813.33 542.90,825.00 539.61,825.00 C538.13,825.00 535.00,817.69 535.00,814.25 C535.00,812.14 534.84,812.17 530.25,815.21 C527.64,816.93 525.30,818.50 525.06,818.70 C524.82,818.89 525.72,819.81 527.06,820.74 C531.52,823.83 538.99,831.24 541.12,834.70 C542.28,836.57 543.38,837.96 543.56,837.78 C543.74,837.59 544.57,832.96 545.41,827.47 ZM 485.98 812.31 C486.00,808.31 484.27,807.06 483.42,810.46 C482.54,813.95 483.80,818.93 485.05,816.95 C485.56,816.15 485.98,814.06 485.98,812.31 ZM 540.97 813.00 C540.97,811.62 540.58,809.89 540.11,809.14 C538.66,806.85 537.77,809.67 538.53,814.17 C539.27,818.56 540.97,817.75 540.97,813.00 ZM 506.90 815.09 C507.97,814.41 507.52,813.81 504.99,812.50 C493.60,806.61 481.10,794.49 475.92,784.34 L 474.00 780.58 L 474.00 784.13 C474.00,786.78 475.25,789.45 478.89,794.59 C484.55,802.60 487.10,805.10 496.00,811.36 C502.64,816.03 504.43,816.64 506.90,815.09 ZM 516.82 808.63 C519.60,806.58 519.83,806.10 518.51,805.01 C517.68,804.32 517.00,803.39 517.00,802.94 C517.00,801.50 521.06,800.80 522.50,802.00 C524.64,803.78 527.06,802.52 532.94,796.56 C538.22,791.22 538.32,791.00 538.73,784.32 C538.97,780.57 539.33,777.33 539.55,777.12 C539.76,776.90 541.08,777.48 542.48,778.39 C544.94,780.01 545.05,779.98 546.16,777.54 C547.58,774.43 545.94,769.76 540.60,761.72 C536.25,755.17 530.41,751.00 525.58,751.00 C521.40,751.00 520.22,749.51 522.45,747.05 C524.00,745.34 523.95,745.11 521.73,743.36 C520.43,742.34 517.73,740.63 515.74,739.56 C512.20,737.65 512.06,737.65 508.65,739.49 C506.74,740.52 504.18,742.11 502.97,743.02 C501.03,744.48 500.93,744.92 502.11,746.81 C503.85,749.59 502.69,750.64 497.03,751.40 C491.01,752.21 484.33,758.76 480.04,768.07 C477.17,774.28 477.01,775.14 478.26,777.53 C479.48,779.85 479.78,779.97 480.94,778.57 C481.66,777.71 483.09,777.00 484.12,777.00 C485.79,777.00 486.00,777.83 486.00,784.39 L 486.00 791.78 L 492.06 797.39 C497.83,802.73 501.14,804.20 502.50,802.00 C503.46,800.44 505.99,800.82 506.69,802.62 C507.07,803.62 506.63,804.63 505.57,805.22 C504.03,806.08 504.22,806.46 507.17,808.55 C511.40,811.54 512.86,811.55 516.82,808.63 ZM 481.68 783.81 C481.36,783.01 481.13,783.25 481.08,784.42 C481.04,785.47 481.27,786.06 481.60,785.73 C481.94,785.40 481.97,784.53 481.68,783.81 ZM 542.68 783.81 C542.36,783.01 542.13,783.25 542.08,784.42 C542.04,785.47 542.27,786.06 542.60,785.73 C542.94,785.40 542.97,784.53 542.68,783.81 ZM 487.84 750.05 C492.05,745.85 498.35,740.65 501.84,738.51 C507.48,735.04 507.99,734.47 506.46,733.35 C503.83,731.42 498.25,734.99 487.47,745.50 C477.72,755.00 473.97,760.79 474.05,766.21 C474.09,769.38 474.21,769.29 477.14,763.59 C478.96,760.07 483.28,754.61 487.84,750.05 ZM 550.31 765.25 C549.60,760.58 547.01,756.12 540.77,748.81 C534.94,741.99 526.30,735.51 511.53,726.90 C498.86,719.51 486.72,708.39 482.72,700.50 C480.22,695.56 480.18,695.53 479.48,698.27 C479.06,699.91 479.32,702.35 480.10,704.27 C482.48,710.05 494.70,721.08 507.50,728.99 C530.06,742.94 540.70,752.19 546.99,763.33 C548.75,766.45 550.34,769.00 550.53,769.00 C550.72,769.00 550.62,767.31 550.31,765.25 ZM 478.29 739.63 C477.92,733.38 478.16,731.04 479.32,729.51 C480.79,727.56 480.85,727.56 482.92,729.43 C484.07,730.47 485.54,733.06 486.17,735.18 C487.32,739.02 487.34,739.03 489.41,737.15 C490.56,736.11 493.43,734.00 495.79,732.47 L 500.07 729.69 L 497.29 727.85 C495.49,726.66 492.66,726.01 489.31,726.01 C483.27,726.00 481.70,724.47 485.00,721.80 L 487.32 719.92 L 484.31 716.71 C482.66,714.95 480.60,712.45 479.75,711.17 L 478.20 708.84 L 477.63 712.67 C476.94,717.28 475.21,736.79 474.64,746.48 L 474.23 753.45 L 476.50 750.61 C478.54,748.04 478.72,746.98 478.29,739.63 ZM 548.47 728.50 C547.53,718.05 546.69,709.42 546.61,709.31 C546.53,709.21 544.23,711.65 541.51,714.74 C538.49,718.17 537.04,720.51 537.80,720.77 C539.82,721.44 542.06,724.09 541.45,725.08 C541.14,725.59 538.42,726.00 535.41,726.00 C532.05,726.00 528.98,726.63 527.47,727.61 L 525.01 729.22 L 527.26 730.93 C528.49,731.87 531.15,733.87 533.18,735.38 L 536.85 738.12 L 538.76 733.81 C543.26,723.67 546.42,726.24 546.28,739.94 C546.22,746.20 546.63,749.03 547.85,750.91 L 549.50 753.45 L 549.84 750.47 C550.03,748.84 549.41,738.95 548.47,728.50 ZM 483.22 739.03 C482.72,735.66 480.99,733.82 481.01,736.69 C481.04,739.60 482.17,743.02 482.95,742.53 C483.34,742.29 483.46,740.71 483.22,739.03 ZM 543.00 738.30 C543.00,736.03 542.64,734.97 542.08,735.55 C540.43,737.27 540.36,742.00 542.00,742.00 C542.55,742.00 543.00,740.34 543.00,738.30 ZM 533.11 717.16 C541.53,709.54 545.20,703.92 544.81,699.23 L 544.50 695.50 L 542.21 699.79 C539.39,705.06 527.52,717.71 521.76,721.57 C519.42,723.14 517.29,724.58 517.03,724.77 C516.77,724.96 517.20,725.51 517.99,726.00 C519.96,727.21 525.73,723.84 533.11,717.16 ZM 490.73 723.40 C490.40,723.06 489.53,723.03 488.81,723.32 C488.01,723.64 488.25,723.87 489.42,723.92 C490.47,723.96 491.06,723.73 490.73,723.40 ZM 519.37 717.62 C529.04,710.71 529.20,710.43 527.45,703.96 C525.82,697.98 526.30,690.34 528.49,687.34 C529.77,685.60 529.90,685.60 532.02,687.51 C533.22,688.61 535.21,691.45 536.42,693.84 L 538.63 698.18 L 541.02 691.13 C542.34,687.26 543.20,683.86 542.92,683.59 C542.53,683.20 499.06,682.73 484.75,682.96 C482.48,682.99 482.00,683.44 482.00,685.56 C482.00,686.98 482.97,690.38 484.15,693.14 L 486.31 698.14 L 487.57 694.48 C488.96,690.44 492.64,686.00 494.61,686.00 C497.21,686.00 498.41,694.66 496.98,703.13 L 495.79 710.20 L 499.60 713.35 C504.17,717.12 511.16,721.81 512.37,721.92 C512.85,721.97 516.00,720.03 519.37,717.62 ZM 493.38 701.88 C494.29,697.28 494.14,692.00 493.08,692.00 C491.55,692.00 489.80,698.80 490.50,702.00 C491.35,705.88 492.59,705.82 493.38,701.88 ZM 533.95 699.00 C533.94,695.77 532.15,692.00 530.64,692.00 C529.65,692.00 529.89,697.08 531.10,701.41 C532.38,706.01 533.98,704.66 533.95,699.00 ZM 504.00 672.89 C498.15,667.82 478.58,657.09 477.38,658.28 C477.20,658.47 477.94,660.96 479.02,663.82 C480.11,666.68 481.00,670.29 481.00,671.84 C481.00,673.40 481.30,674.97 481.67,675.33 C482.03,675.70 488.00,675.98 494.92,675.96 L 507.50 675.92 L 504.00 672.89 ZM 543.36 671.41 C543.70,668.88 544.88,664.81 545.96,662.35 L 547.94 657.88 L 545.72 658.56 C538.56,660.75 525.84,667.83 520.00,672.89 L 516.50 675.92 L 529.61 675.96 L 542.73 676.00 L 543.36 671.41 ZM 517.67 665.16 C527.81,657.54 548.87,648.16 559.75,646.42 C563.46,645.83 563.82,645.54 562.93,643.88 C561.62,641.43 560.23,641.50 550.26,644.55 C539.44,647.84 528.86,652.70 520.01,658.42 C516.12,660.94 512.55,663.00 512.08,663.00 C511.60,663.00 507.35,660.57 502.63,657.61 C489.40,649.31 466.74,640.74 462.40,642.40 C460.45,643.15 460.64,646.00 462.64,646.00 C469.63,646.00 496.34,657.64 505.97,664.88 C508.98,667.15 511.70,669.00 512.00,669.00 C512.30,669.00 514.85,667.27 517.67,665.16 ZM 437.64 660.59 C445.54,656.91 450.04,652.14 461.16,635.67 C475.89,613.86 486.87,603.97 501.45,599.40 C505.50,598.13 505.50,598.13 502.29,598.07 C494.11,597.90 480.46,606.24 471.71,616.75 C469.08,619.91 462.82,628.47 457.80,635.76 C445.18,654.11 437.49,659.96 426.00,659.96 C415.84,659.96 408.35,654.43 404.68,644.23 C400.53,632.69 400.75,613.41 405.17,601.56 C410.52,587.22 423.23,582.35 436.00,589.76 C442.23,593.37 447.18,598.79 454.67,610.18 C458.19,615.54 461.51,620.20 462.04,620.52 C463.89,621.67 462.98,617.84 460.64,614.68 C459.34,612.93 456.98,609.04 455.39,606.03 C451.29,598.26 441.49,588.57 434.50,585.37 C429.63,583.14 427.94,582.85 423.14,583.39 C420.04,583.74 415.32,585.15 412.66,586.52 C409.99,587.88 407.41,588.75 406.92,588.45 C406.43,588.14 406.27,588.53 406.56,589.30 C406.86,590.08 406.18,592.27 405.06,594.17 C398.46,605.35 396.21,624.50 399.81,638.73 C401.99,647.32 405.35,654.10 409.28,657.79 C415.17,663.33 428.86,664.68 437.64,660.59 ZM 611.52 660.12 C613.59,658.90 615.96,658.16 616.79,658.47 C617.97,658.92 618.04,658.75 617.13,657.66 C616.24,656.59 616.31,655.99 617.42,655.06 C618.22,654.40 620.32,650.41 622.09,646.18 C625.03,639.19 625.36,637.33 625.78,625.50 C626.21,613.29 626.07,612.02 623.49,604.50 C621.98,600.10 619.90,595.30 618.87,593.84 C617.81,592.34 617.27,590.46 617.63,589.52 C618.06,588.40 617.81,587.95 616.89,588.15 C616.12,588.32 613.43,587.45 610.91,586.22 C603.96,582.82 594.92,582.57 589.22,585.60 C581.79,589.55 576.10,594.86 571.24,602.38 C568.71,606.30 565.07,611.86 563.15,614.75 C561.23,617.64 560.00,620.34 560.41,620.74 C561.39,621.73 566.02,616.08 570.93,607.91 C576.64,598.43 586.53,589.48 593.59,587.43 C608.07,583.22 618.41,592.34 621.95,612.43 C623.36,620.41 623.27,627.10 621.64,635.50 C619.83,644.86 617.64,649.74 613.24,654.26 C609.14,658.46 604.91,660.00 597.50,659.97 C586.55,659.94 577.79,652.71 563.77,632.16 C553.41,616.97 547.10,610.02 539.00,604.86 C532.87,600.95 524.98,597.97 521.07,598.07 C518.98,598.12 519.25,598.37 522.50,599.40 C537.79,604.26 548.49,613.88 562.28,635.17 C576.28,656.78 585.20,663.27 600.12,662.66 C605.81,662.42 608.71,661.78 611.52,660.12 ZM 394.78 652.73 C397.43,651.40 398.95,649.99 398.77,649.05 C398.25,646.33 395.64,646.88 387.78,651.37 C382.30,654.49 379.80,655.44 379.16,654.64 C378.67,654.01 374.59,646.67 370.10,638.31 L 361.92 623.13 L 369.07 610.31 C373.00,603.27 377.09,596.06 378.16,594.29 L 380.11 591.09 L 384.88 594.02 C392.56,598.75 397.13,600.40 398.13,598.82 C399.46,596.72 399.23,596.41 394.91,594.46 C392.66,593.45 387.94,590.72 384.41,588.40 L 378.00 584.19 L 373.33 592.85 C370.77,597.61 366.04,606.35 362.84,612.29 C359.63,618.22 357.00,623.25 357.00,623.47 C357.00,624.16 376.12,659.44 377.20,660.74 C378.00,661.71 379.61,661.19 384.37,658.44 C387.74,656.49 392.43,653.92 394.78,652.73 ZM 647.44 660.25 C648.04,658.67 651.39,652.57 663.15,631.66 C665.27,627.90 667.00,624.33 667.00,623.73 C667.00,622.96 648.43,587.21 646.49,584.24 C646.39,584.10 643.36,585.93 639.75,588.30 C636.14,590.67 631.39,593.42 629.21,594.41 C626.16,595.78 625.35,596.64 625.74,598.10 C626.45,600.82 627.61,600.54 636.44,595.50 C640.78,593.03 644.41,591.11 644.49,591.25 C646.21,593.94 649.73,600.24 653.29,607.00 C655.76,611.67 658.78,617.30 660.00,619.50 L 662.24 623.50 L 654.02 638.50 C649.50,646.75 645.42,653.90 644.96,654.39 C644.48,654.90 640.64,653.47 635.95,651.04 C628.56,647.19 627.64,646.93 626.23,648.34 C624.82,649.76 624.98,650.07 627.92,651.70 C629.71,652.69 634.17,655.37 637.84,657.66 C645.43,662.39 646.53,662.69 647.44,660.25 ZM 516.42 655.25 L 520.83 652.50 L 512.11 652.50 L 503.39 652.50 L 507.44 655.17 C509.67,656.64 511.61,657.88 511.75,657.92 C511.89,657.97 513.99,656.76 516.42,655.25 ZM 603.30 654.33 L 606.50 652.67 L 603.65 651.89 C599.72,650.83 585.00,649.60 585.00,650.35 C585.00,651.09 590.61,654.04 593.99,655.07 C597.95,656.27 599.87,656.12 603.30,654.33 ZM 436.29 652.80 C441.50,650.08 439.82,649.50 429.55,650.46 C421.86,651.18 419.34,652.13 420.43,653.89 C421.66,655.88 431.71,655.19 436.29,652.80 ZM 388.02 646.41 C394.37,642.69 394.49,642.43 390.85,640.60 C387.56,638.95 387.68,637.72 391.35,635.35 C394.22,633.49 394.62,632.75 394.21,630.01 L 393.75 626.82 L 388.87 631.62 C385.11,635.33 384.00,637.13 384.00,639.55 C384.00,641.26 383.69,642.98 383.31,643.36 C382.93,643.74 380.38,641.90 377.65,639.27 C372.84,634.64 372.75,634.60 374.70,638.00 C375.81,639.92 377.77,643.41 379.04,645.75 C380.32,648.09 381.49,650.00 381.63,650.00 C381.77,650.00 384.65,648.38 388.02,646.41 ZM 647.16 641.99 L 651.24 634.50 L 646.26 639.33 C641.08,644.34 640.00,644.24 640.00,638.71 C640.00,636.70 632.51,628.00 630.79,628.00 C628.68,628.00 630.25,633.05 633.04,635.24 C636.73,638.12 636.21,640.49 631.69,641.45 L 628.50 642.13 L 634.18 645.04 C637.30,646.65 640.16,648.44 640.52,649.03 C641.71,650.96 643.02,649.58 647.16,641.99 ZM 519.85 647.90 C524.28,646.36 524.34,646.47 515.76,640.39 L 512.02 637.74 L 506.51 641.54 C503.48,643.62 501.00,645.69 501.00,646.14 C501.00,648.51 514.49,649.77 519.85,647.90 ZM 420.50 644.52 C424.90,643.72 432.78,643.05 438.01,643.03 C446.39,643.00 447.67,642.76 448.76,641.02 C449.85,639.26 449.70,638.96 447.39,638.38 C441.55,636.92 414.00,640.03 409.80,642.62 C408.75,643.27 410.02,646.00 411.36,645.98 C411.99,645.97 416.10,645.31 420.50,644.52 ZM 614.50 644.02 C614.50,641.35 602.84,638.94 588.85,638.71 C581.89,638.59 575.86,638.83 575.45,639.23 C575.05,639.63 575.28,640.64 575.98,641.48 C576.95,642.64 579.52,643.01 586.87,643.06 C592.17,643.10 599.65,643.73 603.50,644.47 C611.94,646.09 614.50,645.98 614.50,644.02 ZM 490.92 644.65 C490.69,644.46 486.45,641.23 481.50,637.46 C476.55,633.69 472.17,630.14 471.77,629.56 C471.26,628.84 471.03,628.83 471.02,629.54 C470.98,632.06 487.17,645.00 490.36,645.00 C490.90,645.00 491.15,644.84 490.92,644.65 ZM 539.87 641.57 C542.97,639.68 547.30,636.23 549.50,633.90 L 553.50 629.68 L 550.00 632.03 C546.34,634.49 535.19,642.71 533.55,644.16 C531.34,646.11 534.64,644.75 539.87,641.57 ZM 498.35 635.94 C499.74,631.29 499.88,629.56 498.99,628.49 C497.75,627.00 489.62,622.00 488.43,622.00 C487.23,622.00 488.80,631.70 490.57,635.20 C492.37,638.76 494.93,642.00 495.93,642.00 C496.28,642.00 497.37,639.27 498.35,635.94 ZM 532.65 636.76 C535.08,632.91 537.31,621.00 535.60,621.00 C534.43,621.00 524.00,629.01 524.00,629.91 C524.00,630.61 525.49,635.24 527.51,640.81 C528.18,642.66 529.67,641.48 532.65,636.76 ZM 508.00 634.79 C508.00,634.12 504.70,632.00 503.67,632.00 C503.42,632.00 502.92,633.24 502.56,634.75 C502.20,636.26 501.65,638.35 501.34,639.38 C500.89,640.90 501.47,640.71 504.39,638.38 C506.38,636.80 508.00,635.18 508.00,634.79 ZM 521.87 636.91 C520.31,632.24 519.70,631.76 517.45,633.44 C515.57,634.84 515.62,634.99 519.00,637.85 C520.92,639.47 522.61,640.70 522.75,640.56 C522.89,640.43 522.50,638.79 521.87,636.91 ZM 470.70 636.25 C468.37,633.93 467.79,633.73 466.98,635.00 C465.51,637.32 465.78,637.83 468.75,638.28 C470.26,638.51 471.94,638.77 472.48,638.85 C473.01,638.93 472.21,637.76 470.70,636.25 ZM 558.74 637.54 C558.87,637.44 558.33,636.49 557.55,635.43 C556.15,633.56 556.03,633.58 553.31,636.32 L 550.50 639.14 L 554.50 638.44 C556.70,638.05 558.61,637.65 558.74,637.54 ZM 413.45 636.65 L 416.40 635.39 L 411.45 631.61 C407.24,628.39 406.45,628.09 406.14,629.60 C405.94,630.57 406.59,631.96 407.59,632.69 C408.99,633.71 409.12,634.28 408.20,635.20 C405.32,638.08 408.22,638.88 413.45,636.65 ZM 617.00 637.20 C617.00,636.76 616.46,635.86 615.79,635.19 C614.85,634.25 615.06,633.64 616.79,632.43 C618.73,631.07 619.96,627.00 618.43,627.00 C618.12,627.00 615.60,628.91 612.83,631.24 L 607.81 635.48 L 610.65 636.69 C613.96,638.11 617.00,638.35 617.00,637.20 ZM 655.70 625.01 C656.73,623.55 655.94,622.35 650.26,616.67 C646.62,613.02 643.40,610.27 643.12,610.54 C642.84,610.82 645.26,613.73 648.50,617.00 L 654.39 622.95 L 651.95 625.68 C650.60,627.18 648.04,630.01 646.26,631.96 C644.48,633.91 643.01,635.88 643.01,636.35 C643.00,637.32 653.87,627.60 655.70,625.01 ZM 375.19 629.69 C372.34,626.80 370.00,623.91 370.00,623.28 C370.00,622.64 372.53,619.38 375.62,616.04 C378.71,612.70 380.60,610.22 379.82,610.52 C378.18,611.15 368.00,622.46 368.00,623.65 C368.00,624.82 379.30,636.03 379.88,635.45 C380.16,635.17 378.05,632.59 375.19,629.69 ZM 484.98 631.94 C483.55,626.95 483.82,622.20 485.89,616.23 C487.66,611.09 487.66,611.00 485.85,612.64 C484.82,613.57 483.47,616.03 482.85,618.12 C481.84,621.48 481.48,621.79 479.73,620.85 C477.69,619.76 477.38,619.98 474.96,624.19 C473.86,626.11 475.30,627.50 478.38,627.50 C479.42,627.50 480.76,628.40 481.36,629.50 C485.50,637.07 486.68,637.87 484.98,631.94 ZM 542.06 630.88 C543.60,627.86 544.53,627.03 545.91,627.47 C546.91,627.79 548.26,627.39 548.94,626.57 C549.92,625.39 549.80,624.60 548.33,622.58 C546.33,619.83 545.45,619.47 544.50,621.00 C543.26,623.01 542.05,621.90 540.94,617.75 C539.77,613.36 538.36,611.00 536.93,611.00 C536.48,611.00 537.02,613.06 538.14,615.58 C540.23,620.32 540.44,630.18 538.52,634.41 C536.86,638.10 539.96,635.00 542.06,630.88 ZM 439.66 634.00 L 448.15 634.00 L 443.51 630.45 C438.21,626.41 437.24,626.51 431.50,631.64 C429.30,633.60 428.32,634.94 429.33,634.61 C430.34,634.27 434.99,634.00 439.66,634.00 ZM 416.75 628.59 C414.14,626.28 412.00,623.89 412.00,623.28 C412.00,622.67 414.02,620.39 416.50,618.21 C423.01,612.48 422.02,612.06 415.00,617.58 C411.70,620.17 409.03,622.79 409.07,623.40 C409.16,624.73 420.29,633.94 421.00,633.27 C421.27,633.00 419.36,630.90 416.75,628.59 ZM 570.50 633.00 C570.16,632.45 569.43,632.00 568.88,632.00 C568.33,632.00 568.16,632.45 568.50,633.00 C568.84,633.55 569.57,634.00 570.12,634.00 C570.67,634.00 570.84,633.55 570.50,633.00 ZM 595.00 633.63 C595.00,633.43 592.89,631.63 590.32,629.62 L 585.64 625.97 L 583.07 628.33 C581.66,629.63 579.39,631.44 578.03,632.35 C575.64,633.94 575.90,634.00 585.28,634.00 C590.62,634.00 595.00,633.84 595.00,633.63 ZM 597.65 628.93 C595.09,626.67 593.00,624.01 593.00,623.00 C593.00,621.99 594.91,619.56 597.25,617.60 C599.59,615.64 601.05,614.05 600.50,614.06 C599.95,614.07 597.25,616.10 594.50,618.57 L 589.50 623.07 L 595.46 628.49 C598.74,631.48 601.62,633.72 601.86,633.47 C602.11,633.22 600.21,631.18 597.65,628.93 ZM 433.87 624.66 C434.71,623.65 433.69,622.25 429.42,618.56 C422.61,612.69 421.18,613.06 427.65,619.03 L 432.34 623.35 L 427.66 627.43 C425.09,629.67 422.99,631.84 422.99,632.25 C423.00,633.09 432.19,626.68 433.87,624.66 ZM 609.59 628.75 C612.51,626.41 614.93,623.98 614.95,623.34 C615.00,622.07 604.98,613.69 604.26,614.41 C604.02,614.65 605.66,616.51 607.91,618.54 C610.16,620.57 612.00,622.74 612.01,623.37 C612.01,623.99 609.88,626.40 607.26,628.71 C601.06,634.20 602.74,634.23 609.59,628.75 ZM 516.26 630.01 C518.59,628.17 518.71,627.71 517.77,624.01 C516.77,620.03 516.72,620.00 512.00,620.00 C507.31,620.00 507.23,620.05 506.25,623.90 C505.34,627.50 505.47,627.97 507.88,629.85 C511.22,632.45 513.11,632.49 516.26,630.01 ZM 380.16 623.90 L 379.81 617.81 L 376.90 620.60 L 373.98 623.39 L 377.19 626.69 C378.95,628.51 380.42,630.00 380.45,630.00 C380.48,630.00 380.35,627.26 380.16,623.90 ZM 387.00 627.50 L 389.35 625.00 L 386.67 625.00 C384.49,625.00 384.00,625.46 384.00,627.50 C384.00,628.88 384.15,630.00 384.33,630.00 C384.50,630.00 385.71,628.88 387.00,627.50 ZM 457.69 627.50 L 460.50 624.99 L 458.14 623.00 C456.84,621.90 454.78,621.00 453.56,621.00 C450.35,621.00 449.78,619.98 451.52,617.33 C452.36,616.05 452.75,615.00 452.38,615.00 C451.43,615.00 442.00,622.29 442.00,623.03 C442.00,624.35 446.87,628.14 449.62,628.97 C454.06,630.29 454.69,630.18 457.69,627.50 ZM 579.67 626.30 L 583.14 623.66 L 579.90 621.08 C578.13,619.66 575.33,617.63 573.69,616.56 L 570.70 614.61 L 572.35 617.14 C574.21,619.97 573.70,621.00 570.44,621.00 C569.22,621.00 567.16,621.86 565.86,622.92 L 563.50 624.83 L 566.00 627.50 C568.15,629.80 569.04,630.08 572.35,629.56 C574.47,629.22 577.77,627.75 579.67,626.30 ZM 640.00 627.50 C640.00,625.46 639.51,625.00 637.33,625.00 L 634.65 625.00 L 637.00 627.50 C638.29,628.88 639.50,630.00 639.67,630.00 C639.85,630.00 640.00,628.88 640.00,627.50 ZM 648.20 621.41 C645.02,617.05 644.00,617.61 644.00,623.72 L 644.00 629.37 L 646.95 626.55 C649.79,623.83 649.83,623.65 648.20,621.41 ZM 424.83 625.68 L 427.01 623.36 L 424.57 621.07 L 422.13 618.77 L 418.97 621.02 L 415.81 623.27 L 418.65 625.60 C422.19,628.50 422.19,628.50 424.83,625.68 ZM 608.00 623.15 C608.00,622.75 606.65,621.64 605.01,620.66 C602.14,618.97 601.91,618.97 599.54,620.70 C596.41,622.97 596.42,623.40 599.62,625.91 L 602.23 627.97 L 605.12 625.92 C606.70,624.79 608.00,623.54 608.00,623.15 ZM 502.82 622.17 C503.11,620.23 502.69,620.00 498.82,620.00 L 494.50 620.01 L 497.50 622.47 C500.97,625.30 502.37,625.23 502.82,622.17 ZM 527.49 620.18 C526.12,620.01 523.93,620.01 522.63,620.18 C520.60,620.45 520.38,620.84 521.11,622.79 L 521.97 625.08 L 525.97 622.79 C529.74,620.64 529.83,620.48 527.49,620.18 ZM 386.94 619.44 C385.62,618.03 384.38,617.37 384.18,617.97 C383.49,620.03 384.94,622.00 387.14,622.00 L 389.35 622.00 L 386.94 619.44 ZM 638.85 621.11 C639.59,620.64 640.04,619.49 639.85,618.54 C639.55,617.08 639.15,617.20 637.08,619.41 C634.67,621.98 635.79,623.05 638.85,621.11 ZM 391.32 611.42 C387.59,608.28 387.45,606.00 390.98,606.00 C396.49,606.00 395.94,604.63 388.91,600.82 C384.94,598.67 381.38,597.26 380.98,597.70 C380.59,598.14 378.61,601.65 376.58,605.50 L 372.88 612.50 L 377.59 607.18 C382.62,601.50 383.95,601.58 383.98,607.57 C384.00,609.88 385.16,611.80 388.73,615.36 L 393.46 620.10 L 394.22 617.30 C394.87,614.87 394.49,614.09 391.32,611.42 ZM 414.85 609.86 C411.17,608.83 407.00,608.90 407.00,610.00 C407.00,610.55 407.45,611.00 408.00,611.00 C409.86,611.00 409.02,613.76 407.00,614.29 C405.65,614.64 405.00,615.65 405.00,617.41 C405.00,619.96 405.09,619.93 411.10,615.26 C416.79,610.85 417.04,610.48 414.85,609.86 ZM 443.16 616.39 C445.54,614.41 447.69,612.61 447.92,612.39 C448.15,612.18 443.87,612.00 438.42,612.00 L 428.50 612.01 L 433.00 615.96 C435.48,618.14 437.79,619.93 438.16,619.96 C438.52,619.98 440.77,618.38 443.16,616.39 ZM 590.80 616.22 L 595.09 612.50 L 585.55 612.31 C580.30,612.21 576.00,612.26 576.00,612.43 C576.00,612.94 585.29,620.00 585.91,619.97 C586.24,619.95 588.43,618.27 590.80,616.22 ZM 617.07 614.13 C615.07,612.80 615.04,612.61 616.63,610.86 C618.24,609.08 618.16,609.00 614.90,609.07 C607.52,609.22 607.25,610.19 613.12,615.34 C618.16,619.76 618.52,619.91 618.85,617.80 C619.08,616.34 618.45,615.05 617.07,614.13 ZM 636.19 614.25 C640.18,610.14 640.77,608.99 640.58,605.75 C640.46,603.69 640.53,602.00 640.74,602.00 C640.96,602.00 643.34,604.36 646.05,607.25 L 650.97 612.50 L 647.27 604.75 C645.23,600.49 643.31,597.00 643.00,597.00 C642.69,597.00 639.36,598.63 635.61,600.62 C628.60,604.35 628.19,605.95 634.25,605.98 C638.00,606.01 637.70,607.34 633.15,611.00 C630.12,613.44 629.40,614.62 629.76,616.55 C630.02,617.90 630.54,619.00 630.90,619.00 C631.27,619.00 633.65,616.86 636.19,614.25 ZM 504.75 614.75 C505.99,613.17 509.34,603.01 508.80,602.46 C508.57,602.24 506.61,602.54 504.44,603.14 C501.94,603.83 498.68,606.06 495.50,609.25 C490.93,613.84 490.67,614.34 492.50,615.06 C495.68,616.33 503.66,616.13 504.75,614.75 ZM 514.54 614.25 C514.16,613.29 513.61,611.26 513.30,609.75 C513.00,608.24 512.41,607.00 512.00,607.00 C511.59,607.00 511.00,608.24 510.70,609.75 C510.39,611.26 509.84,613.29 509.46,614.25 C508.90,615.69 509.35,616.00 512.00,616.00 C514.65,616.00 515.10,615.69 514.54,614.25 ZM 533.00 614.82 C533.00,611.32 517.37,600.30 515.32,602.34 C515.03,602.63 515.55,605.26 516.48,608.19 C517.40,611.11 518.33,614.06 518.55,614.75 C519.08,616.45 533.00,616.51 533.00,614.82 ZM 471.53 610.63 L 476.09 606.26 L 470.11 607.89 C466.83,608.79 463.85,609.82 463.50,610.17 C462.77,610.89 465.09,615.00 466.22,615.00 C466.63,615.00 469.02,613.03 471.53,610.63 ZM 559.17 613.35 C562.16,610.64 561.33,609.28 556.25,608.51 C553.64,608.12 550.61,607.33 549.53,606.75 C548.44,606.17 549.57,607.76 552.03,610.29 C554.49,612.83 556.69,614.92 556.92,614.95 C557.15,614.98 558.17,614.26 559.17,613.35 ZM 598.00 607.52 C606.88,606.60 614.16,604.74 614.73,603.25 C615.78,600.52 613.48,599.90 607.82,601.37 C604.79,602.17 597.17,603.13 590.90,603.53 C580.29,604.20 577.00,605.03 577.00,607.06 C577.00,608.72 584.73,608.89 598.00,607.52 ZM 446.63 606.15 C445.29,604.66 442.83,604.16 434.23,603.61 C428.33,603.24 420.68,602.42 417.23,601.79 C412.48,600.92 410.67,600.93 409.79,601.81 C408.11,603.49 409.12,604.07 417.22,606.06 C422.01,607.24 428.58,607.88 436.40,607.93 C447.94,608.00 448.26,607.94 446.63,606.15 ZM 479.00 600.44 C490.16,596.43 500.46,590.92 510.63,583.51 C511.54,582.85 512.46,582.85 513.37,583.51 C523.93,591.20 536.99,597.92 549.00,601.82 C559.02,605.08 563.68,605.92 564.92,604.68 C567.00,602.60 565.96,601.25 561.75,600.58 C549.83,598.69 531.05,590.38 518.26,581.33 C511.75,576.72 510.23,576.61 507.03,580.47 C502.61,585.79 473.70,598.87 462.73,600.52 C458.08,601.21 456.93,602.53 459.09,604.69 C460.42,606.02 467.97,604.41 479.00,600.44 ZM 437.00 596.11 C437.00,595.09 431.78,592.47 427.73,591.46 C424.94,590.77 419.00,592.53 419.00,594.05 C419.00,594.49 421.59,595.14 424.75,595.49 C427.91,595.84 431.17,596.27 432.00,596.45 C435.06,597.10 437.00,596.97 437.00,596.11 ZM 517.36 595.19 L 521.23 594.50 L 516.67 591.23 L 512.12 587.96 L 507.46 591.23 L 502.80 594.50 L 506.65 595.11 C512.07,595.96 513.01,595.97 517.36,595.19 ZM 602.68 594.89 L 605.50 593.79 L 602.44 592.30 C599.05,590.66 593.20,591.63 589.47,594.45 C587.66,595.82 587.99,595.94 593.68,595.97 C597.09,595.99 601.14,595.50 602.68,594.89 ZM 471.23 590.75 C474.90,587.90 476.11,574.75 473.58,565.25 C472.81,562.36 470.54,557.00 468.53,553.35 C466.52,549.70 465.25,546.41 465.69,546.04 C466.14,545.66 469.50,543.02 473.17,540.16 C489.60,527.34 502.41,508.20 508.41,487.52 C509.82,482.67 511.21,478.46 511.50,478.17 C512.59,477.07 513.86,479.72 515.96,487.50 C520.30,503.57 531.92,523.27 543.10,533.53 C546.46,536.61 557.60,545.33 559.80,546.59 C559.96,546.68 558.78,548.73 557.18,551.13 C550.65,560.93 548.00,572.90 550.00,583.52 C551.05,589.04 551.66,590.30 553.69,591.07 C555.03,591.58 556.26,592.00 556.42,592.00 C556.58,592.00 556.04,589.02 555.22,585.37 C552.49,573.21 556.55,557.87 564.83,549.09 C566.66,547.14 567.78,545.43 567.31,545.27 C563.81,544.10 552.18,535.30 545.89,529.06 C529.99,513.28 518.13,488.62 517.82,470.72 C517.74,466.09 518.15,464.47 519.86,462.65 L 522.00 460.37 L 518.04 443.57 C515.87,434.32 513.78,424.73 513.41,422.24 C512.53,416.38 511.82,417.89 509.04,431.50 C507.81,437.55 505.95,445.75 504.90,449.73 C502.62,458.41 502.55,460.38 504.45,461.96 C510.19,466.72 504.54,491.05 493.19,510.49 C487.63,520.02 472.41,535.90 463.50,541.48 C460.20,543.55 457.33,545.39 457.13,545.57 C456.93,545.76 458.36,547.77 460.32,550.06 C469.58,560.87 472.62,577.87 467.51,590.25 C466.64,592.35 468.80,592.64 471.23,590.75 ZM 489.46 577.95 C491.96,574.10 494.00,570.46 494.00,569.89 C494.00,567.38 491.53,570.12 486.42,578.32 C482.62,584.41 481.55,586.78 482.93,586.04 C484.02,585.45 486.96,581.81 489.46,577.95 ZM 541.43 584.25 C540.43,582.74 537.86,578.69 535.70,575.26 C533.55,571.82 531.37,569.27 530.86,569.59 C529.53,570.41 537.90,584.26 540.72,585.90 C543.34,587.43 543.41,587.27 541.43,584.25 ZM 545.16 576.98 C544.78,570.17 547.57,559.38 551.62,552.06 C553.82,548.07 553.91,547.53 552.44,546.71 C549.79,545.23 537.39,534.31 535.22,531.55 C531.91,527.35 531.86,528.00 534.53,539.75 C534.88,541.32 535.77,542.00 537.46,542.00 C541.29,542.00 541.31,543.64 537.51,546.00 C535.43,547.28 534.00,548.96 534.00,550.12 C534.00,551.20 533.07,553.90 531.94,556.12 C530.34,559.25 530.14,560.47 531.05,561.56 C532.02,562.73 532.94,562.36 536.61,559.36 C539.24,557.21 541.00,554.92 541.00,553.68 C541.00,552.06 540.73,551.87 539.80,552.80 C538.03,554.57 537.00,554.27 537.00,551.98 C537.00,549.63 541.04,547.42 543.56,548.39 C544.91,548.90 545.16,549.93 544.76,553.45 C544.49,555.88 544.69,558.29 545.22,558.82 C545.74,559.34 546.02,560.83 545.83,562.13 C545.59,563.87 544.76,564.58 542.75,564.82 C539.82,565.15 539.24,564.16 541.20,562.20 C543.42,559.98 540.92,560.98 537.58,563.65 L 534.26 566.29 L 537.00 570.40 C538.50,572.65 540.92,576.41 542.38,578.75 C543.83,581.09 545.13,583.00 545.26,583.00 C545.39,583.00 545.35,580.29 545.16,576.98 ZM 484.90 574.00 L 490.00 566.50 L 486.75 563.78 C483.55,561.09 480.46,559.86 482.80,562.20 C484.65,564.05 484.23,565.00 481.57,565.00 C478.77,565.00 477.46,562.23 478.60,558.75 C479.01,557.51 479.23,554.81 479.09,552.75 C478.92,550.03 479.30,548.82 480.49,548.37 C482.96,547.42 487.00,549.65 487.00,551.98 C487.00,554.27 485.97,554.57 484.20,552.80 C483.27,551.87 483.00,552.04 483.00,553.59 C483.00,554.71 484.91,557.17 487.40,559.26 C490.95,562.22 492.02,562.68 492.91,561.61 C494.77,559.37 490.02,548.25 486.16,545.81 C482.67,543.60 482.82,542.00 486.52,542.00 C488.46,542.00 489.11,541.27 489.91,538.25 C492.66,527.73 492.96,527.85 484.39,536.04 C480.05,540.19 475.19,544.52 473.58,545.65 L 470.67 547.72 L 473.79 554.11 C477.88,562.46 478.99,567.01 478.99,575.42 C479.00,579.22 479.18,582.15 479.40,581.92 C479.62,581.69 482.09,578.12 484.90,574.00 ZM 496.63 578.92 C500.33,576.63 500.68,575.81 498.64,574.11 C497.56,573.22 496.72,573.83 494.62,576.99 C491.60,581.56 491.90,581.84 496.63,578.92 ZM 529.87 577.50 C527.60,573.66 526.82,573.31 525.09,575.39 C524.17,576.50 524.60,577.19 527.22,578.81 C531.84,581.66 532.21,581.48 529.87,577.50 ZM 502.64 570.21 C500.32,567.90 499.33,569.61 501.56,572.07 C502.76,573.39 503.59,573.72 503.84,572.98 C504.06,572.33 503.52,571.09 502.64,570.21 ZM 523.12 572.11 C524.48,570.83 524.78,569.98 524.03,569.52 C522.67,568.68 520.00,570.73 520.00,572.62 C520.00,574.47 520.70,574.36 523.12,572.11 ZM 510.80 559.92 L 510.50 553.50 L 506.80 558.91 L 503.10 564.33 L 505.18 567.25 C507.24,570.14 507.29,570.15 509.18,568.26 C510.76,566.69 511.05,565.18 510.80,559.92 ZM 517.38 558.85 L 513.50 552.50 L 513.20 558.85 C512.98,563.47 513.35,565.88 514.55,567.72 L 516.21 570.25 L 518.73 567.72 L 521.26 565.19 L 517.38 558.85 ZM 498.00 565.56 C498.00,564.77 497.58,563.86 497.07,563.54 C495.88,562.81 494.68,564.68 495.50,566.00 C496.42,567.49 498.00,567.21 498.00,565.56 ZM 528.50 564.00 C528.02,563.22 527.44,563.16 526.77,563.83 C526.22,564.38 526.10,565.35 526.50,566.00 C526.98,566.78 527.56,566.84 528.23,566.17 C528.78,565.62 528.90,564.65 528.50,564.00 ZM 519.03 550.54 C515.57,545.29 512.46,541.00 512.12,541.00 C511.42,541.01 499.00,559.32 499.00,560.34 C499.00,560.71 499.56,560.98 500.25,560.95 C500.94,560.92 503.65,557.51 506.27,553.37 C508.90,549.23 511.59,546.03 512.25,546.25 C512.91,546.47 515.71,550.06 518.47,554.23 C521.40,558.64 523.88,561.45 524.41,560.94 C524.94,560.44 522.72,556.14 519.03,550.54 ZM 504.25 544.69 C507.96,539.03 511.00,534.12 511.00,533.76 C511.00,533.41 509.16,530.18 506.92,526.60 L 502.83 520.09 L 507.31 511.91 L 511.79 503.73 L 516.40 511.59 C518.93,515.92 521.00,519.83 521.00,520.28 C521.00,520.73 519.18,523.83 516.96,527.18 L 512.92 533.25 L 517.11 540.18 C523.05,550.01 526.93,555.16 527.93,554.54 C529.46,553.60 531.24,544.07 530.56,540.47 C530.04,537.69 529.19,536.69 526.33,535.49 C523.32,534.24 522.95,533.76 524.00,532.50 C524.68,531.67 526.04,531.00 527.01,531.00 C528.22,531.00 528.92,530.02 529.23,527.87 C529.58,525.47 528.88,523.55 526.20,519.62 C522.36,513.98 514.53,498.08 513.46,493.75 C512.71,490.70 511.01,490.01 510.99,492.75 C510.97,495.56 504.64,509.27 499.94,516.68 C497.17,521.04 495.55,524.81 495.42,527.15 C495.24,530.43 495.51,530.85 498.11,531.37 C501.19,531.99 502.20,535.00 499.33,535.00 C495.91,535.00 494.00,538.05 494.00,543.51 C494.00,548.64 495.58,555.02 496.85,554.98 C497.21,554.97 500.54,550.34 504.25,544.69 ZM 469.40 520.24 C471.34,509.68 473.38,488.64 475.49,457.50 C477.29,430.72 479.73,405.91 480.64,405.08 C482.64,403.26 475.69,515.59 473.41,522.00 C472.27,525.19 479.44,517.11 484.59,509.39 C490.54,500.47 495.34,489.75 497.54,480.50 C499.70,471.45 499.44,468.29 496.37,465.64 L 493.74 463.38 L 496.37 452.37 C497.81,446.32 499.92,437.12 501.05,431.93 C502.18,426.74 504.53,416.20 506.27,408.50 L 509.44 394.50 L 509.47 270.33 C509.49,202.04 509.37,146.30 509.21,146.46 C508.47,147.19 501.45,175.37 497.86,192.00 C489.35,231.41 483.94,266.39 478.06,320.00 C475.71,341.50 471.30,399.97 468.01,453.50 C466.89,471.65 465.27,493.02 464.41,501.00 C463.05,513.67 462.23,518.70 459.31,532.41 L 458.69 535.31 L 463.24 532.18 C467.73,529.09 467.80,528.95 469.40,520.24 ZM 565.62 533.25 C561.14,518.02 559.52,503.82 555.99,449.00 C549.94,354.91 547.36,324.32 541.92,282.00 C538.78,257.56 537.86,251.50 533.51,226.50 C529.58,203.84 517.00,148.67 515.41,147.08 C515.16,146.83 515.08,203.53 515.23,273.06 L 515.50 399.50 L 522.75 430.09 C526.74,446.91 530.00,461.59 530.00,462.72 C530.00,463.85 528.82,465.54 527.38,466.48 C524.96,468.07 524.82,468.56 525.43,473.20 C526.29,479.70 530.56,493.16 533.76,499.50 C537.44,506.78 544.39,517.05 547.93,520.44 C551.31,523.67 551.42,523.47 550.07,516.37 C548.90,510.18 546.42,475.93 544.49,439.07 C542.83,407.39 542.75,404.42 543.58,405.24 C544.45,406.11 546.61,428.56 549.49,466.50 C552.03,500.06 553.00,509.48 555.12,521.76 C556.07,527.25 556.71,528.46 560.28,531.51 C564.79,535.37 566.40,535.89 565.62,533.25 ZM 514.74 523.27 L 516.87 519.54 L 514.75 515.77 C513.59,513.70 512.38,512.00 512.07,512.01 C511.75,512.01 510.54,513.70 509.36,515.77 L 507.22 519.52 L 509.36 523.25 C510.54,525.30 511.75,526.98 512.05,526.99 C512.36,527.00 513.57,525.32 514.74,523.27 ZM 511.73 969.00 C511.41,968.17 510.86,965.34 510.50,962.69 C509.80,957.44 508.34,956.21 504.95,958.03 C502.79,959.18 502.78,959.15 504.37,956.88 C505.27,955.60 506.00,954.23 506.00,953.83 C506.00,953.43 503.29,952.57 499.98,951.92 C496.66,951.26 493.76,950.42 493.52,950.04 C493.29,949.66 495.99,948.77 499.52,948.07 L 505.94 946.79 L 504.37 943.75 C503.15,941.39 503.10,940.83 504.15,941.26 C504.89,941.56 506.26,942.11 507.18,942.48 C508.50,943.01 509.09,942.33 509.93,939.33 C510.51,937.22 510.99,934.49 510.99,933.25 C511.00,932.01 511.45,931.00 512.00,931.00 C512.55,931.00 513.00,931.93 513.00,933.06 C513.00,934.19 513.50,937.10 514.11,939.53 L 515.22 943.94 L 518.16 942.42 L 521.11 940.89 L 519.61 943.78 L 518.12 946.67 L 524.51 948.00 C528.03,948.74 530.71,949.66 530.47,950.05 C530.22,950.45 527.94,951.08 525.38,951.47 C517.81,952.60 517.66,952.75 519.98,956.69 L 522.02 960.15 L 519.08 958.06 C517.46,956.91 515.95,956.31 515.72,956.73 C515.28,957.55 513.32,965.15 512.69,968.50 C512.40,970.04 512.18,970.16 511.73,969.00 ZM 633.52 513.10 C632.76,509.63 630.48,507.40 626.75,506.47 C623.05,505.55 623.32,504.86 628.28,502.50 C631.44,501.00 632.71,499.69 633.39,497.25 C633.88,495.46 634.61,494.00 635.00,494.00 C635.39,494.00 636.12,495.46 636.61,497.25 C637.29,499.69 638.56,501.00 641.72,502.50 C646.72,504.88 646.98,505.63 643.10,506.48 C639.66,507.23 637.51,509.48 636.62,513.25 C635.77,516.83 634.33,516.76 633.52,513.10 ZM 386.04 507.07 C385.47,506.00 385.00,504.66 385.00,504.09 C385.00,502.41 389.57,499.90 391.37,500.59 C393.55,501.43 394.54,505.64 392.99,507.51 C391.24,509.62 387.26,509.36 386.04,507.07 ZM 362.04 478.54 C360.54,476.74 361.50,475.00 364.00,475.00 C365.04,475.00 366.17,475.47 366.53,476.04 C367.19,477.12 365.35,480.00 364.00,480.00 C363.58,480.00 362.70,479.34 362.04,478.54 ZM 307.00 475.20 C307.00,474.03 361.67,427.61 397.92,398.00 C437.68,365.53 447.58,357.57 449.93,356.23 C453.61,354.11 456.23,355.20 455.82,358.68 C455.51,361.25 448.82,367.39 434.38,378.37 C432.11,380.09 417.06,391.85 400.93,404.50 C360.93,435.87 313.70,472.16 310.02,474.33 C308.36,475.31 307.00,475.70 307.00,475.20 ZM 703.93 466.72 C686.98,454.07 626.31,407.01 601.88,387.57 C597.68,384.23 588.58,377.05 581.65,371.61 C568.94,361.64 566.84,359.11 569.04,356.45 C571.17,353.89 573.31,354.85 583.00,362.70 C668.45,431.93 720.45,476.00 716.68,476.00 C716.50,476.00 710.76,471.82 703.93,466.72 ZM 404.00 449.46 C404.00,446.80 452.07,380.00 453.99,380.00 C454.54,380.00 455.00,381.80 455.00,383.99 C455.00,387.50 453.82,389.54 445.31,400.74 C435.68,413.42 418.70,434.70 410.20,444.75 C406.27,449.39 404.00,451.12 404.00,449.46 ZM 614.13 444.69 C606.68,435.84 591.80,417.13 580.66,402.61 C570.77,389.71 570.00,388.39 570.00,384.23 C570.00,377.69 569.83,377.51 595.13,412.00 C603.84,423.89 620.00,447.93 620.00,449.01 C620.00,450.96 618.43,449.80 614.13,444.69 ZM 316.83 410.53 C315.36,407.30 317.29,404.78 320.91,405.20 C322.93,405.43 323.57,406.13 323.83,408.39 C324.38,413.23 318.83,414.92 316.83,410.53 ZM 367.22 384.83 C368.15,382.04 436.19,344.71 442.72,343.41 C445.84,342.78 447.39,343.79 446.18,345.65 C444.90,347.63 437.04,352.00 411.78,364.78 C388.27,376.67 368.77,386.00 367.41,386.00 C367.09,386.00 367.01,385.47 367.22,384.83 ZM 626.50 371.58 C586.24,351.64 578.00,346.92 578.00,343.81 C578.00,342.33 581.68,342.97 587.16,345.39 C601.88,351.90 658.00,383.47 658.00,385.24 C658.00,386.95 654.24,385.32 626.50,371.58 ZM 695.20 377.80 C693.62,376.22 693.69,375.46 695.57,373.57 C697.67,371.48 698.71,371.59 700.03,374.06 C701.92,377.59 698.01,380.61 695.20,377.80 ZM 322.70 364.37 C321.52,363.19 321.92,360.24 323.34,359.70 C325.36,358.93 327.24,360.50 326.84,362.61 C326.47,364.53 323.94,365.61 322.70,364.37 ZM 356.00 350.03 C356.00,348.64 368.50,345.03 401.50,336.91 C431.27,329.58 440.18,328.24 440.74,331.00 C440.91,331.83 440.17,333.04 439.11,333.71 C436.68,335.22 402.73,342.75 377.19,347.45 C355.62,351.42 356.00,351.37 356.00,350.03 ZM 661.00 350.04 C659.08,349.62 653.00,348.48 647.50,347.51 C622.70,343.14 588.07,335.39 585.09,333.55 C584.49,333.18 584.00,332.01 584.00,330.94 C584.00,328.43 586.03,328.45 598.05,331.04 C612.93,334.26 654.85,344.83 661.75,347.10 C670.61,350.02 670.10,352.02 661.00,350.04 ZM 238.59 340.75 C238.22,337.86 237.18,332.86 236.29,329.64 C234.33,322.53 232.04,320.85 221.09,318.51 C216.92,317.61 212.86,316.67 212.08,316.41 C209.38,315.50 212.60,313.93 221.41,311.85 C233.66,308.97 234.80,307.77 237.47,294.92 C239.95,283.00 241.94,281.12 243.21,289.50 C245.96,307.71 247.50,309.49 263.00,312.40 C272.38,314.16 272.14,316.09 262.28,318.17 C247.56,321.26 246.60,322.24 244.17,336.48 C242.89,344.00 242.21,346.00 240.91,346.00 C239.67,346.00 239.09,344.69 238.59,340.75 ZM 242.32 325.16 C243.03,321.62 246.78,317.92 251.16,316.44 L 254.50 315.32 L 249.69 313.19 C245.85,311.49 244.53,310.24 243.19,307.04 C242.26,304.83 241.27,303.02 241.00,303.02 C240.73,303.02 239.75,304.81 238.83,306.99 C237.46,310.25 236.20,311.39 231.83,313.32 L 226.50 315.66 L 230.19 316.37 C234.18,317.12 238.56,321.42 239.61,325.58 C240.42,328.82 241.62,328.64 242.32,325.16 ZM 781.56 344.75 C781.36,344.06 780.73,340.45 780.16,336.71 C778.85,328.07 776.31,322.88 772.50,321.08 C770.86,320.30 766.13,318.92 762.00,318.01 C751.85,315.79 752.14,314.19 763.10,311.97 C767.83,311.01 772.71,309.69 773.94,309.03 C776.72,307.55 778.50,303.37 779.93,294.99 C781.66,284.88 781.94,284.00 783.43,284.00 C784.38,284.00 785.19,286.29 785.99,291.25 C788.60,307.31 789.91,308.99 801.82,311.53 C806.04,312.43 810.31,313.40 811.31,313.67 C814.75,314.62 812.32,316.45 805.93,317.71 C796.00,319.68 791.14,321.82 789.52,324.96 C788.73,326.48 787.34,331.84 786.42,336.86 C785.25,343.25 784.32,346.00 783.34,346.00 C782.57,346.00 781.77,345.44 781.56,344.75 ZM 790.42 317.89 C792.11,316.85 794.31,316.01 795.31,316.00 C796.30,316.00 796.84,315.55 796.50,315.00 C796.16,314.45 795.04,314.00 794.02,314.00 C791.40,314.00 786.50,309.63 784.96,305.91 L 783.67 302.79 L 782.21 305.64 C779.85,310.29 776.90,312.93 773.34,313.60 C768.92,314.43 769.13,315.26 774.20,317.03 C777.62,318.23 778.86,319.40 780.88,323.34 L 783.37 328.19 L 785.35 323.98 C786.44,321.66 788.72,318.92 790.42,317.89 ZM 221.45 333.92 C220.76,332.80 225.20,327.54 228.19,325.91 C231.49,324.12 231.06,326.93 227.42,330.96 C223.59,335.19 222.55,335.71 221.45,333.92 ZM 254.70 331.21 C250.51,326.91 250.19,326.00 252.90,326.00 C255.08,326.00 261.33,332.65 260.46,334.06 C259.50,335.62 258.57,335.17 254.70,331.21 ZM 763.54 334.06 C763.22,333.55 764.78,331.22 767.00,328.88 C769.88,325.86 771.34,324.94 772.11,325.71 C773.57,327.17 771.85,330.26 768.10,332.93 C764.82,335.27 764.35,335.38 763.54,334.06 ZM 797.75 331.87 C794.12,328.91 793.09,326.68 794.84,325.60 C796.06,324.84 803.00,331.47 803.00,333.38 C803.00,335.65 802.04,335.38 797.75,331.87 ZM 385.93 318.65 C385.69,318.44 367.05,317.98 344.50,317.63 C301.43,316.96 283.00,316.18 283.00,315.01 C283.00,313.82 301.25,313.09 360.00,311.96 C430.30,310.60 444.86,310.82 446.39,313.25 C447.19,314.53 447.19,315.47 446.39,316.75 C445.38,318.34 442.62,318.52 415.82,318.76 C399.62,318.91 386.17,318.86 385.93,318.65 ZM 578.75 318.00 C576.32,316.48 576.56,313.31 579.21,311.89 C582.72,310.01 738.90,312.56 740.86,314.53 C741.12,314.79 741.14,315.19 740.91,315.42 C739.03,317.31 581.63,319.81 578.75,318.00 ZM 224.70 301.21 C220.54,296.95 220.20,296.00 222.80,296.00 C225.11,296.00 231.44,302.47 230.55,303.91 C229.49,305.64 228.65,305.25 224.70,301.21 ZM 251.43 303.89 C250.35,302.14 257.47,295.58 259.58,296.39 C261.10,296.98 260.81,297.61 257.47,301.03 C253.34,305.26 252.52,305.65 251.43,303.89 ZM 767.20 301.70 C763.85,298.25 763.10,296.00 765.30,296.00 C767.24,296.00 773.33,302.65 772.55,303.91 C771.51,305.61 770.63,305.25 767.20,301.70 ZM 793.45 303.91 C792.56,302.48 801.13,294.73 802.30,295.90 C803.48,297.08 801.67,300.33 798.37,302.92 C795.38,305.27 794.41,305.47 793.45,303.91 ZM 421.50 293.08 C380.65,279.20 362.46,272.04 366.05,271.27 C369.85,270.44 440.92,291.76 447.50,295.70 C449.11,296.66 449.29,297.24 448.39,298.70 C447.78,299.69 446.66,300.59 445.89,300.70 C445.13,300.81 434.15,297.38 421.50,293.08 ZM 576.03 299.06 C575.19,297.49 575.42,296.81 577.25,295.53 C581.08,292.84 652.42,271.00 657.39,271.00 C661.00,271.00 658.59,272.92 651.75,275.50 C622.80,286.42 580.82,301.00 578.33,301.00 C577.64,301.00 576.60,300.13 576.03,299.06 ZM 431.40 270.46 C407.27,253.57 381.00,233.94 381.00,232.79 C381.00,232.35 381.38,232.00 381.84,232.00 C384.23,232.00 447.88,273.01 453.79,278.35 C456.33,280.65 456.40,284.31 453.90,284.78 C453.03,284.95 442.90,278.50 431.40,270.46 ZM 568.99 283.49 C568.01,282.30 567.91,281.36 568.63,280.17 C569.70,278.41 602.97,255.76 619.67,245.41 C634.34,236.33 643.00,231.69 643.00,232.93 C643.00,234.78 575.95,283.63 571.93,284.72 C571.07,284.95 569.74,284.40 568.99,283.49 ZM 326.21 267.74 C325.06,265.13 323.67,263.00 323.12,263.00 C322.58,263.00 320.86,262.50 319.32,261.89 L 316.50 260.78 L 320.66 258.97 C323.80,257.60 325.13,256.29 326.11,253.58 C326.82,251.61 327.73,250.00 328.12,250.00 C328.52,250.00 329.38,251.61 330.03,253.59 C330.94,256.36 332.14,257.57 335.30,258.91 L 339.39 260.65 L 335.52 262.57 C331.67,264.48 331.09,265.17 329.26,269.99 C328.33,272.41 328.24,272.34 326.21,267.74 ZM 456.12 263.25 C450.18,256.98 403.19,204.39 379.95,178.00 C351.64,145.85 333.86,124.80 334.49,124.17 C335.34,123.32 361.74,150.20 399.12,190.00 C446.18,240.10 465.42,260.99 466.40,263.09 C467.34,265.08 464.84,269.00 462.63,269.00 C462.05,269.00 459.12,266.41 456.12,263.25 ZM 558.67 267.33 C556.82,265.48 558.71,261.76 565.18,254.50 C584.49,232.84 650.88,162.25 675.45,137.25 C687.78,124.70 691.27,121.77 689.13,125.75 C687.33,129.10 629.96,194.69 590.72,238.25 C564.40,267.47 561.46,270.13 558.67,267.33 ZM 692.10 262.75 C690.97,259.71 691.74,258.10 694.69,257.36 C698.07,256.52 700.47,258.99 699.61,262.42 C698.73,265.92 693.37,266.16 692.10,262.75 ZM 726.56 247.10 C726.25,246.60 725.35,242.77 724.55,238.58 C722.33,226.99 721.55,225.86 714.00,223.29 C710.42,222.07 706.15,221.05 704.50,221.02 C697.60,220.90 697.42,217.59 704.26,216.50 C712.64,215.16 718.96,212.87 720.85,210.47 C721.89,209.14 723.53,204.01 724.49,199.03 C725.69,192.88 726.69,190.00 727.62,190.00 C728.38,190.00 729.00,190.14 729.00,190.32 C729.00,192.15 731.44,203.53 732.60,207.16 C734.35,212.60 736.90,213.99 748.80,215.98 C754.69,216.96 756.05,217.52 755.79,218.85 C755.57,220.02 753.99,220.68 750.37,221.12 C747.57,221.47 742.95,222.52 740.12,223.46 C734.14,225.45 732.90,227.30 731.08,237.00 C730.40,240.57 729.65,244.51 729.41,245.75 C728.95,248.05 727.56,248.71 726.56,247.10 ZM 735.13 220.22 C738.04,218.81 738.82,218.08 737.47,218.05 C734.45,217.98 731.22,215.33 729.08,211.19 L 727.18 207.50 L 726.48 210.25 C725.73,213.21 720.75,218.00 718.42,218.00 C715.82,218.00 716.95,219.57 720.25,220.54 C722.67,221.26 723.99,222.56 725.44,225.68 L 727.38 229.86 L 729.07 226.10 C730.27,223.41 732.00,221.74 735.13,220.22 ZM 467.82 242.67 C464.63,239.49 441.12,199.11 432.63,182.25 C429.13,175.30 428.96,173.03 432.23,176.75 C434.90,179.79 457.40,214.02 464.44,225.75 C470.73,236.23 471.14,237.26 470.33,240.66 C469.53,244.07 469.35,244.21 467.82,242.67 ZM 554.64 242.50 C552.55,237.06 555.19,232.02 578.79,196.38 C592.39,175.85 595.00,172.44 595.00,175.22 C595.00,178.04 560.83,238.51 557.08,242.33 C555.43,244.01 555.22,244.03 554.64,242.50 ZM 358.39 207.57 C357.39,204.98 358.79,202.83 361.25,203.18 C362.90,203.41 363.50,204.17 363.50,206.00 C363.50,207.83 362.90,208.59 361.25,208.82 C359.89,209.01 358.75,208.51 358.39,207.57 ZM 474.53 201.25 C470.50,191.01 455.41,144.39 451.79,131.00 C450.67,126.88 449.54,122.71 449.26,121.75 C448.99,120.79 449.20,120.00 449.73,120.00 C451.18,120.00 458.48,138.17 472.05,175.58 C477.36,190.21 477.84,192.18 477.30,197.33 C476.71,203.09 475.77,204.41 474.53,201.25 ZM 547.41 197.26 C546.55,190.53 548.25,185.04 563.07,146.81 C572.60,122.23 574.11,118.84 574.74,120.73 C575.73,123.69 551.32,201.07 548.94,202.54 C548.51,202.81 547.82,200.43 547.41,197.26 ZM 672.20 185.80 C668.97,182.57 672.59,177.10 677.04,178.51 C679.47,179.28 680.65,183.51 678.99,185.51 C677.50,187.30 673.86,187.46 672.20,185.80 ZM 418.62 136.48 C416.58,134.44 418.12,131.00 421.07,131.00 C423.45,131.00 424.71,133.66 423.34,135.83 C421.90,138.10 420.44,138.30 418.62,136.48 ZM 386.32 118.43 L 384.14 116.06 L 387.07 112.93 C388.68,111.20 390.00,110.27 390.00,110.86 C390.00,111.44 390.97,112.82 392.14,113.92 L 394.29 115.92 L 391.89 118.44 C389.05,121.44 389.10,121.44 386.32,118.43 ZM 786.23 118.52 L 783.96 116.25 L 786.98 113.02 C788.98,110.88 790.00,110.31 790.00,111.34 C790.00,112.19 790.97,113.56 792.15,114.39 L 794.30 115.90 L 791.90 118.43 C789.07,121.42 789.13,121.42 786.23,118.52 ZM 510.64 101.83 C510.44,101.10 509.51,96.48 508.58,91.57 C507.64,86.66 506.42,81.78 505.85,80.73 C504.52,78.23 498.17,75.55 489.79,73.94 C478.57,71.78 479.91,70.06 495.19,67.02 C504.91,65.08 506.90,62.39 509.33,47.82 C510.21,42.60 511.01,40.43 512.15,40.21 C513.42,39.96 513.99,41.55 515.00,48.20 C517.28,63.25 518.81,65.04 531.71,67.62 C545.16,70.32 545.32,71.72 532.50,74.50 C528.10,75.45 523.30,76.84 521.84,77.59 C518.74,79.19 516.75,84.09 514.82,94.93 C513.61,101.71 511.54,105.14 510.64,101.83 ZM 517.57 75.20 C519.03,73.94 521.52,72.65 523.11,72.33 C526.96,71.56 526.77,70.37 522.66,69.60 C518.81,68.87 515.72,65.95 513.67,61.08 L 512.24 57.67 L 510.21 62.26 C508.23,66.74 504.15,70.00 500.55,70.00 C497.97,70.00 498.81,71.74 501.75,72.46 C504.43,73.12 510.00,77.62 510.00,79.12 C510.00,79.53 510.49,81.14 511.08,82.68 L 512.16 85.50 L 513.54 81.50 C514.30,79.30 516.11,76.47 517.57,75.20 ZM 492.48 89.96 C491.64,88.61 499.61,80.64 500.96,81.48 C502.64,82.51 502.21,83.46 498.33,87.33 C494.46,91.21 493.51,91.64 492.48,89.96 ZM 526.06 87.57 C523.76,85.19 522.94,83.59 523.41,82.37 C523.99,80.86 524.66,81.19 528.17,84.70 C530.42,86.95 531.95,89.28 531.57,89.89 C530.50,91.62 529.64,91.26 526.06,87.57 ZM 495.98 57.32 C492.48,54.06 492.03,53.22 493.22,52.23 C494.37,51.28 495.39,51.82 498.52,55.02 C501.38,57.95 502.11,59.29 501.29,60.11 C500.46,60.94 499.07,60.20 495.98,57.32 ZM 522.40 59.84 C521.32,58.09 529.85,50.45 531.29,51.89 C532.11,52.71 531.37,54.06 528.50,57.00 C524.32,61.28 523.52,61.65 522.40,59.84 ZM 479.06 917.10 C477.59,914.37 480.43,912.00 482.59,914.16 C484.26,915.84 483.51,919.00 481.43,919.00 C480.68,919.00 479.61,918.15 479.06,917.10 ZM 541.33 917.42 C541.00,916.55 541.39,915.18 542.20,914.37 C543.50,913.08 543.82,913.08 544.95,914.44 C545.65,915.28 545.96,916.66 545.64,917.49 C544.88,919.47 542.10,919.43 541.33,917.42 ZM 503.11 862.63 C502.09,861.40 502.52,860.43 505.60,857.02 L 509.32 852.90 L 505.08 848.58 L 500.84 844.26 L 506.43 838.38 L 512.01 832.50 L 517.40 838.46 L 522.80 844.42 L 518.92 848.83 L 515.04 853.24 L 519.06 857.81 C522.62,861.85 522.89,862.48 521.37,863.33 C520.02,864.09 518.88,863.45 515.92,860.29 L 512.19 856.28 L 508.27 860.20 C504.90,863.57 504.17,863.91 503.11,862.63 ZM 514.69 847.83 C517.63,845.06 517.60,843.91 514.47,840.97 L 511.95 838.60 L 509.36 841.19 L 506.77 843.77 L 509.07 846.89 C510.34,848.60 511.60,850.00 511.87,850.00 C512.15,850.00 513.41,849.02 514.69,847.83 ZM 503.59 797.48 C497.39,795.13 493.37,791.45 490.44,785.47 C488.11,780.70 487.80,779.06 488.23,773.67 C488.82,766.33 490.50,762.68 495.55,757.78 C502.78,750.76 514.70,749.30 524.12,754.28 C535.54,760.32 539.49,776.21 532.42,787.65 C526.57,797.09 513.93,801.41 503.59,797.48 ZM 518.68 793.92 L 521.50 792.83 L 517.50 789.43 C515.30,787.56 512.89,786.02 512.14,786.01 C511.40,786.01 508.98,787.43 506.78,789.18 C503.05,792.13 502.89,792.45 504.57,793.68 C506.76,795.28 514.80,795.41 518.68,793.92 ZM 499.33 786.25 C502.53,779.91 502.32,778.41 497.80,775.08 C495.49,773.39 493.24,772.00 492.80,772.00 C490.46,772.00 492.99,783.87 496.14,787.67 C497.63,789.46 497.74,789.41 499.33,786.25 ZM 529.11 785.84 C531.26,782.83 533.17,772.00 531.56,772.00 C530.75,772.00 523.79,777.09 522.88,778.35 C522.13,779.38 525.06,789.00 526.12,789.00 C526.53,789.00 527.88,787.58 529.11,785.84 ZM 519.80 784.14 C518.81,781.77 518.15,781.26 517.03,781.97 C515.78,782.75 515.93,783.29 517.95,785.44 C520.91,788.59 521.50,788.18 519.80,784.14 ZM 507.72 782.67 C506.97,780.42 505.18,781.06 504.17,783.94 L 503.11 786.97 L 505.59 785.35 C506.96,784.45 507.92,783.25 507.72,782.67 ZM 514.54 779.39 C518.87,776.54 517.10,770.00 512.00,770.00 C507.03,770.00 505.29,775.75 509.25,779.06 C512.00,781.35 511.57,781.33 514.54,779.39 ZM 504.00 772.00 C504.00,770.40 503.34,770.01 500.75,770.03 L 497.50 770.07 L 499.86 772.03 C502.86,774.53 504.00,774.52 504.00,772.00 ZM 524.25 772.61 C526.76,770.70 526.42,770.00 523.00,770.00 C520.67,770.00 520.00,770.44 520.00,772.00 C520.00,774.29 521.71,774.54 524.25,772.61 ZM 506.64 764.00 C507.27,762.62 508.09,760.07 508.46,758.32 L 509.13 755.15 L 505.32 756.32 C501.59,757.46 494.00,763.98 494.00,766.05 C494.00,766.70 496.21,766.98 499.74,766.80 C504.75,766.54 505.63,766.18 506.64,764.00 ZM 513.63 764.75 C513.30,763.51 513.01,761.83 512.98,761.00 C512.94,759.67 512.84,759.67 512.09,761.00 C511.62,761.83 510.93,763.51 510.55,764.75 C509.99,766.61 510.25,767.00 512.05,767.00 C513.83,767.00 514.12,766.58 513.63,764.75 ZM 530.12 765.25 C528.36,762.00 523.25,757.85 519.36,756.51 C517.24,755.78 515.32,755.35 515.11,755.57 C514.89,755.78 515.49,758.44 516.45,761.48 L 518.19 767.00 L 524.63 767.00 C530.46,767.00 530.98,766.83 530.12,765.25 ZM 506.00 701.63 C506.00,693.65 506.38,686.88 506.85,686.60 C508.26,685.72 519.99,694.34 520.00,696.25 C520.00,698.67 518.26,698.44 514.41,695.50 C510.70,692.67 510.01,692.47 509.98,694.25 C509.97,694.94 512.33,697.61 515.23,700.18 C519.26,703.76 520.23,705.14 519.33,706.05 C518.44,706.96 517.38,706.63 514.74,704.62 C512.85,703.18 511.04,702.00 510.70,702.00 C510.37,702.00 509.96,705.03 509.80,708.74 C509.56,714.22 509.17,715.54 507.75,715.81 C506.15,716.12 506.00,714.92 506.00,701.63 Z" fill="rgba(0,0,0,1)"/>
</g>
</svg>