<svg xmlns="http://www.w3.org/2000/svg" width="1024" height="1024" viewBox="0 0 1024 1024">
<g>
<path d="M 507.76 961.70 C498.57,943.12 482.98,899.76 477.02,876.20 C470.47,850.35 469.91,843.05 467.95,757.50 C467.34,731.10 466.50,698.70 466.09,685.50 L 465.33 661.50 L 471.70 650.33 C477.47,640.20 478.57,638.87 483.40,636.14 L 488.73 633.13 L 493.00 621.51 C495.34,615.11 497.93,609.21 498.75,608.40 C499.56,607.58 502.93,605.55 506.23,603.88 L 512.24 600.85 L 515.12 603.61 C517.68,606.07 518.00,606.16 517.98,604.44 C517.96,603.37 521.00,593.84 524.73,583.25 L 531.50 564.00 L 537.35 564.00 C543.11,564.00 543.31,563.90 550.35,557.68 C554.28,554.20 559.03,550.30 560.90,549.00 L 564.30 546.65 L 563.71 564.07 C563.38,573.66 562.57,599.72 561.91,622.00 C561.26,644.28 560.65,662.60 560.56,662.71 C560.48,662.83 557.97,662.28 555.00,661.50 C552.03,660.72 549.46,660.21 549.30,660.37 C548.91,660.75 553.63,672.36 556.26,677.50 C558.30,681.47 558.30,681.88 557.11,732.50 C554.47,844.67 554.09,850.30 547.38,876.32 C539.11,908.42 516.85,967.27 512.44,968.70 C511.86,968.88 509.76,965.74 507.76,961.70 ZM 520.46 933.56 C532.92,901.64 543.94,862.65 545.91,843.50 C546.48,838.00 547.43,813.25 548.02,788.50 C548.62,763.75 549.47,729.83 549.92,713.11 L 550.74 682.73 L 547.02 674.67 L 543.30 666.61 L 542.62 691.06 C542.24,704.50 541.27,741.60 540.46,773.50 C538.99,831.39 538.10,843.99 534.46,858.27 C530.41,874.16 524.49,890.12 517.47,904.06 L 514.00 910.95 L 514.03 929.73 C514.05,940.88 514.41,947.89 514.93,947.00 C515.41,946.17 517.90,940.13 520.46,933.56 ZM 505.11 899.78 C498.60,886.21 491.69,866.80 489.12,854.89 C486.04,840.57 485.19,827.28 483.99,775.00 C483.40,748.88 482.49,712.42 481.97,694.00 C481.46,675.58 481.02,658.03 480.99,655.00 C480.94,649.94 480.82,649.66 479.47,651.44 C478.34,652.93 477.98,656.77 477.93,667.94 C477.89,677.01 477.54,681.75 477.00,680.50 C476.53,679.40 476.06,675.58 475.95,672.00 C475.72,663.99 474.74,659.05 473.71,660.69 C473.29,661.35 473.40,677.32 473.95,696.19 C474.50,715.06 475.25,742.59 475.63,757.37 C476.27,782.17 476.44,784.02 477.83,781.37 C478.66,779.79 479.91,776.70 480.60,774.50 L 481.87 770.50 L 481.93 774.11 C481.97,776.10 480.88,781.27 479.50,785.60 C477.34,792.40 477.00,795.32 477.02,806.99 C477.04,830.73 478.74,848.77 482.53,865.70 C486.35,882.77 495.15,910.51 503.88,933.00 L 509.50 947.50 L 509.77 928.78 L 510.04 910.05 L 505.11 899.78 ZM 517.95 893.29 C521.67,885.34 526.38,872.24 529.02,862.50 L 530.92 855.50 L 527.90 859.00 C523.91,863.63 518.62,874.92 516.67,883.00 C515.13,889.37 513.74,900.00 514.45,900.00 C514.65,900.00 516.22,896.98 517.95,893.29 ZM 508.55 886.56 C506.44,877.44 501.65,866.24 497.36,860.36 L 493.81 855.50 L 494.47 859.38 C495.66,866.33 503.24,887.08 507.78,895.82 L 509.50 899.14 L 509.80 896.21 C509.97,894.59 509.41,890.25 508.55,886.56 ZM 519.26 865.11 C521.04,861.59 524.41,856.57 526.75,853.96 C529.09,851.34 531.00,848.88 531.00,848.49 C531.00,848.09 529.64,846.22 527.99,844.33 C523.18,838.86 517.86,827.34 514.92,816.04 L 512.19 805.58 L 511.05 810.04 C506.66,827.26 504.38,832.72 497.35,842.83 L 492.96 849.16 L 497.64 854.33 C502.03,859.18 511.00,875.88 511.00,879.20 C511.00,882.73 512.47,881.59 514.17,876.75 C515.18,873.86 517.47,868.62 519.26,865.11 ZM 499.99 830.63 C502.20,826.31 504.00,822.18 504.00,821.47 C504.00,820.75 502.44,819.20 500.53,818.02 C498.62,816.84 495.18,813.76 492.89,811.19 L 488.72 806.50 L 489.36 821.50 C489.71,829.75 490.29,838.23 490.65,840.34 L 491.29 844.17 L 493.64 841.34 C494.93,839.78 497.79,834.96 499.99,830.63 ZM 534.38 834.50 C534.72,829.28 535.28,820.69 535.62,815.42 L 536.25 805.85 L 529.87 812.29 C526.37,815.83 522.67,819.17 521.67,819.70 C519.93,820.62 520.01,821.06 522.95,827.59 C526.08,834.53 531.95,843.99 533.13,844.00 C533.48,844.00 534.04,839.72 534.38,834.50 ZM 506.86 810.25 C507.48,807.09 508.42,800.22 508.95,795.00 C510.10,783.80 510.39,610.65 509.27,611.19 C504.35,613.57 503.12,614.55 502.71,616.37 C502.45,617.54 500.75,622.68 498.93,627.80 L 495.62 637.10 L 498.70 643.35 L 501.78 649.59 L 499.39 655.47 C498.08,658.70 497.00,661.80 497.00,662.37 C497.00,662.94 498.42,664.87 500.17,666.67 C502.85,669.44 503.38,670.81 503.65,675.72 C503.94,681.03 503.88,681.22 502.94,678.00 C500.87,670.93 499.80,669.26 495.94,667.09 C491.64,664.67 491.60,664.39 494.65,655.62 C496.49,650.34 496.43,649.98 492.95,645.24 C490.16,641.45 489.68,641.19 487.45,642.21 C485.06,643.29 485.00,643.60 485.00,654.70 C485.00,666.39 486.51,727.48 487.87,771.00 C488.57,793.38 488.83,795.95 490.92,800.70 C493.05,805.54 502.54,816.00 504.81,816.00 C505.32,816.00 506.24,813.41 506.86,810.25 ZM 526.41 810.72 C535.98,801.15 535.66,803.40 537.52,733.84 C538.40,700.65 538.99,669.68 538.81,665.02 L 538.50 656.53 L 534.29 654.21 L 530.09 651.90 L 527.54 656.92 C525.88,660.19 525.00,663.58 525.00,666.67 C525.00,669.82 524.67,671.07 524.00,670.40 C522.25,668.65 522.69,661.69 524.91,655.86 L 527.06 650.23 L 524.08 645.36 L 521.10 640.50 L 522.61 633.28 C523.45,629.29 523.77,625.46 523.32,624.73 C521.12,621.16 515.41,614.07 514.70,614.04 C514.26,614.02 514.08,655.06 514.30,705.25 C514.64,782.49 514.94,797.73 516.26,804.50 C518.04,813.69 518.83,816.00 520.17,816.00 C520.70,816.00 523.51,813.62 526.41,810.72 ZM 553.93 630.62 L 554.00 610.74 L 550.91 605.34 C549.21,602.36 548.08,599.23 548.41,598.39 C549.24,596.21 547.90,588.41 546.99,590.14 C546.59,590.89 545.98,605.10 545.62,621.73 L 544.98 651.96 L 547.74 652.57 C549.26,652.90 550.95,653.29 551.50,653.43 C553.46,653.95 553.86,650.23 553.93,630.62 ZM 542.44 602.25 L 543.11 572.00 L 539.80 572.02 L 536.50 572.04 L 531.04 586.77 C527.14,597.31 525.62,602.79 525.71,606.03 C525.88,612.18 530.54,623.50 535.18,629.06 C540.23,635.10 540.01,635.96 534.55,631.49 L 530.09 627.84 L 528.67 631.26 C525.80,638.12 525.79,638.79 528.53,643.47 C530.73,647.22 531.98,648.23 535.84,649.36 L 540.50 650.72 L 541.13 641.61 C541.48,636.60 542.07,618.89 542.44,602.25 ZM 555.88 574.18 L 556.00 562.86 L 551.53 566.68 C547.17,570.41 547.06,570.64 547.03,576.54 C547.01,580.56 547.64,583.83 548.90,586.31 C549.95,588.37 551.13,592.85 551.52,596.27 C551.90,599.70 552.74,603.14 553.36,603.91 C554.67,605.53 555.68,593.54 555.88,574.18 ZM 616.68 804.27 C616.43,803.84 615.91,801.16 615.53,798.30 C614.71,792.26 614.01,791.50 608.20,790.35 C605.83,789.88 603.90,789.05 603.90,788.50 C603.90,787.95 605.83,787.12 608.20,786.66 C613.69,785.59 614.08,785.16 615.68,778.52 C616.40,775.49 617.34,772.98 617.75,772.97 C618.16,772.95 618.79,775.25 619.16,778.09 C619.94,784.26 621.12,785.57 626.92,786.68 C633.04,787.86 633.15,789.59 627.14,790.39 C621.14,791.18 619.84,792.61 619.22,799.05 C618.77,803.77 617.69,805.97 616.68,804.27 ZM 619.00 788.50 C619.00,787.67 618.35,787.00 617.56,787.00 C615.89,787.00 614.76,788.43 615.69,789.36 C616.89,790.56 619.00,790.01 619.00,788.50 ZM 397.64 772.25 C397.36,770.74 396.83,767.25 396.47,764.50 C395.03,753.57 392.40,751.00 380.61,748.95 C373.94,747.78 372.02,745.77 377.08,745.25 C391.82,743.72 395.11,740.49 396.97,725.71 C398.32,714.98 400.28,715.34 401.32,726.51 C402.45,738.66 406.28,743.22 416.39,744.50 C427.20,745.87 427.37,747.41 416.92,749.08 C406.51,750.75 403.60,753.66 401.92,764.11 C400.37,773.75 400.04,775.00 399.06,775.00 C398.56,775.00 397.93,773.76 397.64,772.25 ZM 404.94 749.70 C406.71,748.22 408.68,746.98 409.33,746.96 C409.97,746.94 409.11,746.32 407.42,745.58 C404.10,744.14 400.00,739.59 400.00,737.37 C400.00,736.61 399.55,736.00 399.00,736.00 C398.45,736.00 398.00,736.72 398.00,737.60 C398.00,739.80 391.62,746.00 389.35,746.01 C388.16,746.02 388.96,746.90 391.63,748.49 C394.09,749.97 396.46,752.46 397.50,754.64 L 399.25 758.32 L 400.49 755.36 C401.17,753.73 403.18,751.19 404.94,749.70 ZM 608.62 703.48 C607.39,702.25 607.25,701.39 608.04,699.93 C609.29,697.59 611.30,697.45 613.07,699.58 C614.00,700.70 614.09,701.64 613.37,702.77 C611.90,705.10 610.46,705.31 608.62,703.48 ZM 658.50 667.81 C658.24,667.09 657.62,663.56 657.12,659.97 C655.28,646.70 652.48,643.74 640.26,642.20 C631.78,641.14 632.68,638.10 641.50,637.99 C646.12,637.94 652.68,634.51 654.35,631.29 C655.16,629.71 656.40,624.73 657.09,620.21 C657.93,614.69 658.78,612.00 659.67,612.00 C660.52,612.00 661.00,613.25 661.00,615.45 C661.00,620.33 662.94,629.10 664.61,631.73 C666.58,634.84 670.69,636.75 678.00,637.92 C681.45,638.48 684.53,639.20 684.85,639.52 C685.88,640.54 682.92,641.75 677.70,642.44 C666.19,643.97 662.78,647.92 661.41,661.31 C660.74,667.80 659.51,670.56 658.50,667.81 ZM 666.73 642.00 C670.36,640.31 670.95,639.00 668.09,639.00 C665.82,639.00 661.26,633.88 660.37,630.35 C659.77,627.96 659.66,628.03 657.92,631.93 C656.80,634.43 654.71,636.83 652.52,638.12 L 648.95 640.23 L 652.23 641.98 C654.12,642.99 656.31,645.41 657.43,647.72 L 659.35 651.70 L 661.43 647.60 C662.70,645.07 664.74,642.92 666.73,642.00 ZM 447.00 664.23 C447.00,662.37 452.12,643.48 452.81,642.79 C454.06,641.54 465.18,635.00 466.05,635.00 C467.50,635.00 461.90,647.42 459.06,650.50 C457.53,652.15 454.37,656.09 452.02,659.25 C447.81,664.93 447.00,665.74 447.00,664.23 ZM 369.67 659.33 C369.30,658.97 369.00,657.62 369.00,656.33 C369.00,654.53 369.55,654.00 371.42,654.00 C374.18,654.00 375.14,655.70 373.83,658.25 C372.92,660.02 370.89,660.55 369.67,659.33 ZM 301.75 630.92 C300.75,630.34 300.00,628.71 300.00,627.15 C300.00,622.20 304.17,620.32 307.35,623.83 C309.50,626.21 309.44,628.29 307.17,630.35 C305.07,632.25 304.19,632.34 301.75,630.92 ZM 463.00 595.23 C463.00,578.23 462.70,553.44 462.34,540.15 L 461.68 515.97 L 469.34 519.46 C473.55,521.38 477.00,522.73 477.00,522.46 C477.00,522.19 474.52,517.03 471.50,511.00 C466.17,500.36 466.00,499.78 465.99,491.77 C465.98,475.60 462.50,462.19 455.54,451.44 C453.07,447.63 451.03,444.18 451.02,443.79 C451.01,443.40 453.59,441.31 456.75,439.15 C462.89,434.97 465.39,432.08 469.02,424.97 C471.81,419.49 472.85,408.48 471.00,403.99 C466.67,393.54 451.00,395.09 451.00,405.96 C451.00,408.53 451.71,410.31 453.31,411.83 C457.53,415.78 462.75,413.73 461.76,408.51 C461.47,406.99 461.74,406.00 462.44,406.00 C464.61,406.00 466.00,408.39 466.00,412.10 C466.00,415.08 465.31,416.39 462.47,418.90 C459.50,421.50 458.11,422.00 453.83,422.00 C447.18,422.00 442.80,419.29 439.95,413.40 C437.19,407.69 437.63,400.35 441.00,395.79 L 443.28 392.71 L 438.02 393.40 C423.94,395.27 416.98,403.26 421.62,412.23 C423.13,415.16 423.12,415.44 421.43,416.68 C418.87,418.54 412.22,418.28 407.48,416.13 C400.43,412.93 396.04,407.06 393.51,397.49 C393.37,396.94 391.06,395.69 388.37,394.71 C385.69,393.73 381.38,391.38 378.79,389.48 C373.85,385.87 366.00,376.72 366.00,374.57 C366.00,373.89 367.77,370.85 369.94,367.83 C374.37,361.64 382.17,355.82 389.25,353.42 C392.93,352.17 394.00,351.33 394.02,349.66 C394.06,345.78 397.65,339.46 401.86,335.85 C408.18,330.44 417.40,328.37 421.56,331.43 C423.43,332.80 423.44,332.96 421.75,335.83 C418.33,341.65 420.16,347.10 426.62,350.35 C430.06,352.08 440.37,353.98 446.37,353.99 L 450.23 354.00 L 448.62 351.54 C447.73,350.18 447.00,348.15 447.00,347.04 C447.00,344.27 450.47,341.00 453.39,341.00 C455.32,341.00 455.90,340.34 456.42,337.57 C457.76,330.44 465.92,325.47 472.64,327.71 C476.03,328.84 479.49,333.29 478.65,335.46 C478.11,336.88 477.77,336.90 475.77,335.63 C474.19,334.63 472.79,334.47 471.19,335.09 C467.93,336.35 468.39,342.90 471.86,344.63 C475.02,346.19 479.85,344.78 482.77,341.44 C484.77,339.15 485.02,337.88 484.85,330.94 C484.69,324.41 484.99,322.67 486.55,320.94 C488.19,319.13 488.47,317.09 488.60,306.17 C488.67,299.20 488.83,292.83 488.95,292.00 C489.07,291.17 488.65,287.80 488.02,284.50 C487.17,280.01 487.17,276.99 488.02,272.50 C488.65,269.20 489.09,262.00 489.00,256.50 C488.92,250.75 489.35,245.23 490.04,243.50 C490.69,241.85 491.43,234.37 491.67,226.87 C492.12,213.34 492.10,213.22 489.56,210.47 C486.44,207.10 486.16,201.79 488.90,197.64 C490.45,195.28 490.61,194.16 489.78,191.14 C487.39,182.47 482.56,176.45 475.75,173.64 C472.77,172.42 472.00,171.57 472.00,169.50 C472.00,163.64 478.27,156.60 484.53,155.43 C486.44,155.07 488.00,154.26 488.00,153.64 C488.00,153.01 489.36,149.62 491.03,146.10 C494.45,138.88 509.03,123.00 512.24,123.00 C515.60,123.00 529.20,137.76 532.78,145.29 C534.55,149.03 536.00,152.69 536.00,153.43 C536.00,154.18 537.55,155.07 539.47,155.43 C545.70,156.60 552.00,163.64 552.00,169.43 C552.00,171.46 551.06,172.41 547.31,174.23 C541.59,176.99 537.31,182.17 534.94,189.17 C533.22,194.27 533.22,194.50 535.08,197.12 C537.83,200.97 537.61,207.12 534.60,210.70 C532.30,213.43 532.22,214.07 532.53,226.15 C532.71,233.08 533.37,240.67 534.00,243.01 C534.63,245.35 535.06,250.92 534.95,255.38 C534.84,259.85 535.35,266.54 536.08,270.26 C537.14,275.63 537.17,278.18 536.22,282.67 C535.33,286.93 535.31,290.00 536.15,295.09 C536.97,300.07 536.97,303.82 536.14,309.39 C535.05,316.74 535.09,317.04 537.59,320.72 C539.92,324.13 540.10,325.10 539.51,330.66 C539.02,335.34 539.24,337.57 540.45,339.90 C543.62,346.04 551.37,347.42 554.64,342.43 C557.72,337.72 552.95,332.64 548.25,335.62 C546.10,336.98 546.00,336.91 546.00,334.10 C546.00,327.83 555.01,324.88 561.70,328.96 C565.13,331.05 568.00,335.61 568.00,338.95 C568.00,340.47 568.65,341.00 570.50,341.00 C575.84,341.00 578.67,347.17 575.44,351.78 C573.92,353.96 573.96,354.00 577.69,353.99 C583.64,353.98 593.95,352.07 597.38,350.35 C603.80,347.13 605.58,341.95 602.38,335.77 C600.87,332.84 600.88,332.56 602.57,331.32 C606.68,328.32 617.19,330.90 622.87,336.29 C626.54,339.78 629.94,346.20 629.98,349.71 C630.00,351.43 630.87,352.16 633.91,352.97 C643.74,355.62 658.98,369.95 657.64,375.28 C656.53,379.70 646.29,389.74 639.70,392.86 C636.29,394.48 632.78,396.03 631.89,396.32 C630.94,396.62 630.03,398.43 629.66,400.74 C628.72,406.61 623.78,412.73 617.69,415.56 C611.96,418.23 605.36,418.72 602.57,416.68 C600.88,415.44 600.87,415.16 602.38,412.23 C607.17,402.96 600.52,395.33 585.96,393.40 L 580.72 392.71 L 583.00 395.79 C585.75,399.51 586.72,407.30 585.05,412.35 C582.69,419.49 573.99,423.98 566.73,421.80 C559.65,419.68 555.57,411.57 559.57,407.57 C561.85,405.29 563.13,405.64 562.45,408.36 C561.77,411.04 564.11,414.00 566.90,414.00 C568.79,414.00 572.33,410.57 573.31,407.78 C574.21,405.22 572.18,400.35 569.46,398.57 C566.14,396.39 560.37,396.60 556.98,399.02 C551.15,403.17 550.56,413.82 555.55,424.94 C558.14,430.71 563.30,436.44 570.49,441.57 L 573.40 443.64 L 568.67 451.57 C560.24,465.70 558.03,477.11 558.00,506.50 L 557.99 523.50 L 548.41 538.00 C543.14,545.97 538.22,553.14 537.47,553.91 C536.30,555.12 536.19,554.99 536.69,553.06 C537.45,550.18 535.69,549.04 530.47,549.02 C526.84,549.00 526.31,549.33 525.16,552.25 C524.46,554.04 521.36,562.19 518.28,570.38 L 512.66 585.25 L 504.63 588.93 L 496.61 592.62 L 490.05 606.06 C486.45,613.45 483.05,619.41 482.50,619.30 C481.95,619.18 480.07,618.53 478.31,617.85 C475.26,616.66 474.87,616.81 469.06,621.37 L 463.00 626.13 L 463.00 595.23 ZM 472.50 610.00 C472.84,609.45 474.41,609.00 475.98,609.00 L 478.84 609.00 L 478.58 589.62 C478.33,571.75 478.14,569.96 476.14,566.73 C471.14,558.64 471.00,559.01 470.99,580.63 C470.99,591.56 470.70,602.86 470.35,605.75 C469.93,609.23 470.09,611.00 470.80,611.00 C471.40,611.00 472.16,610.55 472.50,610.00 ZM 487.41 595.18 C491.57,586.89 491.78,586.10 490.87,581.85 C490.07,578.08 489.32,577.05 486.42,575.66 C484.50,574.75 482.70,574.00 482.42,574.00 C482.14,574.00 481.99,580.75 482.10,589.00 C482.21,597.25 482.45,604.00 482.64,604.00 C482.83,604.00 484.97,600.03 487.41,595.18 ZM 502.18 582.04 C506.15,580.28 506.79,579.52 508.30,574.70 C510.69,567.14 510.51,566.08 505.93,560.54 C500.71,554.22 500.57,553.93 498.59,544.87 C497.67,540.67 496.15,536.56 495.21,535.75 C494.27,534.93 490.91,533.31 487.75,532.14 L 482.00 530.03 L 482.00 549.36 C482.00,567.50 482.13,568.80 484.02,570.52 C486.47,572.73 486.97,572.32 491.70,564.32 C495.42,558.02 495.52,559.44 491.94,567.65 L 489.69 572.79 L 491.78 575.44 C492.92,576.90 494.15,579.42 494.51,581.05 C495.27,584.53 496.27,584.65 502.18,582.04 ZM 478.00 547.16 L 478.00 530.32 L 473.90 529.09 C471.65,528.41 469.70,528.01 469.57,528.18 C469.44,528.36 469.66,535.24 470.05,543.47 C470.73,557.60 470.90,558.52 473.08,559.97 C474.35,560.81 475.86,562.05 476.44,562.71 C477.02,563.38 477.61,563.94 477.75,563.96 C477.89,563.98 478.00,556.42 478.00,547.16 ZM 519.58 544.50 C521.51,539.08 523.48,533.96 523.96,533.11 C524.51,532.12 524.15,529.79 522.98,526.70 L 521.13 521.84 L 526.57 515.93 C529.55,512.68 532.00,509.40 532.00,508.65 C532.00,507.90 530.43,505.31 528.51,502.89 C525.10,498.60 524.18,494.85 525.87,492.17 C526.44,491.28 526.90,492.24 527.28,495.05 C527.69,498.10 528.86,500.30 531.55,503.05 C536.05,507.65 535.84,509.43 529.92,516.86 L 525.81 522.03 L 527.58 526.95 C529.24,531.58 529.25,532.13 527.69,536.12 C526.77,538.45 526.13,540.44 526.26,540.54 C526.39,540.64 528.58,540.99 531.13,541.32 C538.89,542.34 538.68,543.21 539.34,506.00 C540.02,466.79 541.29,459.49 549.13,449.70 L 552.17 445.91 L 548.16 441.55 C541.41,434.23 537.00,423.20 537.00,413.62 C537.00,406.65 534.99,408.93 534.33,416.63 C533.97,420.89 534.39,424.27 535.88,428.96 C537.00,432.51 537.71,435.63 537.45,435.88 C536.66,436.67 534.37,432.91 532.38,427.57 L 530.50 422.50 L 530.19 427.32 C529.77,433.92 532.33,440.96 537.15,446.43 L 541.19 451.03 L 535.85 456.81 C526.73,466.68 519.04,485.06 515.53,505.38 C513.71,515.93 513.30,557.10 515.03,555.37 C515.59,554.81 517.64,549.91 519.58,544.50 ZM 508.37 503.00 C504.52,483.51 496.54,464.99 487.96,455.66 L 483.26 450.55 L 487.09 446.00 C491.87,440.34 494.02,434.40 493.93,427.12 L 493.85 421.50 L 492.05 426.57 C488.23,437.30 485.18,439.36 488.07,429.25 C490.32,421.38 490.57,413.17 488.64,410.53 C487.44,408.88 487.22,409.53 486.76,416.08 C486.09,425.60 483.01,433.34 476.89,440.95 C474.20,444.28 472.42,447.00 472.92,447.00 C474.64,447.00 480.01,457.05 482.13,464.27 C483.97,470.53 484.32,474.86 484.74,496.47 L 485.23 521.43 L 488.63 524.83 C492.66,528.86 493.39,528.52 497.97,520.39 C501.57,514.03 501.43,513.50 493.85,505.17 C488.20,498.96 487.41,496.40 492.53,500.90 C494.48,502.60 496.43,504.00 496.88,504.00 C497.32,504.00 498.27,501.52 499.00,498.50 C500.47,492.38 502.56,490.79 501.30,496.75 C500.08,502.52 500.41,507.25 502.32,511.27 L 504.06 514.93 L 500.58 521.84 L 497.10 528.75 L 499.38 531.84 C500.64,533.55 502.24,537.54 502.94,540.72 C503.64,543.90 505.40,548.08 506.86,550.00 L 509.50 553.50 L 509.78 532.50 C509.99,516.01 509.69,509.67 508.37,503.00 ZM 546.96 527.05 C549.91,522.46 550.15,521.43 550.32,512.55 C550.42,507.30 550.26,503.00 549.96,503.00 C549.67,503.00 547.98,505.93 546.21,509.52 C543.41,515.21 543.00,517.05 543.00,524.02 C543.00,528.41 543.18,532.00 543.40,532.00 C543.61,532.00 545.22,529.77 546.96,527.05 ZM 481.57 495.25 C480.44,467.29 477.34,455.73 469.20,449.01 L 465.83 446.24 L 470.74 441.64 C476.50,436.26 480.33,429.66 482.47,421.47 C484.57,413.37 484.45,406.78 482.15,403.93 C480.30,401.66 480.29,401.70 479.79,411.16 C479.36,419.46 478.84,421.63 475.71,428.13 C473.50,432.72 470.16,437.55 467.03,440.68 L 461.94 445.77 L 465.52 452.90 C469.89,461.61 472.68,473.92 473.59,488.50 C474.20,498.24 474.67,500.28 477.65,506.25 C479.51,509.96 481.31,513.00 481.66,513.00 C482.00,513.00 481.96,505.01 481.57,495.25 ZM 549.32 497.23 C550.25,494.88 551.00,490.38 551.01,487.23 C551.02,474.79 555.00,458.55 559.93,450.78 L 562.91 446.07 L 557.14 440.29 C548.33,431.45 543.22,418.23 544.15,406.61 C544.53,401.76 544.04,401.04 542.02,403.47 C541.19,404.48 540.93,407.72 541.22,413.72 C541.79,425.69 544.47,432.26 552.06,440.23 L 557.98 446.45 L 554.10 450.47 C546.26,458.60 544.11,466.72 543.35,491.00 L 542.81 508.50 L 545.23 505.00 C546.56,503.08 548.40,499.58 549.32,497.23 ZM 515.71 484.50 C519.49,472.79 525.34,461.03 530.02,455.71 L 534.13 451.05 L 531.27 446.77 C529.70,444.42 527.86,441.22 527.18,439.65 C525.34,435.38 524.58,425.64 525.82,422.10 C527.29,417.87 526.52,418.21 523.39,423.17 C521.14,426.74 520.85,428.06 521.35,432.42 C521.67,435.21 523.46,440.49 525.32,444.15 L 528.71 450.80 L 526.46 453.67 C523.05,458.03 517.46,468.76 514.96,475.75 C512.96,481.37 511.00,483.89 511.00,480.86 C511.00,478.46 503.54,462.24 499.85,456.63 L 495.99 450.76 L 499.17 444.31 C503.38,435.75 504.00,428.81 501.01,423.73 C499.79,421.68 498.71,420.00 498.60,420.00 C498.49,420.00 498.59,422.88 498.81,426.41 C499.30,434.00 497.31,440.88 492.88,447.00 L 489.88 451.15 L 493.87 455.48 C498.62,460.63 506.02,475.54 509.02,486.00 C512.00,496.42 512.22,496.92 512.72,494.50 C512.94,493.40 514.29,488.90 515.71,484.50 ZM 514.96 466.89 C516.30,463.52 519.02,458.45 521.01,455.61 L 524.62 450.45 L 522.79 447.47 C521.79,445.84 520.25,442.10 519.39,439.18 C518.52,436.25 517.70,434.00 517.55,434.18 C517.41,434.35 516.58,436.64 515.71,439.25 C514.15,443.92 514.16,444.04 516.59,446.92 L 519.05 449.85 L 516.61 452.30 C515.08,453.83 513.90,456.48 513.47,459.37 C513.09,461.92 512.43,464.00 512.00,464.00 C511.57,464.00 510.91,461.92 510.53,459.37 C510.09,456.45 508.92,453.83 507.35,452.26 L 504.85 449.76 L 507.43 447.07 C510.00,444.39 510.01,444.37 508.38,439.59 C507.22,436.20 506.49,435.19 505.89,436.15 C505.42,436.89 505.02,438.20 505.02,439.05 C505.01,439.91 503.84,442.93 502.43,445.77 L 499.85 450.94 L 502.32 454.22 C505.41,458.35 511.00,469.44 511.00,471.47 C511.00,474.66 512.62,472.78 514.96,466.89 ZM 515.70 420.50 C524.21,397.33 536.11,380.04 550.01,370.68 C554.36,367.75 555.00,367.00 553.17,367.00 C548.29,367.00 536.60,377.08 528.82,388.00 C524.73,393.73 518.41,405.54 513.84,415.95 L 512.33 419.40 L 505.72 405.95 C501.38,397.12 496.86,389.69 492.55,384.33 C485.18,375.16 475.15,367.00 471.24,367.00 C469.11,367.00 469.84,367.81 475.73,371.95 C490.60,382.39 500.87,398.93 511.78,430.00 C512.18,431.14 512.41,431.02 512.72,429.50 C512.95,428.40 514.29,424.35 515.70,420.50 ZM 451.51 415.83 C447.33,412.54 445.70,407.82 447.04,402.85 C448.05,399.09 452.14,394.00 454.15,394.00 C454.62,394.00 455.00,393.63 455.00,393.17 C455.00,392.72 453.65,392.54 452.00,392.79 C448.18,393.35 443.31,398.81 442.43,403.54 C441.18,410.19 446.46,417.83 452.38,417.96 C453.95,417.99 453.80,417.63 451.51,415.83 ZM 577.23 416.03 C585.16,409.80 582.45,395.54 572.85,392.96 C567.75,391.59 566.83,392.35 570.99,394.49 C574.15,396.13 577.93,402.54 577.98,406.35 C578.02,409.53 574.85,415.01 572.12,416.50 L 569.50 417.92 L 572.12 417.96 C573.55,417.98 575.86,417.12 577.23,416.03 ZM 524.11 388.74 C526.40,385.31 529.37,381.32 530.70,379.88 L 533.12 377.27 L 529.99 374.14 C526.66,370.81 526.60,368.36 529.77,364.75 C533.04,361.03 539.91,363.55 538.52,367.95 C537.68,370.58 535.00,370.62 535.00,368.00 C535.00,365.40 533.37,365.44 531.97,368.06 C531.15,369.60 531.17,370.50 532.05,371.56 C533.89,373.77 535.71,373.32 541.42,369.23 L 546.69 365.46 L 539.34 362.67 C530.89,359.47 517.90,351.13 514.78,346.92 L 512.66 344.05 L 508.01 348.39 C501.28,354.69 493.47,359.59 485.63,362.42 C481.85,363.79 478.58,365.09 478.36,365.31 C477.63,366.04 487.30,373.00 489.04,373.00 C491.63,373.00 493.60,370.18 492.37,368.23 C490.83,365.79 489.00,365.59 489.00,367.86 C489.00,370.97 487.14,371.41 485.86,368.59 C484.41,365.40 486.10,363.00 489.79,363.00 C496.85,363.00 498.49,374.00 491.77,376.24 C490.92,376.53 491.55,377.86 493.64,380.24 C498.65,385.95 502.66,392.19 507.58,401.95 L 512.17 411.04 L 516.05 403.02 C518.19,398.60 521.81,392.18 524.11,388.74 ZM 542.64 394.99 C546.11,392.80 552.44,389.79 556.72,388.31 C563.36,386.01 566.18,385.61 576.00,385.57 C597.86,385.48 611.00,393.11 611.00,405.89 C611.00,408.15 611.38,410.00 611.85,410.00 C612.32,410.00 614.23,408.98 616.10,407.73 C620.34,404.90 623.00,399.75 623.00,394.36 C623.00,390.37 623.13,390.20 626.75,389.53 C628.81,389.15 632.53,387.96 635.00,386.87 C640.11,384.64 649.00,376.41 649.00,373.91 C649.00,369.46 633.08,359.03 626.25,359.01 C623.09,359.00 623.00,358.88 623.00,354.71 C623.00,348.83 619.39,342.12 615.00,339.81 L 611.50 337.97 L 610.88 342.81 C610.10,348.87 608.82,351.28 604.74,354.36 C597.37,359.90 581.19,362.17 564.00,360.07 C544.00,357.63 531.84,352.65 521.67,342.73 C518.16,339.30 514.55,335.39 513.64,334.03 L 512.00 331.55 L 510.35 334.03 C506.18,340.27 496.10,348.88 488.93,352.33 C479.14,357.03 471.96,358.85 457.77,360.23 C430.68,362.86 413.00,355.76 413.00,342.27 C413.00,339.92 412.72,338.00 412.37,338.00 C412.02,338.00 410.25,338.92 408.44,340.04 C404.52,342.46 401.00,349.20 401.00,354.28 C401.00,357.74 400.78,357.98 396.75,358.96 C389.85,360.65 382.15,365.01 378.45,369.33 C376.55,371.55 375.00,373.86 375.00,374.47 C375.00,376.09 383.98,384.52 387.70,386.39 C389.46,387.28 393.11,388.47 395.82,389.05 L 400.73 390.11 L 401.31 395.00 C402.07,401.39 404.34,405.63 408.30,408.04 C412.69,410.72 413.00,410.58 413.00,405.95 C413.00,394.91 422.95,387.71 440.99,385.71 C460.21,383.58 476.65,389.20 491.28,402.91 C497.98,409.20 499.04,409.90 497.44,407.01 C492.03,397.26 477.50,386.98 464.36,383.59 C451.89,380.37 431.82,381.99 421.99,387.00 C417.21,389.44 411.38,395.99 410.52,399.89 C410.15,401.60 409.29,403.00 408.61,403.00 C406.67,403.00 404.00,396.38 404.00,391.60 L 404.00 387.27 L 399.36 386.64 C393.20,385.79 386.96,382.57 382.36,377.86 L 378.60 374.01 L 383.40 369.54 C388.36,364.92 396.86,361.00 401.91,361.00 C404.68,361.00 404.74,360.88 404.26,356.60 C403.88,353.21 404.29,351.25 406.07,348.09 C408.61,343.57 409.19,343.71 410.95,349.23 C412.49,354.06 418.96,359.59 425.46,361.64 C433.20,364.08 456.28,364.60 467.81,362.60 C485.49,359.53 495.88,354.67 506.71,344.43 L 512.49 338.96 L 514.34 341.49 C519.92,349.15 536.52,358.40 550.50,361.64 C562.02,364.32 590.05,364.30 598.22,361.62 C605.57,359.21 611.59,354.09 613.14,348.94 C613.79,346.77 614.84,345.00 615.47,345.00 C617.34,345.00 620.00,351.71 620.00,356.41 L 620.00 360.74 L 624.75 361.38 C630.50,362.15 638.72,366.69 642.49,371.17 L 645.25 374.45 L 640.18 379.11 C634.96,383.90 628.06,387.00 622.57,387.00 C619.50,387.00 619.50,387.01 619.46,392.75 C619.43,396.62 618.80,399.42 617.56,401.30 L 615.70 404.11 L 612.86 398.20 C607.75,387.55 598.09,382.93 579.50,382.25 C561.24,381.58 549.70,385.04 537.34,394.91 C533.09,398.30 525.00,408.42 525.00,410.35 C525.00,410.62 527.55,408.18 530.67,404.91 C533.79,401.64 539.17,397.18 542.64,394.99 ZM 415.07 387.57 C418.77,384.79 418.89,384.53 417.31,382.79 C415.70,381.01 415.50,381.08 411.82,384.68 C408.79,387.63 408.01,389.14 408.03,391.95 L 408.05 395.50 L 409.61 393.00 C410.47,391.62 412.92,389.18 415.07,387.57 ZM 616.04 391.25 C615.63,388.98 614.05,386.20 612.06,384.21 C609.03,381.18 608.61,381.04 607.03,382.47 C605.42,383.93 605.64,384.38 610.40,389.37 C613.21,392.31 615.78,394.78 616.12,394.86 C616.45,394.94 616.42,393.31 616.04,391.25 ZM 486.04 388.06 C482.31,382.82 471.71,373.98 465.46,370.91 C459.05,367.75 456.03,367.85 453.14,371.33 C451.12,373.77 453.42,377.20 456.82,376.81 C459.37,376.52 459.80,374.51 457.32,374.49 C454.83,374.46 454.86,373.02 457.37,371.88 C461.05,370.20 464.36,373.09 463.46,377.19 C462.94,379.56 463.16,380.00 464.90,380.00 C467.97,380.00 474.74,382.90 481.50,387.12 C484.80,389.18 487.64,390.89 487.82,390.93 C487.99,390.97 487.19,389.68 486.04,388.06 ZM 556.18 380.86 C560.26,379.81 561.04,379.26 560.63,377.70 C559.54,373.53 563.41,370.08 567.00,372.00 C569.66,373.42 569.56,375.21 566.84,374.81 C563.99,374.40 563.30,376.64 566.02,377.51 C568.18,378.19 572.00,375.75 572.00,373.67 C572.00,371.30 568.55,369.00 565.00,369.00 C559.21,369.00 543.78,379.89 537.94,388.09 C536.13,390.63 536.49,390.53 543.62,386.46 C547.81,384.08 553.46,381.55 556.18,380.86 ZM 400.73 379.38 C405.67,376.27 404.24,369.58 398.10,367.04 C395.37,365.91 394.61,366.04 390.70,368.33 C384.24,372.11 383.30,373.57 385.61,376.12 C388.38,379.19 394.20,381.98 396.50,381.34 C397.60,381.04 399.51,380.16 400.73,379.38 ZM 410.93 379.37 C412.07,377.92 413.00,375.51 413.00,374.01 C413.00,371.00 408.97,366.00 406.55,366.00 C404.65,366.00 404.64,366.09 406.49,369.64 C407.32,371.21 407.99,373.32 407.99,374.32 C408.00,376.45 406.17,380.19 404.60,381.23 C403.99,381.64 404.70,381.98 406.18,381.98 C407.89,381.99 409.60,381.05 410.93,379.37 ZM 426.57 380.97 C429.09,380.01 429.16,379.83 427.63,378.15 C425.59,375.89 425.51,370.65 427.50,369.00 C429.97,366.95 429.22,366.00 425.15,366.00 C420.71,366.00 418.34,368.07 417.39,372.78 C416.87,375.40 417.27,376.43 419.81,378.96 C423.27,382.42 422.98,382.34 426.57,380.97 ZM 604.66 379.43 C606.81,377.28 607.14,376.24 606.65,373.18 C605.88,368.33 601.73,364.60 598.11,365.51 C594.58,366.39 594.42,366.70 596.34,368.82 C598.46,371.17 598.47,375.82 596.36,378.15 C594.83,379.85 594.88,380.02 597.11,380.92 C600.83,382.40 601.90,382.19 604.66,379.43 ZM 618.73 380.25 C616.20,377.44 615.71,373.62 617.38,369.64 C618.72,366.42 618.72,366.00 617.40,366.00 C614.76,366.00 611.00,370.69 611.00,374.00 C611.00,377.67 614.85,382.00 618.11,382.00 C620.14,382.00 620.19,381.86 618.73,380.25 ZM 635.84 378.42 C641.07,374.90 641.13,374.80 639.33,372.82 C638.33,371.70 635.63,369.69 633.33,368.35 C629.39,366.04 628.97,365.99 625.58,367.40 C618.67,370.29 618.48,377.57 625.25,380.51 C629.75,382.46 629.87,382.44 635.84,378.42 ZM 449.29 376.00 C448.64,373.53 448.15,373.53 445.00,376.00 L 442.50 377.96 L 446.16 377.98 C449.33,378.00 449.74,377.73 449.29,376.00 ZM 581.00 377.69 C581.00,377.52 579.70,376.41 578.11,375.24 L 575.21 373.10 L 574.75 375.55 C574.32,377.76 574.61,378.00 577.64,378.00 C579.49,378.00 581.00,377.86 581.00,377.69 ZM 443.55 372.50 L 449.35 368.00 L 444.24 368.00 C439.46,368.00 439.11,368.17 438.82,370.65 C438.42,373.96 435.59,375.99 433.83,374.23 C432.87,373.27 433.02,372.70 434.55,371.57 C436.14,370.40 436.26,369.89 435.22,368.84 C432.57,366.15 428.79,371.41 430.39,375.57 C431.55,378.60 437.47,377.22 443.55,372.50 ZM 593.94 374.75 C594.51,373.26 594.38,371.82 593.53,370.50 C591.96,368.03 589.64,367.90 589.19,370.25 C589.01,371.21 589.34,372.00 589.93,372.00 C590.52,372.00 591.00,372.67 591.00,373.50 C591.00,375.29 587.89,375.49 586.20,373.80 C585.54,373.14 585.00,371.57 585.00,370.30 C585.00,368.20 584.56,368.00 579.83,368.00 L 574.65 368.00 L 580.45 372.50 C587.25,377.78 592.43,378.64 593.94,374.75 ZM 417.15 362.17 C416.24,361.44 414.81,360.31 413.97,359.67 C413.13,359.03 411.44,357.20 410.22,355.62 L 408.00 352.73 L 408.00 356.48 C408.00,359.52 408.69,360.87 411.68,363.60 C415.17,366.80 415.45,366.88 417.08,365.24 C418.68,363.62 418.69,363.40 417.15,362.17 ZM 614.75 361.07 C615.44,360.27 616.00,358.21 616.00,356.50 L 616.00 353.38 L 610.75 358.44 C606.00,363.02 605.64,363.67 606.96,365.23 C608.33,366.86 608.56,366.83 610.96,364.74 C612.36,363.52 614.06,361.87 614.75,361.07 ZM 458.88 349.00 C455.69,345.04 452.58,343.84 451.72,346.25 C450.60,349.38 454.72,352.80 459.80,352.94 C462.03,353.00 462.01,352.89 458.88,349.00 ZM 570.37 350.93 C573.34,348.58 573.76,346.50 571.42,345.61 C568.85,344.62 568.48,344.82 565.12,349.00 L 561.91 353.00 L 564.82 353.00 C566.42,353.00 568.92,352.07 570.37,350.93 ZM 471.08 348.92 C464.34,345.91 462.07,338.07 466.62,333.52 C469.59,330.55 467.24,330.81 463.87,333.83 C461.15,336.26 460.55,337.52 460.55,340.82 C460.55,347.06 466.71,352.35 472.65,351.22 C474.97,350.77 474.87,350.62 471.08,348.92 ZM 560.60 347.60 C565.84,342.36 565.12,335.67 558.97,332.48 C555.50,330.69 555.21,331.23 558.00,334.23 C560.42,336.83 560.59,341.71 558.37,344.89 C557.47,346.17 554.88,348.06 552.62,349.09 L 548.50 350.96 L 552.85 350.98 C556.48,351.00 557.76,350.44 560.60,347.60 ZM 495.94 341.57 L 499.39 339.00 L 496.26 339.00 C493.95,339.00 492.60,339.76 491.07,341.90 C487.48,346.94 488.88,346.85 495.94,341.57 ZM 533.78 342.58 C532.15,340.10 530.66,339.06 528.32,338.79 C525.62,338.47 525.29,338.65 526.28,339.84 C527.62,341.45 534.10,345.85 535.26,345.94 C535.68,345.97 535.01,344.46 533.78,342.58 ZM 500.33 333.37 C503.73,332.90 505.37,332.08 506.58,330.24 L 508.21 327.74 L 502.42 328.47 C495.03,329.39 492.00,330.56 492.00,332.48 C492.00,334.15 493.45,334.31 500.33,333.37 ZM 531.75 332.26 C532.26,330.71 528.89,329.30 522.75,328.50 C515.08,327.50 516.91,325.65 525.00,326.23 C530.35,326.62 532.00,326.43 532.00,325.43 C532.00,323.41 530.72,322.99 521.33,321.93 C511.72,320.83 495.82,322.07 493.38,324.10 C492.59,324.75 492.16,325.49 492.40,325.74 C492.65,325.99 496.56,326.19 501.09,326.19 C507.58,326.19 509.50,325.85 510.21,324.60 C511.61,322.09 512.56,322.65 515.97,327.95 C518.81,332.38 519.57,332.93 523.32,333.29 C529.45,333.87 531.30,333.65 531.75,332.26 ZM 505.92 311.25 C508.15,308.64 509.99,306.07 509.99,305.55 C510.00,304.38 502.21,311.82 500.89,314.25 C499.01,317.69 501.85,315.99 505.92,311.25 ZM 515.78 312.01 C514.53,309.81 513.21,308.01 512.85,308.01 C512.24,308.00 508.00,314.60 508.00,315.56 C508.00,315.80 510.26,316.00 513.03,316.00 L 518.06 316.00 L 515.78 312.01 ZM 528.93 302.42 C528.97,297.42 528.74,293.08 528.43,292.76 C527.77,292.10 516.00,300.02 516.00,301.13 C516.00,303.15 518.43,302.91 521.48,300.59 C526.17,297.00 526.77,297.35 523.10,301.53 C519.99,305.08 519.24,307.41 520.88,308.43 C521.37,308.73 522.32,307.65 522.99,306.02 C523.66,304.40 524.91,302.49 525.76,301.78 C527.13,300.65 527.23,300.94 526.61,304.25 C526.23,306.31 526.22,309.68 526.61,311.73 C527.72,317.63 528.85,313.09 528.93,302.42 ZM 515.22 294.80 C518.92,292.60 523.53,289.05 525.47,286.90 C528.72,283.30 529.00,282.50 528.99,276.75 C528.98,273.31 528.70,269.49 528.37,268.25 C527.77,266.00 527.77,266.00 524.38,268.97 C522.52,270.60 517.63,274.21 513.52,276.99 C499.87,286.19 495.00,293.33 495.00,304.10 C495.00,312.22 495.54,312.30 502.30,305.26 C505.71,301.71 511.52,297.00 515.22,294.80 ZM 500.03 281.47 C501.91,279.52 506.84,275.63 510.98,272.81 C523.46,264.31 527.08,260.12 526.93,254.30 C526.86,251.64 526.77,251.70 525.05,255.50 C524.05,257.70 521.95,260.68 520.37,262.12 C517.33,264.90 512.00,268.52 512.00,267.81 C512.00,267.57 514.18,265.12 516.84,262.36 C522.70,256.28 525.06,252.01 525.94,245.87 L 526.61 241.25 L 518.85 247.37 C514.58,250.74 508.54,255.47 505.43,257.89 C498.18,263.51 495.02,269.83 495.01,278.75 C495.00,282.19 495.36,285.00 495.80,285.00 C496.25,285.00 498.15,283.41 500.03,281.47 ZM 511.28 247.05 C518.98,241.62 525.00,235.11 525.00,232.20 C525.00,231.74 522.75,233.53 520.00,236.18 C513.37,242.58 511.74,242.32 517.21,235.75 C524.17,227.38 524.25,227.23 524.50,221.91 L 524.75 216.83 L 520.62 220.76 C518.36,222.93 514.70,225.98 512.50,227.54 C503.42,233.99 496.14,242.96 497.28,246.32 C497.50,246.97 498.48,245.93 499.46,244.00 C501.55,239.90 503.93,237.00 505.22,237.00 C505.73,237.00 505.26,238.24 504.20,239.75 C501.15,244.08 497.00,253.46 497.00,256.03 L 497.00 258.37 L 499.75 255.81 C501.26,254.39 506.45,250.45 511.28,247.05 ZM 518.54 215.77 C522.80,210.71 519.54,211.22 513.89,216.50 C508.02,221.99 506.40,221.81 510.88,216.15 C514.23,211.92 513.68,210.77 508.72,211.71 C506.23,212.19 506.10,212.48 506.64,216.43 C507.13,219.96 506.82,221.10 504.70,223.57 C501.97,226.73 500.15,226.46 501.92,223.15 C503.62,219.98 503.32,212.00 501.50,212.00 C500.59,212.00 500.00,212.93 500.00,214.35 C500.00,215.64 499.70,220.19 499.34,224.46 L 498.69 232.22 L 507.27 225.59 C511.99,221.95 517.06,217.53 518.54,215.77 ZM 527.50 205.00 C526.40,204.53 522.80,204.08 519.50,204.00 C516.20,203.92 512.60,203.44 511.50,202.92 C510.16,202.30 512.90,202.10 519.82,202.34 C528.69,202.65 529.93,202.51 528.72,201.29 C524.76,197.33 498.94,197.51 495.13,201.53 C493.60,203.14 493.76,203.21 497.82,202.60 C500.67,202.17 501.93,202.30 501.51,202.98 C501.17,203.54 499.81,204.00 498.50,204.00 C497.19,204.00 495.84,204.45 495.50,205.00 C495.10,205.65 500.89,205.98 512.19,205.93 C522.79,205.89 528.72,205.53 527.50,205.00 ZM 499.39 189.17 C498.27,183.07 494.49,175.59 491.07,172.72 C486.07,168.51 485.47,169.50 489.84,174.75 C493.59,179.24 497.00,186.92 497.00,190.87 C497.00,193.04 497.95,194.15 499.17,193.39 C499.66,193.09 499.76,191.19 499.39,189.17 ZM 506.47 189.75 C504.39,179.89 498.18,167.64 493.65,164.47 C491.02,162.63 484.98,162.57 482.52,164.36 C480.83,165.60 481.09,165.79 485.36,166.43 C493.58,167.66 500.63,177.13 502.72,189.75 C503.12,192.12 503.79,193.00 505.21,193.00 C506.88,193.00 507.06,192.54 506.47,189.75 ZM 513.03 190.75 C513.05,189.51 513.92,186.03 514.96,183.01 C516.00,179.99 516.67,177.33 516.43,177.10 C516.20,176.87 515.11,177.50 514.01,178.49 C512.14,180.19 511.88,180.20 510.17,178.65 C507.25,176.01 507.10,176.63 509.10,183.09 C510.15,186.44 511.00,190.04 511.00,191.09 C511.00,192.14 511.45,193.00 512.00,193.00 C512.55,193.00 513.01,191.99 513.03,190.75 ZM 521.79 187.21 C523.14,180.69 528.20,171.62 532.09,168.76 C533.51,167.71 536.55,166.60 538.85,166.29 C542.58,165.79 542.83,165.59 541.26,164.40 C538.27,162.13 532.51,162.70 529.07,165.60 C524.15,169.73 515.55,190.22 517.80,192.46 C519.42,194.09 520.73,192.37 521.79,187.21 ZM 528.02 186.69 C529.96,180.43 531.90,176.96 535.82,172.75 C537.77,170.65 538.00,170.00 536.79,170.00 C532.99,170.00 526.00,181.17 524.71,189.32 C523.79,195.11 525.95,193.40 528.02,186.69 ZM 503.33 164.15 C502.77,162.01 505.45,155.00 506.83,155.00 C507.35,155.00 508.00,155.90 508.29,157.00 C508.90,159.34 511.24,159.62 512.96,157.55 C514.44,155.77 513.40,152.00 511.43,152.00 C510.64,152.00 510.00,151.64 510.00,151.20 C510.00,149.79 512.35,148.00 514.20,148.00 C516.46,148.00 516.44,147.13 514.11,144.11 C511.87,141.19 511.25,141.53 506.65,148.22 C503.06,153.45 501.04,161.05 502.34,164.44 C503.17,166.61 503.92,166.39 503.33,164.15 ZM 500.66 151.00 C501.77,148.52 504.75,144.25 507.26,141.50 L 511.83 136.50 L 515.47 140.00 C521.20,145.50 525.00,152.17 525.67,157.89 C526.28,163.04 527.28,164.33 528.39,161.42 C530.54,155.81 526.59,146.77 518.12,137.90 L 512.00 131.50 L 506.16 137.61 C497.49,146.67 492.87,157.73 496.12,161.65 C497.35,163.14 497.56,162.90 498.06,159.41 C498.37,157.26 499.54,153.48 500.66,151.00 ZM 398.05 600.56 C396.23,598.37 397.52,595.79 400.25,596.18 C401.89,596.41 402.50,597.17 402.50,598.99 C402.50,601.90 399.92,602.81 398.05,600.56 ZM 736.75 591.92 C734.60,590.67 734.43,585.72 736.49,584.01 C738.81,582.09 742.86,583.60 743.64,586.68 C744.15,588.73 743.79,589.76 742.04,591.17 C739.45,593.27 739.14,593.31 736.75,591.92 ZM 354.67 574.00 C354.33,573.17 353.61,569.63 353.06,566.13 C351.49,556.03 349.60,554.35 337.75,552.50 C335.69,552.17 334.00,551.50 334.00,551.00 C334.00,550.50 335.69,549.84 337.75,549.53 C339.81,549.22 343.30,548.41 345.49,547.73 C350.28,546.26 352.48,542.41 353.51,533.75 C354.33,526.87 355.67,525.52 356.51,530.72 C358.84,545.15 360.20,546.99 369.96,548.91 C378.54,550.60 378.03,551.99 368.28,553.51 C361.90,554.50 359.33,557.06 357.99,563.77 C356.07,573.42 355.35,575.66 354.67,574.00 ZM 361.16 551.91 L 363.43 550.70 L 361.22 549.89 C360.01,549.44 358.15,547.65 357.10,545.92 L 355.19 542.78 L 354.00 545.14 C353.35,546.44 351.67,548.46 350.28,549.64 C347.76,551.77 347.75,551.79 349.88,552.46 C351.06,552.84 352.73,554.51 353.60,556.19 L 355.18 559.24 L 357.03 556.18 C358.06,554.50 359.91,552.58 361.16,551.91 ZM 667.46 565.76 C666.58,563.47 667.33,557.50 668.50,557.50 C669.87,557.50 670.38,565.02 669.10,566.30 C668.39,567.01 667.88,566.85 667.46,565.76 ZM 656.25 554.36 C653.53,553.21 655.24,552.00 659.58,552.00 C662.80,552.00 664.04,552.37 663.76,553.25 C663.33,554.55 658.42,555.28 656.25,554.36 ZM 672.74 554.41 C671.35,553.02 673.22,552.00 677.14,552.00 C679.91,552.00 681.04,552.39 680.76,553.25 C680.31,554.60 673.87,555.53 672.74,554.41 ZM 666.58 546.46 C665.77,543.23 666.76,539.75 668.33,540.28 C669.83,540.78 669.86,548.21 668.37,548.71 C667.75,548.92 666.94,547.90 666.58,546.46 ZM 559.00 540.15 C559.00,539.74 560.39,537.51 562.09,535.20 C564.42,532.02 565.85,531.00 567.94,531.00 C569.58,531.00 572.63,529.53 575.42,527.40 C578.02,525.42 580.38,524.04 580.67,524.34 C581.40,525.06 576.21,536.25 574.71,537.20 C574.04,537.62 572.09,537.98 570.38,537.98 C568.66,537.99 565.39,538.66 563.13,539.46 C560.86,540.26 559.00,540.57 559.00,540.15 ZM 285.75 508.80 C285.47,508.06 284.67,503.30 283.98,498.23 C283.28,493.15 282.28,489.00 281.74,489.00 C281.20,489.00 279.23,490.35 277.35,492.00 C274.12,494.84 272.00,495.77 272.00,494.37 C272.00,494.03 273.63,491.94 275.62,489.73 C279.95,484.94 279.72,484.72 268.52,483.10 C260.66,481.96 257.23,480.54 260.08,479.60 C260.86,479.35 265.44,478.61 270.25,477.96 C275.06,477.32 279.00,476.56 279.00,476.27 C279.00,475.98 277.42,474.00 275.50,471.87 C272.28,468.31 271.14,466.00 272.58,466.00 C272.90,466.00 275.16,467.64 277.61,469.64 C280.05,471.64 282.22,473.11 282.43,472.89 C282.64,472.68 283.32,468.23 283.95,463.00 C285.68,448.67 287.16,448.38 288.96,462.03 C290.54,474.02 290.34,473.78 295.43,469.61 C297.85,467.63 300.10,466.00 300.42,466.00 C301.88,466.00 300.70,468.33 297.36,472.02 C295.36,474.24 293.90,476.23 294.12,476.46 C294.34,476.68 298.57,477.40 303.51,478.07 C317.34,479.93 317.75,481.41 304.92,483.11 C293.45,484.63 293.27,484.79 297.48,489.71 C302.81,495.93 301.84,497.04 295.50,492.00 C293.42,490.35 291.41,489.00 291.02,489.00 C290.64,489.00 289.78,493.38 289.12,498.74 C287.97,508.15 286.82,511.58 285.75,508.80 ZM 293.72 482.37 L 297.94 480.24 L 295.05 479.66 C291.22,478.89 288.36,475.68 287.48,471.16 L 286.76 467.50 L 285.36 472.24 C283.93,477.02 280.62,479.89 276.30,480.08 C275.22,480.13 275.89,480.76 278.00,481.67 C283.19,483.91 284.96,485.90 285.66,490.26 L 286.29 494.19 L 287.89 489.34 C289.23,485.31 290.21,484.14 293.72,482.37 ZM 736.62 508.25 C736.11,506.53 734.00,491.75 734.00,489.93 C734.00,488.23 732.11,488.97 728.65,492.00 C725.51,494.76 723.00,495.83 723.00,494.42 C723.00,494.10 724.63,491.85 726.61,489.43 C730.73,484.40 731.01,484.64 719.52,483.05 C711.68,481.96 708.21,480.54 711.08,479.60 C711.86,479.35 716.44,478.61 721.25,477.96 C726.06,477.32 730.00,476.56 730.00,476.27 C730.00,475.98 728.42,474.00 726.50,471.87 C723.28,468.31 722.14,466.00 723.58,466.00 C723.90,466.00 726.09,467.58 728.43,469.50 C730.78,471.42 732.95,473.00 733.25,473.00 C733.56,473.00 734.36,468.27 735.05,462.50 C735.94,454.95 736.67,452.00 737.65,452.00 C738.39,452.00 739.00,452.38 739.00,452.84 C739.00,454.64 741.15,470.57 741.57,471.83 C741.87,472.78 743.47,472.09 747.00,469.50 C752.36,465.56 754.09,466.70 749.41,471.08 C743.90,476.23 744.19,476.68 753.77,478.02 C764.28,479.48 766.62,480.44 763.00,481.80 C761.62,482.31 757.56,483.05 753.97,483.42 C744.71,484.40 744.33,484.86 748.61,489.86 C750.61,492.19 751.98,494.35 751.67,494.67 C751.35,494.98 749.18,493.84 746.85,492.12 C744.52,490.40 742.30,489.00 741.93,489.00 C741.56,489.00 740.96,491.81 740.60,495.25 C739.43,506.44 738.79,510.00 737.95,510.00 C737.50,510.00 736.90,509.21 736.62,508.25 ZM 740.33 485.61 C741.21,484.27 743.59,482.63 745.61,481.96 L 749.30 480.75 L 745.58 479.47 C741.18,477.96 739.31,475.76 738.38,471.04 L 737.70 467.58 L 736.45 471.82 C734.79,477.44 733.51,478.81 729.15,479.64 L 725.50 480.33 L 729.00 481.76 C734.17,483.86 735.95,485.87 736.70,490.42 L 737.38 494.50 L 738.06 491.28 C738.43,489.50 739.46,486.95 740.33,485.61 ZM 627.00 492.69 C627.00,488.18 625.30,486.24 620.00,484.70 L 615.50 483.39 L 620.28 482.17 C625.30,480.89 627.00,478.68 627.00,473.43 C627.00,469.66 628.70,470.56 629.48,474.75 C630.40,479.66 631.41,480.75 636.37,482.15 L 640.50 483.32 L 636.89 484.41 C631.80,485.95 630.25,487.54 629.49,492.06 C628.68,496.85 627.00,497.27 627.00,492.69 ZM 398.75 482.75 C397.85,482.06 396.82,480.29 396.46,478.80 C395.95,476.71 396.38,475.53 398.36,473.55 C399.76,472.15 401.83,471.00 402.95,471.00 C408.03,471.00 410.97,478.91 407.17,482.35 C405.00,484.31 401.03,484.50 398.75,482.75 ZM 404.99 479.51 C406.65,477.51 405.54,475.00 403.00,475.00 C400.73,475.00 399.46,477.16 400.36,479.50 C401.10,481.42 403.40,481.43 404.99,479.51 ZM 341.71 436.38 C340.35,435.02 341.01,432.06 342.89,431.06 C345.16,429.84 347.36,431.88 346.82,434.70 C346.47,436.53 343.00,437.67 341.71,436.38 ZM 681.70 433.37 C680.49,432.16 680.94,429.30 682.55,427.96 C684.81,426.08 687.97,429.24 686.38,431.77 C685.18,433.66 682.81,434.47 681.70,433.37 ZM 722.36 388.50 C721.57,386.44 722.64,384.00 724.35,384.00 C726.35,384.00 728.33,386.70 727.64,388.49 C726.89,390.44 723.11,390.45 722.36,388.50 ZM 319.64 364.31 C318.67,363.33 318.88,356.19 319.90,355.56 C321.04,354.86 322.00,357.35 322.00,361.02 C322.00,363.89 320.84,365.50 319.64,364.31 ZM 308.00 351.50 C308.00,350.22 308.88,349.95 312.25,350.19 C314.59,350.36 316.50,350.95 316.50,351.50 C316.50,352.05 314.59,352.64 312.25,352.81 C308.88,353.05 308.00,352.78 308.00,351.50 ZM 324.50 351.99 C324.15,351.44 324.54,350.73 325.35,350.42 C327.66,349.53 332.30,350.37 332.76,351.75 C333.26,353.29 325.44,353.52 324.50,351.99 ZM 319.19 342.85 C319.36,340.46 319.95,338.61 320.50,338.75 C322.00,339.13 321.73,346.26 320.19,346.77 C319.21,347.10 318.95,346.10 319.19,342.85 ZM 702.43 329.57 C701.74,326.82 702.68,323.00 704.05,323.00 C705.35,323.00 706.30,327.47 705.52,329.93 C704.64,332.71 703.18,332.55 702.43,329.57 ZM 692.00 319.98 C690.67,319.11 690.67,318.89 692.00,318.02 C695.01,316.04 701.03,317.53 699.57,319.89 C698.72,321.26 694.03,321.32 692.00,319.98 ZM 708.43 319.89 C707.39,318.20 710.14,316.88 713.43,317.48 C717.13,318.16 717.83,318.86 715.97,320.04 C713.93,321.33 709.26,321.23 708.43,319.89 ZM 702.43 312.57 C701.76,309.90 702.66,306.00 703.96,306.00 C705.15,306.00 706.19,310.84 705.47,313.09 C704.63,315.73 703.16,315.48 702.43,312.57 ZM 431.00 295.93 C431.00,291.34 429.40,289.20 424.98,287.88 C420.27,286.47 419.77,285.00 424.00,285.00 C428.08,285.00 431.00,281.87 431.00,277.50 C431.00,272.48 432.65,273.18 433.46,278.55 C434.17,283.31 435.02,284.06 441.50,285.56 C444.47,286.24 444.44,286.27 439.51,287.87 C434.67,289.45 434.48,289.65 433.65,294.25 C432.68,299.57 431.00,300.64 431.00,295.93 ZM 357.66 294.30 C357.37,292.76 356.83,289.25 356.47,286.50 C355.01,275.42 351.51,271.94 339.84,269.97 C332.22,268.69 331.11,267.42 336.75,266.44 C352.96,263.63 354.86,261.78 357.12,246.53 C357.74,242.39 358.60,239.00 359.04,239.00 C359.86,239.00 359.99,239.52 362.09,251.48 C363.97,262.18 365.45,263.27 382.75,266.60 C386.94,267.41 385.03,268.81 378.16,269.97 C365.80,272.06 362.80,275.45 361.31,289.00 C360.48,296.54 358.59,299.28 357.66,294.30 ZM 360.00 277.57 C360.00,275.56 366.40,269.00 368.37,269.00 C370.98,269.00 370.22,267.62 366.73,266.00 C364.67,265.04 362.70,262.91 361.28,260.10 C359.42,256.41 358.94,256.00 358.37,257.60 C357.02,261.31 353.67,265.24 350.83,266.43 L 347.96 267.64 L 351.66 270.07 C353.69,271.41 356.07,273.95 356.93,275.73 C358.58,279.12 360.00,279.98 360.00,277.57 ZM 605.40 282.49 C601.99,279.08 603.37,275.62 608.29,275.19 C612.59,274.83 614.58,277.36 613.08,281.30 C611.73,284.85 608.29,285.38 605.40,282.49 ZM 666.52 273.75 C666.29,273.06 665.58,268.90 664.95,264.50 C663.07,251.50 660.28,248.10 649.80,246.07 C646.34,245.40 642.49,244.65 641.25,244.41 C640.01,244.16 639.00,243.53 639.00,243.00 C639.00,242.47 640.01,241.84 641.25,241.59 C642.49,241.35 646.36,240.59 649.86,239.91 C660.52,237.85 662.98,234.57 665.32,219.36 C665.97,215.13 666.97,211.51 667.55,211.32 C668.16,211.11 669.11,214.53 669.85,219.63 C671.07,228.07 672.73,232.78 675.69,236.16 C677.09,237.75 685.37,240.27 693.25,241.50 C695.31,241.83 697.00,242.51 697.00,243.03 C697.00,244.01 696.36,244.18 686.01,245.89 C674.98,247.72 671.74,251.81 669.79,266.39 C668.73,274.30 667.57,276.90 666.52,273.75 ZM 672.30 248.17 C673.51,246.88 676.07,245.17 677.99,244.36 L 681.49 242.90 L 677.49 241.11 C672.96,239.07 671.68,237.76 669.09,232.44 L 667.26 228.67 L 666.11 232.17 C664.76,236.25 660.76,240.37 656.50,242.07 L 653.50 243.26 L 656.65 244.13 C660.27,245.14 665.67,250.82 666.62,254.64 L 667.28 257.24 L 668.69 253.88 C669.47,252.03 671.10,249.46 672.30,248.17 ZM 544.00 250.64 C544.00,250.30 545.65,249.34 547.67,248.49 C556.58,244.77 580.96,221.57 580.99,216.78 C581.00,216.39 578.12,218.08 574.61,220.53 C568.70,224.67 566.00,225.88 566.00,224.41 C566.00,224.08 568.08,220.72 570.61,216.93 C575.26,210.01 580.83,196.78 579.32,196.27 C578.87,196.12 578.63,191.84 578.80,186.75 C579.01,180.16 578.80,177.93 578.06,179.00 C577.50,179.82 577.02,181.24 577.02,182.14 C576.98,185.78 572.86,196.85 569.44,202.50 C567.45,205.80 564.89,210.98 563.76,214.00 C559.92,224.28 554.19,230.84 544.97,235.51 L 540.23 237.92 L 539.62 234.86 C539.07,232.11 539.64,231.19 545.26,225.65 C548.69,222.27 552.31,218.04 553.30,216.26 C555.03,213.16 554.81,213.24 547.87,218.46 C543.90,221.45 540.27,223.67 539.82,223.39 C538.43,222.53 538.91,215.32 540.45,214.04 C541.25,213.38 542.44,211.19 543.10,209.17 C543.76,207.15 546.26,203.26 548.65,200.52 C556.63,191.37 560.52,179.59 559.78,166.83 C559.54,162.58 558.75,158.40 558.03,157.53 C557.30,156.66 557.04,155.63 557.44,155.23 C557.84,154.83 558.85,155.40 559.68,156.50 C562.96,160.82 565.26,167.83 565.92,175.50 L 566.60 183.50 L 567.89 179.04 C568.65,176.45 569.04,171.23 568.84,166.54 C568.31,154.06 564.47,147.42 551.00,135.68 L 545.50 130.88 L 549.00 131.57 C550.92,131.94 555.11,133.56 558.31,135.17 C563.22,137.64 563.96,137.80 563.11,136.21 C561.56,133.31 554.55,127.32 549.96,124.98 C547.69,123.82 541.71,122.00 536.67,120.93 C521.81,117.77 522.57,118.03 523.90,116.69 C524.68,115.92 528.78,115.50 535.55,115.50 C541.30,115.50 546.00,115.41 546.00,115.30 C546.00,114.48 535.83,110.88 531.14,110.03 C519.99,108.00 504.07,112.49 493.35,120.66 C490.85,122.57 488.65,123.98 488.46,123.80 C487.48,122.81 491.90,116.37 496.25,112.47 C498.98,110.01 500.91,108.00 500.55,108.00 C498.17,108.00 488.77,113.62 485.13,117.21 C476.60,125.61 469.16,139.06 468.27,147.64 C467.46,155.50 465.79,154.71 464.54,145.88 C464.17,143.28 464.48,139.38 465.30,136.29 C466.93,130.15 465.60,130.38 462.80,136.73 C458.36,146.76 458.58,158.95 463.47,173.50 C464.76,177.35 465.68,180.64 465.52,180.81 C464.72,181.62 457.66,174.25 455.87,170.75 C454.77,168.58 453.68,166.99 453.46,167.20 C452.53,168.14 457.10,180.48 460.12,185.18 C463.10,189.83 476.81,202.00 479.07,202.00 C479.58,202.00 480.00,203.16 480.00,204.57 C480.00,207.64 478.61,207.43 469.75,203.01 C459.24,197.77 467.04,205.95 479.30,213.02 L 485.41 216.55 L 485.17 222.02 C484.77,231.32 484.15,233.17 481.66,232.45 C476.40,230.93 466.25,225.61 458.86,220.52 C454.45,217.49 450.66,215.00 450.44,215.00 C449.80,215.00 452.24,220.26 454.27,223.25 C456.61,226.70 455.57,226.73 450.48,223.37 C442.00,217.75 433.52,207.63 427.42,195.85 C425.77,192.65 422.50,173.16 423.46,172.21 C423.73,171.93 425.30,174.72 426.95,178.39 C429.78,184.70 438.43,199.00 439.42,199.00 C439.67,199.00 439.63,197.31 439.32,195.25 L 438.77 191.50 L 446.13 199.16 C450.19,203.37 455.30,207.83 457.50,209.07 L 461.50 211.32 L 457.89 207.41 C449.40,198.23 438.00,180.82 438.00,177.04 C438.00,176.32 438.78,176.11 440.00,176.50 C441.89,177.10 441.83,176.68 439.10,169.26 C437.50,164.93 435.85,158.71 435.43,155.44 C434.73,149.90 434.62,149.70 433.77,152.50 C433.27,154.15 432.78,159.41 432.68,164.20 C432.58,168.98 432.22,172.58 431.87,172.20 C431.53,171.81 430.26,168.80 429.06,165.50 C427.85,162.20 426.15,158.40 425.28,157.05 C424.09,155.22 423.66,151.88 423.60,144.05 C423.50,131.77 424.87,125.40 429.82,115.00 C431.79,110.88 433.59,107.05 433.82,106.50 C434.05,105.95 432.17,107.51 429.62,109.96 C425.89,113.55 425.00,114.04 425.01,112.46 C425.03,109.90 428.87,103.24 433.67,97.44 C439.17,90.80 467.00,72.55 467.00,75.58 C467.00,75.85 465.31,77.50 463.25,79.26 C461.19,81.02 455.99,85.84 451.70,89.96 C445.32,96.08 444.00,97.86 444.46,99.71 C444.86,101.29 443.97,103.59 441.54,107.24 C436.23,115.26 432.92,124.33 432.38,132.41 L 431.90 139.50 L 434.34 132.88 C435.69,129.25 437.34,125.20 438.02,123.88 C440.05,119.95 446.99,111.00 448.02,111.00 C448.54,111.00 448.06,113.31 446.94,116.14 C443.39,125.17 442.84,129.77 443.95,141.49 C444.52,147.48 445.37,152.77 445.85,153.25 C446.33,153.73 446.95,150.66 447.26,146.30 C447.81,138.44 450.60,128.97 452.55,128.32 C453.21,128.10 453.45,129.38 453.19,131.73 C452.59,137.25 454.30,134.78 456.98,126.25 C458.23,122.26 460.54,116.97 462.10,114.50 C463.67,112.02 464.72,110.00 464.44,110.00 C464.15,110.00 461.68,112.09 458.94,114.65 C456.21,117.21 453.79,119.12 453.57,118.90 C452.91,118.23 456.29,109.82 459.88,103.24 C463.80,96.03 465.61,94.55 480.80,86.07 C487.01,82.60 491.89,79.56 491.63,79.30 C491.38,79.05 488.40,79.55 485.01,80.42 C476.42,82.62 474.85,82.48 478.00,79.82 C486.13,72.95 502.68,68.46 516.25,69.44 C523.73,69.98 525.00,69.85 525.00,68.54 C525.00,66.49 525.88,66.58 534.60,69.50 C541.57,71.84 550.00,76.45 550.00,77.92 C550.00,78.28 553.19,81.18 557.09,84.36 C560.99,87.55 563.96,90.37 563.69,90.64 C563.42,90.91 559.22,89.13 554.35,86.68 C549.46,84.21 543.26,81.92 540.50,81.54 C537.75,81.16 533.57,80.21 531.22,79.43 C526.11,77.73 518.56,77.60 510.43,79.08 C501.94,80.63 501.84,81.61 510.10,82.31 C520.00,83.13 520.72,84.45 512.35,86.36 C498.50,89.52 489.28,93.57 480.70,100.28 C478.62,101.91 477.11,103.45 477.36,103.70 C477.61,103.95 480.97,102.77 484.83,101.08 C492.55,97.68 495.47,97.11 492.44,99.58 C490.21,101.40 489.80,101.50 500.00,97.74 C509.88,94.11 523.71,94.42 534.25,98.53 C538.30,100.11 535.53,97.16 529.75,93.73 L 523.50 90.03 L 528.20 90.01 C536.42,89.99 542.67,91.95 550.25,96.93 C554.24,99.55 558.36,102.66 559.40,103.85 C562.51,107.36 563.33,106.29 560.43,102.50 C558.96,100.57 558.11,99.00 558.54,99.00 C560.76,99.00 572.74,106.79 577.99,111.65 C581.30,114.71 584.00,116.89 584.00,116.49 C584.00,116.09 582.42,113.17 580.50,110.00 C578.58,106.83 577.00,103.93 577.00,103.56 C577.00,102.01 583.56,106.88 588.04,111.76 C593.50,117.71 599.03,128.06 601.98,137.87 C603.08,141.52 604.88,145.85 605.98,147.50 L 607.99 150.50 L 607.99 147.96 C608.00,146.56 607.31,142.79 606.48,139.57 C605.64,136.35 605.15,133.52 605.39,133.28 C606.15,132.51 611.26,142.03 613.76,148.88 C615.09,152.52 616.42,158.69 616.72,162.60 C617.22,169.07 617.09,169.74 615.29,170.21 C613.64,170.65 613.20,171.91 612.65,177.84 C612.29,181.75 610.98,187.55 609.75,190.72 L 607.50 196.50 L 607.00 178.50 C606.52,161.30 606.39,160.34 604.00,157.00 L 601.50 153.50 L 600.94 160.73 C600.27,169.35 599.48,170.68 598.59,164.73 C597.88,160.04 593.25,145.05 590.48,138.50 C588.90,134.76 581.95,124.72 581.35,125.31 C581.20,125.46 581.98,128.47 583.08,131.99 C585.73,140.53 585.18,142.67 581.79,136.99 C578.46,131.41 574.23,126.93 568.73,123.18 C560.16,117.34 559.38,117.55 565.41,124.06 C576.39,135.95 583.32,148.87 584.94,160.50 C585.54,164.82 586.20,168.53 586.41,168.74 C586.62,168.95 587.11,166.40 587.49,163.06 C587.88,159.73 588.51,157.00 588.89,157.00 C590.22,157.00 593.00,169.87 593.00,176.00 C593.00,181.87 589.94,196.38 587.89,200.20 C587.36,201.19 587.31,202.00 587.78,202.00 C588.97,202.00 592.28,197.33 595.60,190.95 C597.81,186.70 598.51,185.97 598.77,187.62 C599.32,191.12 596.16,202.88 592.47,211.07 C590.56,215.29 589.00,219.04 589.00,219.40 C589.00,219.75 590.14,219.30 591.53,218.39 C595.12,216.03 595.54,217.20 592.69,221.66 C588.85,227.67 582.00,234.62 581.20,233.32 C580.74,232.58 578.25,233.88 574.00,237.09 C566.16,242.99 552.90,249.85 547.75,250.67 C545.69,250.99 544.00,250.98 544.00,250.64 ZM 469.16 245.00 C462.28,241.75 460.38,241.37 459.78,243.16 C458.61,246.67 444.37,237.66 437.83,229.28 C432.58,222.55 429.54,218.00 430.31,218.00 C430.60,218.00 434.75,221.35 439.53,225.44 C449.09,233.63 453.41,235.87 454.82,233.35 C455.55,232.05 457.02,232.48 464.59,236.23 C469.49,238.65 475.41,241.24 477.75,241.98 C481.16,243.05 482.00,243.78 482.00,245.66 C482.00,247.63 481.49,248.00 478.75,248.00 C476.96,248.00 472.65,246.65 469.16,245.00 ZM 379.04 208.55 C377.99,207.29 377.99,206.71 379.04,205.45 C381.05,203.04 384.50,204.02 384.50,207.00 C384.50,209.98 381.05,210.96 379.04,208.55 ZM 418.65 198.61 C414.89,193.68 409.21,182.24 407.82,176.79 C406.78,172.75 406.83,171.84 408.21,170.29 C409.44,168.92 409.91,165.60 410.23,156.00 C410.49,148.17 411.18,142.38 412.06,140.50 C413.46,137.51 413.47,137.53 413.70,143.50 C413.83,146.80 414.70,153.87 415.63,159.21 C416.97,166.94 417.07,169.21 416.09,170.40 C415.10,171.58 415.19,173.15 416.53,178.19 C417.45,181.66 418.82,187.43 419.57,191.00 C420.32,194.57 421.22,198.51 421.58,199.75 C422.49,202.88 421.67,202.56 418.65,198.61 ZM 597.76 110.54 C593.80,104.83 586.95,98.69 583.30,97.57 C582.09,97.20 579.21,94.56 576.90,91.70 C574.58,88.84 570.85,84.79 568.60,82.69 C565.05,79.40 564.84,78.98 567.00,79.57 C571.23,80.73 576.55,83.74 579.08,86.42 C580.71,88.13 582.58,88.97 584.80,88.98 C588.65,89.00 593.00,92.76 593.00,96.06 C593.00,97.24 594.28,99.85 595.86,101.86 C599.24,106.18 600.92,109.25 602.04,113.14 C603.25,117.37 601.96,116.58 597.76,110.54 ZM 476.75 688.48 C476.49,687.09 476.66,685.71 477.13,685.42 C477.61,685.12 478.00,686.26 478.00,687.94 C478.00,691.65 477.41,691.91 476.75,688.48 ZM 509.07 860.97 C507.35,856.26 505.96,854.26 502.96,852.19 C498.40,849.03 498.12,847.81 501.46,845.62 C505.72,842.83 507.71,840.04 509.49,834.39 C510.44,831.37 511.68,829.06 512.25,829.25 C512.82,829.44 514.23,832.26 515.39,835.51 C517.04,840.12 518.42,842.09 521.69,844.46 C523.99,846.13 525.91,847.82 525.94,848.20 C525.97,848.59 524.01,850.27 521.59,851.94 C517.99,854.42 516.82,856.03 515.27,860.68 C514.23,863.81 512.91,866.53 512.33,866.72 C511.76,866.91 510.29,864.32 509.07,860.97 ZM 517.45 850.22 L 520.14 848.10 L 517.95 846.80 C516.74,846.09 514.95,843.74 513.96,841.58 L 512.17 837.66 L 510.69 841.20 C509.88,843.15 508.16,845.48 506.87,846.38 L 504.54 848.01 L 507.33 850.60 C508.87,852.03 510.58,854.39 511.14,855.85 L 512.16 858.50 L 513.46 855.42 C514.18,853.72 515.97,851.38 517.45,850.22 ZM 492.96 824.45 C491.90,823.17 491.96,822.61 493.34,821.24 C494.89,819.68 495.11,819.68 496.66,821.24 C498.04,822.61 498.10,823.17 497.04,824.45 C496.33,825.30 495.42,826.00 495.00,826.00 C494.58,826.00 493.67,825.30 492.96,824.45 ZM 527.45 824.57 C525.59,823.19 525.58,823.04 527.25,821.35 C528.90,819.67 529.10,819.67 530.71,821.29 C532.24,822.81 532.27,823.16 530.92,824.51 C529.60,825.83 529.17,825.84 527.45,824.57 ZM 498.00 796.63 C498.00,795.74 497.18,794.50 496.18,793.88 C494.44,792.80 494.47,792.62 496.68,790.41 L 499.00 788.09 L 501.25 790.30 L 503.50 792.50 L 500.75 795.38 C498.74,797.48 498.00,797.82 498.00,796.63 ZM 493.22 765.76 C493.45,756.62 493.79,754.47 495.03,754.23 C496.06,754.03 496.63,754.82 496.78,756.64 C497.09,760.37 497.34,760.43 500.80,757.52 C505.62,753.46 505.88,756.53 501.12,761.38 C495.56,767.05 495.35,770.23 500.82,765.93 C504.93,762.69 504.78,765.61 500.61,769.88 C498.63,771.92 497.00,774.35 497.00,775.29 C497.00,776.34 496.22,777.00 494.97,777.00 C493.03,777.00 492.95,776.49 493.22,765.76 ZM 491.10 732.51 C490.97,726.19 491.15,720.56 491.50,720.01 C492.29,718.72 495.11,720.18 500.85,724.86 C505.21,728.41 505.21,728.41 503.09,730.13 C501.93,731.07 500.43,732.02 499.76,732.25 C498.99,732.50 499.72,734.12 501.78,736.72 C504.86,740.61 505.82,743.00 504.29,743.00 C503.90,743.00 501.65,741.11 499.29,738.79 L 495.00 734.58 L 495.00 739.29 C495.00,743.19 494.69,744.00 493.17,744.00 C491.51,744.00 491.31,742.90 491.10,732.51 ZM 499.78 728.50 C499.94,728.37 498.92,727.52 497.53,726.61 C495.01,724.96 495.00,724.97 495.00,728.01 C495.00,730.86 495.15,730.99 497.25,729.90 C498.49,729.26 499.63,728.63 499.78,728.50 ZM 496.56 708.49 C495.87,704.78 495.13,704.27 493.22,706.18 C491.54,707.86 490.45,706.37 492.00,704.50 C493.44,702.77 493.46,702.81 490.00,701.31 L 487.50 700.23 L 490.25 699.50 C493.27,698.71 493.61,698.01 491.82,696.22 C491.17,695.57 490.95,694.72 491.33,694.33 C491.72,693.95 492.57,694.17 493.22,694.82 C495.10,696.70 495.73,696.24 496.44,692.47 C497.21,688.36 499.00,688.77 499.00,693.06 C499.00,695.95 500.29,696.96 501.50,695.00 C502.69,693.08 504.10,693.94 503.04,695.93 C501.59,698.63 501.61,698.67 505.25,699.47 L 508.50 700.18 L 505.28 701.34 C502.78,702.24 502.28,702.83 503.02,704.00 C504.37,706.14 504.22,707.62 502.80,706.20 C500.68,704.08 499.00,704.85 499.00,707.94 C499.00,712.20 497.33,712.58 496.56,708.49 ZM 521.65 800.28 C520.76,794.89 520.85,783.00 521.79,783.00 C522.22,783.00 524.76,785.22 527.43,787.93 L 532.28 792.86 L 529.25 796.68 C527.58,798.78 525.33,801.30 524.25,802.28 C522.32,804.02 522.26,803.97 521.65,800.28 ZM 528.00 792.98 C528.00,792.56 527.33,791.95 526.50,791.64 C525.40,791.22 525.00,791.76 525.00,793.65 C525.00,795.84 525.23,796.05 526.50,795.00 C527.33,794.32 528.00,793.41 528.00,792.98 ZM 522.00 770.27 L 517.79 763.55 L 520.14 759.23 C521.44,756.86 523.43,753.74 524.57,752.31 L 526.64 749.71 L 529.49 754.61 C531.05,757.30 532.91,760.40 533.62,761.50 C534.75,763.26 534.38,764.31 530.56,770.24 L 526.22 776.99 L 522.00 770.27 ZM 528.81 759.63 L 526.75 755.58 L 524.38 758.54 C521.46,762.19 521.43,763.34 524.15,767.75 L 526.31 771.23 L 528.59 767.45 L 530.87 763.67 L 528.81 759.63 ZM 519.68 742.35 C518.61,741.28 518.87,720.00 519.96,720.00 C520.49,720.00 522.05,721.22 523.44,722.72 L 525.96 725.43 L 529.48 722.02 C531.42,720.14 533.06,719.03 533.14,719.55 C533.65,722.97 533.37,742.99 532.81,743.00 C532.43,743.00 530.86,741.69 529.31,740.09 L 526.50 737.19 L 523.43 740.11 C521.75,741.72 520.06,742.73 519.68,742.35 ZM 523.35 735.53 C523.66,734.72 523.48,733.80 522.96,733.47 C522.43,733.15 522.00,733.81 522.00,734.94 C522.00,737.36 522.56,737.60 523.35,735.53 ZM 531.00 735.00 C531.00,734.45 530.55,734.00 530.00,734.00 C529.45,734.00 529.00,734.45 529.00,735.00 C529.00,735.55 529.45,736.00 530.00,736.00 C530.55,736.00 531.00,735.55 531.00,735.00 ZM 527.50 730.00 C527.02,729.22 526.44,729.16 525.77,729.83 C525.22,730.38 525.10,731.35 525.50,732.00 C525.98,732.78 526.56,732.84 527.23,732.17 C527.78,731.62 527.90,730.65 527.50,730.00 ZM 523.20 725.80 C522.27,724.87 522.00,725.13 522.00,727.00 C522.00,728.87 522.27,729.13 523.20,728.20 C524.13,727.27 524.13,726.73 523.20,725.80 ZM 531.00 726.44 C531.00,725.58 530.55,725.16 530.00,725.50 C529.45,725.84 529.00,726.54 529.00,727.06 C529.00,727.58 529.45,728.00 530.00,728.00 C530.55,728.00 531.00,727.30 531.00,726.44 ZM 525.39 706.19 C524.92,703.85 524.41,703.19 523.66,703.94 C523.08,704.52 521.96,705.00 521.18,705.00 C520.02,705.00 519.99,704.72 521.02,703.48 C522.40,701.81 522.38,701.77 519.59,700.27 C517.75,699.28 517.76,699.21 519.88,698.54 C521.54,698.01 521.92,697.34 521.44,695.81 C520.89,694.07 521.06,693.93 522.65,694.83 C524.22,695.72 524.67,695.39 525.66,692.69 L 526.82 689.50 L 527.54 692.78 C528.14,695.49 528.61,695.94 530.28,695.41 C531.84,694.92 532.16,695.13 531.70,696.33 C531.31,697.36 531.82,698.13 533.21,698.57 C535.26,699.22 535.26,699.27 533.41,700.27 C530.62,701.77 530.60,701.81 531.98,703.48 C533.45,705.25 532.68,705.43 529.93,703.96 C528.36,703.12 528.00,703.26 527.98,704.71 C527.98,705.70 527.54,707.17 527.01,708.00 C526.27,709.18 525.92,708.78 525.39,706.19 ZM 529.36 480.51 C529.02,479.60 529.21,478.39 529.80,477.80 C531.32,476.28 534.21,477.67 533.81,479.74 C533.37,482.04 530.16,482.59 529.36,480.51 ZM 539.60 441.11 C538.53,439.93 538.26,438.96 538.88,438.57 C539.44,438.23 540.41,438.90 541.03,440.06 C542.54,442.88 541.74,443.47 539.60,441.11 ZM 490.36 480.50 C490.02,479.60 490.20,478.40 490.76,477.84 C492.39,476.21 495.50,477.31 495.50,479.51 C495.50,482.06 491.27,482.87 490.36,480.50 ZM 482.07 443.00 C482.06,441.39 484.30,438.00 485.36,438.00 C486.57,438.00 486.00,439.78 484.03,442.14 C482.67,443.78 482.07,444.04 482.07,443.00 ZM 510.64 398.25 C510.30,396.19 510.02,392.35 510.01,389.72 L 510.00 384.95 L 506.97 386.52 C504.00,388.05 502.00,387.82 502.00,385.92 C502.00,385.40 503.55,384.23 505.44,383.33 L 508.89 381.68 L 505.44 377.66 C503.28,375.14 502.00,372.59 502.00,370.82 C502.00,367.50 505.13,364.00 508.08,364.00 C509.31,364.00 509.99,363.49 509.74,362.75 C509.50,362.04 507.65,361.50 505.43,361.50 C502.53,361.50 501.46,361.06 501.20,359.75 C500.91,358.29 501.61,358.00 505.43,358.00 C509.75,358.00 510.00,357.85 510.02,355.25 C510.02,353.74 510.47,351.83 511.02,351.00 C511.89,349.67 512.11,349.67 512.98,351.00 C513.53,351.83 513.98,353.74 513.98,355.25 C514.00,357.83 514.27,358.00 518.44,358.00 C523.04,358.00 525.29,359.57 522.88,361.10 C522.12,361.58 519.81,361.98 517.75,361.98 C513.00,362.00 512.87,363.57 517.55,364.44 C524.03,365.66 524.46,372.40 518.42,378.08 C517.09,379.33 516.00,380.68 516.00,381.08 C516.00,381.48 517.67,382.79 519.71,383.99 C522.89,385.87 523.18,386.32 521.73,387.13 C520.57,387.78 519.10,387.59 517.02,386.51 L 514.00 384.95 L 514.00 390.35 C514.00,400.71 511.88,405.71 510.64,398.25 ZM 509.65 368.52 C509.17,367.29 504.00,367.56 504.00,368.81 C504.00,369.13 505.24,371.19 506.75,373.38 L 509.50 377.36 L 509.82 373.58 C509.99,371.49 509.91,369.22 509.65,368.52 ZM 518.31 372.07 C520.11,369.01 520.11,368.97 517.81,368.11 C514.54,366.87 514.00,367.52 514.00,372.68 C514.00,377.76 515.06,377.61 518.31,372.07 ZM 392.25 376.28 C390.51,375.66 390.68,372.34 392.48,371.64 C394.49,370.88 396.42,374.42 394.73,375.76 C394.05,376.29 392.94,376.53 392.25,376.28 ZM 420.01 375.03 C418.87,374.30 418.79,373.81 419.69,372.91 C421.10,371.50 424.33,372.51 423.77,374.19 C423.23,375.82 421.78,376.15 420.01,375.03 ZM 600.45 374.91 C599.51,373.39 601.55,371.61 603.42,372.33 C604.31,372.67 604.72,373.57 604.38,374.46 C603.69,376.24 601.43,376.50 600.45,374.91 ZM 629.22 375.82 C627.86,374.46 629.37,372.00 631.56,372.00 C633.57,372.00 634.32,373.91 632.96,375.54 C631.50,377.31 630.76,377.36 629.22,375.82 ZM 497.37 302.06 C498.26,296.52 501.05,291.17 505.11,287.20 C508.88,283.51 511.02,282.94 508.61,286.25 C504.06,292.52 501.63,296.74 500.29,300.66 C498.24,306.67 496.50,307.50 497.37,302.06 ZM 512.00 292.14 C512.00,291.64 513.69,289.98 515.75,288.45 C517.81,286.91 521.39,283.68 523.69,281.25 C527.88,276.86 527.88,276.85 526.69,280.08 C526.04,281.86 524.21,284.61 522.63,286.19 C519.46,289.38 512.00,293.56 512.00,292.14 ZM 523.18 275.07 C525.00,272.91 526.66,271.33 526.88,271.55 C527.63,272.30 522.52,278.99 521.19,278.99 C520.46,279.00 521.33,277.28 523.18,275.07 ZM 497.00 276.62 C497.00,274.70 497.48,271.86 498.06,270.32 C499.40,266.79 503.89,262.00 505.86,262.00 C506.99,262.00 506.84,262.54 505.24,264.25 C502.82,266.82 499.05,274.67 499.02,277.19 C499.01,278.12 498.55,279.16 498.00,279.50 C497.41,279.87 497.00,278.70 497.00,276.62 ZM 519.60 252.74 C520.88,250.49 523.30,248.00 524.20,248.00 C525.38,248.00 521.88,252.76 520.20,253.45 C519.38,253.78 519.16,253.52 519.60,252.74 ZM 516.00 230.23 C516.00,229.77 517.85,227.63 520.11,225.45 C524.18,221.54 524.21,221.54 522.67,224.60 C521.17,227.57 516.00,231.93 516.00,230.23 ZM 524.19 763.25 C524.38,762.29 525.19,761.50 526.00,761.50 C526.81,761.50 527.62,762.29 527.81,763.25 C528.05,764.48 527.51,765.00 526.00,765.00 C524.49,765.00 523.95,764.48 524.19,763.25 Z" fill="rgba(0,0,0,1)"/>
</g>
</svg>