<svg xmlns="http://www.w3.org/2000/svg" width="1024" height="1024" viewBox="0 0 1024 1024">
<g>
<path d="M 305.48 954.25 C303.31,940.93 301.59,933.20 300.34,931.21 C298.53,928.33 295.80,927.29 284.51,925.17 C278.19,923.98 275.44,923.02 275.23,921.95 C275.00,920.75 277.34,919.96 286.11,918.29 C293.58,916.86 297.92,915.52 299.19,914.26 C301.03,912.42 304.96,896.61 304.99,890.94 C305.00,887.88 307.39,884.20 308.35,885.75 C308.71,886.34 309.90,892.05 310.99,898.46 C312.09,904.86 313.45,910.97 314.01,912.03 C315.57,914.93 318.28,916.02 329.89,918.38 C344.24,921.30 344.07,922.67 329.00,925.63 C313.21,928.73 313.83,927.80 309.44,954.75 C308.70,959.26 306.25,958.95 305.48,954.25 ZM 312.74 926.56 C313.97,925.28 317.12,923.69 319.74,923.01 L 324.50 921.78 L 319.65 920.52 C313.49,918.92 310.22,915.63 308.60,909.42 L 307.31 904.50 L 306.56 908.83 C305.52,914.76 301.09,919.64 295.96,920.51 C292.24,921.13 291.27,923.00 294.66,923.00 C297.64,923.00 303.10,926.30 304.46,928.92 C305.21,930.38 306.16,933.33 306.56,935.47 L 307.29 939.38 L 308.90 934.12 C309.78,931.23 311.51,927.83 312.74,926.56 ZM 717.32 952.84 C716.73,952.10 715.95,949.25 715.57,946.50 C715.20,943.75 714.25,939.19 713.46,936.37 C711.87,930.72 710.94,930.09 701.00,927.99 C692.64,926.22 692.00,925.97 692.00,924.50 C692.00,922.92 693.14,922.52 701.97,920.97 C705.53,920.34 709.19,919.44 710.09,918.95 C712.27,917.78 713.64,914.09 715.36,904.65 C717.69,891.89 719.63,892.29 721.96,906.00 C724.13,918.69 724.03,918.60 739.80,922.06 C747.68,923.79 746.51,925.88 736.50,928.02 C732.10,928.96 727.77,930.04 726.89,930.42 C724.58,931.40 723.38,934.57 721.96,943.32 C720.58,951.93 719.07,955.02 717.32,952.84 ZM 722.61 927.88 C723.65,926.99 725.80,925.84 727.39,925.33 L 730.29 924.40 L 726.24 923.19 C723.02,922.22 721.79,921.14 720.15,917.85 C718.16,913.82 718.09,913.78 717.46,916.28 C716.72,919.23 713.99,921.97 710.16,923.61 L 707.50 924.75 L 710.25 925.48 C713.35,926.31 717.98,931.28 718.04,933.83 C718.06,934.77 718.65,934.19 719.40,932.50 C720.13,930.85 721.58,928.77 722.61,927.88 ZM 389.01 943.51 C387.48,941.67 388.43,937.43 390.56,936.61 C392.95,935.70 396.00,937.78 396.00,940.34 C396.00,944.57 391.56,946.59 389.01,943.51 ZM 496.66 934.90 C485.95,933.34 477.57,930.86 469.22,926.79 C459.79,922.20 453.25,916.38 449.72,909.45 L 447.30 904.67 L 420.90 896.99 C372.01,882.75 288.15,858.20 192.00,829.97 C169.18,823.26 149.32,817.17 147.87,816.43 C144.14,814.51 140.25,809.57 139.04,805.22 C138.35,802.72 138.01,734.26 138.01,595.96 L 138.00 390.42 L 140.25 386.02 C141.75,383.09 143.77,380.97 146.29,379.69 C149.85,377.88 150.93,377.83 163.79,378.92 L 177.50 380.09 L 187.31 369.79 C199.83,356.66 213.50,339.10 218.02,330.33 C222.49,321.67 223.01,321.60 243.21,326.86 C265.36,332.64 283.26,336.37 311.00,340.99 C359.02,348.99 385.63,354.92 410.26,363.11 C450.55,376.50 483.56,396.17 502.65,418.16 C505.68,421.65 508.90,425.74 509.80,427.25 C510.69,428.76 511.67,429.99 511.97,429.98 C512.26,429.97 514.30,427.44 516.50,424.36 C522.49,415.96 538.95,400.81 550.39,393.17 C568.88,380.81 594.04,369.08 618.00,361.66 C643.45,353.78 668.87,348.24 710.36,341.52 C735.54,337.45 758.96,332.58 780.79,326.87 C800.53,321.71 801.58,321.82 805.48,329.28 C810.75,339.36 830.37,364.27 841.72,375.29 L 846.65 380.08 L 860.21 378.88 C873.07,377.74 873.96,377.78 877.59,379.67 C880.06,380.95 882.24,383.20 883.71,385.98 L 886.00 390.31 L 885.99 596.41 C885.99,732.65 885.65,803.74 884.97,806.15 C884.39,808.27 882.31,811.29 880.04,813.35 C875.48,817.46 868.39,819.86 816.00,835.01 C802.83,838.82 726.39,861.14 686.00,872.97 C667.58,878.37 635.48,887.67 614.67,893.64 L 576.84 904.50 L 574.36 909.71 C573.00,912.58 569.89,916.69 567.44,918.84 C562.13,923.52 551.59,929.18 544.00,931.45 C530.58,935.44 510.42,936.91 496.66,934.90 ZM 531.05 925.43 C552.00,921.46 565.43,912.72 567.75,901.56 C568.40,898.43 569.15,897.46 571.53,896.69 C575.43,895.43 575.36,895.55 573.83,892.72 C572.52,890.30 572.42,890.28 567.75,891.66 C563.25,892.99 563.00,893.24 563.00,896.58 C563.00,903.46 558.42,908.78 548.10,913.90 C536.84,919.49 531.19,920.50 511.50,920.44 C493.97,920.38 493.26,920.30 484.20,917.20 C469.13,912.05 461.00,904.93 461.00,896.86 C461.00,893.38 460.75,893.10 456.33,891.60 C453.76,890.72 451.57,890.12 451.47,890.25 C450.66,891.27 448.90,895.22 449.17,895.41 C449.35,895.55 450.93,896.22 452.68,896.92 C455.30,897.96 455.98,898.90 456.54,902.24 C458.22,912.17 473.50,921.79 493.50,925.52 C503.32,927.34 521.18,927.30 531.05,925.43 ZM 530.18 911.47 C541.70,909.07 541.85,909.00 538.74,907.37 C527.08,901.26 496.84,901.31 485.11,907.45 C482.71,908.71 482.97,908.85 490.54,910.47 C494.92,911.40 498.95,912.31 499.50,912.50 C502.49,913.52 523.80,912.81 530.18,911.47 ZM 490.68 897.43 C507.39,892.50 527.79,893.93 543.89,901.14 C548.77,903.32 550.61,903.74 551.64,902.88 C553.87,901.03 553.31,900.44 546.15,897.14 C533.68,891.39 524.49,889.69 509.05,890.26 C494.66,890.79 486.71,892.62 476.50,897.73 C470.17,900.91 470.29,900.76 472.55,902.41 C474.21,903.62 474.94,903.56 478.16,901.92 C480.19,900.88 485.83,898.86 490.68,897.43 ZM 444.83 891.47 C446.15,888.58 446.06,888.52 435.18,885.47 C428.91,883.71 428.84,883.71 426.73,885.82 C425.57,886.99 424.81,888.14 425.06,888.38 C425.46,888.78 441.66,893.76 443.09,893.93 C443.41,893.97 444.20,892.86 444.83,891.47 ZM 590.84 890.98 C595.33,889.77 599.00,888.45 599.00,888.05 C599.00,887.64 598.15,886.54 597.10,885.59 C595.30,883.96 594.76,883.99 586.85,886.11 C582.26,887.34 578.37,888.44 578.21,888.55 C577.36,889.12 580.54,894.01 581.52,893.63 C582.16,893.38 586.36,892.19 590.84,890.98 ZM 472.50 884.39 C456.15,869.58 423.80,854.46 391.60,846.55 C377.52,843.09 350.49,837.64 331.50,834.42 C272.90,824.51 234.23,816.06 202.50,806.23 C196.51,804.38 192.33,803.63 190.00,804.00 C187.27,804.43 186.94,804.68 188.50,805.15 C248.70,823.21 276.77,830.22 330.00,840.49 C392.14,852.49 419.80,860.25 447.50,873.48 C453.55,876.37 461.65,881.02 465.50,883.81 C469.43,886.66 473.60,888.89 475.00,888.90 C477.29,888.91 477.09,888.54 472.50,884.39 ZM 559.07 883.44 C584.48,866.70 616.64,855.82 673.00,844.91 C756.30,828.77 750.62,830.14 829.50,807.17 C838.44,804.57 838.47,804.55 834.53,803.90 C832.04,803.49 829.06,803.77 826.53,804.67 C819.81,807.05 796.15,813.71 785.00,816.36 C766.10,820.87 745.86,824.82 707.89,831.43 C650.28,841.46 636.62,844.50 610.84,852.99 C594.84,858.26 582.86,863.55 570.54,870.77 C561.81,875.89 548.00,886.45 548.00,888.01 C548.00,890.03 550.86,888.85 559.07,883.44 ZM 420.94 884.56 L 423.23 882.12 L 417.46 880.44 L 411.68 878.77 L 409.91 881.12 C408.94,882.41 408.32,883.66 408.55,883.89 C408.78,884.11 411.11,884.88 413.73,885.58 C416.36,886.29 418.53,886.90 418.58,886.93 C418.62,886.97 419.68,885.90 420.94,884.56 ZM 483.94 886.06 C485.83,884.86 484.70,883.50 475.54,876.06 C450.39,855.62 418.63,841.76 374.50,831.95 C364.05,829.63 355.07,827.34 354.55,826.87 C353.15,825.59 356.01,825.79 370.00,827.95 C416.43,835.13 460.49,854.53 485.03,878.58 C490.23,883.68 494.00,885.47 494.00,882.83 C494.00,880.54 475.35,863.28 466.50,857.38 C454.49,849.38 448.18,845.94 435.84,840.67 C409.01,829.22 382.34,822.93 329.18,815.52 C311.20,813.01 289.98,810.05 282.00,808.94 C263.73,806.40 240.73,801.82 226.55,797.91 C220.12,796.13 214.60,795.14 213.16,795.50 C209.74,796.35 211.26,797.35 220.50,800.32 C237.53,805.80 262.71,811.56 304.78,819.61 C312.64,821.11 318.55,822.66 317.92,823.05 C317.29,823.44 316.04,823.60 315.14,823.42 C314.24,823.23 307.42,822.35 300.00,821.47 C273.69,818.32 235.22,810.00 214.38,802.96 C205.50,799.96 202.00,799.35 202.00,800.81 C202.00,801.73 228.63,809.29 250.05,814.45 C268.24,818.83 287.32,822.53 325.00,828.99 C374.69,837.52 396.96,842.54 418.65,850.11 C441.93,858.24 462.89,869.68 475.00,880.89 C482.14,887.49 481.89,887.35 483.94,886.06 ZM 564.50 869.27 C594.99,850.24 624.58,841.36 702.24,827.96 C742.35,821.04 760.97,817.46 778.00,813.41 C797.76,808.70 822.00,801.84 822.00,800.95 C822.00,799.23 818.75,799.27 811.86,801.06 C794.83,805.50 767.21,810.86 727.00,817.53 C661.26,828.43 635.45,834.03 609.50,843.03 C594.63,848.18 574.39,857.96 562.50,865.73 C553.18,871.81 539.00,883.43 539.00,884.97 C539.00,885.46 539.79,886.02 540.75,886.22 C541.82,886.45 545.04,884.31 549.00,880.74 C552.58,877.52 559.55,872.35 564.50,869.27 ZM 614.58 884.21 C615.53,883.67 615.38,882.94 613.94,881.17 C612.06,878.85 612.03,878.85 606.41,880.48 L 600.77 882.12 L 602.95 884.44 C604.88,886.50 605.58,886.66 609.22,885.84 C611.48,885.33 613.89,884.60 614.58,884.21 ZM 537.05 880.41 C542.70,874.54 556.90,863.65 566.12,858.14 C588.06,845.01 615.05,835.08 649.00,827.64 C668.53,823.36 674.28,822.29 714.50,815.52 C779.68,804.54 814.54,797.44 811.53,795.76 C810.57,795.22 804.85,796.01 796.25,797.87 C769.35,803.69 755.38,806.16 728.00,809.95 C720.03,811.05 706.75,812.89 698.50,814.02 C627.05,823.89 587.16,836.40 555.56,858.86 C545.94,865.69 529.53,881.43 530.45,882.92 C531.62,884.81 533.52,884.09 537.05,880.41 ZM 404.51 879.99 C405.50,878.89 406.11,877.77 405.85,877.51 C405.41,877.08 387.93,871.90 331.00,855.35 C308.28,848.74 292.01,843.96 255.50,833.16 L 235.50 827.25 L 233.77 829.37 C232.82,830.54 232.04,831.72 232.03,832.00 C232.02,832.28 245.18,836.28 261.26,840.90 C277.34,845.52 294.10,850.38 298.50,851.70 C326.92,860.22 400.69,881.84 401.60,881.91 C402.20,881.96 403.51,881.10 404.51,879.99 ZM 502.38 880.75 C501.02,878.45 496.59,872.52 495.04,870.92 C494.19,870.04 491.60,867.25 489.28,864.72 C466.64,839.98 427.70,821.72 374.91,811.07 C359.45,807.95 321.08,802.22 283.50,797.41 C276.35,796.49 259.95,794.01 247.06,791.89 C224.98,788.26 223.51,788.13 221.75,789.72 C219.94,791.36 219.95,791.44 222.19,792.29 C226.31,793.85 253.27,799.83 265.95,801.99 C272.73,803.15 294.76,806.31 314.89,809.02 C382.95,818.17 407.08,823.64 438.85,837.08 C450.74,842.10 464.68,849.99 474.00,856.95 C480.04,861.46 496.61,877.47 498.12,880.25 C498.64,881.21 499.98,882.00 501.09,882.00 C502.44,882.00 502.87,881.58 502.38,880.75 ZM 526.45 879.77 C532.98,870.45 550.90,855.35 565.82,846.61 C596.89,828.39 634.99,818.09 706.62,808.55 C749.91,802.78 781.07,797.46 799.33,792.71 C804.05,791.49 804.11,791.41 802.20,789.68 C800.33,787.99 799.83,788.00 790.37,789.89 C777.37,792.49 759.05,795.15 696.50,803.51 C612.65,814.71 566.35,832.14 535.36,864.16 C528.82,870.92 522.00,879.56 522.00,881.08 C522.00,882.84 524.90,881.99 526.45,879.77 ZM 637.77 877.58 C659.28,871.12 712.92,855.50 765.45,840.39 C779.73,836.29 791.58,832.76 791.78,832.55 C791.99,832.34 791.43,831.06 790.54,829.70 L 788.92 827.23 L 782.71 829.19 C775.99,831.30 670.27,862.14 637.27,871.61 L 617.04 877.41 L 619.19 879.71 C620.38,880.97 621.73,882.00 622.20,882.00 C622.66,882.00 629.67,880.01 637.77,877.58 ZM 441.00 878.58 C441.00,877.99 422.24,870.71 412.50,867.52 C397.23,862.51 355.36,852.31 354.33,853.34 C354.06,853.61 372.14,859.05 419.50,872.94 C440.62,879.14 441.00,879.24 441.00,878.58 ZM 627.93 866.08 C651.13,859.44 670.38,854.00 670.72,854.00 C671.06,854.00 671.10,853.77 670.83,853.49 C670.17,852.83 644.66,858.20 630.50,861.97 C617.02,865.57 595.42,872.91 588.00,876.42 C584.97,877.86 583.23,878.83 584.13,878.59 C585.02,878.35 604.73,872.72 627.93,866.08 ZM 523.84 864.25 C534.37,851.30 554.69,836.16 574.50,826.49 C608.94,809.68 641.10,802.16 724.00,791.52 C756.31,787.37 794.38,781.48 796.25,780.34 C796.66,780.09 797.00,679.11 797.00,555.94 C797.00,360.50 796.81,332.00 795.54,332.00 C794.74,332.00 788.33,333.56 781.29,335.47 C766.58,339.46 735.65,345.85 716.00,348.96 C637.43,361.41 593.10,375.25 557.50,398.43 C541.99,408.53 527.05,422.66 518.93,434.92 L 516.00 439.34 L 516.05 656.92 C516.10,861.88 516.20,874.36 517.80,872.04 C518.74,870.69 521.45,867.19 523.84,864.25 ZM 508.00 656.11 L 508.00 439.22 L 504.34 433.86 C490.45,413.49 467.14,395.94 434.50,381.28 C405.33,368.18 372.47,359.83 305.50,348.48 C279.82,344.13 254.27,338.79 240.99,335.00 C235.22,333.35 229.72,332.00 228.75,332.00 C227.09,332.00 227.00,343.23 227.00,555.93 C227.00,768.34 227.09,779.89 228.75,780.38 C236.28,782.61 269.76,787.75 304.50,792.01 C393.62,802.93 436.78,815.25 473.05,840.09 C483.04,846.93 496.43,859.13 502.99,867.36 C505.46,870.46 507.60,873.00 507.74,873.00 C507.88,873.00 508.00,775.40 508.00,656.11 ZM 812.50 826.46 L 823.50 823.26 L 819.51 821.58 C815.20,819.77 814.75,819.82 802.25,823.58 L 794.00 826.07 L 795.63 828.56 C796.87,830.45 797.78,830.88 799.38,830.35 C800.55,829.97 806.45,828.21 812.50,826.46 ZM 227.80 828.80 C230.17,826.43 228.85,825.46 219.37,822.63 C210.67,820.04 209.37,819.89 205.87,821.04 C203.74,821.75 202.00,822.59 202.00,822.91 C202.01,823.64 221.71,829.73 224.55,829.89 C225.68,829.95 227.14,829.46 227.80,828.80 ZM 197.50 818.86 L 201.50 817.74 L 198.00 816.51 C196.07,815.83 188.58,813.57 181.35,811.49 L 168.21 807.69 L 165.56 809.78 L 162.91 811.86 L 174.70 815.49 C181.19,817.48 186.95,819.28 187.50,819.48 C189.52,820.21 193.60,819.96 197.50,818.86 ZM 846.83 816.49 C853.25,814.55 859.12,812.75 859.87,812.47 C860.84,812.12 860.47,811.37 858.55,809.86 L 855.86 807.74 L 839.30 812.57 C823.04,817.32 822.81,817.43 826.12,818.63 C831.43,820.55 834.36,820.24 846.83,816.49 ZM 159.78 808.44 C162.52,806.53 162.60,805.32 160.05,804.52 C158.98,804.18 157.82,803.01 157.47,801.92 C156.88,800.03 156.69,800.07 153.49,802.72 C151.65,804.25 150.11,805.82 150.07,806.22 C149.99,807.03 154.95,809.90 156.53,809.96 C157.09,809.98 158.56,809.30 159.78,808.44 ZM 871.05 808.47 C872.67,807.64 874.00,806.62 874.00,806.22 C874.00,805.83 872.45,804.27 870.56,802.76 C867.27,800.13 867.10,800.10 866.50,802.01 C866.15,803.10 865.56,804.01 865.18,804.02 C864.81,804.02 863.83,804.48 863.00,805.02 C861.73,805.86 861.88,806.32 864.00,807.99 C867.03,810.38 867.33,810.40 871.05,808.47 ZM 877.00 795.17 C877.00,788.61 876.83,788.13 872.50,782.55 L 868.00 776.76 L 868.00 785.53 L 868.00 794.31 L 872.04 798.15 C874.27,800.27 876.29,802.00 876.54,802.00 C876.79,802.00 877.00,798.93 877.00,795.17 ZM 152.47 797.90 L 156.00 794.79 L 156.00 785.67 C156.00,776.82 155.95,776.63 154.32,779.03 C153.40,780.39 151.37,782.98 149.82,784.78 C147.36,787.66 147.00,788.89 147.00,794.53 C147.00,798.09 147.43,801.00 147.97,801.00 C148.50,801.00 150.52,799.60 152.47,797.90 ZM 857.43 798.02 L 860.00 797.05 L 860.00 599.60 L 860.00 402.15 L 857.35 400.06 C855.89,398.91 854.60,398.09 854.48,398.24 C853.23,399.79 853.35,799.00 854.60,799.00 C854.75,799.00 856.02,798.56 857.43,798.02 ZM 169.96 791.25 C169.93,787.54 170.15,736.58 170.43,678.00 C170.71,619.42 170.61,532.42 170.22,484.66 L 169.50 397.82 L 166.75 399.98 L 164.00 402.15 L 164.00 599.41 C164.00,707.90 164.30,796.97 164.67,797.33 C165.03,797.70 166.38,798.00 167.67,798.00 C169.88,798.00 170.00,797.67 169.96,791.25 ZM 180.00 593.77 L 180.00 389.55 L 177.62 392.02 L 175.23 394.50 L 174.87 515.50 C174.66,582.05 174.61,672.84 174.75,717.25 L 175.00 798.00 L 177.50 798.00 L 180.00 798.00 L 180.00 593.77 ZM 187.60 797.41 C189.69,796.85 189.70,796.79 190.37,728.67 C190.74,691.18 191.39,658.47 191.82,656.00 L 192.60 651.50 L 193.30 659.00 C193.68,663.12 194.29,695.59 194.65,731.15 L 195.30 795.79 L 198.15 794.80 L 201.00 793.80 L 201.00 581.40 C201.00,464.58 200.66,369.02 200.25,369.06 C199.84,369.09 198.55,370.32 197.40,371.81 C195.31,374.49 195.29,374.95 194.59,473.50 C193.85,577.35 192.92,604.35 191.73,556.00 C190.45,504.38 190.01,471.51 189.98,425.50 L 189.94 379.50 L 186.97 382.77 L 184.00 386.03 L 184.00 592.02 C184.00,705.31 184.34,797.99 184.75,797.99 C185.16,797.98 186.44,797.72 187.60,797.41 ZM 840.00 592.02 L 840.00 386.03 L 837.03 382.77 L 834.06 379.50 L 834.02 419.50 C833.98,467.78 833.20,527.41 832.26,554.00 C831.01,589.18 830.20,564.40 829.42,467.00 C828.70,376.20 828.65,374.45 826.65,371.75 C825.54,370.24 824.25,369.00 823.80,369.00 C823.35,369.00 823.10,464.50 823.24,581.22 L 823.50 793.44 L 826.00 794.69 L 828.50 795.94 L 829.12 733.72 C829.80,665.12 830.95,628.98 832.10,640.00 C832.48,643.58 833.13,680.34 833.56,721.71 C834.38,802.08 834.06,797.45 838.75,797.88 C839.75,797.98 840.00,756.20 840.00,592.02 ZM 849.30 666.75 C849.62,594.56 849.77,503.87 849.63,465.21 L 849.37 394.92 L 846.69 392.23 L 844.00 389.55 L 844.00 593.77 L 844.00 798.00 L 846.35 798.00 L 848.71 798.00 L 849.30 666.75 ZM 210.77 610.53 C210.64,512.61 210.40,415.49 210.24,394.70 L 209.95 356.90 L 207.48 359.85 L 205.00 362.79 L 205.00 577.45 L 205.00 792.11 L 208.01 790.33 L 211.02 788.56 L 210.77 610.53 ZM 819.09 668.00 C819.26,600.08 819.31,503.55 819.18,453.50 L 818.95 362.50 L 816.22 359.22 L 813.50 355.94 L 813.59 572.13 L 813.67 788.32 L 815.98 790.18 C817.25,791.21 818.39,791.93 818.52,791.78 C818.65,791.62 818.91,735.92 819.09,668.00 ZM 219.00 564.12 C219.00,346.24 218.99,345.56 217.02,347.54 C214.83,349.73 214.88,341.41 214.97,669.90 C215.00,786.25 215.00,786.31 217.00,784.50 C218.99,782.70 219.00,781.42 219.00,564.12 ZM 809.24 567.90 C808.98,351.83 808.96,349.77 806.99,347.26 C805.00,344.73 805.00,344.88 805.00,563.54 C805.00,765.73 805.13,782.48 806.65,784.17 C807.57,785.18 808.58,786.00 808.90,786.00 C809.23,786.00 809.38,687.85 809.24,567.90 ZM 154.02 770.79 C155.55,767.92 155.99,765.19 155.96,758.79 C155.92,750.77 155.88,750.61 154.51,753.75 C153.73,755.54 151.73,758.99 150.05,761.43 C147.33,765.38 147.00,766.65 147.00,773.18 L 147.01 780.50 L 149.52 777.50 C150.91,775.85 152.93,772.83 154.02,770.79 ZM 874.90 762.65 C873.69,761.01 871.65,757.83 870.36,755.59 L 868.02 751.50 L 868.01 759.59 C868.00,767.46 868.12,767.86 872.25,774.03 L 876.50 780.37 L 876.80 772.99 C877.05,766.68 876.78,765.19 874.90,762.65 ZM 150.96 746.86 C150.98,744.66 150.22,742.29 149.03,740.86 L 147.07 738.50 L 147.08 748.00 L 147.08 757.50 L 149.00 754.00 C150.05,752.08 150.94,748.86 150.96,746.86 ZM 876.97 747.75 L 876.93 738.50 L 874.97 740.86 C873.89,742.16 873.00,744.51 873.00,746.09 C873.00,748.76 875.73,757.00 876.61,757.00 C876.82,757.00 876.99,752.84 876.97,747.75 ZM 154.54 727.12 C153.67,724.51 151.64,720.84 150.02,718.94 L 147.08 715.50 L 147.04 722.80 C147.00,729.80 147.17,730.34 151.25,736.14 L 155.50 742.18 L 155.80 737.01 C155.97,734.15 155.41,729.74 154.54,727.12 ZM 873.33 735.37 C876.75,730.58 877.00,729.74 877.00,722.96 C877.00,716.00 876.92,715.76 875.18,717.34 C871.51,720.66 868.58,728.25 868.18,735.50 C867.76,743.16 867.75,743.16 873.33,735.37 ZM 154.95 703.15 C154.32,702.94 152.27,701.42 150.40,699.78 L 147.00 696.79 L 147.00 702.99 C147.00,708.96 147.15,709.34 151.25,713.34 L 155.50 717.50 L 155.80 710.52 C156.00,705.92 155.71,703.40 154.95,703.15 ZM 877.00 703.19 L 877.00 696.79 L 873.47 699.90 C871.52,701.60 869.50,703.00 868.97,703.00 C868.43,703.00 868.00,706.42 868.00,710.71 L 868.00 718.42 L 872.50 714.00 C876.90,709.68 877.00,709.45 877.00,703.19 ZM 156.36 682.09 C155.75,681.37 151.85,685.39 150.37,688.26 C148.73,691.42 149.61,693.91 153.26,696.47 L 155.50 698.05 L 156.10 690.28 C156.43,686.00 156.54,682.32 156.36,682.09 ZM 873.58 693.51 C875.53,690.54 874.86,688.20 870.99,684.49 L 868.00 681.63 L 868.00 689.85 C868.00,697.76 868.08,698.03 870.00,697.00 C871.10,696.41 872.71,694.84 873.58,693.51 ZM 156.00 604.80 C156.00,526.73 156.26,530.16 149.67,520.47 L 147.00 516.54 L 147.00 600.48 L 147.00 684.42 L 151.50 680.00 L 156.00 675.58 L 156.00 604.80 ZM 876.98 600.25 L 876.96 516.50 L 873.88 521.41 C867.77,531.14 868.00,527.90 868.00,604.48 L 868.00 674.72 L 872.08 679.36 C874.33,681.91 876.36,684.00 876.58,684.00 C876.81,684.00 876.99,646.31 876.98,600.25 ZM 155.80 503.79 L 155.50 497.50 L 152.30 500.62 C147.26,505.54 147.15,508.02 151.64,514.98 L 155.50 520.95 L 155.80 515.51 C155.96,512.52 155.96,507.25 155.80,503.79 ZM 875.99 508.00 C875.99,505.73 872.38,500.27 870.05,499.03 C868.04,497.95 868.00,498.14 868.00,509.71 L 868.01 521.50 L 872.00 515.50 C874.20,512.20 875.99,508.83 875.99,508.00 ZM 155.40 488.04 C154.46,485.31 154.36,483.24 155.04,480.86 C155.57,479.02 156.00,475.09 156.00,472.12 L 156.00 466.72 L 152.92 470.61 C151.22,472.75 149.19,474.86 148.42,475.30 C147.33,475.91 147.00,478.64 147.00,487.01 L 147.00 497.92 L 151.86 494.90 L 156.72 491.87 L 155.40 488.04 ZM 872.53 471.93 L 868.00 467.09 L 868.40 479.72 L 868.80 492.36 L 872.65 494.98 L 876.50 497.60 L 876.78 487.19 L 877.07 476.78 L 872.53 471.93 ZM 152.97 461.74 C155.23,457.22 156.00,454.30 156.00,450.24 L 156.00 444.81 L 151.54 449.65 L 147.08 454.50 L 147.04 462.37 C146.99,471.70 148.05,471.59 152.97,461.74 ZM 872.79 450.09 L 868.50 445.27 L 868.17 449.38 C867.75,454.77 869.18,459.36 873.22,465.50 L 876.50 470.50 L 876.79 462.71 L 877.09 454.91 L 872.79 450.09 ZM 151.02 442.43 C151.92,439.72 151.82,437.90 150.56,433.56 C147.98,424.69 147.00,425.80 147.00,437.56 C147.00,446.78 147.20,448.08 148.45,447.04 C149.25,446.38 150.40,444.31 151.02,442.43 ZM 876.96 437.25 L 876.91 426.50 L 874.80 430.50 C872.14,435.54 871.97,441.64 874.39,445.25 C875.40,446.76 876.40,448.00 876.61,448.00 C876.83,448.00 876.98,443.16 876.96,437.25 ZM 155.09 415.96 C154.51,414.01 152.46,410.18 150.52,407.46 L 147.00 402.51 L 147.00 410.13 C147.00,417.10 147.31,418.26 150.56,423.63 C152.51,426.86 154.43,430.85 154.81,432.50 C155.30,434.65 155.59,433.22 155.81,427.50 C155.99,423.10 155.66,417.91 155.09,415.96 ZM 875.00 421.01 C876.59,418.77 877.00,416.59 877.00,410.46 L 877.00 402.73 L 875.06 405.19 C869.69,412.02 868.00,416.99 868.01,425.90 L 868.02 434.50 L 870.50 429.16 C871.87,426.22 873.89,422.56 875.00,421.01 ZM 153.97 391.96 C150.64,387.76 148.60,386.99 147.61,389.58 C146.34,392.89 147.13,395.37 151.00,400.24 C153.20,403.00 155.05,405.76 155.12,406.38 C155.19,407.00 155.66,404.89 156.17,401.71 C157.08,396.10 157.01,395.80 153.97,391.96 ZM 877.00 393.05 C877.00,391.85 876.51,389.96 875.92,388.85 C874.89,386.92 874.76,386.91 872.89,388.60 C868.69,392.40 867.18,396.23 867.72,401.69 L 868.24 406.88 L 872.62 401.05 C875.03,397.85 877.00,394.25 877.00,393.05 ZM 165.50 390.75 C167.41,389.51 168.98,388.16 168.99,387.75 C168.99,387.34 166.30,387.00 163.00,387.00 C159.70,387.00 157.00,387.25 157.00,387.56 C157.00,388.54 160.47,392.94 161.26,392.97 C161.68,392.99 163.59,391.99 165.50,390.75 ZM 866.00 390.00 L 868.14 387.00 L 863.32 387.02 C856.51,387.04 855.12,388.18 858.67,390.83 C862.46,393.65 863.48,393.53 866.00,390.00 ZM 229.22 898.44 C226.77,896.73 226.21,892.19 228.20,890.20 C228.86,889.54 230.57,889.00 232.00,889.00 C235.34,889.00 237.00,890.70 237.00,894.13 C237.00,896.96 234.75,900.00 232.65,900.00 C231.99,900.00 230.44,899.30 229.22,898.44 ZM 796.63 887.48 C793.21,884.07 795.38,878.00 800.01,878.00 C802.08,878.00 803.46,878.78 804.67,880.62 C806.20,882.96 806.23,883.51 804.91,885.87 C803.15,889.00 798.97,889.82 796.63,887.48 ZM 423.72 357.25 C413.12,348.27 324.97,258.85 325.64,257.77 C326.01,257.18 325.87,256.96 325.34,257.29 C324.81,257.62 312.03,245.46 296.94,230.26 C271.37,204.52 273.87,205.62 302.00,232.49 C338.98,267.83 425.57,355.00 423.69,355.00 C423.33,355.00 424.71,356.56 426.76,358.47 C432.25,363.57 430.21,362.75 423.72,357.25 ZM 423.00 354.73 C423.00,354.58 419.29,350.86 414.75,346.48 L 406.50 338.50 L 414.48 346.75 C421.88,354.41 423.00,355.46 423.00,354.73 ZM 320.00 251.67 C320.00,251.50 318.76,250.26 317.25,248.92 L 314.50 246.50 L 316.92 249.25 C319.19,251.82 320.00,252.46 320.00,251.67 ZM 306.00 237.70 C306.00,237.53 304.31,235.84 302.25,233.95 L 298.50 230.50 L 301.95 234.25 C305.15,237.74 306.00,238.46 306.00,237.70 ZM 603.93 350.92 C619.65,333.70 707.59,246.25 732.02,223.54 L 753.50 203.57 L 720.31 237.54 C674.53,284.39 600.14,358.28 596.50,360.51 C594.75,361.58 597.85,357.58 603.93,350.92 ZM 603.13 354.25 C604.37,352.66 604.34,352.63 602.75,353.87 C601.79,354.63 601.00,355.41 601.00,355.62 C601.00,356.45 601.82,355.92 603.13,354.25 ZM 906.57 354.43 C905.71,353.56 905.00,352.25 905.00,351.50 C905.00,350.75 905.71,349.44 906.57,348.57 C909.59,345.55 914.00,347.29 914.00,351.50 C914.00,355.71 909.59,357.45 906.57,354.43 ZM 624.58 350.14 C640.95,335.12 686.87,297.29 706.50,282.65 C717.18,274.68 714.02,277.64 686.50,301.36 C649.47,333.28 629.01,350.12 628.00,349.50 C627.45,349.16 627.00,349.31 627.00,349.82 C627.00,350.34 626.02,351.02 624.83,351.34 C622.69,351.89 622.69,351.87 624.58,350.14 ZM 636.00 342.41 C637.42,340.83 636.24,341.50 633.25,343.97 C630.36,346.36 628.00,348.50 628.00,348.72 C628.00,349.52 633.53,345.16 636.00,342.41 ZM 395.51 349.16 C395.79,348.88 395.00,347.49 393.76,346.07 C391.93,343.98 392.12,344.05 394.75,346.44 C398.53,349.85 398.43,349.67 396.50,349.67 C395.67,349.67 395.23,349.44 395.51,349.16 ZM 385.00 341.51 C380.88,337.99 377.62,334.60 377.77,333.98 C377.93,333.36 377.56,333.16 376.95,333.53 C375.73,334.29 370.80,330.14 371.52,328.97 C371.77,328.56 371.20,327.61 370.24,326.86 C368.67,325.63 368.63,325.67 369.87,327.25 C372.88,331.09 369.24,328.51 357.16,318.25 C341.08,304.60 311.97,279.25 310.00,277.19 C305.53,272.52 333.29,294.35 358.50,315.34 C381.57,334.55 391.22,343.11 390.54,343.80 C390.24,344.09 390.74,345.16 391.65,346.17 C394.59,349.41 392.67,348.07 385.00,341.51 ZM 390.00 343.57 C390.00,343.33 388.54,342.17 386.75,340.99 L 383.50 338.83 L 386.50 341.41 C389.58,344.06 390.00,344.32 390.00,343.57 ZM 428.57 345.08 C426.91,343.25 426.91,343.16 428.58,343.41 C429.54,343.55 430.44,344.42 430.58,345.33 C430.89,347.45 430.69,347.42 428.57,345.08 ZM 594.33 344.61 C594.33,343.79 594.82,343.20 595.42,343.31 C596.01,343.41 596.45,342.77 596.38,341.88 C596.24,339.90 630.79,296.60 660.16,261.97 C681.17,237.18 699.18,217.25 691.74,227.00 C679.03,243.65 602.82,337.06 596.03,344.31 C594.66,345.77 594.33,345.82 594.33,344.61 ZM 601.61 336.30 C603.73,333.71 604.95,331.92 604.31,332.31 C602.95,333.15 596.61,341.00 597.30,341.00 C597.55,341.00 599.49,338.88 601.61,336.30 ZM 607.50 329.00 C608.50,327.90 609.08,327.00 608.81,327.00 C608.53,327.00 607.50,327.90 606.50,329.00 C605.50,330.10 604.92,331.00 605.19,331.00 C605.47,331.00 606.50,330.10 607.50,329.00 ZM 358.99 341.14 C356.50,340.17 346.38,333.80 336.49,327.00 C271.27,282.12 227.00,251.18 227.00,250.46 C227.00,249.81 288.22,289.71 310.50,304.88 C342.62,326.75 365.64,343.02 364.36,342.95 C363.88,342.93 361.47,342.11 358.99,341.14 ZM 662.00 341.00 C676.80,329.13 793.00,251.49 793.00,253.47 C793.00,254.34 675.60,336.00 670.13,338.93 C668.90,339.59 666.01,340.77 663.70,341.56 L 659.50 343.00 L 662.00 341.00 ZM 424.11 339.71 C423.59,339.19 423.42,338.06 423.75,337.21 C424.11,336.27 423.93,335.93 423.27,336.33 C422.68,336.70 419.90,334.35 417.10,331.11 C412.07,325.31 410.42,322.45 413.65,325.13 C414.56,325.88 415.45,326.27 415.61,326.00 C415.86,325.60 420.62,331.22 427.13,339.58 C428.18,340.94 425.46,341.06 424.11,339.71 ZM 420.01 332.01 C418.27,329.82 416.33,327.70 415.69,327.31 C415.06,326.92 416.27,328.71 418.39,331.30 C420.51,333.88 422.45,336.00 422.70,336.00 C422.96,336.00 421.75,334.21 420.01,332.01 ZM 117.57 338.43 C116.71,337.56 116.00,336.25 116.00,335.50 C116.00,333.75 118.75,331.00 120.50,331.00 C122.40,331.00 125.00,333.81 125.00,335.87 C125.00,339.74 120.45,341.31 117.57,338.43 ZM 439.60 339.17 C439.32,338.71 439.72,338.33 440.50,338.33 C441.28,338.33 441.68,338.71 441.40,339.17 C441.11,339.62 440.71,340.00 440.50,340.00 C440.29,340.00 439.89,339.62 439.60,339.17 ZM 582.50 339.00 C581.92,338.07 582.57,337.63 584.19,337.86 C584.56,337.91 584.82,337.18 584.76,336.23 C584.63,334.02 596.08,316.00 627.50,269.00 C649.57,235.99 689.46,179.00 690.50,179.00 C690.94,179.00 670.27,210.92 644.21,250.50 C615.82,293.61 593.31,326.50 592.20,326.50 C591.63,326.50 590.79,326.91 590.33,327.41 C589.85,327.94 590.02,328.02 590.75,327.60 C592.81,326.42 592.21,327.80 587.96,334.05 C583.68,340.37 583.46,340.56 582.50,339.00 ZM 589.13 330.50 L 590.11 328.50 L 588.48 330.50 C587.59,331.60 586.41,333.40 585.87,334.50 L 584.89 336.50 L 586.52 334.50 C587.41,333.40 588.59,331.60 589.13,330.50 ZM 437.71 336.38 C437.39,336.06 437.41,335.10 437.74,334.24 C438.10,333.31 437.92,332.93 437.32,333.30 C436.75,333.65 434.88,331.96 433.15,329.55 C429.85,324.96 429.22,323.40 431.15,324.60 C431.88,325.04 432.04,324.87 431.59,324.14 C431.19,323.49 430.47,323.21 429.98,323.51 C429.50,323.81 413.17,300.08 393.69,270.78 C356.99,215.58 333.78,180.00 334.47,180.00 C334.90,180.00 357.67,211.91 372.66,233.50 C401.32,274.80 434.45,325.73 434.26,328.22 C434.19,329.18 434.66,329.85 435.31,329.73 C435.97,329.60 436.36,330.33 436.18,331.35 C436.00,332.41 436.30,332.93 436.88,332.57 C437.44,332.23 438.37,332.83 438.95,333.91 C439.93,335.75 438.98,337.64 437.71,336.38 ZM 433.35 326.46 C433.02,325.61 432.54,325.13 432.28,325.39 C432.01,325.65 432.10,326.35 432.46,326.93 C433.44,328.53 434.02,328.22 433.35,326.46 ZM 310.50 332.61 C304.96,330.87 250.00,298.88 250.00,297.39 C250.00,296.83 248.74,296.17 279.50,313.03 C302.72,325.77 314.91,332.65 315.92,333.61 C316.63,334.28 314.67,333.92 310.50,332.61 ZM 708.00 333.71 C709.22,332.61 735.89,317.56 750.00,310.02 C758.53,305.46 768.42,300.15 772.00,298.21 C784.61,291.37 776.21,296.87 751.23,311.79 C725.51,327.16 715.86,332.30 710.50,333.50 C708.85,333.86 707.73,333.96 708.00,333.71 ZM 561.70 325.67 C561.24,324.46 561.39,324.13 562.18,324.61 C562.96,325.09 563.13,324.78 562.70,323.66 C561.88,321.53 562.90,318.82 564.21,319.63 C564.81,320.00 564.98,319.50 564.63,318.38 C563.85,315.88 565.45,313.12 566.34,315.43 C566.67,316.31 565.92,319.37 564.67,322.24 C562.91,326.25 562.23,327.04 561.70,325.67 ZM 413.53 324.05 C413.16,323.45 412.48,323.20 412.01,323.49 C410.85,324.21 393.98,303.93 347.54,246.00 C337.18,233.07 328.02,221.71 327.20,220.75 C326.37,219.79 325.95,219.00 326.26,219.00 C328.70,219.00 416.02,323.31 414.69,324.64 C414.42,324.91 413.90,324.65 413.53,324.05 ZM 163.50 318.75 C163.26,318.06 162.15,311.99 161.04,305.25 C158.66,290.78 157.02,286.34 153.58,285.03 C152.19,284.50 145.98,283.11 139.78,281.94 C129.46,279.99 125.90,278.77 127.08,277.59 C127.32,277.35 133.11,276.02 139.94,274.63 C147.17,273.17 153.44,271.32 154.93,270.21 C157.88,268.03 159.29,263.38 161.53,248.50 C162.35,243.00 163.26,237.86 163.55,237.08 C164.76,233.77 166.50,238.63 168.62,251.25 C169.85,258.54 171.33,265.75 171.91,267.27 C173.22,270.70 175.45,271.59 190.49,274.68 C197.09,276.04 202.68,277.35 202.92,277.59 C204.23,278.90 200.11,280.27 189.42,282.09 C177.25,284.16 173.88,285.50 172.02,288.96 C171.44,290.04 170.06,296.45 168.96,303.21 C167.85,309.97 166.72,316.51 166.45,317.75 C165.92,320.19 164.21,320.77 163.50,318.75 ZM 166.45 291.50 C166.83,289.30 167.82,286.45 168.65,285.17 C170.33,282.56 177.27,279.06 180.81,279.02 C182.09,279.01 182.84,278.55 182.50,278.00 C182.16,277.45 180.93,277.00 179.76,277.00 C178.59,277.00 175.74,276.08 173.42,274.96 C168.88,272.76 167.62,270.65 165.59,261.82 L 164.37 256.50 L 163.62 262.20 C162.52,270.53 159.75,274.08 152.48,276.45 L 146.50 278.40 L 150.28 279.19 C158.76,280.96 162.13,284.69 163.60,293.93 C164.37,298.70 165.33,297.88 166.45,291.50 ZM 857.57 317.75 C857.32,316.51 856.39,310.77 855.52,305.00 C853.54,291.92 851.68,286.63 848.56,285.21 C847.25,284.61 840.85,283.16 834.34,281.98 C823.57,280.04 819.86,278.81 821.08,277.59 C821.32,277.35 826.96,276.05 833.61,274.70 C840.27,273.35 846.97,271.63 848.52,270.87 C852.12,269.11 853.49,265.08 855.62,249.99 C858.21,231.71 859.85,231.23 862.44,248.00 C864.67,262.46 866.58,268.68 869.33,270.48 C871.01,271.58 893.71,277.00 896.64,277.00 C896.84,277.00 897.00,277.59 897.00,278.32 C897.00,279.22 893.18,280.34 885.05,281.83 C878.47,283.03 871.92,284.46 870.50,285.00 C866.93,286.36 865.53,290.27 862.93,306.27 C861.36,315.89 860.29,320.00 859.37,320.00 C858.64,320.00 857.83,318.99 857.57,317.75 ZM 863.28 285.09 C864.60,282.48 871.10,279.06 874.81,279.02 C876.09,279.01 876.84,278.55 876.50,278.00 C876.16,277.45 874.99,277.00 873.90,277.00 C870.92,277.00 864.22,273.27 862.95,270.91 C862.34,269.77 861.26,266.06 860.55,262.67 L 859.25 256.50 L 858.56 260.50 C856.62,271.75 854.42,274.43 845.00,277.04 L 840.50 278.28 L 845.97 279.55 C852.99,281.17 856.13,284.57 857.95,292.53 L 859.31 298.50 L 860.69 293.00 C861.44,289.98 862.61,286.42 863.28,285.09 ZM 582.70 314.34 C583.16,313.13 582.98,312.90 582.03,313.48 C580.66,314.33 588.39,299.23 604.80,269.00 C615.74,248.84 633.99,217.00 634.60,217.00 C635.63,217.00 605.64,274.94 591.25,300.75 C583.36,314.90 581.11,318.48 582.70,314.34 ZM 585.90 308.25 C587.08,305.91 587.82,304.00 587.54,304.00 C586.97,304.00 583.00,311.55 583.00,312.63 C583.00,313.72 583.58,312.85 585.90,308.25 ZM 590.00 301.00 C590.59,299.90 590.85,299.00 590.57,299.00 C590.30,299.00 589.59,299.90 589.00,301.00 C588.41,302.10 588.15,303.00 588.43,303.00 C588.70,303.00 589.41,302.10 590.00,301.00 ZM 566.67 313.58 C566.24,312.45 566.40,312.13 567.18,312.61 C567.96,313.09 568.13,312.77 567.70,311.65 C566.87,309.48 578.29,281.00 604.25,220.50 C624.62,173.04 646.16,125.77 643.66,134.00 C641.13,142.35 574.47,301.28 569.05,311.89 C567.66,314.60 567.19,314.94 566.67,313.58 ZM 569.97 307.50 C569.97,306.95 569.53,307.17 569.00,308.00 C568.47,308.83 568.03,309.95 568.03,310.50 C568.03,311.05 568.47,310.83 569.00,310.00 C569.53,309.17 569.97,308.05 569.97,307.50 ZM 436.95 307.90 C435.79,305.64 435.34,304.09 435.93,304.45 C437.40,305.37 437.27,304.43 435.43,300.86 C434.56,299.18 433.62,298.04 433.35,298.32 C433.07,298.60 433.34,299.77 433.95,300.91 C434.57,302.06 434.86,303.00 434.60,303.00 C433.76,303.00 407.67,254.38 396.11,231.25 C392.19,223.41 389.17,217.00 389.40,217.00 C389.97,217.00 407.90,248.12 418.20,267.00 C433.28,294.63 441.32,310.32 439.97,309.48 C439.02,308.90 438.84,309.13 439.30,310.34 C440.52,313.52 439.03,311.97 436.95,307.90 ZM 438.12 306.33 C436.94,304.30 436.66,304.95 437.62,307.46 C437.97,308.36 438.46,308.88 438.72,308.62 C438.97,308.36 438.71,307.33 438.12,306.33 ZM 433.00 297.19 C433.00,296.75 432.32,295.51 431.48,294.44 C430.08,292.64 430.05,292.70 431.14,295.25 C432.32,298.00 433.00,298.71 433.00,297.19 ZM 510.55 269.30 C509.75,224.14 510.78,103.82 512.01,100.50 C513.16,97.35 514.34,212.28 513.60,255.50 C512.98,290.97 512.37,307.78 511.59,310.50 C511.43,311.05 510.97,292.51 510.55,269.30 ZM 453.62 308.44 C453.25,307.49 453.19,306.48 453.48,306.19 C453.76,305.90 454.01,306.30 454.02,307.08 C454.03,308.25 454.20,308.24 455.00,307.00 C455.53,306.17 455.97,305.95 455.97,306.50 C455.97,307.05 455.59,308.10 455.12,308.83 C454.45,309.89 454.14,309.81 453.62,308.44 ZM 451.06 302.30 C440.54,279.65 380.59,136.08 381.34,135.33 C382.07,134.60 400.27,174.91 422.28,226.00 C447.69,284.96 454.32,301.61 453.20,303.61 C452.54,304.79 452.10,304.53 451.06,302.30 ZM 452.12 300.33 C450.94,298.30 450.66,298.95 451.62,301.46 C451.97,302.36 452.46,302.88 452.72,302.62 C452.97,302.36 452.71,301.33 452.12,300.33 ZM 482.16 302.00 C482.16,300.62 482.38,300.06 482.66,300.75 C482.94,301.44 482.94,302.56 482.66,303.25 C482.38,303.94 482.16,303.38 482.16,302.00 ZM 541.08 302.42 C541.13,301.25 541.36,301.01 541.68,301.81 C541.97,302.53 541.94,303.40 541.60,303.73 C541.27,304.06 541.04,303.47 541.08,302.42 ZM 464.69 295.25 C454.35,263.31 436.62,203.05 437.34,202.33 C437.86,201.80 455.43,254.43 462.10,276.50 C464.43,284.20 466.40,292.64 466.48,295.25 C466.55,297.86 466.53,300.00 466.42,300.00 C466.32,300.00 465.54,297.86 464.69,295.25 ZM 465.00 290.29 C463.91,288.59 463.88,288.59 464.42,290.33 C464.74,291.34 465.04,292.69 465.08,293.33 C465.14,294.17 465.29,294.16 465.65,293.29 C465.92,292.62 465.63,291.27 465.00,290.29 ZM 540.08 298.42 C540.13,297.25 540.36,297.01 540.68,297.81 C540.97,298.53 540.94,299.40 540.60,299.73 C540.27,300.06 540.04,299.47 540.08,298.42 ZM 541.67 296.90 C541.21,294.56 541.86,288.48 543.54,279.40 C552.78,229.32 575.41,125.07 573.36,142.00 C571.83,154.69 550.40,264.58 543.04,297.50 L 542.37 300.50 L 541.67 296.90 ZM 476.20 273.86 C464.10,215.87 449.47,138.20 450.46,137.21 C450.76,136.91 451.00,137.04 451.00,137.50 C451.00,137.96 453.91,151.43 457.46,167.43 C465.05,201.60 471.11,230.65 478.10,266.32 C481.99,286.14 482.97,292.97 482.33,295.69 C481.60,298.76 480.79,295.87 476.20,273.86 ZM 483.08 297.42 C483.13,296.25 483.36,296.01 483.68,296.81 C483.97,297.53 483.94,298.40 483.60,298.73 C483.27,299.06 483.04,298.47 483.08,297.42 ZM 496.19 296.00 C496.17,294.62 496.51,291.48 496.95,289.00 L 497.75 284.50 L 497.76 288.50 C497.76,290.70 497.42,293.85 497.00,295.50 C496.31,298.22 496.23,298.27 496.19,296.00 ZM 526.73 295.12 C526.33,293.27 526.05,290.34 526.11,288.62 C526.20,285.96 526.35,286.16 527.12,290.00 C527.62,292.48 527.90,295.40 527.74,296.50 C527.54,297.85 527.22,297.41 526.73,295.12 ZM 556.02 297.90 C555.93,294.62 585.77,201.44 586.63,202.30 C587.61,203.28 560.23,296.10 558.42,297.91 C558.19,298.14 557.99,297.70 557.98,296.92 C557.97,295.75 557.80,295.76 557.00,297.00 C556.47,297.83 556.02,298.23 556.02,297.90 ZM 245.75 295.43 C242.01,293.40 242.24,292.56 246.00,294.50 C247.65,295.35 249.00,296.26 249.00,296.53 C249.00,297.17 248.89,297.13 245.75,295.43 ZM 527.48 284.69 C527.07,281.41 527.82,269.31 529.44,252.94 C532.51,221.96 538.86,166.94 539.52,165.50 C540.72,162.91 536.70,213.80 532.53,253.88 C531.14,267.29 529.95,279.21 529.88,280.38 C529.79,281.98 529.56,281.76 528.95,279.50 C528.43,277.58 528.33,278.93 528.68,283.25 C529.33,291.24 528.43,292.32 527.48,284.69 ZM 494.22 278.00 C488.88,228.49 483.37,165.29 484.31,164.35 C484.54,164.13 484.98,166.32 485.30,169.23 C485.62,172.13 487.01,183.73 488.38,195.00 C493.73,239.01 497.16,277.50 496.29,283.62 L 495.46 289.50 L 494.22 278.00 ZM 495.69 275.25 C495.44,274.29 495.23,275.08 495.23,277.00 C495.23,278.92 495.44,279.71 495.69,278.75 C495.94,277.79 495.94,276.21 495.69,275.25 ZM 230.00 215.00 C228.90,213.90 228.00,212.10 228.00,211.00 C228.00,208.76 231.31,205.00 233.28,205.00 C236.02,205.00 239.00,208.13 239.00,211.00 C239.00,212.85 238.20,214.45 236.78,215.44 C233.84,217.50 232.41,217.41 230.00,215.00 ZM 790.22 215.44 C786.14,212.58 788.39,205.00 793.33,205.00 C795.55,205.00 799.00,208.54 799.00,210.81 C799.00,215.23 793.82,217.96 790.22,215.44 ZM 178.20 181.80 C174.81,178.41 178.80,172.75 183.00,175.00 C184.99,176.07 185.43,177.16 185.02,180.00 C184.60,182.90 180.41,184.01 178.20,181.80 ZM 846.20 181.80 C844.06,179.66 844.79,176.05 847.62,174.76 C849.92,173.72 850.46,173.84 852.07,175.83 C855.57,180.16 850.11,185.71 846.20,181.80 ZM 751.20 166.77 C749.68,159.48 748.46,156.02 747.03,154.84 C745.91,153.93 741.74,152.64 737.75,151.97 C725.01,149.85 724.00,147.90 734.67,146.04 C743.45,144.52 747.78,142.62 748.96,139.80 C749.49,138.54 750.60,133.73 751.43,129.11 C752.26,124.50 753.19,120.48 753.49,120.18 C754.72,118.95 755.94,121.96 757.44,129.95 C759.83,142.64 760.03,142.82 775.00,146.24 C780.88,147.59 782.65,150.26 778.00,150.78 C772.05,151.44 761.98,154.31 760.86,155.66 C760.19,156.47 758.71,161.45 757.57,166.73 C756.43,172.01 755.02,176.49 754.43,176.69 C753.80,176.90 752.47,172.82 751.20,166.77 ZM 759.85 150.24 L 762.82 148.43 L 759.82 146.71 C758.17,145.77 756.32,143.66 755.71,142.03 L 754.59 139.07 L 753.35 142.02 C752.67,143.64 750.69,145.82 748.96,146.88 L 745.80 148.80 L 748.65 150.15 C750.22,150.89 752.17,152.90 753.00,154.61 L 754.50 157.72 L 755.69 154.88 C756.35,153.32 758.22,151.23 759.85,150.24 ZM 309.20 163.91 C308.72,162.59 307.75,158.16 307.04,154.08 C305.44,144.85 303.46,142.63 295.40,141.05 C292.15,140.42 288.26,139.66 286.75,139.37 C281.32,138.32 283.83,136.35 292.75,134.63 C303.59,132.55 305.30,130.94 306.91,121.33 C308.79,110.09 309.13,108.88 310.34,109.28 C310.98,109.49 312.46,114.10 313.63,119.53 C315.13,126.50 316.36,129.87 317.82,131.05 C318.95,131.97 323.73,133.53 328.44,134.52 C333.15,135.50 337.00,136.81 337.00,137.42 C337.00,138.03 332.84,139.52 327.75,140.73 C321.65,142.18 317.94,143.61 316.86,144.94 C315.97,146.04 314.50,150.87 313.61,155.68 C311.82,165.33 310.56,167.67 309.20,163.91 ZM 316.50 138.82 L 319.00 137.68 L 315.98 135.84 C314.32,134.83 312.45,132.88 311.82,131.50 L 310.68 129.00 L 308.84 132.02 C307.83,133.68 305.88,135.55 304.50,136.18 L 302.00 137.32 L 305.02 139.16 C306.68,140.17 308.55,142.12 309.18,143.50 L 310.32 146.00 L 312.16 142.98 C313.17,141.32 315.12,139.45 316.50,138.82 ZM 574.16 135.00 C574.16,133.62 574.38,133.06 574.66,133.75 C574.94,134.44 574.94,135.56 574.66,136.25 C574.38,136.94 574.16,136.38 574.16,135.00 ZM 449.08 133.42 C449.13,132.25 449.36,132.01 449.68,132.81 C449.97,133.53 449.94,134.40 449.60,134.73 C449.27,135.06 449.04,134.47 449.08,133.42 ZM 379.16 131.46 C377.49,127.78 377.81,127.00 379.62,130.34 C380.46,131.90 380.97,133.36 380.74,133.59 C380.51,133.82 379.80,132.86 379.16,131.46 ZM 607.68 129.27 C607.43,128.84 606.90,126.09 606.51,123.14 C605.60,116.43 603.67,114.48 597.08,113.60 C590.54,112.74 590.79,110.83 597.58,109.70 C603.97,108.65 605.29,107.20 606.50,99.93 C607.05,96.62 607.95,93.82 608.49,93.71 C609.04,93.59 609.99,96.30 610.60,99.72 C611.97,107.38 612.99,108.67 618.31,109.49 C627.88,110.98 628.05,112.14 618.98,113.92 C612.27,115.24 611.81,115.81 610.58,124.23 C609.92,128.73 608.66,130.92 607.68,129.27 ZM 528.98 824.25 C528.96,816.14 528.91,799.83 528.86,788.00 C528.82,776.17 528.83,692.59 528.89,602.26 L 529.00 438.02 L 535.25 431.70 C551.03,415.75 575.71,400.70 605.00,389.16 C635.19,377.26 658.22,371.53 720.50,360.42 C734.25,357.96 753.92,353.89 764.21,351.36 C774.50,348.83 783.62,347.02 784.46,347.35 C785.84,347.88 786.00,369.93 786.00,558.49 L 786.00 769.04 L 783.75 770.00 C781.35,771.02 751.55,775.63 726.00,778.93 C675.16,785.49 639.14,791.56 618.00,797.12 C588.03,805.00 552.40,821.90 534.67,836.65 C529.29,841.12 529.00,840.49 528.98,824.25 ZM 544.86 823.25 C550.01,819.81 553.53,817.00 552.69,817.00 C551.84,817.00 549.77,815.84 548.08,814.41 C545.51,812.25 545.00,811.10 545.00,807.47 L 545.00 803.13 L 541.52 803.69 C539.17,804.07 537.22,803.72 535.52,802.60 L 533.00 800.95 L 533.00 816.03 C533.00,827.84 533.27,830.93 534.25,830.30 C534.94,829.86 539.71,826.69 544.86,823.25 ZM 583.46 803.28 C595.02,798.82 594.69,799.10 591.10,796.91 C585.64,793.59 583.76,793.60 580.55,796.95 C576.30,801.38 572.48,801.10 567.50,796.00 C562.49,790.87 559.11,790.69 554.49,795.31 C550.10,799.70 548.26,806.22 550.46,809.58 C552.50,812.69 555.52,812.67 557.56,809.54 C559.43,806.69 558.61,804.61 555.89,805.32 C552.74,806.14 553.39,801.24 556.62,799.76 C558.98,798.69 559.48,798.85 561.71,801.45 C564.16,804.30 564.32,806.46 562.43,811.33 C561.84,812.87 562.77,812.64 568.07,809.97 C571.56,808.21 578.48,805.20 583.46,803.28 ZM 545.79 796.52 C549.44,793.45 551.24,789.28 550.82,784.90 C550.57,782.25 549.62,780.97 546.21,778.69 C543.86,777.11 541.19,774.69 540.29,773.32 C538.76,770.99 538.77,770.45 540.46,765.48 L 542.28 760.14 L 539.18 756.22 C532.78,748.15 533.00,747.72 533.00,768.38 C533.00,785.42 533.53,789.18 535.50,786.00 C535.84,785.45 537.66,785.00 539.54,785.00 C543.88,785.00 546.78,788.66 545.04,791.93 C543.60,794.61 541.00,794.61 541.00,791.93 C541.00,790.36 540.46,789.94 538.75,790.18 C535.87,790.59 535.21,794.47 537.57,797.08 C539.91,799.66 542.26,799.50 545.79,796.52 ZM 612.20 793.50 C623.09,790.35 639.30,786.85 658.50,783.52 C675.89,780.50 678.39,779.24 685.55,769.94 C692.60,760.77 702.73,757.02 706.29,762.25 C707.73,764.37 707.98,764.41 710.63,762.98 C714.67,760.79 723.65,749.54 727.17,742.24 C729.44,737.55 730.23,734.42 730.35,729.74 L 730.50 723.50 L 737.00 722.91 C746.19,722.07 750.14,720.04 758.69,711.76 C769.10,701.68 771.19,697.32 766.59,695.22 C763.52,693.82 762.53,689.45 764.03,683.87 C764.90,680.66 766.91,677.91 772.02,672.91 C776.98,668.07 779.16,665.12 779.95,662.17 C780.72,659.33 780.97,628.91 780.77,560.80 C780.46,450.74 781.25,460.43 772.07,453.34 C766.28,448.88 763.72,444.28 763.59,438.17 C763.52,434.56 763.97,433.44 766.25,431.62 C767.76,430.41 769.00,428.64 769.00,427.69 C769.00,424.94 761.32,417.34 755.72,414.55 C750.24,411.81 745.87,411.42 739.50,413.10 C731.52,415.20 731.58,415.24 730.84,407.80 C730.40,403.35 729.24,399.38 727.41,396.02 C722.47,386.93 707.00,375.88 707.00,381.43 C707.00,383.63 702.06,387.00 698.83,387.00 C694.42,387.00 689.88,384.72 684.14,379.62 C679.80,375.77 678.27,375.00 674.96,375.00 C666.42,375.00 631.43,384.44 611.34,392.17 C599.48,396.73 594.96,400.81 589.81,411.59 C586.19,419.17 583.73,421.18 578.51,420.83 C574.17,420.54 572.51,422.22 570.96,428.47 C567.94,440.70 564.27,446.10 558.13,447.32 C555.31,447.89 555.09,448.21 555.64,450.94 C556.76,456.56 555.19,460.49 548.98,467.53 C545.69,471.25 543.00,474.72 543.00,475.24 C543.00,475.76 543.90,477.33 545.00,478.73 C548.18,482.78 547.50,485.99 541.52,494.97 C538.50,499.50 535.48,504.85 534.79,506.86 C533.11,511.78 532.39,729.76 534.03,737.65 C534.63,740.55 536.42,744.55 538.06,746.68 C539.68,748.78 542.35,752.26 544.00,754.40 C547.44,758.87 547.71,761.45 545.26,766.57 L 543.53 770.22 L 546.36 772.36 C553.77,777.96 556.00,780.74 556.00,784.35 C556.00,787.83 556.05,787.88 558.92,786.88 C562.41,785.66 565.97,787.21 570.44,791.91 C574.09,795.75 575.09,795.76 578.85,792.00 C582.23,788.62 585.12,788.25 589.50,790.66 C601.18,797.07 600.28,796.96 612.20,793.50 ZM 699.21 777.10 C714.36,774.89 716.09,773.97 725.01,763.29 C731.24,755.84 737.96,751.00 742.08,751.00 C742.99,751.00 744.92,751.93 746.37,753.07 C749.06,755.20 749.83,759.14 748.09,761.90 C746.77,763.97 743.81,762.43 744.19,759.88 C744.61,757.00 741.72,755.16 739.58,756.93 C735.92,759.97 739.19,768.00 744.10,768.00 C745.25,768.00 747.69,767.29 749.51,766.43 C757.88,762.46 755.87,749.09 746.42,745.97 C738.50,743.36 731.92,746.68 722.53,758.03 C713.59,768.84 707.66,771.60 703.43,766.92 C701.26,764.52 696.89,764.88 693.77,767.71 C691.22,770.02 684.82,779.01 685.75,778.98 C686.16,778.97 692.22,778.12 699.21,777.10 ZM 736.83 772.02 C739.20,771.33 739.29,771.16 737.63,770.47 C736.61,770.05 734.99,767.96 734.04,765.84 L 732.31 761.98 L 726.99 768.11 L 721.66 774.24 L 727.91 773.51 C731.34,773.11 735.36,772.44 736.83,772.02 ZM 771.50 767.09 L 780.50 765.45 L 780.78 752.04 L 781.06 738.63 L 777.53 742.27 C774.22,745.68 769.01,747.98 764.58,747.99 C761.35,748.00 763.64,749.19 768.70,750.13 C774.20,751.14 776.00,753.01 776.00,757.66 C776.00,761.38 773.90,763.00 769.09,763.00 C765.82,763.00 763.67,760.66 762.48,755.82 C762.12,754.35 761.07,752.47 760.16,751.64 C758.63,750.25 758.52,750.61 758.82,756.32 C759.10,761.56 758.77,763.05 756.68,766.14 L 754.21 769.78 L 758.35 769.25 C760.63,768.96 766.55,767.99 771.50,767.09 ZM 771.59 757.85 C772.39,756.56 769.18,753.77 767.85,754.59 C766.84,755.22 768.66,759.00 769.98,759.00 C770.47,759.00 771.20,758.48 771.59,757.85 ZM 772.92 740.41 C775.50,738.24 776.00,737.11 776.00,733.43 C776.00,729.81 775.55,728.75 773.38,727.33 C771.04,725.80 770.50,725.77 768.13,727.10 C764.42,729.18 764.59,732.50 768.41,732.50 C771.85,732.50 772.72,734.13 770.47,736.38 C766.91,739.95 760.00,736.77 760.00,731.57 C760.00,727.21 761.75,724.32 770.28,714.61 C775.48,708.68 779.11,703.57 779.83,701.16 C780.48,699.02 781.00,691.30 781.00,684.01 L 781.00 670.74 L 775.47 676.12 C772.01,679.48 769.50,682.93 768.79,685.30 C767.71,688.92 767.80,689.23 770.83,691.99 C776.25,696.94 774.41,702.83 764.11,713.46 C756.28,721.55 753.89,725.60 753.82,730.92 C753.74,736.46 754.71,738.62 758.30,740.91 C762.93,743.88 769.05,743.67 772.92,740.41 ZM 743.83 740.73 L 747.17 740.81 L 745.08 738.59 C741.44,734.71 742.60,732.63 746.78,735.56 C748.97,737.10 749.00,737.06 749.00,732.64 C749.00,730.18 749.30,727.37 749.67,726.41 C750.22,724.98 749.99,724.80 748.42,725.43 C747.37,725.86 743.91,726.71 740.75,727.33 C735.05,728.45 735.00,728.49 735.00,731.99 C735.00,733.93 734.58,736.99 734.06,738.79 L 733.12 742.07 L 736.81 741.36 C738.84,740.97 742.00,740.69 743.83,740.73 ZM 780.66 711.33 C780.43,711.09 777.96,713.29 775.17,716.20 L 770.11 721.50 L 773.18 722.15 C774.86,722.50 777.20,723.76 778.37,724.93 L 780.50 727.07 L 780.79 719.41 C780.96,715.20 780.90,711.56 780.66,711.33 ZM 541.22 486.33 C542.04,484.60 541.79,483.52 540.02,481.03 C536.84,476.56 537.90,472.38 543.89,465.79 C546.53,462.88 549.21,459.52 549.85,458.32 C553.92,450.59 545.40,442.75 538.68,448.04 C536.66,449.63 535.97,450.96 536.19,452.87 C536.60,456.33 540.34,456.60 540.83,453.19 C541.07,451.46 541.70,450.96 543.33,451.19 C546.58,451.65 546.66,455.43 543.49,458.60 C541.27,460.82 540.22,461.16 536.92,460.72 L 533.00 460.19 L 533.00 479.34 L 533.00 498.49 L 536.60 493.50 C538.58,490.75 540.66,487.52 541.22,486.33 ZM 779.93 423.72 C779.06,420.44 776.96,417.71 770.53,411.50 C765.97,407.10 761.74,402.52 761.12,401.32 C759.42,398.00 759.78,393.56 761.98,390.76 C764.31,387.78 766.73,386.98 769.86,388.14 C772.89,389.27 772.33,392.50 769.10,392.50 C765.95,392.50 764.16,395.28 765.93,397.42 C768.02,399.93 771.56,399.31 774.41,395.92 C781.96,386.95 771.02,377.51 760.90,384.27 C756.62,387.13 754.00,392.26 754.00,397.80 C754.00,403.76 755.93,406.94 763.22,412.99 C774.28,422.18 776.59,428.73 770.88,434.63 C767.98,437.61 767.83,438.09 768.88,441.18 C769.50,443.00 772.37,446.60 775.25,449.16 L 780.50 453.83 L 780.78 440.88 C780.94,433.48 780.58,426.13 779.93,423.72 ZM 542.59 441.00 C544.72,441.00 544.82,440.77 543.84,437.97 C543.26,436.30 543.01,434.05 543.30,432.97 C543.81,431.02 543.78,431.02 540.99,433.01 C536.63,436.11 533.00,440.90 533.00,443.55 L 533.00 445.94 L 536.64 443.47 C538.64,442.11 541.32,441.00 542.59,441.00 ZM 561.41 438.92 C562.84,437.23 564.27,434.64 564.59,433.17 C566.04,426.60 568.38,420.67 570.52,418.19 C572.41,415.99 573.68,415.50 577.45,415.50 L 582.06 415.50 L 586.04 408.17 L 590.02 400.83 L 580.50 405.85 C575.26,408.61 567.40,413.22 563.03,416.10 L 555.08 421.35 L 557.54 423.63 C561.79,427.56 559.94,437.00 554.91,437.00 C551.92,437.00 551.30,434.03 553.89,432.08 C556.64,430.01 555.77,427.00 552.43,427.00 C547.89,427.00 546.42,434.72 550.07,439.37 C553.08,443.19 557.98,443.00 561.41,438.92 ZM 781.00 405.30 L 781.00 396.61 L 777.75 399.69 C775.96,401.39 773.45,403.10 772.16,403.48 C769.93,404.16 770.07,404.41 775.16,409.05 C778.10,411.72 780.61,413.93 780.75,413.95 C780.89,413.98 781.00,410.09 781.00,405.30 ZM 746.88 407.02 C750.12,407.00 750.23,406.88 749.62,403.88 C749.28,402.16 749.00,399.38 749.00,397.70 L 749.00 394.65 L 746.50 397.00 C743.39,399.92 742.26,399.06 744.57,395.53 L 746.31 392.89 L 743.40 393.69 C741.81,394.13 738.81,394.50 736.74,394.50 C733.80,394.50 733.11,394.83 733.58,396.00 C733.90,396.83 734.65,400.02 735.24,403.11 L 736.30 408.72 L 739.90 407.88 C741.88,407.42 745.02,407.04 746.88,407.02 ZM 741.22 388.96 C748.79,386.85 754.00,380.30 754.00,372.86 C754.00,364.31 746.34,361.08 740.04,366.96 C737.51,369.33 736.93,370.59 737.18,373.21 C737.45,375.93 737.96,376.55 740.16,376.81 C742.13,377.04 743.00,376.58 743.48,375.07 C743.84,373.94 743.90,372.65 743.63,372.21 C743.36,371.77 743.54,370.75 744.04,369.95 C744.73,368.84 745.35,368.76 746.72,369.60 C750.62,372.02 748.95,378.94 743.84,381.59 C738.06,384.57 731.39,382.60 723.50,375.57 C721.30,373.61 717.54,371.04 715.15,369.87 L 710.81 367.73 L 697.89 370.06 C690.78,371.34 685.08,372.67 685.23,373.00 C685.90,374.53 693.72,380.80 695.75,381.43 C698.43,382.27 702.00,381.31 702.00,379.76 C702.00,377.31 705.39,375.00 709.00,375.00 C712.83,375.00 718.28,378.21 724.62,384.20 C727.38,386.80 733.66,389.84 736.50,389.95 C737.05,389.97 739.17,389.52 741.22,388.96 ZM 781.00 368.38 L 781.00 352.77 L 778.75 353.27 C767.99,355.67 752.42,359.43 752.06,359.70 C751.82,359.89 752.65,360.77 753.92,361.65 C756.55,363.50 759.00,368.74 759.00,372.53 C759.00,377.67 761.56,373.23 763.39,364.92 C764.02,362.05 767.58,360.00 771.94,360.00 C775.00,360.00 776.00,361.45 776.00,365.89 C776.00,369.66 774.28,371.58 768.86,373.87 C762.91,376.39 762.18,377.63 766.91,377.18 C771.40,376.75 777.40,379.07 779.19,381.93 C779.90,383.07 780.60,384.00 780.74,384.00 C780.88,384.00 781.00,376.97 781.00,368.38 ZM 732.25 373.52 C731.98,372.10 732.69,369.30 733.92,366.94 L 736.06 362.83 L 733.28 363.38 C731.75,363.68 728.70,364.23 726.50,364.59 C719.76,365.71 719.71,366.22 725.79,371.23 C728.93,373.82 731.78,375.95 732.11,375.97 C732.45,375.99 732.51,374.88 732.25,373.52 ZM 771.56 366.91 C771.92,366.31 771.74,365.34 771.16,364.76 C769.73,363.33 767.00,365.57 767.00,368.16 C767.00,369.74 767.33,369.89 768.94,369.03 C770.01,368.46 771.19,367.50 771.56,366.91 ZM 488.43 835.93 C466.83,818.63 430.29,802.32 395.81,794.59 C379.76,790.99 341.69,784.75 310.00,780.52 C269.02,775.05 241.71,770.91 239.77,769.88 C238.09,768.98 238.00,758.64 238.00,558.43 C238.00,366.38 238.14,347.88 239.60,347.32 C240.48,346.99 243.29,347.23 245.85,347.86 C265.32,352.67 287.55,357.46 304.50,360.50 C370.56,372.35 399.90,380.21 432.50,394.79 C456.84,405.68 482.19,422.92 492.02,435.26 L 496.00 440.27 L 495.75 639.37 C495.47,861.51 496.19,842.13 488.43,835.93 ZM 491.00 815.98 L 491.00 800.95 L 488.50 802.59 C486.75,803.74 484.97,804.03 482.50,803.57 L 479.00 802.91 L 479.00 807.03 C479.00,810.25 478.36,811.79 476.08,814.08 C474.47,815.68 472.35,817.00 471.37,817.00 C470.39,817.00 472.87,819.02 476.88,821.49 C480.89,823.97 485.59,827.11 487.33,828.48 C489.08,829.85 490.61,830.98 490.75,830.99 C490.89,830.99 491.00,824.24 491.00,815.98 ZM 460.97 809.33 C458.80,803.11 463.80,797.33 468.63,800.49 C471.76,802.54 471.39,805.45 467.99,805.48 C466.06,805.50 465.57,805.95 465.82,807.50 C466.17,809.70 468.65,812.00 470.67,812.00 C471.38,812.00 472.70,810.85 473.62,809.45 C475.06,807.26 475.12,806.34 474.04,802.75 C473.36,800.47 471.31,797.11 469.50,795.30 C464.89,790.69 461.51,790.87 456.50,796.00 C451.60,801.02 448.45,801.21 443.43,796.81 L 439.79 793.61 L 435.40 795.95 C432.98,797.23 431.00,798.59 431.00,798.97 C431.00,799.35 434.71,801.07 439.25,802.80 C443.79,804.54 450.65,807.48 454.50,809.34 C458.35,811.21 461.61,812.64 461.75,812.53 C461.89,812.42 461.54,810.98 460.97,809.33 ZM 486.19 797.75 C488.32,796.07 488.92,793.87 487.83,791.75 C486.56,789.28 483.00,789.46 483.00,792.00 C483.00,794.62 480.38,794.57 478.96,791.93 C476.38,787.11 483.41,783.01 489.07,786.04 C490.95,787.04 491.00,786.55 490.96,768.29 L 490.91 749.50 L 486.40 754.50 C481.70,759.71 481.56,760.46 484.09,766.68 C485.87,771.05 484.35,774.04 478.03,778.57 C473.52,781.81 473.00,782.58 473.00,785.95 C473.00,790.28 476.32,795.84 480.03,797.72 C483.15,799.30 484.23,799.31 486.19,797.75 ZM 431.29 792.50 C434.92,790.58 438.80,789.00 439.91,789.00 C441.02,789.00 443.47,790.35 445.35,792.00 C447.23,793.65 449.18,795.00 449.69,795.00 C450.21,795.00 451.95,793.61 453.56,791.91 C458.03,787.21 461.59,785.66 465.08,786.88 C467.91,787.87 468.00,787.80 468.00,784.67 C468.00,780.60 470.09,777.60 475.13,774.42 C480.03,771.32 480.76,769.56 478.65,765.98 C475.93,761.38 476.58,758.54 481.64,752.84 C484.19,749.97 487.23,745.56 488.39,743.06 C490.49,738.52 490.50,737.98 490.79,628.50 C490.99,552.11 490.75,516.55 489.99,512.10 C488.76,504.92 486.52,500.01 480.86,492.09 C476.52,486.00 476.03,482.50 479.00,478.73 C480.10,477.33 481.00,475.67 481.00,475.03 C481.00,474.40 478.81,471.54 476.13,468.69 C468.61,460.67 466.40,454.86 469.01,449.98 C469.90,448.33 469.54,447.95 466.22,447.06 C462.45,446.05 458.23,442.42 456.21,438.48 C455.64,437.36 454.42,433.54 453.50,429.98 C451.38,421.77 449.86,419.99 445.55,420.69 C440.58,421.49 438.35,419.65 434.08,411.21 C427.37,397.95 422.75,394.88 396.84,386.49 C383.72,382.23 360.74,376.30 353.85,375.39 C347.14,374.50 344.70,375.38 338.54,380.97 C332.62,386.32 328.04,387.87 322.68,386.34 C320.75,385.79 318.99,384.36 318.20,382.71 C316.15,378.46 313.16,379.24 305.40,386.04 C297.39,393.06 294.01,399.20 293.49,407.66 C293.30,410.74 292.72,413.68 292.19,414.21 C291.59,414.81 289.54,414.58 286.58,413.58 C277.26,410.41 269.11,412.29 261.23,419.41 C259.03,421.40 256.66,424.41 255.96,426.10 C254.76,428.99 254.86,429.31 257.59,431.49 C260.01,433.42 260.50,434.55 260.49,438.16 C260.47,444.64 258.39,448.47 252.41,452.98 C242.68,460.33 243.54,450.25 243.22,561.00 C242.90,672.88 242.09,663.18 252.54,673.43 C257.13,677.93 259.12,680.73 259.97,683.87 C261.47,689.45 260.48,693.82 257.41,695.22 C252.81,697.32 254.90,701.68 265.31,711.76 C273.86,720.04 277.81,722.07 287.00,722.91 L 293.50 723.50 L 294.04 731.00 C294.45,736.67 295.28,739.78 297.45,743.74 C301.23,750.68 310.48,761.81 313.66,763.25 C315.87,764.26 316.41,764.11 317.96,762.06 C319.49,760.03 320.35,759.78 324.27,760.22 C330.17,760.89 333.80,763.57 339.37,771.38 C342.02,775.08 345.28,778.37 347.20,779.27 C349.02,780.11 359.50,782.44 370.50,784.43 C389.08,787.81 417.69,794.36 418.84,795.50 C420.22,796.88 425.38,795.64 431.29,792.50 ZM 335.40 774.00 C329.05,765.15 324.22,762.89 320.50,767.00 C316.26,771.68 310.05,768.62 300.59,757.18 C291.67,746.40 285.35,743.45 277.54,746.43 C270.83,749.00 267.80,755.20 270.33,761.24 C272.08,765.43 273.98,766.96 278.34,767.67 C281.24,768.14 282.32,767.78 284.49,765.60 C286.43,763.66 286.95,762.38 286.46,760.73 C285.03,755.90 280.00,754.98 280.00,759.55 C280.00,762.45 278.38,763.56 276.46,761.96 C274.48,760.33 274.62,756.67 276.75,754.15 C281.52,748.52 289.32,751.72 298.99,763.29 C307.79,773.82 309.82,774.94 323.83,777.06 C340.46,779.57 339.57,779.80 335.40,774.00 ZM 297.58 768.77 C295.06,765.89 293.00,763.19 293.00,762.77 C293.00,762.35 292.55,762.00 292.00,762.00 C291.45,762.00 291.00,762.93 291.00,764.08 C291.00,765.22 289.70,767.46 288.10,769.05 L 285.21 771.95 L 288.35 772.45 C295.11,773.54 296.60,773.73 299.33,773.86 L 302.16 774.00 L 297.58 768.77 ZM 268.61 767.11 C265.30,763.66 263.91,758.33 265.03,753.38 C266.11,748.57 264.37,750.26 261.00,757.29 C258.84,761.79 258.06,762.54 255.30,762.81 C250.38,763.29 248.00,761.54 248.00,757.46 C248.00,753.03 250.93,750.01 255.25,749.98 C257.04,749.98 259.17,749.53 260.00,749.00 C261.24,748.20 261.16,748.03 259.50,748.01 C255.26,747.97 250.26,745.89 247.20,742.89 L 244.00 739.76 L 244.00 752.88 C244.00,762.68 244.32,766.01 245.25,766.05 C245.94,766.09 251.23,766.94 257.00,767.95 C272.02,770.59 271.95,770.60 268.61,767.11 ZM 255.80 757.80 C257.55,756.05 257.27,755.00 255.06,755.00 C252.86,755.00 251.58,756.51 252.50,758.00 C253.32,759.32 254.34,759.26 255.80,757.80 ZM 266.89 740.10 C269.91,737.28 270.62,734.84 270.09,729.07 C269.72,725.03 267.10,721.00 259.83,713.32 C249.54,702.45 247.76,696.89 253.00,692.00 C254.65,690.46 256.00,688.46 256.00,687.55 C256.00,684.71 253.34,680.68 248.08,675.54 L 243.00 670.58 L 243.02 684.54 C243.05,701.32 244.12,704.45 252.96,713.50 C260.73,721.46 264.00,726.52 264.00,730.60 C264.00,736.74 257.33,740.23 253.56,736.06 C251.20,733.46 252.45,731.72 256.10,732.52 C258.44,733.04 259.00,732.82 259.00,731.41 C259.00,729.13 256.14,726.00 254.07,726.00 C250.72,726.00 248.00,728.97 248.00,732.62 C248.00,739.27 252.08,742.89 259.64,742.96 C262.87,742.99 264.48,742.36 266.89,740.10 ZM 290.08 738.34 C289.49,736.23 289.01,733.14 289.01,731.48 C289.00,728.60 288.73,728.40 283.25,727.33 C280.09,726.71 276.83,725.93 276.00,725.59 C274.74,725.07 274.56,725.95 274.84,730.98 C275.17,736.89 275.21,736.97 277.31,735.49 C281.46,732.59 282.50,734.78 278.83,738.69 L 276.65 741.00 L 282.08 741.02 C285.06,741.02 288.16,741.45 288.97,741.96 C291.09,743.30 291.28,742.67 290.08,738.34 ZM 251.63 722.00 C252.94,722.00 254.00,721.86 254.00,721.70 C254.00,721.53 251.52,718.84 248.50,715.72 C242.33,709.35 242.28,709.39 243.64,720.72 L 244.27 725.93 L 246.77 723.97 C248.14,722.88 250.33,722.00 251.63,722.00 ZM 491.00 479.10 L 491.00 460.19 L 487.08 460.72 C483.78,461.16 482.73,460.82 480.51,458.60 C477.13,455.22 477.39,451.50 481.00,451.50 C482.83,451.50 483.42,451.97 483.20,453.26 C482.83,455.48 485.55,456.62 487.45,455.04 C489.11,453.66 488.53,451.42 485.68,448.25 C482.11,444.29 476.21,445.65 474.02,450.94 C472.22,455.30 473.33,458.18 479.49,465.07 C486.15,472.55 487.33,476.71 484.03,481.17 L 481.81 484.18 L 484.72 488.84 C489.94,497.17 490.48,498.00 490.74,498.00 C490.88,498.00 491.00,489.49 491.00,479.10 ZM 253.74 444.78 C254.30,444.08 255.06,442.14 255.42,440.47 C255.95,437.94 255.56,436.95 253.03,434.53 C247.30,429.04 249.79,422.12 260.78,412.99 C268.21,406.82 270.00,403.77 270.00,397.30 C269.99,391.57 267.42,386.83 262.76,383.99 C252.39,377.67 241.64,387.79 249.92,396.08 C253.18,399.33 257.68,399.99 258.69,397.36 C259.60,395.00 257.65,392.50 254.88,392.50 C253.17,392.50 252.50,391.94 252.50,390.50 C252.50,388.92 253.27,388.44 256.14,388.20 C259.09,387.95 260.17,388.40 261.89,390.58 C266.28,396.17 263.54,403.51 254.28,410.97 C251.23,413.43 247.56,417.22 246.12,419.39 C243.62,423.16 243.48,424.09 243.16,438.84 L 242.81 454.34 L 247.76 450.20 C250.48,447.92 253.17,445.49 253.74,444.78 ZM 491.00 443.43 C491.00,441.70 489.36,439.15 486.02,435.68 L 481.04 430.50 L 481.02 433.82 C481.01,435.64 480.53,438.00 479.96,439.07 C479.08,440.73 479.27,441.00 481.32,441.00 C482.63,441.00 485.23,442.09 487.10,443.41 C488.97,444.74 490.61,445.87 490.75,445.91 C490.89,445.96 491.00,444.84 491.00,443.43 ZM 473.93 439.37 C478.77,433.21 473.84,422.66 468.90,428.61 C467.76,430.00 467.90,430.50 469.89,432.11 C472.37,434.12 472.16,437.00 469.53,437.00 C466.78,437.00 464.00,433.21 464.00,429.45 C464.00,426.94 464.74,425.22 466.52,423.56 L 469.05 421.22 L 460.98 416.05 C456.55,413.20 448.73,408.68 443.61,406.01 L 434.30 401.14 L 437.82 407.82 C441.96,415.66 442.52,416.15 446.58,415.40 C448.96,414.97 450.36,415.44 452.76,417.45 C455.71,419.93 456.89,422.61 459.91,433.70 C462.03,441.49 469.79,444.63 473.93,439.37 ZM 253.38 404.91 C253.87,404.49 252.70,403.49 250.80,402.69 C248.89,401.89 246.36,400.00 245.17,398.49 L 243.00 395.73 L 243.00 404.99 L 243.00 414.25 L 247.75 409.97 C250.36,407.62 252.90,405.34 253.38,404.91 ZM 289.00 404.97 C289.00,402.75 289.66,399.36 290.47,397.43 L 291.93 393.92 L 288.72 394.52 C286.86,394.86 283.69,394.47 281.20,393.58 L 276.90 392.05 L 279.06 395.08 C281.79,398.92 280.59,400.38 277.57,396.88 L 275.31 394.25 L 275.14 398.88 C275.05,401.42 274.72,404.29 274.42,405.25 C273.95,406.72 274.55,407.02 278.18,407.10 C280.56,407.15 283.62,407.56 285.00,408.00 C288.94,409.26 289.00,409.22 289.00,404.97 ZM 292.17 388.60 C294.19,387.88 298.24,385.26 301.17,382.77 C311.69,373.85 317.02,372.78 321.71,378.62 C324.23,381.76 325.01,382.16 327.57,381.59 C329.19,381.24 332.72,379.07 335.41,376.77 L 340.30 372.59 L 327.90 370.26 C321.08,368.97 314.06,368.18 312.29,368.50 C310.52,368.82 305.17,371.99 300.38,375.56 C295.60,379.12 290.63,382.31 289.34,382.63 C285.20,383.67 280.26,382.10 277.56,378.89 C274.50,375.25 274.33,372.92 276.94,370.56 C279.28,368.44 281.38,369.44 280.63,372.31 C279.62,376.19 284.99,379.08 286.39,375.42 C288.26,370.55 284.66,365.28 278.82,364.35 C269.18,362.81 266.73,376.96 275.28,384.84 C277.80,387.16 284.15,389.91 287.00,389.91 C287.83,389.91 290.15,389.32 292.17,388.60 ZM 250.62 377.96 C252.60,377.31 255.80,377.03 257.73,377.34 C262.12,378.06 261.42,377.30 254.20,373.50 C249.54,371.05 248.44,369.98 248.17,367.63 C247.57,362.35 248.73,360.00 251.95,360.00 C257.50,360.00 259.82,361.59 260.98,366.21 C261.58,368.57 262.58,371.62 263.20,373.00 C264.29,375.43 264.35,375.38 265.11,371.24 C266.02,366.33 268.03,363.10 271.24,361.36 C272.98,360.42 273.16,360.03 272.00,359.66 C269.08,358.73 245.04,353.00 244.03,353.00 C243.37,353.00 243.00,358.61 243.00,368.63 L 243.00 384.27 L 245.02 381.71 C246.12,380.30 248.65,378.61 250.62,377.96 ZM 297.82 371.39 C300.94,368.85 303.63,366.44 303.79,366.03 C303.94,365.62 301.49,364.98 298.33,364.61 C295.17,364.24 291.53,363.67 290.25,363.35 L 287.91 362.76 L 290.07 366.90 C291.31,369.29 292.02,372.09 291.75,373.52 C291.49,374.88 291.47,376.00 291.71,376.00 C291.94,376.00 294.69,373.93 297.82,371.39 ZM 257.00 367.62 C257.00,365.41 254.13,363.47 252.80,364.80 C251.98,365.62 252.02,366.32 252.96,367.46 C254.55,369.37 257.00,369.47 257.00,367.62 ZM 537.63 814.48 C536.96,812.72 540.59,808.63 542.04,809.52 C543.38,810.35 543.24,813.36 541.80,814.80 C540.15,816.45 538.33,816.30 537.63,814.48 ZM 648.35 761.81 C647.88,761.09 647.35,754.80 647.15,747.84 L 646.80 735.17 L 637.84 741.73 L 628.87 748.28 L 632.57 752.07 C634.92,754.48 636.05,756.43 635.67,757.43 C634.64,760.11 632.63,759.20 627.05,753.55 C622.62,749.06 621.88,747.84 622.88,746.64 C623.55,745.83 628.62,741.87 634.15,737.84 L 644.21 730.50 L 634.85 726.25 C622.66,720.71 622.50,720.60 622.50,718.40 C622.50,715.29 625.48,715.66 635.21,720.03 C640.32,722.31 645.05,724.41 645.72,724.69 C646.65,725.07 647.01,721.37 647.22,709.36 L 647.50 693.52 L 650.23 692.22 C652.31,691.22 653.90,691.17 656.92,691.98 C662.37,693.45 665.00,697.05 665.00,703.06 C665.00,708.80 661.83,713.24 656.47,715.01 C653.28,716.06 653.00,716.48 653.00,720.13 C653.00,723.13 653.32,723.91 654.30,723.30 C655.02,722.86 659.98,719.42 665.33,715.65 C674.85,708.96 678.57,707.79 677.81,711.75 C677.63,712.71 672.58,716.98 666.60,721.24 L 655.72 728.98 L 659.11 730.40 C671.03,735.39 678.00,739.06 678.00,740.35 C678.00,741.79 670.68,751.78 668.57,753.23 C666.77,754.47 665.00,754.08 665.00,752.44 C665.00,751.58 666.43,749.11 668.17,746.94 C669.91,744.77 671.12,742.79 670.86,742.52 C670.59,742.26 666.58,740.29 661.94,738.14 L 653.50 734.25 L 653.00 748.36 C652.57,760.46 652.26,762.52 650.84,762.79 C649.93,762.97 648.81,762.52 648.35,761.81 ZM 657.55 708.55 C658.90,707.20 660.00,705.05 660.00,703.77 C660.00,700.60 657.31,697.00 654.94,697.00 C653.20,697.00 653.00,697.73 653.00,704.00 C653.00,711.67 653.71,712.38 657.55,708.55 ZM 579.20 750.80 C578.54,750.14 578.00,747.66 578.00,745.28 C578.00,741.06 577.94,740.98 575.25,741.68 C570.03,743.05 567.50,742.66 567.50,740.50 C567.50,738.99 568.72,738.10 572.50,736.85 C580.29,734.28 579.94,732.35 569.31,719.48 C557.01,704.58 557.39,705.18 559.13,703.44 C560.92,701.65 600.40,691.56 602.49,692.36 C603.32,692.68 604.00,693.32 604.00,693.78 C604.00,694.24 599.50,702.33 594.00,711.75 C588.50,721.18 584.00,730.01 584.00,731.37 C584.00,733.70 584.21,733.80 587.24,732.93 C591.94,731.58 593.98,731.78 594.69,733.64 C595.52,735.79 592.89,737.67 587.91,738.52 L 584.00 739.18 L 584.00 744.02 C584.00,747.08 583.42,749.43 582.43,750.43 C580.55,752.31 580.69,752.29 579.20,750.80 ZM 588.34 711.05 C591.97,704.76 594.77,699.44 594.56,699.23 C594.24,698.90 566.90,705.77 566.36,706.31 C566.25,706.42 569.36,710.45 573.26,715.27 C577.17,720.09 580.68,723.69 581.06,723.27 C581.44,722.84 584.72,717.35 588.34,711.05 ZM 703.09 715.61 C702.18,714.51 703.52,712.23 709.63,704.50 L 717.31 694.77 L 712.57 690.41 C709.95,688.01 708.01,685.48 708.24,684.77 C709.08,682.23 712.60,682.97 716.82,686.58 C719.17,688.59 721.21,690.07 721.36,689.87 C722.23,688.65 734.56,673.19 735.84,671.70 C737.32,669.99 737.09,669.94 730.70,670.59 C724.36,671.24 724.00,671.16 724.00,669.20 C724.00,666.46 724.14,666.40 735.53,663.89 C744.99,661.81 745.38,661.80 746.67,663.56 C748.63,666.24 748.51,683.33 746.51,684.99 C743.50,687.49 742.00,685.44 741.97,678.78 C741.93,672.67 741.89,672.56 740.22,674.65 C732.95,683.77 726.00,692.91 726.00,693.36 C726.00,693.65 728.12,695.89 730.71,698.34 C734.79,702.20 735.24,703.00 734.09,704.39 C732.21,706.66 731.69,706.49 726.46,701.96 L 721.79 697.92 L 714.30 707.46 C710.18,712.71 706.23,717.00 705.53,717.00 C704.82,717.00 703.73,716.38 703.09,715.61 ZM 632.50 667.39 C606.86,662.10 585.66,639.65 580.42,612.23 C573.12,574.08 591.66,532.96 625.15,512.99 C646.23,500.43 673.70,498.52 693.66,508.24 C704.49,513.50 709.07,518.61 704.53,520.35 C703.80,520.63 700.35,519.95 696.86,518.84 C687.95,516.02 675.60,516.08 667.00,518.98 C648.20,525.33 632.76,542.35 627.55,562.46 C625.58,570.02 625.56,584.88 627.49,592.30 C634.03,617.39 657.06,633.84 680.56,630.18 C696.84,627.65 708.33,620.18 721.66,603.46 C724.63,599.73 724.92,599.60 726.55,601.18 C728.21,602.78 728.18,603.22 726.04,609.87 C718.70,632.70 696.96,655.50 674.50,663.93 C661.20,668.91 645.96,670.17 632.50,667.39 ZM 663.29 659.05 C677.55,655.41 691.22,647.02 701.89,635.38 C705.26,631.70 707.83,628.49 707.59,628.26 C707.35,628.02 705.43,629.00 703.33,630.44 C701.22,631.87 695.90,634.20 691.50,635.61 C667.91,643.16 642.36,634.67 628.85,614.79 C614.40,593.50 614.37,562.72 628.79,540.00 C637.91,525.64 649.39,516.59 665.00,511.47 C672.10,509.14 670.18,508.58 659.57,509.88 C641.61,512.08 626.73,519.26 613.93,531.91 C584.11,561.38 577.89,607.84 599.86,637.00 C614.54,656.49 639.45,665.15 663.29,659.05 ZM 578.14 513.86 C577.69,512.63 577.49,510.07 577.70,508.18 L 578.08 504.73 L 573.79 505.51 C564.19,507.24 564.54,507.50 564.18,498.50 C563.66,485.67 564.93,471.96 566.70,471.29 C569.13,470.35 569.97,472.99 569.98,481.66 L 570.00 489.81 L 573.50 488.74 C576.64,487.77 577.00,487.30 577.02,484.08 C577.02,482.11 577.37,479.96 577.79,479.31 C579.03,477.35 594.02,473.62 595.34,474.94 C597.35,476.95 594.59,479.43 588.66,480.96 L 583.00 482.41 L 583.00 489.71 C583.00,493.72 583.34,496.99 583.75,496.98 C584.16,496.96 586.15,496.57 588.17,496.10 C593.12,494.95 594.00,496.10 594.00,503.72 C594.00,510.54 593.82,510.75 586.46,512.60 C584.42,513.11 584.00,512.85 584.00,511.08 C584.00,509.73 584.91,508.60 586.50,508.00 C588.28,507.32 589.00,506.30 589.00,504.46 C589.00,502.22 588.62,501.91 586.25,502.18 C583.65,502.48 583.48,502.81 583.20,508.24 C582.97,512.74 582.47,514.21 580.93,515.04 C579.30,515.91 578.83,515.71 578.14,513.86 ZM 577.40 497.15 C577.05,493.10 577.11,493.15 573.50,494.26 C570.60,495.15 570.00,495.81 570.00,498.12 C570.00,500.89 570.00,500.89 573.75,499.60 C575.81,498.88 577.46,497.78 577.40,497.15 ZM 702.67 487.33 C701.51,486.17 701.90,485.38 706.54,479.39 L 711.08 473.55 L 707.04 470.19 C704.82,468.34 703.00,466.15 703.00,465.31 C703.00,464.47 704.87,461.55 707.15,458.82 L 711.30 453.87 L 706.77 449.18 C699.69,441.87 702.62,439.10 710.56,445.60 L 714.96 449.21 L 717.73 445.88 C721.70,441.12 723.88,439.00 724.82,439.00 C725.27,439.00 727.47,440.57 729.71,442.48 L 733.78 445.97 L 738.47 440.48 C741.05,437.47 743.77,435.00 744.52,435.00 C747.57,435.00 746.95,437.44 742.44,443.18 L 737.68 449.24 L 741.84 453.08 C744.13,455.19 746.00,457.51 746.00,458.23 C746.00,458.95 744.15,461.77 741.90,464.50 L 737.79 469.47 L 742.56 473.60 C745.88,476.48 747.13,478.22 746.69,479.36 C745.70,481.93 743.34,481.31 738.90,477.29 L 734.80 473.58 L 730.31 478.79 C727.84,481.66 725.34,484.00 724.76,484.00 C724.18,484.00 721.72,482.37 719.30,480.39 C716.87,478.40 714.78,476.94 714.65,477.14 C714.51,477.34 712.47,479.86 710.11,482.75 C706.04,487.72 704.19,488.86 702.67,487.33 ZM 727.52 474.25 C730.60,470.74 730.58,470.04 727.33,467.45 L 724.66 465.32 L 721.83 468.54 C718.42,472.43 718.40,472.68 721.25,475.06 C724.22,477.54 724.67,477.48 727.52,474.25 ZM 718.40 459.59 L 715.50 457.02 L 712.18 460.75 L 708.87 464.49 L 711.58 466.83 L 714.30 469.16 L 717.80 465.66 L 721.30 462.16 L 718.40 459.59 ZM 736.11 463.75 C740.12,459.06 740.21,458.29 737.01,456.00 L 734.01 453.87 L 731.54 456.69 C728.48,460.16 728.45,460.79 731.17,463.69 C733.83,466.52 733.74,466.51 736.11,463.75 ZM 727.41 453.92 C730.66,450.07 730.64,449.59 727.19,447.14 L 724.39 445.14 L 721.59 448.65 L 718.79 452.15 L 721.07 454.58 C723.97,457.66 724.29,457.63 727.41,453.92 ZM 647.20 482.80 C646.49,482.09 646.00,478.64 646.00,474.30 C646.00,470.29 645.78,467.00 645.50,467.00 C645.23,467.00 639.76,468.11 633.36,469.47 C626.95,470.83 621.32,471.70 620.85,471.41 C619.45,470.54 619.78,469.33 625.00,456.22 C627.74,449.31 629.88,443.56 629.75,443.44 C629.61,443.32 626.90,443.70 623.72,444.28 C619.40,445.08 617.65,445.05 616.77,444.17 C614.72,442.12 618.14,440.00 625.45,438.79 C631.90,437.72 632.32,437.48 633.73,434.11 L 635.21 430.56 L 629.19 425.03 C622.13,418.55 620.08,415.29 622.51,414.36 C624.08,413.75 625.47,414.73 633.16,421.84 C637.41,425.77 636.76,426.42 642.00,413.00 C645.94,402.90 647.76,400.33 649.65,402.22 C650.36,402.93 652.88,407.51 655.26,412.40 L 659.57 421.28 L 665.55 412.89 C671.28,404.83 674.13,402.73 674.77,406.07 C674.94,406.93 672.15,411.77 668.57,416.83 C662.86,424.90 662.19,426.31 663.11,428.34 C664.16,430.64 664.21,430.65 671.31,429.31 C678.47,427.96 681.00,428.11 681.00,429.90 C681.00,432.08 677.67,433.90 672.50,434.54 C669.48,434.92 667.00,435.38 667.00,435.56 C667.00,435.74 669.47,440.93 672.50,447.09 C676.39,455.02 677.70,458.65 676.99,459.51 C676.43,460.18 672.05,461.50 667.24,462.43 C662.43,463.37 656.92,464.54 655.00,465.03 L 651.50 465.94 L 651.82 472.22 C652.14,478.34 650.89,484.00 649.22,484.00 C648.77,484.00 647.86,483.46 647.20,482.80 ZM 639.00 462.69 L 645.50 461.41 L 645.78 450.71 C646.09,439.01 646.24,439.24 640.00,440.99 C636.69,441.92 636.27,442.56 632.25,452.76 C629.91,458.69 628.00,463.88 628.00,464.29 C628.00,464.70 629.01,464.80 630.25,464.51 C631.49,464.21 635.42,463.40 639.00,462.69 ZM 662.00 457.94 C665.58,457.27 668.87,456.40 669.32,455.99 C669.78,455.59 668.07,451.11 665.52,446.05 L 660.90 436.84 L 656.70 437.54 C654.39,437.92 652.16,438.43 651.75,438.67 C651.34,438.92 651.00,443.87 651.00,449.67 C651.00,460.10 651.02,460.21 653.25,459.68 C654.49,459.39 658.42,458.60 662.00,457.94 ZM 649.93 433.58 C653.89,432.83 657.43,431.87 657.81,431.46 C658.19,431.04 657.49,430.95 656.25,431.26 C653.68,431.89 653.70,431.92 654.88,428.81 C655.57,426.99 654.96,424.88 652.06,419.12 L 648.36 411.76 L 645.08 420.45 C643.28,425.22 642.02,429.96 642.28,430.98 C642.60,432.20 642.13,432.99 640.88,433.32 C639.85,433.59 639.00,434.34 639.00,434.97 C639.00,435.65 639.78,435.89 640.86,435.54 C641.89,435.22 645.97,434.33 649.93,433.58 ZM 482.20 814.80 C480.79,813.39 480.61,810.36 481.90,809.56 C483.50,808.57 487.18,812.37 486.45,814.26 C485.68,816.28 483.91,816.51 482.20,814.80 ZM 366.06 748.08 C357.80,735.60 357.80,735.94 366.04,728.84 L 371.12 724.46 L 364.59 715.81 C361.00,711.05 357.62,706.88 357.07,706.55 C356.53,706.21 354.32,707.52 352.17,709.47 C347.91,713.32 345.30,713.93 344.30,711.33 C343.84,710.14 345.02,708.47 348.33,705.58 C350.91,703.33 353.01,701.24 353.01,700.92 C353.00,700.61 349.85,696.14 346.00,691.00 C342.15,685.86 339.00,681.04 339.00,680.30 C339.00,677.74 341.85,677.85 355.97,680.92 C363.74,682.62 370.52,684.00 371.05,684.00 C371.57,684.00 372.00,680.91 372.00,677.14 L 372.00 670.27 L 355.25 666.98 C346.04,665.17 337.49,663.32 336.25,662.87 C333.76,661.96 333.23,659.23 335.37,658.41 C336.13,658.12 344.57,659.42 354.12,661.30 L 371.50 664.72 L 371.79 657.20 C371.96,653.07 371.71,649.31 371.25,648.85 C370.38,647.98 342.42,642.16 314.00,636.94 C288.00,632.17 287.20,631.98 286.61,630.43 C286.28,629.57 293.50,617.66 304.31,601.24 C328.67,564.22 327.34,566.50 326.00,563.99 C325.38,562.85 318.82,552.49 311.42,540.99 C304.02,529.48 297.73,519.45 297.44,518.69 C295.96,514.84 299.40,515.07 325.53,520.55 C339.80,523.55 352.01,526.00 352.65,526.00 C353.29,526.00 357.97,519.81 363.04,512.25 C375.01,494.42 374.94,494.51 376.93,496.50 C377.79,497.36 382.59,506.70 387.59,517.27 L 396.69 536.47 L 400.59 537.36 C407.33,538.89 442.25,549.08 445.70,550.52 C447.52,551.28 448.99,552.48 448.98,553.20 C448.97,553.91 442.45,561.84 434.48,570.82 C423.01,583.75 420.19,587.49 420.90,588.82 C421.91,590.71 444.92,641.19 451.71,656.40 C457.98,670.45 458.32,670.32 433.69,663.54 C416.94,658.93 392.51,652.97 380.25,650.50 L 377.00 649.84 L 377.00 657.90 C377.00,665.44 377.15,666.00 379.25,666.48 C382.72,667.28 407.23,672.94 409.68,673.50 C412.38,674.12 415.21,676.84 414.45,678.08 C413.50,679.62 409.83,679.14 394.71,675.50 C386.72,673.58 379.45,672.00 378.55,672.00 C377.16,672.00 376.95,673.04 377.20,678.71 L 377.50 685.41 L 392.00 688.74 C399.97,690.57 407.13,692.70 407.90,693.47 C409.78,695.35 407.84,698.33 401.04,704.07 C398.27,706.40 396.00,708.76 396.00,709.30 C396.00,709.85 397.51,712.14 399.34,714.40 C403.55,719.56 405.26,722.76 404.49,724.02 C403.18,726.14 400.94,724.75 396.45,719.04 L 391.77 713.08 L 385.38 718.72 C381.87,721.82 379.00,724.87 379.00,725.50 C379.00,726.13 381.46,729.94 384.47,733.95 C388.55,739.41 389.71,741.67 389.04,742.88 C387.16,746.30 375.73,759.00 374.53,759.00 C373.84,759.00 370.03,754.09 366.06,748.08 ZM 381.18 743.73 L 383.17 740.96 L 378.75 735.02 L 374.34 729.08 L 370.02 733.48 L 365.69 737.89 L 369.99 744.48 L 374.29 751.08 L 376.74 748.79 C378.09,747.53 380.09,745.25 381.18,743.73 ZM 398.31 698.22 C400.11,696.22 400.02,696.18 389.24,693.60 C383.26,692.17 378.05,691.00 377.68,691.00 C377.31,691.00 377.00,697.12 377.00,704.61 L 377.00 718.22 L 386.75 709.22 C392.11,704.28 397.32,699.32 398.31,698.22 ZM 371.58 690.25 C370.88,689.55 349.63,685.04 349.17,685.49 C348.96,685.70 353.90,692.75 360.15,701.16 L 371.50 716.44 L 371.78 703.58 C371.94,696.51 371.85,690.51 371.58,690.25 ZM 430.32 646.00 C422.85,638.30 416.32,632.00 415.80,632.00 C415.28,632.00 412.98,633.29 410.68,634.87 C405.12,638.67 397.48,642.48 392.24,644.05 C389.90,644.75 388.11,645.44 388.26,645.59 C388.41,645.74 399.10,648.58 412.01,651.90 C424.93,655.23 436.85,658.37 438.50,658.89 C440.15,659.40 442.04,659.87 442.71,659.91 C443.37,659.96 437.80,653.70 430.32,646.00 ZM 435.23 633.05 C426.09,613.01 425.44,611.89 424.51,614.60 C423.96,616.20 422.29,619.97 420.78,623.00 L 418.05 628.50 L 431.22 641.72 C438.47,648.98 444.53,654.81 444.68,654.66 C444.83,654.51 440.58,644.78 435.23,633.05 ZM 398.35 636.88 C404.84,633.67 412.00,628.62 412.00,627.26 C412.00,625.85 405.15,608.86 404.15,607.81 C403.57,607.20 381.51,638.51 380.30,641.66 C379.69,643.24 392.20,639.93 398.35,636.88 ZM 352.34 634.18 C348.03,630.98 341.03,624.92 336.79,620.71 L 329.09 613.06 L 314.05 620.21 C305.78,624.13 299.24,627.57 299.51,627.85 C299.97,628.31 355.78,639.63 358.84,639.89 C359.57,639.95 356.65,637.38 352.34,634.18 ZM 363.48 629.75 C360.42,624.11 355.03,613.88 351.50,607.00 C347.97,600.12 344.68,593.89 344.18,593.15 C343.51,592.17 341.86,594.26 338.07,600.88 L 332.87 609.96 L 336.19 614.08 C340.42,619.35 353.64,630.56 361.91,635.88 C365.43,638.14 368.48,640.00 368.68,640.00 C368.88,640.00 366.54,635.39 363.48,629.75 ZM 365.97 619.96 C362.04,615.03 358.62,611.00 358.37,611.00 C358.12,611.00 359.00,612.91 360.32,615.25 C361.65,617.59 364.93,623.55 367.61,628.50 L 372.50 637.50 L 372.81 633.21 C373.10,629.22 372.64,628.32 365.97,619.96 ZM 385.86 625.25 C389.74,619.61 392.66,615.00 392.36,615.00 C392.05,615.00 388.47,617.98 384.40,621.62 C377.24,628.03 377.00,628.40 377.00,632.82 C377.00,638.26 376.79,638.44 385.86,625.25 ZM 312.30 616.03 L 326.91 609.05 L 324.88 604.46 C323.76,601.93 322.28,597.10 321.59,593.71 L 320.34 587.56 L 313.50 598.03 C309.74,603.79 304.51,611.76 301.88,615.75 C299.25,619.74 297.23,623.00 297.40,623.00 C297.56,623.00 304.27,619.86 312.30,616.03 ZM 418.89 616.57 C421.74,608.95 421.76,604.38 418.99,597.69 C417.68,594.54 416.32,592.08 415.95,592.23 C415.58,592.38 413.40,594.68 411.10,597.35 C406.41,602.81 406.37,601.92 411.75,614.75 C413.64,619.28 415.57,622.76 416.03,622.48 C416.49,622.19 417.78,619.53 418.89,616.57 ZM 398.46 603.07 C401.23,600.15 401.33,599.78 399.96,597.55 C399.16,596.24 396.70,593.73 394.50,591.98 L 390.50 588.80 L 383.75 595.99 L 377.00 603.19 L 377.00 612.63 L 377.00 622.07 L 386.25 614.14 C391.34,609.77 396.83,604.79 398.46,603.07 ZM 372.00 611.23 L 372.00 602.46 L 366.75 594.31 C363.86,589.83 361.03,585.39 360.46,584.44 C359.46,582.79 359.14,582.79 354.13,584.46 C351.23,585.42 348.62,586.83 348.33,587.59 C348.04,588.34 349.96,592.01 352.60,595.73 C357.65,602.83 371.14,620.00 371.68,620.00 C371.86,620.00 372.00,616.05 372.00,611.23 ZM 336.91 594.32 L 341.14 587.14 L 336.32 579.57 C333.67,575.41 331.27,572.00 331.00,572.00 C330.73,572.00 329.26,574.21 327.75,576.90 C325.90,580.19 325.00,583.25 325.00,586.22 C325.00,590.53 327.23,599.65 329.19,603.35 C330.36,605.54 330.18,605.74 336.91,594.32 ZM 384.98 585.67 C384.99,585.21 382.68,581.33 379.84,577.04 L 374.68 569.24 L 369.47 575.21 L 364.26 581.18 L 369.38 589.56 L 374.50 597.94 L 379.73 592.22 C382.60,589.07 384.96,586.13 384.98,585.67 ZM 412.09 587.27 C413.18,585.28 412.18,582.61 402.98,563.10 L 392.64 541.15 L 386.60 539.63 C383.27,538.80 380.42,538.24 380.26,538.41 C380.10,538.57 384.85,550.36 390.81,564.60 C396.78,578.85 402.25,591.97 402.96,593.77 L 404.26 597.04 L 407.56 593.27 C409.38,591.20 411.41,588.50 412.09,587.27 ZM 390.34 573.75 C386.77,565.36 382.42,555.12 380.67,551.00 L 377.50 543.50 L 377.21 553.36 L 376.92 563.22 L 383.19 573.22 C386.63,578.72 391.03,584.52 392.95,586.11 C394.88,587.70 396.54,589.00 396.64,589.00 C396.75,589.00 393.91,582.14 390.34,573.75 ZM 357.65 558.95 L 370.80 535.99 L 368.15 535.40 C366.69,535.07 363.92,534.40 362.00,533.91 C360.08,533.41 357.98,533.01 357.35,533.01 C355.90,533.00 334.38,565.82 334.83,567.36 C335.33,569.07 343.42,581.92 344.00,581.92 C344.27,581.92 350.42,571.58 357.65,558.95 ZM 355.13 579.84 C357.96,578.99 360.89,576.59 366.03,570.89 L 373.07 563.10 L 372.78 552.30 L 372.50 541.50 L 361.62 560.50 C355.64,570.95 350.55,579.84 350.31,580.25 C349.73,581.27 350.61,581.20 355.13,579.84 ZM 427.53 569.75 C440.80,554.53 440.38,555.05 439.84,554.50 C439.03,553.70 400.75,542.92 400.30,543.37 C399.94,543.72 417.03,581.00 417.55,581.00 C417.65,581.00 422.14,575.94 427.53,569.75 ZM 340.93 545.63 C345.97,538.01 349.97,531.66 349.80,531.53 C349.35,531.18 316.18,524.20 311.12,523.40 C308.42,522.97 306.88,523.07 307.12,523.67 C308.45,527.02 330.62,560.73 331.13,560.18 C331.47,559.81 335.88,553.26 340.93,545.63 ZM 383.82 522.25 C380.50,515.24 377.61,509.31 377.39,509.08 C377.18,508.85 377.00,513.87 377.00,520.23 L 377.00 531.78 L 382.75 533.29 C385.91,534.12 388.81,534.85 389.18,534.90 C389.55,534.96 387.14,529.26 383.82,522.25 ZM 373.00 519.30 C373.00,513.23 372.63,509.01 372.14,509.55 C371.32,510.44 362.17,524.11 360.66,526.69 C360.19,527.48 361.37,528.19 364.23,528.83 C373.45,530.89 373.00,531.39 373.00,519.30 ZM 442.36 741.55 C437.02,739.23 430.84,732.82 427.84,726.50 C424.21,718.82 424.00,711.38 427.25,705.02 C430.28,699.09 433.74,696.77 440.37,696.22 C449.58,695.46 458.49,701.43 464.18,712.20 C467.31,718.12 467.44,729.89 464.44,735.00 C460.38,741.92 450.17,744.95 442.36,741.55 ZM 455.22 736.95 C462.55,733.60 464.66,720.82 459.30,712.20 C449.72,696.80 432.34,696.99 429.43,712.53 C428.05,719.87 434.01,731.60 441.42,736.11 C444.82,738.19 451.60,738.59 455.22,736.95 ZM 297.34 709.80 C296.88,709.09 296.27,704.53 296.00,699.67 L 295.50 690.85 L 289.23 695.89 C283.21,700.72 280.00,701.60 280.00,698.39 C280.00,697.63 282.71,694.89 286.02,692.32 C289.33,689.75 291.70,687.35 291.27,686.98 C290.85,686.62 287.88,685.76 284.69,685.07 C278.92,683.84 276.72,681.88 278.79,679.81 C279.52,679.08 282.14,679.28 287.50,680.47 C291.71,681.41 295.38,681.95 295.65,681.68 C296.04,681.29 296.83,670.92 296.97,664.25 C296.99,663.56 297.88,663.00 298.95,663.00 C301.08,663.00 301.79,665.45 302.25,674.37 L 302.50 679.24 L 308.20 674.54 C313.64,670.06 316.87,669.09 317.73,671.69 C317.95,672.34 315.21,675.27 311.63,678.19 C304.50,684.03 304.54,684.21 313.34,685.53 C318.45,686.29 321.04,688.36 319.19,690.21 C318.36,691.04 316.18,690.99 310.78,690.02 C306.78,689.30 303.05,688.66 302.50,688.60 C301.92,688.54 301.29,693.03 301.00,699.42 C300.52,709.97 299.43,713.04 297.34,709.80 ZM 311.96 706.46 C311.12,705.44 311.02,704.58 311.68,703.92 C313.13,702.47 316.00,703.92 316.00,706.11 C316.00,708.39 313.73,708.59 311.96,706.46 ZM 282.44 666.90 C282.07,666.30 282.43,665.14 283.24,664.33 C284.54,663.03 284.91,663.05 286.37,664.51 C287.27,665.42 287.76,666.57 287.45,667.08 C286.66,668.35 283.26,668.23 282.44,666.90 ZM 467.69 626.35 C467.31,625.98 467.00,621.48 467.00,616.37 C467.00,608.20 466.77,606.94 465.07,606.04 C461.40,604.08 461.00,604.77 461.00,613.00 C461.00,620.71 460.92,621.00 458.67,621.00 C455.22,621.00 447.33,615.36 444.18,610.64 C439.94,604.29 439.00,601.43 439.00,594.82 C439.00,584.55 444.07,579.00 453.45,579.00 C460.57,579.00 461.91,580.98 461.43,590.80 L 461.05 598.77 L 465.91 600.86 C471.48,603.26 472.03,604.23 471.91,611.33 C471.72,622.77 470.05,628.71 467.69,626.35 ZM 456.00 610.00 C456.00,607.25 456.06,604.67 456.13,604.27 C456.20,603.86 454.96,602.81 453.38,601.93 C451.80,601.06 450.35,599.55 450.16,598.58 C449.88,597.15 450.42,596.89 453.16,597.17 L 456.50 597.50 L 456.80 590.75 L 457.09 584.00 L 453.68 584.00 C442.09,584.00 439.83,600.83 450.04,611.04 C452.22,613.22 454.45,615.00 455.00,615.00 C455.55,615.00 456.00,612.75 456.00,610.00 ZM 278.86 580.20 C275.21,578.30 273.40,576.70 273.18,575.20 C272.80,572.58 274.53,572.35 278.64,574.49 L 281.50 575.98 L 281.81 570.88 C282.02,567.32 281.64,565.26 280.56,564.06 C278.62,561.92 278.55,558.62 280.41,557.08 C281.18,556.44 281.97,553.63 282.16,550.85 L 282.50 545.80 L 278.27 546.27 C270.12,547.19 270.75,541.89 278.96,540.51 C285.91,539.33 292.84,541.72 298.84,547.36 C310.30,558.14 309.15,575.39 296.58,581.10 C290.68,583.78 285.19,583.50 278.86,580.20 ZM 297.17 574.34 C304.47,567.34 301.84,553.65 292.16,548.21 C290.00,547.00 287.95,546.00 287.61,546.00 C286.23,546.00 287.03,556.78 288.50,558.00 C289.33,558.68 290.00,560.26 290.00,561.50 C290.00,562.74 289.33,564.32 288.50,565.00 C287.47,565.85 287.00,568.13 287.00,572.25 L 287.00 578.26 L 290.66 577.67 C292.67,577.34 295.60,575.84 297.17,574.34 ZM 460.20 526.80 C459.54,526.14 459.00,524.75 459.00,523.70 C459.00,520.52 455.13,516.00 452.40,516.00 C438.57,516.00 425.53,494.22 431.64,481.34 C435.18,473.90 444.73,470.19 452.28,473.34 C456.92,475.28 456.98,476.52 452.52,477.99 C446.34,480.03 442.99,486.80 444.41,494.36 C445.38,499.52 450.35,506.15 456.02,509.84 C458.96,511.75 460.94,513.71 460.66,514.44 C460.39,515.14 461.26,517.62 462.59,519.96 C465.41,524.92 465.59,526.56 463.42,527.39 C461.40,528.17 461.60,528.20 460.20,526.80 ZM 447.03 507.75 C438.72,499.32 437.01,486.08 443.34,479.13 L 445.50 476.75 L 443.00 477.48 C431.31,480.88 432.09,499.26 444.29,508.10 C449.62,511.96 451.01,511.78 447.03,507.75 ZM 300.08 491.60 C299.43,490.81 299.05,487.90 299.21,484.94 L 299.50 479.67 L 291.82 477.97 C282.11,475.82 281.00,475.38 281.00,473.68 C281.00,472.92 285.27,468.61 290.50,464.10 C300.64,455.36 302.15,452.52 297.25,451.42 C295.74,451.08 292.92,450.40 291.00,449.91 C284.68,448.29 284.00,448.58 284.00,452.94 C284.00,457.18 283.10,458.36 280.59,457.40 C279.27,456.89 279.00,454.90 279.00,445.52 C279.00,437.38 279.37,433.94 280.32,433.15 C282.41,431.41 284.00,433.80 284.00,438.68 C284.00,442.54 284.27,443.02 286.75,443.58 C288.26,443.92 291.08,444.60 293.00,445.09 C299.64,446.79 300.00,446.57 300.00,440.62 C300.00,437.29 300.52,434.81 301.37,434.11 C303.55,432.30 304.85,434.83 305.19,441.53 L 305.50 447.49 L 310.50 448.65 C313.25,449.29 316.74,449.85 318.25,449.90 C320.85,449.99 321.00,449.76 321.00,445.56 C321.00,440.59 322.10,439.21 324.13,441.65 C326.00,443.91 326.04,463.36 324.18,465.20 C322.35,467.01 320.00,463.72 320.00,459.35 C320.00,455.85 318.89,455.27 308.75,453.45 C305.47,452.86 305.00,453.02 305.00,454.72 C305.00,455.79 308.87,461.58 313.59,467.58 C318.32,473.59 322.64,479.34 323.19,480.36 C324.92,483.58 322.82,484.15 315.11,482.52 C304.74,480.34 305.00,480.26 305.00,485.80 C305.00,491.98 302.67,494.72 300.08,491.60 ZM 310.94 471.79 C308.57,468.88 306.24,466.05 305.76,465.50 C305.25,464.92 305.01,466.79 305.19,469.96 L 305.50 475.41 L 310.00 476.55 C312.48,477.17 314.67,477.54 314.88,477.38 C315.08,477.21 313.31,474.70 310.94,471.79 ZM 300.00 468.44 C300.00,463.23 299.88,462.97 298.15,464.19 C295.37,466.16 289.00,471.87 289.00,472.40 C289.00,472.92 293.00,473.62 297.25,473.85 C299.94,474.00 300.00,473.87 300.00,468.44 ZM 373.60 477.72 C372.83,476.50 370.46,472.03 368.35,467.78 L 364.50 460.06 L 359.00 464.99 C348.96,473.98 346.28,470.12 355.93,460.57 L 361.86 454.70 L 353.36 437.72 C345.16,421.34 344.16,417.70 348.32,419.29 C349.12,419.60 353.32,426.63 357.64,434.92 C361.96,443.21 365.73,449.97 366.00,449.95 C366.27,449.93 368.03,448.61 369.89,447.02 L 373.28 444.12 L 367.64 435.41 C364.54,430.62 362.00,426.15 362.00,425.48 C362.00,422.96 375.47,407.00 377.60,407.00 C378.52,407.00 386.59,419.95 392.79,431.37 C393.05,431.84 390.25,435.07 386.57,438.54 L 379.88 444.85 L 383.19 449.90 C385.01,452.69 386.73,454.95 387.00,454.93 C387.27,454.92 391.10,449.64 395.50,443.21 C403.29,431.83 406.35,429.13 407.64,432.50 C408.05,433.58 405.34,438.49 399.63,446.97 C394.89,454.03 391.00,460.07 391.00,460.41 C391.00,460.75 393.52,464.81 396.60,469.44 C401.92,477.44 402.63,480.00 399.49,480.00 C398.16,480.00 397.07,478.72 390.27,469.19 L 387.20 464.88 L 382.35 471.90 C379.68,475.76 376.94,479.14 376.25,479.42 C375.57,479.71 374.37,478.94 373.60,477.72 ZM 380.37 464.61 L 383.84 459.73 L 380.28 454.36 C378.32,451.41 376.46,449.00 376.16,449.00 C374.98,449.00 369.00,455.46 369.00,456.72 C369.00,458.91 375.02,470.16 376.00,469.82 C376.50,469.64 378.47,467.30 380.37,464.61 ZM 381.21 435.98 C386.60,431.54 386.66,430.20 381.79,422.11 C379.44,418.20 377.23,415.00 376.88,415.00 C376.53,415.00 374.33,417.47 372.00,420.50 L 367.76 425.99 L 372.00 432.50 C374.33,436.07 376.53,439.00 376.89,439.00 C377.25,439.00 379.19,437.64 381.21,435.98 ZM 440.94 728.30 C437.45,725.36 435.00,720.52 435.00,716.55 C435.00,713.82 439.57,708.20 442.00,707.93 C447.85,707.28 454.02,711.51 456.02,717.55 C459.50,728.11 449.33,735.35 440.94,728.30 ZM 451.23 724.57 C452.49,722.75 452.08,718.04 450.45,715.56 C447.07,710.41 440.00,711.60 440.00,717.31 C440.00,724.31 447.91,729.42 451.23,724.57 Z" fill="rgba(0,0,0,1)"/>
</g>
</svg>