<svg xmlns="http://www.w3.org/2000/svg" width="1024" height="1024" viewBox="0 0 1024 1024">
<g>
<path d="M 225.75 856.92 C224.79,856.36 224.00,854.79 224.00,853.44 C224.00,848.48 254.80,799.31 266.33,785.85 C279.09,770.96 287.12,765.09 317.17,748.64 C327.00,743.26 337.58,735.07 355.50,718.96 C377.55,699.14 386.18,690.31 396.03,677.50 C408.13,661.76 417.53,652.25 433.63,639.41 C447.60,628.28 450.20,625.66 461.92,611.00 C467.19,604.40 467.71,603.38 466.21,602.50 C465.28,601.95 462.63,599.69 460.34,597.47 C455.81,593.09 454.30,588.53 455.42,582.60 C456.21,578.36 462.54,570.28 468.06,566.46 C473.11,562.96 472.01,562.37 464.14,564.38 C449.22,568.21 431.59,580.12 414.19,598.16 C402.15,610.64 396.26,615.44 384.00,622.76 C368.01,632.32 352.44,637.00 336.61,637.00 C325.95,637.00 322.65,634.60 326.36,629.52 C327.48,627.99 329.70,627.53 338.94,626.92 C345.11,626.51 350.37,625.96 350.63,625.70 C350.89,625.44 349.51,623.49 347.56,621.36 C337.99,610.93 331.00,588.67 331.00,568.63 C331.00,562.12 331.78,557.85 334.97,546.99 C337.15,539.54 340.29,527.02 341.93,519.15 C345.13,503.92 345.10,503.98 360.00,475.54 C364.60,466.76 370.53,454.64 373.17,448.62 C375.81,442.60 378.99,436.17 380.23,434.34 C381.48,432.51 388.35,426.56 395.50,421.13 C402.65,415.69 412.77,407.55 418.00,403.05 C423.23,398.55 430.42,393.27 434.00,391.32 C455.03,379.84 470.05,366.82 473.81,356.81 C474.90,353.89 475.70,351.40 475.59,351.27 C475.47,351.15 471.36,353.08 466.44,355.57 C455.10,361.30 449.07,362.18 442.61,359.05 L 438.05 356.84 L 426.77 362.33 C420.57,365.34 406.50,373.18 395.50,379.75 C384.50,386.32 372.58,393.30 369.00,395.26 C354.47,403.25 350.34,407.93 332.69,436.45 C305.56,480.30 300.23,487.85 287.66,500.24 C283.28,504.57 281.11,506.00 278.95,506.00 C276.19,506.00 274.00,503.78 274.00,500.99 C274.00,500.37 277.51,496.17 281.80,491.68 C292.06,480.93 295.49,476.22 310.03,453.00 L 322.23 433.50 L 328.51 409.46 C331.97,396.24 335.46,383.86 336.27,381.96 C337.08,380.06 342.14,372.88 347.52,366.00 C352.90,359.12 361.72,346.86 367.11,338.75 C372.51,330.64 379.82,320.45 383.36,316.10 C395.92,300.67 402.60,289.17 405.53,277.92 C407.12,271.83 407.11,262.60 405.50,260.01 C405.15,259.43 402.72,262.24 400.11,266.24 C392.49,277.91 384.14,284.00 375.76,284.00 C373.76,284.00 371.18,286.56 362.92,296.75 C348.85,314.10 332.30,333.28 320.01,346.50 C301.50,366.40 302.02,365.30 287.48,414.96 C275.15,457.05 269.96,468.91 252.28,495.32 C245.96,504.77 239.28,515.48 237.45,519.11 C233.90,526.14 227.73,545.91 215.62,589.00 C199.58,646.07 187.19,683.72 179.31,699.38 C173.02,711.87 163.25,726.27 138.71,759.22 C131.04,769.52 123.93,778.20 122.92,778.53 C120.47,779.30 117.30,777.51 116.46,774.88 C115.99,773.39 116.64,771.60 118.64,768.85 C120.22,766.69 127.56,756.73 134.98,746.71 C154.77,719.97 164.67,704.89 170.76,692.25 C178.09,677.02 189.24,642.67 207.02,580.50 C215.20,551.90 222.82,525.84 223.95,522.59 C225.08,519.34 226.00,514.37 226.00,511.54 C226.00,505.05 222.86,479.49 218.87,453.50 C215.33,430.40 215.35,429.90 220.86,404.50 C224.94,385.64 226.07,378.43 228.52,355.66 C231.60,326.85 234.83,320.82 243.59,327.50 C245.39,328.88 247.36,330.00 247.95,330.00 C248.55,330.00 250.80,331.16 252.94,332.58 C260.22,337.40 264.43,346.40 265.77,359.97 L 266.50 367.43 L 278.67 343.47 C292.10,317.00 297.22,305.83 306.17,283.50 C312.70,267.20 319.67,253.05 323.24,248.84 C327.63,243.66 329.34,244.07 337.11,252.17 C340.98,256.20 345.28,261.89 346.67,264.80 C349.94,271.66 350.80,282.95 348.74,291.75 C347.93,295.19 347.45,298.00 347.68,298.00 C349.02,298.00 365.48,276.63 376.57,260.51 C380.34,255.02 386.65,247.25 390.58,243.26 C396.37,237.38 398.30,236.00 400.79,236.00 C404.49,236.00 406.44,237.78 408.04,242.63 C408.70,244.63 410.32,247.85 411.63,249.78 C418.91,260.51 418.66,277.36 410.99,293.50 C407.38,301.08 398.71,314.07 390.71,323.85 C387.31,328.01 380.22,337.96 374.94,345.96 C369.67,353.96 361.63,365.17 357.07,370.88 C352.51,376.58 347.97,382.66 346.98,384.38 C345.46,387.01 341.00,401.14 341.00,403.31 C341.00,403.69 343.60,401.41 346.78,398.25 C350.86,394.18 356.94,390.02 367.53,384.04 C375.76,379.39 388.35,372.03 395.50,367.70 C402.65,363.37 412.77,357.78 418.00,355.29 C423.23,352.79 435.04,346.71 444.26,341.76 C476.20,324.62 489.38,322.62 487.62,335.20 C487.29,337.57 486.62,343.56 486.14,348.52 C484.31,367.47 472.57,381.11 443.97,397.56 C437.30,401.39 428.47,407.54 424.21,411.30 C419.97,415.04 410.37,422.81 402.88,428.56 L 389.25 439.01 L 384.41 449.76 C381.75,455.67 375.98,467.48 371.60,476.00 C354.60,509.03 355.09,507.88 352.48,520.50 C351.12,527.10 348.37,538.12 346.37,545.00 C341.02,563.40 340.64,566.12 341.87,577.06 C343.83,594.42 350.35,610.38 358.60,617.99 L 362.99 622.03 L 370.24 618.41 C383.71,611.68 393.13,604.52 408.58,589.25 C430.55,567.55 442.05,560.21 464.74,553.44 C465.60,553.18 465.23,551.95 463.52,549.43 C457.14,540.03 459.87,528.32 471.48,515.42 L 476.80 509.50 L 479.90 512.44 C481.61,514.05 483.00,515.76 483.00,516.23 C483.00,516.70 480.86,519.66 478.25,522.80 C469.06,533.87 467.68,542.00 474.30,546.04 C482.13,550.81 487.32,547.91 508.65,526.79 L 526.00 509.62 L 529.00 512.50 C530.65,514.08 532.00,515.86 532.00,516.45 C532.00,517.67 499.75,549.90 496.16,552.27 L 493.81 553.82 L 497.43 555.53 C505.51,559.37 507.87,568.70 503.16,578.25 C501.87,580.86 495.84,588.29 489.76,594.75 C483.67,601.21 473.47,613.02 467.10,620.99 C457.16,633.42 453.75,636.85 443.25,645.02 C427.40,657.35 417.48,667.22 403.56,684.50 C389.08,702.49 387.67,703.96 368.00,721.67 C338.48,748.25 335.65,750.39 314.17,762.18 C294.64,772.91 292.15,774.69 280.39,786.42 C269.45,797.32 262.02,807.80 244.54,837.00 C231.63,858.57 230.55,859.72 225.75,856.92 ZM 479.10 591.25 C494.36,575.42 497.83,569.68 494.44,565.94 C490.00,561.03 477.32,565.79 467.54,576.04 C462.63,581.19 462.00,582.33 462.00,586.03 C462.00,589.44 462.62,590.82 465.40,593.60 C470.26,598.46 472.53,598.07 479.10,591.25 ZM 240.00 472.00 C241.64,464.02 244.56,445.74 246.49,431.37 C248.51,416.30 251.09,401.48 252.57,396.37 C254.98,388.07 255.12,386.37 254.82,370.00 C254.53,354.04 254.29,352.08 252.16,347.75 C249.90,343.16 247.26,341.09 248.45,344.85 C249.37,347.74 247.19,360.70 245.10,364.80 C244.06,366.83 241.88,369.68 240.26,371.12 C237.78,373.32 237.12,374.97 236.08,381.62 C235.40,385.95 233.08,397.87 230.92,408.09 C228.76,418.32 227.00,429.20 227.00,432.26 C227.00,435.33 228.80,449.78 231.00,464.38 C233.20,478.97 235.04,491.27 235.09,491.71 C235.27,493.39 237.14,485.90 240.00,472.00 ZM 261.11 459.33 C265.97,448.89 273.13,427.37 281.03,399.52 C291.11,363.97 293.24,360.03 315.90,335.19 C323.08,327.33 329.21,320.48 329.52,319.97 C329.83,319.47 332.14,312.41 334.66,304.28 C340.01,286.99 340.89,276.62 337.61,269.50 L 335.77 265.50 L 333.39 273.13 C329.57,285.39 321.72,295.00 315.52,295.00 C313.68,295.00 312.42,297.08 307.51,308.25 C300.43,324.32 289.26,346.89 275.46,373.00 C269.79,383.73 264.20,395.33 263.05,398.79 C261.90,402.25 259.59,414.85 257.93,426.79 C256.27,438.73 253.81,455.09 252.46,463.14 C251.11,471.19 250.00,478.16 250.00,478.64 C250.01,480.21 257.24,467.63 261.11,459.33 ZM 241.81 348.75 C242.05,343.94 242.01,340.00 241.71,340.00 C241.16,340.00 239.52,349.73 238.59,358.50 L 238.06 363.50 L 239.72 360.50 C240.76,358.60 241.53,354.28 241.81,348.75 ZM 462.41 350.43 C467.92,347.72 478.59,339.25 477.67,338.33 C476.35,337.02 446.00,351.38 446.00,353.32 C446.00,355.17 456.58,353.31 462.41,350.43 ZM 322.58 281.45 C326.93,274.02 331.28,257.32 328.01,260.59 C326.96,261.64 317.75,281.91 316.53,285.84 C315.88,287.95 316.00,288.07 317.87,287.07 C319.01,286.46 321.13,283.93 322.58,281.45 ZM 384.90 273.96 C391.12,269.45 400.70,253.76 399.84,249.48 C399.45,247.57 392.54,255.67 384.11,267.93 C377.17,278.02 377.35,279.42 384.90,273.96 ZM 791.75 856.25 C790.90,855.29 785.60,846.85 779.99,837.50 C761.73,807.08 755.56,798.46 743.05,785.93 C731.40,774.26 723.81,768.86 708.00,760.99 C693.46,753.76 685.15,747.57 662.50,727.14 C638.85,705.80 633.14,700.01 621.46,685.50 C610.66,672.08 597.11,657.87 588.40,650.82 C586.15,648.99 580.81,644.80 576.54,641.50 C571.04,637.25 565.45,631.36 557.37,621.27 C551.09,613.44 541.39,602.19 535.81,596.27 C520.59,580.11 516.81,573.12 518.98,565.09 C520.07,561.01 525.82,555.00 528.62,555.00 C530.96,555.00 530.02,553.72 524.10,548.90 C521.14,546.48 518.06,543.51 517.26,542.30 C515.94,540.28 516.04,539.87 518.36,537.55 C519.76,536.15 521.49,535.01 522.20,535.01 C522.92,535.02 526.40,537.49 529.93,540.50 C533.47,543.50 537.89,546.47 539.75,547.08 C546.89,549.44 554.00,545.32 554.00,538.83 C554.00,532.70 549.07,525.85 532.86,509.44 C524.14,500.60 517.00,492.69 517.00,491.86 C517.00,490.18 521.04,486.00 522.66,486.00 C523.23,486.00 531.13,493.44 540.23,502.54 C551.90,514.22 557.67,520.78 559.84,524.85 C565.02,534.57 565.23,542.44 560.48,549.43 C558.79,551.93 558.40,553.17 559.26,553.41 C580.43,559.16 592.67,566.96 615.96,589.52 C625.06,598.33 635.65,607.62 639.50,610.16 C648.16,615.86 658.30,621.00 660.89,621.00 C663.57,621.00 671.43,611.83 675.04,604.50 C679.02,596.41 681.95,584.40 682.61,573.50 C683.05,566.22 682.76,563.07 681.06,557.00 C678.78,548.85 673.45,527.64 670.20,513.82 C668.58,506.90 666.38,501.91 659.40,489.32 C654.58,480.62 647.21,465.85 643.02,456.50 L 635.40 439.50 L 621.45 428.71 C613.78,422.78 604.23,414.98 600.22,411.38 C596.22,407.77 587.96,401.94 581.86,398.42 C568.31,390.59 559.65,384.48 553.26,378.24 C543.65,368.84 538.00,357.77 538.00,348.34 C538.00,345.74 537.47,341.05 536.82,337.91 C535.79,332.92 535.86,331.87 537.34,329.60 C538.70,327.53 539.85,327.00 543.00,327.00 C548.51,327.00 558.07,330.33 569.12,336.09 C574.28,338.78 586.57,345.08 596.43,350.08 C606.29,355.09 622.49,364.03 632.43,369.96 C642.37,375.88 655.61,383.58 661.85,387.08 C670.14,391.73 674.66,395.03 678.64,399.33 C684.77,405.95 684.77,405.97 680.38,392.00 C678.36,385.59 676.48,382.53 667.49,371.00 C661.70,363.58 653.93,352.86 650.23,347.19 C643.46,336.81 641.38,333.94 627.22,315.34 C614.08,298.09 607.00,281.83 607.00,268.93 C607.00,263.34 609.91,253.37 612.71,249.34 C613.80,247.78 615.22,244.95 615.86,243.06 C620.69,228.84 630.63,235.22 651.58,266.00 C659.42,277.53 673.99,296.26 676.16,297.60 C676.98,298.11 677.09,297.62 676.55,295.91 C676.12,294.58 675.55,288.67 675.28,282.78 C674.63,268.79 676.23,263.91 684.22,255.51 C687.37,252.21 690.52,248.76 691.22,247.85 C697.18,240.18 705.13,250.52 717.51,282.00 C720.65,289.98 726.35,303.48 730.20,312.00 C737.47,328.14 757.11,366.95 758.02,366.98 C758.31,366.99 758.67,363.96 758.83,360.25 C759.47,344.76 764.94,335.23 776.20,330.01 C778.78,328.81 781.43,327.19 782.07,326.41 C783.69,324.46 787.37,324.64 789.30,326.78 C791.83,329.57 793.91,339.08 796.01,357.50 C798.74,381.39 800.14,389.79 805.44,414.33 C808.39,427.96 808.59,434.14 806.49,446.00 C804.07,459.64 800.02,490.46 798.98,503.24 C798.04,514.78 798.08,515.23 800.92,524.26 C805.40,538.50 808.20,548.12 816.98,579.50 C837.70,653.55 848.34,684.59 859.46,703.47 C865.96,714.49 878.06,731.86 895.14,754.70 C902.21,764.16 908.00,772.79 908.00,773.88 C908.00,774.97 907.29,776.56 906.43,777.43 C902.47,781.38 900.18,779.19 880.42,752.50 C864.85,731.48 851.45,711.42 846.35,701.50 C837.24,683.77 826.30,651.22 810.05,593.50 C789.47,520.40 789.35,520.09 774.18,498.23 C755.09,470.69 749.91,459.17 737.07,415.50 C722.62,366.38 722.74,366.64 704.78,346.96 C690.11,330.89 670.02,307.48 659.50,294.21 C652.10,284.87 651.23,284.11 647.95,284.06 C639.65,283.93 630.93,277.10 623.26,264.71 C618.93,257.72 618.03,258.46 618.04,269.00 C618.05,282.79 623.36,293.54 641.89,317.32 C647.39,324.36 653.10,332.24 654.59,334.82 C658.66,341.86 666.78,353.22 676.48,365.45 C681.26,371.48 686.03,378.10 687.09,380.18 C688.15,382.26 691.99,395.08 695.62,408.67 C702.88,435.89 701.75,433.43 720.27,462.50 C729.75,477.39 736.72,486.41 744.93,494.46 C748.03,497.49 750.00,500.29 750.00,501.66 C750.00,503.71 746.73,507.00 744.68,507.00 C743.27,507.00 730.20,494.01 725.06,487.50 C717.81,478.30 712.53,470.34 698.54,447.50 C674.33,407.98 670.43,403.37 653.41,394.12 C647.96,391.16 635.67,384.01 626.10,378.24 C616.52,372.46 603.59,365.28 597.35,362.28 L 586.00 356.82 L 581.68 358.91 C579.31,360.06 576.01,361.00 574.34,361.00 C570.13,361.00 560.43,357.54 554.68,353.98 C552.03,352.34 549.47,351.00 548.98,351.00 C547.60,351.00 550.59,358.54 553.84,363.26 C559.85,372.00 570.81,380.57 587.46,389.57 C592.39,392.23 599.52,397.13 603.29,400.46 C612.04,408.15 616.87,412.05 630.65,422.53 C643.35,432.18 645.48,435.03 652.40,451.50 C654.94,457.55 659.95,467.90 663.53,474.50 C677.02,499.40 678.82,503.66 682.04,518.47 C683.72,526.16 686.87,538.61 689.04,546.15 C692.40,557.76 693.00,561.27 692.99,569.17 C692.98,589.76 687.77,606.80 677.43,620.13 L 673.06 625.76 L 676.15 626.38 C677.86,626.72 682.74,627.00 687.01,627.00 C693.15,627.00 695.27,627.40 697.12,628.90 C699.13,630.53 699.32,631.19 698.46,633.65 C697.46,636.49 697.43,636.50 687.72,636.79 C674.13,637.19 663.76,634.60 648.50,627.01 C633.80,619.70 621.40,610.46 610.84,598.94 C593.31,579.83 571.84,565.96 556.00,563.52 C551.50,562.83 551.50,562.83 554.00,564.57 C558.67,567.81 563.25,572.49 566.13,576.95 C571.95,585.96 568.82,596.38 558.44,602.56 C556.83,603.51 557.18,604.28 562.04,610.56 C572.81,624.47 577.41,629.15 589.83,638.85 C604.86,650.58 616.73,662.69 630.88,680.73 C639.30,691.46 645.51,697.84 663.76,714.46 C688.45,736.96 696.12,742.63 718.50,754.96 C748.71,771.61 760.09,784.12 789.37,832.86 C795.77,843.51 801.00,852.77 801.00,853.45 C801.00,855.30 797.63,858.00 795.33,858.00 C794.22,858.00 792.61,857.21 791.75,856.25 ZM 558.54 593.66 C563.08,589.12 563.86,585.54 561.29,581.05 C558.87,576.81 549.40,568.88 543.36,566.04 C538.54,563.77 532.04,563.36 530.20,565.20 C528.35,567.05 528.78,571.12 531.26,575.20 C534.85,581.13 550.78,597.00 553.13,597.00 C554.27,597.00 556.70,595.50 558.54,593.66 ZM 790.79 480.75 C791.46,475.11 793.13,463.33 794.50,454.57 C797.66,434.42 797.65,426.43 794.46,412.50 C793.08,406.45 790.84,395.23 789.48,387.56 C787.07,373.93 786.93,373.54 783.11,369.87 C778.40,365.35 776.14,359.09 775.82,349.75 C775.69,346.04 775.29,343.00 774.92,343.00 C774.55,343.00 773.20,345.36 771.92,348.25 C769.89,352.84 769.54,355.47 769.19,369.09 C768.82,383.85 768.96,385.32 771.82,396.59 C773.49,403.14 775.81,415.92 776.97,425.00 C780.66,453.65 787.42,491.00 788.92,491.00 C789.28,491.00 790.12,486.39 790.79,480.75 ZM 771.43 458.50 C769.59,447.50 767.15,431.32 766.00,422.54 C763.36,402.39 761.05,395.53 750.06,375.00 C737.66,351.86 728.96,334.39 719.46,313.52 C711.75,296.59 711.09,295.50 708.15,294.90 C700.93,293.42 694.25,284.60 690.43,271.50 L 688.68 265.50 L 686.80 269.50 C683.76,275.97 684.85,288.31 689.94,304.93 C692.21,312.32 694.59,319.07 695.24,319.93 C697.69,323.16 707.18,334.00 715.10,342.60 C724.89,353.25 731.20,362.64 734.55,371.52 C735.90,375.13 739.97,388.30 743.58,400.79 C753.40,434.70 757.67,447.34 763.43,459.50 C768.49,470.18 773.83,479.54 774.45,478.84 C774.62,478.66 773.26,469.50 771.43,458.50 ZM 785.09 352.42 C783.57,339.51 781.69,336.44 782.38,348.00 C782.87,356.02 784.63,363.70 785.73,362.60 C786.01,362.33 785.72,357.74 785.09,352.42 ZM 578.00 353.10 C578.00,351.28 547.60,337.06 546.36,338.31 C545.37,339.29 555.72,347.22 562.28,350.50 C569.03,353.88 578.00,355.36 578.00,353.10 ZM 705.44 279.84 C701.48,270.43 695.95,259.72 695.35,260.32 C694.37,261.29 697.19,272.47 699.67,277.50 C702.31,282.84 707.26,288.72 707.79,287.14 C707.96,286.62 706.90,283.33 705.44,279.84 ZM 644.48 274.25 C640.68,268.29 631.81,256.27 628.05,252.00 C624.76,248.27 624.08,247.86 624.04,249.59 C623.91,255.94 639.56,277.00 644.41,277.00 C646.15,277.00 646.16,276.88 644.48,274.25 ZM 507.65 839.17 C503.80,834.91 506.88,828.00 512.65,828.00 C514.87,828.00 519.00,832.22 519.00,834.50 C519.00,835.18 518.07,836.92 516.93,838.37 C514.46,841.50 510.11,841.88 507.65,839.17 ZM 220.04 819.55 C218.98,818.27 219.79,816.30 225.09,807.35 C238.50,784.70 257.61,761.00 262.48,761.00 C267.33,761.00 266.15,763.93 257.72,772.82 C248.46,782.60 240.65,793.27 230.88,809.50 C227.24,815.55 223.60,820.63 222.79,820.79 C221.98,820.95 220.74,820.40 220.04,819.55 ZM 795.95 813.75 C784.14,793.75 769.25,773.82 761.75,767.99 C760.09,766.70 759.00,764.89 759.00,763.43 C759.00,754.96 773.80,769.02 789.17,792.08 C801.34,810.35 805.21,817.28 804.41,819.37 C803.06,822.88 800.23,821.01 795.95,813.75 ZM 345.60 804.12 C343.27,801.54 344.32,798.21 347.74,797.35 C349.73,796.85 350.77,797.23 352.20,798.99 C353.82,801.00 353.88,801.55 352.66,803.39 C350.80,806.22 347.79,806.53 345.60,804.12 ZM 672.20 804.80 C669.31,801.91 671.53,797.00 675.72,797.00 C679.20,797.00 680.92,801.33 678.50,804.00 C676.45,806.26 673.98,806.58 672.20,804.80 ZM 414.57 796.81 C414.34,796.09 413.63,793.17 413.00,790.33 C411.42,783.29 410.40,782.24 403.70,780.74 C400.51,780.02 397.81,779.01 397.70,778.49 C397.59,777.97 400.20,776.95 403.50,776.22 C406.80,775.49 410.05,774.35 410.73,773.68 C411.41,773.01 412.56,769.55 413.28,765.98 C414.00,762.42 415.01,759.50 415.52,759.50 C416.04,759.50 417.14,762.52 417.98,766.22 C418.82,769.91 419.98,773.41 420.57,773.99 C421.16,774.56 424.42,775.53 427.82,776.12 C431.39,776.75 434.00,777.73 434.00,778.42 C434.00,779.12 431.17,780.20 427.39,780.95 C421.45,782.13 420.66,782.57 419.51,785.38 C418.80,787.10 417.91,790.41 417.52,792.74 C416.81,797.09 415.31,799.16 414.57,796.81 ZM 610.03 791.68 C609.38,788.21 608.47,784.76 608.01,784.02 C607.56,783.29 604.20,781.93 600.55,781.01 C596.90,780.09 593.92,778.93 593.93,778.42 C593.94,777.91 596.77,776.93 600.22,776.24 C603.68,775.55 607.04,774.26 607.69,773.38 C608.35,772.50 609.18,769.42 609.54,766.54 C610.75,756.84 613.22,756.68 614.53,766.21 C615.42,772.72 617.39,774.71 624.40,776.22 C627.64,776.93 630.34,777.94 630.40,778.48 C630.45,779.01 627.80,780.04 624.50,780.75 C617.44,782.28 615.50,784.20 614.54,790.59 C613.11,800.10 611.69,800.45 610.03,791.68 ZM 510.56 771.82 C510.28,770.54 509.32,765.33 508.42,760.23 C507.51,755.08 506.01,749.99 505.03,748.79 C503.70,747.15 500.67,746.11 492.39,744.46 C485.33,743.05 481.50,741.83 481.50,741.00 C481.50,740.17 485.33,738.95 492.39,737.54 C500.67,735.89 503.70,734.85 505.03,733.21 C506.01,732.01 507.51,726.92 508.42,721.77 C509.32,716.67 510.28,711.46 510.56,710.18 C511.60,705.44 513.51,708.94 515.14,718.58 C516.06,724.03 517.27,729.67 517.83,731.11 C519.07,734.31 523.78,736.31 534.00,737.99 C546.63,740.07 546.78,741.87 534.50,743.93 C522.27,745.98 520.16,746.80 518.41,750.17 C517.53,751.87 516.06,757.78 515.14,763.31 C513.51,773.04 511.61,776.58 510.56,771.82 ZM 447.01 707.51 C445.32,705.47 446.55,701.28 449.07,700.48 C451.46,699.72 455.00,702.39 455.00,704.96 C455.00,708.71 449.47,710.48 447.01,707.51 ZM 571.50 702.80 C568.80,701.28 568.03,699.98 568.02,696.90 C567.98,691.53 575.03,689.03 579.00,693.00 C581.46,695.46 581.55,698.14 579.25,700.80 C576.97,703.44 574.00,704.20 571.50,702.80 ZM 356.05 691.56 C355.29,690.65 355.04,688.98 355.42,687.45 C355.94,685.38 356.59,684.94 358.68,685.19 C360.12,685.36 361.79,686.29 362.39,687.25 C364.70,690.93 358.83,694.91 356.05,691.56 ZM 662.04 691.55 C659.38,688.35 663.29,683.43 666.75,685.61 C670.21,687.79 668.98,693.00 665.00,693.00 C664.03,693.00 662.70,692.35 662.04,691.55 ZM 200.30 679.90 C198.97,678.57 199.32,677.28 205.32,660.93 C207.83,654.09 212.88,638.83 216.55,627.00 C220.21,615.17 223.84,604.84 224.61,604.04 C225.83,602.75 226.20,602.77 227.64,604.22 C229.17,605.74 228.87,607.22 223.52,624.68 C214.07,655.52 206.73,676.24 204.17,679.25 C202.44,681.29 201.80,681.40 200.30,679.90 ZM 819.64 679.22 C817.17,675.23 808.96,651.56 801.01,625.57 C795.88,608.77 795.14,605.43 796.29,604.29 C798.65,601.92 800.71,603.92 802.50,610.31 C805.71,621.83 814.94,650.42 819.95,664.40 C822.69,672.04 824.70,678.68 824.41,679.15 C823.75,680.21 820.28,680.27 819.64,679.22 ZM 509.71 665.38 C509.32,664.99 509.00,653.55 509.00,639.96 C509.00,614.08 509.34,612.04 513.39,613.60 C514.87,614.16 515.01,616.85 514.77,639.86 C514.51,664.81 514.45,665.51 512.46,665.79 C511.34,665.95 510.10,665.77 509.71,665.38 ZM 479.40 646.60 C478.65,644.65 487.61,612.96 489.42,611.15 C490.63,609.94 491.18,609.90 492.44,610.95 C494.14,612.36 494.10,612.65 490.31,626.00 C484.23,647.42 484.01,648.00 481.93,648.00 C480.83,648.00 479.70,647.37 479.40,646.60 ZM 538.10 641.25 C537.01,637.54 534.95,630.22 533.52,625.00 C532.09,619.78 530.73,614.95 530.50,614.28 C530.27,613.61 530.81,612.34 531.69,611.46 C534.34,608.80 535.72,611.41 540.52,628.08 C545.78,646.37 545.94,648.00 542.54,648.00 C540.37,648.00 539.85,647.21 538.10,641.25 ZM 893.80 628.46 C892.81,626.28 892.95,625.61 894.78,623.78 C896.61,621.95 897.28,621.81 899.46,622.80 C901.12,623.56 902.00,624.76 902.00,626.28 C902.00,631.31 895.84,632.95 893.80,628.46 ZM 434.04 622.55 C432.13,620.24 433.20,617.54 436.17,617.19 C438.15,616.96 439.00,617.42 439.50,618.99 C440.72,622.85 436.55,625.57 434.04,622.55 ZM 585.08 622.60 C583.03,620.12 584.71,616.83 587.84,617.19 C590.06,617.45 590.50,617.99 590.50,620.50 C590.50,622.78 590.00,623.57 588.41,623.80 C587.26,623.96 585.76,623.42 585.08,622.60 ZM 130.75 621.93 C128.74,620.75 128.43,616.97 130.20,615.20 C133.82,611.58 139.30,616.16 136.54,620.50 C135.02,622.88 133.14,623.34 130.75,621.93 ZM 864.14 601.28 C863.62,599.20 862.89,595.78 862.54,593.67 C861.81,589.44 859.30,587.85 851.20,586.52 C845.42,585.56 846.33,583.92 853.54,582.29 C856.79,581.55 859.92,580.49 860.48,579.94 C861.04,579.39 862.18,575.95 863.00,572.30 C863.83,568.65 865.01,565.50 865.63,565.29 C866.31,565.06 867.24,567.47 867.98,571.41 C868.66,574.98 869.72,578.59 870.35,579.44 C870.98,580.29 874.32,581.55 877.78,582.24 C884.76,583.64 885.84,585.08 880.83,586.32 C869.85,589.01 870.11,588.87 869.12,592.78 C868.61,594.83 867.90,598.17 867.56,600.21 C866.68,605.34 865.28,605.78 864.14,601.28 ZM 229.62 587.48 C228.39,586.25 228.25,585.39 229.04,583.93 C230.29,581.59 232.30,581.45 234.07,583.58 C235.00,584.70 235.09,585.64 234.37,586.77 C232.90,589.10 231.46,589.31 229.62,587.48 ZM 789.94 586.88 C789.04,585.21 789.12,584.45 790.32,583.25 C793.19,580.38 797.58,584.40 794.99,587.51 C793.25,589.61 791.26,589.36 789.94,586.88 ZM 164.69 586.63 C164.40,585.87 163.85,583.16 163.46,580.59 C162.51,574.24 160.54,572.25 153.70,570.73 C150.51,570.01 147.90,569.00 147.89,568.47 C147.88,567.94 150.59,566.83 153.90,566.00 C157.21,565.18 160.46,563.95 161.12,563.29 C161.79,562.62 162.83,559.28 163.45,555.86 C164.94,547.61 166.57,547.31 168.08,555.00 C169.64,562.95 171.23,564.67 178.40,566.22 C181.64,566.93 184.25,567.95 184.20,568.50 C184.14,569.05 181.51,570.02 178.34,570.65 C171.63,572.00 169.47,574.11 168.51,580.25 C167.60,586.13 167.00,588.00 166.04,588.00 C165.59,588.00 164.98,587.38 164.69,586.63 ZM 399.96 543.45 C398.90,542.18 398.93,541.66 400.09,540.56 C401.60,539.11 432.58,530.00 435.96,530.00 C438.16,530.00 438.87,533.34 436.94,534.54 C435.57,535.38 403.87,544.96 402.37,544.98 C401.75,544.99 400.67,544.30 399.96,543.45 ZM 603.60 539.94 C594.85,537.27 587.26,534.66 586.72,534.12 C585.37,532.77 586.58,530.00 588.52,530.00 C590.76,530.00 620.31,538.56 622.96,539.98 C624.31,540.70 624.93,541.73 624.58,542.66 C624.26,543.49 624.00,544.35 624.00,544.58 C624.00,545.70 618.14,544.36 603.60,539.94 ZM 268.08 538.15 C266.95,536.03 269.18,532.00 271.50,532.00 C272.26,532.00 273.57,532.97 274.40,534.15 C276.36,536.95 274.85,540.00 271.50,540.00 C270.16,540.00 268.63,539.17 268.08,538.15 ZM 750.04 538.55 C748.61,536.83 749.47,533.42 751.54,532.62 C754.82,531.36 757.61,534.49 756.46,538.14 C755.75,540.38 751.77,540.63 750.04,538.55 ZM 126.56 534.82 C126.28,533.54 125.33,528.38 124.44,523.34 C122.32,511.32 121.43,510.50 107.62,507.79 C101.76,506.65 97.00,505.22 97.01,504.61 C97.01,503.99 102.03,502.52 108.25,501.31 C116.59,499.69 119.90,498.60 121.13,497.09 C122.04,495.96 123.52,490.87 124.42,485.77 C125.32,480.67 126.28,475.46 126.56,474.18 C127.61,469.41 129.51,472.97 131.15,482.80 C132.08,488.37 133.14,493.86 133.49,494.98 C134.43,497.92 138.43,499.65 148.57,501.49 C153.48,502.38 158.14,503.32 158.92,503.58 C161.77,504.55 158.27,506.05 149.64,507.56 C134.36,510.23 133.95,510.64 131.25,525.94 C129.46,536.06 127.61,539.57 126.56,534.82 ZM 894.61 535.83 C894.40,535.10 893.50,530.10 892.61,524.73 C891.72,519.35 890.43,514.05 889.74,512.94 C888.42,510.79 882.81,508.93 871.71,506.96 C864.18,505.63 863.36,504.01 869.57,502.78 C885.14,499.71 888.09,498.79 889.57,496.54 C890.40,495.27 891.90,489.44 892.89,483.59 C895.55,468.03 896.85,467.96 899.41,483.25 C902.02,498.86 902.05,498.89 917.55,501.74 C927.61,503.59 929.77,505.42 923.25,506.57 C902.82,510.15 901.87,510.79 900.00,522.19 C898.00,534.39 897.49,536.34 896.22,536.76 C895.55,536.98 894.83,536.57 894.61,535.83 ZM 483.85 509.25 C463.68,488.82 460.51,483.96 460.50,473.43 C460.50,468.51 461.01,466.58 463.18,463.30 C471.56,450.63 487.39,451.48 502.57,465.41 L 508.50 470.85 L 505.24 474.16 C502.85,476.59 501.62,477.22 500.63,476.49 C499.89,475.95 496.67,473.40 493.49,470.83 C484.02,463.19 474.89,462.45 471.47,469.06 C467.72,476.31 471.27,482.29 491.61,503.05 L 508.31 520.09 L 504.96 523.54 C503.11,525.45 501.56,527.00 501.49,527.00 C501.43,527.00 493.49,519.01 483.85,509.25 ZM 381.37 513.52 C381.05,512.68 381.05,511.32 381.37,510.48 C381.87,509.17 385.50,509.00 408.23,509.23 L 434.50 509.50 L 434.50 512.00 L 434.50 514.50 L 408.23 514.77 C385.50,515.00 381.87,514.83 381.37,513.52 ZM 589.37 513.52 C589.05,512.68 589.05,511.32 589.37,510.48 C589.87,509.17 593.50,509.00 616.22,509.23 L 642.50 509.50 L 642.50 512.00 L 642.50 514.50 L 616.22 514.77 C593.50,515.00 589.87,514.83 589.37,513.52 ZM 494.45 499.55 C493.10,498.20 492.00,496.55 492.00,495.88 C492.00,495.21 499.76,486.94 509.25,477.49 C527.55,459.26 532.65,455.68 542.13,454.39 C554.61,452.69 565.20,463.24 563.70,475.89 C563.38,478.57 562.20,482.73 561.06,485.14 C558.54,490.51 549.38,502.00 547.63,502.00 C546.38,502.00 543.04,498.81 541.56,496.20 C541.09,495.37 542.52,493.09 545.47,489.93 C556.06,478.61 556.69,467.79 546.94,464.86 C543.48,463.83 542.53,463.99 537.30,466.51 C532.77,468.69 527.94,472.89 515.29,485.65 C506.38,494.64 498.60,502.00 498.00,502.00 C497.40,502.00 495.80,500.90 494.45,499.55 ZM 417.00 489.56 C402.62,485.50 398.42,483.94 398.16,482.56 C397.41,478.72 399.66,478.83 416.62,483.47 C436.27,488.85 438.00,489.48 438.00,491.36 C438.00,495.01 435.49,494.79 417.00,489.56 ZM 587.20 493.80 C585.35,491.95 585.77,490.05 588.25,489.02 C589.49,488.51 598.09,486.01 607.38,483.47 C624.36,478.82 626.59,478.71 625.84,482.58 C625.57,483.98 621.47,485.52 607.00,489.65 C596.82,492.55 588.48,494.94 588.45,494.96 C588.42,494.98 587.86,494.46 587.20,493.80 ZM 429.17 467.60 C422.38,463.57 416.13,459.56 415.28,458.71 C413.55,456.98 414.19,454.00 416.30,454.00 C417.05,454.00 423.93,457.73 431.58,462.28 C441.94,468.45 445.50,471.07 445.50,472.53 C445.50,476.19 441.63,475.02 429.17,467.60 ZM 578.34 473.43 C578.01,472.57 578.13,471.49 578.62,471.03 C579.68,470.02 600.35,457.39 604.16,455.41 C607.30,453.79 610.00,454.48 610.00,456.89 C610.00,458.72 583.55,475.00 580.59,475.00 C579.68,475.00 578.67,474.29 578.34,473.43 ZM 439.27 443.78 C430.79,435.37 423.40,427.68 422.85,426.69 C421.81,424.78 423.25,422.00 425.27,422.00 C427.03,422.00 458.00,454.20 458.00,456.04 C458.00,457.00 457.26,458.07 456.35,458.42 C455.15,458.88 450.52,454.91 439.27,443.78 ZM 567.25 458.28 C564.04,457.13 566.94,453.18 581.72,438.52 C597.11,423.25 600.50,420.94 601.78,424.82 C602.19,426.06 573.23,456.24 570.00,457.94 C569.17,458.38 567.94,458.53 567.25,458.28 ZM 850.19 444.96 C846.03,441.08 848.81,434.00 854.50,434.00 C857.52,434.00 861.00,437.23 861.00,440.05 C861.00,442.60 856.72,447.00 854.23,447.00 C853.21,447.00 851.39,446.08 850.19,444.96 ZM 469.64 443.81 C463.14,433.72 454.01,417.22 454.24,416.00 C454.39,415.17 455.42,414.37 456.51,414.21 C458.11,413.98 460.14,416.68 466.84,427.90 C471.42,435.59 475.01,442.68 474.82,443.68 C474.31,446.36 471.33,446.44 469.64,443.81 ZM 549.32 444.40 C548.62,442.57 549.04,441.73 559.31,424.20 C564.20,415.85 565.73,413.96 567.41,414.20 C568.55,414.37 569.60,415.17 569.75,416.00 C570.17,418.27 553.76,445.42 551.73,445.81 C550.77,446.00 549.69,445.37 549.32,444.40 ZM 172.56 436.78 C171.70,435.56 171.00,433.61 171.00,432.45 C171.00,429.96 174.90,426.00 177.36,426.00 C179.74,426.00 184.00,430.46 184.00,432.95 C184.00,438.30 175.59,441.11 172.56,436.78 ZM 489.03 435.82 C488.48,434.54 485.98,426.11 483.47,417.08 C479.35,402.26 479.05,400.52 480.45,399.12 C481.81,397.76 482.18,397.75 483.44,399.04 C485.19,400.82 494.22,432.49 493.80,435.40 C493.37,438.37 490.24,438.65 489.03,435.82 ZM 530.30 436.34 C529.95,435.43 530.44,431.72 531.39,428.09 C539.24,398.14 540.22,395.79 543.55,399.13 C544.75,400.33 544.31,402.88 540.48,417.01 C538.01,426.08 535.56,434.51 535.02,435.75 C533.88,438.39 531.21,438.72 530.30,436.34 ZM 509.48 433.80 C509.20,433.07 509.09,420.77 509.23,406.48 L 509.50 380.50 L 512.00 380.50 L 514.50 380.50 L 514.50 407.50 L 514.50 434.50 L 512.25 434.82 C511.01,435.00 509.76,434.54 509.48,433.80 ZM 356.97 416.46 C355.15,414.28 356.91,411.50 360.11,411.50 C362.10,411.50 362.50,412.00 362.50,414.50 C362.50,416.78 362.00,417.57 360.41,417.80 C359.26,417.96 357.72,417.36 356.97,416.46 ZM 662.05 416.56 C659.52,413.51 663.51,409.52 666.56,412.05 C667.41,412.75 667.96,414.26 667.80,415.41 C667.43,417.98 663.82,418.70 662.05,416.56 ZM 158.02 382.11 C157.37,378.26 156.19,374.57 155.39,373.91 C154.60,373.25 151.46,372.21 148.42,371.60 C145.39,371.00 142.89,370.05 142.88,369.50 C142.87,368.95 145.65,367.76 149.05,366.86 C152.46,365.96 155.61,364.63 156.05,363.91 C156.50,363.19 157.42,359.77 158.11,356.30 C158.80,352.84 159.71,350.00 160.14,350.00 C161.03,350.00 162.99,356.54 162.99,359.53 C163.01,363.44 165.67,365.66 171.99,367.00 C175.33,367.71 177.91,368.76 177.72,369.33 C177.53,369.91 175.00,370.91 172.10,371.57 C169.19,372.22 166.19,373.38 165.42,374.15 C164.66,374.91 163.45,378.42 162.74,381.95 C162.02,385.47 160.94,388.52 160.32,388.73 C159.63,388.96 158.74,386.41 158.02,382.11 ZM 862.62 387.25 C862.34,386.29 861.82,383.38 861.45,380.80 C860.55,374.38 859.44,373.25 852.56,371.70 C849.30,370.97 846.47,369.90 846.27,369.32 C846.08,368.75 848.63,367.74 851.94,367.09 C858.93,365.72 860.68,363.87 861.61,356.91 C862.24,352.10 863.48,349.14 864.45,350.11 C864.75,350.42 865.52,353.33 866.15,356.58 C866.78,359.84 867.96,363.28 868.78,364.23 C869.60,365.18 872.92,366.47 876.17,367.11 C879.45,367.76 881.92,368.75 881.72,369.33 C881.53,369.91 878.56,371.01 875.13,371.78 C868.15,373.33 867.82,373.75 865.97,383.25 C864.86,389.01 863.58,390.53 862.62,387.25 ZM 308.14 376.67 C306.44,374.62 307.84,371.83 310.38,372.20 C311.89,372.41 312.50,373.21 312.50,374.99 C312.50,377.84 309.93,378.83 308.14,376.67 ZM 711.36 376.50 C711.05,375.67 711.06,374.29 711.39,373.43 C712.21,371.28 716.39,372.00 716.84,374.38 C717.44,377.54 712.49,379.45 711.36,376.50 ZM 191.24 315.84 C188.38,312.98 190.93,308.56 195.09,309.17 C198.13,309.62 199.82,312.48 198.39,314.75 C197.05,316.90 192.93,317.53 191.24,315.84 ZM 826.20 315.80 C824.34,313.94 824.78,311.27 827.20,309.57 C829.08,308.25 829.71,308.23 831.45,309.38 C833.95,311.04 834.58,313.60 832.96,315.55 C831.50,317.31 827.84,317.44 826.20,315.80 ZM 556.67 294.25 C556.43,293.84 555.90,291.09 555.51,288.14 C554.60,281.45 552.69,279.49 545.59,278.02 C539.51,276.76 538.43,275.39 542.75,274.42 C554.09,271.87 554.33,271.67 555.49,263.92 C556.90,254.49 558.94,254.95 560.95,265.14 C562.19,271.47 563.07,272.32 569.50,273.42 C578.32,274.93 579.50,276.41 572.75,277.52 C565.13,278.78 562.27,280.47 561.52,284.16 C559.51,294.00 558.17,296.78 556.67,294.25 ZM 248.02 286.25 C247.41,283.09 246.64,279.15 246.33,277.50 C246.02,275.85 245.14,273.29 244.39,271.82 C242.99,269.09 243.08,269.12 225.18,265.41 C220.88,264.52 223.58,262.62 230.92,261.38 C244.27,259.13 244.82,258.58 247.35,244.69 C249.54,232.74 250.92,232.92 252.92,245.40 C255.00,258.39 255.30,258.69 268.99,261.52 C273.10,262.38 276.91,263.51 277.44,264.04 C277.97,264.57 278.12,265.00 277.79,265.00 C275.77,265.00 261.06,268.17 258.84,269.08 C257.37,269.68 255.69,271.37 255.09,272.84 C254.29,274.83 251.00,290.01 251.00,291.75 C251.00,291.89 250.58,292.00 250.07,292.00 C249.56,292.00 248.64,289.41 248.02,286.25 ZM 466.50 273.81 C463.80,272.27 463.03,270.98 463.02,267.90 C463.00,264.73 465.82,261.99 469.08,262.02 C472.06,262.03 473.37,262.86 474.85,265.68 C476.49,268.81 476.31,269.78 473.55,272.55 C470.84,275.25 469.48,275.50 466.50,273.81 ZM 775.57 272.75 C775.37,272.06 774.51,267.71 773.65,263.07 C772.68,257.84 771.39,253.94 770.22,252.78 C769.06,251.61 765.16,250.32 759.93,249.35 C755.29,248.49 750.91,247.62 750.19,247.40 C747.29,246.55 750.41,245.17 759.04,243.49 C764.03,242.52 769.01,241.00 770.10,240.12 C771.56,238.93 772.56,235.83 773.84,228.57 C775.66,218.24 777.36,215.53 778.45,221.20 C782.40,241.69 782.05,241.23 795.40,243.68 C805.38,245.51 806.74,247.40 798.75,248.34 C789.17,249.47 783.36,251.71 782.11,254.75 C781.23,256.91 778.00,271.69 778.00,273.59 C778.00,274.60 775.90,273.87 775.57,272.75 ZM 511.28 234.79 C510.72,234.08 509.71,229.70 509.04,225.07 C507.60,214.97 505.51,209.35 502.63,207.78 C501.46,207.14 495.81,205.70 490.08,204.56 C478.97,202.37 476.35,200.55 482.69,199.46 C493.46,197.60 501.42,195.75 503.05,194.74 C505.77,193.04 506.90,189.79 508.95,177.79 C511.65,161.95 512.80,161.90 515.28,177.51 C517.93,194.21 518.65,195.07 532.08,197.58 C536.71,198.44 541.51,199.35 542.75,199.59 C543.99,199.84 545.00,200.64 545.00,201.38 C545.00,202.29 542.48,203.12 537.25,203.92 C525.36,205.76 520.20,207.70 518.50,210.99 C517.70,212.54 516.30,218.47 515.38,224.16 C513.61,235.13 512.94,236.87 511.28,234.79 ZM 659.63 223.26 C659.34,222.29 658.80,219.70 658.42,217.50 C657.39,211.48 656.36,210.17 651.73,208.97 C644.64,207.14 644.00,206.90 644.00,206.00 C644.00,205.53 646.36,204.65 649.25,204.04 C652.14,203.44 655.07,202.59 655.78,202.15 C656.48,201.71 657.63,198.55 658.32,195.13 C659.02,191.71 659.97,188.82 660.44,188.71 C660.90,188.59 662.01,191.42 662.89,194.98 C664.61,201.89 666.71,203.95 672.06,203.99 C673.47,203.99 675.49,204.64 676.56,205.42 C678.41,206.77 678.36,206.87 675.50,207.52 C664.19,210.09 663.91,210.36 662.47,219.74 C661.76,224.39 660.44,226.03 659.63,223.26 ZM 374.65 215.26 C374.37,214.29 373.86,211.63 373.50,209.34 C372.59,203.47 371.13,201.97 365.00,200.59 C362.05,199.92 359.48,198.93 359.30,198.39 C359.12,197.85 361.66,196.85 364.94,196.17 C368.23,195.49 371.24,194.42 371.64,193.78 C372.03,193.14 372.85,190.15 373.45,187.13 C374.06,184.12 375.01,181.50 375.57,181.31 C376.13,181.12 377.14,183.63 377.81,186.88 C379.25,193.82 380.24,194.82 387.12,196.35 C389.96,196.98 392.34,197.92 392.39,198.42 C392.45,198.93 390.15,199.88 387.28,200.52 C380.32,202.09 379.26,203.17 377.90,210.12 C376.67,216.35 375.48,218.23 374.65,215.26 ZM 589.44 178.93 C587.73,177.04 587.70,176.63 589.07,174.18 C590.06,172.42 591.41,171.50 593.00,171.50 C594.59,171.50 595.94,172.42 596.93,174.18 C598.30,176.63 598.27,177.04 596.56,178.93 C595.53,180.07 593.93,181.00 593.00,181.00 C592.07,181.00 590.47,180.07 589.44,178.93 ZM 233.53 418.06 C232.57,416.49 233.84,415.00 236.13,415.00 C237.51,415.00 238.04,415.55 237.81,416.74 C237.43,418.73 234.51,419.63 233.53,418.06 ZM 787.69 418.35 C786.27,416.94 787.07,415.00 789.07,415.00 C790.47,415.00 791.04,415.54 790.82,416.67 C790.47,418.51 788.76,419.43 787.69,418.35 Z" fill="rgba(0,0,0,1)"/>
</g>
</svg>