<svg xmlns="http://www.w3.org/2000/svg" width="1024" height="1024" viewBox="0 0 1024 1024">
<g>
<path d="M 483.00 968.99 C436.28,965.75 394.61,955.36 379.14,943.11 C369.84,935.75 366.78,922.17 372.29,912.76 C373.75,910.27 375.65,907.97 376.50,907.64 C377.87,907.11 382.00,899.15 382.00,897.02 C382.00,896.58 380.20,896.62 378.00,897.11 C370.17,898.87 359.43,894.67 352.99,887.34 C346.50,879.95 343.98,872.58 342.52,856.78 C340.59,835.83 340.58,835.81 317.14,804.00 C309.63,793.81 302.17,786.09 291.75,777.76 C282.08,770.02 281.04,767.69 285.62,764.09 C287.06,762.95 290.58,761.29 293.45,760.38 L 298.66 758.74 L 296.29 752.87 C286.39,728.36 278.05,688.11 276.51,657.50 C275.36,634.49 270.53,619.74 259.96,607.02 C249.72,594.68 247.84,586.21 253.06,575.91 C254.72,572.64 259.73,567.45 263.28,565.33 C265.23,564.17 268.29,548.01 268.26,539.00 C268.25,534.39 267.23,527.32 265.62,520.67 C264.18,514.71 263.00,508.98 263.00,507.92 C263.00,503.03 277.99,508.26 286.52,516.13 C289.62,518.98 291.37,519.99 291.82,519.19 C301.89,501.47 302.92,500.08 315.00,487.88 C329.12,473.61 335.60,468.61 359.61,453.49 C368.90,447.63 379.88,440.32 384.00,437.24 C393.77,429.95 411.77,411.88 415.67,405.45 L 418.74 400.40 L 416.40 397.68 C408.70,388.73 412.97,375.47 424.73,371.83 C428.73,370.60 429.01,370.26 429.95,365.51 C431.74,356.41 433.00,341.26 433.00,328.79 C432.99,316.47 430.84,289.03 428.95,277.18 C426.85,264.02 421.88,255.49 413.99,251.49 C401.78,245.31 397.69,232.04 404.43,220.53 C408.27,213.98 414.00,211.49 432.06,208.52 C440.51,207.14 449.19,206.00 451.34,206.00 L 455.26 206.00 L 454.58 200.90 C453.50,192.72 451.38,188.83 446.21,185.50 C438.90,180.79 435.64,175.32 435.17,167.00 C434.86,161.46 435.20,159.22 436.89,155.73 C438.92,151.54 438.94,151.17 437.37,146.58 C433.79,136.05 438.07,121.23 447.68,110.87 C453.88,104.19 465.21,96.78 474.59,93.27 C481.83,90.56 481.98,90.43 482.00,87.00 C482.05,78.35 490.28,68.15 505.28,58.18 L 512.05 53.67 L 520.37 59.32 C529.79,65.72 538.40,74.31 540.55,79.46 C541.35,81.37 542.00,84.55 542.00,86.52 C542.00,89.67 542.40,90.24 545.25,91.22 C547.04,91.84 552.55,94.40 557.50,96.91 C568.85,102.68 580.22,113.43 584.55,122.50 C588.16,130.06 589.09,141.46 586.58,147.46 C585.14,150.91 585.13,151.55 586.49,153.63 C589.44,158.13 590.31,165.42 588.60,171.32 C586.70,177.84 584.38,180.92 577.54,185.97 C572.09,190.00 570.32,193.62 569.74,201.95 L 569.50 205.40 L 579.67 206.62 C605.23,209.69 614.96,212.96 619.68,220.09 C622.15,223.83 622.50,225.29 622.49,231.93 C622.49,238.53 622.14,240.02 619.74,243.55 C618.24,245.78 615.15,248.70 612.90,250.05 C602.82,256.07 598.28,262.28 596.13,273.00 C590.78,299.64 590.00,349.45 594.64,368.64 C594.99,370.06 596.22,370.99 598.31,371.41 C610.36,373.82 615.74,387.10 608.50,396.58 C605.28,400.81 605.45,401.45 612.35,410.61 C622.27,423.77 637.69,436.51 663.00,452.48 C685.50,466.68 693.68,472.79 705.86,484.50 C716.81,495.03 723.08,502.72 728.88,512.73 L 733.07 519.97 L 738.76 515.33 C745.52,509.82 753.26,506.02 757.75,506.01 C761.87,506.00 761.93,507.41 758.45,520.74 C755.28,532.84 754.99,542.63 757.43,554.76 C759.28,563.93 759.35,564.06 764.01,567.41 C770.44,572.03 773.49,578.35 773.46,587.00 C773.44,595.11 771.87,598.41 763.60,607.81 C757.88,614.31 756.86,616.16 753.67,625.78 C749.45,638.52 748.42,644.55 747.00,664.65 C745.76,682.28 744.13,693.30 739.99,712.05 C737.61,722.81 730.09,747.98 726.54,757.06 C726.08,758.25 727.18,759.01 731.22,760.29 C736.37,761.92 742.00,766.02 742.00,768.14 C742.00,769.49 737.41,773.89 728.12,781.46 C724.10,784.74 718.78,789.68 716.29,792.44 C710.44,798.95 689.87,827.32 687.23,832.53 C684.04,838.82 682.23,846.66 681.57,857.00 C680.59,872.54 678.04,879.75 670.71,887.70 C663.97,895.01 654.53,898.56 645.99,897.00 C642.19,896.30 641.99,896.39 642.59,898.38 C644.25,903.80 646.01,906.93 648.01,908.01 C649.21,908.65 651.33,911.66 652.72,914.70 C656.97,923.99 655.10,932.70 647.11,940.77 C635.06,952.94 602.45,962.70 557.79,967.48 C540.32,969.36 499.97,970.17 483.00,968.99 ZM 501.30 957.64 C500.86,956.89 498.45,954.01 495.94,951.24 L 491.38 946.20 L 478.44 945.05 C471.32,944.41 462.58,943.48 459.00,942.97 C455.42,942.46 448.99,942.03 444.70,942.02 C439.59,942.01 435.85,941.46 433.85,940.42 C432.18,939.56 426.01,937.51 420.15,935.88 C403.05,931.11 392.31,926.64 385.24,921.33 C381.95,918.86 380.00,918.94 380.00,921.55 C380.00,923.31 386.62,928.24 394.00,931.97 C404.36,937.20 423.64,942.80 445.50,946.93 C451.55,948.07 459.88,949.65 464.00,950.45 L 471.50 951.89 L 465.00 951.39 C430.02,948.71 399.67,940.73 383.10,929.85 L 379.70 927.61 L 381.44 930.27 C383.57,933.52 391.66,938.99 399.38,942.41 C418.41,950.82 460.49,958.26 492.30,958.83 C500.32,958.97 501.95,958.75 501.30,957.64 ZM 564.00 956.49 C605.23,951.35 637.39,940.48 643.14,929.74 L 644.23 927.70 L 641.37 929.72 C626.72,940.07 592.67,949.12 560.00,951.34 C551.21,951.93 553.65,951.29 573.00,947.92 C588.47,945.22 606.83,940.80 616.88,937.35 C634.76,931.22 647.16,922.50 643.38,918.71 C643.04,918.37 641.13,919.40 639.13,921.00 C633.66,925.38 619.72,931.53 608.50,934.52 C603.00,935.98 596.25,938.11 593.50,939.25 C589.97,940.71 584.97,941.54 576.50,942.08 C569.90,942.49 558.20,943.54 550.50,944.41 C542.80,945.27 535.74,945.98 534.81,945.99 C533.19,946.00 526.48,952.44 523.19,957.13 L 521.66 959.32 L 536.58 958.69 C544.79,958.34 557.12,957.35 564.00,956.49 ZM 529.41 938.04 C538.99,927.87 554.03,914.66 565.49,906.35 L 568.45 904.19 L 563.81 904.72 C551.24,906.13 537.39,897.01 536.91,887.00 C536.81,884.87 536.68,884.99 536.01,887.80 C533.95,896.49 539.02,904.38 548.69,907.51 L 553.88 909.19 L 548.19 913.96 C542.35,918.86 533.46,927.94 524.23,938.45 C521.35,941.72 519.00,944.03 519.00,943.58 C519.00,942.36 527.66,930.43 533.82,923.17 C536.77,919.69 538.93,916.60 538.63,916.30 C537.63,915.30 520.52,933.40 516.48,939.74 C514.29,943.17 512.28,945.96 512.00,945.94 C511.73,945.92 509.92,943.34 508.00,940.21 C504.37,934.30 486.36,915.31 485.35,916.32 C485.03,916.64 487.02,919.51 489.76,922.70 C495.44,929.31 505.32,943.02 504.78,943.55 C504.58,943.75 501.29,940.28 497.46,935.84 C493.63,931.40 486.09,923.59 480.69,918.49 L 470.88 909.20 L 475.77 907.58 C484.86,904.56 489.99,896.22 487.97,887.73 C487.23,884.59 487.20,884.58 487.10,887.27 C486.96,891.18 482.65,897.55 478.24,900.39 C472.71,903.94 467.46,905.29 461.15,904.76 L 455.51 904.30 L 458.43 906.40 C473.98,917.60 491.43,933.74 504.68,949.18 L 512.14 957.87 L 517.73 951.18 C520.81,947.51 526.07,941.59 529.41,938.04 ZM 480.95 935.37 C474.73,928.81 459.10,916.33 453.10,913.13 C446.23,909.47 441.16,909.12 436.53,911.98 C430.00,916.01 428.17,926.36 433.06,931.56 C439.70,938.63 451.00,936.35 451.00,927.93 C451.00,924.64 447.89,921.74 444.83,922.17 C443.00,922.43 442.43,923.22 442.18,925.84 C441.87,929.07 441.80,929.13 439.93,927.44 C437.46,925.20 437.47,921.95 439.97,919.27 C444.97,913.90 450.66,915.59 458.91,924.89 C466.82,933.82 471.98,937.31 478.39,938.10 C481.20,938.44 483.70,938.78 483.95,938.86 C484.19,938.94 482.84,937.36 480.95,935.37 ZM 554.28 934.94 C556.82,933.25 561.65,928.78 565.00,925.00 C573.35,915.59 579.01,913.88 584.03,919.27 C586.55,921.97 586.54,925.20 584.00,927.50 C582.04,929.27 582.00,929.25 582.00,926.17 C582.00,923.61 581.51,922.92 579.33,922.37 C577.27,921.85 576.25,922.21 574.83,923.96 C572.71,926.58 572.57,927.97 574.11,931.34 C577.27,938.29 588.85,937.06 592.48,929.39 C596.80,920.30 590.16,909.98 580.02,910.01 C573.89,910.03 556.60,921.61 545.04,933.44 L 540.58 938.00 L 545.12 938.00 C548.51,938.00 550.83,937.22 554.28,934.94 ZM 459.50 935.00 C458.04,933.38 457.42,933.24 456.22,934.24 C454.95,935.29 455.08,935.56 457.12,936.13 C461.07,937.24 461.39,937.09 459.50,935.00 ZM 568.00 934.94 C568.00,933.17 566.18,933.14 564.60,934.89 C563.01,936.64 563.06,936.71 565.46,936.25 C566.86,935.98 568.00,935.40 568.00,934.94 ZM 507.14 927.13 C504.86,921.13 500.74,913.86 498.62,912.10 C497.42,911.11 496.64,911.19 494.59,912.53 L 492.05 914.20 L 499.26 922.16 C503.23,926.53 506.87,930.79 507.33,931.63 C509.12,934.82 509.00,932.02 507.14,927.13 ZM 527.26 919.55 L 532.12 914.60 L 529.81 912.82 C528.54,911.84 527.19,911.03 526.80,911.02 C525.50,910.98 521.08,917.56 518.53,923.33 C514.99,931.35 515.25,933.39 519.20,928.48 C520.96,926.29 524.59,922.27 527.26,919.55 ZM 423.62 923.61 L 423.62 917.23 L 419.60 919.33 C414.91,921.77 407.10,922.11 402.22,920.09 C399.19,918.83 397.85,917.00 399.97,917.00 C402.15,917.00 408.05,910.56 409.11,907.01 C410.62,901.99 408.05,893.53 403.43,888.26 L 400.13 884.50 L 403.06 890.39 C405.94,896.17 406.99,904.26 405.39,908.42 C404.40,911.01 403.00,910.22 403.00,907.07 C403.00,905.45 402.49,902.86 401.88,901.32 C400.77,898.55 400.73,898.60 399.40,904.24 C398.66,907.40 397.14,911.77 396.03,913.95 C394.91,916.13 394.00,918.18 394.00,918.50 C394.00,919.50 420.40,929.94 423.06,929.99 C423.37,930.00 423.62,927.13 423.62,923.61 ZM 609.20 927.42 C613.76,926.00 620.45,923.50 624.06,921.86 L 630.63 918.88 L 627.87 913.41 C626.35,910.40 624.79,905.82 624.39,903.22 L 623.67 898.50 L 622.38 901.50 C621.67,903.15 621.07,905.74 621.05,907.25 C620.99,910.71 619.25,910.84 618.40,907.45 C617.06,902.12 618.55,894.25 621.93,888.78 C624.80,884.15 624.90,883.78 622.73,885.80 C619.48,888.83 615.34,896.56 614.48,901.22 C613.53,906.33 616.82,913.05 621.52,915.58 C623.43,916.61 625.00,917.75 625.00,918.11 C625.00,919.58 618.13,921.50 612.95,921.47 C609.21,921.45 606.28,920.77 603.94,919.39 L 600.47 917.34 L 600.48 923.67 C600.49,927.15 600.59,930.00 600.70,930.00 C600.81,930.00 604.63,928.84 609.20,927.42 ZM 510.89 850.00 C510.99,843.66 511.40,840.09 511.91,841.00 C512.80,842.58 513.87,870.36 514.20,900.41 C514.34,913.51 514.67,917.85 515.45,916.56 C516.03,915.58 517.88,912.92 519.56,910.64 L 522.62 906.50 L 520.86 902.00 C517.38,893.07 519.06,881.50 525.97,866.78 C530.77,856.56 533.20,850.00 532.19,850.00 C530.79,850.00 524.65,860.46 521.36,868.43 C516.86,879.36 517.11,876.19 522.28,856.98 C524.20,849.86 523.26,843.68 518.01,828.76 C513.58,816.20 514.95,816.86 521.63,830.51 C524.28,835.93 526.28,841.61 526.66,844.78 C527.27,849.94 527.33,850.01 529.24,848.28 C531.93,845.85 531.06,840.17 526.47,830.22 C522.11,820.75 512.91,804.00 512.07,804.00 C510.99,804.00 499.70,825.07 496.31,833.41 C492.76,842.17 492.33,845.53 494.39,848.25 C496.34,850.82 496.66,850.49 497.29,845.25 C497.60,842.64 498.81,838.25 499.99,835.50 C502.60,829.39 509.05,817.72 509.54,818.21 C509.74,818.40 508.08,823.50 505.85,829.53 C500.88,843.02 499.87,852.09 502.48,859.94 C504.32,865.47 507.00,876.33 506.63,876.70 C506.51,876.82 505.13,873.90 503.56,870.21 C498.22,857.62 489.22,843.44 491.53,851.25 C491.90,852.49 494.57,858.90 497.47,865.50 C500.37,872.10 503.25,879.61 503.87,882.19 C505.58,889.29 505.23,897.89 503.05,902.69 C501.38,906.37 501.33,907.03 502.63,908.11 C503.45,908.79 505.33,911.40 506.81,913.92 L 509.50 918.50 L 510.11 889.50 C510.45,873.55 510.80,855.78 510.89,850.00 ZM 393.96 908.37 C396.53,901.52 396.65,892.41 394.23,889.26 C392.54,887.07 392.50,887.18 392.38,894.03 C392.28,899.70 391.67,902.24 389.21,907.22 C386.40,912.88 386.29,913.49 387.82,914.61 C390.14,916.31 391.51,914.92 393.96,908.37 ZM 423.37 908.95 C426.88,905.95 430.98,903.46 433.53,902.78 L 437.82 901.63 L 433.16 898.68 C430.60,897.05 426.83,894.66 424.79,893.37 L 421.08 891.02 L 421.67 897.37 C422.07,901.61 421.89,903.95 421.13,904.42 C420.38,904.88 420.00,904.02 419.99,901.81 C419.96,891.64 406.35,876.48 386.56,864.57 C376.96,858.80 368.24,859.77 364.49,867.01 C360.20,875.31 366.14,887.00 374.63,887.00 C378.73,887.00 382.00,884.04 382.00,880.33 C382.00,875.15 375.98,871.91 373.01,875.49 C372.33,876.31 371.37,876.73 370.89,876.43 C369.30,875.45 369.95,872.96 372.45,870.45 C378.01,864.90 391.89,869.52 403.78,880.87 C414.16,890.77 418.10,903.11 413.64,911.73 C412.74,913.47 412.00,915.12 412.00,915.40 C412.00,916.87 418.25,913.33 423.37,908.95 ZM 636.82 914.72 C637.59,913.79 637.07,911.81 634.86,907.36 C632.46,902.50 631.81,899.84 631.67,894.14 C631.58,890.21 631.40,887.00 631.28,887.00 C631.15,887.00 630.36,888.33 629.53,889.95 C626.68,895.46 628.15,907.00 632.56,913.73 C634.25,916.31 635.29,916.55 636.82,914.72 ZM 610.45 911.53 C608.23,906.23 608.63,898.33 611.42,892.34 C616.67,881.08 634.43,868.00 644.49,868.00 C649.28,868.00 654.00,871.45 654.00,874.95 C654.00,877.33 652.48,877.69 651.64,875.50 C650.73,873.14 645.38,873.62 643.56,876.22 C638.37,883.62 648.02,890.71 655.39,884.91 C659.14,881.95 661.00,877.84 661.00,872.45 C661.00,868.50 660.49,867.29 657.60,864.40 C654.61,861.41 653.57,861.00 649.05,861.00 C646.22,861.00 642.46,861.73 640.70,862.63 C634.21,865.94 621.58,875.49 615.07,882.00 C607.94,889.13 605.09,893.91 604.25,900.14 C603.97,902.26 603.35,904.00 602.87,904.00 C601.69,904.00 601.77,896.75 602.98,893.57 C603.51,892.15 603.73,891.00 603.46,891.00 C603.19,891.00 599.35,893.33 594.92,896.17 L 586.88 901.34 L 591.42 903.07 C593.91,904.01 598.71,907.09 602.07,909.89 C605.43,912.70 609.01,915.00 610.04,915.00 C611.77,915.00 611.80,914.77 610.45,911.53 ZM 491.10 907.73 C495.71,904.65 498.00,899.74 498.00,892.91 C498.00,878.48 487.11,860.80 474.37,854.57 C461.19,848.11 447.67,854.66 447.67,867.50 C447.67,875.79 453.93,882.50 461.66,882.50 C465.37,882.50 466.61,882.00 468.59,879.69 C471.27,876.58 471.57,874.35 469.83,870.52 C467.69,865.83 460.89,866.06 460.18,870.85 C459.80,873.44 458.40,873.67 457.79,871.25 C456.85,867.57 458.91,863.27 462.40,861.61 C466.72,859.56 468.55,859.61 473.50,861.89 C483.41,866.45 492.55,880.63 492.32,891.09 C492.18,897.79 489.43,903.73 484.78,907.39 L 481.50 909.98 L 484.60 909.99 C486.31,909.99 489.23,908.98 491.10,907.73 ZM 540.23 907.87 C531.67,902.39 529.43,889.93 534.92,878.33 C540.16,867.26 551.02,859.03 558.54,860.44 C561.48,860.99 567.03,865.84 566.99,867.83 C566.94,869.87 565.64,873.00 564.82,873.00 C564.31,873.00 564.18,872.52 564.54,871.94 C565.51,870.36 562.03,867.00 559.42,867.00 C556.96,867.00 553.00,871.25 553.00,873.88 C553.01,874.77 553.88,876.94 554.96,878.70 C560.27,887.42 574.72,881.23 576.51,869.47 C576.97,866.44 576.57,864.45 574.81,861.06 C571.60,854.88 568.24,852.72 561.07,852.20 C554.19,851.70 548.15,854.07 541.90,859.71 C533.32,867.46 526.04,882.51 526.04,892.50 C526.04,902.44 532.09,910.01 540.00,909.98 L 543.50 909.97 L 540.23 907.87 ZM 473.50 895.17 C475.16,894.23 477.53,891.40 478.81,888.82 C480.84,884.74 480.99,883.68 480.02,880.09 C478.84,875.69 477.00,874.57 477.00,878.25 C476.99,881.77 473.58,886.50 469.72,888.33 C464.52,890.80 456.87,890.48 451.22,887.57 C434.37,878.90 417.28,852.91 416.95,835.50 C416.88,831.78 416.80,831.68 415.85,834.00 C415.28,835.38 415.06,839.20 415.35,842.50 C415.77,847.19 415.66,847.96 414.86,846.00 C413.07,841.65 413.51,832.89 415.77,827.78 C419.46,819.44 429.24,816.15 434.55,821.45 C437.06,823.97 437.92,829.31 436.00,830.50 C435.43,830.85 435.00,830.02 435.00,828.59 C435.00,823.26 427.03,822.62 425.21,827.81 C424.05,831.16 425.82,836.33 428.47,837.35 C432.80,839.01 437.18,838.02 440.60,834.60 C443.59,831.61 444.00,830.57 444.00,826.05 C444.00,806.51 418.95,803.03 410.40,821.38 C403.37,836.48 412.06,860.82 431.50,880.50 C440.66,889.78 448.55,894.94 456.62,896.94 C461.64,898.18 469.69,897.34 473.50,895.17 ZM 569.02 896.40 C582.29,892.46 598.01,877.88 608.37,859.89 C615.93,846.77 618.26,829.90 613.75,820.98 C610.85,815.25 604.35,810.32 598.52,809.45 C589.28,808.06 580.00,815.70 580.00,824.70 C580.00,834.42 587.38,840.48 595.46,837.38 C600.41,835.48 600.60,826.29 595.71,824.57 C592.55,823.46 589.01,826.01 588.98,829.40 C588.97,831.12 588.80,831.23 588.00,830.00 C584.95,825.29 589.36,819.00 595.70,819.00 C605.37,819.01 612.26,829.86 610.00,841.50 L 609.23 845.50 L 609.04 840.50 C608.80,833.90 607.17,829.78 607.07,835.50 C606.85,847.98 598.52,864.51 586.24,876.82 C575.78,887.31 569.65,890.43 560.77,889.79 C555.20,889.39 554.41,889.02 550.86,885.21 C548.03,882.18 546.99,880.20 546.97,877.79 C546.94,874.68 546.86,874.61 545.47,876.44 C544.66,877.51 544.00,880.34 544.00,882.74 C544.00,894.69 554.85,900.61 569.02,896.40 ZM 423.87 882.12 C423.12,881.09 419.43,876.71 415.69,872.39 C408.65,864.29 401.45,851.37 400.43,845.00 C399.96,842.11 400.28,842.48 402.28,847.16 C405.09,853.72 409.99,862.34 410.58,861.75 C410.80,861.53 409.89,859.08 408.56,856.31 C404.17,847.22 403.00,840.40 402.99,823.86 C402.98,808.14 401.99,801.78 398.52,795.00 C395.72,789.54 390.91,783.17 388.29,781.45 C385.95,779.92 385.96,780.01 388.91,785.69 C393.33,794.20 394.73,802.30 395.37,823.06 C395.83,837.91 396.37,843.01 398.06,848.56 C401.92,861.24 407.81,869.80 419.51,879.74 C425.03,884.44 425.92,884.92 423.87,882.12 ZM 609.35 874.75 C624.93,859.38 628.94,848.42 629.00,821.00 C629.04,803.17 630.47,794.75 634.99,785.87 L 638.06 779.82 L 635.13 781.91 C629.49,785.92 624.05,796.14 621.51,807.50 C621.14,809.15 620.87,817.28 620.92,825.57 C621.00,841.74 620.04,847.02 615.32,856.35 C613.97,859.02 613.08,861.41 613.34,861.68 C613.94,862.27 618.72,854.27 621.80,847.53 C623.38,844.06 623.91,843.43 623.49,845.50 C621.76,854.13 613.21,867.89 603.15,878.25 C593.96,887.71 599.23,884.74 609.35,874.75 ZM 359.57 860.32 C361.01,858.43 363.73,856.14 365.60,855.25 L 369.01 853.62 L 364.60 850.76 C361.93,849.02 359.73,846.63 359.01,844.70 C358.36,842.94 356.73,838.81 355.39,835.52 L 352.95 829.53 L 357.22 833.59 C364.92,840.89 382.37,853.80 394.82,861.40 C395.64,861.90 395.36,860.67 394.10,858.19 C392.50,855.05 389.56,852.51 380.77,846.65 C367.55,837.84 358.29,829.71 346.78,816.83 C334.20,802.76 323.78,790.00 324.86,790.00 C325.39,790.00 332.00,796.64 339.54,804.75 C356.24,822.72 364.18,829.82 378.50,839.58 C386.84,845.27 389.58,846.70 389.83,845.49 C390.45,842.53 387.28,839.47 374.37,830.59 C363.49,823.10 358.18,818.39 340.00,800.04 C320.49,780.36 317.80,778.01 310.93,774.68 C300.42,769.58 298.66,769.97 305.70,775.84 C313.75,782.55 320.74,790.85 334.19,809.64 C349.02,830.36 353.00,840.32 353.00,856.69 C353.00,860.23 353.54,865.23 354.20,867.81 L 355.40 872.50 L 356.17 868.14 C356.59,865.74 358.12,862.22 359.57,860.32 ZM 671.15 856.50 C672.59,835.95 675.12,829.85 691.74,807.00 C703.43,790.92 713.38,779.61 721.50,773.15 L 725.50 769.97 L 718.74 772.44 C708.42,776.22 704.10,779.68 683.00,801.03 C664.86,819.39 656.15,826.81 642.45,835.57 C636.66,839.28 633.62,842.91 634.17,845.46 C634.42,846.64 636.99,845.37 644.67,840.26 C659.04,830.70 666.97,823.67 683.01,806.27 C690.73,797.90 697.99,790.54 699.14,789.92 C700.29,789.31 696.15,794.81 689.93,802.15 C668.58,827.34 662.21,833.44 644.09,846.02 C636.27,851.45 631.56,855.42 630.60,857.41 C629.79,859.08 629.26,860.60 629.43,860.77 C630.53,861.86 658.38,841.63 666.66,833.73 L 670.81 829.77 L 667.52 838.63 C664.56,846.60 663.76,847.81 659.67,850.55 L 655.12 853.61 L 658.64 855.51 C663.58,858.16 666.89,862.46 667.65,867.19 C668.71,873.83 670.27,869.06 671.15,856.50 ZM 441.98 857.04 C442.63,855.82 443.01,854.70 442.83,854.53 C441.58,853.41 427.70,846.96 427.33,847.33 C426.63,848.03 432.36,858.89 436.12,864.00 L 439.43 868.50 L 440.12 863.87 C440.49,861.33 441.33,858.25 441.98,857.04 ZM 590.67 859.75 C595.38,852.18 597.82,847.00 596.68,847.00 C596.21,847.00 581.75,854.01 581.19,854.51 C581.02,854.66 581.58,856.45 582.43,858.49 C583.29,860.54 584.08,863.51 584.20,865.10 C584.33,866.70 584.67,868.00 584.98,868.00 C585.28,868.00 587.84,864.29 590.67,859.75 ZM 487.47 849.52 C484.34,842.91 481.33,840.95 477.49,843.00 C476.12,843.74 475.00,844.68 475.00,845.10 C475.00,845.51 477.64,847.46 480.87,849.42 C484.11,851.39 487.32,853.68 488.02,854.52 C490.39,857.38 490.15,855.20 487.47,849.52 ZM 545.25 848.10 C549.59,845.48 549.76,844.96 546.89,843.16 C545.24,842.13 544.18,842.10 541.96,843.02 C539.31,844.11 537.59,846.69 535.05,853.36 L 533.98 856.18 L 537.74 853.27 C539.81,851.67 543.19,849.34 545.25,848.10 ZM 452.54 846.38 C453.89,845.50 457.91,844.54 461.48,844.25 C466.58,843.84 468.07,843.34 468.53,841.91 C469.66,838.33 474.88,835.00 479.33,835.02 C481.62,835.02 484.15,835.44 484.95,835.95 C486.09,836.67 486.95,835.44 489.05,830.04 C491.75,823.10 495.19,816.53 504.54,800.50 L 509.79 791.50 L 510.39 763.59 C510.72,748.24 511.22,735.45 511.49,735.17 C512.84,733.83 513.14,737.80 513.70,764.13 L 514.30 792.50 L 517.00 796.50 C521.29,802.86 531.59,821.89 534.66,829.13 L 537.47 835.77 L 543.02 835.26 C547.96,834.82 548.91,835.05 551.73,837.42 C553.47,838.89 555.15,840.91 555.47,841.91 C555.93,843.34 557.42,843.84 562.52,844.25 C566.13,844.54 570.16,845.53 571.61,846.48 C574.05,848.08 574.49,848.08 578.57,846.53 L 582.92 844.87 L 579.30 841.69 C572.67,835.87 570.43,827.01 573.22,817.62 C574.74,812.50 582.27,804.73 587.31,803.06 C590.33,802.07 591.00,801.36 591.02,799.17 C591.07,793.41 596.86,784.76 603.66,780.31 C605.96,778.80 606.00,778.49 606.00,761.90 L 606.00 745.03 L 600.75 742.37 C593.13,738.52 573.84,726.82 574.32,726.35 C575.05,725.62 590.60,732.72 599.17,737.70 C602.29,739.52 605.10,741.00 605.43,741.00 C605.76,741.00 605.95,736.95 605.86,732.00 C605.71,723.58 605.57,723.00 603.60,723.00 C596.64,722.99 576.13,720.51 561.52,717.92 C543.56,714.74 529.43,711.39 508.98,705.48 C476.30,696.02 461.77,692.72 436.20,688.96 C418.16,686.30 418.00,686.31 418.00,689.98 C418.00,693.47 418.40,693.61 431.29,694.45 C436.12,694.76 446.02,696.16 453.29,697.55 C466.56,700.09 488.42,705.91 487.64,706.70 C487.41,706.93 482.33,706.21 476.36,705.09 C470.39,703.98 456.05,701.42 444.50,699.41 C432.95,697.39 422.26,695.52 420.75,695.26 L 418.00 694.77 L 418.00 705.04 L 418.00 715.31 L 432.25 714.64 C440.09,714.28 448.75,713.70 451.50,713.36 C454.25,713.01 456.23,713.02 455.91,713.38 C455.02,714.34 437.73,717.98 427.50,719.35 C418.80,720.52 418.49,720.65 418.18,723.28 C418.01,724.78 418.04,726.00 418.25,726.00 C418.46,726.00 421.00,725.30 423.89,724.44 C431.59,722.15 432.21,723.18 424.85,726.03 L 418.50 728.50 L 418.20 734.88 C417.85,742.30 416.99,742.29 429.55,735.08 C439.95,729.10 459.00,719.67 459.56,720.22 C460.08,720.75 441.70,732.14 428.75,739.31 L 418.00 745.27 L 418.00 761.94 L 418.00 778.61 L 422.45 781.75 C427.61,785.39 432.98,794.01 432.99,798.67 C433.00,801.43 433.47,802.00 436.63,803.04 C441.64,804.70 447.91,810.63 450.14,815.83 C452.44,821.18 452.56,830.02 450.40,834.58 C449.52,836.43 447.12,839.47 445.07,841.32 L 441.35 844.68 L 444.92 846.29 C449.45,848.32 449.57,848.33 452.54,846.38 ZM 653.50 818.50 C663.66,810.98 670.49,804.47 684.57,788.93 C697.05,775.14 697.08,775.08 701.96,762.80 C707.57,748.67 711.80,733.13 715.13,714.50 C717.15,703.19 717.45,698.31 717.42,677.00 C717.41,663.53 716.94,650.70 716.38,648.50 C715.57,645.29 715.34,647.87 715.24,661.50 C714.97,696.98 707.81,729.81 694.06,758.57 C683.85,779.92 666.96,802.75 650.79,817.05 C638.41,827.99 637.69,828.77 642.50,825.99 C644.70,824.72 649.65,821.35 653.50,818.50 ZM 379.30 822.16 C359.26,805.46 339.36,779.48 328.79,756.22 C321.39,739.91 314.92,718.02 311.58,698.00 C309.55,685.77 308.00,662.66 308.54,652.46 C308.93,645.16 308.87,644.83 307.81,648.50 C305.83,655.34 306.17,697.38 308.31,711.00 C311.68,732.52 318.29,755.32 325.55,770.50 C329.39,778.52 347.17,798.77 360.57,810.37 C367.96,816.77 382.49,826.93 384.30,826.98 C384.74,826.99 382.49,824.82 379.30,822.16 ZM 386.94 808.42 C385.65,794.57 380.40,783.17 372.20,776.41 C369.11,773.86 369.67,771.81 374.22,768.95 C376.88,767.28 378.78,766.96 384.25,767.23 L 391.00 767.57 L 391.00 752.34 L 391.00 737.12 L 386.75 738.56 C378.83,741.25 365.00,744.82 365.47,744.04 C365.73,743.62 371.58,741.12 378.47,738.49 L 391.00 733.70 L 391.00 727.35 C391.00,721.97 390.73,721.00 389.25,721.00 C388.29,721.00 381.48,720.30 374.13,719.44 C357.02,717.45 340.49,713.26 329.60,708.16 C324.87,705.94 321.00,704.50 321.00,704.96 C321.00,705.41 322.30,710.90 323.88,717.14 C332.24,750.13 347.43,778.08 370.49,802.89 C375.55,808.34 386.99,818.36 387.51,817.80 C387.67,817.64 387.41,813.41 386.94,808.42 ZM 656.19 800.11 C671.99,783.26 685.26,761.38 694.17,737.50 C696.94,730.07 702.99,708.01 703.00,705.31 C703.00,704.65 699.35,706.05 694.75,708.48 C681.07,715.71 661.73,720.79 641.25,722.55 L 633.00 723.26 L 633.00 728.48 L 633.00 733.69 L 644.34 737.94 C662.67,744.80 661.69,745.77 642.25,740.01 L 633.00 737.28 L 633.00 752.42 L 633.00 767.57 L 639.75 767.22 C647.07,766.85 653.18,769.10 653.83,772.40 C654.02,773.34 652.33,775.90 650.02,778.22 C641.74,786.50 637.00,798.55 637.00,811.33 L 637.00 818.20 L 642.94 813.05 C646.21,810.22 652.17,804.40 656.19,800.11 ZM 410.02 709.69 C410.03,626.32 410.28,608.36 411.48,602.70 C413.02,595.41 418.42,585.39 422.55,582.14 L 424.99 580.22 L 422.55 574.86 C415.55,559.46 417.45,536.95 427.42,517.15 C436.96,498.21 444.23,489.87 488.10,447.50 C494.94,440.90 502.95,432.24 505.90,428.25 C508.86,424.26 511.61,421.00 512.02,421.00 C512.43,421.00 514.56,423.36 516.76,426.25 C523.16,434.66 532.92,445.25 541.00,452.57 C568.85,477.79 577.44,486.83 587.24,501.23 C605.13,527.52 610.53,555.05 601.61,574.55 L 599.20 579.80 L 602.49 582.99 C604.30,584.74 606.97,588.37 608.44,591.06 C613.98,601.25 613.96,600.85 613.98,709.69 C613.99,766.82 614.38,810.12 614.89,810.43 C616.64,811.52 616.98,805.85 617.65,764.25 C618.02,741.01 618.47,722.14 618.64,722.31 C618.82,722.49 619.19,730.48 619.46,740.06 C619.73,749.65 620.24,765.31 620.59,774.85 L 621.22 792.21 L 623.11 789.35 C624.91,786.62 624.99,783.22 625.00,711.00 C625.02,625.36 625.71,607.68 629.54,594.46 C634.52,577.27 645.37,559.88 660.31,545.14 L 667.77 537.78 L 677.67 547.64 C700.77,570.62 713.44,594.31 718.91,624.78 C721.77,640.68 723.31,661.93 722.82,678.90 C722.59,687.17 722.54,693.79 722.72,693.61 C722.90,693.44 723.91,686.65 724.96,678.54 C726.02,670.42 727.19,663.50 727.57,663.14 C729.17,661.66 727.02,693.24 724.56,707.50 C721.35,726.13 718.23,737.76 711.92,754.67 C709.21,761.92 707.00,768.11 707.00,768.44 C707.00,768.78 708.08,768.34 709.40,767.47 C711.11,766.35 713.25,762.07 716.86,752.57 C732.28,712.01 739.38,668.37 737.00,628.95 C734.79,592.58 734.67,579.11 736.40,565.05 C738.20,550.47 740.70,539.51 744.56,529.24 C745.92,525.64 746.86,522.52 746.65,522.32 C746.44,522.11 743.67,524.75 740.48,528.20 C731.40,538.01 725.00,553.59 725.00,565.91 C725.00,572.99 726.25,571.46 728.23,561.98 C729.69,554.98 735.78,539.44 736.70,540.36 C736.92,540.59 735.97,544.76 734.59,549.63 C733.21,554.51 731.32,563.67 730.40,570.00 C728.92,580.22 728.89,582.90 730.09,594.00 C731.61,608.01 731.90,636.44 730.64,648.32 C730.19,652.63 729.61,655.94 729.35,655.68 C729.09,655.43 728.22,650.10 727.40,643.86 C723.87,616.68 719.05,599.30 710.34,582.32 C703.56,569.13 695.95,559.12 681.24,544.07 L 667.97 530.50 L 655.20 543.50 C640.56,558.42 632.14,570.26 626.47,583.95 L 622.61 593.25 L 621.41 589.78 C620.75,587.87 619.50,584.93 618.62,583.23 C617.18,580.45 617.17,579.20 618.51,570.27 C624.12,532.73 604.93,494.20 560.88,454.54 C552.97,447.42 543.21,438.20 539.19,434.05 C532.03,426.66 521.78,412.54 518.42,405.47 C516.80,402.07 516.52,401.92 512.19,402.20 C507.70,402.50 507.60,402.58 503.35,409.80 C494.62,424.59 484.92,435.33 461.00,456.63 C434.76,479.99 417.37,504.68 408.93,530.50 C405.99,539.51 405.63,541.93 405.28,555.00 C405.01,565.04 405.30,571.04 406.22,574.50 C407.51,579.37 407.46,579.67 404.32,585.95 C401.71,591.16 400.96,592.02 400.41,590.45 C397.90,583.28 389.23,567.11 384.57,560.90 C379.26,553.84 357.33,531.00 355.86,531.00 C354.50,531.00 328.77,558.88 323.89,565.64 C318.42,573.23 310.22,588.59 307.14,597.04 C302.02,611.03 297.70,631.12 296.37,647.08 C296.01,651.44 295.37,655.00 294.94,655.00 C292.48,655.00 291.79,613.15 293.94,594.71 C294.92,586.31 294.95,581.67 294.04,573.71 C292.81,562.82 289.66,547.95 287.34,542.07 C286.08,538.88 286.09,538.70 287.44,540.40 C289.95,543.58 294.76,556.12 296.10,563.00 C296.80,566.58 297.73,569.93 298.18,570.45 C299.38,571.84 299.18,561.96 297.89,555.80 C295.54,544.60 285.92,527.93 278.96,522.97 L 276.22 521.02 L 279.13 528.51 C286.97,548.71 289.64,569.00 288.39,599.00 C287.11,629.91 287.33,668.84 288.84,679.50 C291.22,696.23 295.09,714.43 299.14,728.00 C307.31,755.34 313.25,768.84 317.15,768.98 C317.50,768.99 315.89,764.16 313.56,758.25 C303.89,733.68 297.29,702.60 296.30,677.00 C295.99,669.03 296.05,662.79 296.42,663.14 C296.80,663.49 297.99,670.66 299.07,679.07 C300.15,687.49 301.18,694.52 301.36,694.70 C301.54,694.88 301.48,688.34 301.21,680.16 C300.36,653.61 304.24,621.89 310.65,603.03 C314.10,592.88 319.91,581.36 326.78,571.04 C332.46,562.49 354.23,539.00 356.46,539.00 C358.17,539.00 372.85,554.35 378.45,562.00 C386.85,573.45 393.95,589.36 396.76,603.00 C398.06,609.33 398.37,624.24 398.71,698.33 C399.10,780.60 399.24,786.35 400.92,789.11 L 402.71 792.06 L 403.35 786.78 C403.70,783.88 404.04,774.08 404.11,765.00 C404.18,755.92 404.52,742.42 404.87,735.00 C405.37,724.23 405.66,729.94 406.29,763.30 C407.07,804.97 407.46,811.45 409.12,810.42 C409.62,810.12 410.01,766.12 410.02,709.69 ZM 606.00 796.50 C606.00,792.38 605.58,789.00 605.07,789.00 C603.48,789.00 599.91,794.81 599.34,798.32 C598.84,801.40 599.05,801.73 602.15,802.72 C603.99,803.31 605.61,803.84 605.75,803.90 C605.89,803.95 606.00,800.62 606.00,796.50 ZM 424.80 801.54 C426.52,799.82 421.45,789.00 418.93,789.00 C418.42,789.00 418.00,792.21 418.00,796.12 L 418.00 803.25 L 421.18 802.61 C422.92,802.27 424.55,801.78 424.80,801.54 ZM 392.41 778.64 C391.76,776.92 387.61,774.99 384.70,775.04 C383.06,775.07 383.64,775.67 387.00,777.41 C392.49,780.24 393.08,780.37 392.41,778.64 ZM 637.00 777.41 L 641.50 774.90 L 638.00 775.47 C636.08,775.79 633.62,776.94 632.53,778.02 C629.88,780.68 631.54,780.45 637.00,777.41 ZM 606.00 701.50 C606.00,690.28 605.75,688.00 604.53,688.00 C599.93,688.00 529.31,701.35 528.24,702.43 C527.68,702.99 548.01,707.67 561.00,709.97 C574.89,712.43 593.58,714.75 600.75,714.89 L 606.00 715.00 L 606.00 701.50 ZM 645.46 713.96 C656.86,712.65 667.73,710.47 676.00,707.83 C683.76,705.35 697.12,698.63 699.48,696.02 C701.08,694.26 701.03,694.07 698.73,692.56 C697.38,691.68 691.83,689.79 686.39,688.37 C677.68,686.09 673.90,685.72 654.75,685.26 L 633.00 684.74 L 633.00 699.87 C633.00,713.62 633.16,715.00 634.75,714.99 C635.71,714.99 640.53,714.52 645.46,713.96 ZM 391.00 699.00 L 391.00 685.00 L 375.75 685.00 C358.08,685.01 345.57,686.29 335.00,689.18 C325.94,691.65 321.70,693.71 322.61,695.17 C323.97,697.38 342.25,705.18 351.72,707.60 C360.99,709.96 379.10,712.66 387.25,712.89 L 391.00 713.00 L 391.00 699.00 ZM 528.07 694.04 C534.44,692.96 545.69,690.74 553.07,689.10 C560.46,687.46 575.39,684.65 586.25,682.86 L 606.00 679.60 L 606.00 673.80 C606.00,670.61 605.71,668.00 605.35,668.00 C604.99,668.00 597.27,670.71 588.20,674.02 C579.13,677.33 571.56,679.90 571.39,679.72 C571.22,679.55 578.82,675.98 588.29,671.78 L 605.50 664.15 L 605.80 658.58 C605.96,655.51 605.83,653.00 605.49,653.00 C605.16,653.00 602.77,654.18 600.19,655.62 C589.71,661.48 562.57,675.22 563.50,674.20 C564.05,673.60 573.05,667.93 583.50,661.61 C608.66,646.37 606.18,648.64 605.81,641.23 L 605.50 634.95 L 596.80 641.47 C588.31,647.82 560.27,667.24 557.76,668.50 C553.27,670.76 585.11,645.09 597.31,636.62 L 606.11 630.50 L 605.69 617.42 C605.31,605.82 604.96,603.65 602.51,598.20 C600.70,594.18 597.89,590.30 594.38,586.97 C591.42,584.17 589.00,581.45 589.00,580.92 C589.00,580.39 590.16,578.12 591.58,575.87 C604.43,555.52 596.50,523.71 571.04,493.48 C567.27,489.00 558.63,480.19 551.85,473.92 C531.92,455.47 521.30,445.01 516.80,439.37 L 512.58 434.08 L 505.54 441.78 C495.49,452.79 494.17,454.07 477.34,469.28 C469.01,476.81 459.72,485.79 456.71,489.24 C439.11,509.36 428.66,530.02 426.48,549.00 C425.64,556.30 428.09,567.73 431.97,574.60 C433.64,577.55 435.00,580.39 435.00,580.90 C435.00,581.42 432.37,584.47 429.16,587.68 C421.13,595.71 418.97,601.62 418.26,617.60 L 417.72 629.70 L 427.61 637.01 C438.32,644.94 458.36,660.86 464.00,665.91 C467.36,668.93 467.26,668.90 461.50,665.27 C451.46,658.95 432.89,645.98 425.80,640.33 C422.12,637.40 418.86,635.00 418.55,635.00 C418.25,635.00 418.00,637.88 418.00,641.40 L 418.00 647.80 L 432.75 656.61 C449.11,666.37 462.62,675.00 461.57,675.00 C460.93,675.00 449.62,669.18 428.31,657.87 C423.26,655.19 418.85,653.00 418.52,653.00 C418.18,653.00 418.04,655.51 418.20,658.57 L 418.50 664.14 L 426.50 667.66 C430.90,669.60 436.30,671.99 438.50,672.98 C440.70,673.97 444.88,675.79 447.78,677.02 C458.25,681.48 451.98,679.89 435.93,674.01 C426.92,670.70 419.17,668.00 418.72,668.00 C418.27,668.00 418.03,670.36 418.20,673.25 L 418.50 678.50 L 425.00 679.25 C446.96,681.77 471.37,686.71 498.00,694.03 C506.60,696.40 514.08,696.40 528.07,694.04 ZM 336.00 680.62 C347.43,678.15 359.99,677.02 376.25,677.01 L 391.00 677.00 L 391.00 674.23 C391.00,671.58 390.63,671.38 381.75,669.15 C369.84,666.17 335.24,654.75 336.66,654.28 C337.57,653.98 377.42,663.81 387.75,666.89 L 391.00 667.86 L 391.00 662.07 L 391.00 656.29 L 381.25 651.99 C367.14,645.78 335.00,630.20 335.00,629.57 C335.00,629.27 337.14,629.88 339.75,630.91 C354.35,636.70 370.79,643.37 380.29,647.37 L 391.08 651.91 L 390.79 644.21 L 390.50 636.50 L 379.07 628.77 C365.79,619.79 362.98,617.28 371.50,622.00 C390.56,632.58 390.28,632.46 389.48,629.87 C386.98,621.81 381.85,616.01 374.17,612.57 C371.17,611.22 370.01,610.16 370.34,609.07 C370.61,608.21 371.81,604.80 373.02,601.50 C377.41,589.49 373.82,576.91 362.31,564.10 L 356.57 557.69 L 351.33 563.55 C338.99,577.35 335.18,593.78 341.50,606.00 C342.33,607.60 343.00,609.33 343.00,609.86 C343.00,610.38 340.19,612.15 336.75,613.78 C333.31,615.41 329.05,618.19 327.28,619.96 C323.17,624.07 319.49,631.87 318.09,639.43 C316.92,645.81 316.62,673.20 317.63,681.64 L 318.25 686.78 L 323.38 684.51 C326.19,683.27 331.88,681.52 336.00,680.62 ZM 706.91 661.00 C706.98,641.55 705.77,634.02 701.25,625.72 C698.27,620.23 695.21,617.57 687.00,613.29 C683.97,611.72 681.59,609.99 681.70,609.46 C681.81,608.93 682.87,605.80 684.06,602.50 C687.11,594.01 686.38,586.16 681.65,576.66 C677.88,569.08 669.78,559.00 667.46,559.00 C665.25,559.00 655.95,570.90 652.65,577.94 C648.42,586.97 648.15,592.69 651.48,602.36 C652.96,606.65 654.02,610.29 653.84,610.46 C653.65,610.62 651.47,611.76 649.00,612.99 C641.51,616.71 636.95,622.02 634.51,629.90 C633.80,632.19 634.15,632.10 641.63,628.02 C645.96,625.66 651.41,622.62 653.75,621.27 C661.68,616.68 658.05,619.87 645.50,628.52 L 633.00 637.13 L 633.00 644.07 C633.00,647.88 633.27,651.00 633.60,651.00 C633.94,651.00 646.12,646.23 660.67,640.40 C675.23,634.57 687.33,630.00 687.57,630.24 C688.06,630.73 657.79,645.44 642.75,652.02 L 633.00 656.29 L 633.00 661.64 C633.00,664.59 633.34,667.00 633.75,666.99 C634.16,666.99 646.18,664.05 660.45,660.47 C674.72,656.89 686.87,654.12 687.45,654.32 C688.81,654.77 663.35,663.25 646.56,667.93 C634.38,671.33 633.48,671.75 633.20,674.16 L 632.89 676.74 L 654.70 677.29 C678.35,677.88 689.61,679.61 700.00,684.22 L 705.50 686.66 L 706.18 682.58 C706.55,680.34 706.88,670.62 706.91,661.00 ZM 281.30 606.50 C280.26,602.61 277.89,601.00 273.22,601.00 L 268.74 601.00 L 271.41 604.25 C274.28,607.75 279.91,618.54 280.14,621.00 C280.22,621.83 280.63,619.35 281.06,615.50 C281.48,611.65 281.59,607.60 281.30,606.50 ZM 747.26 612.79 C748.38,610.20 750.58,606.86 752.15,605.36 C753.72,603.85 755.00,602.26 755.00,601.81 C755.00,601.37 753.20,601.00 751.00,601.00 C744.41,601.00 742.99,603.28 743.07,613.75 C743.12,620.78 743.34,622.01 744.17,620.00 C744.75,618.62 746.13,615.38 747.26,612.79 ZM 319.77 605.46 C322.66,602.57 322.72,602.33 322.12,595.04 L 321.50 587.57 L 317.87 596.54 C314.71,604.32 312.06,612.51 310.42,619.50 C310.16,620.60 311.49,618.56 313.38,614.96 C315.27,611.36 318.15,607.08 319.77,605.46 ZM 712.04 613.17 C709.98,605.16 703.90,589.00 702.95,589.00 C702.62,589.00 702.53,590.28 702.76,591.84 C702.99,593.41 702.74,596.30 702.19,598.27 C701.27,601.60 701.45,602.14 704.64,605.68 C706.53,607.78 709.28,612.07 710.74,615.22 C712.20,618.37 713.51,620.83 713.65,620.68 C713.79,620.54 713.07,617.16 712.04,613.17 ZM 707.31 616.78 C706.31,615.02 703.36,611.39 700.75,608.73 L 696.00 603.90 L 697.13 599.38 C700.61,585.57 694.19,571.64 675.35,552.11 L 668.11 544.61 L 662.30 550.03 C654.06,557.74 645.67,568.37 641.54,576.35 C638.44,582.35 638.00,584.11 638.00,590.45 C638.00,594.44 638.50,599.13 639.11,600.88 C640.16,603.90 639.98,604.31 635.61,608.99 C633.07,611.70 631.00,614.66 631.00,615.56 C631.00,616.78 631.71,616.45 633.75,614.28 C635.26,612.66 638.37,610.11 640.67,608.59 L 644.83 605.84 L 643.23 602.17 C640.55,596.06 641.08,583.86 644.36,575.91 C647.38,568.61 657.45,555.35 663.90,550.19 L 668.04 546.88 L 675.94 554.88 C688.58,567.67 695.17,583.47 693.49,596.96 C693.11,600.01 692.40,603.25 691.91,604.16 C691.21,605.48 691.90,606.34 695.26,608.33 C697.59,609.71 701.51,612.90 703.96,615.42 C706.41,617.94 708.57,620.00 708.76,620.00 C708.96,620.00 708.30,618.55 707.31,616.78 ZM 329.48 608.31 C332.01,607.10 332.88,606.15 332.44,605.05 C330.53,600.28 329.77,590.75 330.87,585.30 C333.20,573.69 341.95,559.42 351.77,551.19 L 356.90 546.89 L 363.82 553.70 C379.89,569.51 386.08,586.38 381.11,600.80 L 379.28 606.09 L 382.26 607.64 C383.91,608.49 387.20,611.19 389.59,613.65 C393.82,618.00 393.91,618.04 392.86,615.03 C392.27,613.33 390.02,610.22 387.87,608.11 L 383.96 604.27 L 385.51 598.38 C387.50,590.87 386.72,584.36 382.86,576.50 C379.31,569.24 370.64,558.31 362.49,550.78 L 356.48 545.23 L 350.93 550.36 C343.87,556.90 335.26,567.14 331.70,573.24 C330.17,575.85 328.19,580.94 327.30,584.56 C325.93,590.13 325.86,592.14 326.89,597.68 L 328.09 604.23 L 324.30 607.48 C322.21,609.27 319.41,612.71 318.08,615.12 L 315.65 619.50 L 320.78 614.76 C323.59,612.15 327.51,609.25 329.48,608.31 ZM 726.98 591.51 C725.98,584.59 722.73,574.98 716.70,561.04 L 715.21 557.58 L 713.06 562.14 L 710.92 566.70 L 714.95 574.17 C718.80,581.31 726.79,603.60 727.18,608.28 C727.29,609.50 727.54,608.03 727.75,605.00 C727.97,601.97 727.62,595.90 726.98,591.51 ZM 300.21 596.00 C301.86,590.78 305.46,582.11 308.20,576.75 L 313.18 567.01 L 310.96 562.42 L 308.74 557.83 L 305.34 565.66 C299.28,579.58 296.92,588.58 296.48,599.48 C296.25,604.99 296.32,608.60 296.63,607.50 C296.95,606.40 298.56,601.22 300.21,596.00 ZM 392.45 602.25 C391.69,599.09 391.04,595.83 391.01,595.00 C390.95,593.67 390.84,593.67 390.08,595.00 C389.61,595.83 388.92,597.95 388.54,599.73 C387.95,602.48 388.27,603.34 390.67,605.45 C392.23,606.82 393.57,607.95 393.66,607.97 C393.75,607.99 393.20,605.41 392.45,602.25 ZM 635.45 599.53 C634.79,595.45 633.03,592.29 632.96,595.05 C632.94,595.85 632.32,599.07 631.56,602.21 L 630.20 607.91 L 633.15 605.73 C635.83,603.75 636.04,603.18 635.45,599.53 ZM 268.25 595.42 C268.57,595.10 268.17,593.25 267.36,591.32 C266.55,589.38 266.05,586.60 266.24,585.15 C266.57,582.68 266.71,582.78 268.41,586.77 C270.48,591.63 274.22,595.00 277.53,595.00 C279.57,595.00 279.71,594.69 279.02,591.75 C277.89,587.00 274.18,577.79 272.52,575.61 C271.23,573.93 270.74,573.86 267.92,575.03 C262.10,577.44 259.08,586.49 262.15,592.32 C263.85,595.55 266.68,596.99 268.25,595.42 ZM 759.60 595.23 C763.08,592.91 764.06,584.96 761.48,579.97 C760.65,578.35 758.54,576.29 756.79,575.39 C753.66,573.77 753.58,573.79 751.38,576.54 C750.16,578.08 748.02,582.75 746.64,586.92 C744.12,594.49 744.12,594.50 746.20,594.84 C749.22,595.33 753.17,592.04 755.71,586.94 L 757.92 582.50 L 757.96 585.80 C757.98,587.61 757.34,590.37 756.54,591.92 C754.68,595.51 756.40,597.37 759.60,595.23 ZM 282.94 571.50 C281.99,560.14 278.70,542.22 278.26,546.00 C278.10,547.38 277.26,552.65 276.40,557.72 C274.85,566.79 274.86,567.00 276.95,569.93 C278.12,571.57 279.99,574.99 281.12,577.54 C282.25,580.08 283.30,582.02 283.47,581.83 C283.64,581.65 283.40,577.00 282.94,571.50 ZM 747.05 569.93 C749.12,567.02 749.13,566.98 747.33,556.03 C746.32,549.93 745.24,545.82 744.89,546.78 C743.74,549.90 741.00,570.76 741.02,576.18 L 741.04 581.50 L 743.01 577.18 C744.08,574.80 745.90,571.54 747.05,569.93 ZM 396.69 561.75 C396.41,560.51 396.48,556.30 396.86,552.40 L 397.55 545.30 L 393.30 547.56 C390.96,548.80 388.53,549.99 387.89,550.20 C386.93,550.52 395.68,564.00 396.85,564.00 C397.05,564.00 396.98,562.99 396.69,561.75 ZM 632.86 557.00 C635.67,553.15 637.40,550.00 636.70,550.00 C636.00,550.00 633.66,549.10 631.50,548.00 C629.34,546.90 627.45,546.00 627.29,546.00 C627.02,546.00 627.36,563.97 627.63,563.99 C627.70,564.00 630.05,560.85 632.86,557.00 ZM 316.67 546.84 C320.79,526.94 332.34,510.54 348.00,502.37 C352.75,499.89 354.62,499.50 361.68,499.50 C369.38,499.50 370.05,499.68 372.93,502.44 C376.66,506.01 376.86,509.20 373.50,511.41 C370.40,513.44 370.29,516.39 373.22,518.44 C376.20,520.53 378.62,520.40 382.02,517.98 C387.62,514.00 388.30,504.89 383.44,499.11 C375.10,489.20 356.91,489.84 341.30,500.59 C325.79,511.28 314.00,532.42 314.00,549.56 C314.00,552.74 314.26,555.08 314.57,554.76 C314.89,554.44 315.83,550.88 316.67,546.84 ZM 707.59 534.54 C700.64,512.29 679.65,493.45 660.44,492.21 C651.85,491.66 647.20,493.00 642.58,497.36 C635.60,503.94 635.97,514.49 643.33,518.50 C646.70,520.34 647.21,520.38 649.75,518.97 C653.47,516.89 653.83,513.59 650.56,511.45 C646.91,509.06 647.29,505.83 651.67,501.98 C655.25,498.84 655.53,498.77 662.92,499.22 C672.94,499.82 681.23,503.94 689.50,512.44 C699.02,522.22 705.51,535.42 708.69,551.50 C709.45,555.34 709.50,555.24 709.79,549.04 C710.02,544.27 709.45,540.49 707.59,534.54 ZM 353.23 517.12 C353.63,514.03 354.43,510.43 355.01,509.12 C355.60,507.81 355.91,506.58 355.71,506.38 C355.52,506.18 352.94,507.22 350.00,508.69 C343.67,511.84 334.48,520.77 331.10,527.04 L 328.70 531.50 L 331.60 528.85 C335.35,525.42 341.98,521.00 343.36,521.00 C343.95,521.00 342.16,523.36 339.38,526.25 C332.70,533.21 328.80,538.43 325.76,544.50 C320.47,555.08 321.76,554.41 337.11,538.59 C352.48,522.75 352.50,522.73 353.23,517.12 ZM 698.19 544.80 C695.41,539.08 691.93,534.09 686.99,528.75 C683.06,524.49 680.26,521.00 680.78,521.00 C682.16,521.00 688.99,525.72 692.86,529.35 L 696.22 532.50 L 692.89 527.00 C688.28,519.37 680.06,511.40 673.83,508.51 C670.94,507.18 668.45,506.22 668.28,506.39 C668.11,506.56 668.65,508.32 669.49,510.31 C670.32,512.31 671.00,515.82 671.00,518.11 C671.00,522.15 671.52,522.82 686.25,537.97 C694.64,546.59 701.66,553.52 701.86,553.38 C702.06,553.23 700.41,549.37 698.19,544.80 ZM 306.95 548.25 C307.52,546.19 307.99,543.67 307.99,542.65 C308.00,541.63 309.37,536.68 311.05,531.65 C318.26,510.04 331.77,494.53 354.13,482.21 C368.81,474.12 379.37,471.38 401.19,469.99 C423.29,468.58 430.00,467.11 441.36,461.21 C450.23,456.59 463.00,444.65 466.43,437.77 C475.22,420.12 459.93,402.93 442.50,410.87 C434.19,414.65 427.98,424.77 429.39,432.24 C430.77,439.63 439.35,442.84 444.58,437.93 C447.22,435.45 447.87,430.27 445.80,428.20 C443.89,426.29 440.38,426.81 438.67,429.25 L 437.10 431.50 L 437.05 428.98 C436.98,425.67 441.31,419.41 444.98,417.51 C448.76,415.55 454.95,415.58 457.78,417.56 C460.12,419.20 463.00,423.98 463.00,426.20 C462.99,426.92 462.13,426.09 461.08,424.37 C460.03,422.64 458.13,420.51 456.86,419.62 C453.96,417.58 447.99,417.53 445.44,419.52 C443.59,420.96 443.62,421.00 446.11,420.44 C449.90,419.59 455.65,422.37 457.97,426.19 C463.64,435.49 456.50,449.15 442.18,456.41 C432.74,461.19 423.78,463.04 395.50,466.02 C377.57,467.91 366.22,472.12 346.98,484.01 C341.65,487.31 336.97,490.00 336.59,490.00 C335.28,490.00 345.16,481.95 352.37,477.15 C356.29,474.53 365.31,468.85 372.41,464.52 C388.96,454.44 403.57,443.55 411.91,435.08 C415.54,431.41 422.41,422.57 427.18,415.45 L 435.86 402.50 L 432.71 402.17 C430.97,401.99 429.39,402.33 429.19,402.92 C429.00,403.51 426.70,407.26 424.10,411.25 C414.20,426.40 398.75,440.38 374.50,456.12 C366.25,461.48 354.78,468.93 349.02,472.68 C337.40,480.24 319.75,496.50 311.78,507.00 C309.06,510.58 304.80,517.60 302.31,522.62 C298.53,530.24 297.90,532.29 298.52,535.07 L 299.25 538.40 L 302.15 532.01 C307.17,520.94 317.20,507.10 325.93,499.18 C330.37,495.16 334.00,492.08 334.00,492.33 C334.00,492.59 331.06,496.33 327.47,500.65 C318.57,511.35 312.61,520.43 307.92,530.42 C303.36,540.16 302.51,543.58 303.43,548.46 C304.29,553.04 305.64,552.96 306.95,548.25 ZM 721.25 545.24 C721.34,542.66 719.97,538.51 716.80,531.84 C710.91,519.44 705.13,510.57 696.17,500.19 C692.23,495.61 689.00,491.63 689.00,491.34 C689.00,490.61 699.72,500.00 703.65,504.16 C709.44,510.28 717.60,522.62 721.02,530.40 C724.38,538.04 724.41,538.07 725.77,535.48 C727.03,533.07 726.79,532.17 722.62,523.68 C720.14,518.63 715.11,510.54 711.45,505.70 C699.75,490.24 689.31,481.97 646.00,453.84 C633.62,445.79 617.95,432.86 610.63,424.65 C604.50,417.77 595.00,404.50 595.00,402.81 C595.00,402.37 593.65,402.00 592.00,402.00 C590.35,402.00 589.00,402.29 589.00,402.64 C589.00,402.99 592.75,408.97 597.33,415.91 C609.69,434.67 620.78,444.91 645.50,460.42 C665.24,472.81 678.42,481.80 683.00,486.01 C688.10,490.69 687.32,490.42 677.67,484.20 C668.52,478.31 651.89,470.49 644.50,468.62 C641.20,467.78 634.22,466.62 629.00,466.04 C604.32,463.29 600.45,462.72 593.87,460.90 C572.32,454.93 559.63,440.00 565.53,427.57 C567.84,422.71 571.12,420.67 576.61,420.67 C582.61,420.67 580.70,418.87 574.03,418.23 C569.12,417.76 568.80,417.88 565.03,421.85 C561.32,425.74 561.17,425.81 562.12,423.08 C563.69,418.58 566.48,416.71 572.31,416.22 C576.95,415.84 577.99,416.12 580.83,418.51 C584.55,421.64 587.00,425.88 587.00,429.17 L 587.00 431.45 L 585.44 429.22 C582.57,425.12 577.00,427.45 577.00,432.76 C577.00,436.90 580.63,440.00 585.49,440.00 C599.51,440.00 597.70,419.49 583.00,411.75 C566.33,402.98 550.47,416.85 556.48,434.94 C559.49,444.01 574.20,457.66 587.13,463.38 C595.12,466.91 605.70,468.86 623.00,469.99 C645.66,471.46 655.26,474.08 671.50,483.22 C683.60,490.03 691.05,495.91 697.65,503.86 C705.00,512.71 713.44,529.98 715.87,541.15 C716.91,545.91 718.10,550.35 718.52,551.03 C719.64,552.85 721.08,549.80 721.25,545.24 ZM 389.87 541.56 C395.35,538.73 399.58,532.72 402.76,523.22 C404.44,518.23 405.56,513.90 405.26,513.60 C404.96,513.30 403.67,516.04 402.40,519.69 C398.15,531.83 386.96,539.61 378.44,536.34 C377.24,535.88 378.36,535.25 382.10,534.29 C388.61,532.63 393.30,528.49 396.61,521.50 C399.57,515.25 399.55,513.50 396.47,508.50 C394.69,505.60 394.01,503.07 394.01,499.31 C394.00,492.92 395.57,491.52 396.51,497.08 C397.36,502.12 402.40,508.23 405.35,507.80 C410.83,507.00 413.13,494.96 409.24,487.42 C407.16,483.39 401.26,478.00 398.93,478.00 C398.27,478.00 398.88,478.90 400.28,480.00 C404.09,483.00 407.00,489.82 407.00,495.76 C407.00,502.46 405.39,503.37 404.77,497.01 C403.60,484.81 391.68,476.19 379.52,478.74 C374.26,479.84 361.22,484.60 359.71,485.96 C359.28,486.35 361.41,486.46 364.44,486.21 C379.12,485.00 392.00,495.06 392.00,507.75 C392.00,522.73 377.85,531.20 368.07,522.07 C365.53,519.69 365.00,518.43 365.00,514.72 C365.00,511.96 365.58,509.77 366.50,509.00 C368.68,507.19 368.34,506.00 365.65,506.00 C361.24,506.00 357.39,512.94 358.51,518.89 C358.99,521.46 361.67,524.85 369.40,532.65 C378.75,542.10 379.97,543.00 383.37,543.00 C385.42,543.00 388.35,542.35 389.87,541.56 ZM 654.64 532.66 C665.12,521.96 666.81,518.95 665.53,513.14 C664.68,509.26 661.45,506.00 658.46,506.00 C655.65,506.00 655.46,506.70 657.53,509.44 C660.06,512.78 659.40,518.75 656.15,522.00 C647.64,530.51 633.52,523.47 632.23,510.09 C631.35,500.91 635.42,493.92 644.38,489.21 C648.73,486.93 650.73,486.53 657.71,486.53 C667.54,486.53 666.76,485.76 652.00,480.93 C640.97,477.32 636.41,477.40 629.74,481.31 C623.85,484.76 620.10,490.38 619.32,496.92 C618.61,502.97 617.04,501.89 617.02,495.32 C616.99,489.49 618.45,486.20 623.31,481.11 L 627.50 476.72 L 623.21 479.07 C616.85,482.55 613.00,488.91 613.00,495.92 C613.01,511.61 624.36,511.88 627.87,496.28 L 628.72 492.50 L 629.90 495.42 C631.32,498.92 630.60,502.83 627.35,509.28 C625.27,513.40 625.08,514.58 625.97,517.87 C628.17,526.06 635.99,533.79 643.03,534.73 C648.11,535.41 647.14,537.00 641.64,537.00 C633.20,537.00 624.84,529.22 620.92,517.73 C619.94,514.85 619.11,513.43 619.07,514.56 C618.95,518.19 625.05,533.40 627.82,536.38 C631.96,540.82 636.12,542.99 640.50,543.00 C644.26,543.00 645.11,542.38 654.64,532.66 ZM 425.95 482.62 C433.48,472.67 433.94,471.80 431.36,472.44 C427.34,473.45 419.43,474.75 412.73,475.50 L 406.96 476.15 L 411.04 480.78 C413.31,483.36 415.63,487.31 416.26,489.68 C416.88,492.02 417.47,493.84 417.56,493.72 C417.65,493.60 421.43,488.60 425.95,482.62 ZM 614.26 479.43 L 617.58 476.36 L 606.04 474.72 C599.69,473.82 593.44,472.77 592.14,472.40 C590.14,471.81 590.58,472.71 594.93,478.10 C597.77,481.62 601.52,486.57 603.26,489.09 L 606.43 493.69 L 608.69 488.09 C609.93,485.02 612.44,481.12 614.26,479.43 ZM 400.71 455.80 C404.13,454.12 409.68,450.52 413.06,447.80 C416.43,445.08 419.43,443.10 419.73,443.40 C420.03,443.70 416.89,447.33 412.76,451.47 L 405.23 458.99 L 412.37 458.36 C421.07,457.59 432.96,454.68 438.62,451.94 C448.80,447.01 456.41,436.72 454.11,430.97 C453.25,428.80 453.12,429.07 453.06,433.17 C452.99,438.92 449.90,443.02 443.84,445.45 C435.47,448.80 426.10,444.13 423.78,435.47 L 422.64 431.22 L 414.57 439.44 C410.13,443.96 402.67,450.50 398.00,453.97 C389.19,460.50 390.03,461.07 400.71,455.80 ZM 626.31 454.10 C622.02,450.85 614.73,444.32 610.13,439.60 C605.53,434.87 601.59,431.00 601.38,431.00 C601.17,431.00 601.00,431.92 601.00,433.04 C601.00,437.33 597.02,443.09 592.69,445.05 C587.42,447.45 584.58,447.45 579.33,445.06 C574.43,442.84 571.86,439.34 570.93,433.62 L 570.25 429.50 L 570.13 433.30 C569.72,445.74 586.61,455.70 612.97,458.55 L 619.43 459.25 L 613.71 454.01 C608.03,448.83 602.26,441.82 605.05,443.51 C605.85,444.00 608.65,446.08 611.28,448.15 C615.80,451.70 631.13,460.00 633.18,460.00 C633.70,460.00 630.61,457.34 626.31,454.10 ZM 493.38 410.74 C495.92,406.67 498.00,403.03 498.00,402.67 C498.00,402.30 495.97,402.00 493.48,402.00 C489.27,402.00 489.00,402.16 489.54,404.29 C490.16,406.76 488.98,410.35 486.54,413.43 C484.30,416.26 483.75,414.84 485.49,410.69 C486.32,408.69 487.00,406.36 487.00,405.50 C487.00,403.04 484.04,402.51 481.98,404.61 C480.33,406.29 480.19,407.64 480.70,416.65 L 481.28 426.80 L 485.02 422.48 C487.08,420.10 490.84,414.82 493.38,410.74 ZM 476.00 413.24 C474.93,407.76 474.99,406.67 476.43,404.47 L 478.08 401.96 L 459.37 402.23 C444.34,402.45 440.57,402.78 440.20,403.91 C439.85,404.96 440.21,405.11 441.61,404.51 C445.62,402.80 455.99,402.73 460.29,404.38 C468.12,407.38 474.79,416.02 475.07,423.50 L 475.18 426.50 L 476.20 423.00 C476.93,420.51 476.88,417.70 476.00,413.24 ZM 542.87 404.34 C541.26,402.40 538.31,402.69 537.75,404.86 C537.48,405.88 537.86,408.45 538.59,410.57 C540.23,415.37 539.83,415.87 537.11,412.42 C535.79,410.73 535.00,408.29 535.00,405.87 L 535.00 402.00 L 530.47 402.00 L 525.95 402.00 L 527.60 405.25 C530.00,410.00 536.84,420.06 539.87,423.32 L 542.50 426.14 L 543.24 415.92 C543.76,408.84 543.64,405.27 542.87,404.34 ZM 552.00 414.50 C554.87,409.86 560.12,405.44 564.51,404.00 C568.36,402.73 579.98,403.06 583.50,404.53 C585.28,405.28 585.35,405.19 584.13,403.69 C582.93,402.22 580.44,402.00 564.88,402.00 C555.04,402.00 547.00,402.23 547.00,402.51 C547.00,402.80 547.54,403.90 548.21,404.96 C549.16,406.48 549.15,408.21 548.17,412.97 C547.44,416.48 547.22,420.60 547.65,422.77 L 548.38 426.50 L 549.15 422.18 C549.57,419.81 550.85,416.35 552.00,414.50 ZM 598.34 391.84 C602.69,389.55 603.06,386.97 599.55,383.45 L 597.09 381.00 L 512.27 381.00 C439.27,381.00 427.15,381.20 425.35,382.47 C422.38,384.54 421.86,387.60 424.00,390.25 C425.77,392.43 426.49,392.51 448.66,393.01 C489.80,393.92 595.96,393.09 598.34,391.84 ZM 467.78 365.50 C469.73,354.82 470.44,317.12 469.08,296.33 C467.82,277.21 465.60,264.10 462.08,255.00 C458.89,246.74 457.78,245.63 453.52,246.43 L 449.94 247.10 L 452.01 250.01 C455.01,254.22 457.85,263.16 459.55,273.69 C461.69,286.93 462.43,329.37 460.80,344.50 L 459.50 356.50 L 458.92 324.50 C458.30,290.09 457.10,278.74 452.55,264.34 C449.67,255.26 445.34,248.00 442.78,248.00 C440.51,248.00 440.54,248.55 443.04,252.06 C448.46,259.66 451.38,275.10 453.20,305.75 C454.49,327.43 453.39,352.84 450.61,365.71 C449.87,369.13 449.52,372.19 449.84,372.50 C450.15,372.82 454.03,372.95 458.45,372.79 L 466.50 372.50 L 467.78 365.50 ZM 497.26 364.50 C498.20,354.49 497.27,293.00 495.90,275.31 C494.78,260.82 492.06,247.64 489.72,245.29 C487.49,243.06 477.53,244.46 478.60,246.85 C480.59,251.34 484.04,267.11 485.13,276.72 C486.61,289.69 486.81,327.86 485.49,344.50 C484.56,356.25 484.53,355.88 483.88,327.00 C482.94,285.03 480.10,261.29 474.67,250.00 C472.71,245.94 472.12,245.47 468.62,245.18 C465.70,244.94 464.88,245.19 465.31,246.18 C473.63,265.20 476.00,282.23 475.99,323.00 C475.99,344.37 475.56,351.83 473.44,367.78 L 472.73 373.07 L 484.62 372.78 L 496.50 372.50 L 497.26 364.50 ZM 524.62 366.25 C520.21,319.57 521.39,270.93 527.52,246.75 L 528.22 244.00 L 511.99 244.00 L 495.77 244.00 L 496.42 246.25 C502.65,267.61 503.99,321.78 499.40,366.75 L 498.77 373.00 L 512.01 373.00 L 525.26 373.00 L 524.62 366.25 ZM 551.34 371.50 C549.47,360.22 548.81,351.70 548.32,333.00 C547.36,295.68 550.50,264.45 556.56,251.13 C557.90,248.18 559.00,245.68 559.00,245.58 C559.00,245.49 557.41,245.30 555.46,245.17 C552.09,244.94 551.81,245.18 549.52,250.22 C543.98,262.39 541.12,286.00 540.11,328.00 C539.48,354.32 539.41,355.00 538.61,343.86 C538.15,337.45 537.99,319.45 538.26,303.86 C538.78,273.41 540.15,261.60 544.43,250.86 L 546.68 245.23 L 542.20 244.61 C535.23,243.66 534.40,243.83 533.20,246.46 C531.32,250.58 529.11,264.74 528.03,279.50 C526.93,294.58 526.60,368.79 527.62,371.45 C528.15,372.83 529.92,373.02 539.87,372.78 C546.91,372.61 551.43,372.11 551.34,371.50 ZM 571.05 372.39 L 574.59 371.80 L 573.35 364.65 C569.63,343.24 569.34,312.15 572.58,284.12 C574.30,269.29 576.23,261.38 579.82,254.57 C581.29,251.78 582.64,249.16 582.83,248.75 C583.50,247.25 580.27,248.04 578.73,249.75 C569.46,260.04 564.55,289.67 565.15,331.71 C565.35,345.57 565.21,356.10 564.84,355.10 C562.97,350.05 562.15,326.91 562.97,302.50 C563.94,273.35 565.31,264.33 570.36,253.78 C573.76,246.68 573.60,246.00 568.55,246.00 C566.74,246.00 565.73,247.20 563.62,251.92 C557.02,266.62 554.66,285.79 554.57,325.50 C554.50,354.51 555.86,369.45 558.79,371.75 C560.50,373.09 565.31,373.34 571.05,372.39 ZM 446.66 365.50 C450.42,347.13 450.70,319.46 447.42,290.00 C445.11,269.29 442.68,260.90 436.11,251.06 C435.30,249.85 429.00,248.51 429.00,249.55 C429.00,249.74 430.28,251.83 431.84,254.20 C435.96,260.44 437.59,265.26 439.36,276.50 C443.15,300.60 444.14,337.40 441.54,358.31 C440.74,364.77 439.80,370.52 439.44,371.10 C439.03,371.77 439.99,372.03 442.11,371.82 C445.30,371.51 445.48,371.27 446.66,365.50 ZM 583.36 364.25 C580.18,345.03 580.72,305.05 584.51,278.98 C586.37,266.15 588.31,259.82 592.10,254.20 C593.70,251.83 595.00,249.70 595.00,249.45 C595.00,248.02 590.02,249.35 588.25,251.25 C579.08,261.08 574.47,290.35 575.29,333.50 C575.68,354.01 576.65,365.24 578.51,370.75 C578.75,371.44 580.22,372.00 581.79,372.00 L 584.65 372.00 L 583.36 364.25 ZM 429.55 240.54 C452.93,236.40 500.18,234.43 539.24,235.96 C567.77,237.07 576.23,237.79 594.67,240.62 C605.10,242.23 606.00,242.23 608.38,240.67 C611.99,238.31 613.51,232.15 611.61,227.60 C609.68,223.00 605.89,221.19 593.48,218.95 C555.02,212.02 483.02,211.35 440.24,217.53 C421.45,220.25 415.95,221.90 413.56,225.55 C411.10,229.30 411.56,235.33 414.59,238.92 C417.53,242.42 418.40,242.51 429.55,240.54 ZM 469.69 200.00 C468.91,193.41 465.60,186.00 463.44,186.00 C462.17,186.00 461.93,186.54 462.45,188.25 C462.82,189.49 463.64,193.76 464.26,197.75 C465.31,204.46 465.58,205.00 467.84,205.00 C470.18,205.00 470.25,204.80 469.69,200.00 ZM 548.87 197.50 C549.50,194.20 551.11,189.28 552.44,186.57 C554.85,181.68 554.86,181.63 552.93,179.19 C551.75,177.68 551.00,175.17 551.00,172.69 L 551.00 168.65 L 548.39 171.08 C542.22,176.82 536.02,189.19 534.06,199.70 C533.28,203.91 533.32,204.00 535.97,204.00 C538.53,204.00 538.75,203.63 539.90,197.19 C541.21,189.83 545.77,180.73 549.00,179.00 C551.47,177.68 551.48,178.23 549.08,184.55 C546.71,190.78 544.66,201.68 545.47,203.78 C546.42,206.25 547.62,204.03 548.87,197.50 ZM 559.00 202.23 C559.00,200.70 559.84,196.43 560.87,192.73 C562.67,186.20 562.68,186.00 560.89,186.00 C558.63,186.00 556.60,189.80 555.12,196.80 C553.53,204.32 553.64,205.00 556.50,205.00 C558.57,205.00 559.00,204.52 559.00,202.23 ZM 478.46 198.25 C478.09,195.09 476.91,190.02 475.84,187.00 C472.36,177.11 472.36,177.17 475.95,180.50 C480.27,184.51 482.70,189.49 484.21,197.42 C485.39,203.64 485.61,204.00 488.23,204.00 C491.59,204.00 491.64,203.29 488.90,194.36 C486.07,185.11 481.69,177.08 476.94,172.44 L 473.00 168.59 L 473.00 172.69 C473.00,175.19 472.28,177.67 471.14,179.08 C469.31,181.34 469.32,181.47 471.60,186.01 C472.87,188.55 474.49,193.64 475.19,197.32 C476.00,201.62 476.94,204.00 477.80,204.00 C478.85,204.00 478.99,202.74 478.46,198.25 ZM 500.00 203.46 C500.00,203.16 499.29,199.49 498.43,195.30 C495.30,180.18 487.74,165.37 479.40,158.04 C473.82,153.15 468.43,151.05 461.40,151.02 C456.24,151.00 454.68,151.45 451.32,153.88 C443.71,159.40 442.90,168.37 449.44,174.91 C452.47,177.94 453.72,178.50 457.41,178.50 C464.60,178.50 468.20,172.98 464.96,166.93 C463.51,164.22 458.00,164.27 457.29,167.00 C456.58,169.72 455.00,169.53 455.00,166.72 C455.00,161.00 461.48,157.68 468.27,159.92 C473.70,161.72 479.77,166.78 484.04,173.07 C488.20,179.18 494.00,194.72 494.00,199.73 C494.00,201.35 494.30,202.97 494.67,203.33 C495.46,204.13 500.00,204.23 500.00,203.46 ZM 506.59 191.30 C505.74,186.46 503.25,176.76 501.05,169.74 C495.58,152.26 494.51,145.62 495.91,137.59 C496.53,134.06 497.74,129.45 498.61,127.34 C500.54,122.67 507.07,111.73 507.60,112.27 C507.81,112.48 506.82,115.07 505.39,118.03 C503.97,120.98 501.89,127.00 500.78,131.41 C498.10,142.00 498.73,147.98 504.36,165.55 C506.81,173.22 509.36,182.43 510.02,186.00 C510.67,189.57 511.47,193.62 511.78,195.00 L 512.36 197.50 L 512.69 195.00 C513.79,186.68 515.72,178.93 519.75,166.52 C523.78,154.11 524.31,151.41 524.40,143.00 C524.50,133.24 522.69,125.69 517.81,115.50 L 515.89 111.50 L 517.91 114.00 C521.75,118.74 525.96,127.72 527.57,134.60 C529.58,143.27 528.87,150.89 524.83,163.91 C520.20,178.83 517.24,190.90 516.47,198.00 C515.50,207.10 517.05,204.71 519.26,193.71 C520.28,188.65 523.51,178.43 526.45,171.00 C529.38,163.57 532.28,155.12 532.89,152.20 C535.30,140.72 533.78,130.43 527.99,119.00 C525.06,113.22 513.16,95.99 512.11,96.01 C511.78,96.02 508.91,99.50 505.75,103.76 C491.39,123.11 487.28,137.95 491.84,154.02 C492.84,157.58 495.96,166.57 498.77,174.00 C501.57,181.43 504.39,190.65 505.04,194.50 C506.52,203.28 507.21,205.29 507.74,202.30 C507.95,201.10 507.43,196.15 506.59,191.30 ZM 530.88 196.75 C533.84,180.49 542.98,166.09 553.61,160.95 C561.21,157.27 569.00,160.14 569.00,166.61 C569.00,169.51 567.44,169.78 566.71,167.00 C566.11,164.71 561.21,164.19 559.20,166.20 C557.31,168.09 557.76,173.76 559.97,175.97 C567.01,183.01 579.00,176.06 579.00,164.93 C579.00,156.57 572.24,150.86 562.37,150.86 C547.81,150.86 534.21,165.43 527.66,188.05 C525.50,195.49 524.54,200.77 524.89,203.25 C524.95,203.66 526.03,204.00 527.28,204.00 C529.33,204.00 529.70,203.25 530.88,196.75 ZM 483.20 144.66 C482.96,140.07 483.28,133.93 483.90,131.01 C485.53,123.41 491.83,110.60 497.79,102.75 C500.61,99.04 502.55,96.00 502.09,96.00 C499.14,96.00 481.45,101.24 477.29,103.35 C469.04,107.54 463.04,116.43 463.04,124.50 C463.04,131.06 466.35,136.64 475.27,145.14 C479.79,149.46 483.53,152.99 483.57,153.00 C483.61,153.00 483.44,149.25 483.20,144.66 ZM 557.41 136.18 C561.30,130.70 562.03,123.11 559.27,116.90 C556.68,111.06 552.57,106.33 548.12,104.06 C541.12,100.49 522.00,94.99 522.00,96.54 C522.00,96.77 523.82,99.33 526.04,102.23 C528.27,105.13 532.43,112.18 535.29,117.89 L 540.50 128.28 L 540.50 140.54 L 540.50 152.81 L 547.50 146.55 C551.35,143.10 555.81,138.44 557.41,136.18 ZM 450.36 141.14 C449.98,137.57 450.17,134.54 450.84,133.39 C451.83,131.69 451.94,131.78 451.97,134.28 C451.99,135.81 452.65,138.62 453.45,140.53 C454.83,143.83 455.14,144.00 459.88,144.00 L 464.85 144.00 L 461.47 138.38 C457.45,131.70 456.25,125.26 457.88,119.14 C458.53,116.72 458.88,114.54 458.64,114.31 C457.96,113.63 451.41,122.16 449.10,126.75 C447.93,129.08 446.69,132.96 446.36,135.37 C445.67,140.41 447.48,147.00 449.56,147.00 C450.68,147.00 450.84,145.80 450.36,141.14 ZM 577.11 144.25 C578.66,140.24 577.71,132.15 575.07,126.86 C572.62,121.95 564.36,112.10 565.55,115.50 C566.73,118.90 567.28,126.71 566.59,130.38 C566.23,132.30 564.37,136.15 562.45,138.94 L 558.97 144.00 L 564.03 144.00 C568.87,144.00 569.17,143.84 570.55,140.53 C571.35,138.62 572.01,135.59 572.02,133.78 C572.03,131.24 572.26,130.84 573.05,132.00 C573.60,132.82 573.99,136.20 573.91,139.50 C573.74,146.86 573.76,147.00 575.02,147.00 C575.59,147.00 576.53,145.76 577.11,144.25 ZM 531.99 88.25 C531.98,82.91 526.04,75.86 514.82,67.87 L 512.02 65.88 L 505.56 70.74 C502.01,73.41 497.76,77.29 496.12,79.35 C493.26,82.95 491.22,88.55 492.35,89.68 C492.65,89.98 496.81,89.67 501.59,88.99 C510.25,87.76 521.60,88.17 527.50,89.93 C531.94,91.26 532.00,91.23 531.99,88.25 ZM 741.50 871.81 C741.24,871.09 740.35,866.95 739.53,862.60 C737.52,851.95 735.23,849.56 725.06,847.48 C718.96,846.23 717.43,844.40 721.68,843.44 C734.58,840.52 737.20,838.39 738.92,829.44 C741.72,814.81 742.76,814.28 745.17,826.25 C747.82,839.45 748.48,840.20 759.33,842.42 C767.18,844.02 767.43,845.93 760.00,847.52 C748.44,849.99 747.33,851.26 744.95,864.79 C743.69,871.94 742.47,874.43 741.50,871.81 ZM 748.82 846.40 L 751.07 845.28 L 748.49 843.58 C747.07,842.65 745.07,840.51 744.04,838.83 L 742.18 835.76 L 740.57 838.87 C739.68,840.58 737.80,842.74 736.39,843.67 L 733.82 845.35 L 736.40 846.70 C737.81,847.44 739.68,849.42 740.55,851.09 L 742.12 854.12 L 744.34 850.83 C745.56,849.01 747.58,847.02 748.82,846.40 ZM 302.57 866.43 C299.55,863.41 301.29,859.00 305.50,859.00 C309.85,859.00 311.44,863.38 308.17,866.35 C305.89,868.41 304.57,868.43 302.57,866.43 ZM 252.74 855.34 C252.47,854.88 251.94,852.25 251.56,849.50 C250.07,838.87 247.77,830.88 245.38,828.05 C242.84,825.02 237.67,822.95 227.69,820.98 C224.10,820.27 222.04,819.39 222.28,818.67 C222.49,818.03 226.30,816.75 230.74,815.83 C245.50,812.76 247.02,811.05 250.46,793.57 C251.64,787.55 253.11,782.46 253.72,782.26 C254.38,782.04 255.28,784.26 255.94,787.69 C256.54,790.89 257.55,796.12 258.17,799.33 C259.48,806.07 262.42,810.94 266.28,812.80 C267.77,813.52 272.67,814.90 277.18,815.87 C288.32,818.26 288.69,819.84 278.50,821.46 C262.98,823.93 259.90,827.47 256.56,846.70 C255.33,853.75 253.81,857.19 252.74,855.34 ZM 263.71 821.50 C268.53,819.22 268.93,818.46 265.75,817.63 C261.70,816.57 257.99,812.60 255.66,806.83 L 253.37 801.16 L 252.20 805.52 C250.75,810.95 245.81,816.72 241.65,817.84 L 238.50 818.69 L 242.07 820.22 C246.56,822.14 251.80,828.39 252.63,832.81 L 253.26 836.18 L 256.38 829.84 C258.95,824.62 260.25,823.15 263.71,821.50 ZM 773.41 767.50 C771.89,765.18 771.89,764.82 773.41,762.50 C776.17,758.28 783.00,760.06 783.00,765.00 C783.00,769.94 776.17,771.72 773.41,767.50 ZM 248.20 735.80 C245.54,733.14 247.47,728.00 251.13,728.00 C253.19,728.00 256.00,730.60 256.00,732.50 C256.00,736.00 250.66,738.26 248.20,735.80 ZM 804.49 729.75 C804.24,729.06 803.15,723.90 802.08,718.28 C798.89,701.61 796.32,698.24 785.02,695.90 C774.33,693.68 771.87,692.88 772.26,691.73 C772.47,691.10 776.55,689.81 781.32,688.87 C796.44,685.90 799.27,682.51 802.45,663.52 C803.37,658.04 804.33,653.34 804.58,653.09 C805.75,651.92 806.96,655.34 808.80,665.04 C809.90,670.84 811.49,677.24 812.34,679.27 C814.21,683.74 818.58,686.57 825.98,688.10 C836.67,690.32 839.13,691.12 838.74,692.27 C838.53,692.90 834.44,694.19 829.65,695.13 C814.41,698.13 812.16,700.75 808.71,719.47 C806.74,730.16 805.62,732.88 804.49,729.75 ZM 811.92 697.58 C813.49,696.07 816.48,694.26 818.56,693.54 L 822.34 692.24 L 817.92 690.26 C812.11,687.65 809.41,684.55 807.17,677.97 L 805.33 672.55 L 803.52 678.30 C801.60,684.42 797.09,689.44 792.48,690.59 C791.12,690.94 790.00,691.57 790.00,692.00 C790.00,692.43 791.12,693.06 792.48,693.41 C796.93,694.52 801.52,699.54 803.55,705.51 L 805.46 711.13 L 807.26 705.72 C808.25,702.75 810.35,699.08 811.92,697.58 ZM 215.93 702.83 C215.89,702.65 215.01,698.49 213.98,693.58 C212.79,687.94 211.37,683.92 210.10,682.66 C209.01,681.56 205.07,679.90 201.35,678.96 C194.00,677.11 192.23,675.42 196.68,674.48 C204.80,672.77 208.05,671.58 209.89,669.62 C211.92,667.45 214.96,656.85 214.99,651.81 C215.00,648.78 216.82,647.09 218.00,649.00 C218.43,649.69 219.07,652.56 219.44,655.38 C221.12,668.37 224.07,672.09 234.08,673.86 C237.49,674.46 240.54,675.21 240.86,675.53 C241.83,676.50 238.92,677.79 234.10,678.51 C229.07,679.26 225.03,681.05 223.10,683.37 C222.42,684.20 221.06,688.82 220.08,693.64 C219.11,698.46 217.79,702.57 217.15,702.78 C216.52,702.99 215.97,703.02 215.93,702.83 ZM 218.88 681.47 C220.03,679.54 221.96,677.58 223.18,677.13 C225.39,676.31 225.39,676.30 222.65,674.51 C221.14,673.51 219.20,671.35 218.35,669.71 L 216.80 666.71 L 215.23 669.95 C214.36,671.74 212.60,673.68 211.31,674.27 L 208.97 675.33 L 212.49 678.55 C214.42,680.32 216.00,682.50 216.00,683.38 C216.00,685.77 216.57,685.39 218.88,681.47 ZM 827.15 579.40 C823.38,576.75 825.00,572.00 829.66,572.00 C832.11,572.00 834.48,575.29 833.63,577.51 C832.64,580.11 829.48,581.03 827.15,579.40 ZM 226.20 490.80 C223.26,487.86 225.86,481.00 229.92,481.00 C233.92,481.00 236.66,487.94 233.80,490.80 C233.14,491.46 231.43,492.00 230.00,492.00 C228.57,492.00 226.86,491.46 226.20,490.80 ZM 783.00 464.61 C783.00,462.63 779.62,447.17 778.89,445.80 C777.59,443.36 773.36,441.33 767.90,440.51 C759.24,439.21 758.75,436.50 766.97,435.41 C776.68,434.12 780.44,429.69 781.65,418.09 C782.81,406.96 785.05,407.28 786.88,418.85 C788.85,431.22 791.31,433.89 802.26,435.52 C806.68,436.18 808.89,437.44 807.70,438.63 C807.42,438.91 804.13,439.78 800.38,440.56 C791.52,442.41 789.42,444.53 787.51,453.53 C786.70,457.36 786.03,461.51 786.02,462.75 C786.01,464.08 785.38,465.00 784.50,465.00 C783.67,465.00 783.00,464.82 783.00,464.61 ZM 790.13 438.90 C792.30,437.26 792.30,437.23 790.31,436.60 C789.20,436.25 787.46,434.42 786.45,432.54 L 784.61 429.12 L 782.89 431.94 C781.94,433.50 780.19,435.45 778.99,436.30 L 776.80 437.83 L 779.25 439.43 C780.59,440.31 782.24,442.23 782.91,443.70 L 784.12 446.36 L 786.02 443.46 C787.07,441.87 788.92,439.82 790.13,438.90 ZM 714.71 434.38 C713.49,433.15 713.93,429.30 715.44,428.05 C716.24,427.39 717.93,426.99 719.19,427.17 C721.10,427.44 721.50,428.11 721.50,431.00 C721.50,434.17 721.21,434.53 718.46,434.80 C716.79,434.96 715.11,434.77 714.71,434.38 ZM 328.45 420.94 C326.44,418.72 327.06,416.63 330.32,414.57 C334.09,412.19 337.73,418.13 334.48,421.38 C332.32,423.54 330.69,423.42 328.45,420.94 ZM 266.46 417.31 C262.68,395.17 260.03,388.07 254.28,384.73 C252.52,383.70 246.53,382.04 240.98,381.04 C226.71,378.48 226.25,377.10 239.00,375.11 C258.74,372.04 261.01,369.50 264.95,346.06 C265.98,339.89 267.07,334.60 267.35,334.32 C268.65,333.02 269.82,335.45 270.45,340.74 C271.54,349.98 274.88,363.06 277.04,366.56 C279.67,370.83 284.28,372.87 295.82,374.91 C305.15,376.56 308.47,378.43 303.82,379.42 C302.54,379.70 297.97,380.61 293.66,381.46 C283.74,383.40 279.26,385.53 276.90,389.41 C275.10,392.36 271.82,405.17 270.24,415.42 C269.30,421.53 267.35,422.50 266.46,417.31 ZM 272.30 388.37 C274.41,384.31 279.52,380.05 283.14,379.32 C284.71,379.01 286.00,378.41 286.00,378.00 C286.00,377.59 284.71,376.99 283.14,376.68 C281.57,376.36 278.80,374.86 277.00,373.34 C273.46,370.37 269.03,361.95 269.01,358.19 C269.00,356.91 268.56,356.16 268.00,356.50 C267.45,356.84 267.00,357.98 267.00,359.03 C267.00,360.08 265.90,363.42 264.57,366.45 C262.04,372.15 258.15,375.51 252.75,376.66 C249.12,377.44 249.26,378.60 253.08,379.37 C254.78,379.71 257.53,380.96 259.20,382.14 C262.35,384.38 266.97,392.96 266.99,396.58 C267.01,400.55 268.47,400.11 269.57,395.82 C270.18,393.44 271.41,390.09 272.30,388.37 ZM 678.00 389.17 C678.00,388.71 677.15,383.61 676.11,377.84 C672.90,360.07 670.48,357.33 655.40,354.45 C642.94,352.07 642.76,350.82 654.55,348.63 C670.23,345.72 672.65,343.27 675.53,327.36 C678.86,309.01 679.78,308.51 682.28,323.70 C685.36,342.38 688.34,345.84 703.61,348.49 C711.28,349.82 714.68,351.44 711.92,352.45 C711.14,352.74 707.12,353.67 703.00,354.52 C688.13,357.60 685.42,360.76 682.48,378.49 C681.57,383.98 680.61,388.82 680.35,389.24 C679.72,390.26 678.00,390.21 678.00,389.17 ZM 685.56 356.94 C687.11,355.32 689.85,353.46 691.64,352.81 L 694.90 351.63 L 691.20 349.95 C686.29,347.71 683.31,344.32 681.04,338.39 C679.51,334.40 679.04,333.87 678.50,335.50 C675.51,344.45 671.60,349.31 666.32,350.64 C663.89,351.25 663.96,351.36 668.14,353.46 C673.05,355.92 676.48,360.37 678.09,366.34 L 679.18 370.38 L 680.95 365.14 C681.93,362.25 684.00,358.56 685.56,356.94 ZM 364.20 371.80 C362.06,369.66 362.78,365.19 365.54,363.38 C370.58,360.08 375.88,365.49 372.56,370.55 C370.81,373.23 366.30,373.90 364.20,371.80 ZM 763.28 354.98 C762.06,354.49 760.78,352.98 760.44,351.64 C759.81,349.12 761.37,345.00 762.95,345.00 C763.44,345.00 764.51,344.74 765.34,344.42 C767.40,343.63 771.00,347.46 771.00,350.44 C771.00,351.83 770.04,353.56 768.78,354.44 C766.27,356.20 766.31,356.20 763.28,354.98 ZM 335.57 306.91 C335.27,305.58 334.34,301.14 333.52,297.03 C331.60,287.49 329.64,285.45 320.62,283.56 C316.87,282.78 313.58,281.91 313.30,281.63 C312.24,280.58 314.23,279.00 316.62,279.00 C321.26,279.00 327.82,276.82 329.93,274.57 C331.90,272.48 334.94,261.47 334.98,256.31 C335.00,254.23 336.63,252.30 337.57,253.23 C337.81,253.47 338.74,257.63 339.64,262.47 C341.77,274.00 343.88,276.45 353.31,278.38 C357.05,279.15 360.41,280.08 360.78,280.44 C361.83,281.50 359.06,282.77 354.08,283.50 C347.77,284.43 343.49,286.62 342.12,289.63 C341.48,291.03 340.44,295.40 339.81,299.34 C338.51,307.37 336.49,310.97 335.57,306.91 ZM 338.49 287.03 C338.84,285.94 340.26,284.15 341.66,283.05 L 344.21 281.05 L 341.10 278.43 C339.40,277.00 338.00,275.19 338.00,274.41 C338.00,272.31 336.23,272.71 335.51,274.97 C335.16,276.06 333.73,277.85 332.32,278.96 L 329.76 280.98 L 332.88 283.89 C334.60,285.49 336.00,287.30 336.00,287.90 C336.00,289.76 337.83,289.12 338.49,287.03 ZM 730.68 308.29 C730.38,307.80 729.40,303.15 728.51,297.95 C725.81,282.18 723.23,279.19 709.93,276.42 C698.39,274.01 698.34,272.98 709.66,270.63 C723.38,267.78 725.61,265.10 728.56,247.92 C729.45,242.74 730.34,238.34 730.53,238.15 C731.74,236.91 732.98,240.21 734.50,248.73 C737.44,265.15 739.72,267.80 753.34,270.63 C764.82,273.02 764.58,274.43 752.31,276.56 C748.22,277.27 743.73,278.60 742.34,279.51 C738.90,281.77 736.19,288.32 734.38,298.76 C732.91,307.26 731.80,310.10 730.68,308.29 ZM 735.68 280.25 C737.02,278.46 739.77,276.11 741.80,275.04 C744.01,273.87 744.80,273.07 743.75,273.04 C740.48,272.96 734.35,266.30 732.95,261.31 L 731.63 256.62 L 730.07 261.10 C728.06,266.84 726.28,269.25 722.26,271.70 L 719.01 273.67 L 722.76 276.09 C725.19,277.66 727.37,280.33 729.00,283.73 C731.48,288.92 731.51,288.94 732.38,286.23 C732.86,284.73 734.35,282.04 735.68,280.25 ZM 654.65 177.17 C652.48,174.77 652.55,171.71 654.83,169.65 C657.38,167.35 660.60,167.59 662.44,170.22 C664.50,173.16 664.41,174.59 662.00,177.00 C659.51,179.49 656.81,179.55 654.65,177.17 ZM 381.05 161.56 C379.45,159.63 380.08,155.97 382.25,154.61 C386.17,152.15 390.15,158.95 386.40,161.69 C384.09,163.39 382.53,163.35 381.05,161.56 ZM 621.20 130.80 C619.12,128.72 619.79,125.05 622.47,123.83 C625.66,122.38 628.00,124.15 628.00,128.02 C628.00,131.71 623.82,133.42 621.20,130.80 ZM 451.67 871.33 C449.36,869.03 453.01,857.00 456.02,857.00 C456.59,857.00 456.03,858.39 454.78,860.08 C453.22,862.20 452.50,864.56 452.50,867.58 C452.50,870.01 452.46,872.00 452.42,872.00 C452.37,872.00 452.03,871.70 451.67,871.33 ZM 571.49 866.98 C571.49,863.25 570.94,861.56 569.07,859.57 C567.74,858.16 567.15,857.00 567.76,857.00 C569.94,857.00 573.00,862.75 573.00,866.85 C573.00,869.07 572.66,871.09 572.25,871.34 C571.84,871.59 571.50,869.63 571.49,866.98 ZM 461.00 831.68 C461.00,829.54 470.51,799.25 477.70,778.50 C484.94,757.60 497.51,726.72 495.61,734.50 C491.86,749.81 480.97,782.20 470.06,810.43 C462.63,829.66 461.00,833.49 461.00,831.68 ZM 555.28 813.25 C551.39,803.49 545.84,788.75 542.94,780.50 C537.55,765.17 527.90,733.76 528.42,733.25 C528.89,732.77 540.40,761.42 545.79,776.50 C551.72,793.08 563.29,830.04 562.73,830.60 C562.51,830.82 559.16,823.01 555.28,813.25 ZM 490.01 802.25 C490.05,798.08 495.11,767.25 497.47,756.86 C500.56,743.21 504.17,730.12 503.49,735.00 C503.23,736.92 502.58,741.88 502.05,746.00 C499.82,763.48 497.72,775.31 494.38,789.21 C491.03,803.17 489.98,806.31 490.01,802.25 ZM 529.68 788.66 C525.95,773.22 520.63,740.45 521.22,736.54 C521.52,734.62 522.85,740.08 528.56,766.63 C531.06,778.29 534.37,801.40 533.78,803.17 C533.59,803.73 531.75,797.20 529.68,788.66 ZM 450.56 797.50 C456.17,783.93 478.82,742.87 486.23,732.84 C488.60,729.62 479.11,750.15 472.28,763.00 C465.78,775.23 452.37,797.82 450.32,800.00 C449.25,801.14 449.31,800.53 450.56,797.50 ZM 568.77 792.32 C560.36,778.67 555.70,770.41 549.95,759.00 C533.69,726.73 533.02,723.79 547.46,748.00 C556.59,763.31 575.48,799.86 574.67,800.66 C574.41,800.92 571.76,797.16 568.77,792.32 ZM 580.73 777.13 C562.09,754.20 543.00,728.47 543.00,726.27 C543.00,725.35 548.99,732.21 560.07,745.84 C569.77,757.77 585.75,780.63 584.91,781.39 C584.68,781.59 582.81,779.68 580.73,777.13 ZM 442.75 774.96 C450.67,762.21 479.63,725.30 480.79,726.46 C482.11,727.78 442.23,780.72 439.75,780.93 C439.33,780.97 440.68,778.28 442.75,774.96 ZM 427.50 756.05 C433.97,749.27 451.05,735.52 462.50,727.87 L 471.50 721.86 L 465.00 728.07 C455.14,737.50 431.01,756.55 424.00,760.45 C423.17,760.91 424.75,758.93 427.50,756.05 ZM 589.91 753.34 C574.27,741.82 549.51,720.70 556.10,724.50 C561.07,727.37 575.01,737.57 583.50,744.56 C592.89,752.29 602.09,761.00 600.86,761.00 C600.56,761.00 595.63,757.55 589.91,753.34 ZM 369.59 791.29 C359.36,779.74 349.14,764.71 343.88,753.48 C339.34,743.79 334.40,729.17 333.59,723.00 C332.91,717.83 333.44,718.70 337.60,729.50 C345.74,750.63 358.36,772.84 373.96,793.45 C376.79,797.18 378.91,800.43 378.68,800.66 C378.44,800.89 374.35,796.67 369.59,791.29 ZM 361.31 762.75 C356.97,757.97 348.84,739.83 350.35,738.32 C350.60,738.07 352.51,741.16 354.60,745.18 C364.09,763.45 365.64,767.53 361.31,762.75 ZM 651.71 790.81 C664.77,772.90 679.98,746.82 685.36,733.13 C687.78,726.98 688.26,728.44 686.34,736.06 C681.94,753.49 668.58,775.97 653.04,792.06 L 643.92 801.50 L 651.71 790.81 ZM 659.00 764.21 C659.00,763.03 668.96,745.74 670.64,744.00 C671.88,742.71 671.87,743.09 670.60,746.70 C667.37,755.89 659.00,768.52 659.00,764.21 ZM 650.02 729.70 C650.30,729.39 655.25,728.18 661.02,727.01 C666.78,725.84 675.46,723.53 680.31,721.88 C685.15,720.22 689.58,719.03 690.16,719.22 C691.91,719.80 681.36,725.04 674.22,727.12 C667.98,728.95 648.86,730.98 650.02,729.70 ZM 404.66 688.26 C404.30,681.24 404.01,659.04 404.00,638.93 C404.00,598.42 404.17,597.00 410.58,585.22 C413.93,579.07 413.97,578.85 412.46,575.25 C406.59,561.19 409.61,536.80 419.73,516.50 C423.68,508.57 433.08,494.01 435.59,491.93 C436.50,491.17 435.23,493.68 432.76,497.52 C415.37,524.48 409.13,555.04 416.97,574.91 L 419.03 580.14 L 416.00 584.35 C408.28,595.10 407.36,602.29 406.49,658.99 C406.15,681.81 405.74,700.60 405.58,700.75 C405.43,700.90 405.02,695.28 404.66,688.26 ZM 617.71 675.59 C617.32,661.34 617.00,641.99 616.99,632.59 C616.98,604.16 614.83,593.03 607.53,583.45 L 605.14 580.31 L 607.46 573.91 C614.77,553.76 609.18,526.57 591.94,498.40 C586.60,489.69 588.71,491.18 595.09,500.63 C601.73,510.48 608.30,524.33 611.62,535.50 C615.27,547.79 615.55,565.62 612.23,573.93 L 610.05 579.37 L 612.96 584.08 C614.55,586.68 616.82,591.88 618.00,595.65 C620.07,602.26 620.14,604.07 619.98,647.50 C619.80,700.37 618.74,713.38 617.71,675.59 ZM 468.52 457.21 C490.68,435.39 500.35,424.55 505.71,415.51 C512.90,403.40 511.62,403.89 516.10,411.54 C523.13,423.59 527.04,428.16 551.44,452.92 C572.68,474.48 578.44,481.15 565.00,468.65 C562.53,466.35 555.76,460.36 549.98,455.36 C536.60,443.78 520.52,426.90 516.00,419.69 C514.08,416.61 512.28,414.08 512.00,414.06 C511.73,414.03 510.50,415.77 509.28,417.91 C504.26,426.70 492.10,439.66 473.73,455.81 C463.15,465.10 453.64,473.67 452.60,474.85 C451.55,476.03 450.20,476.98 449.60,476.96 C448.99,476.94 457.51,468.05 468.52,457.21 ZM 582.50 706.00 C584.15,705.46 589.10,704.73 593.50,704.38 C599.92,703.87 601.27,704.00 600.31,705.01 C599.57,705.81 595.50,706.40 589.31,706.63 C581.92,706.89 580.24,706.74 582.50,706.00 ZM 572.50 698.55 C587.45,695.38 603.35,693.84 598.50,696.04 C594.80,697.72 574.74,701.04 565.58,701.49 L 556.50 701.94 L 572.50 698.55 ZM 647.50 706.88 C663.73,703.96 680.51,698.43 677.77,696.89 C675.09,695.39 666.57,693.81 654.50,692.58 L 642.50 691.35 L 650.45 690.54 C663.32,689.23 681.09,692.10 683.42,695.88 C683.73,696.36 683.09,697.88 682.02,699.25 C678.66,703.51 660.29,708.10 647.50,707.87 L 642.50 707.78 L 647.50 706.88 ZM 363.50 705.06 C346.48,702.04 338.12,698.73 339.36,695.50 C340.63,692.21 346.95,690.71 361.00,690.38 L 374.50 690.07 L 365.50 691.39 C353.53,693.14 345.15,694.95 344.54,695.93 C343.96,696.87 356.90,701.09 369.50,704.06 C374.45,705.23 378.69,706.37 378.92,706.59 C379.78,707.43 373.17,706.78 363.50,705.06 ZM 450.15 641.25 C438.69,629.84 428.74,619.38 428.03,618.00 L 426.74 615.50 L 429.62 618.04 C447.21,633.56 474.35,662.00 471.57,662.00 C471.24,662.00 461.60,652.66 450.15,641.25 ZM 553.84 659.50 C561.57,649.41 597.00,614.30 597.00,616.73 C597.00,618.06 568.76,647.20 559.42,655.50 C555.08,659.35 552.57,661.15 553.84,659.50 ZM 468.27 644.25 C452.90,625.09 432.10,595.57 433.20,594.47 C433.70,593.97 447.81,611.33 457.20,624.00 C465.52,635.23 481.36,659.00 480.53,659.00 C480.30,659.00 474.78,652.36 468.27,644.25 ZM 544.62 656.75 C547.26,652.32 562.11,630.39 566.74,624.08 C577.14,609.94 594.21,589.82 590.47,596.10 C587.60,600.93 574.60,619.95 568.85,627.74 C557.42,643.21 540.95,662.93 544.62,656.75 ZM 537.00 653.70 C536.99,650.91 559.04,606.73 569.54,588.50 C582.28,566.38 581.83,569.14 568.07,597.50 C557.72,618.84 537.02,656.29 537.00,653.70 ZM 477.76 638.25 C473.10,630.14 466.32,617.88 462.70,611.00 C455.91,598.09 444.71,573.96 445.26,573.41 C446.07,572.59 460.81,599.15 472.23,622.00 C483.92,645.39 487.44,653.00 486.57,653.00 C486.40,653.00 482.43,646.36 477.76,638.25 ZM 488.69 634.60 C477.73,606.38 453.06,530.60 454.40,529.26 C454.87,528.80 463.82,552.45 473.18,578.87 C480.77,600.34 495.42,647.91 494.66,648.67 C494.46,648.87 491.77,642.54 488.69,634.60 ZM 529.42 647.50 C535.05,625.86 548.02,585.65 558.31,558.00 C566.74,535.32 568.16,531.82 568.70,532.36 C569.89,533.56 547.88,601.88 537.61,628.83 C531.46,644.98 528.07,652.70 529.42,647.50 ZM 498.76 630.49 C495.11,613.75 492.16,597.20 490.05,581.50 C489.45,577.10 488.76,572.15 488.50,570.50 C487.33,562.98 490.08,571.74 493.36,586.00 C496.95,601.61 503.43,642.55 502.81,645.76 C502.62,646.71 500.81,639.84 498.76,630.49 ZM 521.00 646.30 C521.00,644.21 526.09,609.26 527.58,601.11 C529.67,589.70 534.67,568.99 535.53,568.17 C535.92,567.80 535.97,568.85 535.65,570.50 C535.34,572.15 534.16,580.25 533.04,588.50 C530.73,605.49 529.43,612.62 525.01,632.47 C522.20,645.09 521.00,649.23 521.00,646.30 ZM 511.47 643.50 C510.38,639.91 510.17,565.49 511.25,564.42 C511.66,564.00 512.29,563.96 512.64,564.31 C513.71,565.37 514.19,620.58 513.25,634.00 C512.55,643.94 512.19,645.89 511.47,643.50 ZM 503.08 546.42 C482.33,538.88 472.69,515.35 482.45,496.09 C486.07,488.96 491.99,483.37 499.85,479.68 C505.45,477.04 507.69,476.55 514.05,476.54 C520.54,476.53 522.51,476.98 528.12,479.74 C531.71,481.51 535.45,483.84 536.43,484.93 C538.20,486.88 538.14,486.90 531.13,486.31 C522.30,485.57 516.79,487.44 511.12,493.12 C505.87,498.36 503.61,504.34 504.20,511.43 C505.51,527.19 522.24,537.25 536.76,531.01 C539.61,529.78 542.46,528.16 543.09,527.39 C545.05,525.03 545.95,525.85 544.85,529.00 C543.16,533.85 535.40,541.66 529.31,544.64 C522.24,548.10 509.99,548.93 503.08,546.42 ZM 524.13 540.84 C529.15,539.34 529.07,538.00 523.97,538.00 C516.23,538.00 506.96,532.21 502.49,524.57 C494.41,510.78 498.62,493.33 512.00,485.15 L 517.50 481.78 L 512.25 482.34 C502.19,483.42 493.37,489.10 488.27,497.80 C484.57,504.11 483.83,516.58 486.77,523.21 C490.23,531.04 498.55,538.83 505.76,541.00 C509.87,542.24 519.76,542.15 524.13,540.84 ZM 428.73 388.28 C427.21,388.05 426.23,387.44 426.54,386.93 C427.21,385.86 478.83,385.80 486.50,386.87 C490.98,387.49 490.37,387.64 480.59,388.28 C469.34,389.02 433.63,389.02 428.73,388.28 ZM 540.50 388.07 L 532.50 387.50 L 539.50 386.76 C549.29,385.72 598.00,385.81 598.00,386.87 C598.00,387.35 596.31,388.02 594.25,388.36 C589.83,389.09 552.03,388.88 540.50,388.07 ZM 423.00 234.93 C428.60,232.43 442.41,230.94 464.00,230.51 L 486.50 230.07 L 463.50 232.51 C434.37,235.61 419.50,236.50 423.00,234.93 ZM 581.00 234.80 C576.88,234.28 565.40,233.05 555.50,232.05 L 537.50 230.24 L 553.50 230.12 C570.48,230.00 593.40,232.15 599.71,234.47 L 603.50 235.86 L 596.00 235.80 C591.88,235.77 585.12,235.32 581.00,234.80 ZM 419.48 227.03 C421.35,224.00 443.26,220.44 466.11,219.43 C486.95,218.51 490.21,220.16 470.76,221.79 C462.92,222.44 448.44,224.11 438.59,225.49 C418.08,228.36 418.69,228.32 419.48,227.03 ZM 584.50 225.45 C576.25,224.21 562.55,222.62 554.05,221.91 C541.65,220.89 539.17,220.44 541.49,219.67 C545.21,218.43 577.18,220.34 589.50,222.54 C594.45,223.43 600.30,224.98 602.50,225.99 L 606.50 227.83 L 603.00 227.77 C601.08,227.74 592.75,226.70 584.50,225.45 ZM 476.54 138.71 C475.38,136.07 476.40,128.05 478.45,123.75 C480.79,118.81 482.13,118.93 480.41,123.93 C479.67,126.09 478.67,130.71 478.19,134.18 C477.58,138.61 477.09,139.96 476.54,138.71 ZM 468.54 126.88 C466.79,120.23 472.70,110.56 481.11,106.29 C485.25,104.19 488.41,104.07 484.68,106.16 C478.17,109.80 472.36,117.45 470.41,124.95 C469.31,129.16 469.17,129.30 468.54,126.88 ZM 546.00 136.55 C546.00,132.07 544.05,122.85 542.76,121.25 C542.08,120.41 542.09,120.00 542.79,120.00 C544.90,120.00 548.00,128.53 548.00,134.32 C548.00,137.44 547.55,140.00 547.00,140.00 C546.45,140.00 546.00,138.45 546.00,136.55 ZM 554.00 126.20 C554.00,122.38 548.64,113.84 543.16,108.91 L 537.50 103.82 L 541.50 105.46 C546.66,107.58 551.76,112.45 554.10,117.50 C556.10,121.81 556.63,128.00 555.00,128.00 C554.45,128.00 554.00,127.19 554.00,126.20 Z" fill="rgba(0,0,0,1)"/>
</g>
</svg>