<svg xmlns="http://www.w3.org/2000/svg" width="1024" height="1024" viewBox="0 0 1024 1024">
<g>
<path d="M 510.72 949.76 C509.19,948.61 508.90,941.47 507.54,871.30 L 506.04 794.10 L 480.21 753.80 C466.00,731.64 452.62,710.64 450.48,707.14 C448.33,703.64 446.01,700.56 445.31,700.29 C444.62,700.02 427.17,706.15 406.55,713.90 C385.92,721.66 367.90,728.00 366.50,728.00 C364.72,728.00 363.67,727.27 363.03,725.57 C362.52,724.23 360.39,711.58 358.31,697.46 L 354.52 671.78 L 277.34 749.64 C210.70,816.88 199.93,827.35 198.40,826.43 C195.35,824.59 195.71,823.23 200.68,817.81 C218.43,798.47 266.13,747.63 297.00,715.14 C317.08,694.02 337.71,672.28 342.86,666.83 L 352.23 656.93 L 347.57 624.72 C345.00,607.00 342.58,591.48 342.20,590.23 C341.70,588.66 325.42,577.32 288.63,552.95 L 235.77 517.94 L 155.68 516.46 C111.63,515.65 75.19,514.59 74.70,514.10 C74.21,513.61 73.97,512.38 74.17,511.36 C74.49,509.67 76.03,509.44 91.01,508.84 C100.08,508.47 136.49,507.65 171.91,507.02 L 236.32 505.85 L 285.16 473.46 C312.02,455.65 334.00,440.71 334.00,440.26 C334.00,439.82 328.62,412.28 322.05,379.07 C310.15,318.98 310.08,318.68 306.80,315.10 C301.10,308.90 269.51,276.26 226.39,232.00 C196.14,200.95 195.41,200.04 199.17,197.67 C200.50,196.83 201.70,197.39 205.17,200.48 C210.58,205.30 279.60,271.69 302.50,294.09 C318.60,309.85 319.75,310.76 324.28,311.43 C326.91,311.82 344.69,315.21 363.78,318.97 C419.09,329.86 437.84,333.28 439.30,332.71 C440.57,332.23 447.39,321.55 472.01,281.50 C477.08,273.25 486.77,257.50 493.54,246.50 L 505.85 226.50 L 506.90 178.00 C509.26,70.07 509.06,75.04 511.02,73.99 C512.26,73.33 513.13,73.45 513.93,74.41 C514.73,75.37 515.51,98.18 516.57,150.64 C517.88,216.15 518.27,225.87 519.70,228.50 C521.28,231.40 530.93,247.13 566.59,304.88 C575.89,319.93 584.09,332.48 584.82,332.76 C586.15,333.27 614.09,328.14 673.33,316.50 L 705.17 310.24 L 718.33 297.33 C731.97,283.97 771.81,245.51 803.98,214.64 C822.46,196.91 825.92,194.59 826.82,199.29 C827.27,201.64 827.45,201.44 771.51,259.00 C745.04,286.23 721.26,310.82 718.65,313.65 L 713.91 318.81 L 701.90 379.49 C693.44,422.27 690.20,440.54 690.93,441.42 C691.50,442.10 699.06,447.24 707.73,452.85 C716.40,458.45 737.96,472.65 755.63,484.40 L 787.75 505.76 L 817.63 506.42 C834.06,506.79 870.20,507.52 897.94,508.04 C925.69,508.56 948.79,509.39 949.29,509.89 C949.78,510.38 950.03,511.62 949.83,512.64 C949.51,514.35 947.86,514.55 928.99,515.18 C917.72,515.56 881.54,516.35 848.58,516.95 L 788.66 518.04 L 784.08 520.87 C781.56,522.42 757.58,538.20 730.78,555.94 C685.86,585.67 682.02,588.43 681.54,591.34 C681.25,593.08 678.96,608.63 676.44,625.91 L 671.86 657.31 L 679.22 664.91 C706.16,692.70 757.84,747.33 809.85,803.00 C828.19,822.63 830.46,826.08 825.49,826.79 C824.00,827.00 815.67,819.20 793.49,796.78 C776.99,780.12 742.45,745.23 716.72,719.24 C690.99,693.26 669.76,672.57 669.55,673.25 C669.33,673.94 668.65,678.10 668.04,682.50 C665.24,702.50 661.89,724.65 661.43,726.16 C660.21,730.15 660.26,730.16 608.58,710.58 C593.22,704.76 580.14,700.00 579.50,700.00 C578.19,700.00 575.54,703.98 542.16,756.09 L 518.07 793.69 L 516.63 870.97 C515.10,952.77 515.08,953.02 510.72,949.76 ZM 529.96 754.74 C539.56,739.76 554.67,716.25 563.54,702.50 C598.85,647.77 606.28,636.00 605.52,636.00 C605.25,636.00 600.86,638.08 595.76,640.62 L 586.50 645.25 L 550.50 700.75 C530.70,731.28 513.88,756.49 513.12,756.79 C512.35,757.08 511.05,756.89 510.22,756.37 C509.39,755.84 500.11,742.14 489.61,725.91 C479.10,709.68 469.60,695.22 468.50,693.78 L 466.50 691.15 L 461.19 693.17 C456.14,695.09 455.95,695.28 457.26,697.34 C482.74,737.49 511.47,782.00 511.92,781.99 C512.24,781.99 520.36,769.72 529.96,754.74 ZM 527.50 722.84 C535.75,710.11 544.16,697.13 546.19,693.98 L 549.88 688.27 L 531.11 681.04 L 512.33 673.82 L 493.48 680.93 C483.11,684.84 474.51,688.15 474.38,688.29 C474.24,688.43 478.94,695.97 484.81,705.05 C490.69,714.13 499.06,727.05 503.41,733.78 C507.76,740.50 511.58,746.00 511.91,745.99 C512.23,745.99 519.25,735.57 527.50,722.84 ZM 410.50 700.55 C482.61,673.29 494.52,668.72 495.32,668.00 C496.71,666.75 481.51,661.71 478.85,662.53 C477.56,662.93 463.45,668.10 447.50,674.02 C390.94,695.01 384.01,697.41 382.92,696.32 C382.01,695.41 375.56,656.12 370.46,620.50 C369.52,613.90 368.45,607.70 368.09,606.72 C367.45,604.98 355.96,596.71 355.22,597.45 C355.01,597.65 355.57,602.70 356.47,608.66 C365.13,666.59 372.00,713.27 372.00,714.14 C372.00,714.77 372.73,714.92 373.75,714.50 C374.71,714.11 391.25,707.83 410.50,700.55 ZM 652.85 708.75 C653.43,705.31 656.63,684.05 659.96,661.50 C663.30,638.95 666.83,615.21 667.82,608.75 C668.81,602.29 669.41,597.00 669.15,597.00 C668.89,597.00 665.87,598.91 662.44,601.25 L 656.21 605.50 L 654.19 618.50 C653.08,625.65 650.04,645.67 647.44,663.00 C644.71,681.19 642.17,695.09 641.41,695.91 C640.31,697.11 636.53,696.01 615.97,688.53 C589.47,678.89 591.36,679.05 587.17,686.10 L 585.02 689.70 L 617.76 702.23 C635.77,709.12 650.79,714.81 651.15,714.88 C651.50,714.95 652.27,712.19 652.85,708.75 ZM 408.82 680.50 C419.37,676.65 427.90,673.02 427.76,672.44 C427.16,669.97 398.46,625.69 396.57,624.32 C389.35,619.10 377.46,612.11 377.19,612.93 C377.01,613.47 377.82,620.12 378.99,627.71 C382.29,649.16 385.77,671.74 387.09,680.29 C387.75,684.57 388.59,687.94 388.95,687.79 C389.32,687.63 398.26,684.35 408.82,680.50 ZM 636.86 681.75 C637.44,678.31 639.97,662.00 642.47,645.50 C644.98,629.00 647.21,614.68 647.44,613.67 C648.00,611.18 646.56,611.83 635.59,619.00 C626.79,624.76 626.26,625.32 619.02,636.72 C614.91,643.20 608.04,653.83 603.77,660.33 C599.50,666.84 596.00,672.47 596.00,672.83 C596.01,673.20 601.52,675.44 608.25,677.80 C614.99,680.17 623.65,683.38 627.50,684.95 C631.35,686.51 634.79,687.84 635.15,687.90 C635.50,687.95 636.27,685.19 636.86,681.75 ZM 559.61 673.40 C561.06,670.93 562.08,668.78 561.87,668.63 C560.72,667.76 544.16,662.01 542.95,662.05 C541.48,662.11 527.08,667.82 528.00,667.99 C528.28,668.04 534.58,670.46 542.00,673.37 C549.42,676.28 555.83,678.49 556.24,678.28 C556.64,678.07 558.16,675.87 559.61,673.40 ZM 446.61 666.39 L 449.89 665.02 L 443.69 655.14 L 437.50 645.26 L 428.24 640.63 C423.14,638.08 418.78,636.00 418.54,636.00 C418.30,636.00 421.71,641.69 426.13,648.64 C430.54,655.59 435.26,663.04 436.62,665.19 C439.27,669.38 439.41,669.40 446.61,666.39 ZM 570.57 656.32 C572.52,653.28 573.98,650.65 573.81,650.50 C573.24,649.98 554.06,657.40 554.59,657.93 C555.67,659.01 565.53,662.69 566.26,662.29 C566.68,662.06 568.62,659.37 570.57,656.32 ZM 464.64 659.86 L 470.35 657.72 L 460.55 653.82 C455.16,651.67 450.54,650.13 450.28,650.39 C449.48,651.19 456.39,662.00 457.70,662.00 C458.37,662.00 461.50,661.04 464.64,659.86 ZM 573.00 638.33 C586.68,632.85 604.18,624.53 612.50,619.53 C618.08,616.18 619.31,614.68 630.13,598.21 C643.71,577.53 648.52,568.32 653.43,553.64 C657.50,541.46 663.00,517.79 663.00,512.41 C663.00,506.51 659.25,489.92 655.42,478.85 C650.48,464.60 641.34,446.71 628.50,426.13 C618.75,410.50 617.12,408.41 612.18,405.25 C602.42,399.01 581.03,389.35 558.50,381.02 C546.40,376.55 530.97,370.37 524.21,367.31 L 511.91 361.73 L 501.21 366.77 C495.32,369.54 483.52,374.35 475.00,377.45 C443.16,389.05 426.89,396.16 412.92,404.58 C407.74,407.70 406.54,409.23 395.96,426.22 C376.27,457.83 366.72,479.74 362.45,503.07 L 360.70 512.65 L 363.92 527.57 C370.96,560.18 375.48,569.82 404.26,613.55 C405.36,615.22 408.11,617.63 410.38,618.89 C423.38,626.15 441.86,634.65 459.00,641.27 C469.73,645.40 486.05,651.69 495.28,655.24 L 512.06 661.70 L 536.78 652.31 C550.38,647.15 566.67,640.86 573.00,638.33 ZM 381.74 599.26 C380.87,598.29 377.68,593.30 374.65,588.17 L 369.14 578.84 L 321.32 546.85 C295.02,529.26 272.93,514.31 272.24,513.64 C271.23,512.65 271.23,512.10 272.24,510.83 C272.93,509.96 288.38,499.28 306.56,487.10 L 339.63 464.95 L 338.55 459.54 C337.95,456.57 337.21,453.88 336.90,453.57 C336.41,453.08 321.83,462.57 257.77,505.05 C252.42,508.60 248.04,511.79 248.02,512.14 C248.01,512.50 267.00,525.32 290.22,540.64 C313.45,555.96 343.71,575.98 357.47,585.11 C371.24,594.25 382.68,601.56 382.91,601.37 C383.14,601.17 382.61,600.22 381.74,599.26 ZM 695.50 565.96 C723.55,547.46 753.39,527.76 761.82,522.17 L 777.14 512.00 L 748.82 493.30 C689.24,453.94 640.53,422.14 640.25,422.42 C640.09,422.58 642.88,427.66 646.46,433.71 L 652.97 444.72 L 665.74 452.78 C692.45,469.65 752.50,510.69 752.50,512.06 C752.50,512.85 730.91,527.94 704.52,545.58 C678.12,563.23 656.17,578.08 655.74,578.58 C655.30,579.09 652.80,583.10 650.19,587.50 C647.57,591.90 644.55,596.83 643.47,598.46 C642.09,600.53 641.95,601.15 643.00,600.50 C643.83,600.00 667.45,584.45 695.50,565.96 ZM 360.30 558.25 C357.45,550.42 353.85,535.12 346.94,501.50 C344.23,488.30 341.77,476.48 341.48,475.23 C340.99,473.13 338.78,474.41 312.04,492.23 C296.14,502.83 283.11,511.73 283.09,512.00 C283.06,512.55 361.13,564.86 362.13,564.94 C362.47,564.98 361.65,561.96 360.30,558.25 ZM 719.50 526.78 C731.05,519.09 740.60,512.50 740.72,512.15 C740.93,511.52 683.75,473.01 683.25,473.45 C683.11,473.57 680.55,485.55 677.55,500.08 C670.37,534.87 666.60,551.20 664.07,558.41 C662.93,561.66 662.00,564.47 662.00,564.67 C662.00,565.01 671.58,558.69 719.50,526.78 ZM 357.21 478.75 C358.06,475.86 359.57,471.38 360.58,468.78 L 362.41 464.06 L 359.20 447.78 C357.43,438.83 354.39,423.17 352.44,413.00 C350.48,402.83 346.66,383.13 343.94,369.23 C338.54,341.60 338.37,340.18 340.35,339.42 C341.50,338.98 422.17,353.20 425.68,354.46 C427.19,355.00 433.59,345.14 432.39,344.11 C431.90,343.69 415.52,340.29 396.00,336.56 C376.48,332.83 352.62,328.26 343.00,326.40 C333.38,324.54 324.78,323.01 323.91,323.01 C322.56,323.00 323.82,330.55 332.04,371.75 C351.99,471.69 354.51,483.99 355.09,483.99 C355.41,484.00 356.36,481.64 357.21,478.75 ZM 672.31 469.36 C672.87,466.39 672.56,466.00 665.95,461.61 C662.13,459.06 659.00,457.10 659.00,457.25 C659.00,457.39 661.02,462.46 663.49,468.51 C665.96,474.55 667.99,480.21 667.99,481.08 C668.00,481.95 668.32,482.98 668.71,483.37 C669.33,483.99 670.08,481.06 672.31,469.36 ZM 369.92 448.19 C370.56,446.65 374.16,440.23 377.93,433.94 C381.69,427.65 384.60,422.32 384.39,422.09 C383.77,421.42 363.88,435.00 364.34,435.78 C364.58,436.18 365.31,439.76 365.97,443.75 C366.64,447.74 367.54,451.00 367.97,451.00 C368.40,451.00 369.28,449.74 369.92,448.19 ZM 689.88 382.50 C701.34,324.34 701.58,323.00 700.36,323.00 C699.43,323.00 659.28,330.64 606.00,340.96 C589.22,344.21 566.95,348.50 556.50,350.50 C546.05,352.50 535.27,354.61 532.54,355.20 L 527.59 356.25 L 532.04 358.50 C537.70,361.35 574.08,375.25 574.58,374.76 C574.78,374.55 573.86,372.79 572.53,370.83 C570.50,367.84 569.39,367.19 565.57,366.76 C560.21,366.16 554.89,363.17 557.10,362.01 C557.87,361.61 562.55,360.56 567.50,359.70 C572.45,358.83 600.71,353.76 630.29,348.43 C659.87,343.11 684.37,339.03 684.72,339.38 C685.56,340.23 684.41,347.11 676.58,388.00 C672.95,406.98 669.78,423.71 669.53,425.18 C669.15,427.45 669.80,428.40 673.79,431.31 C676.38,433.20 678.80,434.47 679.16,434.13 C679.53,433.78 684.35,410.55 689.88,382.50 ZM 408.25 384.44 C420.45,365.14 422.31,361.98 421.79,361.45 C421.41,361.08 399.53,356.96 354.70,348.82 C351.51,348.24 348.60,348.07 348.23,348.44 C347.86,348.81 348.78,355.28 350.28,362.81 C351.78,370.34 354.84,385.95 357.07,397.50 C359.30,409.05 361.36,419.47 361.65,420.66 C362.13,422.63 363.75,421.78 380.81,410.60 L 399.44 398.39 L 408.25 384.44 ZM 666.43 400.50 C668.37,390.05 671.48,373.96 673.34,364.75 C675.54,353.83 676.34,348.00 675.61,348.01 C672.83,348.02 602.78,360.92 602.14,361.54 C601.95,361.73 606.99,370.12 613.34,380.19 L 624.90 398.50 L 643.20 410.62 C658.17,420.53 661.63,422.44 662.21,421.12 C662.59,420.23 664.50,410.95 666.43,400.50 ZM 451.80 357.00 C497.72,283.64 509.30,265.34 510.57,264.03 C511.83,262.74 512.24,262.80 513.89,264.53 C514.92,265.61 522.19,276.85 530.04,289.50 C537.88,302.15 548.07,318.41 552.66,325.63 L 561.02 338.75 L 565.76 337.81 C568.37,337.29 571.05,336.70 571.71,336.48 C572.44,336.25 566.97,326.50 557.84,311.80 C538.41,280.51 520.25,251.04 515.91,243.78 C514.04,240.63 512.28,238.05 512.00,238.03 C511.54,238.01 510.63,239.45 506.00,247.55 C505.04,249.23 499.39,258.46 493.44,268.05 C487.49,277.65 478.05,292.92 472.47,302.00 C453.68,332.54 433.32,365.43 427.09,375.30 C423.68,380.70 420.63,385.81 420.30,386.67 C419.91,387.68 423.00,386.51 429.01,383.37 L 438.33 378.50 L 451.80 357.00 ZM 599.82 379.75 C596.96,375.21 593.53,369.56 592.20,367.20 C589.58,362.56 590.44,362.76 581.00,364.58 C579.35,364.90 578.00,365.43 578.00,365.76 C578.00,366.09 579.87,369.24 582.16,372.75 C585.93,378.54 587.14,379.56 594.91,383.52 C599.64,385.93 603.84,387.92 604.26,387.95 C604.67,387.98 602.68,384.29 599.82,379.75 ZM 458.16 371.91 C479.34,364.07 498.12,356.17 495.91,356.04 C495.58,356.02 488.62,354.65 480.45,352.99 C464.13,349.68 465.08,349.53 461.13,356.16 L 458.95 359.82 L 462.97 360.49 C465.18,360.87 467.22,361.55 467.51,362.02 C468.42,363.49 463.75,365.96 458.84,366.62 C454.75,367.16 453.75,367.77 451.54,371.12 C450.13,373.25 449.16,375.00 449.40,375.00 C449.64,375.00 453.58,373.61 458.16,371.91 ZM 533.85 343.52 C543.39,341.66 551.42,339.91 551.69,339.65 C551.95,339.38 544.85,327.54 535.91,313.33 C526.97,299.12 518.08,284.91 516.17,281.75 C514.26,278.59 512.43,276.00 512.10,276.01 C511.77,276.02 508.62,280.63 505.10,286.26 C501.58,291.89 496.42,300.10 493.64,304.50 C481.98,322.95 472.05,339.38 472.36,339.70 C473.29,340.62 511.84,347.69 514.00,347.33 C515.38,347.10 524.31,345.39 533.85,343.52 ZM 620.00 934.98 C619.30,928.94 618.58,924.00 618.39,924.00 C618.20,924.00 616.17,926.03 613.89,928.50 C611.61,930.97 609.31,933.00 608.79,933.00 C608.26,933.00 609.50,930.01 611.55,926.35 L 615.27 919.70 L 611.94 920.36 C606.00,921.55 597.48,922.30 598.15,921.57 C598.51,921.19 602.08,919.59 606.08,918.03 L 613.36 915.20 L 603.43 910.15 C592.59,904.64 593.11,903.96 605.81,907.01 C610.39,908.10 614.31,909.00 614.54,909.00 C614.77,909.00 613.35,906.08 611.39,902.50 C609.42,898.92 608.27,896.00 608.82,896.00 C609.36,896.00 611.76,898.33 614.15,901.17 L 618.48 906.35 L 619.16 901.92 C619.53,899.49 620.13,894.46 620.50,890.74 C620.86,887.02 621.52,884.20 621.95,884.47 C622.38,884.74 623.04,888.23 623.41,892.23 C623.78,896.23 624.33,900.90 624.63,902.62 L 625.17 905.73 L 629.74 900.85 C632.25,898.17 634.51,896.17 634.76,896.43 C635.01,896.68 633.82,899.46 632.11,902.61 C630.40,905.76 629.12,908.44 629.25,908.57 C629.39,908.70 633.51,907.93 638.42,906.86 C643.32,905.79 647.98,905.05 648.77,905.21 C649.56,905.37 646.11,907.51 641.10,909.96 C636.10,912.41 632.00,914.66 632.00,914.96 C632.01,915.26 635.27,916.84 639.25,918.48 C647.44,921.85 646.36,922.79 636.30,921.04 C632.71,920.41 629.58,920.08 629.36,920.31 C629.13,920.53 630.51,923.48 632.42,926.86 C634.33,930.24 635.53,933.00 635.08,933.00 C634.64,933.00 632.23,930.82 629.74,928.15 L 625.21 923.31 L 624.63 926.90 C624.32,928.88 623.75,933.78 623.38,937.78 C623.01,941.79 622.38,945.26 621.98,945.51 C621.59,945.76 620.69,941.02 620.00,934.98 ZM 200.65 931.23 C200.32,928.63 199.76,923.51 199.40,919.85 L 198.74 913.20 L 192.15 918.04 C188.52,920.71 185.36,922.70 185.13,922.47 C184.90,922.24 186.80,919.51 189.36,916.41 C191.91,913.31 194.00,910.46 194.00,910.07 C194.00,909.69 189.27,908.80 183.50,908.09 C177.73,907.39 173.00,906.46 173.00,906.04 C173.00,905.61 177.94,904.70 183.98,904.00 L 194.97 902.74 L 191.21 898.12 C185.22,890.77 184.68,889.98 185.24,889.42 C185.53,889.13 188.50,891.17 191.84,893.95 C195.18,896.73 198.16,899.00 198.46,899.00 C198.76,899.00 199.03,897.09 199.06,894.75 C199.15,888.60 201.56,875.23 202.26,877.00 C202.59,877.83 203.39,883.12 204.04,888.78 C204.89,896.12 205.56,898.81 206.37,898.21 C206.99,897.74 209.65,895.64 212.28,893.54 C214.90,891.44 217.30,889.97 217.61,890.27 C217.91,890.58 216.10,893.46 213.57,896.66 L 208.98 902.50 L 219.99 903.91 C226.05,904.68 231.00,905.64 231.00,906.05 C231.00,906.45 226.39,907.31 220.75,907.96 C215.11,908.62 210.12,909.24 209.66,909.35 C209.20,909.47 210.89,912.07 213.41,915.13 C215.94,918.20 218.00,921.26 218.00,921.94 C218.00,922.62 215.13,920.89 211.63,918.10 L 205.26 913.03 L 204.13 921.83 C203.51,926.67 203.00,931.59 203.00,932.76 C203.00,936.99 201.24,935.84 200.65,931.23 ZM 310.58 929.08 C307.18,925.33 310.71,919.80 315.37,921.59 C317.45,922.39 318.61,926.80 317.30,928.90 C315.81,931.27 312.63,931.36 310.58,929.08 ZM 866.51 920.85 C862.51,901.47 863.03,902.15 850.50,899.47 C846.10,898.53 842.11,897.41 841.64,896.97 C841.17,896.54 843.42,895.66 846.64,895.02 C854.48,893.45 859.27,892.16 860.60,891.25 C862.52,889.94 863.80,886.64 864.97,879.97 C867.19,867.32 868.09,866.91 869.91,877.75 C871.42,886.74 873.21,890.73 876.30,891.98 C877.51,892.47 881.99,893.61 886.25,894.51 C890.51,895.40 894.00,896.46 894.00,896.85 C894.00,897.25 889.99,898.38 885.09,899.37 C873.78,901.66 872.53,902.91 870.36,914.07 C868.46,923.82 867.48,925.54 866.51,920.85 ZM 740.56 897.07 C737.28,893.44 741.64,887.67 745.93,889.96 C750.17,892.23 748.72,899.00 744.00,899.00 C743.07,899.00 741.52,898.13 740.56,897.07 ZM 453.93 887.87 C452.33,884.87 454.21,881.00 457.28,881.00 C460.16,881.00 462.00,882.75 462.00,885.50 C462.00,890.03 456.03,891.79 453.93,887.87 ZM 364.01 857.52 C363.00,856.30 364.61,851.44 372.85,830.77 C392.37,781.76 415.16,725.62 416.97,722.06 C418.47,719.11 419.88,718.08 424.90,716.28 C428.26,715.07 431.00,714.41 431.00,714.82 C431.00,715.78 426.90,725.42 412.22,759.00 C380.14,832.36 368.88,857.46 367.74,858.18 C365.98,859.30 365.41,859.20 364.01,857.52 ZM 655.85 857.27 C655.03,856.30 650.92,847.62 646.71,838.00 C642.51,828.38 635.19,811.72 630.45,801.00 C603.76,740.70 592.83,715.00 593.87,715.00 C594.28,715.00 597.29,715.91 600.56,717.02 L 606.50 719.03 L 611.61 731.77 C657.20,845.46 661.13,855.57 660.27,856.93 C658.89,859.13 657.51,859.24 655.85,857.27 ZM 422.35 848.47 C422.03,847.63 422.04,845.49 422.37,843.72 C424.19,834.06 451.48,726.00 452.10,726.00 C452.50,726.00 454.15,728.28 455.76,731.06 L 458.68 736.12 L 453.46 755.31 C448.89,772.13 432.63,830.10 428.38,844.75 C427.21,848.78 426.40,850.00 424.90,850.00 C423.82,850.00 422.67,849.31 422.35,848.47 ZM 597.16 848.25 C595.91,845.86 571.59,759.72 567.21,742.17 C565.65,735.92 565.66,735.79 568.06,731.35 C572.24,723.64 572.45,723.82 575.97,738.24 C577.76,745.53 584.53,773.04 591.03,799.37 C597.53,825.70 602.61,847.86 602.32,848.62 C601.57,850.57 598.24,850.33 597.16,848.25 ZM 271.65 839.17 C270.74,838.17 270.00,836.37 270.00,835.17 C270.00,832.45 273.35,829.00 276.00,829.00 C278.58,829.00 282.00,832.42 282.00,835.00 C282.00,837.71 278.52,841.00 275.65,841.00 C274.37,841.00 272.57,840.18 271.65,839.17 ZM 127.62 828.92 C127.38,828.14 126.65,824.62 126.01,821.11 C123.79,808.97 122.68,807.86 110.17,805.35 C105.68,804.45 102.00,803.39 102.00,803.00 C102.00,802.61 105.68,801.55 110.17,800.65 C122.81,798.11 123.98,796.90 126.04,784.27 C126.65,780.55 127.37,776.83 127.64,776.00 C128.49,773.43 129.66,776.69 131.07,785.50 C132.69,795.61 134.99,798.27 143.56,799.94 C146.83,800.58 150.74,801.34 152.25,801.63 C156.69,802.48 155.44,803.66 148.75,804.92 C134.63,807.60 133.61,808.48 131.35,820.08 C129.70,828.58 128.45,831.55 127.62,828.92 ZM 746.17 819.69 C743.60,816.94 743.45,815.22 745.56,812.22 C747.48,809.48 752.03,809.27 754.35,811.83 C756.71,814.44 756.43,818.58 753.78,820.44 C750.71,822.59 748.72,822.39 746.17,819.69 ZM 912.70 816.99 C912.33,815.62 911.74,811.05 911.38,806.84 C911.02,802.62 910.39,798.64 909.99,797.98 C909.47,797.14 907.47,798.18 903.42,801.35 C900.21,803.87 897.39,805.72 897.14,805.47 C896.89,805.22 898.78,802.35 901.34,799.10 C903.90,795.84 906.00,792.96 906.00,792.71 C906.00,792.46 903.19,791.96 899.75,791.60 C888.77,790.45 885.00,789.79 885.00,789.03 C885.00,788.62 889.72,787.73 895.50,787.05 C901.28,786.36 906.00,785.62 906.00,785.40 C906.00,785.18 903.90,782.30 901.34,779.00 C898.77,775.70 896.88,772.78 897.14,772.53 C897.40,772.27 900.35,774.28 903.71,777.00 L 909.81 781.94 L 911.05 771.44 C912.79,756.80 913.90,756.94 915.53,772.00 C916.71,782.90 916.30,782.59 922.56,777.50 C925.59,775.02 928.57,773.00 929.16,773.00 C930.35,773.00 930.35,773.01 924.68,780.10 C922.66,782.63 921.00,784.93 921.00,785.21 C921.00,785.48 925.72,786.29 931.50,787.00 C937.28,787.71 942.00,788.62 942.00,789.02 C942.00,789.83 937.81,790.58 927.75,791.60 C924.04,791.97 921.00,792.48 921.00,792.72 C921.00,792.97 923.10,795.84 925.66,799.10 C928.22,802.35 930.11,805.22 929.86,805.47 C929.61,805.72 926.79,803.87 923.58,801.35 C919.50,798.14 917.53,797.14 917.01,797.99 C916.59,798.66 915.97,802.42 915.61,806.35 C915.25,810.28 914.60,814.85 914.16,816.49 L 913.36 819.49 L 912.70 816.99 ZM 330.94 807.42 C329.47,805.66 329.56,805.45 338.57,789.50 C358.73,753.81 367.36,738.96 368.35,738.21 C370.68,736.46 380.00,733.14 380.00,734.06 C380.00,735.22 339.09,802.37 336.02,806.25 C333.51,809.42 332.74,809.60 330.94,807.42 ZM 688.81 807.25 C687.36,805.55 647.54,740.83 645.07,736.16 C644.39,734.88 643.99,733.71 644.17,733.57 C644.35,733.43 647.20,734.38 650.50,735.68 L 656.50 738.04 L 663.69 750.77 C667.65,757.77 676.09,772.71 682.44,783.97 C688.80,795.23 694.00,805.19 694.00,806.11 C694.00,807.03 693.29,808.06 692.42,808.39 C690.34,809.19 690.52,809.25 688.81,807.25 ZM 823.57 742.43 C821.73,740.59 821.63,739.56 823.04,736.93 C824.58,734.05 829.74,734.33 831.12,737.37 C833.43,742.42 827.52,746.38 823.57,742.43 ZM 179.20 733.80 C176.40,730.99 178.51,726.00 182.50,726.00 C185.18,726.00 187.00,727.82 187.00,730.50 C187.00,733.18 185.18,735.00 182.50,735.00 C181.35,735.00 179.86,734.46 179.20,733.80 ZM 218.97 687.46 C216.44,684.42 211.53,687.73 293.37,637.32 C316.95,622.79 336.37,611.04 336.53,611.20 C336.68,611.37 337.12,613.55 337.49,616.06 C337.98,619.33 337.79,620.92 336.83,621.71 C334.26,623.81 224.80,687.37 221.69,688.57 C220.94,688.85 219.71,688.36 218.97,687.46 ZM 774.50 672.62 C759.10,663.68 733.45,648.81 717.50,639.57 C701.55,630.33 687.94,622.25 687.26,621.61 C685.91,620.34 686.83,611.86 688.33,611.78 C689.30,611.73 731.68,637.55 774.96,664.55 C801.42,681.06 805.50,683.93 805.50,686.04 C805.50,687.45 804.87,688.55 804.00,688.67 C803.17,688.77 789.90,681.55 774.50,672.62 ZM 93.65 678.17 C90.73,674.94 91.62,671.29 95.87,669.05 C97.90,667.98 98.63,668.08 100.87,669.75 C104.15,672.20 104.62,674.40 102.56,677.55 C100.61,680.53 96.07,680.84 93.65,678.17 ZM 171.46 654.32 C169.98,652.84 170.00,652.57 171.67,650.96 C172.68,650.01 177.55,647.43 182.50,645.23 C187.45,643.03 209.27,633.27 231.00,623.54 C252.73,613.80 281.63,600.91 295.22,594.89 L 319.95 583.95 L 324.96 587.23 C327.71,589.03 329.97,590.78 329.98,591.11 C329.99,591.45 327.41,592.88 324.25,594.29 C313.93,598.88 193.09,648.19 175.28,655.07 C173.70,655.68 172.61,655.47 171.46,654.32 ZM 827.50 646.44 C712.68,599.77 693.99,592.03 694.02,591.15 C694.03,590.79 696.27,589.04 698.99,587.26 L 703.95 584.02 L 727.73 594.42 C751.54,604.84 785.83,620.07 813.00,632.30 C852.81,650.21 853.50,650.56 853.50,652.56 C853.50,656.19 848.75,655.07 827.50,646.44 ZM 930.75 653.92 C927.99,652.31 928.46,647.20 931.50,645.82 C933.56,644.88 934.34,645.00 936.00,646.50 C938.62,648.87 938.54,651.51 935.78,653.44 C933.19,655.25 933.06,655.27 930.75,653.92 ZM 129.70 618.00 C129.47,617.17 128.74,614.25 128.10,611.50 C126.70,605.57 125.46,604.47 118.37,602.88 C115.41,602.22 113.00,601.39 113.00,601.04 C113.00,600.69 115.70,599.84 119.00,599.16 C125.91,597.73 127.48,596.02 128.54,588.74 C129.65,581.11 130.89,581.51 132.52,590.00 C133.70,596.14 135.42,597.78 141.99,599.08 C145.29,599.73 148.00,600.62 148.00,601.06 C148.00,601.50 145.48,602.38 142.41,603.02 C135.62,604.43 133.43,606.44 132.49,612.14 C132.10,614.54 131.41,617.17 130.95,618.00 C130.23,619.33 130.09,619.33 129.70,618.00 ZM 896.24 615.90 C892.70,614.58 891.35,610.64 893.38,607.54 C896.41,602.92 904.00,604.96 904.00,610.38 C904.00,614.70 900.23,617.38 896.24,615.90 ZM 180.38 596.55 C179.07,593.14 176.87,593.89 236.00,577.52 C257.17,571.65 277.63,566.00 281.45,564.95 L 288.39 563.04 L 293.28 566.18 C296.89,568.49 297.81,569.53 296.77,570.11 C294.15,571.58 186.49,598.00 183.14,598.00 C181.93,598.00 180.69,597.35 180.38,596.55 ZM 821.50 593.87 C812.70,591.68 788.17,585.60 767.00,580.36 C745.83,575.12 728.12,570.47 727.66,570.03 C727.20,569.58 728.84,567.83 731.31,566.13 L 735.79 563.05 L 755.65 568.45 C793.31,578.70 840.28,592.08 842.20,593.11 C845.09,594.65 844.04,597.47 840.49,597.67 C838.85,597.77 830.30,596.06 821.50,593.87 ZM 264.50 454.43 C223.60,442.97 212.77,439.95 197.50,435.80 C181.84,431.53 179.29,430.29 180.38,427.44 C180.91,426.06 181.86,425.85 185.30,426.32 C190.69,427.06 294.85,452.82 296.76,453.89 C297.81,454.47 296.90,455.50 293.25,457.84 C290.54,459.58 288.14,460.97 287.91,460.94 C287.69,460.91 277.15,457.98 264.50,454.43 ZM 730.72 457.77 C727.51,455.64 726.36,454.38 727.22,453.90 C729.03,452.88 833.61,427.01 838.73,426.31 C842.14,425.85 843.09,426.06 843.62,427.44 C843.98,428.40 843.66,429.73 842.89,430.47 C841.66,431.63 819.75,437.91 755.00,455.64 C744.28,458.58 735.50,460.98 735.50,460.96 C735.50,460.95 733.35,459.52 730.72,457.77 ZM 904.97 453.26 C903.47,445.93 902.03,444.37 895.34,442.88 C892.35,442.21 889.68,441.29 889.40,440.83 C889.11,440.37 889.07,440.00 889.30,440.00 C891.68,440.00 900.60,437.74 901.64,436.88 C902.87,435.86 903.68,433.48 905.42,425.75 C906.41,421.35 907.56,422.54 908.81,429.25 C910.14,436.43 911.20,437.48 918.63,439.03 C921.58,439.64 924.00,440.56 924.00,441.07 C924.00,441.58 923.41,442.00 922.68,442.00 C921.96,442.00 919.09,442.68 916.30,443.50 C910.88,445.11 909.75,446.66 908.43,454.26 C907.43,459.97 906.27,459.64 904.97,453.26 ZM 131.45 449.55 C128.48,446.57 128.36,444.64 131.00,442.00 C133.50,439.50 137.17,439.43 139.35,441.83 C141.57,444.29 141.43,447.57 139.00,450.00 C136.36,452.64 134.43,452.52 131.45,449.55 ZM 315.00 438.07 C313.08,437.05 302.05,432.07 290.50,427.00 C278.95,421.93 266.80,416.55 263.50,415.04 C260.20,413.53 251.20,409.56 243.50,406.20 C188.67,382.31 169.50,373.30 169.50,371.42 C169.50,370.25 170.30,369.39 171.55,369.21 C174.49,368.79 319.93,426.70 322.65,429.37 C323.28,429.99 324.09,431.90 324.45,433.60 C324.99,436.20 324.68,436.98 322.58,438.35 C319.51,440.37 319.35,440.36 315.00,438.07 ZM 701.23 438.21 C699.39,436.79 699.08,435.85 699.60,433.25 C699.95,431.49 700.75,429.65 701.37,429.17 C704.87,426.45 849.92,368.85 852.38,369.20 C853.72,369.39 854.50,370.22 854.50,371.47 C854.50,373.61 853.27,374.21 802.50,396.69 C768.40,411.78 704.00,440.01 703.72,439.98 C703.60,439.97 702.48,439.17 701.23,438.21 ZM 314.00 401.67 C312.08,400.36 303.30,394.88 294.50,389.49 C285.70,384.09 267.25,372.71 253.50,364.19 C239.75,355.66 225.90,347.13 222.73,345.22 C219.56,343.31 216.74,341.39 216.48,340.96 C215.66,339.64 217.13,337.00 218.68,337.00 C220.83,337.00 253.32,355.19 302.00,383.66 L 315.50 391.56 L 316.75 396.53 C318.56,403.68 318.14,404.47 314.00,401.67 ZM 706.02 402.73 C706.03,402.05 706.62,399.25 707.33,396.51 C708.56,391.77 709.00,391.29 716.05,387.14 C732.90,377.20 754.31,364.91 793.97,342.38 C799.18,339.42 804.19,337.00 805.11,337.00 C807.31,337.00 808.43,340.03 806.79,341.55 C805.63,342.62 761.63,369.93 721.25,394.63 C712.86,399.76 706.01,403.41 706.02,402.73 ZM 939.75 386.92 C937.33,385.51 937.45,380.37 939.93,379.04 C941.00,378.47 942.32,378.00 942.86,378.00 C944.51,378.00 947.00,381.01 947.00,383.00 C947.00,385.10 944.46,388.02 942.68,387.97 C942.03,387.95 940.71,387.48 939.75,386.92 ZM 96.75 382.92 C94.74,381.75 94.43,377.97 96.20,376.20 C99.00,373.39 104.00,375.51 104.00,379.50 C104.00,383.45 100.50,385.10 96.75,382.92 ZM 430.25 323.18 C428.02,321.76 368.62,172.43 369.44,170.29 C369.75,169.49 370.97,169.00 372.21,169.18 C374.72,169.54 376.78,174.00 414.61,260.87 C441.80,323.30 439.50,317.38 437.99,321.02 C437.06,323.27 436.11,324.00 434.13,323.98 C432.68,323.98 430.94,323.61 430.25,323.18 ZM 586.37 321.44 C584.74,318.96 584.82,318.56 588.73,309.19 C593.89,296.84 617.58,242.04 622.32,231.50 C624.30,227.10 631.27,211.35 637.82,196.50 C648.77,171.67 649.93,169.47 652.36,169.18 C657.01,168.63 660.49,158.82 618.33,265.00 C605.98,296.08 595.15,322.06 594.25,322.75 C591.58,324.79 588.20,324.23 586.37,321.44 ZM 396.37 316.76 C391.66,315.63 393.65,318.76 359.41,258.40 C336.00,217.15 336.69,218.51 338.52,216.99 C341.52,214.50 340.60,213.23 366.52,255.50 C386.49,288.07 400.85,311.80 402.43,314.86 C404.30,318.48 403.94,318.59 396.37,316.76 ZM 622.57 313.39 C625.21,308.80 663.87,245.58 676.47,225.25 C682.22,215.96 683.71,214.74 685.98,217.47 C687.39,219.18 688.72,216.62 661.21,265.00 C631.53,317.18 632.48,315.69 628.19,316.47 C626.16,316.84 623.43,317.39 622.13,317.71 L 619.75 318.28 L 622.57 313.39 ZM 200.85 296.08 C198.01,293.78 198.95,289.30 202.46,288.42 C205.38,287.69 206.87,288.48 207.95,291.35 C209.69,295.94 204.74,299.23 200.85,296.08 ZM 452.65 294.00 C452.18,292.58 440.22,243.66 432.61,212.00 C425.04,180.47 424.98,180.00 428.94,180.00 C430.55,180.00 431.33,181.33 432.94,186.75 C435.17,194.30 448.27,241.30 455.54,267.80 C460.69,286.58 460.69,286.13 455.50,292.58 C453.71,294.81 453.03,295.14 452.65,294.00 ZM 567.15 289.93 L 563.99 284.86 L 568.93 266.68 C578.66,230.79 592.03,183.81 593.04,181.92 C593.61,180.86 594.67,180.00 595.41,180.00 C598.87,180.00 598.69,182.65 593.88,202.50 C591.21,213.50 585.43,237.35 581.01,255.50 C576.60,273.65 572.71,289.96 572.37,291.75 C572.03,293.54 571.42,295.00 571.02,295.00 C570.63,295.00 568.88,292.72 567.15,289.93 ZM 902.63 292.32 C902.32,290.77 901.59,285.93 901.02,281.57 C900.44,277.21 899.79,273.45 899.56,273.23 C899.34,273.01 896.83,274.67 893.99,276.91 C885.77,283.41 885.14,282.37 892.19,273.94 C894.28,271.43 896.00,269.12 896.00,268.82 C896.00,268.52 892.96,267.97 889.25,267.60 C879.31,266.60 875.00,265.83 875.00,265.06 C875.00,264.68 879.72,263.80 885.50,263.09 C891.28,262.39 896.00,261.62 896.00,261.39 C896.00,261.16 893.95,258.45 891.44,255.38 C888.94,252.30 887.13,249.54 887.43,249.23 C887.73,248.93 890.68,250.81 893.99,253.41 C897.30,256.01 900.00,257.69 900.00,257.14 C900.00,255.45 902.01,240.64 902.60,238.01 C903.48,234.10 904.64,237.38 905.44,246.00 C906.63,258.92 906.26,258.57 913.09,253.27 C916.35,250.74 919.25,248.91 919.54,249.20 C919.83,249.50 917.98,252.30 915.43,255.43 C912.88,258.56 910.98,261.32 911.22,261.55 C911.45,261.79 916.23,262.52 921.82,263.17 C927.42,263.83 932.00,264.73 932.00,265.18 C932.00,265.63 931.58,266.00 931.07,266.00 C929.24,266.00 914.46,268.11 912.74,268.62 C911.24,269.06 911.68,270.04 915.65,275.08 C918.21,278.35 920.11,281.22 919.86,281.47 C919.61,281.72 916.80,279.88 913.62,277.38 C910.43,274.88 907.65,273.01 907.44,273.23 C907.22,273.44 906.40,278.24 905.61,283.89 C904.82,289.54 903.95,294.38 903.68,294.65 C903.41,294.92 902.94,293.87 902.63,292.32 ZM 821.57 290.43 C819.43,288.29 819.60,285.67 822.00,283.50 C824.89,280.88 829.00,282.81 829.00,286.78 C829.00,291.66 824.84,293.70 821.57,290.43 ZM 136.68 267.23 C136.36,265.18 135.81,260.74 135.44,257.37 C134.45,248.36 134.06,248.12 128.03,252.88 C125.16,255.15 122.38,257.00 121.84,257.00 C121.31,257.00 122.92,254.38 125.43,251.19 C127.95,247.99 130.00,245.13 130.00,244.83 C130.00,244.54 125.28,243.73 119.50,243.05 C113.72,242.36 109.00,241.44 109.00,241.00 C109.00,240.56 113.72,239.64 119.50,238.95 C125.28,238.27 129.98,237.44 129.96,237.10 C129.94,236.77 127.92,234.02 125.47,231.00 C123.02,227.98 121.48,225.35 122.04,225.16 C122.60,224.97 125.49,226.89 128.46,229.42 C134.55,234.62 134.39,234.73 135.47,224.50 C136.97,210.37 138.28,208.60 139.40,219.23 C139.76,222.68 140.32,227.41 140.64,229.75 L 141.23 233.99 L 147.61 228.91 C151.13,226.11 154.00,224.21 154.00,224.68 C154.00,225.15 151.99,228.23 149.52,231.52 L 145.05 237.50 L 155.52 238.87 C170.15,240.77 169.29,242.00 152.25,243.59 C148.26,243.96 145.00,244.46 145.00,244.70 C145.00,244.94 147.02,247.62 149.50,250.66 C154.09,256.29 155.43,259.35 152.25,256.90 C151.29,256.16 148.42,253.86 145.88,251.79 L 141.26 248.03 L 140.00 259.04 C139.30,265.10 138.39,270.26 137.99,270.51 C137.58,270.76 136.99,269.28 136.68,267.23 ZM 290.44 210.55 C288.36,207.37 288.85,205.19 292.22,202.68 C294.49,200.99 295.35,200.84 297.44,201.79 C300.43,203.15 301.68,207.21 300.15,210.57 C298.57,214.03 292.71,214.01 290.44,210.55 ZM 756.58 178.75 C756.38,178.06 755.70,174.39 755.06,170.60 C753.01,158.47 751.01,156.76 736.26,154.48 C733.92,154.12 731.78,153.45 731.49,152.98 C730.90,152.02 731.64,151.78 742.31,149.50 C751.56,147.53 753.10,145.78 755.00,135.14 C756.57,126.29 757.00,124.88 757.94,125.46 C758.38,125.73 759.03,128.16 759.39,130.86 C759.74,133.56 760.73,138.10 761.58,140.96 C763.30,146.75 765.32,148.10 775.24,150.05 C784.62,151.91 785.25,152.09 784.55,152.78 C784.18,153.16 779.75,154.37 774.72,155.48 C766.55,157.28 765.34,157.84 763.41,160.71 C762.14,162.60 760.71,167.24 759.94,171.96 C758.75,179.34 757.48,181.89 756.58,178.75 ZM 557.57 165.43 C556.71,164.56 556.00,163.21 556.00,162.43 C556.00,160.80 559.50,157.00 561.00,157.00 C562.50,157.00 566.00,160.80 566.00,162.43 C566.00,164.44 563.20,167.00 561.00,167.00 C559.98,167.00 558.44,166.29 557.57,165.43 ZM 313.72 152.32 C313.46,151.87 312.93,148.02 312.54,143.76 C312.15,139.50 311.52,134.84 311.13,133.40 L 310.43 130.79 L 306.07 134.44 C301.29,138.44 298.00,140.45 298.00,139.39 C298.00,139.01 300.04,136.23 302.52,133.21 C305.01,130.19 306.89,127.56 306.71,127.37 C306.52,127.18 302.79,126.56 298.43,125.99 C294.07,125.42 289.38,124.69 288.00,124.37 C285.61,123.81 285.59,123.75 287.57,122.99 C288.71,122.55 292.76,121.87 296.57,121.46 C307.69,120.29 307.64,120.36 302.35,113.69 C299.83,110.51 297.99,107.68 298.27,107.39 C298.55,107.11 301.34,108.97 304.48,111.52 C307.61,114.07 310.33,116.00 310.53,115.80 C310.73,115.60 311.43,111.18 312.08,105.97 C312.73,100.76 313.60,95.87 314.01,95.10 C314.43,94.29 315.26,97.48 315.95,102.60 C317.91,117.18 317.51,116.76 324.30,111.36 C327.49,108.83 330.32,106.99 330.61,107.27 C330.89,107.55 329.03,110.34 326.48,113.48 C323.93,116.61 322.02,119.36 322.25,119.58 C322.48,119.81 326.45,120.51 331.08,121.13 C346.30,123.17 346.40,124.13 331.60,125.90 C326.71,126.49 322.49,127.18 322.23,127.44 C321.97,127.69 323.91,130.41 326.52,133.48 C329.14,136.54 331.02,139.32 330.69,139.64 C330.36,139.97 327.50,138.18 324.33,135.67 C321.16,133.15 318.46,131.21 318.32,131.35 C318.18,131.49 317.36,136.28 316.50,142.00 C314.92,152.53 314.58,153.78 313.72,152.32 ZM 442.00 142.00 C440.90,140.90 440.00,139.10 440.00,138.00 C440.00,135.29 443.48,132.00 446.35,132.00 C451.31,132.00 453.89,138.98 450.17,142.35 C447.71,144.57 444.43,144.43 442.00,142.00 ZM 620.81 131.46 C620.50,130.93 619.69,125.89 619.01,120.25 C618.33,114.61 617.53,110.00 617.24,110.00 C616.95,110.00 614.63,111.66 612.10,113.68 C605.05,119.32 605.00,119.35 605.00,118.21 C605.00,117.65 607.03,114.70 609.50,111.66 C614.58,105.42 614.71,105.61 604.50,104.53 C589.96,102.99 588.53,101.66 600.24,100.55 C604.23,100.17 609.01,99.55 610.85,99.17 L 614.20 98.48 L 609.46 92.71 C606.85,89.55 604.99,86.67 605.33,86.33 C605.67,85.99 608.55,87.86 611.73,90.47 L 617.50 95.23 L 619.00 84.69 C619.83,78.89 620.78,73.87 621.13,73.53 C621.47,73.19 622.28,76.64 622.91,81.20 C623.55,85.77 624.31,90.71 624.60,92.20 L 625.14 94.89 L 631.07 90.28 C634.34,87.75 637.21,85.88 637.47,86.13 C637.72,86.39 635.92,89.15 633.46,92.28 C631.01,95.40 629.00,98.15 629.00,98.37 C629.00,98.59 633.51,99.33 639.01,100.00 C653.58,101.79 652.97,103.01 636.72,104.61 C632.99,104.98 629.70,105.67 629.41,106.15 C629.11,106.63 630.99,109.51 633.58,112.54 C636.17,115.57 638.02,118.32 637.69,118.64 C637.36,118.97 634.50,117.18 631.33,114.66 C627.69,111.78 625.31,110.49 624.89,111.18 C624.51,111.79 623.90,115.59 623.52,119.63 C622.73,128.06 621.63,132.85 620.81,131.46 ZM 909.99 125.43 C908.61,118.14 907.17,116.62 900.50,115.45 C894.39,114.37 892.93,113.29 896.51,112.48 C908.15,109.83 908.21,109.78 910.08,101.08 C910.68,98.28 911.49,96.00 911.88,96.00 C912.28,96.00 913.16,98.70 913.84,102.00 C915.19,108.56 916.88,110.30 923.00,111.48 C929.43,112.71 930.48,113.16 928.91,113.99 C928.14,114.40 925.70,115.06 923.50,115.45 C916.91,116.60 915.24,118.27 913.92,125.01 C913.26,128.33 912.39,131.26 911.98,131.51 C911.56,131.77 910.67,129.03 909.99,125.43 ZM 199.82 129.50 C199.48,128.95 198.86,126.28 198.46,123.56 C197.56,117.57 194.68,114.37 189.36,113.49 C181.50,112.18 181.08,110.72 188.23,109.58 C195.00,108.50 196.76,106.80 198.16,100.00 C198.84,96.70 199.69,94.00 200.04,94.00 C200.39,94.00 201.25,96.59 201.95,99.75 C202.65,102.91 203.66,106.04 204.19,106.70 C204.72,107.35 207.71,108.44 210.83,109.10 C217.77,110.59 219.22,111.68 215.39,112.54 C203.55,115.23 204.15,114.72 201.97,123.99 C201.13,127.57 200.16,130.05 199.82,129.50 ZM 102.22 126.44 C99.52,124.55 99.37,121.88 101.83,119.65 C104.31,117.41 106.59,117.57 108.37,120.11 C109.99,122.44 109.56,124.82 107.17,126.75 C105.19,128.34 104.91,128.32 102.22,126.44 ZM 812.57 100.43 C810.35,98.21 810.62,95.38 813.22,93.56 C814.44,92.70 815.79,92.00 816.22,92.00 C817.55,92.00 821.00,95.92 821.00,97.43 C821.00,99.44 818.20,102.00 816.00,102.00 C814.98,102.00 813.44,101.29 812.57,100.43 ZM 511.70 644.29 C510.96,643.12 509.75,631.32 508.23,610.50 L 507.50 600.50 L 503.50 600.25 C498.11,599.92 484.13,597.99 482.47,597.35 C481.56,597.00 478.95,601.39 474.21,611.27 C467.90,624.44 465.65,627.99 464.43,626.76 C464.19,626.52 465.85,620.07 468.11,612.41 C470.37,604.76 472.43,597.78 472.69,596.91 C473.04,595.69 471.31,594.66 465.33,592.54 C461.02,591.02 454.77,588.54 451.43,587.03 L 445.37 584.29 L 436.43 592.21 C431.52,596.57 426.71,600.57 425.75,601.10 C421.45,603.48 425.06,597.40 435.69,584.35 L 439.07 580.21 L 435.63 578.08 C433.74,576.91 427.85,572.65 422.55,568.61 L 412.90 561.26 L 407.20 563.61 C397.75,567.49 396.36,566.54 403.56,561.11 C408.92,557.07 409.33,557.80 395.32,546.27 C390.19,542.05 386.00,538.26 386.00,537.83 C386.00,535.52 394.59,540.44 419.91,557.26 C456.32,581.43 475.41,588.53 507.00,589.65 C542.89,590.91 564.69,583.45 607.77,555.17 C620.27,546.96 631.99,539.49 633.82,538.56 C640.22,535.32 639.20,537.65 631.39,544.17 C627.05,547.79 621.78,552.27 619.68,554.12 L 615.85 557.50 L 621.18 561.47 C627.64,566.30 625.98,567.23 617.24,563.68 L 611.26 561.25 L 603.13 567.52 C598.65,570.97 592.78,575.22 590.07,576.95 L 585.15 580.11 L 593.08 590.28 C597.43,595.88 601.00,600.80 601.00,601.23 C601.00,603.16 598.31,601.39 588.80,593.16 L 578.57 584.32 L 572.54 587.05 C569.22,588.55 562.99,591.02 558.70,592.53 C554.31,594.09 551.08,595.78 551.31,596.40 C553.76,602.93 560.08,626.26 559.54,626.79 C558.38,627.95 556.09,624.21 549.35,610.15 C545.13,601.36 542.50,596.98 541.66,597.30 C539.73,598.04 526.12,599.99 521.00,600.26 L 516.50 600.50 L 515.27 618.00 C513.86,638.19 512.79,646.03 511.70,644.29 ZM 501.50 575.39 C472.96,572.54 447.54,563.05 416.77,543.73 C409.22,538.99 398.08,532.35 392.03,528.97 C385.97,525.60 380.05,522.05 378.86,521.09 C375.68,518.51 377.01,515.04 382.72,511.01 C385.35,509.16 396.08,501.25 406.56,493.43 C429.84,476.06 436.97,471.40 450.77,464.54 C483.53,448.28 517.48,445.29 552.00,455.65 C570.26,461.12 586.75,470.36 611.48,488.98 C621.39,496.43 633.21,505.15 637.75,508.34 C642.29,511.53 646.50,515.07 647.10,516.20 C648.56,518.92 645.83,521.59 636.50,526.56 C629.98,530.04 626.28,532.24 602.59,546.77 C580.45,560.35 555.79,570.36 537.00,573.40 C527.00,575.01 508.27,576.07 501.50,575.39 ZM 510.00 555.00 C510.70,551.70 511.64,549.00 512.09,549.00 C512.53,549.00 513.44,551.72 514.09,555.05 C515.26,561.01 515.33,561.10 518.39,560.80 L 521.50 560.50 L 521.15 554.25 C520.93,550.41 521.19,548.00 521.83,548.00 C522.39,548.00 524.03,550.48 525.46,553.51 L 528.07 559.02 L 530.99 557.51 L 533.91 556.00 L 532.45 551.87 C531.65,549.60 531.02,546.79 531.04,545.62 C531.08,543.85 531.78,544.27 535.30,548.19 L 539.50 552.88 L 542.00 550.98 C544.12,549.37 544.31,548.81 543.26,547.29 C540.70,543.58 538.89,539.83 539.20,538.89 C539.38,538.35 541.69,539.35 544.34,541.10 L 549.15 544.29 L 551.29 542.15 L 553.43 540.01 L 549.03 535.53 C546.61,533.06 544.86,530.81 545.15,530.52 C545.44,530.23 548.18,530.86 551.25,531.91 L 556.83 533.83 L 558.05 530.88 C558.72,529.26 559.10,527.84 558.88,527.72 C558.67,527.60 556.36,526.38 553.75,525.02 C551.14,523.66 549.00,522.19 549.00,521.77 C549.00,521.35 551.92,521.00 555.50,521.00 C562.00,521.00 562.00,521.00 562.00,518.11 C562.00,515.59 561.55,515.14 558.39,514.55 C556.41,514.17 553.61,513.42 552.18,512.88 C548.79,511.59 550.58,510.38 557.20,509.47 C560.94,508.96 562.00,508.41 562.00,506.99 C562.00,503.28 561.04,502.40 557.47,502.81 C553.01,503.33 548.72,502.27 549.59,500.86 C549.96,500.26 552.23,498.90 554.63,497.84 C558.90,495.95 559.73,494.69 558.23,492.34 C557.71,491.52 556.16,491.43 553.00,492.05 C550.52,492.52 547.94,492.93 547.25,492.96 C545.40,493.02 545.73,490.18 547.95,487.07 C550.11,484.03 550.18,484.07 543.25,483.89 C540.56,483.82 540.00,483.41 540.00,481.52 C540.00,479.15 536.31,476.00 533.54,476.00 C532.69,476.00 532.00,475.59 532.00,475.09 C532.00,473.22 519.67,470.00 512.49,470.00 C505.41,470.00 495.87,472.13 493.00,474.36 C492.17,474.99 489.81,476.37 487.75,477.42 C485.15,478.73 484.00,479.98 484.00,481.49 C484.00,483.20 483.36,483.71 481.00,483.86 C473.66,484.32 473.96,484.14 476.10,486.85 C478.26,489.60 478.62,493.02 476.75,492.96 C476.06,492.93 473.48,492.52 471.00,492.05 C466.58,491.19 465.05,491.82 465.02,494.50 C465.01,495.05 467.51,496.81 470.56,498.40 C476.99,501.76 476.38,502.96 468.25,502.98 C464.39,503.00 463.00,503.38 463.00,504.42 C463.00,505.20 462.73,506.55 462.39,507.42 C461.95,508.56 462.39,509.00 463.95,509.00 C467.57,509.00 475.01,511.18 474.46,512.07 C474.17,512.53 471.23,513.44 467.92,514.10 C463.37,514.99 462.03,515.63 462.45,516.72 C462.75,517.52 463.00,518.80 463.00,519.58 C463.00,520.66 464.57,521.00 469.62,521.00 C475.24,521.00 476.07,521.22 475.06,522.43 C474.41,523.21 471.88,524.67 469.44,525.68 C464.69,527.63 464.21,528.54 466.38,531.50 C467.63,533.21 468.15,533.27 471.98,532.12 C474.31,531.43 476.84,530.62 477.60,530.32 C480.33,529.28 478.94,532.13 474.93,535.84 L 470.86 539.60 L 472.79 541.99 L 474.72 544.37 L 479.53 541.19 C482.18,539.43 484.76,538.00 485.27,538.00 C485.78,538.00 484.78,540.50 483.05,543.56 L 479.92 549.11 L 482.21 551.04 L 484.50 552.97 L 488.68 548.25 C490.98,545.65 493.11,543.78 493.41,544.08 C493.71,544.38 493.22,547.22 492.31,550.40 C490.91,555.35 490.87,556.31 492.09,557.07 C494.88,558.84 496.71,557.96 498.50,553.99 C499.50,551.79 500.95,549.46 501.73,548.81 C502.94,547.80 503.13,548.53 503.00,553.56 C502.91,556.83 502.87,559.84 502.92,560.25 C502.96,560.66 504.29,561.00 505.86,561.00 C508.55,561.00 508.80,560.64 510.00,555.00 ZM 464.46 551.25 C454.64,539.37 450.00,526.66 450.00,511.65 C450.00,497.77 453.41,486.53 460.96,475.56 C462.68,473.05 463.74,471.01 463.30,471.03 C462.86,471.05 460.02,472.29 457.00,473.78 C452.94,475.79 450.53,477.90 447.80,481.85 C443.28,488.39 439.18,500.31 438.33,509.38 C437.47,518.55 436.03,515.80 436.02,504.97 C436.00,497.27 437.27,489.92 439.54,484.55 C440.29,482.78 440.05,482.82 436.93,484.96 C431.96,488.38 430.32,490.71 427.77,498.00 C425.86,503.48 425.51,506.46 425.57,517.00 L 425.64 529.50 L 423.67 525.00 C420.82,518.49 419.38,507.23 420.67,501.58 C421.91,496.18 421.03,495.79 417.63,500.25 C414.14,504.83 412.66,511.74 413.23,520.72 C413.81,529.80 413.06,529.00 431.90,540.33 C442.46,546.67 466.15,557.86 469.27,557.97 C469.70,557.99 467.53,554.96 464.46,551.25 ZM 561.23 555.62 C572.54,551.34 584.45,545.41 595.57,538.54 C610.72,529.17 611.00,528.80 611.00,518.57 C611.00,509.48 609.23,502.94 605.79,499.28 C602.67,495.96 602.15,496.44 603.33,501.58 C604.63,507.29 603.16,518.59 600.28,525.00 L 598.26 529.50 L 598.76 519.48 C599.59,503.07 595.91,491.10 588.47,485.98 L 584.23 483.06 L 586.11 489.12 C588.17,495.72 588.74,512.31 587.00,515.00 C586.28,516.11 586.02,515.45 586.00,512.50 C585.91,502.07 580.45,486.20 574.53,479.20 C572.01,476.22 563.48,471.00 561.13,471.00 C560.62,471.00 562.12,473.93 564.47,477.50 C569.60,485.31 573.76,497.34 574.56,506.67 C575.87,522.00 569.38,540.95 558.88,552.44 C556.09,555.50 554.06,558.00 554.38,558.00 C554.69,558.00 557.78,556.93 561.23,555.62 ZM 410.00 525.57 C410.00,525.33 409.54,523.92 408.97,522.43 C408.41,520.95 407.88,516.87 407.79,513.37 C407.70,509.87 407.29,507.00 406.88,507.00 C404.71,507.00 402.00,512.57 402.00,517.04 C402.00,521.32 402.33,522.01 405.25,523.88 C408.40,525.90 410.00,526.47 410.00,525.57 ZM 619.14 523.80 C623.01,521.63 623.05,521.54 622.40,517.05 C621.60,511.53 620.56,509.37 618.04,508.02 C616.30,507.09 616.17,507.29 616.65,510.25 C616.93,512.04 616.52,516.31 615.72,519.75 C614.92,523.19 614.48,526.00 614.75,526.00 C615.01,526.00 616.99,525.01 619.14,523.80 ZM 398.30 516.77 C397.86,514.46 397.49,514.20 395.89,515.06 C393.40,516.39 393.50,517.47 396.25,518.72 C399.02,519.99 398.93,520.07 398.30,516.77 ZM 629.28 515.76 C627.00,513.23 626.00,513.58 626.00,516.91 C626.00,519.63 626.15,519.74 628.43,518.66 C630.68,517.60 630.75,517.38 629.28,515.76 ZM 381.00 496.20 C381.00,495.77 387.31,489.15 395.03,481.50 L 409.06 467.60 L 406.28 465.42 C399.58,460.16 398.54,459.13 399.24,458.42 C399.65,458.01 403.11,458.93 406.92,460.47 L 413.84 463.26 L 421.17 457.31 C425.20,454.04 430.75,449.86 433.50,448.02 C436.25,446.18 438.68,444.53 438.90,444.36 C439.12,444.18 436.62,440.76 433.34,436.77 C425.21,426.83 422.80,423.24 423.86,422.58 C424.86,421.97 429.57,425.53 439.30,434.25 L 445.72 440.00 L 454.11 436.14 C458.72,434.02 464.86,431.51 467.75,430.56 C470.64,429.62 472.99,428.76 472.97,428.67 C472.96,428.58 470.99,421.75 468.59,413.50 C466.20,405.25 464.44,398.16 464.69,397.73 C465.65,396.09 467.32,398.67 474.15,412.33 C478.04,420.12 481.31,426.60 481.42,426.72 C481.53,426.85 483.26,426.49 485.26,425.94 C487.27,425.38 493.10,424.61 498.21,424.21 L 507.50 423.50 L 509.16 403.00 C510.07,391.73 510.86,381.94 510.91,381.25 C510.96,380.56 511.42,380.00 511.94,380.00 C513.19,380.00 513.85,385.13 515.29,406.00 L 516.50 423.50 L 525.53 424.19 C530.49,424.58 536.46,425.32 538.79,425.84 L 543.02 426.79 L 550.26 412.21 C556.88,398.87 560.05,394.63 559.15,400.30 C558.78,402.65 552.59,424.41 551.52,427.13 C551.05,428.32 551.61,428.94 553.61,429.44 C555.11,429.82 561.48,432.41 567.76,435.20 L 579.17 440.27 L 585.84 433.81 C594.64,425.27 598.96,421.86 600.10,422.56 C601.20,423.24 598.83,426.85 590.83,436.67 L 585.00 443.84 L 592.25 449.06 C596.24,451.94 601.82,456.25 604.66,458.65 C607.50,461.04 610.25,463.00 610.79,463.00 C611.32,463.00 614.34,461.85 617.51,460.45 C626.18,456.62 627.57,457.73 620.76,463.03 L 615.03 467.50 L 629.75 482.25 C637.85,490.36 643.86,497.00 643.10,497.00 C640.90,497.00 626.66,487.04 611.50,474.91 C588.25,456.30 571.57,446.42 553.00,440.27 C527.77,431.92 495.98,432.06 470.00,440.63 C454.13,445.86 432.81,458.51 413.50,474.14 C402.71,482.87 383.19,497.00 381.91,497.00 C381.41,497.00 381.00,496.64 381.00,496.20 ZM 503.50 539.67 C489.55,535.09 480.55,521.17 482.48,507.16 C483.49,499.81 484.17,499.37 488.24,503.44 C491.02,506.22 492.60,507.00 495.45,507.00 C505.40,507.00 511.08,497.56 506.07,489.34 C505.01,487.60 503.21,485.88 502.07,485.52 C498.97,484.54 499.55,483.45 503.87,482.16 C517.71,478.01 532.75,484.96 539.14,498.46 C548.27,517.75 535.14,539.34 513.50,540.63 C510.20,540.83 505.70,540.40 503.50,539.67 Z" fill="rgba(0,0,0,1)"/>
</g>
</svg>